<svg width="48" height="47" viewBox="0 0 48 47" fill="none" xmlns="http://www.w3.org/2000/svg">
<path d="M10.7813 39.1006C10.5948 39.1006 10.4159 39.1747 10.2841 39.3066C10.1522 39.4384 10.0781 39.6173 10.0781 39.8037V46.2969C10.0781 46.4834 10.1522 46.6622 10.2841 46.7941C10.4159 46.9259 10.5948 47 10.7813 47C10.9677 47 11.1466 46.9259 11.2784 46.7941C11.4103 46.6622 11.4844 46.4834 11.4844 46.2969V39.8037C11.4844 39.6173 11.4103 39.4384 11.2784 39.3066C11.1466 39.1747 10.9677 39.1006 10.7813 39.1006ZM45.6563 32.3244C44.4538 31.1137 42.892 30.3244 41.2041 30.0744C40.4348 29.5351 39.5826 29.1251 38.6813 28.8603L30.5334 26.4575C29.9438 26.2857 29.4151 25.9499 29.0091 25.4891C28.692 25.1285 28.464 24.6985 28.3434 24.2338C28.2818 23.9885 28.2503 23.7366 28.2497 23.4837C28.2422 23.0816 28.2319 22.6503 28.2197 22.1984C29.4384 20.9084 30.4041 19.2866 31.0631 17.465H31.4063C32.2638 17.464 33.0859 17.1229 33.6922 16.5166C34.2986 15.9102 34.6396 15.0881 34.6406 14.2306V13.3081C34.6413 12.4903 34.3306 11.7029 33.7716 11.1059C34.8863 9.17094 35.1338 7.68968 34.5281 6.59187C34.3434 6.26954 34.0953 5.98794 33.7988 5.76406C33.5625 5.5625 33.375 5.40781 33.1922 5.02343C32.925 4.45062 32.9494 3.94718 32.9766 3.41375C33.0094 2.77062 33.0459 2.04125 32.4966 1.35125C31.8497 0.536559 30.8728 0.389372 30.3497 0.311559C28.9003 0.0903093 27.6441 0.653747 26.7506 1.27156C25.0716 0.292809 22.9069 -0.134691 20.8538 0.120309C19.7955 0.251347 18.7712 0.579846 17.8341 1.08875C17.0016 0.573122 15.8419 0.109997 14.5172 0.310622C13.9922 0.390309 13.0172 0.536559 12.3694 1.35031C11.82 2.04125 11.8566 2.77062 11.8894 3.41281C11.9156 3.94625 11.9419 4.44968 11.6738 5.0225C11.4938 5.40687 11.3063 5.5625 11.07 5.75937C10.774 5.98299 10.5259 6.26388 10.3406 6.58531C9.7425 7.67281 9.97782 9.1325 11.0606 11.0366C10.465 11.6403 10.1312 12.4544 10.1316 13.3025V14.225C10.1326 15.0825 10.4736 15.9046 11.08 16.511C11.6863 17.1173 12.5084 17.4584 13.3659 17.4594H13.8225C14.3569 19.1272 15.135 20.6937 16.1869 21.9772C16.3031 22.1187 16.4231 22.2584 16.5441 22.3878L16.4119 23.4294C16.4079 23.4605 16.4061 23.4918 16.4063 23.5231C16.4032 24.2569 16.1348 24.9649 15.6506 25.5163C15.2447 25.9791 14.7148 26.3161 14.1234 26.4875L9.93188 27.7231L9.90563 27.7306L6.07969 28.8566C4.33371 29.3621 2.79549 30.4134 1.69032 31.8566C0.593026 33.2757 -0.00156552 35.0192 3.09572e-06 36.8131V46.2969C3.09572e-06 46.4834 0.0740821 46.6622 0.205944 46.7941C0.337805 46.9259 0.516648 47 0.703128 47C0.889608 47 1.06845 46.9259 1.20031 46.7941C1.33217 46.6622 1.40625 46.4834 1.40625 46.2969V36.8131C1.40578 35.3279 1.89842 33.8846 2.80688 32.7097C3.73163 31.5044 5.01777 30.6266 6.47719 30.2047L10.2797 29.0797L10.305 29.0722L13.68 28.0784L14.1197 33.8066C14.1314 33.9617 14.1944 34.1084 14.2988 34.2238C14.6617 34.6207 15.1606 34.8665 15.6965 34.9124C16.2324 34.9582 16.7659 34.8008 17.1909 34.4712L21.6844 30.9734V46.2969C21.6844 46.4834 21.7585 46.6622 21.8903 46.7941C22.0222 46.9259 22.201 47 22.3875 47C22.574 47 22.7528 46.9259 22.8847 46.7941C23.0165 46.6622 23.0906 46.4834 23.0906 46.2969V31.0822L27.4491 34.475C27.8737 34.8044 28.4067 34.962 28.9422 34.9165C29.4777 34.871 29.9764 34.6257 30.3394 34.2294C30.4438 34.1147 30.5071 33.9686 30.5194 33.8141L30.9881 28.0531L38.2331 30.1897C37.1447 30.4413 36.1212 30.9184 35.2287 31.5904C34.3363 32.2623 33.5948 33.114 33.0521 34.0904C32.5094 35.0669 32.1777 36.1463 32.0783 37.259C31.9789 38.3717 32.1142 39.4929 32.4752 40.55C32.8363 41.6072 33.4152 42.5768 34.1744 43.3962C34.9337 44.2156 35.8565 44.8666 36.8831 45.3071C37.9097 45.7475 39.0173 45.9677 40.1343 45.9533C41.2513 45.9389 42.3529 45.6902 43.3678 45.2234V46.2969C43.3678 46.4834 43.4419 46.6622 43.5738 46.7941C43.7056 46.9259 43.8845 47 44.0709 47C44.2574 47 44.4363 46.9259 44.5681 46.7941C44.7 46.6622 44.7741 46.4834 44.7741 46.2969V44.3881C45.6961 43.7043 46.4599 42.8299 47.0136 41.8243C47.5673 40.8188 47.8979 39.7057 47.9827 38.561C48.0676 37.4162 47.9048 36.2666 47.5054 35.1904C47.1061 34.1142 46.4795 33.1367 45.6684 32.3244H45.6563ZM33.2241 14.2306C33.2234 14.6968 33.0446 15.1452 32.7243 15.484C32.404 15.8227 31.9664 16.0263 31.5009 16.0531C31.7373 15.1428 31.8966 14.2142 31.9772 13.2772C32.0194 12.7953 32.04 12.3012 32.0391 11.81C32.0391 11.7397 32.0391 11.6694 32.0391 11.5991C32.3876 11.7293 32.6882 11.9628 32.9006 12.2684C33.113 12.5739 33.2271 12.9369 33.2278 13.3091L33.2241 14.2306ZM30.1303 1.70656C30.5325 1.76656 31.0838 1.84906 31.3866 2.23062C31.5956 2.49406 31.5919 2.77906 31.5628 3.34812C31.5319 3.96593 31.4934 4.73468 31.9097 5.62437C32.1322 6.10379 32.4677 6.52202 32.8875 6.84312C33.0694 6.99406 33.1894 7.09343 33.2841 7.26687C33.6188 7.87344 33.3778 8.91687 32.5959 10.3034C32.3844 10.2181 32.1644 10.1552 31.9397 10.1159C31.5759 6.83468 30.1781 3.99406 27.9825 2.15375C28.5984 1.81906 29.3438 1.58 30.1397 1.70187L30.1303 1.70656ZM18.1641 2.525C18.178 2.51745 18.1915 2.509 18.2044 2.49968C19.0648 1.97367 20.028 1.63831 21.0291 1.51625C21.3683 1.47348 21.7099 1.45219 22.0519 1.4525C23.6288 1.4525 25.1934 1.89593 26.3888 2.70218H26.3963H26.4028C26.6091 2.84093 26.8125 2.99375 27.0103 3.15593C28.8225 4.63625 30.0272 6.91156 30.4603 9.58344L28.3688 10.5603C28.0638 10.2652 27.656 10.1001 27.2316 10.1H24.6919C24.4217 10.0996 24.1556 10.1663 23.9175 10.2941C23.4325 10.0878 22.9108 9.98145 22.3838 9.98145C21.8567 9.98145 21.335 10.0878 20.85 10.2941C20.6129 10.1664 20.3477 10.0997 20.0784 10.1H17.5378C17.2617 10.0998 16.9901 10.1698 16.7484 10.3034L14.4628 9.245C14.4975 8.99093 14.5388 8.74437 14.5856 8.50718C14.8744 7.05969 15.5156 5.02062 16.9294 3.52812C17.2974 3.14351 17.7122 2.80651 18.1641 2.525ZM27.4688 11.7406V12.8656C27.4685 12.9277 27.4437 12.9872 27.3998 13.0311C27.3559 13.075 27.2965 13.0998 27.2344 13.1H24.6919C24.6298 13.0998 24.5703 13.075 24.5264 13.0311C24.4825 12.9872 24.4578 12.9277 24.4575 12.8656V11.7406C24.4575 11.7023 24.4671 11.6645 24.4856 11.6309C24.5131 11.6045 24.5385 11.576 24.5616 11.5456C24.6002 11.5199 24.6455 11.5062 24.6919 11.5062H27.2316C27.2626 11.5059 27.2934 11.5117 27.3221 11.5233C27.3509 11.5349 27.3771 11.5521 27.3991 11.5739C27.4212 11.5957 27.4387 11.6217 27.4506 11.6503C27.4626 11.6789 27.4688 11.7096 27.4688 11.7406ZM20.3156 11.7406V12.8656C20.3154 12.9277 20.2906 12.9872 20.2467 13.0311C20.2028 13.075 20.1433 13.0998 20.0813 13.1H17.5406C17.4785 13.0998 17.4191 13.075 17.3752 13.0311C17.3313 12.9872 17.3065 12.9277 17.3063 12.8656V11.7406C17.3066 11.7127 17.312 11.6851 17.3222 11.6591C17.3648 11.6214 17.4028 11.5789 17.4356 11.5325C17.4681 11.5157 17.5041 11.5067 17.5406 11.5062H20.0813C20.1247 11.5063 20.1673 11.5186 20.2041 11.5419C20.2301 11.5753 20.2586 11.6066 20.2894 11.6356C20.3055 11.6682 20.3135 11.7043 20.3128 11.7406H20.3156ZM13.3688 16.0531C12.8841 16.0524 12.4196 15.8595 12.0769 15.5169C11.7342 15.1742 11.5414 14.7096 11.5406 14.225V13.3025C11.5412 12.8979 11.676 12.5049 11.9238 12.1851C12.1717 11.8653 12.5186 11.6368 12.9103 11.5353C12.9165 13.0562 13.0932 14.5716 13.4372 16.0531H13.3688ZM13.2094 8.23062C13.125 8.65531 13.0584 9.1025 13.0097 9.56468C13.0097 9.58156 13.0097 9.59844 13.0041 9.61531C12.9881 9.77281 12.9741 9.93312 12.9619 10.0944C12.7173 10.1255 12.477 10.1843 12.2456 10.2697C11.4769 8.89812 11.2444 7.865 11.5753 7.26406C11.6775 7.09742 11.8124 6.95326 11.9719 6.84031C12.3917 6.51921 12.7272 6.10098 12.9497 5.62156C13.3659 4.73187 13.3247 3.96312 13.2966 3.34531C13.2675 2.77625 13.2638 2.49125 13.4728 2.22687C13.7747 1.85187 14.3269 1.76375 14.7309 1.70375C15.3455 1.62239 15.9705 1.72005 16.5309 1.985C16.3142 2.1659 16.1076 2.3587 15.9122 2.5625C14.6081 3.935 13.6725 5.89531 13.2066 8.23156L13.2094 8.23062ZM15.045 16.6147C15.0392 16.5864 15.0314 16.5585 15.0216 16.5312C14.4946 14.6458 14.2631 12.6901 14.3353 10.7337L15.9291 11.4687C15.9133 11.5582 15.9052 11.6488 15.9047 11.7397V12.8647C15.9054 13.2996 16.0785 13.7164 16.386 14.024C16.6936 14.3315 17.1104 14.5046 17.5453 14.5053H20.0859C20.5208 14.5046 20.9377 14.3315 21.2452 14.024C21.5527 13.7164 21.7258 13.2996 21.7266 12.8647V11.7397C21.7258 11.6539 21.7182 11.5683 21.7041 11.4837C21.9555 11.4126 22.2164 11.3809 22.4775 11.39C22.6815 11.397 22.8839 11.4285 23.0803 11.4837C23.0665 11.5681 23.0593 11.6533 23.0588 11.7387V12.8637C23.0595 13.2986 23.2326 13.7155 23.5401 14.023C23.8476 14.3305 24.2645 14.5036 24.6994 14.5044H27.2391C27.6728 14.5024 28.0882 14.329 28.3947 14.022C28.7011 13.7151 28.8738 13.2994 28.875 12.8656V11.8766L30.6216 11.0684C30.6347 11.3134 30.6419 11.56 30.6431 11.8081C30.6431 12.2581 30.6244 12.71 30.5859 13.1506C30.4915 14.2791 30.2714 15.3935 29.9297 16.4731C29.9096 16.519 29.8942 16.5667 29.8838 16.6156C29.25 18.5 28.2722 20.1622 27.0188 21.4231L26.9991 21.4437C26.6264 21.8183 26.2227 22.1608 25.7925 22.4675C24.7275 23.2222 23.55 23.6216 22.3875 23.6216C20.3747 23.6216 18.6544 22.7684 17.2744 21.0903C16.2572 19.8472 15.5241 18.2806 15.0422 16.6156L15.045 16.6147ZM16.3275 33.3631C16.2099 33.4524 16.0684 33.5048 15.921 33.5135C15.7736 33.5221 15.6269 33.4868 15.4997 33.4119L15.0563 27.6388C15.4681 27.4617 15.8518 27.2255 16.1953 26.9375L20.9944 29.7256L16.3275 33.3631ZM22.3125 28.8697L17.1328 25.8603C17.5661 25.1713 17.8013 24.3763 17.8125 23.5625V23.5306C19.1345 24.51 20.7385 25.034 22.3838 25.0241C23.8397 25.0241 25.2984 24.5356 26.6025 23.6103C26.6841 23.5522 26.7656 23.4922 26.8463 23.4312C26.8463 23.4575 26.8463 23.4847 26.8463 23.5109C26.8509 24.3345 27.0871 25.1402 27.5278 25.8359L22.3125 28.8697ZM29.1347 33.4128C29.0075 33.4882 28.8606 33.5239 28.713 33.5154C28.5654 33.5068 28.4237 33.4545 28.3059 33.365L23.6344 29.7284L28.4719 26.9159C28.8142 27.2002 29.1956 27.4338 29.6044 27.6097L29.1347 33.4128ZM44.6653 42.6209C44.3663 42.9238 44.0388 43.1972 43.6875 43.4375L43.665 43.4525C42.2572 44.3923 40.5421 44.7548 38.8744 44.4651C37.2068 44.1754 35.7144 43.2556 34.706 41.8962C33.6977 40.5367 33.2506 38.8416 33.4573 37.1617C33.664 35.4817 34.5087 33.9455 35.8165 32.8711C37.1244 31.7966 38.7952 31.2661 40.4834 31.3893C42.1715 31.5125 43.7476 32.28 44.8856 33.533C46.0235 34.786 46.6362 36.4286 46.5967 38.1207C46.5573 39.8129 45.8688 41.4251 44.6738 42.6238L44.6653 42.6209ZM43.4063 34.1375C43.4063 33.951 43.3322 33.7722 43.2003 33.6403C43.0685 33.5085 42.8896 33.4344 42.7031 33.4344H37.3959C37.2095 33.4344 37.0306 33.5085 36.8988 33.6403C36.7669 33.7722 36.6928 33.951 36.6928 34.1375C36.6928 34.324 36.7669 34.5028 36.8988 34.6347C37.0306 34.7665 37.2095 34.8406 37.3959 34.8406H39.225C39.5014 34.8412 39.7724 34.9164 40.0096 35.0583C40.2467 35.2002 40.4411 35.4036 40.5722 35.6469H37.3959C37.2095 35.6469 37.0306 35.721 36.8988 35.8528C36.7669 35.9847 36.6928 36.1635 36.6928 36.35C36.6928 36.5365 36.7669 36.7153 36.8988 36.8472C37.0306 36.979 37.2095 37.0531 37.3959 37.0531H40.6078C40.4843 37.3157 40.2888 37.5378 40.044 37.6937C39.7992 37.8495 39.5152 37.9326 39.225 37.9334H37.4353C37.2899 37.918 37.1434 37.9483 37.0161 38.0202C36.8887 38.092 36.787 38.2018 36.7251 38.3342C36.6632 38.4667 36.6441 38.6151 36.6706 38.7589C36.6971 38.9027 36.7678 39.0346 36.8728 39.1362L40.8938 43.0466C41.0287 43.1695 41.2062 43.2352 41.3886 43.2296C41.5711 43.2241 41.7442 43.1478 41.8715 43.0169C41.9987 42.886 42.0701 42.7108 42.0704 42.5282C42.0708 42.3457 42.0002 42.1702 41.8734 42.0387L39.0984 39.3397H39.2231C39.8896 39.3391 40.5362 39.1127 41.0576 38.6975C41.5789 38.2822 41.9441 37.7026 42.0938 37.0531H42.7041C42.8905 37.0531 43.0694 36.979 43.2012 36.8472C43.3331 36.7153 43.4072 36.5365 43.4072 36.35C43.4072 36.1635 43.3331 35.9847 43.2012 35.8528C43.0694 35.721 42.8905 35.6469 42.7041 35.6469H42.0759C42.0024 35.3625 41.8868 35.0908 41.7328 34.8406H42.7041C42.8904 34.8404 43.069 34.7662 43.2006 34.6344C43.3323 34.5025 43.4063 34.3238 43.4063 34.1375Z" fill="#69DB93"/>
</svg>
