<svg width="44" height="48" viewBox="0 0 44 48" fill="none" xmlns="http://www.w3.org/2000/svg">
<path d="M42.7487 38.6362C42.9234 38.3636 43.0393 38.0575 43.089 37.7375C43.1387 37.4175 43.121 37.0907 43.0372 36.7779C42.9534 36.4651 42.8052 36.1733 42.6022 35.921C42.3992 35.6687 42.1458 35.4616 41.8581 35.3128C41.702 35.2318 41.5724 35.1078 41.4845 34.9554C41.3967 34.8031 41.3542 34.6288 41.3622 34.4531C41.3771 34.1297 41.3244 33.8067 41.2075 33.5047C41.0905 33.2028 40.9118 32.9286 40.6829 32.6996C40.4539 32.4707 40.1797 32.292 39.8778 32.175C39.5758 32.0581 39.2528 32.0054 38.9294 32.0203C38.7534 32.0284 38.5789 31.9859 38.4264 31.8978C38.2738 31.8098 38.1497 31.6798 38.0687 31.5234C37.92 31.2364 37.713 30.9836 37.4611 30.781C37.2091 30.5785 36.9178 30.4306 36.6055 30.3469C36.2933 30.2632 35.967 30.2455 35.6475 30.2949C35.3281 30.3443 35.0224 30.4597 34.75 30.6338C34.6016 30.7284 34.4292 30.7786 34.2531 30.7786C34.0771 30.7786 33.9047 30.7284 33.7562 30.6338C33.4838 30.4591 33.1779 30.3432 32.8581 30.2935C32.5383 30.2438 32.2117 30.2613 31.8991 30.345C31.8419 30.36 31.7856 30.3778 31.7303 30.3975V3.51562C31.7293 2.58288 31.3581 1.68867 30.6982 1.02947C30.0383 0.370275 29.1437 -5.29499e-07 28.2109 0H4.39844C3.46634 0.000992649 2.5727 0.371707 1.91361 1.0308C1.25452 1.68989 0.883805 2.58353 0.882812 3.51562V44.4844C0.883805 45.4165 1.25452 46.3101 1.91361 46.9692C2.5727 47.6283 3.46634 47.999 4.39844 48H28.2109C29.1052 47.9973 29.9652 47.6556 30.6175 47.0437C30.9669 47.5226 31.4858 47.8501 32.0684 47.9593C32.651 48.0686 33.2534 47.9513 33.7525 47.6316C33.9009 47.5369 34.0733 47.4867 34.2494 47.4867C34.4254 47.4867 34.5978 47.5369 34.7463 47.6316C35.0188 47.8064 35.3248 47.9224 35.6448 47.9721C35.9647 48.0219 36.2915 48.0042 36.6043 47.9204C36.917 47.8366 37.2089 47.6884 37.461 47.4853C37.7132 47.2822 37.9202 47.0286 38.0687 46.7409C38.15 46.5849 38.2742 46.4553 38.4267 46.3674C38.5792 46.2795 38.7536 46.2371 38.9294 46.245C39.2528 46.2598 39.5757 46.207 39.8776 46.09C40.1795 45.973 40.4536 45.7943 40.6825 45.5654C40.9115 45.3364 41.0902 45.0623 41.2072 44.7604C41.3242 44.4586 41.377 44.1356 41.3622 43.8122C41.3542 43.6363 41.3968 43.4618 41.4848 43.3092C41.5729 43.1567 41.7027 43.0326 41.8591 42.9516C42.1466 42.8028 42.3999 42.5957 42.6028 42.3435C42.8057 42.0913 42.9538 41.7995 43.0375 41.4868C43.1213 41.1741 43.1388 40.8473 43.0891 40.5275C43.0394 40.2076 42.9235 39.9016 42.7487 39.6291C42.6542 39.4808 42.604 39.3085 42.604 39.1327C42.604 38.9568 42.6542 38.7846 42.7487 38.6362ZM28.2109 46.5938H4.39844C3.83915 46.5933 3.30291 46.3709 2.90743 45.9754C2.51196 45.5799 2.28956 45.0437 2.28906 44.4844V3.51562C2.28956 2.95634 2.51196 2.4201 2.90743 2.02462C3.30291 1.62914 3.83915 1.40675 4.39844 1.40625H28.2109C28.7702 1.40675 29.3065 1.62914 29.7019 2.02462C30.0974 2.4201 30.3198 2.95634 30.3203 3.51562V31.6875C30.23 31.7978 30.1151 31.8855 29.9849 31.9436C29.8547 32.0017 29.7127 32.0286 29.5703 32.0222C29.0037 31.9966 28.4472 32.1783 28.0047 32.5331H22.3984C22.212 32.5331 22.0331 32.6072 21.9013 32.7391C21.7694 32.8709 21.6953 33.0498 21.6953 33.2362V44.4862C21.6953 44.5786 21.7135 44.67 21.7488 44.7553C21.7842 44.8406 21.836 44.9181 21.9013 44.9834C21.9665 45.0487 22.0441 45.1005 22.1294 45.1359C22.2147 45.1712 22.3061 45.1894 22.3984 45.1894H27.5106C27.7132 45.5017 27.9879 45.7608 28.3117 45.9447C28.6354 46.1286 28.9986 46.2319 29.3706 46.2459C29.0264 46.4728 28.6232 46.5937 28.2109 46.5938ZM27.1375 34.4531C27.1455 34.6289 27.103 34.8033 27.0149 34.9557C26.9268 35.1081 26.797 35.232 26.6406 35.3128C26.353 35.4616 26.0996 35.6687 25.8965 35.921C25.6935 36.1733 25.5454 36.4651 25.4615 36.7779C25.3777 37.0907 25.3601 37.4175 25.4097 37.7375C25.4594 38.0575 25.5753 38.3636 25.75 38.6362C25.8445 38.7846 25.8948 38.9568 25.8948 39.1327C25.8948 39.3085 25.8445 39.4808 25.75 39.6291C25.5753 39.9016 25.4594 40.2076 25.4096 40.5275C25.3599 40.8473 25.3775 41.1741 25.4612 41.4868C25.5449 41.7995 25.693 42.0913 25.8959 42.3435C26.0988 42.5957 26.3522 42.8028 26.6397 42.9516C26.791 43.0305 26.9175 43.1498 27.005 43.2962C27.0926 43.4427 27.1378 43.6106 27.1356 43.7812H23.1044V33.9375H27.175C27.1432 34.1074 27.1306 34.2804 27.1375 34.4531ZM41.5647 40.3884C41.6335 40.4962 41.6791 40.617 41.6986 40.7434C41.7181 40.8697 41.7111 40.9987 41.6781 41.1221C41.645 41.2456 41.5866 41.3608 41.5065 41.4605C41.4265 41.5601 41.3266 41.642 41.2131 41.7009C40.818 41.9058 40.4898 42.2195 40.2672 42.6049C40.0446 42.9903 39.937 43.4313 39.9569 43.8759C39.963 44.0039 39.9424 44.1317 39.8962 44.2512C39.8501 44.3707 39.7794 44.4792 39.6888 44.5698C39.5983 44.6604 39.4897 44.731 39.3703 44.7772C39.2508 44.8233 39.1229 44.844 38.995 44.8378C38.5504 44.8181 38.1095 44.9259 37.7241 45.1485C37.3388 45.3711 37.0251 45.6991 36.82 46.0941C36.7611 46.2075 36.6792 46.3074 36.5795 46.3875C36.4799 46.4675 36.3647 46.5259 36.2412 46.559C36.1177 46.5921 35.9887 46.5991 35.8624 46.5795C35.7361 46.56 35.6152 46.5144 35.5075 46.4456C35.1324 46.2064 34.6967 46.0792 34.2517 46.0792C33.8068 46.0792 33.3711 46.2064 32.9959 46.4456C32.8882 46.5144 32.7673 46.56 32.641 46.5795C32.5147 46.5991 32.3857 46.5921 32.2622 46.559C32.1388 46.5259 32.0235 46.4675 31.9239 46.3875C31.8242 46.3074 31.7424 46.2075 31.6834 46.0941C31.5437 45.8249 31.3526 45.5857 31.1209 45.39C31.1123 45.3817 31.1032 45.3739 31.0938 45.3666L31.0703 45.3478L31.0506 45.3328C30.6413 45.0118 30.1364 44.8368 29.6162 44.8359C29.5797 44.8359 29.5441 44.8359 29.5084 44.8359C29.3803 44.8426 29.2521 44.8224 29.1322 44.7765C29.0124 44.7307 28.9034 44.6602 28.8125 44.5697C28.7215 44.4791 28.6505 44.3705 28.604 44.2509C28.5576 44.1313 28.5367 44.0032 28.5428 43.875C28.5625 43.4304 28.4547 42.9895 28.2321 42.6041C28.0096 42.2188 27.6815 41.9051 27.2866 41.7C27.1732 41.6411 27.0733 41.5592 26.9932 41.4596C26.9131 41.3599 26.8547 41.2447 26.8215 41.1213C26.7884 40.9979 26.7813 40.8689 26.8006 40.7426C26.82 40.6162 26.8654 40.4953 26.9341 40.3875C27.1738 40.0125 27.3011 39.5768 27.3011 39.1317C27.3011 38.6867 27.1738 38.2509 26.9341 37.8759C26.8654 37.7681 26.82 37.6472 26.8006 37.5209C26.7813 37.3945 26.7884 37.2656 26.8215 37.1421C26.8547 37.0187 26.9131 36.9035 26.9932 36.8039C27.0733 36.7043 27.1732 36.6224 27.2866 36.5634C27.6815 36.3583 28.0096 36.0446 28.2321 35.6593C28.4547 35.2739 28.5625 34.833 28.5428 34.3884C28.5367 34.2605 28.5573 34.1327 28.6035 34.0132C28.6496 33.8937 28.7203 33.7852 28.8108 33.6946C28.9014 33.604 29.0099 33.5334 29.1294 33.4872C29.2489 33.4411 29.3767 33.4204 29.5047 33.4266C29.9493 33.4463 30.3902 33.3385 30.7755 33.1159C31.1609 32.8933 31.4746 32.5652 31.6797 32.1703C31.7386 32.0569 31.8205 31.957 31.9201 31.8769C32.0198 31.7969 32.1349 31.7384 32.2584 31.7053C32.3818 31.6721 32.5108 31.665 32.6371 31.6844C32.7634 31.7038 32.8844 31.7492 32.9922 31.8178C33.3672 32.0575 33.8029 32.1849 34.248 32.1849C34.693 32.1849 35.1288 32.0575 35.5037 31.8178C35.6116 31.7492 35.7325 31.7038 35.8588 31.6844C35.9851 31.665 36.1141 31.6721 36.2376 31.7053C36.361 31.7384 36.4762 31.7969 36.5758 31.8769C36.6754 31.957 36.7573 32.0569 36.8162 32.1703C37.0213 32.5652 37.335 32.8933 37.7204 33.1159C38.1057 33.3385 38.5467 33.4463 38.9912 33.4266C39.1192 33.4204 39.247 33.4411 39.3665 33.4872C39.486 33.5334 39.5945 33.604 39.6851 33.6946C39.7757 33.7852 39.8463 33.8937 39.8925 34.0132C39.9386 34.1327 39.9593 34.2605 39.9531 34.3884C39.9332 34.833 40.0409 35.2741 40.2635 35.6595C40.4861 36.0449 40.8143 36.3585 41.2094 36.5634C41.3228 36.6224 41.4227 36.7042 41.5028 36.8039C41.5828 36.9035 41.6412 37.0188 41.6743 37.1422C41.7074 37.2657 41.7144 37.3947 41.6949 37.521C41.6753 37.6473 41.6297 37.7682 41.5609 37.8759C41.322 38.2515 41.1955 38.6876 41.1961 39.1327C41.1968 39.5779 41.3247 40.0135 41.5647 40.3884ZM10.1987 39.5625H4.38625C4.19977 39.5625 4.02093 39.6366 3.88907 39.7684C3.7572 39.9003 3.68313 40.0791 3.68313 40.2656V44.4844C3.68313 44.6709 3.7572 44.8497 3.88907 44.9816C4.02093 45.1134 4.19977 45.1875 4.38625 45.1875H10.1987C10.3852 45.1875 10.5641 45.1134 10.6959 44.9816C10.8278 44.8497 10.9019 44.6709 10.9019 44.4844V40.2656C10.9019 40.0791 10.8278 39.9003 10.6959 39.7684C10.5641 39.6366 10.3852 39.5625 10.1987 39.5625ZM9.49563 43.7812H5.08938V40.9688H9.49563V43.7812ZM4.39844 14.25H28.2109C28.3974 14.25 28.5763 14.1759 28.7081 14.0441C28.84 13.9122 28.9141 13.7334 28.9141 13.5469V3.51562C28.9141 3.32914 28.84 3.1503 28.7081 3.01844C28.5763 2.88658 28.3974 2.8125 28.2109 2.8125H4.39844C4.21196 2.8125 4.03311 2.88658 3.90125 3.01844C3.76939 3.1503 3.69531 3.32914 3.69531 3.51562V13.5469C3.69531 13.7334 3.76939 13.9122 3.90125 14.0441C4.03311 14.1759 4.21196 14.25 4.39844 14.25ZM5.10156 4.21875H27.5078V12.8438H5.10156V4.21875ZM28.2109 18.4688H22.3984C22.212 18.4688 22.0331 18.5428 21.9013 18.6747C21.7694 18.8066 21.6953 18.9854 21.6953 19.1719V23.3906C21.6953 23.5771 21.7694 23.7559 21.9013 23.8878C22.0331 24.0197 22.212 24.0938 22.3984 24.0938H28.2109C28.3974 24.0938 28.5763 24.0197 28.7081 23.8878C28.84 23.7559 28.9141 23.5771 28.9141 23.3906V19.1719C28.9141 18.9854 28.84 18.8066 28.7081 18.6747C28.5763 18.5428 28.3974 18.4688 28.2109 18.4688ZM27.5078 22.6875H23.1016V19.875H27.5078V22.6875ZM28.2109 25.5H22.3984C22.212 25.5 22.0331 25.5741 21.9013 25.7059C21.7694 25.8378 21.6953 26.0166 21.6953 26.2031V30.4219C21.6953 30.6084 21.7694 30.7872 21.9013 30.9191C22.0331 31.0509 22.212 31.125 22.3984 31.125H28.2109C28.3974 31.125 28.5763 31.0509 28.7081 30.9191C28.84 30.7872 28.9141 30.6084 28.9141 30.4219V26.2031C28.9141 26.0166 28.84 25.8378 28.7081 25.7059C28.5763 25.5741 28.3974 25.5 28.2109 25.5ZM27.5078 29.7188H23.1016V26.9062H27.5078V29.7188ZM28.2109 15.6562H22.3984C22.212 15.6562 22.0331 15.7303 21.9013 15.8622C21.7694 15.9941 21.6953 16.1729 21.6953 16.3594C21.6953 16.5459 21.7694 16.7247 21.9013 16.8566C22.0331 16.9884 22.212 17.0625 22.3984 17.0625H28.2109C28.3974 17.0625 28.5763 16.9884 28.7081 16.8566C28.84 16.7247 28.9141 16.5459 28.9141 16.3594C28.9141 16.1729 28.84 15.9941 28.7081 15.8622C28.5763 15.7303 28.3974 15.6562 28.2109 15.6562ZM10.1987 15.6562H4.38625C4.19977 15.6562 4.02093 15.7303 3.88907 15.8622C3.7572 15.9941 3.68313 16.1729 3.68313 16.3594C3.68313 16.5459 3.7572 16.7247 3.88907 16.8566C4.02093 16.9884 4.19977 17.0625 4.38625 17.0625H10.1987C10.3852 17.0625 10.5641 16.9884 10.6959 16.8566C10.8278 16.7247 10.9019 16.5459 10.9019 16.3594C10.9019 16.1729 10.8278 15.9941 10.6959 15.8622C10.5641 15.7303 10.3852 15.6562 10.1987 15.6562ZM19.2109 39.5625H13.3984C13.212 39.5625 13.0331 39.6366 12.9013 39.7684C12.7694 39.9003 12.6953 40.0791 12.6953 40.2656V44.4844C12.6953 44.6709 12.7694 44.8497 12.9013 44.9816C13.0331 45.1134 13.212 45.1875 13.3984 45.1875H19.2109C19.3974 45.1875 19.5763 45.1134 19.7081 44.9816C19.84 44.8497 19.9141 44.6709 19.9141 44.4844V40.2656C19.9141 40.0791 19.84 39.9003 19.7081 39.7684C19.5763 39.6366 19.3974 39.5625 19.2109 39.5625ZM18.5078 43.7812H14.1016V40.9688H18.5078V43.7812ZM19.2109 32.5312H13.3984C13.212 32.5312 13.0331 32.6053 12.9013 32.7372C12.7694 32.869 12.6953 33.0479 12.6953 33.2344V37.4531C12.6953 37.6396 12.7694 37.8185 12.9013 37.9503C13.0331 38.0822 13.212 38.1562 13.3984 38.1562H19.2109C19.3974 38.1562 19.5763 38.0822 19.7081 37.9503C19.84 37.8185 19.9141 37.6396 19.9141 37.4531V33.2344C19.9141 33.0479 19.84 32.869 19.7081 32.7372C19.5763 32.6053 19.3974 32.5312 19.2109 32.5312ZM18.5078 36.75H14.1016V33.9375H18.5078V36.75ZM19.2109 15.6562H13.3984C13.212 15.6562 13.0331 15.7303 12.9013 15.8622C12.7694 15.9941 12.6953 16.1729 12.6953 16.3594C12.6953 16.5459 12.7694 16.7247 12.9013 16.8566C13.0331 16.9884 13.212 17.0625 13.3984 17.0625H19.2109C19.3974 17.0625 19.5763 16.9884 19.7081 16.8566C19.84 16.7247 19.9141 16.5459 19.9141 16.3594C19.9141 16.1729 19.84 15.9941 19.7081 15.8622C19.5763 15.7303 19.3974 15.6562 19.2109 15.6562ZM19.2109 25.5H13.3984C13.212 25.5 13.0331 25.5741 12.9013 25.7059C12.7694 25.8378 12.6953 26.0166 12.6953 26.2031V30.4219C12.6953 30.6084 12.7694 30.7872 12.9013 30.9191C13.0331 31.0509 13.212 31.125 13.3984 31.125H19.2109C19.3974 31.125 19.5763 31.0509 19.7081 30.9191C19.84 30.7872 19.9141 30.6084 19.9141 30.4219V26.2031C19.9141 26.0166 19.84 25.8378 19.7081 25.7059C19.5763 25.5741 19.3974 25.5 19.2109 25.5ZM18.5078 29.7188H14.1016V26.9062H18.5078V29.7188ZM10.1987 32.5312H4.38625C4.19977 32.5312 4.02093 32.6053 3.88907 32.7372C3.7572 32.869 3.68313 33.0479 3.68313 33.2344V37.4531C3.68313 37.6396 3.7572 37.8185 3.88907 37.9503C4.02093 38.0822 4.19977 38.1562 4.38625 38.1562H10.1987C10.3852 38.1562 10.5641 38.0822 10.6959 37.9503C10.8278 37.8185 10.9019 37.6396 10.9019 37.4531V33.2344C10.9019 33.0479 10.8278 32.869 10.6959 32.7372C10.5641 32.6053 10.3852 32.5312 10.1987 32.5312ZM9.49563 36.75H5.08938V33.9375H9.49563V36.75ZM19.2109 18.4688H13.3984C13.212 18.4688 13.0331 18.5428 12.9013 18.6747C12.7694 18.8066 12.6953 18.9854 12.6953 19.1719V23.3906C12.6953 23.5771 12.7694 23.7559 12.9013 23.8878C13.0331 24.0197 13.212 24.0938 13.3984 24.0938H19.2109C19.3974 24.0938 19.5763 24.0197 19.7081 23.8878C19.84 23.7559 19.9141 23.5771 19.9141 23.3906V19.1719C19.9141 18.9854 19.84 18.8066 19.7081 18.6747C19.5763 18.5428 19.3974 18.4688 19.2109 18.4688ZM18.5078 22.6875H14.1016V19.875H18.5078V22.6875ZM10.1987 18.4688H4.38625C4.19977 18.4688 4.02093 18.5428 3.88907 18.6747C3.7572 18.8066 3.68313 18.9854 3.68313 19.1719V23.3906C3.68313 23.5771 3.7572 23.7559 3.88907 23.8878C4.02093 24.0197 4.19977 24.0938 4.38625 24.0938H10.1987C10.3852 24.0938 10.5641 24.0197 10.6959 23.8878C10.8278 23.7559 10.9019 23.5771 10.9019 23.3906V19.1719C10.9019 18.9854 10.8278 18.8066 10.6959 18.6747C10.5641 18.5428 10.3852 18.4688 10.1987 18.4688ZM9.49563 22.6875H5.08938V19.875H9.49563V22.6875ZM10.1987 25.5H4.38625C4.19977 25.5 4.02093 25.5741 3.88907 25.7059C3.7572 25.8378 3.68313 26.0166 3.68313 26.2031V30.4219C3.68313 30.6084 3.7572 30.7872 3.88907 30.9191C4.02093 31.0509 4.19977 31.125 4.38625 31.125H10.1987C10.3852 31.125 10.5641 31.0509 10.6959 30.9191C10.8278 30.7872 10.9019 30.6084 10.9019 30.4219V26.2031C10.9019 26.0166 10.8278 25.8378 10.6959 25.7059C10.5641 25.5741 10.3852 25.5 10.1987 25.5ZM9.49563 29.7188H5.08938V26.9062H9.49563V29.7188Z" fill="#E18B8A"/>
</svg>
