<svg width="48" height="48" viewBox="0 0 48 48" fill="none" xmlns="http://www.w3.org/2000/svg">
<g clip-path="url(#clip0_114_762)">
<path d="M27.9938 14.7028C27.9933 14.711 27.9933 14.7191 27.9938 14.7272C27.9938 14.7422 27.9938 14.7563 27.9938 14.7703C27.9938 14.7844 27.9937 14.7891 27.9984 14.7985C28.0003 14.8136 28.0031 14.8286 28.0069 14.8435L28.0125 14.8678C28.0125 14.8838 28.0209 14.8988 28.0266 14.9138L28.035 14.9372C28.0406 14.9513 28.0463 14.9663 28.0528 14.9803L28.0641 15.0038L28.0856 15.0441L28.0997 15.0666L28.125 15.1031L28.1419 15.1256L28.1709 15.1594L28.1887 15.18L28.2262 15.2147L28.2394 15.2269H28.2441L30.9375 17.4956C31.0082 17.5551 31.0899 17.6001 31.1779 17.628C31.2659 17.6559 31.3586 17.6661 31.4506 17.6582C31.5427 17.6503 31.6322 17.6243 31.7142 17.5818C31.7962 17.5393 31.869 17.481 31.9284 17.4103C31.9879 17.3397 32.0329 17.258 32.0608 17.1699C32.0886 17.0819 32.0989 16.9892 32.091 16.8972C32.0831 16.8052 32.0571 16.7156 32.0146 16.6336C31.9721 16.5517 31.9138 16.4789 31.8431 16.4194L30.6244 15.3881H38.7656C39.3498 15.3886 39.9099 15.6209 40.3229 16.034C40.736 16.447 40.9683 17.0071 40.9688 17.5913V24.5006C40.9688 24.6871 41.0428 24.866 41.1747 24.9978C41.3066 25.1297 41.4854 25.2038 41.6719 25.2038C41.8584 25.2038 42.0372 25.1297 42.1691 24.9978C42.3009 24.866 42.375 24.6871 42.375 24.5006V17.5913C42.374 16.6343 41.9934 15.7168 41.3167 15.0402C40.6401 14.3635 39.7226 13.9829 38.7656 13.9819H30.51L31.8469 12.7631C31.9846 12.6373 32.0667 12.462 32.0752 12.2756C32.0836 12.0892 32.0177 11.9071 31.8919 11.7694C31.7661 11.6317 31.5907 11.5495 31.4043 11.5411C31.218 11.5326 31.0359 11.5986 30.8981 11.7244L28.2188 14.1694C28.2154 14.1723 28.2123 14.1754 28.2094 14.1788C28.1981 14.1891 28.1888 14.1994 28.1784 14.2106C28.1717 14.2171 28.1654 14.224 28.1597 14.2313C28.1494 14.2425 28.14 14.2547 28.1306 14.2669C28.1213 14.2791 28.1203 14.28 28.1156 14.2875C28.1109 14.295 28.0969 14.3166 28.0875 14.3316L28.0781 14.3475C28.0429 14.4115 28.0176 14.4804 28.0031 14.5519C28.0031 14.5566 28.0031 14.5622 28.0031 14.5678C27.9994 14.5858 27.9966 14.604 27.9947 14.6222C27.9947 14.6325 27.9947 14.6419 27.9947 14.6522C27.9947 14.6625 27.9947 14.6766 27.9947 14.6888L27.9938 14.7028ZM37.0716 39.0835C36.421 39.0838 35.7906 39.3096 35.2878 39.7225C34.785 40.1355 34.4409 40.7099 34.3142 41.3481C34.1875 41.9862 34.2859 42.6486 34.5927 43.2223C34.8996 43.796 35.3958 44.2456 35.9969 44.4945C36.5981 44.7434 37.2669 44.7762 37.8895 44.5873C38.5121 44.3984 39.0499 43.9995 39.4113 43.4585C39.7728 42.9175 39.9355 42.268 39.8718 41.6205C39.8081 40.973 39.5219 40.3676 39.0619 39.9075C38.8012 39.6458 38.4913 39.4383 38.15 39.297C37.8087 39.1557 37.4428 39.0835 37.0734 39.0844L37.0716 39.0835ZM38.0672 42.8944C37.837 43.1243 37.5343 43.2672 37.2106 43.299C36.8869 43.3307 36.5621 43.2492 36.2918 43.0684C36.0214 42.8876 35.822 42.6186 35.7276 42.3073C35.6333 41.996 35.6498 41.6617 35.7743 41.3611C35.8988 41.0606 36.1236 40.8126 36.4105 40.6592C36.6973 40.5059 37.0285 40.4567 37.3475 40.5201C37.6666 40.5835 37.9538 40.7556 38.1602 41.0069C38.3666 41.2583 38.4795 41.5735 38.4797 41.8988C38.4805 42.0838 38.4446 42.2671 38.3741 42.4382C38.3037 42.6092 38.2 42.7646 38.0691 42.8953L38.0672 42.8944ZM47.2969 46.5938H40.9688C41.1122 46.4738 41.25 46.3472 41.3869 46.2131C42.3618 45.2424 42.9774 43.9689 43.1325 42.6019H44.4759C45.4069 42.6014 46.2998 42.2328 46.96 41.5765C47.6202 40.9202 47.9941 40.0294 48 39.0985V38.0156C48 37.9783 47.9971 37.941 47.9916 37.9041L47.2013 32.8481C47.2013 32.8247 47.1947 32.805 47.1919 32.7891C47.0767 32.1074 46.7627 31.4749 46.2894 30.9711C45.816 30.4672 45.2044 30.1144 44.5312 29.9569L36.3909 28.0397H36.3787H36.3694L36.1697 27.9928L27.9731 20.8256C27.3318 20.2654 26.5091 19.9567 25.6575 19.9566H23.1122C24.0654 18.8265 24.6758 17.4475 24.8715 15.9821C25.0673 14.5167 24.8403 13.0259 24.2172 11.6852C23.594 10.3445 22.6008 9.20981 21.3545 8.41467C20.1081 7.61953 18.6604 7.19708 17.182 7.19708C15.7036 7.19708 14.256 7.61953 13.0096 8.41467C11.7632 9.20981 10.77 10.3445 10.1469 11.6852C9.52381 13.0259 9.29677 14.5167 9.49253 15.9821C9.68829 17.4475 10.2987 18.8265 11.2519 19.9566H7.125C6.47661 19.9549 5.84045 20.1331 5.28719 20.4712C4.73393 20.8093 4.28523 21.2941 3.99094 21.8719L1.00219 27.7341C0.791761 28.1455 0.664341 28.5944 0.627187 29.055L0.329062 32.8547C0.329062 32.8641 0.329062 32.8725 0.329062 32.881L0.0103125 36.8728V36.8916C0.0103125 36.9394 0.00375 36.9853 0.0028125 37.0256V37.0444C-0.0142128 37.6651 0.132245 38.2794 0.4275 38.8256L1.47844 40.7588C1.78057 41.3156 2.22757 41.7804 2.77216 42.104C3.31676 42.4276 3.93869 42.598 4.57219 42.5972H5.67C5.82406 43.9659 6.43974 45.2412 7.41562 46.2131C7.55 46.3475 7.68937 46.4744 7.83375 46.5938H0.703125C0.516645 46.5938 0.337802 46.6679 0.205941 46.7997C0.074079 46.9316 0 47.1104 0 47.2969C0 47.4834 0.074079 47.6622 0.205941 47.7941C0.337802 47.9259 0.516645 48 0.703125 48H47.2969C47.4834 48 47.6622 47.9259 47.7941 47.7941C47.9259 47.6622 48 47.4834 48 47.2969C48 47.1104 47.9259 46.9316 47.7941 46.7997C47.6622 46.6679 47.4834 46.5938 47.2969 46.5938ZM46.3247 36.3478H45.375C45.1883 36.3473 45.0093 36.2729 44.8774 36.1407C44.7454 36.0086 44.6712 35.8296 44.6709 35.6428V34.3303C44.6709 34.1435 44.7451 33.9643 44.8771 33.8322C45.0091 33.7 45.1882 33.6256 45.375 33.6253H45.9028L46.3247 36.3478ZM25.6566 21.3581C26.1677 21.3581 26.6614 21.5437 27.0459 21.8803L34.0706 28.021H17.6906L17.1403 22.71H17.1825C18.7459 22.7144 20.2736 22.2429 21.5625 21.3581H25.6566ZM10.8309 14.9531C10.8308 13.4834 11.3403 12.0591 12.2726 10.9229C13.2049 9.78666 14.5023 9.0089 15.9438 8.7221C17.3853 8.4353 18.8817 8.65722 20.1779 9.35003C21.4741 10.0428 22.49 11.1637 23.0524 12.5216C23.6148 13.8795 23.689 15.3903 23.2623 16.7968C22.8356 18.2032 21.9344 19.4182 20.7123 20.2347C19.4902 21.0511 18.0228 21.4185 16.5601 21.2743C15.0975 21.1301 13.7301 20.4832 12.6909 19.4438C12.0994 18.8554 11.6304 18.1556 11.3112 17.3848C10.9919 16.6139 10.8287 15.7875 10.8309 14.9531ZM5.24344 22.5113C5.41976 22.1639 5.68897 21.8722 6.02114 21.6686C6.35331 21.465 6.73542 21.3576 7.125 21.3581H12.8044C13.6788 21.9592 14.6684 22.3722 15.7106 22.5713L16.2731 28.021H2.4375L5.24344 22.5113ZM1.4625 36.3478L1.67812 33.6291H2.09156C2.27846 33.6293 2.45764 33.7037 2.5898 33.8358C2.72196 33.968 2.79631 34.1472 2.79656 34.3341V35.6466C2.79607 35.8334 2.72163 36.0124 2.58953 36.1446C2.45742 36.2767 2.27839 36.3511 2.09156 36.3516L1.4625 36.3478ZM4.56938 41.1956C4.18925 41.196 3.81609 41.0937 3.48934 40.8995C3.16259 40.7052 2.8944 40.4263 2.71312 40.0922L1.66313 38.1563C1.59481 38.0283 1.54013 37.8935 1.5 37.7541H2.09625C2.65588 37.7531 3.19231 37.5303 3.58803 37.1346C3.98376 36.7389 4.20651 36.2025 4.2075 35.6428V34.3303C4.20651 33.7701 3.98324 33.2331 3.58671 32.8372C3.19017 32.4414 2.65278 32.2191 2.0925 32.2191H1.79437L2.01656 29.4244H36.1509L44.2134 31.3228C44.7389 31.4458 45.1971 31.766 45.4931 32.2172H45.375C44.8154 32.218 44.2789 32.4407 43.8833 32.8365C43.4876 33.2323 43.2652 33.7688 43.2647 34.3285V35.641C43.2649 36.2008 43.4873 36.7377 43.8829 37.1339C44.2785 37.53 44.8151 37.7531 45.375 37.7541H46.5478L46.5938 38.0625V39.0938C46.5903 39.6522 46.3662 40.1866 45.9704 40.5805C45.5746 40.9744 45.0391 41.1959 44.4806 41.1966H43.1316C42.9589 39.7109 42.2463 38.3404 41.1293 37.3457C40.0123 36.351 38.5687 35.8014 37.073 35.8014C35.5772 35.8014 34.1337 36.351 33.0166 37.3457C31.8996 38.3404 31.187 39.7109 31.0144 41.1966H17.7881C17.6155 39.7109 16.9029 38.3404 15.7859 37.3457C14.6688 36.351 13.2253 35.8014 11.7295 35.8014C10.2338 35.8014 8.79023 36.351 7.67321 37.3457C6.55619 38.3404 5.84361 39.7109 5.67094 41.1966L4.56938 41.1956ZM11.7291 46.5938C10.8006 46.594 9.893 46.3189 9.12089 45.8033C8.34878 45.2877 7.74687 44.5548 7.39123 43.6972C7.0356 42.8396 6.94221 41.8958 7.12288 40.9851C7.30356 40.0744 7.75017 39.2378 8.40627 38.5809C9.06237 37.924 9.8985 37.4764 10.809 37.2946C11.7194 37.1129 12.6633 37.2051 13.5214 37.5597C14.3794 37.9143 15.113 38.5154 15.6295 39.2869C16.146 40.0584 16.4222 40.9657 16.4231 41.8941V41.9035C16.4214 43.1473 15.9261 44.3395 15.0459 45.2184C14.1658 46.0973 12.9729 46.591 11.7291 46.591V46.5938ZM15.6253 46.5938C15.7684 46.4738 15.9078 46.3469 16.0434 46.2131C17.0181 45.2424 17.6334 43.9688 17.7881 42.6019H31.0144C31.1687 43.9689 31.784 45.2426 32.7591 46.2131C32.8941 46.3475 33.0334 46.4744 33.1772 46.5938H15.6253ZM37.0734 46.5938C35.8296 46.5938 34.6367 46.1001 33.7566 45.2212C32.8764 44.3423 32.3811 43.1501 32.3794 41.9063V41.8941C32.3807 40.9662 32.657 40.0595 33.1734 39.2886C33.6899 38.5177 34.4232 37.9172 35.2808 37.563C36.1385 37.2087 37.0818 37.1167 37.9918 37.2984C38.9017 37.4802 39.7373 37.9276 40.393 38.5841C41.0488 39.2406 41.4951 40.0768 41.6758 40.9869C41.8565 41.897 41.7633 42.8403 41.408 43.6975C41.0528 44.5547 40.4514 45.2873 39.6799 45.8028C38.9083 46.3183 38.0013 46.5936 37.0734 46.5938ZM13.3247 32.2266H15.3872C15.5737 32.2266 15.7525 32.1525 15.8844 32.0206C16.0162 31.8888 16.0903 31.7099 16.0903 31.5235C16.0903 31.337 16.0162 31.1581 15.8844 31.0263C15.7525 30.8944 15.5737 30.8203 15.3872 30.8203H13.3247C13.1382 30.8203 12.9594 30.8944 12.8275 31.0263C12.6956 31.1581 12.6216 31.337 12.6216 31.5235C12.6216 31.7099 12.6956 31.8888 12.8275 32.0206C12.9594 32.1525 13.1382 32.2266 13.3247 32.2266ZM20.3653 32.2266H22.4278C22.6143 32.2266 22.7931 32.1525 22.925 32.0206C23.0569 31.8888 23.1309 31.7099 23.1309 31.5235C23.1309 31.337 23.0569 31.1581 22.925 31.0263C22.7931 30.8944 22.6143 30.8203 22.4278 30.8203H20.3653C20.1788 30.8203 20 30.8944 19.8681 31.0263C19.7363 31.1581 19.6622 31.337 19.6622 31.5235C19.6622 31.7099 19.7363 31.8888 19.8681 32.0206C20 32.1525 20.1788 32.2266 20.3653 32.2266ZM11.7291 39.0844C11.0785 39.0849 10.4482 39.3109 9.94559 39.724C9.44296 40.1371 9.09908 40.7116 8.97251 41.3497C8.84594 41.9879 8.94452 42.6502 9.25145 43.2238C9.55837 43.7974 10.0547 44.2469 10.6558 44.4957C11.2569 44.7444 11.9257 44.7771 12.5482 44.5881C13.1708 44.3992 13.7085 44.0002 14.0699 43.4592C14.4313 42.9183 14.594 42.2688 14.5302 41.6213C14.4665 40.9739 14.1803 40.3686 13.7203 39.9085C13.4594 39.6462 13.1491 39.4383 12.8073 39.2968C12.4655 39.1554 12.099 39.0832 11.7291 39.0844ZM12.7256 42.8953C12.4955 43.1252 12.1928 43.2682 11.869 43.2999C11.5453 43.3316 11.2206 43.2501 10.9502 43.0693C10.6798 42.8885 10.4804 42.6196 10.3861 42.3083C10.2917 41.997 10.3082 41.6626 10.4327 41.3621C10.5572 41.0616 10.782 40.8135 11.0689 40.6602C11.3558 40.5068 11.6869 40.4577 12.006 40.5211C12.325 40.5845 12.6122 40.7565 12.8186 41.0079C13.0251 41.2593 13.138 41.5744 13.1381 41.8997C13.1386 42.0847 13.1023 42.2679 13.0315 42.4388C12.9607 42.6097 12.8568 42.7649 12.7256 42.8953Z" fill="#E18B8A"/>
<path d="M14.6722 14.8958H16.4066C16.6788 14.8962 16.9458 14.8208 17.1776 14.6781C17.4094 14.5354 17.5969 14.3309 17.7191 14.0877H14.6347C14.4483 14.0877 14.2694 14.0136 14.1375 13.8817C14.0057 13.7499 13.9316 13.571 13.9316 13.3845C13.9316 13.1981 14.0057 13.0192 14.1375 12.8874C14.2694 12.7555 14.4483 12.6814 14.6347 12.6814H17.675C17.5471 12.4578 17.3625 12.2718 17.1398 12.1423C16.9171 12.0128 16.6642 11.9442 16.4066 11.9436H14.6347C14.4483 11.9436 14.2694 11.8695 14.1375 11.7377C14.0057 11.6058 13.9316 11.427 13.9316 11.2405C13.9316 11.054 14.0057 10.8752 14.1375 10.7433C14.2694 10.6114 14.4483 10.5374 14.6347 10.5374H19.7816C19.9681 10.5374 20.1469 10.6114 20.2788 10.7433C20.4107 10.8752 20.4847 11.054 20.4847 11.2405C20.4847 11.427 20.4107 11.6058 20.2788 11.7377C20.1469 11.8695 19.9681 11.9436 19.7816 11.9436H18.8779C19.0156 12.1738 19.1203 12.4221 19.1891 12.6814H19.7816C19.9681 12.6814 20.1469 12.7555 20.2788 12.8874C20.4107 13.0192 20.4847 13.1981 20.4847 13.3845C20.4847 13.571 20.4107 13.7499 20.2788 13.8817C20.1469 14.0136 19.9681 14.0877 19.7816 14.0877H19.2013C19.052 14.7171 18.695 15.2778 18.188 15.6796C17.681 16.0813 17.0535 16.3006 16.4066 16.302H16.3363L18.9894 18.8792C19.1212 19.0096 19.1961 19.1867 19.1979 19.372C19.1998 19.5574 19.1284 19.7359 18.9992 19.8689C18.8701 20.0018 18.6937 20.0784 18.5084 20.082C18.3231 20.0856 18.1439 20.0158 18.0097 19.888L14.1097 16.0995C14.0049 15.9977 13.9344 15.8658 13.908 15.722C13.8817 15.5783 13.9007 15.4299 13.9626 15.2975C14.0245 15.1651 14.1261 15.0553 14.2532 14.9833C14.3804 14.9113 14.5269 14.8807 14.6722 14.8958Z" fill="#E18B8A"/>
</g>
<defs>
<clipPath id="clip0_114_762">
<rect width="48" height="48" fill="white"/>
</clipPath>
</defs>
</svg>
