<svg width="34" height="48" viewBox="0 0 34 48" fill="none" xmlns="http://www.w3.org/2000/svg">
<path d="M17.8438 24.6094C17.8438 24.7959 17.9178 24.9747 18.0497 25.1066C18.1816 25.2384 18.3604 25.3125 18.5469 25.3125H27.7344C27.9209 25.3125 28.0997 25.2384 28.2316 25.1066C28.3634 24.9747 28.4375 24.7959 28.4375 24.6094C28.4375 24.4229 28.3634 24.2441 28.2316 24.1122C28.0997 23.9803 27.9209 23.9063 27.7344 23.9063H18.5469C18.3604 23.9063 18.1816 23.9803 18.0497 24.1122C17.9178 24.2441 17.8438 24.4229 17.8438 24.6094ZM33.9069 15.6638C33.9069 15.6572 33.9069 15.6506 33.9069 15.6431C33.9069 15.6356 33.9069 15.6038 33.9022 15.5841C33.8975 15.5644 33.9022 15.5681 33.9022 15.5597C33.8994 15.5408 33.8957 15.522 33.8909 15.5034L33.8853 15.4809C33.8797 15.4603 33.8731 15.4397 33.8656 15.42C33.8656 15.42 33.8656 15.4125 33.8656 15.4088L33.86 15.3947L31.25 8.82657V3.52689C31.249 2.59414 30.8778 1.69993 30.2179 1.04073C29.558 0.381535 28.6634 0.0112595 27.7306 0.01126H23.5625C23.4819 -0.00326506 23.3994 -0.00326506 23.3188 0.01126H10.6784C10.5978 -0.00326506 10.5153 -0.00326506 10.4347 0.01126H6.26939C5.33664 0.0112595 4.44204 0.381535 3.78214 1.04073C3.12224 1.69993 2.75101 2.59414 2.75001 3.52689V8.54532C2.74984 8.61456 2.75995 8.68343 2.78001 8.7497L0.14845 15.3947L0.142825 15.4088C0.142825 15.4088 0.142825 15.4163 0.142825 15.42C0.135325 15.4397 0.128762 15.4603 0.123137 15.4809L0.117512 15.5034C0.112773 15.522 0.109018 15.5408 0.106262 15.5597C0.106262 15.5681 0.106262 15.5756 0.106262 15.5841C0.106262 15.5925 0.106262 15.6234 0.106262 15.6431C0.106262 15.6628 0.106262 15.6572 0.106262 15.6638V18.5353C0.105995 19.3541 0.3603 20.1527 0.833964 20.8205C1.30763 21.4883 1.97722 21.9924 2.75001 22.2628V44.4816C2.751 45.4137 3.12172 46.3073 3.78081 46.9664C4.4399 47.6255 5.33354 47.9962 6.26564 47.9972H27.7306C28.6629 47.9972 29.5571 47.6273 30.2169 46.9687C30.8767 46.3101 31.2483 45.4166 31.25 44.4844V22.2656C32.026 21.998 32.6992 21.4952 33.1761 20.8271C33.6529 20.159 33.9097 19.3589 33.9106 18.5381V15.6638H33.9069ZM32.1688 14.9653H27.2056L25.4047 9.62157H30.0491L32.1688 14.9653ZM20.9441 16.3716H26.0188V18.5353C26.006 19.1998 25.733 19.8328 25.2586 20.2982C24.7841 20.7636 24.146 21.0244 23.4814 21.0244C22.8168 21.0244 22.1787 20.7636 21.7042 20.2982C21.2298 19.8328 20.9568 19.1998 20.9441 18.5353V16.3716ZM20.8719 14.9653L20.2916 9.62157H23.9206L25.7216 14.9653H20.8719ZM22.295 1.41751L21.6481 2.70095C21.5726 2.85124 21.4566 2.97741 21.3131 3.06521C21.1696 3.15302 21.0045 3.19895 20.8363 3.19782H13.1638C12.9956 3.19895 12.8304 3.15302 12.6869 3.06521C12.5435 2.97741 12.4274 2.85124 12.3519 2.70095L11.705 1.41751H22.295ZM4.15626 3.52689C4.15676 2.9676 4.37916 2.43136 4.77463 2.03588C5.17011 1.6404 5.70635 1.41801 6.26564 1.41751H10.1272L11.0938 3.33376C11.2859 3.71715 11.5813 4.03923 11.9468 4.26369C12.3122 4.48814 12.733 4.60603 13.1619 4.60407H20.8344C21.2639 4.60673 21.6855 4.48917 22.0517 4.26468C22.4178 4.04019 22.7138 3.71772 22.9063 3.33376L23.8709 1.41751H27.7325C28.2921 1.41751 28.8288 1.63969 29.2247 2.03522C29.6206 2.43075 29.8433 2.96727 29.8438 3.52689V8.21439H4.15626V3.52689ZM19.5313 16.3706V18.5344C19.5313 19.2075 19.2639 19.853 18.788 20.3289C18.312 20.8048 17.6665 21.0722 16.9934 21.0722C16.3204 21.0722 15.6749 20.8048 15.1989 20.3289C14.723 19.853 14.4556 19.2075 14.4556 18.5344V16.3716L19.5313 16.3706ZM14.5363 14.9644L15.1166 9.62064H18.8666L19.4469 14.9644H14.5363ZM8.25501 14.9644L10.0559 9.62064H13.7066L13.1263 14.9644H8.25501ZM13.0541 16.3706V18.5344C13.0413 19.1989 12.7684 19.8319 12.2939 20.2973C11.8195 20.7627 11.1814 21.0234 10.5167 21.0234C9.85211 21.0234 9.21401 20.7627 8.73955 20.2973C8.2651 19.8319 7.99216 19.1989 7.97939 18.5344V16.3716L13.0541 16.3706ZM3.94907 9.62064H8.57189L6.77095 14.9644H1.83126L3.94907 9.62064ZM1.49939 18.5353V16.3716H6.57501V18.5353C6.57501 19.2084 6.30764 19.8539 5.8317 20.3298C5.35577 20.8058 4.71027 21.0731 4.0372 21.0731C3.36413 21.0731 2.71863 20.8058 2.2427 20.3298C1.76676 19.8539 1.49939 19.2084 1.49939 18.5353ZM29.8438 44.4844C29.8433 45.0437 29.6209 45.5799 29.2254 45.9754C28.8299 46.3709 28.2937 46.5933 27.7344 46.5938H6.26939C5.99213 46.594 5.71755 46.5396 5.4613 46.4338C5.20506 46.3279 4.97218 46.1726 4.77596 45.9767C4.57974 45.7808 4.42402 45.5482 4.31769 45.2922C4.21136 45.0361 4.15651 44.7616 4.15626 44.4844V22.4747C4.77249 22.4559 5.37568 22.2926 5.91726 21.998C6.45885 21.7034 6.9237 21.2858 7.27439 20.7788C7.63651 21.3034 8.12059 21.7322 8.68503 22.0285C9.24947 22.3247 9.8774 22.4795 10.5149 22.4795C11.1523 22.4795 11.7802 22.3247 12.3447 22.0285C12.9091 21.7322 13.3932 21.3034 13.7553 20.7788C14.1174 21.3036 14.6015 21.7326 15.1661 22.0289C15.7306 22.3253 16.3587 22.4801 16.9963 22.4801C17.6339 22.4801 18.2619 22.3253 18.8265 22.0289C19.391 21.7326 19.8751 21.3036 20.2372 20.7788C20.5993 21.3034 21.0834 21.7322 21.6478 22.0285C22.2123 22.3247 22.8402 22.4795 23.4777 22.4795C24.1151 22.4795 24.7431 22.3247 25.3075 22.0285C25.8719 21.7322 26.356 21.3034 26.7181 20.7788C27.0696 21.2868 27.5356 21.7051 28.0786 21.9997C28.6216 22.2943 29.2263 22.457 29.8438 22.4747V44.4844ZM32.5044 18.5353C32.5044 19.2084 32.237 19.8539 31.7611 20.3298C31.2851 20.8058 30.6396 21.0731 29.9666 21.0731C29.2935 21.0731 28.648 20.8058 28.1721 20.3298C27.6961 19.8539 27.4288 19.2084 27.4288 18.5353V16.3716H32.5044V18.5353ZM25.625 36.75H20.6563C19.9103 36.75 19.195 37.0463 18.6675 37.5738C18.1401 38.1012 17.8438 38.8166 17.8438 39.5625C17.8438 40.3084 18.1401 41.0238 18.6675 41.5512C19.195 42.0787 19.9103 42.375 20.6563 42.375H25.625C26.3709 42.375 27.0863 42.0787 27.6137 41.5512C28.1412 41.0238 28.4375 40.3084 28.4375 39.5625C28.4375 38.8166 28.1412 38.1012 27.6137 37.5738C27.0863 37.0463 26.3709 36.75 25.625 36.75ZM25.625 40.9688H20.6563C20.2833 40.9688 19.9256 40.8206 19.6619 40.5569C19.3982 40.2932 19.25 39.9355 19.25 39.5625C19.25 39.1896 19.3982 38.8319 19.6619 38.5681C19.9256 38.3044 20.2833 38.1563 20.6563 38.1563H25.625C25.998 38.1563 26.3557 38.3044 26.6194 38.5681C26.8831 38.8319 27.0313 39.1896 27.0313 39.5625C27.0313 39.9355 26.8831 40.2932 26.6194 40.5569C26.3557 40.8206 25.998 40.9688 25.625 40.9688ZM23.4238 43.7813H10.58C10.3935 43.7813 10.2147 43.8553 10.0828 43.9872C9.95097 44.1191 9.87689 44.2979 9.87689 44.4844C9.87689 44.6709 9.95097 44.8497 10.0828 44.9816C10.2147 45.1134 10.3935 45.1875 10.58 45.1875H23.4238C23.6102 45.1875 23.7891 45.1134 23.9209 44.9816C24.0528 44.8497 24.1269 44.6709 24.1269 44.4844C24.1269 44.2979 24.0528 44.1191 23.9209 43.9872C23.7891 43.8553 23.6102 43.7813 23.4238 43.7813ZM27.7363 26.7188H18.5488C18.3623 26.7188 18.1834 26.7928 18.0516 26.9247C17.9197 27.0566 17.8456 27.2354 17.8456 27.4219C17.8456 27.6084 17.9197 27.7872 18.0516 27.9191C18.1834 28.0509 18.3623 28.125 18.5488 28.125H27.7363C27.9227 28.125 28.1016 28.0509 28.2334 27.9191C28.3653 27.7872 28.4394 27.6084 28.4394 27.4219C28.4394 27.2354 28.3653 27.0566 28.2334 26.9247C28.1016 26.7928 27.9227 26.7188 27.7363 26.7188ZM16.4375 39.5625C16.4375 39.1932 16.3648 38.8274 16.2234 38.4862C16.0821 38.145 15.8749 37.8349 15.6137 37.5738C15.3526 37.3126 15.0425 37.1054 14.7013 36.9641C14.3601 36.8228 13.9944 36.75 13.625 36.75H8.37501C7.62909 36.75 6.91372 37.0463 6.38627 37.5738C5.85883 38.1012 5.56251 38.8166 5.56251 39.5625C5.56251 40.3084 5.85883 41.0238 6.38627 41.5512C6.91372 42.0787 7.62909 42.375 8.37501 42.375H13.625C13.9944 42.375 14.3601 42.3023 14.7013 42.1609C15.0425 42.0196 15.3526 41.8124 15.6137 41.5512C15.8749 41.2901 16.0821 40.98 16.2234 40.6388C16.3648 40.2976 16.4375 39.9319 16.4375 39.5625ZM6.96876 39.5625C6.96876 39.1896 7.11692 38.8319 7.38064 38.5681C7.64437 38.3044 8.00205 38.1563 8.37501 38.1563H13.625C13.998 38.1563 14.3557 38.3044 14.6194 38.5681C14.8831 38.8319 15.0313 39.1896 15.0313 39.5625C15.0313 39.9355 14.8831 40.2932 14.6194 40.5569C14.3557 40.8206 13.998 40.9688 13.625 40.9688H8.37501C8.00205 40.9688 7.64437 40.8206 7.38064 40.5569C7.11692 40.2932 6.96876 39.9355 6.96876 39.5625ZM24.9144 30.9375C25.1009 30.9375 25.2797 30.8634 25.4116 30.7316C25.5434 30.5997 25.6175 30.4209 25.6175 30.2344C25.6175 30.0479 25.5434 29.8691 25.4116 29.7372C25.2797 29.6053 25.1009 29.5313 24.9144 29.5313H18.5394C18.3529 29.5313 18.1741 29.6053 18.0422 29.7372C17.9103 29.8691 17.8363 30.0479 17.8363 30.2344C17.8363 30.4209 17.9103 30.5997 18.0422 30.7316C18.1741 30.8634 18.3529 30.9375 18.5394 30.9375H24.9144ZM6.26939 35.0625H15.7381C15.9246 35.0625 16.1035 34.9884 16.2353 34.8566C16.3672 34.7247 16.4413 34.5459 16.4413 34.3594V24.6094C16.4413 24.4229 16.3672 24.2441 16.2353 24.1122C16.1035 23.9803 15.9246 23.9063 15.7381 23.9063H6.26939C6.08291 23.9063 5.90406 23.9803 5.7722 24.1122C5.64034 24.2441 5.56626 24.4229 5.56626 24.6094V34.3594C5.56626 34.5459 5.64034 34.7247 5.7722 34.8566C5.90406 34.9884 6.08291 35.0625 6.26939 35.0625ZM15.0313 33.6066L11.8503 30.4247L12.9688 29.31L15.0313 31.3725V33.6066ZM6.96876 25.3125H15.0313V29.3878L13.4628 27.8185C13.3975 27.7531 13.32 27.7013 13.2347 27.6659C13.1493 27.6306 13.0579 27.6124 12.9655 27.6124C12.8731 27.6124 12.7816 27.6306 12.6963 27.6659C12.611 27.7013 12.5334 27.7531 12.4681 27.8185L10.8556 29.4309L9.24407 27.8185C9.17878 27.7531 9.10124 27.7013 9.01591 27.6659C8.93057 27.6306 8.8391 27.6124 8.74673 27.6124C8.65436 27.6124 8.56289 27.6306 8.47755 27.6659C8.39222 27.7013 8.31468 27.7531 8.24939 27.8185L6.96876 29.0953V25.3125ZM6.96876 31.0847L8.75001 29.31L10.3606 30.9206L13.0925 33.6563H6.96876V31.0847Z" fill="#69DB93"/>
</svg>
