<svg width="34" height="48" viewBox="0 0 34 48" fill="none" xmlns="http://www.w3.org/2000/svg">
<path d="M3.63232 8.98594C3.49326 8.98594 3.35732 9.02717 3.24169 9.10443C3.12606 9.1817 3.03594 9.29151 2.98272 9.41999C2.9295 9.54847 2.91558 9.68984 2.94271 9.82624C2.96984 9.96263 3.03681 10.0879 3.13514 10.1862C3.23347 10.2846 3.35876 10.3515 3.49515 10.3787C3.63154 10.4058 3.77292 10.3919 3.9014 10.3387C4.02988 10.2854 4.13969 10.1953 4.21695 10.0797C4.29421 9.96407 4.33545 9.82813 4.33545 9.68906C4.33545 9.50258 4.26137 9.32374 4.12951 9.19188C3.99765 9.06002 3.8188 8.98594 3.63232 8.98594ZM20.0704 6.32812C20.0704 6.14164 19.9964 5.9628 19.8645 5.83094C19.7326 5.69908 19.5538 5.625 19.3673 5.625H14.6329C14.4465 5.625 14.2676 5.69908 14.1358 5.83094C14.0039 5.9628 13.9298 6.14164 13.9298 6.32812C13.9298 6.51461 14.0039 6.69345 14.1358 6.82531C14.2676 6.95717 14.4465 7.03125 14.6329 7.03125H16.2886C16.5049 7.0319 16.7176 7.08662 16.9074 7.19043C17.0971 7.29423 17.2579 7.44383 17.3751 7.62562H14.6329C14.4465 7.62562 14.2676 7.6997 14.1358 7.83157C14.0039 7.96343 13.9298 8.14227 13.9298 8.32875C13.9298 8.51523 14.0039 8.69407 14.1358 8.82593C14.2676 8.9578 14.4465 9.03187 14.6329 9.03187H17.3751C17.2579 9.21436 17.0967 9.36449 16.9064 9.4685C16.7161 9.57251 16.5027 9.62708 16.2858 9.62719H14.6273H14.587H14.557L14.5223 9.63281C14.5111 9.63281 14.4998 9.63281 14.4886 9.63844L14.4614 9.645L14.422 9.65531L14.3967 9.66469L14.3583 9.67875L14.3217 9.69656L14.2973 9.70875L14.2636 9.72844L14.2392 9.74438C14.2301 9.75041 14.2213 9.75698 14.213 9.76406L14.183 9.78562L14.1623 9.80531L14.1314 9.83344C14.1258 9.83906 14.1211 9.84562 14.1164 9.85125L14.0892 9.88219L14.0704 9.9075C14.063 9.91781 14.0555 9.92719 14.0489 9.9375C14.0423 9.94781 14.0367 9.95719 14.0311 9.96656L14.0142 9.99656C14.0086 10.0069 14.0039 10.0172 13.9992 10.0275L13.9851 10.0594L13.9739 10.0912C13.9696 10.102 13.9658 10.1129 13.9626 10.1241L13.9542 10.1569C13.9542 10.1681 13.9486 10.1794 13.9467 10.1906C13.9448 10.2019 13.9467 10.2141 13.9411 10.2253C13.9354 10.2366 13.9411 10.2478 13.9411 10.2591C13.9411 10.2703 13.9411 10.2853 13.9411 10.2984C13.9411 10.3116 13.9411 10.3144 13.9411 10.3228V10.3284V10.3687C13.9411 10.3791 13.9411 10.3884 13.9411 10.3988C13.9411 10.4091 13.9411 10.4213 13.9411 10.4325L13.9467 10.4672C13.9467 10.4756 13.9514 10.4841 13.9533 10.4925C13.9551 10.5009 13.9598 10.5197 13.9645 10.5338C13.9692 10.5478 13.9692 10.5469 13.9711 10.5534C13.9729 10.56 13.9814 10.5825 13.9879 10.5975C13.9922 10.6082 13.9972 10.6185 14.0029 10.6284C14.0071 10.6387 14.0118 10.6487 14.017 10.6584C14.0226 10.6687 14.0292 10.6791 14.0358 10.6894L14.0526 10.7166C14.0584 10.7254 14.0646 10.7338 14.0714 10.7419L14.0948 10.7728L14.1136 10.7925C14.123 10.8038 14.1323 10.8141 14.1426 10.8244L17.722 14.2931C17.8563 14.4216 18.0359 14.4917 18.2217 14.4881C18.4075 14.4846 18.5843 14.4076 18.7135 14.2741C18.8427 14.1405 18.9138 13.9613 18.9112 13.7755C18.9087 13.5897 18.8327 13.4124 18.6998 13.2825L16.3664 11.025C16.947 11.0072 17.5064 10.8032 17.9622 10.4431C18.418 10.083 18.7459 9.58599 18.8976 9.02531H19.3664C19.5529 9.02531 19.7317 8.95123 19.8636 8.81937C19.9954 8.68751 20.0695 8.50867 20.0695 8.32219C20.0695 8.13571 19.9954 7.95686 19.8636 7.825C19.7317 7.69314 19.5529 7.61906 19.3664 7.61906H18.8976C18.8418 7.41438 18.7619 7.21705 18.6595 7.03125H19.3673C19.5538 7.03125 19.7326 6.95717 19.8645 6.82531C19.9964 6.69345 20.0704 6.51461 20.0704 6.32812ZM30.4148 0H3.58545C2.65335 0.000992649 1.75972 0.371707 1.10062 1.0308C0.44153 1.68989 0.0708169 2.58353 0.0698242 3.51562V15.8634C0.0708169 16.7955 0.44153 17.6892 1.10062 18.3483C1.75972 19.0074 2.65335 19.3781 3.58545 19.3791H16.8708C17.0123 20.2472 16.9598 21.0197 16.7114 21.6816C16.6579 21.8241 16.5961 21.9694 16.5314 22.1231C16.2923 22.6652 16.0976 23.2258 15.9492 23.7994C15.8163 24.3477 15.7533 24.9106 15.7617 25.4747C15.7617 26.8809 16.0776 27.6206 16.3561 28.2741C16.6148 28.8797 16.8379 29.4037 16.8379 30.5241C16.8455 30.9703 16.7964 31.4158 16.6917 31.8497C16.6306 32.0864 16.5513 32.318 16.4545 32.5425L14.7033 31.0837C15.172 29.4394 14.6414 27.5372 13.2914 26.2003C11.8055 24.7284 9.62482 24.2391 7.86701 24.9816C7.69885 25.0509 7.56434 25.1831 7.49201 25.35C6.73732 27.0975 7.23233 29.2631 8.72295 30.7388C9.70213 31.7225 11.0279 32.2832 12.4158 32.3006C12.8619 32.3015 13.3058 32.2365 13.7329 32.1075L15.9689 33.9703C15.9025 34.2659 15.8515 34.5648 15.8161 34.8656H9.20951C8.85162 34.8639 8.49824 34.9455 8.17736 35.104C7.85647 35.2625 7.57689 35.4935 7.36076 35.7788C7.1456 36.0587 6.99859 36.3849 6.93139 36.7315C6.86418 37.0781 6.87862 37.4356 6.97357 37.7756L9.31732 46.3069C9.45477 46.7959 9.74883 47.2263 10.1544 47.5321C10.56 47.838 11.0547 48.0023 11.5626 48H22.447C22.9536 48.0002 23.4464 47.8346 23.8501 47.5286C24.2538 47.2225 24.5463 46.7928 24.683 46.305L26.528 39.6047C26.5485 39.5541 26.563 39.5012 26.5711 39.4472L27.0314 37.7756C27.1263 37.4356 27.1408 37.0781 27.0736 36.7315C27.0064 36.3849 26.8594 36.0587 26.6442 35.7788C26.4281 35.4935 26.1485 35.2625 25.8276 35.104C25.5067 34.9455 25.1533 34.8639 24.7955 34.8656H17.2355C17.3051 34.3346 17.4438 33.8149 17.648 33.3197L17.6901 33.2203C17.8392 32.8899 17.9599 32.5474 18.0511 32.1966C18.1612 31.758 18.2241 31.3089 18.2386 30.8569L20.5758 28.9106C21.0014 29.0391 21.4437 29.1042 21.8883 29.1038C23.2759 29.0862 24.6015 28.5259 25.5811 27.5428C27.0717 26.0662 27.5667 23.9006 26.812 22.1531C26.7394 21.9864 26.6049 21.8544 26.437 21.7847C24.6792 21.0403 22.4995 21.5297 21.0117 23.0034C19.6626 24.3394 19.1292 26.2416 19.6055 27.8859L18.1139 29.1281C18.0094 28.6437 17.8522 28.1721 17.6451 27.7219C17.3864 27.1163 17.1633 26.5922 17.1633 25.4719C17.1557 25.0256 17.2048 24.5802 17.3095 24.1462C17.4401 23.6401 17.6123 23.1456 17.8242 22.6678C17.8955 22.5 17.9629 22.3425 18.0258 22.1728C18.3389 21.3384 18.4261 20.4009 18.2901 19.3762H30.4148C31.3469 19.3753 32.2406 19.0045 32.8997 18.3455C33.5587 17.6864 33.9295 16.7927 33.9305 15.8606V3.51562C33.9295 2.58353 33.5587 1.68989 32.8997 1.0308C32.2406 0.371707 31.3469 0.000992649 30.4148 0V0ZM13.3317 30.7631C12.1429 31.1316 10.7245 30.7406 9.71576 29.7422C8.70701 28.7437 8.31795 27.3497 8.68451 26.1797C9.8742 25.8122 11.2917 26.2022 12.3004 27.2006C13.3092 28.1991 13.7011 29.5922 13.3317 30.7631ZM22.0064 24C23.0151 23.0016 24.4336 22.6106 25.6223 22.9791C25.9908 24.1509 25.597 25.5478 24.5911 26.5416C23.5851 27.5353 22.1658 27.9375 20.9761 27.5625C20.6076 26.3934 21.0023 24.9956 22.0064 24ZM1.47607 3.51562C1.47657 2.95634 1.69897 2.4201 2.09444 2.02462C2.48992 1.62914 3.02616 1.40675 3.58545 1.40625H5.64795C5.49436 2.45771 5.00529 3.43145 4.25357 4.18249C3.50185 4.93354 2.52767 5.42173 1.47607 5.57438V3.51562ZM3.58545 17.9728C3.02616 17.9723 2.48992 17.7499 2.09444 17.3544C1.69897 16.959 1.47657 16.4227 1.47607 15.8634V13.8009C2.52682 13.9545 3.49994 14.4431 4.25074 15.1941C5.00154 15.9451 5.48992 16.9183 5.64326 17.9691L3.58545 17.9728ZM23.3217 45.9319C23.2676 46.1231 23.1523 46.2914 22.9935 46.411C22.8347 46.5305 22.6411 46.5947 22.4423 46.5938H11.5626C11.3639 46.5947 11.1703 46.5305 11.0114 46.411C10.8526 46.2914 10.7374 46.1231 10.6833 45.9319L9.05576 40.0406H24.9445L23.3217 45.9319ZM24.7908 36.2756C24.932 36.2746 25.0716 36.3065 25.1984 36.3688C25.3252 36.4311 25.4356 36.5222 25.5211 36.6347C25.6041 36.7427 25.6609 36.8686 25.687 37.0023C25.713 37.1361 25.7076 37.274 25.6711 37.4053L25.3317 38.6381H8.66858L8.3292 37.4062C8.29272 37.275 8.28728 37.137 8.31332 37.0033C8.33935 36.8695 8.39614 36.7436 8.4792 36.6356C8.56463 36.5231 8.67512 36.4321 8.8019 36.3697C8.92868 36.3074 9.06824 36.2755 9.20951 36.2766L24.7908 36.2756ZM32.5242 15.8672C32.5237 16.4265 32.3013 16.9627 31.9058 17.3582C31.5104 17.7537 30.9741 17.9761 30.4148 17.9766H28.357C28.5104 16.9258 28.9987 15.9525 29.7495 15.2016C30.5003 14.4506 31.4735 13.962 32.5242 13.8084V15.8672ZM32.5242 12.3919C31.0989 12.5528 29.7704 13.1924 28.7556 14.2061C27.7409 15.2198 27.1 16.5477 26.9376 17.9728H7.06264C6.90115 16.5473 6.26086 15.2188 5.24643 14.2043C4.23201 13.1899 2.90345 12.5496 1.47795 12.3881V6.99094C2.90345 6.82945 4.23201 6.18916 5.24643 5.17473C6.26086 4.16031 6.90115 2.83175 7.06264 1.40625H26.9376C27.0991 2.83175 27.7394 4.16031 28.7538 5.17473C29.7683 6.18916 31.0968 6.82945 32.5223 6.99094L32.5242 12.3919ZM32.5242 5.57812C31.4729 5.42435 30.4994 4.9352 29.7485 4.18349C28.9977 3.43179 28.5096 2.45771 28.357 1.40625H30.4148C30.9741 1.40675 31.5104 1.62914 31.9058 2.02462C32.3013 2.4201 32.5237 2.95634 32.5242 3.51562V5.57812ZM30.368 10.3959C30.507 10.3959 30.643 10.3547 30.7586 10.2774C30.8742 10.2002 30.9643 10.0904 31.0176 9.96189C31.0708 9.83341 31.0847 9.69203 31.0576 9.55564C31.0304 9.41925 30.9635 9.29396 30.8651 9.19563C30.7668 9.09729 30.6415 9.03033 30.5051 9.0032C30.3687 8.97607 30.2274 8.98999 30.0989 9.04321C29.9704 9.09643 29.8606 9.18655 29.7833 9.30218C29.7061 9.41781 29.6648 9.55375 29.6648 9.69281C29.6656 9.87872 29.74 10.0567 29.8718 10.1878C30.0036 10.319 30.182 10.3924 30.368 10.3922V10.3959ZM17.0001 2.11687C15.5023 2.11662 14.0381 2.56058 12.7926 3.3926C11.5471 4.22463 10.5763 5.40734 10.0031 6.79113C9.42988 8.17493 9.27993 9.69765 9.57221 11.1667C9.86449 12.6357 10.5859 13.9851 11.6451 15.0441C12.3459 15.7583 13.1812 16.3266 14.1028 16.7162C15.0245 17.1057 16.0142 17.3087 17.0147 17.3135C18.0153 17.3183 19.0069 17.1248 19.9322 16.7441C20.8576 16.3635 21.6983 15.8032 22.4059 15.0957C23.1134 14.3882 23.6737 13.5476 24.0545 12.6223C24.4352 11.6969 24.6288 10.7054 24.6241 9.70479C24.6194 8.70422 24.4165 7.7145 24.027 6.79283C23.6376 5.87115 23.0693 5.03578 22.3551 4.335C21.6536 3.62952 20.819 3.07021 19.8999 2.68947C18.9807 2.30872 17.9951 2.1141 17.0001 2.11687ZM21.3605 14.0503C20.3515 15.0591 19.0241 15.6868 17.6042 15.8266C16.1844 15.9663 14.76 15.6095 13.5738 14.8168C12.3875 14.0241 11.5129 12.8446 11.0988 11.4793C10.6846 10.114 10.7567 8.6474 11.3027 7.3293C11.8487 6.01121 12.8348 4.9232 14.0931 4.25065C15.3513 3.5781 16.8038 3.36263 18.2031 3.64095C19.6024 3.91926 20.8619 4.67414 21.7671 5.77698C22.6722 6.87981 23.1669 8.26236 23.167 9.68906C23.1693 10.4994 23.0107 11.3021 22.7006 12.0507C22.3905 12.7993 21.935 13.479 21.3605 14.0503Z" fill="#B50404"/>
</svg>
