<svg width="51" height="50" viewBox="0 0 51 50" fill="none" xmlns="http://www.w3.org/2000/svg">
<path d="M46.9657 13.349L40.2755 15.3356L40.0172 15.4123L39.9448 15.6817L38.0606 22.6981L36.1764 15.6817L36.104 15.4123L35.8457 15.3356L29.1555 13.349L35.8457 11.3625L36.104 11.2858L36.1764 11.0164L38.0606 4L39.9448 11.0164L40.0172 11.2858L40.2755 11.3625L46.9657 13.349ZM19.2967 38.636L22.2405 48.9543H2L4.9438 38.636H19.2967ZM45.1294 38.636L48.0732 48.9543H27.8327L30.7765 38.636H45.1294ZM30.0603 22.7905L33.0041 33.1088H12.7636L15.7074 22.7905H30.0603Z" stroke="#FFA412" stroke-width="1.8"/>
</svg>
