<svg width="48" height="42" viewBox="0 0 48 42" fill="none" xmlns="http://www.w3.org/2000/svg">
<path d="M28.6874 16.6256C28.6874 16.4391 28.6133 16.2603 28.4815 16.1284C28.3496 15.9966 28.1708 15.9225 27.9843 15.9225H22.1296C21.9431 15.9225 21.7643 15.9966 21.6324 16.1284C21.5006 16.2603 21.4265 16.4391 21.4265 16.6256C21.4265 16.8121 21.5006 16.9909 21.6324 17.1228C21.7643 17.2547 21.9431 17.3287 22.1296 17.3287H24.1771C24.5215 17.3293 24.8583 17.4296 25.1468 17.6177C25.4353 17.8057 25.6632 18.0733 25.8027 18.3881H22.1296C21.9431 18.3881 21.7643 18.4622 21.6324 18.5941C21.5006 18.7259 21.4265 18.9048 21.4265 19.0912C21.4265 19.2777 21.5006 19.4566 21.6324 19.5884C21.7643 19.7203 21.9431 19.7944 22.1296 19.7944H25.8027C25.6632 20.1092 25.4353 20.3768 25.1468 20.5648C24.8583 20.7528 24.5215 20.8532 24.1771 20.8537H22.1249H22.078H22.0546C22.0401 20.8549 22.0257 20.8571 22.0115 20.8603H21.9862L21.9449 20.8706L21.9196 20.8781C21.9053 20.8823 21.8912 20.8873 21.8774 20.8931C21.87 20.8954 21.8628 20.8982 21.8559 20.9016C21.8408 20.9077 21.8261 20.9145 21.8118 20.9222L21.794 20.9306L21.7574 20.9531C21.7499 20.9573 21.7427 20.962 21.7359 20.9672C21.726 20.9734 21.7167 20.9803 21.7077 20.9878L21.6796 21.0084L21.659 21.0281L21.628 21.0572H21.6234L21.6093 21.0731L21.5821 21.105L21.5634 21.1303C21.5556 21.1399 21.5485 21.1499 21.5418 21.1603C21.5352 21.1697 21.5296 21.18 21.524 21.1894L21.5071 21.2194C21.5015 21.2297 21.4968 21.24 21.4921 21.2503L21.4781 21.2822L21.4668 21.3141L21.4555 21.3469L21.4471 21.3797C21.4471 21.3909 21.4415 21.4022 21.4396 21.4134L21.434 21.4491C21.434 21.4603 21.434 21.4706 21.434 21.4819C21.434 21.4931 21.434 21.5081 21.434 21.5222C21.434 21.5362 21.434 21.5372 21.434 21.5447V21.5625C21.434 21.5756 21.434 21.5897 21.434 21.6037C21.434 21.6178 21.434 21.6234 21.434 21.6328L21.4396 21.6684C21.4396 21.6787 21.4396 21.69 21.4452 21.7012C21.4509 21.7125 21.4452 21.72 21.4527 21.7303C21.4602 21.7406 21.4584 21.7556 21.4621 21.7678C21.4659 21.78 21.4687 21.7847 21.4715 21.7941L21.4855 21.8316L21.4996 21.8606C21.5052 21.8709 21.5099 21.8822 21.5155 21.8925L21.5324 21.9206L21.5512 21.9516L21.569 21.975L21.5934 22.0069L21.6112 22.0266L21.6412 22.0584L26.0718 26.3259C26.2023 26.4527 26.3773 26.5234 26.5593 26.5228C26.6994 26.5227 26.8363 26.4808 26.9524 26.4023C27.0686 26.3239 27.1586 26.2125 27.211 26.0826C27.2634 25.9526 27.2757 25.8099 27.2465 25.6729C27.2172 25.5359 27.1477 25.4107 27.0468 25.3134L23.8724 22.2553H24.1771C24.8965 22.2564 25.5951 22.0137 26.1588 21.5668C26.7225 21.1198 27.1182 20.4951 27.2812 19.7944H27.9918C28.1783 19.7944 28.3571 19.7203 28.489 19.5884C28.6208 19.4566 28.6949 19.2777 28.6949 19.0912C28.6949 18.9048 28.6208 18.7259 28.489 18.5941C28.3571 18.4622 28.1783 18.3881 27.9918 18.3881H27.2812C27.1947 18.0098 27.0393 17.6507 26.8227 17.3287H27.9918C28.177 17.3268 28.3539 17.2518 28.4841 17.1202C28.6144 16.9885 28.6874 16.8108 28.6874 16.6256ZM47.6521 31.4531V30.0469C47.6516 29.4876 47.4292 28.9513 47.0337 28.5559C46.6383 28.1604 46.102 27.938 45.5427 27.9375H44.7187C44.7991 27.7118 44.84 27.474 44.8396 27.2344V25.8281C44.8391 25.2688 44.6167 24.7326 44.2212 24.3371C43.8258 23.9416 43.2895 23.7192 42.7302 23.7187H40.8552C41.3421 21.8349 41.5887 19.897 41.5893 17.9512V8.86218C41.5892 8.69199 41.5274 8.5276 41.4154 8.3995C41.3033 8.27141 41.1486 8.18831 40.9799 8.16562C37.956 7.76015 35.0261 6.82994 32.3221 5.41687C29.8123 4.10688 27.5324 2.39702 25.5721 0.354367C25.5074 0.287456 25.4301 0.233968 25.3447 0.196968C25.2593 0.159968 25.1674 0.140182 25.0743 0.138743C24.9797 0.135895 24.8855 0.152386 24.7975 0.187205C24.7095 0.222025 24.6295 0.274439 24.5624 0.341242C22.8686 2.01604 20.9702 3.47035 18.9121 4.66968C15.8901 6.42633 12.5709 7.6123 9.11992 8.16843C8.95532 8.19534 8.80564 8.27988 8.69762 8.40697C8.5896 8.53405 8.53027 8.69539 8.53024 8.86218V17.9512C8.53087 20.2438 8.87274 22.5234 9.54461 24.7153C9.40999 24.7673 9.26508 24.7869 9.12148 24.7728C8.97789 24.7586 8.83961 24.711 8.71774 24.6337C8.44521 24.459 8.13923 24.3431 7.81935 24.2934C7.49947 24.2436 7.17274 24.2612 6.86003 24.3449C6.54733 24.4287 6.25554 24.5767 6.00332 24.7797C5.75109 24.9826 5.54399 25.2359 5.39524 25.5234C5.31478 25.6801 5.19093 25.8102 5.03848 25.8983C4.88602 25.9864 4.71143 26.0288 4.53555 26.0203C4.21202 26.0051 3.88888 26.0576 3.58682 26.1744C3.28476 26.2913 3.01043 26.47 2.78141 26.699C2.55239 26.928 2.37372 27.2023 2.25686 27.5044C2.13999 27.8064 2.08749 28.1296 2.10274 28.4531C2.11074 28.6289 2.0682 28.8033 1.98013 28.9557C1.89207 29.1081 1.76219 29.232 1.60586 29.3128C1.31831 29.4617 1.06498 29.6688 0.862046 29.9212C0.659116 30.1735 0.511054 30.4653 0.427323 30.7781C0.343593 31.0909 0.326035 31.4177 0.375771 31.7376C0.425507 32.0576 0.541445 32.3636 0.716173 32.6362C0.810719 32.7845 0.860947 32.9568 0.860947 33.1326C0.860947 33.3085 0.810719 33.4807 0.716173 33.6291C0.54146 33.9016 0.425534 34.2076 0.375807 34.5274C0.326079 34.8473 0.343644 35.1741 0.427378 35.4868C0.511113 35.7995 0.659175 36.0912 0.862098 36.3435C1.06502 36.5957 1.31834 36.8028 1.60586 36.9516C1.76219 37.0326 1.89204 37.1567 1.98009 37.3092C2.06814 37.4617 2.11069 37.6363 2.10274 37.8122C2.08773 38.136 2.14055 38.4595 2.2578 38.7617C2.37506 39.064 2.55415 39.3384 2.78363 39.5675C3.0131 39.7965 3.28789 39.9751 3.59038 40.0918C3.89287 40.2084 4.2164 40.2606 4.54024 40.245C4.71611 40.2365 4.89071 40.2789 5.04316 40.367C5.19561 40.4551 5.31947 40.5852 5.39992 40.7419C5.54872 41.0289 5.75567 41.2817 6.00761 41.4843C6.25954 41.6868 6.55091 41.8347 6.86315 41.9184C7.1754 42.0021 7.50165 42.0198 7.82113 41.9704C8.1406 41.921 8.44628 41.8056 8.71867 41.6316C8.86712 41.5369 9.03951 41.4867 9.21555 41.4867C9.39159 41.4867 9.56397 41.5369 9.71242 41.6316C9.98482 41.8056 10.2905 41.921 10.61 41.9704C10.9294 42.0198 11.2557 42.0021 11.5679 41.9184C11.8802 41.8347 12.1716 41.6868 12.4235 41.4843C12.6754 41.2817 12.8824 41.0289 13.0312 40.7419C13.1122 40.5855 13.2362 40.4555 13.3888 40.3675C13.5413 40.2794 13.7159 40.2369 13.8918 40.245C14.2152 40.2598 14.5382 40.207 14.84 40.09C15.1419 39.973 15.416 39.7943 15.645 39.5654C15.8739 39.3364 16.0526 39.0623 16.1696 38.7604C16.2866 38.4585 16.3394 38.1356 16.3246 37.8122C16.3167 37.6363 16.3592 37.4617 16.4473 37.3092C16.5353 37.1567 16.6652 37.0326 16.8215 36.9516C17.0178 36.8498 17.1984 36.7204 17.3577 36.5672C17.6652 36.84 17.9774 37.1081 18.2952 37.3659C20.2786 38.9796 22.4451 40.354 24.7499 41.4609C24.8452 41.5072 24.9497 41.5312 25.0555 41.5312C25.1614 41.5312 25.2659 41.5072 25.3612 41.4609C27.4653 40.4492 29.4553 39.2156 31.2974 37.7812H31.3668C31.2868 38.007 31.2459 38.2448 31.2459 38.4844V39.8906C31.2466 40.4498 31.4691 40.9859 31.8645 41.3813C32.2599 41.7768 32.796 41.9992 33.3552 42H45.5427C46.102 41.9995 46.6383 41.7771 47.0337 41.3816C47.4292 40.9861 47.6516 40.4499 47.6521 39.8906V38.4844C47.6516 37.9251 47.4292 37.3888 47.0337 36.9934C46.6383 36.5979 46.102 36.3755 45.5427 36.375H44.7187C44.7991 36.1493 44.84 35.9115 44.8396 35.6719V34.2656C44.84 34.026 44.7991 33.7882 44.7187 33.5625H45.5427C46.102 33.562 46.6383 33.3396 47.0337 32.9441C47.4292 32.5486 47.6516 32.0124 47.6521 31.4531ZM42.7302 25.125C42.9167 25.125 43.0956 25.1991 43.2274 25.3309C43.3593 25.4628 43.4334 25.6416 43.4334 25.8281V27.2344C43.4334 27.4208 43.3593 27.5997 43.2274 27.7316C43.0956 27.8634 42.9167 27.9375 42.7302 27.9375H30.5427C30.3563 27.9372 30.1776 27.8631 30.0458 27.7313C29.914 27.5995 29.8399 27.4208 29.8396 27.2344V25.8281C29.8399 25.6417 29.914 25.463 30.0458 25.3312C30.1776 25.1994 30.3563 25.1252 30.5427 25.125H42.7302ZM28.4334 25.8281V27.0881C27.0857 27.8096 25.5421 28.0797 24.0296 27.8586C22.517 27.6375 21.1153 26.937 20.0305 25.86C19.0389 24.8692 18.364 23.6061 18.0914 22.2311C17.8189 20.8561 17.961 19.4311 18.4996 18.137C19.0383 16.8428 19.9493 15.7379 21.1171 14.9624C22.2848 14.1869 23.6566 13.7758 25.0584 13.7812C25.9919 13.7783 26.9168 13.96 27.7798 14.3159C28.6429 14.6718 29.427 15.1949 30.0871 15.855C31.0996 16.8626 31.7829 18.1535 32.0469 19.5574C32.3108 20.9613 32.143 22.4122 31.5655 23.7187H30.5427C29.9835 23.7195 29.4474 23.942 29.052 24.3374C28.6566 24.7328 28.4341 25.2689 28.4334 25.8281ZM9.93742 9.45374C13.3483 8.83555 16.6255 7.6278 19.6218 5.88468C21.5787 4.74445 23.399 3.38438 25.0471 1.83093C27.0009 3.76353 29.2332 5.39254 31.6696 6.66374C34.3346 8.05638 37.2094 9.00388 40.1802 9.46874V17.9503C40.1797 19.8996 39.916 21.8399 39.3965 23.7187H37.9902C38.5478 21.8469 38.832 19.9043 38.834 17.9512V11.1619C38.834 11.0014 38.7792 10.8457 38.6786 10.7207C38.578 10.5957 38.4376 10.5089 38.2809 10.4747C35.7622 9.92607 33.3281 9.04325 31.0434 7.84968C29.0484 6.80805 27.1817 5.53727 25.4812 4.06312C25.3549 3.95392 25.194 3.89313 25.0271 3.89158C24.8602 3.89004 24.6982 3.94784 24.5699 4.05468C23.2365 5.16801 21.8118 6.16716 20.3109 7.04155C17.6668 8.57988 14.8105 9.72025 11.834 10.4259C11.6801 10.4628 11.5431 10.5503 11.445 10.6744C11.3468 10.7985 11.2933 10.9521 11.293 11.1103V17.9541C11.2932 20.3015 11.7008 22.631 12.4977 24.8391C12.231 24.6076 11.9153 24.4396 11.5743 24.3478C11.3492 24.2874 11.1162 24.2615 10.8834 24.2709C10.2576 22.2227 9.93883 20.093 9.93742 17.9512V9.45374ZM16.5309 34.3912C16.5997 34.499 16.6453 34.6198 16.6648 34.7462C16.6843 34.8725 16.6773 35.0015 16.6442 35.1249C16.6112 35.2484 16.5527 35.3636 16.4727 35.4633C16.3927 35.5629 16.2927 35.6448 16.1793 35.7037C15.7842 35.9086 15.456 36.2223 15.2334 36.6077C15.0108 36.9931 14.9031 37.4341 14.923 37.8787C14.9292 38.0067 14.9085 38.1345 14.8624 38.254C14.8162 38.3735 14.7456 38.482 14.655 38.5726C14.5644 38.6632 14.4559 38.7338 14.3364 38.78C14.2169 38.8261 14.0891 38.8468 13.9612 38.8406C13.5166 38.8212 13.0758 38.929 12.6905 39.1516C12.3052 39.3741 11.9914 39.7021 11.7862 40.0969C11.7273 40.2103 11.6454 40.3102 11.5457 40.3903C11.4461 40.4703 11.3308 40.5287 11.2074 40.5618C11.0839 40.5949 10.9549 40.6019 10.8286 40.5824C10.7023 40.5628 10.5814 40.5172 10.4737 40.4484C10.0986 40.2091 9.66287 40.0819 9.21789 40.0819C8.77292 40.0819 8.33721 40.2091 7.96211 40.4484C7.85438 40.5172 7.73351 40.5628 7.60719 40.5824C7.48087 40.6019 7.35188 40.5949 7.22841 40.5618C7.10494 40.5287 6.98972 40.4703 6.89007 40.3903C6.79042 40.3102 6.70853 40.2103 6.64961 40.0969C6.44479 39.7017 6.13115 39.3734 5.74573 39.1508C5.36032 38.9282 4.91924 38.8206 4.47461 38.8406C4.34595 38.8475 4.21728 38.8272 4.09696 38.7812C3.97663 38.7351 3.86735 38.6642 3.77619 38.5731C3.68504 38.4821 3.61406 38.3729 3.56787 38.2526C3.52167 38.1323 3.50129 38.0037 3.50805 37.875C3.52702 37.4307 3.4187 36.9902 3.19581 36.6054C2.97292 36.2206 2.64476 35.9074 2.24992 35.7028C2.13631 35.6441 2.0362 35.5623 1.95597 35.4627C1.87575 35.3631 1.81718 35.2479 1.78401 35.1244C1.75083 35.0008 1.74379 34.8718 1.76332 34.7454C1.78284 34.619 1.82852 34.498 1.89742 34.3903C2.13713 34.0153 2.2645 33.5796 2.2645 33.1345C2.2645 32.6895 2.13713 32.2537 1.89742 31.8787C1.82788 31.7709 1.78169 31.6496 1.76181 31.5228C1.74194 31.396 1.74883 31.2665 1.78203 31.1425C1.81523 31.0185 1.87401 30.9029 1.95459 30.803C2.03518 30.7031 2.13578 30.6212 2.24992 30.5625C2.64485 30.3574 2.97293 30.0437 3.19551 29.6584C3.41808 29.273 3.52587 28.8321 3.50617 28.3875C3.50001 28.2595 3.52067 28.1317 3.56683 28.0122C3.61299 27.8927 3.68363 27.7842 3.77421 27.6936C3.86478 27.6031 3.9733 27.5324 4.09279 27.4863C4.21228 27.4401 4.3401 27.4195 4.46805 27.4256C4.91264 27.4454 5.35362 27.3377 5.739 27.1151C6.12437 26.8925 6.43805 26.5644 6.64305 26.1694C6.70199 26.056 6.78387 25.9561 6.88349 25.876C6.98312 25.7959 7.0983 25.7375 7.22174 25.7043C7.34517 25.6712 7.47415 25.6641 7.60048 25.6834C7.72681 25.7028 7.84772 25.7482 7.95555 25.8169C8.33053 26.0566 8.76628 26.1839 9.21133 26.1839C9.65638 26.1839 10.0921 26.0566 10.4671 25.8169C10.5203 25.7827 10.5768 25.7541 10.6359 25.7316H10.6424C10.8223 25.6627 11.0195 25.6535 11.2049 25.7053C11.3291 25.7382 11.4449 25.797 11.5447 25.8777C11.6446 25.9585 11.7262 26.0595 11.7843 26.1741C11.9891 26.5692 12.3028 26.8975 12.6882 27.1201C13.0736 27.3427 13.5147 27.4503 13.9593 27.4303C14.0872 27.4241 14.2151 27.4448 14.3346 27.491C14.454 27.5371 14.5626 27.6078 14.6531 27.6983C14.7437 27.7889 14.8144 27.8974 14.8605 28.0169C14.9067 28.1364 14.9273 28.2642 14.9212 28.3922C14.9012 28.8368 15.0089 29.2778 15.2315 29.6632C15.4541 30.0486 15.7823 30.3623 16.1774 30.5672C16.2909 30.6261 16.3908 30.708 16.4708 30.8076C16.5509 30.9073 16.6093 31.0225 16.6424 31.146C16.6754 31.2694 16.6824 31.3984 16.6629 31.5248C16.6434 31.6511 16.5978 31.772 16.529 31.8797C16.2904 32.2546 16.1638 32.6898 16.164 33.1342C16.1641 33.5786 16.2911 34.0137 16.5299 34.3884L16.5309 34.3912ZM16.8243 29.3156C16.6682 29.2346 16.5386 29.1106 16.4507 28.9582C16.3628 28.8059 16.3204 28.6316 16.3284 28.4559C16.3538 27.9117 16.1874 27.3758 15.8581 26.9418C15.5287 26.5078 15.0575 26.2032 14.5265 26.0812C13.3257 23.5399 12.7005 20.7648 12.6955 17.9541V11.6597C15.6126 10.9151 18.4121 9.76912 21.014 8.25468C22.4122 7.44034 23.7475 6.52247 25.0087 5.50874C26.6694 6.89133 28.4727 8.09311 30.3881 9.09374C32.6142 10.2562 34.976 11.138 37.4193 11.7187V17.9475C37.4187 19.9064 37.1141 21.8533 36.5165 23.7187H33.0768C33.4049 22.8011 33.573 21.8339 33.5737 20.8594C33.5813 19.1718 33.0877 17.5199 32.1555 16.1131C31.2233 14.7064 29.8945 13.608 28.3374 12.9572C26.7803 12.3065 25.0651 12.1327 23.4091 12.4578C21.7531 12.7829 20.2309 13.5923 19.0354 14.7834C17.8399 15.9746 17.0249 17.4938 16.6938 19.1486C16.3627 20.8034 16.5303 22.5193 17.1753 24.0787C17.8204 25.6382 18.9139 26.971 20.3173 27.9083C21.7207 28.8456 23.3708 29.3452 25.0584 29.3437C26.3667 29.3453 27.6579 29.0457 28.8318 28.4681C29.0269 28.7395 29.2839 28.9605 29.5814 29.1127C29.879 29.265 30.2085 29.3442 30.5427 29.3437H31.3668C31.2868 29.5695 31.2459 29.8073 31.2459 30.0469V31.4531C31.2459 31.6927 31.2868 31.9305 31.3668 32.1562H30.5427C29.9835 32.157 29.4474 32.3795 29.052 32.7749C28.6566 33.1703 28.4341 33.7064 28.4334 34.2656V34.7437C27.3621 35.5562 26.2342 36.2912 25.0584 36.9431C22.3527 35.4431 20.008 33.5869 18.0805 31.4278C18.0902 30.9929 17.9775 30.564 17.7552 30.19C17.5329 29.8161 17.21 29.5121 16.8234 29.3128L16.8243 29.3156ZM25.0593 40.0481C22.9664 39.0168 20.9962 37.7532 19.1859 36.2812C18.7987 35.9653 18.4171 35.6353 18.0449 35.2978C18.1503 34.7203 18.0338 34.1243 17.7187 33.6291C17.5936 33.4326 17.5477 33.1961 17.5902 32.9672C19.6694 35.1323 22.0791 36.9537 24.7293 38.3634C24.8318 38.4188 24.9465 38.4478 25.063 38.4478C25.1796 38.4478 25.2943 38.4188 25.3968 38.3634C26.4929 37.7737 27.5512 37.1161 28.5655 36.3947C28.7255 36.8269 29.0216 37.1955 29.4093 37.4447C28.0309 38.4265 26.5759 39.2962 25.0584 40.0453L25.0593 40.0481ZM30.5427 36.375C30.3563 36.3747 30.1776 36.3006 30.0458 36.1688C29.914 36.037 29.8399 35.8583 29.8396 35.6719V34.2656C29.8399 34.0792 29.914 33.9005 30.0458 33.7687C30.1776 33.6369 30.3563 33.5627 30.5427 33.5625H42.7302C42.9167 33.5625 43.0956 33.6366 43.2274 33.7684C43.3593 33.9003 43.4334 34.0791 43.4334 34.2656V35.6719C43.4334 35.8583 43.3593 36.0372 43.2274 36.1691C43.0956 36.3009 42.9167 36.375 42.7302 36.375H30.5427ZM45.5427 37.7812C45.7292 37.7812 45.9081 37.8553 46.0399 37.9872C46.1718 38.119 46.2459 38.2979 46.2459 38.4844V39.8906C46.2459 40.0771 46.1718 40.2559 46.0399 40.3878C45.9081 40.5197 45.7292 40.5937 45.5427 40.5937H33.3552C33.1688 40.5935 32.9901 40.5193 32.8583 40.3875C32.7265 40.2557 32.6524 40.077 32.6521 39.8906V38.4844C32.6524 38.298 32.7265 38.1193 32.8583 37.9875C32.9901 37.8556 33.1688 37.7815 33.3552 37.7812H45.5427ZM33.3552 32.1562C33.1688 32.156 32.9901 32.0818 32.8583 31.95C32.7265 31.8182 32.6524 31.6395 32.6521 31.4531V30.0469C32.6524 29.8605 32.7265 29.6818 32.8583 29.55C32.9901 29.4181 33.1688 29.344 33.3552 29.3437H45.5427C45.7292 29.3437 45.9081 29.4178 46.0399 29.5497C46.1718 29.6815 46.2459 29.8604 46.2459 30.0469V31.4531C46.2459 31.6396 46.1718 31.8184 46.0399 31.9503C45.9081 32.0822 45.7292 32.1562 45.5427 32.1562H33.3552ZM11.9437 30.4847L8.1393 34.2891L6.48649 32.6353C6.35458 32.5034 6.17568 32.4293 5.98914 32.4293C5.8026 32.4293 5.6237 32.5034 5.4918 32.6353C5.35989 32.7672 5.28579 32.9461 5.28579 33.1326C5.28579 33.3192 5.35989 33.4981 5.4918 33.63L7.64242 35.7806C7.77454 35.9121 7.95336 35.9859 8.13977 35.9859C8.32617 35.9859 8.50499 35.9121 8.63711 35.7806L12.9374 31.4794C13.0656 31.3468 13.1365 31.1692 13.135 30.9849C13.1335 30.8005 13.0596 30.6241 12.9293 30.4937C12.799 30.3633 12.6227 30.2892 12.4383 30.2876C12.254 30.2859 12.0763 30.3567 11.9437 30.4847Z" fill="#858FFF"/>
</svg>
