<svg width="48" height="43" viewBox="0 0 48 43" fill="none" xmlns="http://www.w3.org/2000/svg">
<path d="M47.9738 32.3921C47.9588 32.1821 47.9366 31.9733 47.9072 31.7658C47.6095 29.6749 46.6142 27.7459 45.0827 26.2916C43.5511 24.8373 41.5732 23.9431 39.4697 23.7539L39.4763 19.5605C40.0393 19.6558 40.618 19.5597 41.12 19.2875C41.622 19.0153 42.0182 18.5827 42.2455 18.0588C42.4727 17.5349 42.5178 16.95 42.3735 16.3975C42.2293 15.845 41.904 15.3568 41.4497 15.0108L39.3872 13.4368C39.4487 13.3301 39.481 13.2092 39.481 13.0861V6.86769C39.4758 6.40015 39.2853 5.95377 38.9514 5.6265C38.6174 5.29923 38.1673 5.11782 37.6997 5.12207H34.231C33.7634 5.11782 33.3133 5.29923 32.9793 5.6265C32.6454 5.95377 32.4549 6.40015 32.4497 6.86769V8.14738L22.2113 0.331444C21.9282 0.116412 21.5824 0 21.2269 0C20.8714 0 20.5256 0.116412 20.2425 0.331444L1.00316 15.0108C0.466501 15.4222 0.114273 16.029 0.0232982 16.699C-0.0676761 17.369 0.109985 18.0478 0.517531 18.5874C0.719399 18.8554 0.972545 19.0806 1.26225 19.25C1.55195 19.4193 1.87242 19.5293 2.20503 19.5736C2.32061 19.5894 2.43713 19.5972 2.55378 19.5971C2.72101 19.5964 2.88777 19.5791 3.05159 19.5455L3.01784 39.2724C3.0171 39.6906 3.09883 40.1049 3.25834 40.4915C3.41786 40.8782 3.65203 41.2296 3.94747 41.5256C4.24291 41.8217 4.59382 42.0566 4.98012 42.2169C5.36642 42.3772 5.78054 42.4598 6.19878 42.4599H37.6688C37.7322 42.4604 37.7953 42.4518 37.8563 42.4346C38.1132 42.4561 38.3728 42.4664 38.6335 42.4664C40.8896 42.4641 43.0693 41.6481 44.7724 40.1684C46.4755 38.6886 47.5879 36.6442 47.9053 34.4105C47.9347 34.2036 47.9569 33.9949 47.9719 33.7843C47.9888 33.553 47.9972 33.3199 47.9972 33.0849C47.9991 32.8524 47.9907 32.6208 47.9738 32.3921ZM33.856 6.86769C33.8608 6.77301 33.903 6.68411 33.9733 6.62049C34.0436 6.55687 34.1363 6.52373 34.231 6.52832H37.6997C37.7944 6.52373 37.8871 6.55687 37.9574 6.62049C38.0277 6.68411 38.0699 6.77301 38.0747 6.86769V12.2405L37.7372 12.1777L33.856 9.21613V6.86769ZM3.23628 17.9574C2.99579 18.1395 2.69284 18.2187 2.394 18.1775C2.09516 18.1364 1.82487 17.9783 1.64253 17.738C1.45885 17.4954 1.37863 17.1899 1.41938 16.8883C1.46013 16.5867 1.61854 16.3135 1.86003 16.1283L21.0928 1.44894C21.1308 1.42027 21.177 1.40476 21.2246 1.40476C21.2721 1.40476 21.3183 1.42027 21.3563 1.44894L37.0013 13.3852L40.5928 16.1283C40.8345 16.3134 40.9931 16.5865 41.034 16.8881C41.0749 17.1897 40.9949 17.4952 40.8113 17.738C40.6289 17.9783 40.3586 18.1364 40.0598 18.1775C39.761 18.2187 39.458 18.1395 39.2175 17.9574L21.6553 4.55488C21.5326 4.46181 21.3828 4.41143 21.2288 4.41143C21.0747 4.41143 20.9249 4.46181 20.8022 4.55488L3.23628 17.9574ZM18.7491 30.7411H17.4647C17.2782 30.7411 17.0994 30.8152 16.9675 30.9471C16.8357 31.0789 16.7616 31.2578 16.7616 31.4443C16.7616 31.6307 16.8357 31.8096 16.9675 31.9414C17.0994 32.0733 17.2782 32.1474 17.4647 32.1474H18.7491V41.0452H8.67284V21.8443H18.7491V30.7411ZM20.1553 41.0452V21.1411C20.1553 20.9547 20.0813 20.7758 19.9494 20.6439C19.8175 20.5121 19.6387 20.438 19.4522 20.438H7.96784C7.78136 20.438 7.60252 20.5121 7.47066 20.6439C7.3388 20.7758 7.26472 20.9547 7.26472 21.1411V41.0471H6.19878C5.96566 41.0473 5.73477 41.0016 5.51935 40.9125C5.30392 40.8234 5.10818 40.6927 4.94334 40.5278C4.77849 40.363 4.64778 40.1672 4.55868 39.9518C4.46958 39.7364 4.42385 39.5055 4.42409 39.2724L4.45691 18.7974L21.226 5.99863L38.07 18.8508L38.0625 23.7352C36.5803 23.8171 35.14 24.2565 33.8644 25.0158V21.1411C33.8644 20.9547 33.7903 20.7758 33.6585 20.6439C33.5266 20.5121 33.3478 20.438 33.1613 20.438H23.085C22.8985 20.438 22.7197 20.5121 22.5878 20.6439C22.456 20.7758 22.3819 20.9547 22.3819 21.1411V30.6399C22.3819 30.8264 22.456 31.0052 22.5878 31.1371C22.7197 31.2689 22.8985 31.343 23.085 31.343H29.4235C29.4169 31.3777 29.4113 31.4114 29.4057 31.4461C29.4015 31.4641 29.3984 31.4822 29.3963 31.5005C29.3878 31.5483 29.3803 31.5943 29.3728 31.643L29.3588 31.7368C29.3513 31.7921 29.3438 31.8474 29.3372 31.9027C29.3372 31.9158 29.3372 31.9289 29.3316 31.943C29.3241 32.0086 29.3166 32.0743 29.31 32.1399C29.31 32.1502 29.31 32.1614 29.31 32.1727C29.3035 32.2468 29.2969 32.3208 29.2913 32.3958C29.2857 32.4708 29.2828 32.5214 29.28 32.5833C29.2707 32.7511 29.266 32.9189 29.266 33.0877C29.266 33.3221 29.2744 33.5552 29.2913 33.7871C29.3063 33.9971 29.3285 34.2058 29.3578 34.4133C29.6386 36.424 30.5701 38.2874 32.01 39.7186C32.5149 40.2244 33.0757 40.671 33.6816 41.0499L20.1553 41.0452ZM28.8263 25.2286V21.8443H32.4582V25.2286H28.8263ZM31.8432 26.6349C30.9393 27.5802 30.2445 28.7052 29.8041 29.9368H28.8263V26.6349H31.8432ZM23.7882 25.2286V21.8443H27.42V25.2286H23.7882ZM27.42 26.6349V29.9368H23.7882V26.6349H27.42ZM46.5713 33.6793C46.5628 33.7983 46.5507 33.9164 46.5375 34.0346C46.3039 35.9676 45.3706 37.7482 43.9138 39.0402C42.4571 40.3321 40.5778 41.046 38.6307 41.0471C38.1516 41.0468 37.6735 41.0045 37.2019 40.9205C35.5285 40.6145 33.997 39.781 32.8314 38.542C31.6657 37.303 30.9272 35.7235 30.7238 34.0346C30.7107 33.9164 30.6985 33.7983 30.69 33.6793C30.6763 33.4824 30.6691 33.2843 30.6685 33.0849C30.6685 33.0211 30.6685 32.9564 30.6685 32.8927C30.6685 32.8496 30.6685 32.8064 30.6732 32.7633C30.6778 32.7202 30.6732 32.6949 30.6732 32.6602C30.6732 32.6255 30.6732 32.6161 30.6778 32.5936C30.6778 32.5499 30.6807 32.5058 30.6863 32.4614C30.6863 32.4239 30.6919 32.3864 30.6957 32.3499C30.6994 32.3133 30.7003 32.2983 30.7032 32.273C30.7088 32.2168 30.7153 32.1605 30.7219 32.1052C30.7285 32.0499 30.7388 31.9749 30.7482 31.9102C30.7575 31.8455 30.7678 31.7818 30.7791 31.7171C30.7903 31.6524 30.8025 31.5896 30.8147 31.5296C30.8269 31.4696 30.841 31.4021 30.855 31.3421C31.1237 30.1417 31.6695 29.0209 32.4488 28.0693C32.6175 27.863 32.7975 27.6643 32.9888 27.473C33.2479 27.2137 33.5245 26.9725 33.8166 26.7511C34.9343 25.9082 36.2543 25.3746 37.6438 25.204C39.0333 25.0334 40.4432 25.2319 41.7316 25.7794C43.0199 26.327 44.1414 27.2043 44.9829 28.323C45.8245 29.4417 46.3565 30.7624 46.5253 32.1521C46.5394 32.2702 46.5507 32.3893 46.5591 32.5083C46.5732 32.7024 46.5807 32.8993 46.5807 33.0961C46.5807 33.293 46.5853 33.4824 46.5713 33.6793ZM42.5232 28.523C42.5232 28.3365 42.4491 28.1577 42.3172 28.0258C42.1854 27.894 42.0065 27.8199 41.82 27.8199H35.5003C35.3139 27.8199 35.135 27.894 35.0032 28.0258C34.8713 28.1577 34.7972 28.3365 34.7972 28.523C34.7972 28.7095 34.8713 28.8883 35.0032 29.0202C35.135 29.1521 35.3139 29.2261 35.5003 29.2261H37.6791C38.0701 29.2282 38.4516 29.3467 38.775 29.5664C39.0984 29.7861 39.3491 30.0972 39.495 30.4599H35.5003C35.3139 30.4599 35.135 30.534 35.0032 30.6658C34.8713 30.7977 34.7972 30.9765 34.7972 31.163C34.7972 31.3495 34.8713 31.5283 35.0032 31.6602C35.135 31.7921 35.3139 31.8661 35.5003 31.8661H39.5316C39.3963 32.2488 39.1461 32.5803 38.8151 32.8152C38.4842 33.0502 38.0887 33.1771 37.6828 33.1786H35.5407C35.3951 33.1623 35.248 33.1919 35.1201 33.2633C34.9922 33.3347 34.8898 33.4443 34.8273 33.5768C34.7648 33.7092 34.7453 33.8579 34.7715 34.0021C34.7977 34.1462 34.8683 34.2785 34.9735 34.3805L39.7641 39.0343C39.8295 39.1021 39.9079 39.1561 39.9946 39.193C40.0813 39.23 40.1746 39.2491 40.2688 39.2493C40.3631 39.2495 40.4564 39.2307 40.5432 39.1941C40.6301 39.1576 40.7087 39.1039 40.7744 39.0363C40.8401 38.9687 40.8915 38.8886 40.9257 38.8008C40.9598 38.7129 40.9759 38.6191 40.973 38.5249C40.9702 38.4307 40.9484 38.338 40.909 38.2524C40.8696 38.1668 40.8134 38.0899 40.7438 38.0264L37.201 34.5849H37.6791C38.4593 34.5835 39.2149 34.3119 39.8174 33.8162C40.4199 33.3205 40.8321 32.6314 40.9838 31.8661H41.82C42.0065 31.8661 42.1854 31.7921 42.3172 31.6602C42.4491 31.5283 42.5232 31.3495 42.5232 31.163C42.5232 30.9765 42.4491 30.7977 42.3172 30.6658C42.1854 30.534 42.0065 30.4599 41.82 30.4599H40.9678C40.8677 30.0178 40.6796 29.6005 40.4147 29.2327H41.821C41.9136 29.2326 42.0053 29.2141 42.0908 29.1785C42.1763 29.1428 42.254 29.0905 42.3192 29.0248C42.3845 28.959 42.4361 28.881 42.4711 28.7952C42.5061 28.7094 42.5238 28.6175 42.5232 28.5249V28.523ZM24.7416 13.838C24.7416 13.1427 24.5354 12.463 24.1491 11.8848C23.7628 11.3067 23.2137 10.8561 22.5713 10.59C21.9289 10.3239 21.2221 10.2543 20.5401 10.3899C19.8581 10.5256 19.2317 10.8604 18.74 11.3521C18.2484 11.8438 17.9135 12.4702 17.7779 13.1521C17.6422 13.8341 17.7119 14.541 17.978 15.1834C18.244 15.8258 18.6946 16.3748 19.2728 16.7611C19.8509 17.1474 20.5306 17.3536 21.226 17.3536C22.1581 17.3526 23.0517 16.9819 23.7108 16.3228C24.3699 15.6637 24.7406 14.7701 24.7416 13.838ZM21.226 15.9474C20.8088 15.9474 20.4009 15.8237 20.0541 15.5919C19.7072 15.3601 19.4368 15.0307 19.2772 14.6452C19.1175 14.2598 19.0757 13.8357 19.1571 13.4265C19.2385 13.0173 19.4394 12.6415 19.7344 12.3465C20.0294 12.0515 20.4053 11.8506 20.8144 11.7692C21.2236 11.6878 21.6478 11.7295 22.0332 11.8892C22.4186 12.0489 22.7481 12.3192 22.9798 12.6661C23.2116 13.013 23.3353 13.4208 23.3353 13.838C23.3346 14.3972 23.1121 14.9333 22.7167 15.3287C22.3213 15.7242 21.7852 15.9466 21.226 15.9474Z" fill="#69D8FA"/>
</svg>
