<svg width="46" height="46" viewBox="0 0 46 46" fill="none" xmlns="http://www.w3.org/2000/svg">
<path d="M36.6248 16.985H41.6291C41.8078 16.985 41.9792 16.914 42.1056 16.7876C42.2319 16.6612 42.3029 16.4898 42.3029 16.3111V12.4263C42.3029 12.2476 42.2319 12.0762 42.1056 11.9498C41.9792 11.8235 41.8078 11.7525 41.6291 11.7525H36.6248C36.4461 11.7525 36.2747 11.8235 36.1483 11.9498C36.022 12.0762 35.951 12.2476 35.951 12.4263V16.3111C35.951 16.4898 36.022 16.6612 36.1483 16.7876C36.2747 16.914 36.4461 16.985 36.6248 16.985ZM37.2986 13.1001H40.9553V15.6373H37.2986V13.1001ZM4.3709 30.1453H9.3752C9.55391 30.1453 9.7253 30.0743 9.85166 29.9479C9.97803 29.8215 10.049 29.6502 10.049 29.4714V25.5866C10.049 25.4079 9.97803 25.2365 9.85166 25.1101C9.7253 24.9838 9.55391 24.9128 9.3752 24.9128H4.3709C4.19219 24.9128 4.0208 24.9838 3.89443 25.1101C3.76806 25.2365 3.69707 25.4079 3.69707 25.5866V29.4688C3.69672 29.5575 3.71388 29.6454 3.74759 29.7274C3.78129 29.8095 3.83087 29.8841 3.89347 29.947C3.95608 30.0098 4.03048 30.0597 4.11241 30.0937C4.19434 30.1278 4.28218 30.1453 4.3709 30.1453ZM5.04473 26.2604H8.70137V28.7976H5.04473V26.2604ZM4.3709 16.985H9.3752C9.55391 16.985 9.7253 16.914 9.85166 16.7876C9.97803 16.6612 10.049 16.4898 10.049 16.3111V12.4263C10.049 12.2476 9.97803 12.0762 9.85166 11.9498C9.7253 11.8235 9.55391 11.7525 9.3752 11.7525H4.3709C4.19219 11.7525 4.0208 11.8235 3.89443 11.9498C3.76806 12.0762 3.69707 12.2476 3.69707 12.4263V16.3111C3.69707 16.4898 3.76806 16.6612 3.89443 16.7876C4.0208 16.914 4.19219 16.985 4.3709 16.985ZM5.04473 13.1001H8.70137V15.6373H5.04473V13.1001ZM45.3262 44.6523H45.0117V7.41211C45.0112 6.87612 44.7981 6.36223 44.4191 5.98323C44.0401 5.60423 43.5262 5.3911 42.9902 5.39062H34.5898V2.02148C34.5894 1.4855 34.3762 0.971603 33.9972 0.592605C33.6182 0.213606 33.1043 0.000475797 32.5684 0L13.4316 0C12.8957 0.000475797 12.3818 0.213606 12.0028 0.592605C11.6238 0.971603 11.4106 1.4855 11.4102 2.02148V5.39062H3.00977C2.47378 5.3911 1.95988 5.60423 1.58089 5.98323C1.20189 6.36223 0.988757 6.87612 0.988281 7.41211V44.6523H0.673828C0.495118 44.6523 0.323727 44.7233 0.19736 44.8497C0.0709924 44.9761 0 45.1475 0 45.3262C0 45.5049 0.0709924 45.6763 0.19736 45.8026C0.323727 45.929 0.495118 46 0.673828 46H45.3262C45.5049 46 45.6763 45.929 45.8026 45.8026C45.929 45.6763 46 45.5049 46 45.3262C46 45.1475 45.929 44.9761 45.8026 44.8497C45.6763 44.7233 45.5049 44.6523 45.3262 44.6523ZM11.4102 44.6523H2.33594V10.4048H11.4102V44.6523ZM11.4102 9.05715H2.33594V7.41211C2.33594 7.2334 2.40693 7.06201 2.5333 6.93564C2.65966 6.80927 2.83106 6.73828 3.00977 6.73828H11.4102V9.05715ZM22.3262 44.6523H16.8008V34.9043C16.8008 34.7256 16.8718 34.5542 16.9981 34.4278C17.1245 34.3015 17.2959 34.2305 17.4746 34.2305H22.3262V44.6523ZM29.1992 44.6523H23.6738V34.2305H28.5254C28.7041 34.2305 28.8755 34.3015 29.0019 34.4278C29.1282 34.5542 29.1992 34.7256 29.1992 34.9043V44.6523ZM33.2422 44.6523H30.5469V34.9043C30.5464 34.3683 30.3333 33.8544 29.9543 33.4754C29.5753 33.0964 29.0614 32.8833 28.5254 32.8828H17.4746C16.9386 32.8833 16.4247 33.0964 16.0457 33.4754C15.6667 33.8544 15.4536 34.3683 15.4531 34.9043V44.6523H12.7578V5.39062H33.2422V44.6523ZM33.2422 4.04297H12.7578V2.02148C12.7578 1.84277 12.8288 1.67138 12.9552 1.54502C13.0815 1.41865 13.2529 1.34766 13.4316 1.34766H32.5684C32.7471 1.34766 32.9185 1.41865 33.0448 1.54502C33.1712 1.67138 33.2422 1.84277 33.2422 2.02148V4.04297ZM43.6641 44.6523H34.5898V10.4048H43.6641V44.6523ZM43.6641 9.05715H34.5898V6.73828H42.9902C43.1689 6.73828 43.3403 6.80927 43.4667 6.93564C43.5931 7.06201 43.6641 7.2334 43.6641 7.41211V9.05715ZM4.3709 23.5651H9.3752C9.55391 23.5651 9.7253 23.4941 9.85166 23.3678C9.97803 23.2414 10.049 23.07 10.049 22.8913V19.0064C10.049 18.8277 9.97803 18.6563 9.85166 18.53C9.7253 18.4036 9.55391 18.3326 9.3752 18.3326H4.3709C4.19219 18.3326 4.0208 18.4036 3.89443 18.53C3.76806 18.6563 3.69707 18.8277 3.69707 19.0064V22.8913C3.69707 23.07 3.76806 23.2414 3.89443 23.3678C4.0208 23.4941 4.19219 23.5651 4.3709 23.5651ZM5.04473 19.6803H8.70137V22.2175H5.04473V19.6803ZM4.3709 36.7245H9.3752C9.55391 36.7245 9.7253 36.6535 9.85166 36.5272C9.97803 36.4008 10.049 36.2294 10.049 36.0507V32.1641C10.049 31.9854 9.97803 31.814 9.85166 31.6876C9.7253 31.5612 9.55391 31.4902 9.3752 31.4902H4.3709C4.19219 31.4902 4.0208 31.5612 3.89443 31.6876C3.76806 31.814 3.69707 31.9854 3.69707 32.1641V36.048C3.69672 36.1367 3.71388 36.2246 3.74759 36.3067C3.78129 36.3888 3.83087 36.4634 3.89347 36.5262C3.95608 36.5891 4.03048 36.639 4.11241 36.673C4.19434 36.707 4.28218 36.7245 4.3709 36.7245ZM5.04473 32.8406H8.70137V35.3769H5.04473V32.8406ZM22.2812 14.2259H20.6191C20.4798 14.2114 20.3395 14.2407 20.2176 14.3097C20.0957 14.3787 19.9984 14.4839 19.9391 14.6108C19.8798 14.7377 19.8615 14.8799 19.8868 15.0177C19.912 15.1554 19.9796 15.2819 20.0801 15.3795L23.8176 19.01C23.9461 19.1326 24.1179 19.1994 24.2955 19.196C24.4731 19.1925 24.6421 19.1191 24.7658 18.9917C24.8896 18.8643 24.958 18.6932 24.9563 18.5156C24.9545 18.338 24.8827 18.1683 24.7564 18.0433L22.2148 15.5735H22.2812C22.9012 15.572 23.5027 15.3618 23.9887 14.9769C24.4747 14.5919 24.8169 14.0546 24.9604 13.4514H25.5156C25.6943 13.4514 25.8657 13.3804 25.9921 13.254C26.1185 13.1277 26.1895 12.9563 26.1895 12.7776C26.1895 12.5989 26.1185 12.4275 25.9921 12.3011C25.8657 12.1747 25.6943 12.1038 25.5156 12.1038H24.9469C24.8813 11.8553 24.7812 11.6173 24.6495 11.3967H25.5156C25.6943 11.3967 25.8657 11.3257 25.9921 11.1993C26.1185 11.073 26.1895 10.9016 26.1895 10.7229C26.1895 10.5441 26.1185 10.3728 25.9921 10.2464C25.8657 10.12 25.6943 10.049 25.5156 10.049H20.5814C20.4027 10.049 20.2313 10.12 20.1049 10.2464C19.9786 10.3728 19.9076 10.5441 19.9076 10.7229C19.9076 10.9016 19.9786 11.073 20.1049 11.1993C20.2313 11.3257 20.4027 11.3967 20.5814 11.3967H22.2812C22.5282 11.3972 22.7706 11.4628 22.984 11.587C23.1974 11.7111 23.3743 11.8894 23.4968 12.1038H20.5814C20.4027 12.1038 20.2313 12.1747 20.1049 12.3011C19.9786 12.4275 19.9076 12.5989 19.9076 12.7776C19.9076 12.9563 19.9786 13.1277 20.1049 13.254C20.2313 13.3804 20.4027 13.4514 20.5814 13.4514H23.5337C23.417 13.6837 23.2381 13.8791 23.017 14.0158C22.7959 14.1526 22.5412 14.2253 22.2812 14.2259ZM24.6837 27.7797L23.6738 28.7895V23.6684C23.6738 23.4897 23.6028 23.3183 23.4765 23.192C23.3501 23.0656 23.1787 22.9946 23 22.9946C22.8213 22.9946 22.6499 23.0656 22.5235 23.192C22.3972 23.3183 22.3262 23.4897 22.3262 23.6684V28.7895L21.3163 27.7797C21.2541 27.7154 21.1798 27.6641 21.0975 27.6288C21.0153 27.5935 20.9269 27.575 20.8374 27.5742C20.7479 27.5735 20.6592 27.5906 20.5764 27.6245C20.4936 27.6584 20.4184 27.7085 20.3552 27.7718C20.2919 27.8351 20.2419 27.9103 20.2081 27.9932C20.1743 28.076 20.1573 28.1647 20.1581 28.2542C20.1589 28.3437 20.1775 28.4321 20.2129 28.5143C20.2482 28.5965 20.2996 28.6708 20.364 28.7329L22.5202 30.8892C22.5364 30.9054 22.5535 30.9206 22.5705 30.935L22.5912 30.9503L22.6236 30.9736L22.6505 30.9907L22.6802 31.0078C22.6895 31.0128 22.6991 31.0173 22.7089 31.0212C22.7187 31.0268 22.7289 31.0316 22.7395 31.0356L22.7682 31.0464L22.8014 31.0581L22.8311 31.0653L22.8661 31.0743L22.9003 31.0796L22.9308 31.0841C22.9533 31.0841 22.9748 31.0841 22.9973 31.0841C23.0198 31.0841 23.0413 31.0841 23.0638 31.0841L23.0943 31.0796L23.1285 31.0743L23.1635 31.0653L23.1932 31.0581L23.2264 31.0464L23.2552 31.0356C23.2657 31.0316 23.2759 31.0268 23.2857 31.0212C23.2955 31.0173 23.3051 31.0128 23.3145 31.0078L23.3441 30.9907L23.3711 30.9736L23.4034 30.9503L23.4241 30.935C23.4411 30.9206 23.4582 30.9054 23.4744 30.8892L25.6306 28.7329C25.695 28.6708 25.7464 28.5965 25.7817 28.5143C25.8171 28.4321 25.8357 28.3437 25.8365 28.2542C25.8374 28.1647 25.8203 28.076 25.7865 27.9932C25.7527 27.9103 25.7027 27.8351 25.6394 27.7718C25.5762 27.7085 25.501 27.6584 25.4182 27.6245C25.3354 27.5906 25.2467 27.5735 25.1572 27.5742C25.0677 27.575 24.9793 27.5935 24.8971 27.6288C24.8148 27.6641 24.7405 27.7154 24.6783 27.7797H24.6837ZM36.6248 43.3047H41.6291C41.8078 43.3047 41.9792 43.2337 42.1056 43.1073C42.2319 42.981 42.3029 42.8096 42.3029 42.6309V38.746C42.3029 38.5673 42.2319 38.3959 42.1056 38.2695C41.9792 38.1432 41.8078 38.0722 41.6291 38.0722H36.6248C36.4461 38.0722 36.2747 38.1432 36.1483 38.2695C36.022 38.3959 35.951 38.5673 35.951 38.746V42.6309C35.951 42.8096 36.022 42.981 36.1483 43.1073C36.2747 43.2337 36.4461 43.3047 36.6248 43.3047ZM37.2986 39.4198H40.9553V41.957H37.2986V39.4198ZM23.0234 21.7152C24.7436 21.7154 26.4108 21.1192 27.7407 20.028C29.0706 18.9368 29.981 17.4182 30.3167 15.731C30.6525 14.0439 30.3929 12.2924 29.5821 10.7752C28.7712 9.25802 27.4594 8.06889 25.8702 7.41047C24.2809 6.75205 22.5125 6.66507 20.8662 7.16436C19.22 7.66365 17.7978 8.71831 16.8421 10.1486C15.8863 11.579 15.456 13.2964 15.6246 15.0084C15.7932 16.7204 16.5502 18.321 17.7666 19.5374C18.4553 20.23 19.2745 20.779 20.1768 21.1528C21.0792 21.5267 22.0467 21.7178 23.0234 21.7152ZM18.7198 9.97715C19.7153 8.98233 21.0249 8.36336 22.4254 8.22568C23.826 8.088 25.231 8.44012 26.4012 9.22206C27.5713 10.004 28.4341 11.1674 28.8428 12.5141C29.2514 13.8608 29.1805 15.3076 28.6422 16.6079C28.1039 17.9082 27.1315 18.9817 25.8905 19.6455C24.6496 20.3094 23.2169 20.5225 21.8365 20.2486C20.4561 19.9747 19.2133 19.2307 18.3198 18.1433C17.4264 17.056 16.9375 15.6925 16.9364 14.2852C16.9337 13.4848 17.0899 12.6918 17.3961 11.9523C17.7022 11.2128 18.1522 10.5414 18.7198 9.97715ZM36.6248 23.5651H41.6291C41.8078 23.5651 41.9792 23.4941 42.1056 23.3678C42.2319 23.2414 42.3029 23.07 42.3029 22.8913V19.0064C42.3029 18.8277 42.2319 18.6563 42.1056 18.53C41.9792 18.4036 41.8078 18.3326 41.6291 18.3326H36.6248C36.4461 18.3326 36.2747 18.4036 36.1483 18.53C36.022 18.6563 35.951 18.8277 35.951 19.0064V22.8913C35.951 23.07 36.022 23.2414 36.1483 23.3678C36.2747 23.4941 36.4461 23.5651 36.6248 23.5651ZM37.2986 19.6803H40.9553V22.2175H37.2986V19.6803ZM36.6248 30.1453H41.6291C41.8078 30.1453 41.9792 30.0743 42.1056 29.9479C42.2319 29.8215 42.3029 29.6502 42.3029 29.4714V25.5866C42.3029 25.4079 42.2319 25.2365 42.1056 25.1101C41.9792 24.9838 41.8078 24.9128 41.6291 24.9128H36.6248C36.4461 24.9128 36.2747 24.9838 36.1483 25.1101C36.022 25.2365 35.951 25.4079 35.951 25.5866V29.4688C35.9506 29.5575 35.9678 29.6454 36.0015 29.7274C36.0352 29.8095 36.0848 29.8841 36.1474 29.947C36.21 30.0098 36.2844 30.0597 36.3663 30.0937C36.4482 30.1278 36.5361 30.1453 36.6248 30.1453ZM37.2986 26.2604H40.9553V28.7976H37.2986V26.2604ZM4.3709 43.3047H9.3752C9.55391 43.3047 9.7253 43.2337 9.85166 43.1073C9.97803 42.981 10.049 42.8096 10.049 42.6309V38.746C10.049 38.5673 9.97803 38.3959 9.85166 38.2695C9.7253 38.1432 9.55391 38.0722 9.3752 38.0722H4.3709C4.19219 38.0722 4.0208 38.1432 3.89443 38.2695C3.76806 38.3959 3.69707 38.5673 3.69707 38.746V42.6309C3.69707 42.8096 3.76806 42.981 3.89443 43.1073C4.0208 43.2337 4.19219 43.3047 4.3709 43.3047ZM5.04473 39.4198H8.70137V41.957H5.04473V39.4198ZM36.6248 36.7245H41.6291C41.8078 36.7245 41.9792 36.6535 42.1056 36.5272C42.2319 36.4008 42.3029 36.2294 42.3029 36.0507V32.1641C42.3029 31.9854 42.2319 31.814 42.1056 31.6876C41.9792 31.5612 41.8078 31.4902 41.6291 31.4902H36.6248C36.4461 31.4902 36.2747 31.5612 36.1483 31.6876C36.022 31.814 35.951 31.9854 35.951 32.1641V36.048C35.9506 36.1367 35.9678 36.2246 36.0015 36.3067C36.0352 36.3888 36.0848 36.4634 36.1474 36.5262C36.21 36.5891 36.2844 36.639 36.3663 36.673C36.4482 36.707 36.5361 36.7245 36.6248 36.7245ZM37.2986 32.8406H40.9553V35.3769H37.2986V32.8406Z" fill="#6E79F0"/>
</svg>
