<svg width="44" height="32" viewBox="0 0 44 32" fill="none" xmlns="http://www.w3.org/2000/svg">
<path d="M42.7538 26.7693C42.7495 26.7241 42.7408 26.68 42.7279 26.6377C42.6179 25.8165 42.2008 25.1075 41.6008 24.6169C42.2848 24.0443 42.7206 23.1851 42.7206 22.2256C42.7206 20.7534 41.6944 19.5189 40.3207 19.1929V9.3587L42.2455 8.67854C42.5325 8.57726 42.7245 8.30606 42.7255 8.00174C42.7264 7.69742 42.5359 7.42526 42.2498 7.32206L22.0802 0.0510219C21.9232 -0.00561813 21.7509 -0.00609878 21.593 0.0505412L1.27601 7.32158C0.988973 7.4243 0.797933 7.69694 0.798893 8.00174C0.799853 8.30654 0.992813 8.57774 1.28081 8.67902L8.62865 11.2557L9.64961 23.8029C9.69521 26.6483 15.7653 28.1368 21.7619 28.1368C27.7557 28.1368 33.8234 26.6497 33.8738 23.8067L35.0205 11.2307L38.8811 9.8675V19.1934C37.5069 19.5198 36.4807 20.7539 36.4807 22.2261C36.4807 23.1856 36.9165 24.0448 37.6005 24.6174C37.001 25.1075 36.5843 25.815 36.4734 26.6353C36.461 26.6785 36.4519 26.7237 36.4471 26.7697L36.004 31.2001C35.9834 31.4027 36.0501 31.6043 36.1864 31.755C36.3227 31.9057 36.5167 31.9921 36.7202 31.9921H42.4807C42.6842 31.9921 42.8781 31.9062 43.0144 31.755C43.1507 31.6043 43.2175 31.4027 43.1968 31.2001L42.7538 26.7693ZM21.8349 1.49342L39.8637 7.99262L21.8349 14.3603L3.67505 7.99262L21.8349 1.49342ZM32.4371 23.7049C32.4352 23.7265 32.4343 23.7486 32.4343 23.7702C32.4343 24.9635 28.277 26.6968 21.7619 26.6968C15.2469 26.6968 11.0891 24.9635 11.0891 23.7702C11.0891 23.7505 11.0882 23.7313 11.0867 23.7117L10.1162 11.7769L21.5983 15.8032C21.6751 15.8301 21.7557 15.8435 21.8363 15.8435C21.9175 15.8435 21.9986 15.8301 22.0763 15.8027L33.5272 11.7582L32.4371 23.7049ZM37.9207 22.2256C37.9207 21.2992 38.6743 20.5456 39.6011 20.5456C40.5275 20.5456 41.2811 21.2992 41.2811 22.2256C41.2811 23.152 40.5275 23.9056 39.6011 23.9056C38.6743 23.9056 37.9207 23.152 37.9207 22.2256ZM37.516 30.5517L37.8674 27.0381C37.8789 26.9958 37.8875 26.9517 37.8919 26.9061C37.9725 26.0166 38.7069 25.3461 39.6011 25.3461C40.4944 25.3461 41.2293 26.0166 41.3094 26.9061C41.3138 26.9507 41.3214 26.9944 41.3339 27.0361L41.6858 30.5521H37.516V30.5517Z" fill="#B50404"/>
</svg>
