<svg width="48" height="48" viewBox="0 0 48 48" fill="none" xmlns="http://www.w3.org/2000/svg">
<path d="M26.869 18.029C25.7205 18.0263 24.5829 18.2522 23.5227 18.6937C22.4625 19.1352 21.5007 19.7835 20.6937 20.6006C19.473 21.8218 18.6417 23.3775 18.3051 25.071C17.9685 26.7646 18.1416 28.5199 18.8025 30.1151C19.4634 31.7103 20.5825 33.0737 22.0182 34.0329C23.4539 34.9921 25.1418 35.5041 26.8685 35.5041C28.5952 35.5041 30.2831 34.9921 31.7188 34.0329C33.1546 33.0737 34.2736 31.7103 34.9345 30.1151C35.5955 28.5199 35.7686 26.7646 35.4319 25.071C35.0953 23.3775 34.2641 21.8218 33.0434 20.6006C32.2364 19.7835 31.2749 19.1354 30.2148 18.6938C29.1547 18.2523 28.0173 18.0263 26.869 18.029ZM32.0459 32.0147C31.3679 32.6979 30.5613 33.2402 29.6727 33.6103C28.7841 33.9804 27.8311 34.1709 26.8685 34.1709C25.906 34.1709 24.9529 33.9804 24.0643 33.6103C23.1757 33.2402 22.3692 32.6979 21.6912 32.0147C20.3159 30.6288 19.5442 28.7555 19.5442 26.8031C19.5442 24.8507 20.3159 22.9774 21.6912 21.5915C22.3692 20.9083 23.1757 20.366 24.0643 19.9959C24.9529 19.6258 25.906 19.4353 26.8685 19.4353C27.8311 19.4353 28.7841 19.6258 29.6727 19.9959C30.5613 20.366 31.3679 20.9083 32.0459 21.5915C33.4211 22.9774 34.1928 24.8507 34.1928 26.8031C34.1928 28.7555 33.4211 30.6288 32.0459 32.0147ZM15.2365 15.1078C15.0807 15.2645 14.9932 15.4765 14.9932 15.6975C14.9932 15.9185 15.0807 16.1305 15.2365 16.2872C15.3133 16.3645 15.4047 16.4258 15.5053 16.4677C15.606 16.5095 15.7139 16.5311 15.8229 16.5311C15.9319 16.5311 16.0398 16.5095 16.1405 16.4677C16.2411 16.4258 16.3325 16.3645 16.4093 16.2872C16.5647 16.1302 16.6518 15.9183 16.6518 15.6975C16.6518 15.4766 16.5647 15.2647 16.4093 15.1078C16.3325 15.0305 16.2411 14.9691 16.1405 14.9273C16.0398 14.8854 15.9319 14.8639 15.8229 14.8639C15.7139 14.8639 15.606 14.8854 15.5053 14.9273C15.4047 14.9691 15.3133 15.0305 15.2365 15.1078ZM46.8237 30.2447L39.7362 23.1197L45.1615 17.6643C45.8959 16.9226 46.3162 15.9264 46.3348 14.8827C46.3535 13.8391 45.9692 12.8284 45.2618 12.0609L45.9443 11.3747C46.6859 10.6251 47.1065 9.61635 47.1172 8.56202C47.1279 7.50769 46.7277 6.49062 46.0015 5.72622C46.5423 4.94763 46.7934 4.00431 46.7114 3.0599C46.6294 2.1155 46.2193 1.2296 45.5524 0.555907L45.1615 0.163094C45.0962 0.097474 45.0185 0.0454042 44.933 0.00987441C44.8475 -0.0256554 44.7558 -0.0439453 44.6632 -0.0439453C44.5706 -0.0439453 44.4789 -0.0256554 44.3934 0.00987441C44.3079 0.0454042 44.2303 0.097474 44.1649 0.163094L35.959 8.41309C34.8659 9.49497 34.1121 10.7268 33.7174 12.0759C33.2431 13.6997 33.3087 15.4622 33.8487 17.1993L25.7946 9.10122L23.4509 6.74528C23.0792 6.36914 22.6363 6.07073 22.1482 5.86745C21.66 5.66416 21.1362 5.56007 20.6074 5.56122C20.0785 5.55999 19.5546 5.66406 19.0662 5.86734C18.5779 6.07063 18.1349 6.36907 17.7631 6.74528L9.2618 15.2915L6.91805 17.6522C6.16589 18.4119 5.74397 19.4378 5.74397 20.5068C5.74397 21.5759 6.16589 22.6018 6.91805 23.3615L17.6431 34.1503C15.7577 33.4593 13.8256 33.3318 12.0565 33.855C10.714 34.2515 9.48774 35.01 8.41524 36.105L0.204615 44.3606C0.0735725 44.4922 0 44.6703 0 44.8561C0 45.0418 0.0735725 45.2199 0.204615 45.3515L0.595553 45.75C1.26192 46.4211 2.14415 46.8349 3.08621 46.9183C4.02828 47.0017 4.96948 46.7492 5.74337 46.2056C6.50115 46.9363 7.51611 47.3394 8.56874 47.3276C9.62138 47.3159 10.6271 46.8902 11.3684 46.1428L12.0452 45.4622C12.7858 46.1575 13.7641 46.5435 14.7799 46.5412C15.3094 46.5418 15.8338 46.4369 16.3223 46.2327C16.8108 46.0284 17.2538 45.7289 17.6252 45.3515L23.2034 39.7406L27.9424 44.5059L30.2862 46.8609C30.6586 47.2362 31.1017 47.534 31.5898 47.7373C32.0779 47.9405 32.6014 48.0452 33.1301 48.0452C33.6588 48.0452 34.1823 47.9405 34.6704 47.7373C35.1585 47.534 35.6015 47.2362 35.974 46.8609L38.3177 44.505L44.4752 38.3175L46.819 35.9568C47.5731 35.1979 47.9967 34.1716 47.9976 33.1017C47.9985 32.0318 47.5765 31.0049 46.8237 30.2447ZM35.0674 12.4687C35.3937 11.3512 36.0265 10.3228 36.9518 9.40684L44.6599 1.65653C45.104 2.15991 45.3402 2.81315 45.3209 3.48409C45.3016 4.15504 45.0281 4.7936 44.5559 5.27059L38.6918 11.1665C38.6248 11.2316 38.5715 11.3093 38.5348 11.3951C38.4982 11.481 38.479 11.5733 38.4784 11.6667C38.4778 11.76 38.4959 11.8525 38.5314 11.9389C38.567 12.0252 38.6194 12.1035 38.6855 12.1694C38.7517 12.2353 38.8303 12.2873 38.9168 12.3224C39.0033 12.3576 39.0959 12.3752 39.1893 12.3741C39.2826 12.3731 39.3748 12.3535 39.4605 12.3165C39.5462 12.2794 39.6237 12.2257 39.6884 12.1584L45.0518 6.76591C45.4955 7.2695 45.7314 7.92276 45.712 8.59364C45.6925 9.26453 45.419 9.90299 44.9468 10.38L43.7815 11.5575L40.2602 15.0975C40.1866 15.1604 40.1267 15.2379 40.0843 15.3251C40.042 15.4122 40.0182 15.5072 40.0143 15.604C40.0104 15.7009 40.0266 15.7974 40.0618 15.8877C40.097 15.978 40.1505 16.06 40.219 16.1286C40.2874 16.1973 40.3692 16.251 40.4594 16.2865C40.5496 16.322 40.6461 16.3384 40.743 16.3348C40.8398 16.3312 40.9349 16.3076 41.0222 16.2655C41.1094 16.2235 41.1871 16.1638 41.2502 16.0903L44.2671 13.0565C44.7111 13.5599 44.9474 14.2131 44.9281 14.8841C44.9088 15.555 44.6353 16.1936 44.1631 16.6706L38.7593 22.1081C38.5643 21.9337 38.3768 21.7556 38.1968 21.5737L38.1827 21.5597C35.4377 18.81 34.219 15.359 35.0674 12.4687ZM18.7549 7.73528C18.9968 7.49137 19.2845 7.29777 19.6016 7.16565C19.9187 7.03353 20.2588 6.96551 20.6023 6.96551C20.9458 6.96551 21.2859 7.03353 21.6029 7.16565C21.92 7.29777 22.2078 7.49137 22.4496 7.73528L24.2815 9.56903C23.238 10.3982 21.9445 10.8496 20.6116 10.8496C19.2788 10.8496 17.9853 10.3982 16.9418 9.56903L18.7549 7.73528ZM7.90993 22.3706C7.41906 21.8749 7.1437 21.2054 7.1437 20.5078C7.1437 19.8101 7.41906 19.1407 7.90993 18.645L9.7268 16.8187C10.5475 17.8733 10.9932 19.1715 10.9932 20.5078C10.9932 21.8441 10.5475 23.1423 9.7268 24.1968L7.90993 22.3706ZM16.6287 44.3606C16.158 44.8354 15.5225 45.1107 14.8542 45.1292C14.1859 45.1477 13.5361 44.9081 13.0399 44.46L16.0615 41.4215C16.1285 41.3565 16.1818 41.2788 16.2185 41.1929C16.2551 41.1071 16.2743 41.0148 16.2749 40.9214C16.2754 40.8281 16.2574 40.7355 16.2219 40.6492C16.1863 40.5629 16.1339 40.4845 16.0678 40.4187C16.0016 40.3528 15.923 40.3008 15.8365 40.2656C15.75 40.2305 15.6574 40.2129 15.564 40.2139C15.4707 40.215 15.3785 40.2346 15.2928 40.2716C15.2071 40.3086 15.1296 40.3624 15.0649 40.4297L11.5456 43.9687L10.3709 45.15C9.90007 45.6248 9.26452 45.9001 8.59611 45.9188C7.92769 45.9375 7.27776 45.6981 6.78118 45.2503L12.1493 39.8522C12.2736 39.719 12.3414 39.5428 12.3384 39.3606C12.3353 39.1784 12.2617 39.0046 12.133 38.8756C12.0043 38.7467 11.8306 38.6727 11.6484 38.6693C11.4663 38.6659 11.2899 38.7334 11.1565 38.8575L5.2868 44.7534C4.81616 45.2282 4.18077 45.5035 3.51251 45.5222C2.84426 45.5408 2.19448 45.3015 1.69805 44.8537L9.41555 37.0931C10.3221 36.1678 11.3449 35.5312 12.4549 35.204C15.5224 34.2965 19.2265 35.7515 22.0334 38.9222L16.6287 44.3606ZM34.9812 45.87C34.7393 46.1139 34.4516 46.3075 34.1345 46.4396C33.8174 46.5717 33.4773 46.6397 33.1338 46.6397C32.7903 46.6397 32.4502 46.5717 32.1332 46.4396C31.8161 46.3075 31.5283 46.1139 31.2865 45.87L29.464 44.0372C30.5075 43.208 31.801 42.7566 33.1338 42.7566C34.4667 42.7566 35.7602 43.208 36.8037 44.0372L34.9812 45.87ZM37.7974 43.0312C36.4854 41.9433 34.8345 41.348 33.1301 41.348C31.4257 41.348 29.7748 41.9433 28.4627 43.0312L10.7252 25.2009C11.8075 23.8763 12.3987 22.2183 12.3987 20.5078C12.3987 18.7972 11.8075 17.1393 10.7252 15.8147L15.9377 10.5722C17.2471 11.6656 18.8997 12.263 20.6056 12.2597C22.3111 12.263 23.9634 11.6655 25.2724 10.5722L43.0118 28.4062C41.9296 29.7307 41.3384 31.3885 41.3384 33.0989C41.3384 34.8092 41.9296 36.4671 43.0118 37.7915L37.7974 43.0312ZM45.8271 34.9584L44.0102 36.7875C43.1884 35.7334 42.7421 34.435 42.7421 33.0984C42.7421 31.7618 43.1884 30.4635 44.0102 29.4093L45.8271 31.2365C46.3177 31.7322 46.5929 32.4015 46.5929 33.0989C46.5929 33.7963 46.3177 34.4655 45.8271 34.9612V34.9584ZM37.3277 37.3162C37.1724 37.4732 37.0852 37.6851 37.0852 37.9059C37.0852 38.1267 37.1724 38.3387 37.3277 38.4956C37.4045 38.5731 37.4958 38.6347 37.5964 38.6767C37.6971 38.7187 37.8051 38.7403 37.9141 38.7403C38.0232 38.7403 38.1312 38.7187 38.2319 38.6767C38.3325 38.6347 38.4238 38.5731 38.5006 38.4956C38.6564 38.3389 38.7439 38.1269 38.7439 37.9059C38.7439 37.6849 38.6564 37.4729 38.5006 37.3162C38.4235 37.2391 38.332 37.178 38.2313 37.1364C38.1305 37.0947 38.0226 37.0735 37.9136 37.0737C37.8046 37.074 37.6967 37.0958 37.5962 37.1379C37.4956 37.18 37.4044 37.2416 37.3277 37.319V37.3162ZM28.6024 21.9637L28.189 21.5484C28.0576 21.4156 27.8788 21.3405 27.692 21.3395C27.5052 21.3386 27.3257 21.4118 27.1929 21.5433C27.0601 21.6747 26.985 21.8534 26.984 22.0402C26.9831 22.227 27.0563 22.4066 27.1877 22.5393L28.1487 23.505L28.5556 23.9147C28.7746 24.1358 28.9269 24.4143 28.9949 24.7181C29.0628 25.0219 29.0438 25.3387 28.9399 25.6322L26.5315 23.2106C26.4668 23.1433 26.3893 23.0896 26.3036 23.0525C26.2179 23.0155 26.1257 22.9959 26.0324 22.9949C25.939 22.9938 25.8464 23.0114 25.7599 23.0466C25.6734 23.0817 25.5948 23.1337 25.5287 23.1996C25.4625 23.2655 25.4101 23.3438 25.3745 23.4301C25.339 23.5165 25.321 23.609 25.3216 23.7023C25.3221 23.7957 25.3413 23.888 25.3779 23.9739C25.4146 24.0597 25.4679 24.1374 25.5349 24.2025L27.9509 26.6325C27.6605 26.7377 27.346 26.7576 27.0446 26.6898C26.7433 26.622 26.4676 26.4694 26.2502 26.25L24.8815 24.8728C24.87 24.8608 24.8578 24.8496 24.8449 24.839C24.8404 24.8342 24.8354 24.8298 24.8299 24.8259C24.814 24.8129 24.7974 24.8007 24.7802 24.7893L24.7484 24.7687L24.7165 24.75L24.6884 24.7368L24.6546 24.7209L24.6284 24.7115L24.5899 24.6975L24.5665 24.6918L24.5234 24.6815H24.4999L24.4559 24.675C24.4324 24.675 24.4099 24.675 24.3874 24.675H24.3752H24.3509H24.3134L24.2787 24.6797L24.2449 24.6853L24.2102 24.6937L24.1784 24.7022L24.1446 24.7143L24.1137 24.7265L24.0827 24.7406L24.0518 24.7556L24.0218 24.7734L23.9927 24.7922L23.9646 24.8128L23.9384 24.8334L23.9093 24.8587C23.9029 24.8639 23.897 24.8695 23.8915 24.8756H23.8868C23.8776 24.8848 23.8688 24.8945 23.8606 24.9047C23.8532 24.912 23.8463 24.9199 23.8399 24.9281C23.8325 24.9368 23.8256 24.9458 23.8193 24.9553L23.7987 24.9834C23.794 24.9918 23.7893 25.0003 23.7837 25.0087L23.764 25.0425L23.7518 25.0687C23.7462 25.0809 23.7406 25.0922 23.7359 25.1043C23.7312 25.1165 23.7274 25.1278 23.7237 25.139C23.7199 25.1503 23.7162 25.1587 23.7134 25.1681C23.7106 25.1775 23.7068 25.1934 23.704 25.2056C23.7012 25.2178 23.6984 25.2253 23.6965 25.2347C23.6946 25.244 23.6965 25.2581 23.6918 25.2693C23.6871 25.2806 23.6918 25.2918 23.6918 25.304C23.6918 25.3162 23.6918 25.3247 23.6918 25.335C23.6918 25.3453 23.6918 25.3603 23.6918 25.3734V25.3809L23.7856 31.2318C23.7885 31.4162 23.8638 31.592 23.9951 31.7214C24.1264 31.8509 24.3034 31.9235 24.4877 31.9237H24.4999C24.6863 31.9205 24.8637 31.8435 24.9932 31.7095C25.1228 31.5756 25.1939 31.3957 25.1909 31.2093L25.1243 27.1012L25.2612 27.24C25.7441 27.7268 26.3779 28.0356 27.0589 28.116C27.74 28.1964 28.4282 28.0436 29.0112 27.6825L29.4612 28.1353C29.5927 28.2676 29.7714 28.3422 29.9579 28.3427C30.1445 28.3432 30.3236 28.2696 30.4559 28.1381C30.5881 28.0066 30.6627 27.8279 30.6633 27.6413C30.6638 27.4548 30.5902 27.2757 30.4587 27.1434L30.0031 26.6859C30.1793 26.393 30.3051 26.0726 30.3752 25.7381L31.1056 26.4731C31.2391 26.595 31.4144 26.6608 31.5951 26.6568C31.7759 26.6529 31.9482 26.5794 32.0762 26.4518C32.2042 26.3241 32.2781 26.1521 32.2826 25.9713C32.2871 25.7906 32.2218 25.6151 32.1002 25.4812L28.6643 22.0256L28.6024 21.9637Z" fill="#858FFF"/>
</svg>
