<svg width="49" height="49" viewBox="0 0 49 49" fill="none" xmlns="http://www.w3.org/2000/svg">
<path d="M46.7569 23.0957C46.6346 22.9572 46.4626 22.8724 46.2783 22.8596C46.0939 22.8469 45.912 22.9072 45.7717 23.0276C45.6315 23.148 45.5443 23.3187 45.529 23.5029C45.5137 23.687 45.5716 23.8698 45.69 24.0117C46.0424 24.4148 46.302 24.8905 46.4504 25.405C46.5988 25.9195 46.6324 26.4603 46.5487 26.9892C46.4081 27.8423 45.9591 28.5689 45.3478 28.9307C44.8862 29.1874 44.3553 29.2914 43.8309 29.2279C43.9553 28.4529 44.018 27.6692 44.0184 26.8842C44.0184 22.5876 42.1594 18.5133 38.7684 15.3586C39.3094 13.9536 39.5439 12.4492 39.4563 10.9462C39.3687 9.44322 38.961 7.97628 38.2606 6.64361C37.5601 5.31094 36.583 4.1433 35.3947 3.21885C34.2064 2.2944 32.8344 1.63449 31.3704 1.28329C29.9064 0.932091 28.3842 0.897712 26.9058 1.18245C25.4275 1.4672 24.027 2.06449 22.7982 2.93434C21.5694 3.80419 20.5405 4.92653 19.7806 6.22622C19.0207 7.5259 18.5472 8.97293 18.3919 10.4704C17.9841 10.5707 17.5781 10.6823 17.1788 10.8051L12.5381 7.35512C12.3825 7.23982 12.1974 7.17101 12.0043 7.15669C11.8112 7.14237 11.6179 7.18312 11.447 7.27421C11.2761 7.36531 11.1346 7.503 11.0388 7.67132C10.943 7.83964 10.897 8.03167 10.9059 8.22512L11.1609 13.7395C9 15.2798 7.20187 17.2186 5.96438 19.3692L0.576563 21.9876C0.404459 22.0722 0.259334 22.203 0.157486 22.3655C0.055638 22.5279 0.00110094 22.7156 0 22.9073L0 29.2711C0.00154841 29.5056 0.0830129 29.7326 0.230952 29.9147C0.37889 30.0967 0.584463 30.2228 0.81375 30.2723L4.52812 31.0457C5.53125 34.4526 7.7025 37.4686 10.8319 39.7814V47.9751C10.8319 48.2466 10.9396 48.5069 11.1313 48.699C11.3231 48.8911 11.5832 48.9993 11.8547 48.9998H17.1169C17.3208 49.0003 17.5202 48.9396 17.6893 48.8257C17.8585 48.7117 17.9895 48.5496 18.0656 48.3604L19.98 43.6326C22.7642 44.1071 25.6107 44.0807 28.3856 43.5548V47.9751C28.3856 48.2466 28.4933 48.5069 28.6851 48.699C28.8768 48.8911 29.137 48.9993 29.4084 48.9998H34.6584C34.8819 48.9985 35.0989 48.9247 35.2768 48.7894C35.4546 48.6542 35.5837 48.4648 35.6447 48.2498L38.22 38.9086C40.9153 36.5892 42.7369 33.727 43.5441 30.6108C43.7355 30.636 43.9284 30.6489 44.1216 30.6492C44.8031 30.6574 45.4744 30.4822 46.065 30.142C47.0437 29.5626 47.7253 28.4967 47.94 27.2189C48.0566 26.4869 48.0112 25.7383 47.8067 25.0258C47.6023 24.3134 47.2439 23.6545 46.7569 23.0957ZM22.4278 5.08825C23.3756 4.14198 24.5193 3.41504 25.7784 2.95864C27.0375 2.50225 28.3814 2.3275 29.7154 2.44671C31.0494 2.56592 32.341 2.97619 33.4992 3.64861C34.6575 4.32103 35.6542 5.23925 36.4191 6.33858C37.1841 7.43791 37.6987 8.69161 37.9267 10.0113C38.1546 11.3311 38.0905 12.6848 37.7386 13.977C37.3868 15.2693 36.7559 16.4686 35.8904 17.4907C35.0248 18.5127 33.9457 19.3325 32.7291 19.8923C31.2734 19.7474 29.8108 19.6848 28.3481 19.7048C27.2588 19.7198 26.17 19.7823 25.0819 19.8923C23.7395 19.2757 22.5661 18.3437 21.6617 17.1756C20.7574 16.0075 20.149 14.638 19.8883 13.184C19.6276 11.7299 19.7223 10.2344 20.1645 8.82491C20.6067 7.4154 21.3832 6.13374 22.4278 5.08919V5.08825ZM37.2188 37.912C37.0623 38.0443 36.9496 38.2207 36.8953 38.4183L34.3641 47.5936H29.7919V43.0861C29.7921 42.9339 29.7583 42.7836 29.693 42.6461C29.6276 42.5087 29.5324 42.3876 29.4142 42.2917C29.296 42.1958 29.1579 42.1275 29.01 42.0919C28.862 42.0563 28.7079 42.0542 28.5591 42.0858C25.7189 42.6858 22.7886 42.7231 19.9341 42.1954C19.7021 42.1511 19.4619 42.1883 19.2541 42.3007C19.0464 42.4131 18.8839 42.5939 18.7941 42.8123L16.8581 47.5936H12.2381V39.5854C12.2379 39.4241 12.1995 39.2652 12.1262 39.1215C12.0529 38.9778 11.9467 38.8535 11.8162 38.7586C8.79281 36.5667 6.71906 33.6961 5.82094 30.4476C5.77139 30.266 5.67256 30.1017 5.53539 29.9728C5.39823 29.8439 5.22807 29.7555 5.04375 29.7173L1.40625 28.9598V23.1473L6.68531 20.5814C6.87036 20.4904 7.02361 20.3456 7.125 20.1661C8.29313 18.1036 10.0256 16.237 12.135 14.7773C12.2778 14.6789 12.3931 14.5458 12.47 14.3904C12.5469 14.2351 12.583 14.0627 12.5747 13.8895L12.3516 8.96856L16.5 12.0539C16.63 12.1502 16.7809 12.2143 16.9404 12.2411C17.1 12.2678 17.2636 12.2563 17.4178 12.2076C17.7234 12.1139 18.0338 12.0201 18.3459 11.9386C18.432 14.6117 19.5364 17.1508 21.4331 19.0364C21.8542 19.4563 22.3091 19.8407 22.7934 20.1857C21.8384 20.3364 20.8897 20.5223 19.9472 20.7436C19.7794 20.7831 19.6321 20.8829 19.533 21.0239C19.434 21.1649 19.3902 21.3374 19.41 21.5086C19.4298 21.6798 19.5117 21.8378 19.6403 21.9526C19.7689 22.0673 19.9352 22.1308 20.1075 22.1311C20.1618 22.1313 20.2159 22.125 20.2687 22.1123C25.9482 20.7747 31.8608 20.7747 37.5403 22.1123C37.7214 22.154 37.9116 22.1222 38.0694 22.024C38.2272 21.9259 38.3397 21.7692 38.3823 21.5883C38.4249 21.4075 38.3942 21.2171 38.2969 21.0588C38.1995 20.9005 38.0435 20.7871 37.8628 20.7436C36.9203 20.5223 35.9716 20.3348 35.0166 20.1811C36.3033 19.2676 37.3707 18.0792 38.1413 16.702C41.0306 19.5408 42.6112 23.1248 42.6112 26.8842C42.6112 31.0411 40.6969 34.9561 37.2188 37.912ZM13.2628 20.0311C12.9473 20.0298 12.6385 20.1221 12.3756 20.2965C12.1126 20.4708 11.9073 20.7192 11.7857 21.0103C11.6641 21.3015 11.6316 21.6221 11.6923 21.9317C11.7531 22.2413 11.9044 22.5259 12.127 22.7494C12.3496 22.973 12.6336 23.1254 12.9429 23.1874C13.2522 23.2495 13.573 23.2183 13.8646 23.0979C14.1562 22.9774 14.4055 22.7732 14.5809 22.5109C14.7564 22.2487 14.85 21.9403 14.85 21.6248C14.85 21.2033 14.683 20.7989 14.3855 20.5002C14.0881 20.2015 13.6844 20.0328 13.2628 20.0311ZM27.8878 11.6236H25.5441C25.366 11.6226 25.1943 11.6897 25.0641 11.8111C25.0433 11.8279 25.0235 11.8461 25.005 11.8654C24.8754 11.9994 24.8043 12.1793 24.8073 12.3656C24.8103 12.5519 24.8871 12.7295 25.0209 12.8592L30.1603 17.8279C30.2266 17.8927 30.3049 17.9438 30.391 17.9782C30.477 18.0126 30.569 18.0296 30.6617 18.0284C30.7543 18.0271 30.8458 18.0075 30.9309 17.9707C31.0159 17.934 31.0929 17.8808 31.1573 17.8142C31.2217 17.7476 31.2724 17.6689 31.3063 17.5827C31.3402 17.4965 31.3568 17.4044 31.355 17.3118C31.3532 17.2191 31.3331 17.1278 31.2959 17.0429C31.2587 16.958 31.2051 16.8814 31.1381 16.8173L27.2166 13.0232H27.8878C28.7021 13.0221 29.4915 12.7425 30.125 12.2309C30.7585 11.7193 31.198 11.0065 31.3706 10.2107H32.2669C32.4534 10.2107 32.6322 10.1367 32.7641 10.0048C32.8959 9.87295 32.97 9.6941 32.97 9.50762C32.97 9.32114 32.8959 9.1423 32.7641 9.01044C32.6322 8.87858 32.4534 8.8045 32.2669 8.8045H31.3884C31.2865 8.25911 31.0579 7.7453 30.7209 7.3045H32.2669C32.4534 7.3045 32.6322 7.23042 32.7641 7.09856C32.8959 6.9667 32.97 6.78785 32.97 6.60137C32.97 6.41489 32.8959 6.23605 32.7641 6.10419C32.6322 5.97233 32.4534 5.89825 32.2669 5.89825H25.5403C25.3538 5.89825 25.175 5.97233 25.0431 6.10419C24.9113 6.23605 24.8372 6.41489 24.8372 6.60137C24.8372 6.78785 24.9113 6.9667 25.0431 7.09856C25.175 7.23042 25.3538 7.3045 25.5403 7.3045H27.8841C28.3412 7.30448 28.7866 7.44977 29.1558 7.71939C29.525 7.98901 29.799 8.36901 29.9381 8.8045H25.5403C25.3538 8.8045 25.175 8.87858 25.0431 9.01044C24.9113 9.1423 24.8372 9.32114 24.8372 9.50762C24.8372 9.6941 24.9113 9.87295 25.0431 10.0048C25.175 10.1367 25.3538 10.2107 25.5403 10.2107H29.9062C29.7542 10.6248 29.4787 10.9823 29.1171 11.2349C28.7556 11.4875 28.3252 11.6232 27.8841 11.6236H27.8878Z" fill="#69D8FA"/>
</svg>
