<svg width="669" height="492" viewBox="0 0 669 492" fill="none" xmlns="http://www.w3.org/2000/svg">
<path d="M3.13204 288.412C9.19248 339.987 28.0301 389.233 57.9368 431.685L120.911 387.321C98.3885 355.35 84.2019 318.263 79.6378 279.422L3.13204 288.412Z" fill="url(#paint0_linear_1_7450)"/>
<path d="M359.874 -58.3051C530.146 -31.8648 646.745 127.602 620.305 297.874C593.865 468.147 434.398 584.745 264.125 558.305C93.8532 531.865 -22.7456 372.398 3.69472 202.126C30.135 31.8534 189.602 -84.7454 359.874 -58.3051ZM275.947 482.178C404.175 502.089 524.266 414.281 544.177 286.053C564.089 157.825 476.281 37.734 348.053 17.8224C219.825 -2.08917 99.7339 85.7187 79.8223 213.947C59.9107 342.175 147.719 462.266 275.947 482.178Z" fill="url(#paint1_linear_1_7450)"/>
<path d="M476.387 -15.1808C427.265 -45.632 370.65 -61.8405 312.855 -61.9988C255.06 -62.1572 198.357 -46.2593 149.069 -16.0777C99.7802 14.1038 59.8437 57.3826 33.7123 108.933C7.58091 160.483 -3.71825 218.278 1.07474 275.874L77.8415 269.486C74.2319 226.11 82.7414 182.585 102.421 143.762C122.101 104.939 152.177 72.3461 189.296 49.6163C226.415 26.8865 269.118 14.9138 312.644 15.033C356.169 15.1523 398.806 27.3589 435.8 50.2918L476.387 -15.1808Z" fill="url(#paint2_linear_1_7450)"/>
<defs>
<linearGradient id="paint0_linear_1_7450" x1="895.121" y1="316.913" x2="-759.107" y2="-304.993" gradientUnits="userSpaceOnUse">
<stop stop-color="#CED6EA"/>
<stop offset="1" stop-color="white"/>
</linearGradient>
<linearGradient id="paint1_linear_1_7450" x1="465.467" y1="-315.267" x2="-402.905" y2="1223.94" gradientUnits="userSpaceOnUse">
<stop stop-color="white"/>
<stop offset="1" stop-color="#CED6EA"/>
</linearGradient>
<linearGradient id="paint2_linear_1_7450" x1="894.121" y1="314.913" x2="-760.107" y2="-306.993" gradientUnits="userSpaceOnUse">
<stop stop-color="#CED6EA"/>
<stop offset="1" stop-color="white"/>
</linearGradient>
</defs>
</svg>
