<svg width="531" height="345" viewBox="0 0 531 345" fill="none" xmlns="http://www.w3.org/2000/svg">
<circle cx="458" cy="73" r="73" fill="url(#paint0_linear_101_2528)"/>
<g clip-path="url(#clip0_101_2528)">
<path d="M401.264 253.275C401.264 253.275 405.939 253.105 409.368 252.115C412.902 251.094 415.574 247.482 418.386 247.692C424.278 248.13 435.485 246.294 434.373 248.377C433.261 250.46 426.5 249.924 425.702 251.159C424.904 252.393 435.336 255.547 438.355 256.106C441.374 256.664 452.643 257.933 452.255 259.435C451.868 260.936 436.844 267.96 427.973 266.085C419.102 264.209 403.163 261.005 403.163 261.005L401.264 253.275Z" fill="#FFB27D"/>
<path d="M278.017 27.8463C264.972 21.0568 254.516 25.323 254.516 25.323C214.593 20.6203 202.948 67.3186 203.488 83.3872C204.022 99.4523 207.998 112.27 189.128 128.912C166.64 148.746 171.871 174.956 183.533 184.242C188.586 188.269 195.199 191.304 202.203 193.589C210.866 196.419 220.122 198.103 227.747 199.103C231.953 199.655 235.659 200 238.502 200.211C238.502 200.211 238.502 200.211 238.505 200.211C238.968 200.245 239.4 200.276 239.814 200.303H239.818C242.688 200.497 244.387 200.538 244.387 200.538C244.714 183.286 252.306 174.468 261.806 170.482C261.809 170.482 261.813 170.482 261.816 170.478C264.019 169.55 266.324 168.885 268.667 168.435C268.667 168.435 268.667 168.435 268.671 168.435C275.158 167.187 281.914 167.59 287.52 168.684C295.525 170.25 301.182 173.223 300.352 174.826C305 175.944 309.09 176.401 312.667 176.268C317.893 176.081 322.027 174.635 325.207 172.176C354.454 149.553 303.096 40.8936 278.017 27.8463Z" fill="#29403B"/>
<path d="M280.818 134.74C280.818 134.74 310.931 139.051 321.358 153.185C334.531 171.041 347.49 221.386 356.919 230.397C366.349 239.408 405.764 252.853 405.764 252.853C405.764 252.853 407.219 261.523 402.698 264.171C395.042 268.656 356.387 266.705 333.96 254.623C312.438 243.029 297.195 217.674 297.195 217.674L280.818 134.74Z" fill="#90D0C5"/>
<path d="M118.894 206.567C118.894 206.567 112.602 194.764 106.741 194.012C100.88 193.26 90.2651 189.214 90.9397 191.477C91.6137 193.74 98.3461 194.572 98.8815 195.942C99.4163 197.311 88.5667 198.31 85.4977 198.252C82.4286 198.193 75.2608 197.323 75.3405 198.872C75.4202 200.421 87.5863 207.912 96.6519 207.853C105.717 207.794 116.511 212.297 116.511 212.297L118.894 206.567Z" fill="#FFB27D"/>
<path d="M224.093 219.743C224.093 219.743 219.417 227.261 211.407 235.658C201.754 245.764 187.25 257.134 170.24 258.095C162.115 258.554 154.431 256.113 147.513 252.248C147.494 252.24 147.488 252.239 147.488 252.239C127.919 241.313 114.472 219.05 114.472 219.05C111.765 208.894 116.714 202.977 116.714 202.977C116.714 202.977 158.468 215.475 162.672 214.172C179.6 208.924 191.433 164.489 201.443 150.292C209.839 138.384 239.136 134.741 239.136 134.741L224.093 219.743Z" fill="#90D0C5"/>
<path d="M211.408 235.658C201.755 245.764 187.252 257.134 170.241 258.095C162.117 258.554 154.432 256.113 147.514 252.248C148.302 252.425 168.435 256.795 177.864 242.969C187.482 228.863 198.561 206.082 210.15 215.062C215.149 218.938 214.153 227.351 211.408 235.658Z" fill="#6DB5A5"/>
<path d="M315.64 229.112C314.833 235.537 313.62 242.374 311.923 249.627C309.254 261.038 304.644 265.526 302.638 266.998C302.025 267.449 301.655 267.619 301.655 267.619L265.999 276.383L253.463 279.462L213.93 267.619C213.93 267.619 195.924 217.211 203.156 188.835C210.384 160.46 215.543 146.952 215.543 146.952C215.543 146.952 241.25 136.456 296.627 145.762C296.626 145.762 323.007 170.471 315.64 229.112Z" fill="#90D0C5"/>
<path d="M272.503 343.337C256.829 343.331 240.845 343.324 224.811 343.313C215.757 343.307 206.688 343.303 197.648 343.297C201.697 323.266 210.538 293.925 214.481 281.205C215.695 277.283 216.447 274.94 216.447 274.94H269.419C269.419 274.94 269.419 275.145 269.423 275.541V275.725C269.433 277.103 269.467 280.264 269.569 284.922C269.834 296.53 270.552 317.451 272.503 343.337Z" fill="#29403B"/>
<path d="M332.311 343.354C313.295 343.351 293.163 343.344 272.504 343.337C256.83 343.331 240.847 343.323 224.812 343.313C219.994 332.169 225.418 301.693 228.44 287.111C228.61 286.293 228.77 285.522 228.923 284.81C228.974 284.574 229.025 284.342 229.073 284.117C229.746 280.997 230.195 279.132 230.195 279.132L238.011 278.453L240.823 278.208L247.378 277.638L268.275 275.824H268.285L269.424 275.725L299.395 273.12C299.395 273.12 301.055 275.35 303.625 279.118C311.965 291.336 329.914 319.708 332.043 340.473C332.134 341.363 332.222 342.325 332.311 343.354Z" fill="#29403B"/>
<path d="M303.627 225.741C308.431 234.462 314.174 238.746 314.174 238.746C312.779 258.15 304.647 265.525 302.641 266.998L301.655 267.288L270.629 270.299C270.629 270.299 284.389 265.467 287.109 256.635C289.83 247.803 285.431 236.55 289.036 222.795C292.209 210.688 295.212 210.466 303.627 225.741Z" fill="#6DB5A5"/>
<path d="M213.319 265.507C213.319 265.507 221.179 271.742 236.792 272.058C255.441 272.434 301.654 267.289 301.654 267.289C301.654 267.289 303.707 273.043 303.623 279.119C303.623 279.119 247.183 293.397 214.481 281.204C214.481 281.204 210.263 273.245 213.319 265.507Z" fill="#38524C"/>
<path d="M240.819 278.208C240.795 277.283 240.656 276.397 240.415 275.554V275.551C240.357 275.343 240.292 275.142 240.218 274.94C239.85 273.883 239.317 272.915 238.653 272.079C237.096 270.102 234.832 268.857 232.316 268.857C230.3 268.857 228.447 269.658 226.988 270.995C226.842 271.125 226.703 271.261 226.566 271.404C225.632 272.376 224.891 273.584 224.415 274.94C224.02 276.049 223.805 277.256 223.805 278.518C223.805 280.646 224.415 282.613 225.448 284.212C226.227 285.423 227.253 286.422 228.437 287.111C229.6 287.793 230.919 288.175 232.316 288.175C234.458 288.175 236.414 287.278 237.909 285.791C239.697 284.022 240.826 281.417 240.826 278.518C240.826 278.415 240.826 278.31 240.819 278.208ZM238.007 278.518C238.007 282.088 235.709 285.031 232.795 285.321H232.782C232.625 285.342 232.472 285.348 232.316 285.348C231.748 285.348 231.201 285.249 230.684 285.062H230.677C230.092 284.85 229.555 284.53 229.069 284.118C227.594 282.883 226.628 280.833 226.628 278.518C226.628 277.205 226.937 275.981 227.474 274.941C228.035 273.843 228.851 272.949 229.82 272.38C230.388 272.042 231.014 271.817 231.67 271.728C231.881 271.698 232.098 271.684 232.316 271.684C232.823 271.684 233.319 271.766 233.788 271.919C233.792 271.923 233.792 271.923 233.795 271.923C233.798 271.923 233.798 271.923 233.802 271.923C235.07 272.332 236.165 273.26 236.92 274.504V274.508C237.005 274.647 237.086 274.791 237.161 274.941C237.688 275.964 237.998 277.164 238.008 278.453V278.518H238.007Z" fill="#6DB5A5"/>
<path d="M279.448 137.328C277.343 133.361 271.312 113.191 271.356 102.718L269.567 103.018L239.469 108.082C239.469 108.082 240.154 116.13 240.174 123.712C240.174 123.775 240.174 123.839 240.175 123.901C240.212 130.486 240.089 133.728 241.405 141.887C241.998 145.568 240.745 171.992 253.346 170.094C257.841 169.417 280.838 139.947 279.448 137.328Z" fill="#FFB27D"/>
<path d="M239.469 108.082C239.469 108.082 240.154 116.131 240.175 123.712C257.017 123.31 265.919 110.255 269.567 103.019L239.469 108.082Z" fill="#E8945B"/>
<path d="M233.842 117.525C233.842 117.525 273.69 118.184 273.717 93.2885C273.745 68.3931 278.906 51.7116 253.465 50.2381C228.024 48.7645 223.071 58.2587 221.046 66.5661C219.022 74.8735 223.477 116.711 233.842 117.525Z" fill="#FFB27D"/>
<path d="M235.316 49.6278C235.316 49.6278 246.226 78.8349 262.97 83.1533C279.714 87.4719 286.977 82.9723 286.977 82.9723C286.977 82.9723 274.133 72.7392 271.468 54.8765C271.468 54.8765 243.545 35.7266 235.316 49.6278Z" fill="#29403B"/>
<path d="M238.021 51.9991C238.021 51.9991 229.93 55.0328 226.6 60.9504C223.344 66.7378 220.57 74.4025 221.214 83.8057C221.214 83.8057 212.994 63.9537 222.232 52.7236C232.027 40.8156 238.021 51.9991 238.021 51.9991Z" fill="#29403B"/>
<path d="M249.885 170.601C249.885 170.601 275.843 142.013 276.889 130.498C276.889 130.498 282.284 130.601 292.176 135.752C292.917 136.138 293.262 137.04 292.936 137.811C290.998 142.408 284.338 157.353 277.955 161.735C277.955 161.735 272.464 160.93 268.147 159.123C268.147 159.123 270.868 163.707 273.033 166.446C273.033 166.446 261.075 173.166 249.885 170.601Z" fill="#6DB5A5"/>
<path d="M240.223 130.021C240.223 130.021 240.821 148.411 249.888 170.601C249.888 170.601 237.601 168.178 231.326 159.446C231.326 159.446 233.31 154.788 234.981 153.716C234.981 153.716 231.295 152.222 228.966 154.372C228.966 154.372 226.5 138.158 228.385 135.318C229.167 134.14 238.307 129.509 240.223 130.021Z" fill="#6DB5A5"/>
<path d="M249.889 172.566C250.971 172.566 251.848 171.686 251.848 170.601C251.848 169.515 250.971 168.635 249.889 168.635C248.807 168.635 247.929 169.515 247.929 170.601C247.929 171.686 248.807 172.566 249.889 172.566Z" fill="#38524C"/>
<path d="M239.292 200.377C240.374 200.377 241.252 199.496 241.252 198.411C241.252 197.325 240.374 196.446 239.292 196.446C238.21 196.446 237.333 197.325 237.333 198.411C237.333 199.496 238.21 200.377 239.292 200.377Z" fill="#38524C"/>
<path d="M237.161 233.044C238.243 233.044 239.12 232.165 239.12 231.079C239.12 229.994 238.243 229.114 237.161 229.114C236.078 229.114 235.2 229.994 235.2 231.079C235.2 232.165 236.078 233.044 237.161 233.044Z" fill="#38524C"/>
<path d="M397.232 213.346V222.223C397.232 223.923 395.845 225.313 394.151 225.313H387.808C386.115 225.313 384.728 223.923 384.728 222.223V213.346C384.728 211.646 386.115 210.256 387.808 210.256H394.151C395.845 210.256 397.232 211.646 397.232 213.346Z" fill="#ED7D2B"/>
<path d="M397.232 213.346V218.292C397.232 219.99 395.845 221.382 394.151 221.382H387.808C386.115 221.382 384.728 219.99 384.728 218.292V213.346C384.728 211.646 386.115 210.256 387.808 210.256H394.151C395.845 210.256 397.232 211.646 397.232 213.346Z" fill="#F99746"/>
<path d="M467.505 217.784C467.505 222.327 466.579 226.663 464.905 230.611C459.887 242.458 448.154 250.82 434.567 250.82H425.15C413.128 250.82 402.557 244.274 396.805 234.56C393.89 229.636 392.212 223.897 392.212 217.784C392.212 213.241 393.138 208.906 394.811 204.957C399.828 193.111 411.563 184.749 425.15 184.749H434.566C446.922 184.749 457.745 191.663 463.378 201.826C466.006 206.564 467.505 212.007 467.505 217.784Z" fill="#ED7D2B"/>
<path d="M440.139 236.795L437.067 256.804C436.659 258.354 437.825 259.872 439.423 259.872H447.498C449.228 259.872 450.814 258.902 451.607 257.359L464.156 232.254L440.139 236.795Z" fill="#ED7D2B"/>
<path d="M421.757 237.139L424.222 256.804C424.63 258.354 423.464 259.872 421.866 259.872H413.791C412.06 259.872 410.475 258.902 409.683 257.359L396.806 234.56L421.757 237.139Z" fill="#ED7D2B"/>
<path d="M475.353 226.764C475.168 226.764 474.982 226.74 474.797 226.691C473.366 226.314 472.546 224.599 472.659 222.217C472.77 219.882 473.745 217.417 475.333 215.453C476.036 214.584 476.848 213.823 477.754 213.18C477.327 212.473 476.75 211.795 475.974 211.211C474.654 210.218 473.291 209.932 471.806 210.337C467.814 211.424 464.431 217.146 464.157 217.79C464.032 218.133 463.657 218.317 463.308 218.201C462.954 218.083 462.763 217.699 462.881 217.344C463 216.987 463.989 215.279 465.368 213.588C467.772 210.639 469.866 209.522 471.199 209.104C473.177 208.484 475.056 208.829 476.783 210.128C477.64 210.773 478.349 211.555 478.898 212.457C480.267 211.692 481.811 211.16 483.489 210.885C483.858 210.824 484.204 211.074 484.265 211.443C484.325 211.812 484.076 212.16 483.708 212.221C482.168 212.474 480.757 212.962 479.511 213.666C479.893 214.592 480.137 215.613 480.232 216.715C480.428 218.982 479.974 221.457 478.986 223.505C477.981 225.591 476.656 226.764 475.353 226.764ZM478.353 214.418C477.618 214.962 476.958 215.593 476.382 216.307C474.971 218.051 474.105 220.228 474.008 222.281C473.931 223.91 474.397 225.185 475.141 225.382C475.894 225.58 476.975 224.567 477.771 222.915C478.643 221.107 479.06 218.833 478.887 216.832C478.825 216.113 478.674 215.272 478.353 214.418ZM464.163 217.772C464.161 217.777 464.16 217.78 464.158 217.784C464.16 217.78 464.161 217.776 464.163 217.772Z" fill="#ED7D2B"/>
<path d="M463.379 201.826C464.16 205.636 463.545 211.082 462.546 213.966C455.899 233.141 440.274 236.603 424.303 238.061C412.946 239.098 396.805 234.56 396.805 234.56C393.89 229.635 392.212 223.897 392.212 217.784C392.212 213.242 393.138 208.906 394.811 204.957C399.828 193.11 411.563 184.748 425.15 184.748H434.566C446.922 184.749 457.746 191.664 463.379 201.826Z" fill="#F99746"/>
<path d="M421.266 193.025H408.311C407.004 193.025 405.945 192.23 405.945 191.248V173.507C405.945 173.205 406.04 172.928 406.204 172.69C406.838 171.768 408.503 171.387 409.742 172.091C414.66 174.888 422.719 180.965 423.626 191.128C423.718 192.154 422.634 193.025 421.266 193.025Z" fill="#F99746"/>
<path d="M408.837 193.025H408.311C407.004 193.025 405.945 192.23 405.945 191.248V173.507C405.945 173.205 406.04 172.929 406.204 172.69C406.259 172.738 406.314 172.79 406.364 172.847C409.178 175.989 413.235 182.162 412.092 190.809C411.926 192.066 410.519 193.025 408.837 193.025Z" fill="#ED7D2B"/>
<path d="M403.94 206.821C405.006 206.821 405.87 205.954 405.87 204.885C405.87 203.816 405.006 202.949 403.94 202.949C402.874 202.949 402.01 203.816 402.01 204.885C402.01 205.954 402.874 206.821 403.94 206.821Z" fill="#29403B"/>
<path opacity="0.5" d="M360.55 297.583C360.55 297.583 364.96 303.81 369.004 303.897C373.047 303.984 379.199 301.01 379.199 301.01C379.199 301.01 382.911 292.712 380.393 289.465C380.393 289.465 377.868 288.354 375.227 290.317C374.774 290.655 374.314 291.081 373.86 291.63C373.22 292.402 372.5 292.843 371.738 293.073C368.853 293.954 365.428 291.882 364.148 293.882C363.399 295.043 362.587 295.916 361.917 296.53C361.126 297.237 360.55 297.583 360.55 297.583Z" fill="#3FD1B2"/>
<path opacity="0.5" d="M418.047 342.503C418.047 342.503 402.459 304.619 374.4 303.897C374.4 303.897 348.499 306.784 347.06 342.503H418.047Z" fill="#3FD1B2"/>
<path d="M382.089 305.054C382.089 305.054 370.842 307.562 367.372 306.088C367.372 306.088 366.848 301.371 371.585 302.033C374.826 302.485 376.938 300.923 378.18 300.289C379.937 299.392 382.556 303.081 382.089 305.054Z" fill="#90D0C5"/>
<path opacity="0.5" d="M372.298 297.945C373.017 298.486 375.226 290.317 375.226 290.317C374.773 290.656 374.312 291.082 373.859 291.631C373.219 292.403 372.499 292.843 371.737 293.073C371.73 293.312 371.6 297.418 372.298 297.945Z" fill="#3FD1B2"/>
<path opacity="0.5" d="M361.917 296.53C362.075 296.623 367.278 299.748 367.982 299.748C368.702 299.748 364.148 293.881 364.148 293.881C363.399 295.043 362.586 295.916 361.917 296.53Z" fill="#3FD1B2"/>
<path opacity="0.5" d="M402.818 331.92C403.107 331.673 391.786 315.202 388.669 315.082C385.551 314.962 378.546 318.69 373.475 319.171C368.404 319.652 363.488 318.209 362.528 321.216C361.569 324.223 358.931 334.882 360.549 336.588C362.168 338.294 396.594 337.253 402.818 331.92Z" fill="#3FD1B2"/>
<path d="M151.876 237.897C151.876 237.897 148.236 243.038 144.898 243.109C141.56 243.181 136.482 240.727 136.482 240.727C136.482 240.727 133.417 233.876 135.496 231.196C135.496 231.196 137.581 230.278 139.76 231.898C140.135 232.178 140.514 232.53 140.888 232.983C141.417 233.62 142.011 233.983 142.641 234.173C145.022 234.901 147.85 233.191 148.907 234.841C149.524 235.8 150.195 236.521 150.748 237.027C151.401 237.611 151.876 237.897 151.876 237.897Z" fill="#FFEDDC"/>
<path d="M104.412 274.978C104.412 274.978 117.28 243.704 140.444 243.109C140.444 243.109 161.825 245.492 163.013 274.978H104.412Z" fill="#FFEDDC"/>
<path d="M134.102 244.064C134.102 244.064 143.386 246.134 146.251 244.917C146.251 244.917 146.684 241.023 142.774 241.57C140.098 241.943 138.355 240.653 137.33 240.13C135.879 239.39 133.716 242.434 134.102 244.064Z" fill="#DB6A1D"/>
<path d="M142.179 238.194C141.586 238.641 139.762 231.898 139.762 231.898C140.137 232.178 140.516 232.529 140.89 232.982C141.419 233.62 142.013 233.983 142.643 234.173C142.649 234.37 142.755 237.76 142.179 238.194Z" fill="#E5C1A1"/>
<path d="M150.749 237.027C150.618 237.105 146.324 239.684 145.742 239.684C145.148 239.684 148.908 234.841 148.908 234.841C149.525 235.8 150.196 236.52 150.749 237.027Z" fill="#E5C1A1"/>
<path d="M116.981 266.241C116.743 266.037 126.088 252.441 128.662 252.342C131.235 252.242 137.018 255.32 141.204 255.717C145.391 256.115 149.449 254.923 150.241 257.405C151.033 259.887 153.21 268.687 151.874 270.095C150.538 271.503 122.12 270.644 116.981 266.241Z" fill="#F9DDBF"/>
<path d="M169.288 337.412V340.897C169.288 341.174 169.187 341.432 169.014 341.647C168.833 341.871 168.572 342.049 168.267 342.148C168.173 342.182 168.076 342.204 167.974 342.219C167.882 342.233 167.789 342.239 167.692 342.239H101.796C100.999 342.239 100.335 341.741 100.218 341.097C100.211 341.054 100.205 341.01 100.203 340.966C100.203 340.942 100.201 340.92 100.201 340.897V337.412C100.201 337.389 100.203 337.367 100.203 337.344C100.205 337.299 100.211 337.255 100.218 337.211C100.335 336.568 101 336.07 101.796 336.07H167.693C167.789 336.07 167.882 336.076 167.975 336.09C168.076 336.105 168.173 336.13 168.267 336.161C168.572 336.26 168.833 336.438 169.014 336.663C169.187 336.877 169.288 337.135 169.288 337.412Z" fill="#FFB93E"/>
<path d="M136.929 342.239H101.625C100.971 342.239 100.42 341.815 100.256 341.245C100.24 341.196 100.227 341.147 100.218 341.097C100.211 341.054 100.205 341.01 100.203 340.965C100.203 340.942 100.201 340.92 100.201 340.897V337.411C100.201 337.389 100.203 337.366 100.203 337.343C100.205 337.298 100.211 337.254 100.218 337.211C100.227 337.161 100.24 337.112 100.256 337.063C100.42 336.494 100.971 336.069 101.625 336.069H132.595C133.088 337.887 134.241 340.397 136.929 342.239Z" fill="#FFA412"/>
<path d="M161.268 336.07H160.519V342.239H161.268V336.07Z" fill="#FFA412"/>
<path d="M158.736 336.07H157.987V342.239H158.736V336.07Z" fill="#FFA412"/>
<path d="M155.694 336.07H154.945V342.239H155.694V336.07Z" fill="#FFA412"/>
<path d="M151.034 336.07H150.285V342.239H151.034V336.07Z" fill="#FFA412"/>
<path d="M146.106 336.07H145.357V342.239H146.106V336.07Z" fill="#FFA412"/>
<path d="M138.552 336.07H137.803V342.239H138.552V336.07Z" fill="#FFA412"/>
<path d="M131.479 336.07H130.73V342.239H131.479V336.07Z" fill="#FFA412"/>
<path d="M125.16 336.07H124.411V342.239H125.16V336.07Z" fill="#FFA412"/>
<path d="M163.685 336.07H162.936V342.239H163.685V336.07Z" fill="#FFA412"/>
<path d="M165.274 336.07H164.525V342.239H165.274V336.07Z" fill="#FFA412"/>
<path d="M166.817 336.07H166.068V342.239H166.817V336.07Z" fill="#FFA412"/>
<path d="M167.974 336.091V342.218C167.882 342.232 167.789 342.24 167.693 342.24H167.225V336.07H167.693C167.789 336.07 167.882 336.077 167.974 336.091Z" fill="#FFA412"/>
<path d="M169.014 336.662V341.647C168.833 341.872 168.572 342.049 168.267 342.149V336.16C168.572 336.26 168.833 336.437 169.014 336.662Z" fill="#FFA412"/>
<path d="M162.242 331.242V334.726C162.242 335.004 162.141 335.263 161.97 335.477C161.925 335.533 161.874 335.587 161.82 335.636C161.655 335.785 161.451 335.905 161.221 335.979C161.128 336.01 161.029 336.032 160.929 336.047C160.838 336.062 160.743 336.07 160.649 336.07H94.7503C93.9562 336.07 93.2911 335.571 93.1733 334.926C93.1673 334.883 93.1614 334.839 93.159 334.796C93.1572 334.773 93.1572 334.75 93.1572 334.726V331.242C93.1572 331.22 93.1572 331.195 93.159 331.172C93.1614 331.129 93.1673 331.086 93.1733 331.043C93.2911 330.398 93.9562 329.898 94.7503 329.898H160.649C160.69 329.898 160.733 329.901 160.774 329.904C160.791 329.904 160.805 329.907 160.819 329.909C160.822 329.907 160.826 329.907 160.828 329.909C160.846 329.909 160.867 329.911 160.887 329.915C160.902 329.917 160.914 329.919 160.929 329.921C161.029 329.935 161.128 329.958 161.221 329.989C161.276 330.007 161.33 330.028 161.382 330.051H161.384C161.419 330.068 161.454 330.084 161.487 330.1C161.505 330.111 161.526 330.123 161.544 330.134C161.563 330.144 161.582 330.154 161.598 330.167C161.668 330.208 161.731 330.256 161.792 330.309C161.812 330.325 161.828 330.344 161.847 330.361C161.859 330.371 161.869 330.381 161.88 330.392C161.886 330.398 161.892 330.404 161.896 330.411L161.911 330.425C161.931 330.446 161.952 330.469 161.97 330.493C162.141 330.708 162.242 330.964 162.242 331.242Z" fill="#FFB93E"/>
<path d="M129.884 336.07H94.5796C93.9252 336.07 93.3756 335.644 93.212 335.074C93.1965 335.025 93.1828 334.976 93.1739 334.926C93.1673 334.883 93.1614 334.839 93.1596 334.796C93.1572 334.773 93.1572 334.75 93.1572 334.726V331.242C93.1572 331.22 93.1572 331.195 93.1596 331.172C93.1614 331.129 93.1673 331.086 93.1739 331.043C93.1828 330.992 93.1965 330.944 93.212 330.895C93.3756 330.324 93.9252 329.898 94.5796 329.898H125.548C125.561 329.95 125.575 330 125.592 330.051C126.108 331.854 127.269 334.279 129.884 336.07Z" fill="#FFA412"/>
<path d="M154.224 329.899H153.475V336.069H154.224V329.899Z" fill="#FFA412"/>
<path d="M151.688 329.899H150.939V336.069H151.688V329.899Z" fill="#FFA412"/>
<path d="M148.646 329.899H147.897V336.069H148.646V329.899Z" fill="#FFA412"/>
<path d="M143.986 329.899H143.237V336.069H143.986V329.899Z" fill="#FFA412"/>
<path d="M139.058 329.899H138.309V336.069H139.058V329.899Z" fill="#FFA412"/>
<path d="M131.508 329.899H130.759V336.069H131.508V329.899Z" fill="#FFA412"/>
<path d="M124.432 329.899H123.683V336.069H124.432V329.899Z" fill="#FFA412"/>
<path d="M118.117 329.899H117.368V336.069H118.117V329.899Z" fill="#FFA412"/>
<path d="M156.637 329.899H155.888V336.069H156.637V329.899Z" fill="#FFA412"/>
<path d="M158.234 329.899H157.485V336.069H158.234V329.899Z" fill="#FFA412"/>
<path d="M159.769 329.899H159.021V336.069H159.769V329.899Z" fill="#FFA412"/>
<path d="M160.931 329.921V336.047C160.839 336.062 160.745 336.069 160.65 336.069H160.181V329.899H160.65C160.745 329.899 160.839 329.906 160.931 329.921Z" fill="#FFA412"/>
<path d="M161.967 330.492V335.476C161.786 335.702 161.525 335.879 161.219 335.978V329.989C161.525 330.089 161.786 330.266 161.967 330.492Z" fill="#FFA412"/>
<path d="M165.647 325.224V328.709C165.647 328.986 165.546 329.244 165.373 329.458C165.192 329.684 164.933 329.861 164.626 329.96C164.533 329.991 164.434 330.014 164.333 330.03C164.243 330.043 164.148 330.051 164.053 330.051H98.1549C97.8914 330.051 97.6403 329.995 97.4202 329.899C96.9835 329.706 96.6623 329.347 96.5802 328.924C96.5743 328.895 96.5719 328.866 96.5677 328.837C96.5659 328.819 96.5636 328.798 96.5636 328.777C96.5618 328.754 96.5618 328.732 96.5618 328.709V325.224C96.5618 325.201 96.5618 325.178 96.5636 325.156C96.5659 325.112 96.5701 325.067 96.5778 325.026C96.6956 324.38 97.3601 323.881 98.1549 323.881H164.053C164.148 323.881 164.243 323.888 164.333 323.902C164.434 323.917 164.533 323.94 164.626 323.97C164.933 324.072 165.192 324.249 165.373 324.474C165.546 324.689 165.647 324.947 165.647 325.224Z" fill="#FFB93E"/>
<path d="M133.289 330.051H97.9842C97.7474 330.051 97.5249 329.995 97.3298 329.899C96.9383 329.706 96.6522 329.347 96.5802 328.924C96.5743 328.895 96.5719 328.866 96.5677 328.837C96.5659 328.819 96.5636 328.798 96.5636 328.777C96.5618 328.754 96.5618 328.732 96.5618 328.709V325.224C96.5618 325.201 96.5618 325.178 96.5636 325.156C96.5659 325.112 96.5701 325.067 96.5778 325.026C96.5868 324.977 96.5998 324.928 96.6147 324.881C96.7759 324.308 97.328 323.881 97.9842 323.881H128.953C129.435 325.647 130.538 328.073 133.072 329.898C133.142 329.95 133.214 330.002 133.289 330.051Z" fill="#FFA412"/>
<path d="M157.629 323.881H156.88V330.051H157.629V323.881Z" fill="#FFA412"/>
<path d="M155.093 323.881H154.344V330.051H155.093V323.881Z" fill="#FFA412"/>
<path d="M152.055 323.881H151.306V330.051H152.055V323.881Z" fill="#FFA412"/>
<path d="M147.391 323.881H146.642V330.051H147.391V323.881Z" fill="#FFA412"/>
<path d="M142.467 323.881H141.718V330.051H142.467V323.881Z" fill="#FFA412"/>
<path d="M134.913 323.881H134.164V330.051H134.913V323.881Z" fill="#FFA412"/>
<path d="M127.84 323.881H127.091V330.051H127.84V323.881Z" fill="#FFA412"/>
<path d="M121.521 323.881H120.772V330.051H121.521V323.881Z" fill="#FFA412"/>
<path d="M160.041 323.881H159.292V330.051H160.041V323.881Z" fill="#FFA412"/>
<path d="M161.638 323.881H160.889V330.051H161.638V323.881Z" fill="#FFA412"/>
<path d="M163.178 323.881H162.429V330.051H163.178V323.881Z" fill="#FFA412"/>
<path d="M164.335 323.903V330.03C164.243 330.044 164.15 330.051 164.054 330.051H163.586V323.881H164.054C164.15 323.881 164.243 323.889 164.335 323.903Z" fill="#FFA412"/>
<path d="M165.372 324.474V329.458C165.19 329.684 164.929 329.861 164.623 329.961V323.971C164.929 324.071 165.19 324.248 165.372 324.474Z" fill="#FFA412"/>
<path d="M167.224 319.055V322.538C167.224 322.817 167.123 323.073 166.95 323.287C166.927 323.317 166.902 323.343 166.878 323.37C166.753 323.505 166.598 323.618 166.423 323.703C166.353 323.735 166.279 323.766 166.202 323.792C166.108 323.823 166.011 323.845 165.91 323.86C165.865 323.866 165.82 323.872 165.772 323.876C165.725 323.88 165.676 323.882 165.628 323.882H99.7315C98.935 323.882 98.2699 323.382 98.1527 322.738C98.1468 322.695 98.1408 322.651 98.1384 322.608V318.985C98.1795 318.33 98.7809 317.798 99.5424 317.721C99.6042 317.715 99.6679 317.71 99.7315 317.71H165.628C165.676 317.71 165.725 317.713 165.772 317.717C165.82 317.721 165.865 317.725 165.91 317.733C166.011 317.747 166.108 317.771 166.202 317.802C166.507 317.901 166.769 318.078 166.95 318.303C167.123 318.518 167.224 318.777 167.224 319.055Z" fill="#FFB93E"/>
<path d="M134.865 323.882H99.5608C98.9064 323.882 98.3556 323.457 98.1914 322.886C98.1759 322.838 98.1622 322.788 98.1527 322.738C98.1468 322.695 98.1408 322.652 98.1384 322.608V318.985C98.1759 318.333 98.7131 317.798 99.3919 317.722C99.4478 317.715 99.5031 317.711 99.5608 317.711H130.53C130.53 317.715 130.532 317.717 130.532 317.722C131.028 319.536 132.181 322.043 134.865 323.882Z" fill="#FFA412"/>
<path d="M159.21 317.712H158.461V323.881H159.21V317.712Z" fill="#FFA412"/>
<path d="M156.674 317.712H155.925V323.881H156.674V317.712Z" fill="#FFA412"/>
<path d="M153.632 317.712H152.883V323.881H153.632V317.712Z" fill="#FFA412"/>
<path d="M148.971 317.712H148.222V323.881H148.971V317.712Z" fill="#FFA412"/>
<path d="M144.044 317.712H143.295V323.881H144.044V317.712Z" fill="#FFA412"/>
<path d="M136.489 317.712H135.74V323.881H136.489V317.712Z" fill="#FFA412"/>
<path d="M129.417 317.712H128.668V323.881H129.417V317.712Z" fill="#FFA412"/>
<path d="M123.102 317.711H122.353V323.881H123.102V317.711Z" fill="#FFA412"/>
<path d="M161.622 317.712H160.873V323.881H161.622V317.712Z" fill="#FFA412"/>
<path d="M163.215 317.712H162.466V323.881H163.215V317.712Z" fill="#FFA412"/>
<path d="M164.751 317.712H164.002V323.881H164.751V317.712Z" fill="#FFA412"/>
<path d="M165.912 317.732V323.859C165.82 323.874 165.727 323.881 165.63 323.881H165.163V317.711H165.63C165.727 317.711 165.82 317.718 165.912 317.732Z" fill="#FFA412"/>
<path d="M166.952 318.304V323.288C166.771 323.513 166.51 323.691 166.204 323.79V317.802C166.51 317.901 166.771 318.078 166.952 318.304Z" fill="#FFA412"/>
<path d="M162.378 312.894V316.377C162.378 316.656 162.279 316.912 162.107 317.126C161.925 317.353 161.664 317.531 161.357 317.63C161.265 317.661 161.166 317.684 161.067 317.698C161.036 317.704 161.005 317.708 160.974 317.711H160.962C160.946 317.713 160.929 317.715 160.913 317.715C160.898 317.717 160.886 317.717 160.87 317.719C160.841 317.719 160.814 317.722 160.785 317.722H94.8885C94.0384 317.722 93.3382 317.154 93.2953 316.448C93.293 316.425 93.293 316.402 93.293 316.377V312.894C93.293 312.871 93.293 312.846 93.2953 312.824C93.2953 312.805 93.2971 312.787 93.2995 312.768C93.3632 312.2 93.8534 311.729 94.4952 311.593C94.5095 311.589 94.5262 311.585 94.5428 311.583C94.6535 311.562 94.7689 311.55 94.8885 311.55H160.785C160.834 311.55 160.88 311.552 160.927 311.556C160.947 311.558 160.968 311.56 160.987 311.562C160.989 311.562 160.989 311.562 160.991 311.562H160.993C161.018 311.564 161.042 311.568 161.067 311.572C161.166 311.587 161.265 311.609 161.357 311.64C161.664 311.74 161.925 311.917 162.106 312.144C162.279 312.359 162.378 312.615 162.378 312.894Z" fill="#FFB93E"/>
<path d="M130.02 317.721H94.7177C93.9581 317.721 93.334 317.154 93.2953 316.447C93.293 316.425 93.293 316.402 93.293 316.377V312.894C93.293 312.871 93.293 312.846 93.2953 312.824C93.2953 312.805 93.2971 312.787 93.2995 312.768C93.3566 312.186 93.8117 311.711 94.4048 311.585C94.4233 311.579 94.4441 311.574 94.4643 311.573C94.547 311.558 94.6309 311.549 94.7177 311.549H125.684C125.688 311.566 125.692 311.579 125.697 311.595C126.197 313.404 127.35 315.885 130.005 317.71C130.01 317.715 130.016 317.717 130.02 317.721Z" fill="#FFA412"/>
<path d="M154.36 311.55H153.611V317.72H154.36V311.55Z" fill="#FFA412"/>
<path d="M151.828 311.55H151.079V317.72H151.828V311.55Z" fill="#FFA412"/>
<path d="M148.786 311.55H148.037V317.72H148.786V311.55Z" fill="#FFA412"/>
<path d="M144.126 311.55H143.377V317.72H144.126V311.55Z" fill="#FFA412"/>
<path d="M139.198 311.55H138.449V317.72H139.198V311.55Z" fill="#FFA412"/>
<path d="M131.644 311.55H130.895V317.72H131.644V311.55Z" fill="#FFA412"/>
<path d="M124.572 311.55H123.823V317.72H124.572V311.55Z" fill="#FFA412"/>
<path d="M118.252 311.55H117.503V317.72H118.252V311.55Z" fill="#FFA412"/>
<path d="M156.772 311.55H156.023V317.72H156.772V311.55Z" fill="#FFA412"/>
<path d="M158.37 311.55H157.621V317.72H158.37V311.55Z" fill="#FFA412"/>
<path d="M159.91 311.55H159.161V317.72H159.91V311.55Z" fill="#FFA412"/>
<path d="M161.067 311.572V317.699C160.975 317.713 160.881 317.72 160.786 317.72H160.317V311.55H160.786C160.881 311.55 160.975 311.558 161.067 311.572Z" fill="#FFA412"/>
<path d="M162.107 312.143V317.127C161.926 317.353 161.665 317.53 161.359 317.629V311.641C161.665 311.74 161.925 311.918 162.107 312.143Z" fill="#FFA412"/>
<path d="M162.242 306.768V310.251C162.242 310.53 162.141 310.786 161.97 311.001C161.925 311.056 161.874 311.11 161.82 311.161C161.655 311.31 161.451 311.43 161.221 311.505C161.147 311.529 161.071 311.548 160.994 311.562H160.993C160.99 311.562 160.99 311.562 160.988 311.562C160.968 311.567 160.949 311.571 160.929 311.573C160.838 311.587 160.743 311.595 160.649 311.595H94.7503C94.6825 311.595 94.6123 311.591 94.5445 311.583C94.5177 311.581 94.491 311.577 94.466 311.573C93.7949 311.469 93.2661 311.009 93.1715 310.437C93.1656 310.398 93.1614 310.361 93.159 310.321C93.1572 310.296 93.1572 310.274 93.1572 310.251V306.768C93.1572 306.743 93.1572 306.721 93.159 306.697C93.1614 306.654 93.1673 306.611 93.1733 306.568C93.2911 305.923 93.9562 305.424 94.7503 305.424H160.649C160.69 305.424 160.733 305.426 160.774 305.428C160.781 305.428 160.787 305.43 160.791 305.43C160.803 305.432 160.815 305.432 160.828 305.432C160.846 305.434 160.867 305.437 160.887 305.44C160.902 305.44 160.914 305.443 160.929 305.447C161.029 305.461 161.128 305.484 161.221 305.515C161.276 305.533 161.33 305.554 161.382 305.577H161.384C161.59 305.667 161.769 305.796 161.911 305.949C161.931 305.971 161.952 305.993 161.971 306.017C162.141 306.231 162.242 306.489 162.242 306.768Z" fill="#FFB93E"/>
<path d="M129.884 311.595H94.5802C94.5528 311.595 94.5243 311.593 94.4975 311.593C94.4666 311.591 94.4357 311.588 94.4071 311.585C93.7688 311.509 93.2584 311.034 93.1715 310.437C93.1656 310.398 93.1614 310.361 93.1596 310.321C93.1572 310.297 93.1572 310.274 93.1572 310.251V306.768C93.1572 306.743 93.1572 306.721 93.1596 306.698C93.1614 306.655 93.1673 306.611 93.1739 306.568C93.1828 306.518 93.1965 306.469 93.212 306.42C93.3756 305.85 93.9252 305.424 94.5796 305.424H125.548C125.561 305.475 125.576 305.525 125.592 305.577C126.104 307.365 127.251 309.764 129.82 311.55C129.841 311.567 129.863 311.579 129.884 311.595Z" fill="#FFA412"/>
<path d="M154.224 305.424H153.475V311.594H154.224V305.424Z" fill="#FFA412"/>
<path d="M151.688 305.424H150.939V311.594H151.688V305.424Z" fill="#FFA412"/>
<path d="M148.646 305.424H147.897V311.594H148.646V305.424Z" fill="#FFA412"/>
<path d="M143.986 305.424H143.237V311.594H143.986V305.424Z" fill="#FFA412"/>
<path d="M139.058 305.424H138.309V311.594H139.058V305.424Z" fill="#FFA412"/>
<path d="M131.508 305.424H130.759V311.594H131.508V305.424Z" fill="#FFA412"/>
<path d="M124.432 305.424H123.683V311.594H124.432V305.424Z" fill="#FFA412"/>
<path d="M118.117 305.424H117.368V311.594H118.117V305.424Z" fill="#FFA412"/>
<path d="M156.637 305.424H155.888V311.594H156.637V305.424Z" fill="#FFA412"/>
<path d="M158.234 305.424H157.485V311.594H158.234V305.424Z" fill="#FFA412"/>
<path d="M159.769 305.424H159.021V311.594H159.769V305.424Z" fill="#FFA412"/>
<path d="M160.931 305.446V311.573C160.839 311.587 160.745 311.594 160.65 311.594H160.181V305.424H160.65C160.745 305.424 160.839 305.432 160.931 305.446Z" fill="#FFA412"/>
<path d="M161.967 306.018V311.001C161.786 311.227 161.525 311.404 161.219 311.504V305.515C161.525 305.614 161.786 305.792 161.967 306.018Z" fill="#FFA412"/>
<path d="M165.647 300.75V304.233C165.647 304.511 165.546 304.769 165.373 304.984C165.192 305.209 164.933 305.387 164.626 305.486C164.533 305.517 164.434 305.539 164.333 305.554C164.243 305.568 164.148 305.576 164.053 305.576H98.1549C97.8914 305.576 97.6403 305.521 97.4202 305.424C96.9835 305.232 96.6623 304.872 96.5802 304.449C96.5743 304.42 96.5719 304.392 96.5677 304.362C96.5659 304.342 96.5636 304.323 96.5636 304.303C96.5618 304.28 96.5618 304.257 96.5618 304.232V300.749C96.5618 300.726 96.5618 300.702 96.5636 300.679C96.5659 300.636 96.5701 300.592 96.5778 300.549C96.6956 299.905 97.3601 299.405 98.1549 299.405H164.053C164.148 299.405 164.243 299.413 164.333 299.428C164.434 299.442 164.533 299.465 164.626 299.496C164.933 299.595 165.192 299.773 165.373 300C165.546 300.214 165.647 300.47 165.647 300.75Z" fill="#FFB93E"/>
<path d="M133.289 305.577H97.9842C97.7474 305.577 97.5249 305.521 97.3298 305.424C96.9383 305.232 96.6522 304.873 96.5802 304.449C96.5743 304.42 96.5719 304.392 96.5677 304.362C96.5659 304.342 96.5636 304.323 96.5636 304.302C96.5618 304.279 96.5618 304.257 96.5618 304.232V300.749C96.5618 300.726 96.5618 300.701 96.5636 300.679C96.5659 300.636 96.5701 300.592 96.5778 300.549C96.5868 300.5 96.5998 300.453 96.6147 300.405C96.7759 299.833 97.328 299.405 97.9842 299.405H128.953C129.435 301.172 130.538 303.598 133.072 305.423C133.142 305.475 133.214 305.525 133.289 305.577Z" fill="#FFA412"/>
<path d="M157.629 299.407H156.88V305.577H157.629V299.407Z" fill="#FFA412"/>
<path d="M155.093 299.407H154.344V305.577H155.093V299.407Z" fill="#FFA412"/>
<path d="M152.055 299.407H151.306V305.577H152.055V299.407Z" fill="#FFA412"/>
<path d="M147.391 299.407H146.642V305.577H147.391V299.407Z" fill="#FFA412"/>
<path d="M142.467 299.407H141.718V305.577H142.467V299.407Z" fill="#FFA412"/>
<path d="M134.913 299.407H134.164V305.577H134.913V299.407Z" fill="#FFA412"/>
<path d="M127.84 299.407H127.091V305.577H127.84V299.407Z" fill="#FFA412"/>
<path d="M121.521 299.407H120.772V305.577H121.521V299.407Z" fill="#FFA412"/>
<path d="M160.041 299.407H159.292V305.577H160.041V299.407Z" fill="#FFA412"/>
<path d="M161.638 299.407H160.889V305.577H161.638V299.407Z" fill="#FFA412"/>
<path d="M163.178 299.407H162.429V305.577H163.178V299.407Z" fill="#FFA412"/>
<path d="M164.335 299.428V305.555C164.243 305.57 164.15 305.577 164.054 305.577H163.586V299.407H164.054C164.15 299.406 164.243 299.414 164.335 299.428Z" fill="#FFA412"/>
<path d="M165.372 300V304.983C165.19 305.209 164.929 305.387 164.623 305.486V299.497C164.929 299.596 165.19 299.773 165.372 300Z" fill="#FFA412"/>
<path d="M171.031 294.578V298.064C171.031 298.34 170.93 298.596 170.759 298.811L170.757 298.813C170.735 298.842 170.71 298.868 170.685 298.895C170.585 299.003 170.467 299.096 170.333 299.172C170.268 299.209 170.197 299.244 170.124 299.273C170.121 299.273 170.121 299.275 170.121 299.275C170.086 299.29 170.049 299.304 170.01 299.317C169.917 299.348 169.819 299.37 169.718 299.385C169.628 299.4 169.533 299.405 169.438 299.405H103.539C102.745 299.405 102.08 298.908 101.963 298.263C101.955 298.221 101.95 298.177 101.949 298.132C101.946 298.109 101.946 298.086 101.946 298.064V294.578C101.946 294.555 101.946 294.533 101.949 294.51C101.987 293.858 102.589 293.323 103.352 293.246C103.414 293.238 103.476 293.236 103.539 293.236H169.438C169.533 293.236 169.628 293.244 169.718 293.257C169.819 293.273 169.917 293.296 170.01 293.327C170.278 293.414 170.508 293.56 170.685 293.746C170.71 293.773 170.735 293.8 170.757 293.829L170.759 293.831C170.93 294.046 171.031 294.302 171.031 294.578Z" fill="#FFB93E"/>
<path d="M138.673 299.405H103.369C102.713 299.405 102.16 298.979 102 298.407C101.984 298.36 101.972 298.312 101.963 298.263C101.955 298.221 101.95 298.177 101.949 298.132C101.946 298.109 101.946 298.086 101.946 298.064V294.578C101.946 294.555 101.946 294.533 101.949 294.51C101.983 293.858 102.521 293.323 103.2 293.246C103.256 293.238 103.311 293.236 103.369 293.236H134.337C134.337 293.238 134.34 293.242 134.34 293.246C134.836 295.061 135.989 297.568 138.673 299.405Z" fill="#FFA412"/>
<path d="M163.013 293.236H162.264V299.406H163.013V293.236Z" fill="#FFA412"/>
<path d="M160.482 293.236H159.733V299.406H160.482V293.236Z" fill="#FFA412"/>
<path d="M157.439 293.236H156.69V299.406H157.439V293.236Z" fill="#FFA412"/>
<path d="M152.779 293.236H152.03V299.406H152.779V293.236Z" fill="#FFA412"/>
<path d="M147.852 293.236H147.103V299.406H147.852V293.236Z" fill="#FFA412"/>
<path d="M140.293 293.236H139.544V299.406H140.293V293.236Z" fill="#FFA412"/>
<path d="M133.225 293.236H132.476V299.406H133.225V293.236Z" fill="#FFA412"/>
<path d="M126.906 293.236H126.157V299.406H126.906V293.236Z" fill="#FFA412"/>
<path d="M165.426 293.236H164.677V299.406H165.426V293.236Z" fill="#FFA412"/>
<path d="M167.019 293.236H166.27V299.406H167.019V293.236Z" fill="#FFA412"/>
<path d="M168.563 293.236H167.814V299.406H168.563V293.236Z" fill="#FFA412"/>
<path d="M169.72 293.258V299.385C169.628 299.399 169.535 299.406 169.439 299.406H168.971V293.236H169.439C169.535 293.236 169.628 293.244 169.72 293.258Z" fill="#FFA412"/>
<path d="M170.761 293.829V298.813C170.579 299.038 170.318 299.216 170.012 299.315V293.327C170.318 293.426 170.579 293.604 170.761 293.829Z" fill="#FFA412"/>
<path d="M162.378 288.419V291.903C162.378 292.181 162.279 292.437 162.106 292.652C161.925 292.879 161.664 293.057 161.357 293.156C161.264 293.187 161.165 293.209 161.066 293.224C161.036 293.228 161.005 293.232 160.974 293.237H160.962C160.941 293.241 160.92 293.241 160.9 293.243C160.887 293.243 160.876 293.245 160.863 293.245C160.836 293.245 160.811 293.247 160.784 293.247H94.8879C94.3156 293.247 93.8117 292.991 93.5315 292.607C93.3935 292.421 93.309 292.204 93.2947 291.973C93.293 291.949 93.293 291.925 93.293 291.903V288.419C93.293 288.395 93.293 288.372 93.2947 288.349C93.3298 287.777 93.7974 287.297 94.425 287.135C94.5708 287.096 94.7278 287.075 94.8879 287.075H160.784C160.813 287.075 160.84 287.078 160.869 287.078C160.883 287.078 160.898 287.079 160.91 287.082C160.964 287.084 161.015 287.09 161.066 287.098C161.165 287.113 161.264 287.135 161.357 287.166C161.404 287.181 161.45 287.198 161.492 287.218H161.495C161.67 287.29 161.826 287.39 161.956 287.509C161.958 287.511 161.96 287.513 161.962 287.517C161.968 287.523 161.975 287.527 161.981 287.534C162.026 287.575 162.067 287.621 162.106 287.668C162.279 287.882 162.378 288.141 162.378 288.419Z" fill="#FFB93E"/>
<path d="M130.02 293.246H94.7177C94.2216 293.246 93.7814 293.003 93.528 292.637C93.3917 292.443 93.3072 292.216 93.2953 291.973C93.293 291.948 93.293 291.925 93.293 291.903V288.419C93.293 288.394 93.293 288.372 93.2953 288.349C93.3304 287.734 93.8058 287.226 94.4292 287.104C94.522 287.085 94.619 287.075 94.7177 287.075H125.685C125.697 287.123 125.712 287.17 125.726 287.218C126.239 289.018 127.397 291.442 130.005 293.236C130.01 293.239 130.016 293.243 130.02 293.246Z" fill="#FFA412"/>
<path d="M154.36 287.076H153.611V293.246H154.36V287.076Z" fill="#FFA412"/>
<path d="M151.828 287.076H151.079V293.246H151.828V287.076Z" fill="#FFA412"/>
<path d="M148.786 287.076H148.037V293.246H148.786V287.076Z" fill="#FFA412"/>
<path d="M144.126 287.076H143.377V293.246H144.126V287.076Z" fill="#FFA412"/>
<path d="M139.198 287.076H138.449V293.246H139.198V287.076Z" fill="#FFA412"/>
<path d="M131.644 287.076H130.895V293.246H131.644V287.076Z" fill="#FFA412"/>
<path d="M124.572 287.076H123.823V293.246H124.572V287.076Z" fill="#FFA412"/>
<path d="M118.252 287.076H117.503V293.246H118.252V287.076Z" fill="#FFA412"/>
<path d="M156.772 287.076H156.023V293.246H156.772V287.076Z" fill="#FFA412"/>
<path d="M158.37 287.076H157.621V293.246H158.37V287.076Z" fill="#FFA412"/>
<path d="M159.91 287.076H159.161V293.246H159.91V287.076Z" fill="#FFA412"/>
<path d="M161.067 287.097V293.224C160.975 293.239 160.881 293.246 160.786 293.246H160.317V287.076H160.786C160.881 287.076 160.975 287.083 161.067 287.097Z" fill="#FFA412"/>
<path d="M162.107 287.669V292.653C161.926 292.878 161.665 293.056 161.359 293.155V287.167C161.665 287.266 161.925 287.443 162.107 287.669Z" fill="#FFA412"/>
<path d="M167.224 282.391V285.875C167.224 286.153 167.124 286.41 166.951 286.625C166.77 286.851 166.509 287.028 166.203 287.128C166.109 287.159 166.011 287.182 165.911 287.197C165.819 287.21 165.726 287.218 165.63 287.218H99.7327C99.4769 287.218 99.2348 287.167 99.0207 287.076C98.54 286.873 98.1967 286.47 98.1444 285.999C98.1426 285.981 98.1408 285.963 98.1402 285.944C98.139 285.921 98.1384 285.898 98.1384 285.875V282.391C98.1384 282.367 98.139 282.345 98.1402 282.321C98.1795 281.668 98.7815 281.134 99.5442 281.057C99.6054 281.051 99.6685 281.048 99.7327 281.048H165.63C165.726 281.048 165.82 281.055 165.911 281.069C166.011 281.084 166.109 281.107 166.203 281.138C166.509 281.238 166.77 281.415 166.951 281.641C167.124 281.855 167.224 282.113 167.224 282.391Z" fill="#FFB93E"/>
<path d="M134.866 287.218H99.562C99.3342 287.218 99.1176 287.167 98.9267 287.076C98.4971 286.873 98.1914 286.47 98.145 285.999C98.1432 285.981 98.1414 285.963 98.1402 285.944C98.1396 285.921 98.1384 285.898 98.1384 285.875V282.391C98.1384 282.367 98.1396 282.345 98.1402 282.321C98.1759 281.668 98.7131 281.134 99.3936 281.057C99.4484 281.051 99.5049 281.048 99.562 281.048H130.53C130.531 281.051 130.532 281.054 130.533 281.057C131.016 282.826 132.124 285.252 134.663 287.075C134.729 287.124 134.797 287.171 134.866 287.218Z" fill="#FFA412"/>
<path d="M159.21 281.048H158.461V287.218H159.21V281.048Z" fill="#FFA412"/>
<path d="M156.674 281.048H155.925V287.218H156.674V281.048Z" fill="#FFA412"/>
<path d="M153.632 281.048H152.883V287.218H153.632V281.048Z" fill="#FFA412"/>
<path d="M148.971 281.048H148.222V287.218H148.971V281.048Z" fill="#FFA412"/>
<path d="M144.044 281.048H143.295V287.218H144.044V281.048Z" fill="#FFA412"/>
<path d="M136.489 281.048H135.74V287.218H136.489V281.048Z" fill="#FFA412"/>
<path d="M129.413 281.048H128.664V287.218H129.413V281.048Z" fill="#FFA412"/>
<path d="M123.102 281.048H122.353V287.218H123.102V281.048Z" fill="#FFA412"/>
<path d="M161.622 281.048H160.873V287.218H161.622V281.048Z" fill="#FFA412"/>
<path d="M163.215 281.048H162.466V287.218H163.215V281.048Z" fill="#FFA412"/>
<path d="M164.751 281.048H164.002V287.218H164.751V281.048Z" fill="#FFA412"/>
<path d="M165.912 281.069V287.196C165.82 287.21 165.727 287.218 165.631 287.218H165.163V281.048H165.631C165.727 281.048 165.82 281.055 165.912 281.069Z" fill="#FFA412"/>
<path d="M166.952 281.641V286.624C166.771 286.85 166.51 287.028 166.204 287.127V281.138C166.51 281.238 166.771 281.415 166.952 281.641Z" fill="#FFA412"/>
<path d="M169.287 276.23V279.715C169.287 279.993 169.187 280.25 169.014 280.465C168.832 280.69 168.572 280.867 168.265 280.967C168.173 280.998 168.074 281.021 167.974 281.036C167.943 281.04 167.913 281.045 167.882 281.048C167.865 281.049 167.847 281.051 167.829 281.052C167.813 281.054 167.795 281.055 167.778 281.055C167.749 281.057 167.721 281.058 167.692 281.058H101.795C100.946 281.058 100.246 280.491 100.203 279.784C100.202 279.761 100.201 279.738 100.201 279.715V276.231C100.201 276.207 100.202 276.184 100.203 276.162C100.246 275.455 100.946 274.888 101.795 274.888H167.692C167.789 274.888 167.882 274.895 167.974 274.909C168.074 274.924 168.172 274.947 168.265 274.978C168.571 275.078 168.832 275.255 169.014 275.481C169.186 275.695 169.287 275.953 169.287 276.23Z" fill="#FFB93E"/>
<path d="M136.928 281.058H101.625C100.867 281.058 100.241 280.491 100.203 279.784C100.202 279.761 100.201 279.738 100.201 279.715V276.23C100.201 276.207 100.202 276.184 100.203 276.161C100.241 275.455 100.867 274.887 101.625 274.887H132.593C133.086 276.701 134.235 279.207 136.914 281.048C136.918 281.051 136.924 281.055 136.928 281.058Z" fill="#FFA412"/>
<path d="M161.268 274.888H160.519V281.057H161.268V274.888Z" fill="#FFA412"/>
<path d="M158.736 274.888H157.987V281.057H158.736V274.888Z" fill="#FFA412"/>
<path d="M155.694 274.888H154.945V281.057H155.694V274.888Z" fill="#FFA412"/>
<path d="M151.034 274.888H150.285V281.057H151.034V274.888Z" fill="#FFA412"/>
<path d="M146.106 274.888H145.357V281.057H146.106V274.888Z" fill="#FFA412"/>
<path d="M138.552 274.888H137.803V281.057H138.552V274.888Z" fill="#FFA412"/>
<path d="M131.475 274.888H130.726V281.057H131.475V274.888Z" fill="#FFA412"/>
<path d="M125.16 274.887H124.411V281.057H125.16V274.887Z" fill="#FFA412"/>
<path d="M163.685 274.888H162.936V281.057H163.685V274.888Z" fill="#FFA412"/>
<path d="M165.274 274.888H164.525V281.057H165.274V274.888Z" fill="#FFA412"/>
<path d="M166.813 274.888H166.064V281.057H166.813V274.888Z" fill="#FFA412"/>
<path d="M167.974 274.909V281.036C167.883 281.05 167.789 281.057 167.693 281.057H167.225V274.888H167.693C167.789 274.887 167.883 274.895 167.974 274.909Z" fill="#FFA412"/>
<path d="M169.014 275.48V280.464C168.833 280.69 168.572 280.867 168.267 280.966V274.978C168.572 275.077 168.833 275.255 169.014 275.48Z" fill="#FFA412"/>
<path opacity="0.5" d="M123.595 311.55C123.594 311.566 123.594 311.581 123.592 311.595C123.476 313.665 123.145 315.714 122.603 317.71C122.603 317.713 122.601 317.717 122.601 317.721C122.523 318.01 122.441 318.299 122.352 318.586C121.801 320.407 121.074 322.18 120.18 323.881C119.058 326.019 117.675 328.042 116.04 329.898C115.997 329.95 115.952 330.001 115.906 330.051C113.865 332.345 111.442 334.382 108.667 336.07C108.082 336.427 107.483 336.767 106.868 337.091C106.452 337.31 106.034 337.517 105.614 337.717C105.213 337.95 104.789 338.151 104.389 338.397C103.228 339.109 101.779 339.674 100.202 340.125V337.411C100.202 337.388 100.204 337.366 100.204 337.343C100.206 337.298 100.212 337.255 100.219 337.211C100.227 337.16 100.241 337.112 100.257 337.063C100.421 336.493 100.972 336.07 101.626 336.07H94.5796C93.9252 336.07 93.3761 335.643 93.212 335.073C93.1965 335.024 93.1828 334.976 93.1739 334.925C93.1679 334.882 93.1614 334.839 93.1596 334.795C93.1578 334.773 93.1578 334.75 93.1578 334.725V331.242C93.1578 331.22 93.1578 331.195 93.1596 331.172C93.1614 331.128 93.1679 331.085 93.1739 331.042C93.1828 330.992 93.1965 330.943 93.212 330.894C93.3761 330.324 93.9258 329.898 94.5796 329.898H97.3298C96.9389 329.706 96.6528 329.347 96.5808 328.924C96.5743 328.894 96.5725 328.866 96.5683 328.837C96.5665 328.818 96.5642 328.797 96.5642 328.777C96.5624 328.754 96.5624 328.732 96.5624 328.708V325.223C96.5624 325.201 96.5624 325.178 96.5642 325.155C96.5665 325.112 96.5701 325.066 96.5784 325.025C96.5874 324.976 96.6005 324.929 96.6153 324.881C96.7765 324.307 97.3286 323.881 97.9848 323.881H99.5636C98.9092 323.881 98.3584 323.455 98.1942 322.886C98.1781 322.837 98.1644 322.788 98.1555 322.738C98.1495 322.695 98.143 322.651 98.1412 322.608V318.984C98.1781 318.332 98.7153 317.797 99.3947 317.721H94.7194C93.9603 317.721 93.3363 317.153 93.297 316.447C93.2952 316.424 93.2952 316.402 93.2952 316.377V312.893C93.2952 312.871 93.2952 312.846 93.297 312.823C93.297 312.804 93.2994 312.786 93.3012 312.767C93.3589 312.185 93.814 311.71 94.4065 311.584C93.7688 311.508 93.2578 311.033 93.1715 310.436C93.1656 310.397 93.1614 310.36 93.159 310.321C93.1572 310.296 93.1572 310.273 93.1572 310.25V306.768C93.1572 306.742 93.1572 306.72 93.159 306.697C93.1614 306.654 93.1673 306.61 93.1733 306.567C93.1828 306.517 93.1965 306.468 93.212 306.42C93.3755 305.849 93.9252 305.423 94.5796 305.423H97.3298C96.9383 305.231 96.6522 304.872 96.5802 304.448C96.5743 304.42 96.5719 304.39 96.5677 304.362C96.566 304.341 96.5636 304.322 96.5636 304.302C96.5618 304.279 96.5618 304.256 96.5618 304.232V300.748C96.5618 300.726 96.5618 300.701 96.5636 300.678C96.5659 300.635 96.5701 300.592 96.5778 300.548C96.5868 300.499 96.5999 300.452 96.6147 300.405C96.7759 299.833 97.328 299.404 97.9842 299.404H103.369C102.714 299.404 102.161 298.978 102 298.406C101.985 298.359 101.972 298.311 101.963 298.262C101.955 298.219 101.951 298.176 101.949 298.13C101.947 298.108 101.947 298.085 101.947 298.062V294.577C101.947 294.554 101.947 294.532 101.949 294.509C101.984 293.857 102.521 293.321 103.201 293.246H94.7194C94.2233 293.246 93.7825 293.002 93.529 292.636L93.5332 292.605L94.4267 287.134L94.4309 287.103L95.7034 279.296C97.1793 279.494 98.6385 279.79 100.069 280.178C100.154 280.201 100.236 280.224 100.321 280.246C100.324 280.248 100.331 280.25 100.337 280.252C101.171 280.486 101.994 280.75 102.805 281.047C102.813 281.049 102.819 281.051 102.828 281.055C106.562 282.42 110.041 284.446 113.059 287.074C113.112 287.119 113.166 287.167 113.218 287.216C114.786 288.598 116.227 290.146 117.507 291.851C117.764 292.19 118.014 292.534 118.254 292.886C118.335 293.002 118.415 293.117 118.491 293.235C118.495 293.237 118.498 293.241 118.498 293.245C118.887 293.821 119.255 294.411 119.605 295.018C120.431 296.45 121.124 297.916 121.691 299.404C122.446 301.38 122.975 303.395 123.288 305.422C123.298 305.474 123.304 305.524 123.312 305.575C123.612 307.569 123.702 309.569 123.595 311.55Z" fill="#E2810E"/>
<path d="M83.9091 340.875C101.811 340.875 116.322 326.32 116.322 308.365C116.322 290.411 101.811 275.856 83.9091 275.856C66.0082 275.856 51.4961 290.411 51.4961 308.365C51.4961 326.32 66.0082 340.875 83.9091 340.875Z" fill="#E2810E"/>
<path d="M98.3027 337.496C97.9035 337.741 97.4972 337.977 97.0849 338.205C96.9451 338.282 96.8053 338.359 96.6655 338.432C96.3461 338.603 96.0266 338.767 95.7042 338.927C80.2692 346.53 61.4421 340.695 53.0508 325.429C45.0468 310.867 49.3491 292.831 62.4813 283.36C63.5295 282.604 64.6313 281.903 65.7895 281.264C66.2048 281.035 66.6242 280.814 67.0448 280.606C67.4534 280.401 67.8657 280.206 68.2797 280.022C69.5481 279.455 70.8384 278.977 72.14 278.586C74.0752 278.001 76.0401 277.607 78.0086 277.399C84.1145 276.75 90.2574 277.869 95.7042 280.542C101.484 283.376 106.481 287.96 109.823 294.04C118.237 309.351 113.053 328.498 98.3027 337.496Z" fill="#FFB93E"/>
<path d="M81.6599 339.213C78.9496 339.213 76.2232 338.829 73.5474 338.053C66.0952 335.89 59.9291 330.947 56.1841 324.133C52.439 317.319 51.5638 309.45 53.7196 301.976C55.8754 294.502 60.8042 288.317 67.5979 284.561C81.6224 276.807 99.3216 281.943 107.052 296.009C114.783 310.075 109.663 327.827 95.6386 335.581C91.2846 337.988 86.4975 339.213 81.6599 339.213ZM81.5707 281.733C76.9608 281.733 72.2904 282.864 67.9756 285.25C61.3652 288.904 56.5694 294.922 54.4719 302.195C52.3742 309.467 53.2258 317.124 56.8699 323.754C60.5139 330.384 66.514 335.194 73.7651 337.298C81.0162 339.402 88.6499 338.548 95.2609 334.893C108.907 327.348 113.889 310.075 106.366 296.388C101.222 287.028 91.541 281.733 81.5707 281.733Z" fill="#FFA412"/>
<path d="M148.436 194.632H35.1238V196.274H148.436V194.632Z" fill="#50877F"/>
<path d="M149.597 196.275H33.9629V197.917H149.597V196.275Z" fill="#3FD1B2"/>
<path d="M151.193 197.917H32.3696V199.56H151.193V197.917Z" fill="#90D0C5"/>
<path d="M143.734 131.84H37.7627V194.632H143.734V131.84Z" fill="#90D0C5"/>
<path d="M150.932 133.038H31.4805L92.2929 102.123L150.932 133.038Z" fill="#50877F"/>
<path d="M49.6106 128.911L132.799 128.736L92.25 107.588L49.6106 128.911Z" fill="#6DB5A5"/>
<path d="M96.9497 116.789L96.4928 118.537H88.0442L88.51 116.789H96.9497ZM92.6225 126.624L88.3042 121.477L88.2952 119.935H90.4005C90.8901 119.935 91.2935 119.839 91.61 119.647C91.9264 119.454 92.1626 119.196 92.3179 118.871C92.4732 118.54 92.5505 118.174 92.5505 117.771C92.5505 117.351 92.4791 116.978 92.3357 116.653C92.1924 116.329 91.9621 116.076 91.6457 115.896C91.3292 115.71 90.908 115.617 90.3827 115.617H88.0531L88.582 113.498H90.3827C91.4577 113.498 92.3536 113.66 93.0704 113.985C93.7873 114.309 94.3245 114.778 94.6832 115.391C95.0413 115.998 95.2204 116.734 95.2204 117.6C95.2204 118.357 95.1008 119.021 94.8622 119.592C94.6231 120.163 94.2441 120.635 93.7242 121.008C93.2049 121.374 92.5207 121.633 91.6724 121.783L95.5612 126.498V126.624H92.6225ZM96.9675 113.498L96.5017 115.238H89.5046L89.9704 113.498H96.9675Z" fill="black" fill-opacity="0.6"/>
<path d="M148.395 133.038H34.5969V135.685H148.395V133.038Z" fill="#90D0C5"/>
<path d="M54.2577 131.841H43.0486V135.898H54.2577V131.841Z" fill="#50877F"/>
<path d="M51.7424 135.898H45.5637V194.633H51.7424V135.898Z" fill="#50877F"/>
<path d="M78.476 131.841H67.2671V135.897H78.476V131.841Z" fill="#50877F"/>
<path d="M75.9652 135.897H69.7866V194.632H75.9652V135.897Z" fill="#50877F"/>
<path d="M116.552 131.84H105.343V135.897H116.552V131.84Z" fill="#50877F"/>
<path d="M114.037 135.897H107.858V194.632H114.037V135.897Z" fill="#50877F"/>
<path d="M139.358 131.84H128.149V135.897H139.358V131.84Z" fill="#50877F"/>
<path d="M136.847 135.897H130.669V194.632H136.847V135.897Z" fill="#50877F"/>
<path d="M98.4139 194.632H83.0342V177.779C83.0342 173.783 86.2638 170.544 90.2478 170.544H91.6167C95.3704 170.544 98.4139 173.596 98.4139 177.361V194.632Z" fill="#6DB5A5"/>
<path d="M85.6546 158.178H78.3945V150.222C78.3945 148.336 79.9192 146.807 81.8003 146.807H82.4463C84.2179 146.807 85.6546 148.247 85.6546 150.025V158.178Z" fill="#6DB5A5"/>
<path d="M64.3921 158.178H57.1318V150.222C57.1318 148.336 58.6564 146.807 60.5372 146.807H61.1833C62.9555 146.807 64.3915 148.247 64.3915 150.025V158.178H64.3921Z" fill="#6DB5A5"/>
<path d="M64.3921 182.588H57.1318V174.633C57.1318 172.747 58.6564 171.217 60.5372 171.217H61.1833C62.9555 171.217 64.3915 172.658 64.3915 174.436V182.588H64.3921Z" fill="#6DB5A5"/>
<path d="M125.982 158.178H118.722V150.222C118.722 148.336 120.247 146.807 122.128 146.807H122.774C124.546 146.807 125.982 148.247 125.982 150.025V158.178Z" fill="#6DB5A5"/>
<path d="M125.982 182.588H118.722V174.633C118.722 172.747 120.247 171.217 122.128 171.217H122.774C124.546 171.217 125.982 172.658 125.982 174.436V182.588Z" fill="#6DB5A5"/>
<path d="M104.011 158.178H96.751V150.222C96.751 148.336 98.2757 146.807 100.156 146.807H100.802C102.574 146.807 104.011 148.247 104.011 150.025V158.178Z" fill="#6DB5A5"/>
<path d="M508.11 344.457H0.736201C0.331452 344.457 0 344.125 0 343.719V342.989C0 342.583 0.331452 342.25 0.736201 342.25H508.11C508.515 342.25 508.846 342.583 508.846 342.989V343.719C508.847 344.125 508.515 344.457 508.11 344.457Z" fill="#38524C"/>
</g>
<defs>
<linearGradient id="paint0_linear_101_2528" x1="543.514" y1="-10.4286" x2="258.189" y2="234.017" gradientUnits="userSpaceOnUse">
<stop stop-color="white"/>
<stop offset="1" stop-color="#ABDDDA"/>
</linearGradient>
<clipPath id="clip0_101_2528">
<rect width="489" height="321" fill="white" transform="translate(0 24)"/>
</clipPath>
</defs>
</svg>
