<svg width="105" height="24" viewBox="0 0 105 24" fill="none" xmlns="http://www.w3.org/2000/svg">
<path d="M51.7936 10.9018V17.5512H49.1289V6.428C49.9615 6.428 50.7876 6.41327 51.6136 6.44272C51.7412 6.44763 51.8983 6.63247 51.9768 6.77151C53.1513 8.82113 54.3143 10.8757 55.4806 12.9285C55.5329 13.0201 55.5935 13.1085 55.7162 13.3015V6.46562H58.3465V17.5807C57.5155 17.5807 56.7025 17.5954 55.8928 17.5659C55.7669 17.561 55.6082 17.3795 55.5297 17.2421C54.3568 15.1924 53.1938 13.1363 52.0291 11.0834C51.9899 11.0147 51.9441 10.9493 51.9015 10.8822L51.7936 10.9018Z" fill="#C2C2C2"/>
<path d="M98.1912 6.44613V11.288C98.9436 10.1855 99.6258 9.18441 100.306 8.18332C100.637 7.69913 100.946 7.20022 101.302 6.73567C101.419 6.58354 101.654 6.44286 101.839 6.43632C102.786 6.40687 103.733 6.42323 104.8 6.42323C103.524 8.10644 102.295 9.72748 101.059 11.3583C102.295 13.4129 103.527 15.4576 104.805 17.5792C103.754 17.5792 102.783 17.589 101.813 17.5661C101.698 17.5628 101.554 17.4009 101.482 17.2798C100.804 16.1119 100.138 14.9374 99.4687 13.7646C99.4147 13.6697 99.3559 13.5781 99.2692 13.4358C98.9142 13.8267 98.5772 14.1751 98.2713 14.5481C98.1928 14.6446 98.1863 14.8196 98.1847 14.9587C98.1765 15.806 98.1814 16.6533 98.1814 17.5416H95.5233V6.44941H98.1896L98.1912 6.44613Z" fill="#C2C2C2"/>
<path d="M80.7188 17.5514V6.34473C82.3627 6.42979 84.0099 6.36109 85.5983 6.63262C87.6888 6.99086 89.1789 8.85236 89.3572 10.969C89.4734 12.3431 89.4456 13.709 88.7667 14.9636C87.9292 16.5143 86.601 17.4042 84.8556 17.5301C83.493 17.6283 82.1173 17.5497 80.7188 17.5497V17.5514ZM83.3949 15.5198C83.7122 15.5198 83.9887 15.5263 84.2635 15.5198C85.3496 15.4903 86.053 15.011 86.4112 13.9919C86.7417 13.053 86.7269 12.0765 86.6435 11.095C86.4783 9.12553 85.4003 8.25858 83.3949 8.5432V15.5214V15.5198Z" fill="#C2C2C2"/>
<path d="M71.9688 6.43945H79.5783V8.48907H74.6563V10.8233H78.785V12.8566H74.6563V15.5131H79.5489V17.5545H71.9688V6.43945Z" fill="#C2C2C2"/>
<path d="M68.1329 6.43799H71.1001C69.857 10.1577 68.622 13.8497 67.382 17.5579H64.4524C63.2256 13.8742 61.9955 10.1757 60.7539 6.44617H63.7114C64.4262 9.07648 65.1427 11.7068 65.8575 14.3371L65.9655 14.36C66.6836 11.7313 67.4033 9.10429 68.1312 6.43963L68.1329 6.43799Z" fill="#C2C2C2"/>
<path d="M38.5535 13.1591V17.5397H35.8594V6.4541H43.2351V8.48245H38.5764V11.0195C38.7449 11.0293 38.9166 11.0473 39.0867 11.0473C40.1811 11.0506 41.2754 11.0653 42.3681 11.0408C42.7689 11.031 42.8866 11.1717 42.8605 11.5479C42.8343 11.9372 42.8376 12.3298 42.8605 12.7207C42.8801 13.0675 42.7443 13.1706 42.4057 13.1657C41.3114 13.1493 40.2187 13.1591 39.1244 13.1591C38.9493 13.1591 38.776 13.1591 38.5535 13.1591Z" fill="#C2C2C2"/>
<path d="M44.5977 6.43945H47.2247V17.5496H44.5977V6.43945Z" fill="#C2C2C2"/>
<path d="M91 6.43945H93.6025V17.5447H91V6.43945Z" fill="#C2C2C2"/>
<path d="M14.9297 2.60254C16.2808 4.86154 17.663 7.10254 18.9749 9.3828C19.8582 10.9188 20.6287 12.5186 21.4809 14.0725C23.1216 17.066 24.7852 20.048 26.4389 23.0366C26.6025 23.3326 26.7596 23.6336 26.9199 23.9346C26.8871 23.964 26.8659 24 26.8463 24C23.0267 23.9968 19.2088 23.9919 15.3893 23.9869V23.7252C15.8964 23.3932 16.4068 23.0644 16.9057 22.7209C16.9858 22.6652 17.012 22.536 17.0644 22.4395L17.0562 22.446L17.2721 22.3348C17.6581 21.8457 18.0442 21.3566 18.4302 20.8692L18.427 20.8724L18.5267 20.7678L18.5235 20.7727L18.6216 20.6663V20.6729C18.669 20.6058 18.7198 20.5404 18.7705 20.4733C19.7519 19.2203 20.3555 17.7956 20.3735 16.2121C20.4046 13.5442 19.2138 11.4848 16.9646 10.0535C15.5905 9.17833 14.0513 8.95587 12.4531 9.0213C12.7983 8.9755 13.1434 8.92806 13.4902 8.88226C13.6636 8.89207 13.837 8.90352 14.0104 8.91334C14.1429 8.91824 14.2754 8.92315 14.4079 8.92806C14.5371 8.86917 14.7792 8.80865 14.7792 8.74976C14.7792 8.02839 14.7432 7.30865 14.717 6.58727C15.2001 6.27975 15.3075 5.86917 15.0393 5.35554C14.9509 5.18706 14.879 5.00875 14.8005 4.83536L14.7285 4.72577L14.6859 4.63417C14.7252 4.43624 14.7792 4.23994 14.8005 4.04038C14.8528 3.56274 14.8904 3.08182 14.9346 2.60254H14.9297ZM24.6592 22.6391C24.3043 22.0208 23.9853 21.3779 23.5862 20.7907C22.8533 19.7127 22.3675 18.5856 22.5442 17.2427C22.5753 17.0006 22.5262 16.7094 22.4133 16.4935C21.2994 14.3392 20.1674 12.1931 19.0338 10.0486C18.97 9.92751 18.867 9.76884 18.7525 9.7394C17.8937 9.51366 17.0284 9.31737 16.0845 9.09164C16.1696 9.19142 16.1859 9.22413 16.2105 9.23722C16.3397 9.30755 16.4706 9.37299 16.6014 9.43842C18.7116 10.4869 20.2181 12.1047 20.9428 14.3392C21.4744 15.9749 21.3566 17.6827 21.126 19.3724C21.0017 20.2754 20.8839 21.1783 20.7726 22.0813C20.7301 22.4346 20.8806 22.6423 21.265 22.6407C22.3741 22.6374 23.4831 22.6407 24.656 22.6407L24.6592 22.6391Z" fill="#C2C2C2"/>
<path d="M18.4318 20.8674C18.0458 21.3565 17.6598 21.8456 17.2737 22.333C17.2017 22.3707 17.1298 22.4067 17.0578 22.4443L17.066 22.4377C16.8582 22.5261 16.6489 22.6128 16.4427 22.7044C15.1243 23.2932 13.7388 23.537 12.3026 23.4503C10.5605 23.3456 9.0916 22.5163 7.67993 21.5953C6.73937 20.9819 5.86423 20.2703 4.95802 19.6062C4.36423 19.1727 4.21701 19.2022 3.85224 19.8189C3.54471 20.3374 3.24046 20.8576 2.94111 21.381C2.73501 21.7425 2.54198 22.109 2.33751 22.4852C3.55289 22.4852 4.70938 22.4655 5.86587 22.4966C6.23719 22.5064 6.63468 22.585 6.96838 22.7387C7.82388 23.1346 8.53871 23.8887 9.60523 23.7185V23.9852H0C0.574155 22.9546 1.12214 21.9797 1.66358 21.0015C4.13522 16.549 6.60687 12.0948 9.07852 7.64058C9.31243 7.21855 9.55289 6.79979 9.79008 6.37939C10.2595 6.5397 9.79171 6.84559 9.89804 7.06151C9.73119 7.27416 9.53326 7.46882 9.40076 7.69946C8.86914 8.62531 8.35714 9.56097 7.83697 10.4934C7.69302 10.7338 7.53926 10.9694 7.41003 11.2164C7.15485 11.7055 6.91439 12.2011 6.66739 12.6951C5.85605 13.6193 5.76772 14.6842 6.05562 15.8227L6.16358 15.9699C6.21919 16.4377 6.23719 16.9137 6.33697 17.3718C7.45911 22.477 13.4182 24.6591 17.5878 21.5004C17.8691 21.2878 18.1489 21.0735 18.4302 20.8609L18.4318 20.8674Z" fill="#C2C2C2"/>
<path d="M9.90093 7.06656C9.7946 6.85064 10.2624 6.54312 9.79297 6.38445C10.3802 5.37354 10.9658 4.361 11.5531 3.3501C11.6234 3.50222 11.7428 3.65108 11.7559 3.80811C11.8082 4.40517 11.8279 5.00713 11.8589 5.60582C11.6496 5.90026 11.4958 6.27485 11.2161 6.46951C10.8268 6.73941 10.3442 6.87518 9.90093 7.0682V7.06656Z" fill="#C2C2C2"/>
<path d="M12.0859 2.3686C12.5112 1.60469 12.9365 0.842421 13.4044 0C13.4976 0.178299 13.5598 0.297713 13.6236 0.417124C13.5908 0.569251 13.5303 0.721373 13.5287 0.8735C13.5189 1.50654 13.527 2.13959 13.5287 2.77263C13.1394 3.42694 12.7501 4.07961 12.3607 4.73392C12.3264 4.11069 12.3002 3.48746 12.2495 2.86587C12.2348 2.69739 12.1432 2.53381 12.0876 2.3686H12.0859Z" fill="#C2C2C2"/>
<path d="M12.0873 2.36865C12.1429 2.53386 12.2362 2.69744 12.2493 2.86593C12.3 3.48752 12.3261 4.11074 12.3605 4.73397C12.192 5.02514 12.0252 5.31467 11.8567 5.60584C11.8256 5.00551 11.806 4.40518 11.7536 3.80813C11.7405 3.65109 11.6211 3.50224 11.5508 3.35011C11.7291 3.02296 11.9074 2.69744 12.0873 2.37029V2.36865Z" fill="#C2C2C2"/>
<path d="M13.5271 2.77103C13.5271 2.13799 13.5189 1.50495 13.5271 0.871908C13.5287 0.719782 13.5892 0.567654 13.6219 0.415527C13.7823 0.678886 13.9409 0.942244 14.1012 1.20724C14.0718 1.39372 14.0325 1.58019 14.0178 1.76831C13.9769 2.26885 13.9475 2.7694 13.9131 3.26831C13.7839 3.10146 13.6547 2.93625 13.5271 2.7694V2.77103Z" fill="#C2C2C2"/>
<path d="M13.918 3.27005C13.9523 2.76951 13.9818 2.26896 14.0227 1.77005C14.0374 1.58194 14.0783 1.39546 14.1061 1.20898C14.2762 1.50015 14.4463 1.78968 14.6164 2.08085C14.5494 2.23461 14.4414 2.38347 14.4218 2.54213C14.3645 3.00833 14.3433 3.4778 14.3089 3.94563C14.1797 3.71989 14.0488 3.49579 13.9196 3.27005H13.918Z" fill="#C2C2C2"/>
<path d="M14.3008 3.94535C14.3368 3.47752 14.358 3.00805 14.4136 2.54185C14.4333 2.38318 14.5412 2.23433 14.6083 2.08057C14.7146 2.25559 14.821 2.42899 14.9289 2.60401C14.8848 3.08329 14.8471 3.56258 14.7948 4.04186C14.7735 4.24142 14.7195 4.43771 14.6803 4.63564C14.5543 4.40663 14.4267 4.17762 14.3008 3.94698V3.94535Z" fill="#C2C2C2"/>
<path d="M9.60547 23.9883C9.60547 23.9 9.60547 23.81 9.60547 23.7217C10.1273 23.7217 10.6507 23.7217 11.1725 23.7217V23.9899C10.6507 23.9899 10.1273 23.9899 9.60547 23.9899V23.9883Z" fill="#C2C2C2"/>
<path d="M13.4339 23.985C13.0413 23.985 12.6504 23.985 12.2578 23.9867C12.2578 23.8983 12.2578 23.81 12.2578 23.7217C12.6504 23.7217 13.0413 23.7217 13.4339 23.7233V23.9834V23.985Z" fill="#C2C2C2"/>
<path d="M13.4337 23.9852C13.4337 23.8985 13.4337 23.8118 13.4337 23.7251C13.8246 23.7251 14.2172 23.7251 14.6082 23.7251V23.9868H13.4337V23.9852Z" fill="#C2C2C2"/>
<path d="M12.2587 23.7219C12.2587 23.8102 12.2587 23.8985 12.2587 23.9868C11.8972 23.9868 11.5357 23.9868 11.1758 23.9885C11.1758 23.8985 11.1758 23.8085 11.1758 23.7202C11.5373 23.7202 11.9004 23.7202 12.2619 23.7219H12.2587Z" fill="#C2C2C2"/>
<path d="M14.6094 23.9854V23.7236C14.8711 23.7236 15.1328 23.7236 15.3945 23.7236V23.9854C15.1328 23.9854 14.8711 23.9854 14.6094 23.9854V23.9854Z" fill="#C2C2C2"/>
<path d="M18.4307 20.8675C18.1493 21.0801 17.8696 21.2944 17.5883 21.5071C13.4187 24.6657 7.45959 22.482 6.33745 17.3784C6.23604 16.9204 6.21968 16.4444 6.16406 15.9765C6.24749 14.7268 6.50594 13.5261 7.18478 12.4498C8.26603 10.7372 9.74313 9.56431 11.7535 9.11939L12.151 9.07031L12.452 9.02288C14.0501 8.95744 15.5894 9.17991 16.9634 10.055C19.2126 11.4863 20.4034 13.5458 20.3723 16.2137C20.3544 17.7971 19.7508 19.2219 18.7693 20.4749C18.7186 20.542 18.6695 20.6074 18.6188 20.6745V20.6679L18.5239 20.7742L18.5272 20.7693L18.4274 20.874L18.4307 20.8707V20.8675ZM19.5594 15.3811L19.3664 14.3015C18.9754 13.5212 18.6139 12.7263 18.1821 11.9705C18.0152 11.6777 17.6897 11.4749 17.4361 11.2312C17.4329 11.2066 17.4198 11.1903 17.3969 11.1821L17.2611 11.0643C15.0217 9.06377 11.1204 9.16682 9.01684 11.2819C8.21368 11.9591 7.63625 12.7868 7.332 13.7977C7.21586 14.2573 7.10136 14.717 6.98522 15.1766L6.98195 16.6586C7.11608 17.1886 7.25021 17.7186 7.38598 18.247C7.73931 19.1957 8.29383 20.0022 9.09536 20.6319L10.1733 21.404C12.2459 22.5278 14.3151 22.5245 16.3794 21.3827C16.9127 20.9574 17.4443 20.5305 17.9776 20.1052C18.1919 19.8042 18.4062 19.5032 18.6204 19.2023C19.2535 18.3271 19.5234 17.3326 19.5774 16.2693C19.5708 15.9733 19.5643 15.6772 19.5561 15.3811H19.5594Z" fill="#C2C2C2"/>
<path d="M12.2603 7.5621C12.6513 7.40506 13.0406 7.24639 13.4315 7.08936C13.4511 7.68641 13.4708 8.28347 13.4904 8.88216C13.1453 8.92796 12.8001 8.9754 12.4533 9.0212C12.3535 9.03756 12.2538 9.05391 12.1523 9.06864C12.1883 8.56646 12.2243 8.06428 12.2603 7.5621V7.5621Z" fill="#C2C2C2"/>
<path d="M13.4886 8.88209C13.4689 8.28504 13.4493 7.68798 13.4297 7.08929C13.626 7.01731 13.8206 6.94697 14.0169 6.875L14.0071 8.91317L13.4869 8.88209H13.4886Z" fill="#C2C2C2"/>
<path d="M14.4128 6.69373C14.5142 6.65774 14.6156 6.62339 14.7154 6.5874C14.7416 7.30878 14.7776 8.02851 14.7776 8.74989C14.7776 8.80878 14.5355 8.8693 14.4062 8.92819C14.4079 8.18391 14.4095 7.438 14.4112 6.69373H14.4128Z" fill="#C2C2C2"/>
<path d="M14.4141 6.69336C14.4141 7.43763 14.4108 8.18355 14.4092 8.92782C14.2767 8.92291 14.1442 8.91801 14.0117 8.9131C14.015 8.23425 14.0183 7.55377 14.0215 6.87493L14.4158 6.69336H14.4141Z" fill="#C2C2C2"/>
<path d="M18.6174 20.6712C18.6681 20.6042 18.7172 20.5387 18.7679 20.4717C18.7172 20.5387 18.6681 20.6042 18.6174 20.6712Z" fill="#C2C2C2"/>
<path d="M17.0586 22.4442C17.1306 22.4066 17.2025 22.3706 17.2745 22.333C17.2025 22.3706 17.1306 22.4066 17.0586 22.4442Z" fill="#C2C2C2"/>
<path d="M18.5195 20.7709C18.5522 20.7349 18.585 20.7005 18.6177 20.6646C18.585 20.7005 18.5522 20.7349 18.5195 20.7709Z" fill="#C2C2C2"/>
<path d="M18.4258 20.8708L18.5256 20.7661L18.4258 20.8708Z" fill="#C2C2C2"/>
<path d="M14.7985 4.83518C14.774 4.79919 14.7511 4.76157 14.7266 4.72559C14.7511 4.76157 14.774 4.79919 14.7985 4.83518Z" fill="#C2C2C2"/>
<path d="M7.83831 10.4984C7.96917 10.4232 8.12784 10.3757 8.22762 10.2711C9.22054 9.2438 10.328 8.38011 11.6513 7.8125C11.6856 8.24761 11.72 8.68273 11.756 9.11621C9.74562 9.5595 8.26852 10.734 7.18727 12.4466C6.50679 13.523 6.24998 14.7236 6.16655 15.9734C6.13057 15.9243 6.09458 15.8752 6.05859 15.8261C6.11748 15.2454 6.14038 14.6582 6.24834 14.0873C6.33667 13.6146 6.52642 13.1615 6.67037 12.6985C6.91737 12.2045 7.15783 11.7089 7.41301 11.2198C7.54224 10.9712 7.69763 10.7373 7.83995 10.4968L7.83831 10.4984Z" fill="#C2C2C2"/>
<path d="M17.4362 11.231C17.6897 11.4747 18.0136 11.6775 18.1821 11.9703C18.6139 12.726 18.9771 13.5227 19.3664 14.3013C18.7023 14.5041 18.1477 14.4501 17.7257 13.7877C17.5687 13.5407 17.2203 13.4147 16.9602 13.2331C16.4089 12.515 15.7219 11.985 14.8517 11.707C13.7164 11.3455 12.6041 11.3864 11.4705 11.7822C10.7688 12.0276 10.2535 12.4987 9.70226 12.942C9.39637 13.1644 9.07576 13.3689 8.7895 13.6159C8.39692 13.9545 7.8293 14.0412 7.33203 13.7942C7.63465 12.7833 8.21208 11.9556 9.01687 11.28C9.7955 11.4845 10.5643 11.3913 11.32 11.177C12.6483 10.7991 13.9553 10.8007 15.2868 11.2081C15.9787 11.4207 16.7181 11.5189 17.4362 11.2293V11.231Z" fill="#C2C2C2"/>
<path d="M17.9799 20.1069C17.4466 20.5322 16.915 20.9591 16.3817 21.3844C16.3147 21.3451 16.2492 21.2732 16.1822 21.2715C15.0993 21.2306 14.0164 21.1783 12.9319 21.1717C12.1565 21.1668 11.3812 21.2225 10.6075 21.2666C10.4619 21.2748 10.3196 21.3566 10.1756 21.404C9.81576 21.1472 9.45589 20.8888 9.09766 20.6319C9.57367 20.5534 10.0497 20.4749 10.5404 20.3948C10.542 20.3899 10.5764 20.3522 10.5682 20.3342C10.1544 19.5262 10.2492 18.4695 9.36756 17.8871C9.29558 17.8397 9.26614 17.7252 9.21543 17.6434C9.31358 17.4144 9.41172 17.187 9.50987 16.958C9.67345 17.1199 9.83539 17.2819 9.99897 17.4455C10.0971 17.609 10.1953 17.7743 10.2918 17.9378C10.5044 18.9487 11.036 19.7617 11.8768 20.349C12.9303 21.0834 13.807 21.0671 14.7263 20.295C15.4722 19.6701 16.0399 18.9078 16.2721 17.9362L16.2754 17.8331L16.758 17.7317L17.0573 17.9362C16.8954 18.5202 16.7203 19.0992 16.5862 19.6897C16.5682 19.7715 16.7318 19.9711 16.8348 19.9891C17.2111 20.0578 17.5987 20.0725 17.9815 20.1085L17.9799 20.1069Z" fill="#C2C2C2"/>
<path d="M17.4388 11.2314C16.7207 11.521 15.9814 11.4228 15.2894 11.2102C13.9579 10.8012 12.6509 10.8012 11.3227 11.1791C10.5686 11.3934 9.79816 11.4866 9.01953 11.2822C11.1231 9.16547 15.0244 9.06242 17.2638 11.0646L17.3996 11.1824C17.4225 11.1906 17.4356 11.2085 17.4388 11.2314V11.2314Z" fill="#C2C2C2"/>
<path d="M9.21778 17.6416C9.26685 17.7251 9.2963 17.8379 9.3699 17.8854C10.2516 18.4677 10.1567 19.5244 10.5706 20.3325C10.5787 20.3488 10.5444 20.3881 10.5428 20.393C10.0504 20.4731 9.57601 20.5517 9.1 20.6302C8.30011 20.0004 7.74395 19.194 7.39062 18.2452C7.6 18.2387 7.82738 18.2812 8.01712 18.2141C8.35736 18.0947 8.89553 18.2501 8.92334 17.6367C9.02149 17.6367 9.11963 17.6384 9.21778 17.64V17.6416Z" fill="#C2C2C2"/>
<path d="M19.5845 16.2695C19.5306 17.3327 19.259 18.3256 18.6276 19.2024C18.3512 19.2008 18.0731 19.2188 17.7999 19.191C17.5235 19.1632 17.3043 19.0536 17.355 18.697C17.4041 18.3469 17.4237 17.992 17.4564 17.6386C17.4875 17.5159 17.4777 17.3409 17.5562 17.282C18.0698 16.8944 17.9602 16.3938 17.8474 15.8867C18.3937 16.1648 18.9531 16.384 19.5862 16.2695H19.5845Z" fill="#C2C2C2"/>
<path d="M10.1758 21.404C10.3197 21.3565 10.462 21.2747 10.6076 21.2666C11.3813 21.2224 12.1567 21.1668 12.9321 21.1717C14.0149 21.1782 15.0994 21.2306 16.1823 21.2715C16.251 21.2747 16.3165 21.3451 16.3819 21.3843C14.3175 22.5261 12.2483 22.5294 10.1758 21.4056V21.404Z" fill="#C2C2C2"/>
<path d="M8.92113 17.6385C8.89332 18.2519 8.35515 18.0965 8.01491 18.216C7.8268 18.283 7.59942 18.2405 7.38841 18.247C7.25428 17.717 7.12014 17.1871 6.98438 16.6587C7.18885 16.6587 7.39495 16.6603 7.59942 16.6571C7.95275 16.6505 8.27336 16.5851 8.4582 16.2252C8.51055 16.1222 8.63159 16.0551 8.72156 15.9717C8.75428 16.0387 8.78863 16.1058 8.82134 16.1729L8.92113 17.6402V17.6385Z" fill="#C2C2C2"/>
<path d="M8.72156 15.9715C8.63159 16.0549 8.51055 16.122 8.4582 16.225C8.27336 16.5849 7.95275 16.6503 7.59942 16.6569C7.39495 16.6601 7.18885 16.6569 6.98438 16.6585C6.98438 16.1645 6.98601 15.6705 6.98765 15.1765C7.72047 15.2976 8.34533 15.1847 8.74283 14.4568C8.83934 14.2785 9.05199 14.164 9.21066 14.02C9.04708 14.6711 8.88514 15.3205 8.72156 15.9715Z" fill="#C2C2C2"/>
<path d="M9.21129 14.02C9.05262 14.164 8.83997 14.2785 8.74346 14.4568C8.3476 15.1847 7.72111 15.2975 6.98828 15.1765C7.10442 14.7168 7.21892 14.2572 7.33506 13.7975C7.83234 14.0445 8.39995 13.9579 8.79253 13.6192C9.07879 13.3722 9.3994 13.1678 9.70529 12.9453C9.63986 13.1089 9.57607 13.2725 9.51064 13.436C9.41085 13.6307 9.31107 13.8254 9.21129 14.0216V14.02Z" fill="#C2C2C2"/>
<path d="M17.4543 17.6387C17.4215 17.992 17.4019 18.3453 17.3528 18.697C17.3021 19.0536 17.5213 19.1616 17.7978 19.191C18.0709 19.2188 18.3507 19.2008 18.6255 19.2025C18.4112 19.5034 18.1969 19.8044 17.9826 20.1054C17.5998 20.0694 17.2138 20.0547 16.8359 19.986C16.7329 19.968 16.5693 19.7684 16.5873 19.6867C16.7231 19.0978 16.8965 18.5171 17.0584 17.9331C17.1893 17.835 17.3201 17.7368 17.4526 17.6387H17.4543Z" fill="#C2C2C2"/>
<path d="M16.9626 13.2349C17.2227 13.4164 17.5711 13.5424 17.7281 13.7894C18.1501 14.4519 18.7047 14.5059 19.3688 14.303C19.4326 14.6629 19.498 15.0228 19.5618 15.3826C18.8617 15.4644 18.2336 15.381 17.8246 14.7021C17.7494 14.5762 17.5809 14.5059 17.4566 14.411C17.2914 14.0855 17.1262 13.7599 16.9609 13.4344L16.9642 13.2365L16.9626 13.2349Z" fill="#C2C2C2"/>
<path d="M17.4551 14.4097C17.5794 14.5062 17.7479 14.5765 17.8232 14.7008C18.2321 15.3797 18.8603 15.4631 19.5604 15.3813C19.5669 15.6774 19.5734 15.9735 19.5816 16.2695C18.9486 16.384 18.3891 16.1649 17.8428 15.8868C17.743 15.7543 17.6432 15.6218 17.5435 15.4909C17.5107 15.2308 17.478 14.9691 17.4453 14.709C17.4486 14.6092 17.4519 14.5094 17.4551 14.4097V14.4097Z" fill="#C2C2C2"/>
<path d="M11.7531 9.11763C11.7188 8.68251 11.6844 8.24904 11.6484 7.81392C11.8513 7.7305 12.0541 7.64707 12.2586 7.56201C12.2226 8.06419 12.1866 8.56637 12.1506 9.06855C12.0181 9.08491 11.8856 9.10127 11.7531 9.11763V9.11763Z" fill="#C2C2C2"/>
<path d="M17.3975 11.1822L17.2617 11.0645L17.3975 11.1822Z" fill="#C2C2C2"/>
<path d="M16.9659 13.235C16.9659 13.3004 16.9643 13.3675 16.9626 13.4329C16.5717 13.1287 16.2135 12.7705 15.7865 12.5284C13.9659 11.4978 12.1731 11.6172 10.4376 12.7541C10.1186 12.9635 9.81924 13.2056 9.51172 13.4329C9.57715 13.2694 9.64094 13.1058 9.70638 12.9422C10.2576 12.4989 10.7729 12.0278 11.4746 11.7825C12.6082 11.3866 13.7206 11.3441 14.8558 11.7072C15.726 11.9853 16.4147 12.5153 16.9643 13.2334L16.9659 13.235Z" fill="#C2C2C2"/>
<path d="M16.7579 17.7284C16.5976 17.7628 16.4357 17.7971 16.2754 17.8299C16.367 17.4733 16.4847 17.1216 16.542 16.7601C16.5927 16.4395 16.6352 16.0894 16.2704 15.8833L16.1739 15.584C15.9531 13.9449 14.584 13.042 13.1412 13.0632C11.8212 13.0829 10.7334 14.0512 10.3899 15.2912C10.3555 15.6183 10.3228 15.9455 10.2884 16.2726C10.1707 16.4542 10.0005 16.6227 9.94984 16.8206C9.90076 17.0103 9.97601 17.2328 9.99727 17.4406C9.8337 17.2786 9.67176 17.1167 9.50818 16.9531C9.50491 16.4934 9.50327 16.0354 9.5 15.5758L9.60142 15.1848C9.7012 15.0572 9.8108 14.9362 9.89586 14.7988C10.1167 14.4438 10.2672 14.0251 10.5485 13.7323C11.5038 12.7361 12.639 12.2732 14.054 12.6298C15.3282 12.9504 16.2541 13.5932 16.596 14.928C16.7121 15.3811 16.9002 15.8162 17.0556 16.2595L16.7563 17.7268L16.7579 17.7284Z" fill="#C2C2C2"/>
<path d="M16.2689 15.8848C16.6337 16.0909 16.5911 16.4409 16.5404 16.7615C16.4832 17.123 16.3654 17.4747 16.2738 17.8313C16.2738 17.8657 16.2722 17.9 16.2705 17.9344C16.1102 18.0587 15.9303 18.165 15.7945 18.3106C15.5328 18.5952 15.3218 18.9289 15.0453 19.1972C13.8316 20.3684 12.1598 20.1607 11.1473 18.8766C10.8856 18.5445 10.5764 18.2485 10.2902 17.936C10.192 17.7724 10.0939 17.6072 9.99735 17.4437C9.97608 17.2359 9.90084 17.0134 9.94991 16.8237C10.0006 16.6241 10.1707 16.4573 10.2885 16.2741C10.4455 17.1459 10.7891 17.8657 11.4728 18.5151C13.1806 20.1394 15.1746 18.9289 15.8714 17.4011C16.0857 16.9317 16.1413 16.3919 16.2705 15.8848H16.2689Z" fill="#C2C2C2"/>
<path d="M10.293 17.9362C10.5809 18.2486 10.8884 18.5447 11.1501 18.8768C12.1627 20.1625 13.8344 20.3686 15.0481 19.1974C15.3246 18.9308 15.5356 18.5954 15.7973 18.3108C15.9331 18.1636 16.113 18.0589 16.2733 17.9346C16.0411 18.9046 15.4734 19.6685 14.7275 20.2933C13.8082 21.0638 12.9298 21.0802 11.878 20.3473C11.0372 19.7617 10.504 18.9471 10.293 17.9362V17.9362Z" fill="#C2C2C2"/>
<path d="M16.7578 17.7286C16.8576 17.2395 16.9574 16.7504 17.0572 16.2613C17.1553 16.1616 17.2747 16.0749 17.3451 15.9587C17.4317 15.8148 17.4792 15.6463 17.543 15.4893C17.6428 15.6218 17.7425 15.7543 17.8423 15.8851C17.9552 16.3922 18.0664 16.8927 17.5512 17.2804C17.4726 17.3393 17.4825 17.516 17.4514 17.637C17.3205 17.7352 17.1897 17.8333 17.0572 17.9315C16.9574 17.8628 16.8576 17.7941 16.7578 17.727V17.7286Z" fill="#C2C2C2"/>
<path d="M9.50079 15.5791C9.50406 16.0388 9.5057 16.4968 9.50897 16.9564C9.41082 17.1854 9.31268 17.4128 9.21453 17.6418C9.11639 17.6418 9.01824 17.6402 8.92009 17.6385C8.88738 17.1494 8.85466 16.6603 8.82031 16.1712C8.91846 16.0813 9.0166 15.9913 9.11639 15.9046C9.24234 15.795 9.37157 15.6871 9.50079 15.5791Z" fill="#C2C2C2"/>
<path d="M9.50292 15.579C9.37533 15.687 9.2461 15.7949 9.11851 15.9045C9.01873 15.9912 8.92058 16.0828 8.82244 16.1712C8.78972 16.1041 8.75537 16.037 8.72266 15.9699C8.88623 15.3189 9.04817 14.6695 9.21175 14.0185C9.31153 13.8238 9.41131 13.6292 9.5111 13.4329C9.81862 13.2055 10.1163 12.9634 10.4369 12.754C12.1725 11.6172 13.9653 11.4978 15.7859 12.5283C16.2112 12.7704 16.5711 13.1286 16.962 13.4329C17.1272 13.7584 17.2924 14.0839 17.4577 14.4094C17.4544 14.5092 17.4511 14.609 17.4478 14.7088C17.3808 14.6499 17.3006 14.6008 17.2516 14.5305C16.7526 13.8238 16.1883 13.2137 15.408 12.772C14.5525 12.2878 13.661 12.1782 12.7336 12.2666C11.0553 12.4269 9.78427 13.3887 9.60597 15.1897L9.50455 15.5806L9.50292 15.579Z" fill="#C2C2C2"/>
<path d="M9.60547 15.1883C9.78377 13.3873 11.0548 12.4255 12.7331 12.2652C13.6622 12.1768 14.5537 12.2864 15.4075 12.7706C16.1878 13.2123 16.7505 13.8224 17.2511 14.5291C17.3018 14.5994 17.3819 14.6485 17.4473 14.7074C17.4801 14.9674 17.5128 15.2292 17.5455 15.4893C17.4817 15.6463 17.4343 15.8148 17.3476 15.9587C17.2772 16.0749 17.1578 16.1616 17.0597 16.2613C16.9043 15.818 16.7162 15.3829 16.6 14.9298C16.2581 13.595 15.3323 12.9522 14.058 12.6316C12.6431 12.2766 11.5079 12.7395 10.5526 13.7341C10.2712 14.0285 10.1207 14.4456 9.89991 14.8006C9.81485 14.938 9.70361 15.059 9.60547 15.1866V15.1883Z" fill="#C2C2C2"/>
<path d="M16.2711 15.8849C16.1418 16.392 16.0862 16.9335 15.8719 17.4013C15.1751 18.9291 13.1811 20.1396 11.4734 18.5153C10.7896 17.8659 10.4461 17.1461 10.2891 16.2743C10.3234 15.9471 10.3561 15.62 10.3905 15.2928C10.5213 15.2601 10.6522 15.229 10.7831 15.1963C10.7618 15.3713 10.7242 15.5463 10.7225 15.723C10.7193 16.042 10.6244 16.4313 10.77 16.6685C11.2542 17.4651 11.9608 18.0687 12.9047 18.211C14.2067 18.4073 15.9848 17.367 15.8818 15.584H16.1762L16.2727 15.8817L16.2711 15.8849Z" fill="#C2C2C2"/>
<path d="M16.1763 15.5854C16.0782 15.5854 15.98 15.5854 15.8819 15.587C15.8132 15.3923 15.7609 15.1895 15.6709 15.0047C15.1638 13.948 14.1856 13.3689 13.0389 13.436C12.0984 13.49 11.0924 14.2751 10.7832 15.1977C10.6523 15.2304 10.5215 15.2615 10.3906 15.2942C10.7341 14.0543 11.8219 13.0859 13.142 13.0663C14.5847 13.045 15.9539 13.948 16.1747 15.587L16.1763 15.5854Z" fill="#C2C2C2"/>
<path d="M10.7841 15.1979C11.0933 14.2753 12.0976 13.4901 13.0398 13.4362C14.1865 13.3707 15.1647 13.9498 15.6718 15.0049C15.7601 15.1897 15.8125 15.3925 15.8828 15.5872C15.9875 17.3702 14.2094 18.4105 12.9057 18.2142C11.9619 18.0719 11.2552 17.4667 10.771 16.6717C10.6271 16.4345 10.722 16.0452 10.7236 15.7262C10.7236 15.5512 10.7628 15.3745 10.7841 15.1995V15.1979ZM13.2541 17.8364C14.1652 17.8364 15.2269 17.0087 15.1794 16.2709C15.1091 15.1733 14.319 14.2295 13.3146 14.1984C12.4068 14.1706 11.4433 14.9754 11.3795 16.338C11.3468 17.0496 12.3381 17.8347 13.2525 17.8364H13.2541Z" fill="#C2C2C2"/>
<path d="M13.2527 17.8364C12.3383 17.8364 11.3454 17.0496 11.3798 16.338C11.4436 14.9738 12.407 14.1706 13.3149 14.1985C14.3192 14.2295 15.1093 15.1734 15.1797 16.271C15.2271 17.0087 14.1655 17.8364 13.2544 17.8364H13.2527ZM13.2724 17.0545C13.8939 17.0594 14.4926 16.4754 14.5074 15.8489C14.5204 15.283 13.8187 14.6025 13.2266 14.6074C12.6982 14.6123 12.0521 15.2928 12.057 15.8408C12.0619 16.4853 12.6279 17.0496 13.274 17.0545H13.2724Z" fill="#C2C2C2"/>
<path d="M13.2719 17.0546C12.6258 17.0496 12.0614 16.4853 12.0549 15.8408C12.05 15.2928 12.6961 14.6124 13.2245 14.6074C13.8166 14.6025 14.5184 15.283 14.5053 15.849C14.4906 16.4739 13.8919 17.0578 13.2703 17.0546H13.2719ZM13.231 15.1947C12.7714 15.1947 12.4638 15.512 12.4524 15.9979C12.4442 16.3315 12.9022 16.7519 13.2752 16.7552C13.6432 16.7585 14.0947 16.3463 14.1078 15.9946C14.1225 15.62 13.6563 15.1931 13.231 15.1931V15.1947Z" fill="#C2C2C2"/>
<path d="M13.2319 15.1963C13.6572 15.1963 14.1234 15.6216 14.1086 15.9978C14.0955 16.3495 13.6441 16.7617 13.276 16.7584C12.9031 16.7552 12.4451 16.3331 12.4532 16.0011C12.4647 15.5153 12.7722 15.1979 13.2319 15.1979V15.1963Z" fill="#C2C2C2"/>
</svg>
