<svg width="34" height="35" viewBox="0 0 34 35" fill="none" xmlns="http://www.w3.org/2000/svg">
<g filter="url(#filter0_d_1_8074)">
<path d="M8.49461 23.6222C8.25853 23.8578 8.0977 24.1582 8.0325 24.4853C7.9673 24.8124 8.00067 25.1515 8.12837 25.4596C8.25607 25.7677 8.47237 26.031 8.74985 26.2161C9.02732 26.4012 9.3535 26.4997 9.68704 26.4993C9.9085 26.4997 10.1279 26.4563 10.3325 26.3716C10.5371 26.2869 10.723 26.1626 10.8795 26.0059L16.4145 20.4708L14.0297 18.0871L8.49461 23.6222ZM22.3283 13.3635L24.7368 12.1171L26 9.67718L24.8233 8.50049L22.3834 9.76372L21.137 12.1722L18.2015 15.1077L19.3928 16.299L22.3283 13.3635ZM22.8554 19.7617C22.779 19.7572 22.7059 19.7392 22.6284 19.7392C22.2171 19.7392 21.8271 19.8235 21.4629 19.9583L14.5422 13.0375C14.677 12.6734 14.7613 12.2834 14.7613 11.8721C14.7613 11.7945 14.7433 11.7215 14.7388 11.6451C14.6197 9.89072 13.1744 8.50049 11.3897 8.50049C10.8705 8.50049 10.3838 8.62749 9.9444 8.83765L12.1843 11.0775C12.3023 11.1955 12.3832 11.3349 12.4371 11.4821C12.5844 11.8811 12.5046 12.3452 12.1843 12.6667C11.9651 12.8858 11.6774 12.996 11.3897 12.996C11.2571 12.996 11.1256 12.9667 10.9997 12.9195C10.8482 12.8654 10.7102 12.7792 10.5951 12.6667L8.35525 10.4268C8.13578 10.8771 8.02054 11.3711 8.01809 11.8721C8.01809 13.6568 9.40832 15.1021 11.1627 15.2212C11.2391 15.2257 11.3122 15.2437 11.3897 15.2437C11.801 15.2437 12.191 15.1594 12.5552 15.0246L19.4759 21.9453C19.334 22.3177 19.2598 22.7124 19.2568 23.1108C19.2568 23.1883 19.2748 23.2614 19.2793 23.3378C19.3984 25.0922 20.8437 26.4824 22.6284 26.4824C23.1476 26.4824 23.6343 26.3554 24.0737 26.1452L21.8338 23.9054C21.7209 23.7906 21.6346 23.6525 21.5809 23.5008C21.5053 23.2998 21.4889 23.0814 21.5337 22.8714C21.5786 22.6614 21.6827 22.4688 21.8338 22.3162C22.053 22.0971 22.3407 21.9869 22.6284 21.9869C22.761 21.9869 22.8925 22.0161 23.0184 22.0633C23.1656 22.1184 23.305 22.1982 23.423 22.3162L25.6628 24.5561C25.873 24.1167 26 23.63 26 23.1108C26 21.3261 24.6098 19.8808 22.8554 19.7617Z" fill="#69D8FA"/>
</g>
<defs>
<filter id="filter0_d_1_8074" x="0" y="0.500488" width="34" height="33.9985" filterUnits="userSpaceOnUse" color-interpolation-filters="sRGB">
<feFlood flood-opacity="0" result="BackgroundImageFix"/>
<feColorMatrix in="SourceAlpha" type="matrix" values="0 0 0 0 0 0 0 0 0 0 0 0 0 0 0 0 0 0 127 0" result="hardAlpha"/>
<feOffset/>
<feGaussianBlur stdDeviation="4"/>
<feComposite in2="hardAlpha" operator="out"/>
<feColorMatrix type="matrix" values="0 0 0 0 0.411765 0 0 0 0 0.847059 0 0 0 0 0.980392 0 0 0 0.5 0"/>
<feBlend mode="normal" in2="BackgroundImageFix" result="effect1_dropShadow_1_8074"/>
<feBlend mode="normal" in="SourceGraphic" in2="effect1_dropShadow_1_8074" result="shape"/>
</filter>
</defs>
</svg>
