<svg width="24" height="24" viewBox="0 0 24 24" fill="none" xmlns="http://www.w3.org/2000/svg">
<path d="M9.72317 5.50386C9.4108 1.91069 5.66225 0.147632 5.50361 0.0756705C5.35531 0.0059557 5.18911 -0.0163181 5.02769 0.0118865C0.700181 0.729866 0.0492566 3.24852 0.0230887 3.35319C-0.0125137 3.49905 -0.00685113 3.65194 0.0394436 3.79477C5.20105 19.8095 15.9282 22.7779 19.4543 23.7543C19.7258 23.8295 19.9499 23.89 20.12 23.9456C20.3141 24.0091 20.525 23.9968 20.7104 23.9113C20.8183 23.8622 23.3664 22.6618 23.9895 18.7464C24.0172 18.5755 23.9897 18.4002 23.911 18.246C23.8554 18.138 22.5225 15.6014 18.8263 14.7051C18.7009 14.673 18.5696 14.6719 18.4437 14.7018C18.3178 14.7318 18.201 14.7918 18.1034 14.8768C16.9373 15.8729 15.3264 16.9343 14.6313 17.0439C9.97177 14.7656 7.36971 10.394 7.27158 9.56478C7.21433 9.09866 8.28231 7.46154 9.51056 6.13025C9.58776 6.04647 9.64656 5.94744 9.68318 5.83956C9.7198 5.73168 9.73342 5.61732 9.72317 5.50386Z" fill="#4464B2"/>
</svg>
