<svg width="34" height="35" viewBox="0 0 34 35" fill="none" xmlns="http://www.w3.org/2000/svg">
<g filter="url(#filter0_d_1_8078)">
<path d="M17 16.51C16.4555 16.51 16.01 16.9555 16.01 17.5C16.01 18.0445 16.4555 18.49 17 18.49C17.2626 18.49 17.5144 18.3857 17.7 18.2C17.8857 18.0144 17.99 17.7626 17.99 17.5C17.99 17.2374 17.8857 16.9856 17.7 16.8C17.5144 16.6143 17.2626 16.51 17 16.51ZM17 8.5C12.0275 8.5 8 12.5275 8 17.5C8 22.468 12.0275 26.5 17 26.5C21.9725 26.5 26 22.468 26 17.5C26 12.5275 21.9725 8.5 17 8.5ZM18.971 19.471L11.6 22.9L15.029 15.529L22.4 12.1L18.971 19.471Z" fill="#FA8746"/>
</g>
<defs>
<filter id="filter0_d_1_8078" x="0" y="0.5" width="34" height="34" filterUnits="userSpaceOnUse" color-interpolation-filters="sRGB">
<feFlood flood-opacity="0" result="BackgroundImageFix"/>
<feColorMatrix in="SourceAlpha" type="matrix" values="0 0 0 0 0 0 0 0 0 0 0 0 0 0 0 0 0 0 127 0" result="hardAlpha"/>
<feOffset/>
<feGaussianBlur stdDeviation="4"/>
<feComposite in2="hardAlpha" operator="out"/>
<feColorMatrix type="matrix" values="0 0 0 0 0.980392 0 0 0 0 0.529412 0 0 0 0 0.27451 0 0 0 0.5 0"/>
<feBlend mode="normal" in2="BackgroundImageFix" result="effect1_dropShadow_1_8078"/>
<feBlend mode="normal" in="SourceGraphic" in2="effect1_dropShadow_1_8078" result="shape"/>
</filter>
</defs>
</svg>
