<svg width="20" height="24" viewBox="0 0 20 24" fill="none" xmlns="http://www.w3.org/2000/svg">
<path d="M9.60025 0C7.05498 0.0028586 4.61478 1.01523 2.81501 2.81501C1.01523 4.61478 0.0028586 7.05498 0 9.60025C0 13.5064 2.83567 16.75 5.83935 20.1833C6.78978 21.2706 7.7738 22.395 8.64983 23.5326C8.76193 23.678 8.90591 23.7958 9.07069 23.8768C9.23546 23.9579 9.41663 24 9.60025 24C9.78387 24 9.96504 23.9579 10.1298 23.8768C10.2946 23.7958 10.4386 23.678 10.5507 23.5326C11.4267 22.395 12.4107 21.2706 13.3611 20.1833C16.3648 16.75 19.2005 13.5064 19.2005 9.60025C19.1976 7.05498 18.1853 4.61478 16.3855 2.81501C14.5857 1.01523 12.1455 0.0028586 9.60025 0ZM9.60025 13.2003C8.88822 13.2003 8.19218 12.9892 7.60015 12.5936C7.00811 12.198 6.54668 11.6358 6.2742 10.9779C6.00171 10.3201 5.93042 9.59626 6.06933 8.89791C6.20824 8.19956 6.55112 7.55808 7.0546 7.0546C7.55808 6.55112 8.19956 6.20824 8.89791 6.06933C9.59626 5.93042 10.3201 6.00171 10.9779 6.2742C11.6358 6.54668 12.198 7.00811 12.5936 7.60014C12.9892 8.19218 13.2003 8.88822 13.2003 9.60025C13.2003 10.5551 12.8211 11.4708 12.1459 12.1459C11.4708 12.821 10.5551 13.2003 9.60025 13.2003Z" fill="#4464B2"/>
</svg>
