<svg width="24" height="15" viewBox="0 0 24 15" fill="none" xmlns="http://www.w3.org/2000/svg">
<path d="M0 1.76297V1.25C0 0.918479 0.158035 0.600537 0.43934 0.366117C0.720644 0.131696 1.10218 0 1.5 0L22.5 0C22.8978 0 23.2794 0.131696 23.5607 0.366117C23.842 0.600537 24 0.918479 24 1.25V1.76297L12 8.01297L0 1.76297ZM12.3975 9.28016C12.2783 9.34217 12.1405 9.37505 12 9.37505C11.8595 9.37505 11.7217 9.34217 11.6025 9.28016L0 3.23703V13.75C0 14.0815 0.158035 14.3995 0.43934 14.6339C0.720644 14.8683 1.10218 15 1.5 15H22.5C22.8978 15 23.2794 14.8683 23.5607 14.6339C23.842 14.3995 24 14.0815 24 13.75V3.23703L12.3975 9.28016Z" fill="#4464B2"/>
</svg>
