<svg width="49" height="48" viewBox="0 0 49 48" fill="none" xmlns="http://www.w3.org/2000/svg">
<g filter="url(#filter0_d_41_751)">
<path d="M16.7789 35.7832C19.8635 35.7832 23.9294 33.5399 27.4346 30.4553V31.1564C27.4346 31.9976 27.9954 32.5584 28.8367 32.5584C29.6779 32.5584 30.2387 31.9976 30.2387 31.1564V27.2306C30.2387 26.3894 29.6779 25.8285 28.8367 25.8285H24.9109C24.0697 25.8285 23.5088 26.3894 23.5088 27.2306C23.5088 28.0718 24.0697 28.6327 24.9109 28.6327H25.3315C20.7047 32.5584 16.6387 33.6801 15.5171 32.5584C14.9562 31.9976 15.0964 30.3151 15.7975 28.4925C16.0779 27.6512 16.6387 26.81 17.1995 25.9687C18.0408 27.0904 19.0222 28.212 20.0037 29.1935C20.5645 29.7543 21.4057 29.7543 21.9666 29.1935C22.5274 28.6327 22.5274 27.7914 21.9666 27.2306C20.7047 25.9687 19.7233 24.7069 18.882 23.5852C19.5831 22.744 20.4243 21.7626 21.2655 20.9213C22.247 19.9399 23.3686 18.9584 24.3501 18.2574C25.6119 19.0986 26.7336 20.2203 27.9954 21.3419C28.8367 22.1832 29.5377 22.8842 30.0985 23.7254C29.8181 24.2863 29.9583 24.9873 30.5191 25.4079C30.7996 25.6883 31.2202 25.6883 31.5006 25.6883C32.2016 26.6698 32.7624 27.6512 33.0429 28.6327C33.7439 30.4553 33.8841 31.9976 33.3233 32.6986C32.9026 33.1193 31.9212 33.2595 30.6593 32.8389C29.9583 32.6986 29.1171 33.1193 28.9769 33.8203C28.8367 34.5213 29.2573 35.3626 29.9583 35.5028C30.7996 35.643 31.5006 35.7832 32.0614 35.7832C33.7439 35.7832 34.7253 35.2224 35.2862 34.5213C37.6697 32.1378 36.2676 27.6512 33.4635 23.445C36.4078 18.9584 36.9686 15.0327 34.8655 13.0698C33.4635 11.6677 30.9398 11.6677 27.8552 12.9296C26.7336 13.3502 25.6119 14.0512 24.3501 14.8924C23.5088 14.3316 22.6676 13.911 21.8264 13.6306C18.7418 12.3687 16.2181 12.5089 14.816 14.0512C12.7129 16.1543 13.5542 19.7997 15.6573 23.5852C14.6758 24.9873 13.9748 26.2492 13.414 27.511C12.1521 30.5956 12.1521 33.2595 13.6944 34.6615C14.3954 35.5028 15.5171 35.7832 16.7789 35.7832ZM28.9769 15.4533C30.9398 14.612 32.482 14.4718 33.0429 15.1729C33.7439 15.8739 33.4635 18.1172 31.781 21.2017C31.2202 20.5007 30.6593 19.9399 30.0985 19.379C29.1171 18.3976 27.9954 17.4162 27.014 16.5749C27.5748 16.1543 28.2758 15.7337 28.9769 15.4533ZM16.6387 15.8739C17.1995 15.3131 18.7418 15.3131 20.7047 16.1543C21.1253 16.2945 21.5459 16.4347 21.8264 16.7151C20.9851 17.4162 20.1439 18.1172 19.3026 18.9584C18.6016 19.6595 18.0408 20.3605 17.48 21.0615C16.2181 18.5378 15.9377 16.5749 16.6387 15.8739Z" fill="#FFC726"/>
</g>
<defs>
<filter id="filter0_d_41_751" x="0.5" y="0" width="48" height="47.7832" filterUnits="userSpaceOnUse" color-interpolation-filters="sRGB">
<feFlood flood-opacity="0" result="BackgroundImageFix"/>
<feColorMatrix in="SourceAlpha" type="matrix" values="0 0 0 0 0 0 0 0 0 0 0 0 0 0 0 0 0 0 127 0" result="hardAlpha"/>
<feOffset/>
<feGaussianBlur stdDeviation="6"/>
<feComposite in2="hardAlpha" operator="out"/>
<feColorMatrix type="matrix" values="0 0 0 0 0.94902 0 0 0 0 0.807843 0 0 0 0 0.403922 0 0 0 1 0"/>
<feBlend mode="normal" in2="BackgroundImageFix" result="effect1_dropShadow_41_751"/>
<feBlend mode="normal" in="SourceGraphic" in2="effect1_dropShadow_41_751" result="shape"/>
</filter>
</defs>
</svg>
