<svg width="180" height="41" viewBox="0 0 180 41" fill="none" xmlns="http://www.w3.org/2000/svg">
<path d="M25.5087 4.4458C27.8169 8.30492 30.1782 12.1333 32.4193 16.0287C33.9283 18.6527 35.2445 21.3857 36.7004 24.0404C39.5032 29.1542 42.3452 34.2485 45.1703 39.3539C45.4498 39.8597 45.7181 40.3739 45.9919 40.8881C45.936 40.9384 45.8997 40.9998 45.8662 40.9998C39.3411 40.9943 32.8189 40.9859 26.2939 40.9775V40.5304C27.1602 39.9631 28.0321 39.4014 28.8844 38.8146C29.0213 38.7196 29.066 38.4988 29.1554 38.334L29.1414 38.3451L29.5103 38.1551C30.1698 37.3196 30.8293 36.484 31.4888 35.6513L31.4832 35.6569L31.6536 35.478L31.6481 35.4864L31.8157 35.3048V35.316C31.8968 35.2014 31.9834 35.0896 32.07 34.975C33.7467 32.8345 34.7778 30.4005 34.8086 27.6955C34.8617 23.1378 32.8273 19.6196 28.985 17.1745C26.6376 15.6794 24.0081 15.2994 21.2779 15.4112C21.8675 15.3329 22.4571 15.2519 23.0496 15.1737C23.3458 15.1904 23.642 15.21 23.9382 15.2267C24.1645 15.2351 24.3909 15.2435 24.6172 15.2519C24.838 15.1513 25.2516 15.0479 25.2516 14.9473C25.2516 13.715 25.1901 12.4854 25.1454 11.2531C25.9707 10.7277 26.1542 10.0263 25.6959 9.14884C25.545 8.86102 25.422 8.55642 25.2879 8.26021L25.165 8.07298L25.0923 7.9165C25.1594 7.57837 25.2516 7.24304 25.2879 6.90211C25.3773 6.08614 25.4416 5.26457 25.5171 4.4458H25.5087ZM42.13 38.6749C41.5236 37.6186 40.9787 36.5204 40.2968 35.5172C39.0449 33.6756 38.215 31.7503 38.5168 29.456C38.5699 29.0424 38.486 28.545 38.2932 28.1762C36.3902 24.4959 34.4565 20.8296 32.5199 17.1661C32.4109 16.9593 32.2349 16.6882 32.0393 16.6379C30.5722 16.2523 29.0939 15.917 27.4815 15.5313C27.6269 15.7018 27.6548 15.7577 27.6967 15.78C27.9175 15.9002 28.141 16.012 28.3646 16.1238C31.9694 17.915 34.5431 20.6787 35.781 24.4959C36.6892 27.2903 36.488 30.2077 36.094 33.0944C35.8816 34.6369 35.6804 36.1794 35.4904 37.722C35.4178 38.3256 35.6748 38.6805 36.3315 38.6777C38.2262 38.6721 40.1208 38.6777 42.1244 38.6777L42.13 38.6749Z" fill="#4867B0"/>
<path d="M31.4877 35.6488C30.8282 36.4843 30.1688 37.3199 29.5093 38.1526C29.3863 38.2169 29.2634 38.2784 29.1404 38.3426L29.1544 38.3314C28.7995 38.4823 28.4418 38.6304 28.0897 38.7869C25.8374 39.7929 23.4705 40.2093 21.017 40.0612C18.0409 39.8824 15.5315 38.4656 13.1199 36.8923C11.5131 35.8444 10.0181 34.6288 8.46994 33.4943C7.45556 32.7537 7.20406 32.804 6.5809 33.8575C6.05555 34.7434 5.53578 35.632 5.0244 36.5262C4.6723 37.1438 4.34256 37.7698 3.99325 38.4125C6.06952 38.4125 8.04519 38.3789 10.0209 38.432C10.6552 38.4488 11.3342 38.5829 11.9043 38.8456C13.3658 39.5219 14.587 40.8101 16.4089 40.5195V40.975H0C0.980848 39.2145 1.91699 37.549 2.84194 35.8779C7.06434 28.2715 11.2867 20.6622 15.5091 13.053C15.9087 12.332 16.3195 11.6166 16.7247 10.8984C17.5267 11.1723 16.7275 11.6949 16.9091 12.0637C16.6241 12.427 16.286 12.7595 16.0596 13.1536C15.1514 14.7352 14.2768 16.3336 13.3882 17.9265C13.1422 18.3372 12.8796 18.7396 12.6588 19.1616C12.2229 19.9971 11.8121 20.8438 11.3901 21.6878C10.0041 23.2666 9.85319 25.0858 10.345 27.0307L10.5294 27.2822C10.6245 28.0814 10.6552 28.8946 10.8257 29.6771C12.7426 38.3985 22.9228 42.1263 30.0458 36.7302C30.5264 36.3669 31.0043 36.0009 31.4849 35.6376L31.4877 35.6488Z" fill="#64C4AE"/>
<path d="M16.9093 12.0721C16.7277 11.7032 17.5269 11.1779 16.7249 10.9068C17.7281 9.17986 18.7285 7.45011 19.7317 5.72314C19.8519 5.98303 20.0559 6.23732 20.0782 6.50558C20.1676 7.52555 20.2012 8.55391 20.2543 9.57668C19.8966 10.0797 19.6339 10.7196 19.156 11.0521C18.491 11.5132 17.6666 11.7452 16.9093 12.0749V12.0721Z" fill="#6BC5AD"/>
<path d="M20.6449 4.04635C21.3715 2.74135 22.098 1.43914 22.8972 0C23.0565 0.304594 23.1627 0.508593 23.2717 0.712587C23.2158 0.97247 23.1124 1.23235 23.1096 1.49223C23.0928 2.57368 23.1068 3.65513 23.1096 4.73658C22.4445 5.85435 21.7794 6.96933 21.1144 8.08711C21.0557 7.02242 21.011 5.95775 20.9243 4.89586C20.8992 4.60803 20.7427 4.32859 20.6477 4.04635H20.6449Z" fill="#54A2B3"/>
<path d="M20.6501 4.04639C20.7451 4.32862 20.9044 4.60807 20.9268 4.8959C21.0134 5.95778 21.0581 7.02246 21.1168 8.08714C20.829 8.58455 20.5439 9.07917 20.2561 9.57658C20.203 8.55102 20.1695 7.52546 20.0801 6.50549C20.0577 6.23722 19.8537 5.98293 19.7336 5.72305C20.0381 5.16416 20.3427 4.60807 20.6501 4.04918V4.04639Z" fill="#5BBBB3"/>
<path d="M23.1106 4.73395C23.1106 3.6525 23.0967 2.57106 23.1106 1.48961C23.1134 1.22973 23.2168 0.969844 23.2727 0.709961C23.5466 1.15987 23.8176 1.60977 24.0915 2.06247C24.0412 2.38103 23.9741 2.6996 23.949 3.02096C23.8791 3.87606 23.8288 4.73116 23.7701 5.58346C23.5494 5.29843 23.3286 5.01619 23.1106 4.73116V4.73395Z" fill="#4E8BB3"/>
<path d="M23.7718 5.58594C23.8304 4.73084 23.8807 3.87574 23.9506 3.02343C23.9758 2.70207 24.0456 2.38351 24.0931 2.06494C24.3837 2.56235 24.6744 3.05696 24.965 3.55437C24.8504 3.81705 24.666 4.07135 24.6324 4.34241C24.5346 5.13882 24.4983 5.94083 24.4396 6.74004C24.2189 6.35441 23.9953 5.97157 23.7746 5.58594H23.7718Z" fill="#4B7EB3"/>
<path d="M24.4353 6.73987C24.4967 5.94066 24.5331 5.13865 24.6281 4.34223C24.6616 4.07117 24.8461 3.81688 24.9606 3.5542C25.1423 3.8532 25.3239 4.14942 25.5083 4.44842C25.4329 5.26719 25.3686 6.08597 25.2792 6.90474C25.2429 7.24566 25.1506 7.58098 25.0836 7.91911C24.8684 7.52789 24.6504 7.13667 24.4353 6.74265V6.73987Z" fill="#4973B3"/>
<path d="M16.4084 40.9804C16.4084 40.8295 16.4084 40.6758 16.4084 40.5249C17.2998 40.5249 18.194 40.5249 19.0855 40.5249V40.9832C18.194 40.9832 17.2998 40.9832 16.4084 40.9832V40.9804Z" fill="#5BBBB3"/>
<path d="M22.9477 40.9748C22.2771 40.9748 21.6092 40.9748 20.9385 40.9776C20.9385 40.8267 20.9385 40.6758 20.9385 40.5249C21.6092 40.5249 22.2771 40.5249 22.9477 40.5277V40.972V40.9748Z" fill="#4E8BB3"/>
<path d="M22.9481 40.9746C22.9481 40.8265 22.9481 40.6784 22.9481 40.5303C23.616 40.5303 24.2866 40.5303 24.9545 40.5303V40.9774H22.9481V40.9746Z" fill="#4B7EB3"/>
<path d="M20.9428 40.5248C20.9428 40.6757 20.9428 40.8266 20.9428 40.9775C20.3253 40.9775 19.7077 40.9775 19.0929 40.9803C19.0929 40.8266 19.0929 40.6729 19.0929 40.522C19.7105 40.522 20.3309 40.522 20.9484 40.5248H20.9428Z" fill="#54A2B3"/>
<path d="M24.9577 40.9749V40.5278C25.4048 40.5278 25.8519 40.5278 26.299 40.5278V40.9749C25.8519 40.9749 25.4048 40.9749 24.9577 40.9749Z" fill="#4973B3"/>
<path d="M31.4877 35.6487C31.007 36.012 30.5292 36.3781 30.0485 36.7414C22.9255 42.1374 12.7454 38.4069 10.8284 29.6882C10.6551 28.9058 10.6272 28.0926 10.5322 27.2934C10.6747 25.1584 11.1162 23.1073 12.2759 21.2686C14.123 18.3428 16.6464 16.3392 20.0808 15.5791L20.7598 15.4953L21.274 15.4142C24.0042 15.3024 26.6337 15.6825 28.981 17.1775C32.8234 19.6226 34.8577 23.1408 34.8047 27.6986C34.7739 30.4036 33.7428 32.8375 32.0661 34.9781C31.9795 35.0927 31.8956 35.2044 31.809 35.319V35.3078L31.6469 35.4895L31.6525 35.4811L31.4821 35.6599L31.4877 35.6543V35.6487ZM33.4158 26.2762L33.0861 24.4319C32.4182 23.0989 31.8006 21.7408 31.0629 20.4498C30.7779 19.9496 30.2218 19.6031 29.7886 19.1867C29.7831 19.1448 29.7607 19.1169 29.7216 19.1029L29.4896 18.9017C25.664 15.4841 18.9993 15.6601 15.4057 19.2733C14.0336 20.4302 13.0472 21.8442 12.5274 23.5712C12.329 24.3564 12.1334 25.1417 11.935 25.9269L11.9294 28.4587C12.1585 29.3641 12.3877 30.2695 12.6196 31.1721C13.2232 32.7928 14.1705 34.1705 15.5398 35.2463L17.3813 36.5653C20.9219 38.4851 24.4568 38.4795 27.9834 36.529C28.8944 35.8024 29.8026 35.0731 30.7136 34.3465C31.0797 33.8324 31.4457 33.3182 31.8118 32.804C32.8933 31.309 33.3543 29.61 33.4466 27.7936C33.4354 27.2878 33.4242 26.782 33.4102 26.2762H33.4158Z" fill="#F9F7F5"/>
<path d="M20.9437 12.9189C21.6116 12.6507 22.2767 12.3796 22.9446 12.1113C22.9781 13.1313 23.0116 14.1513 23.0452 15.174C22.4555 15.2523 21.8659 15.3333 21.2735 15.4116C21.103 15.4395 20.9326 15.4675 20.7593 15.4926C20.8208 14.6347 20.8823 13.7768 20.9437 12.9189Z" fill="#54A2B3"/>
<path d="M23.0411 15.1739C23.0076 14.1539 22.974 13.134 22.9405 12.1112C23.2758 11.9882 23.6084 11.8681 23.9437 11.7451L23.9269 15.227L23.0383 15.1739H23.0411Z" fill="#4E8BB3"/>
<path d="M24.6219 11.4346C24.7951 11.3731 24.9684 11.3144 25.1388 11.2529C25.1835 12.4853 25.245 13.7148 25.245 14.9472C25.245 15.0478 24.8314 15.1512 24.6107 15.2518C24.6135 13.9803 24.6163 12.706 24.6191 11.4346H24.6219Z" fill="#4973B3"/>
<path d="M24.6232 11.4346C24.6232 12.706 24.6176 13.9803 24.6148 15.2518C24.3884 15.2434 24.1621 15.235 23.9357 15.2266C23.9413 14.0669 23.9469 12.9044 23.9525 11.7447L24.626 11.4346H24.6232Z" fill="#4B7EB3"/>
<path d="M31.8063 35.3136C31.8929 35.199 31.9767 35.0872 32.0634 34.9727C31.9767 35.0872 31.8929 35.199 31.8063 35.3136Z" fill="#64C4AE"/>
<path d="M29.1408 38.3424C29.2638 38.2781 29.3867 38.2166 29.5097 38.1523C29.3867 38.2166 29.2638 38.2781 29.1408 38.3424Z" fill="#FEFFFF"/>
<path d="M31.6423 35.4839C31.6982 35.4224 31.7541 35.3637 31.81 35.3022C31.7541 35.3637 31.6982 35.4224 31.6423 35.4839Z" fill="#64C4AE"/>
<path d="M31.4783 35.6544L31.6488 35.4756L31.4783 35.6544Z" fill="#64C4AE"/>
<path d="M25.2827 8.26046C25.2408 8.19899 25.2017 8.13472 25.1598 8.07324C25.2017 8.13472 25.2408 8.19899 25.2827 8.26046Z" fill="#4973B3"/>
<path d="M13.3895 17.9347C13.6131 17.8061 13.8841 17.7251 14.0546 17.5462C15.7508 15.7913 17.6426 14.3159 19.9033 13.3462C19.962 14.0895 20.0207 14.8328 20.0822 15.5734C16.6478 16.3307 14.1244 18.3371 12.2773 21.2628C11.1148 23.1016 10.6761 25.1527 10.5336 27.2876C10.4721 27.2038 10.4106 27.12 10.3492 27.0361C10.4498 26.0441 10.4889 25.0409 10.6733 24.0657C10.8242 23.2581 11.1484 22.484 11.3943 21.6932C11.8162 20.8493 12.227 20.0025 12.6629 19.167C12.8837 18.7422 13.1492 18.3426 13.3923 17.9319L13.3895 17.9347Z" fill="#6BC5AD"/>
<path d="M29.7878 19.1866C30.2209 19.6029 30.7742 19.9494 31.062 20.4496C31.7998 21.7407 32.4201 23.1016 33.0852 24.4317C31.9507 24.7782 31.0033 24.686 30.2824 23.5543C30.0141 23.1323 29.4189 22.9171 28.9746 22.607C28.0329 21.3802 26.8592 20.4748 25.3726 19.9997C23.4332 19.3822 21.533 19.452 19.5964 20.1283C18.3976 20.5474 17.5174 21.3523 16.5757 22.1095C16.0531 22.4896 15.5054 22.8389 15.0164 23.2609C14.3457 23.8393 13.376 23.9874 12.5265 23.5654C13.0435 21.8385 14.0299 20.4245 15.4048 19.2704C16.7349 19.6197 18.0483 19.4604 19.3394 19.0943C21.6084 18.4488 23.8412 18.4516 26.1159 19.1474C27.2979 19.5107 28.561 19.6784 29.7878 19.1838V19.1866Z" fill="#E96E26"/>
<path d="M30.7166 34.349C29.8056 35.0756 28.8974 35.8049 27.9864 36.5315C27.8718 36.4644 27.7601 36.3415 27.6455 36.3387C25.7956 36.2688 23.9457 36.1794 22.0929 36.1682C20.7684 36.1598 19.4438 36.2548 18.1221 36.3303C17.8733 36.3442 17.6302 36.484 17.3843 36.565C16.7695 36.1263 16.1548 35.6848 15.5428 35.246C16.356 35.1119 17.1691 34.9778 18.0075 34.8408C18.0103 34.8325 18.069 34.7682 18.055 34.7374C17.348 33.357 17.5101 31.5518 16.0039 30.557C15.8809 30.4759 15.8306 30.2803 15.744 30.1406C15.9117 29.7494 16.0793 29.3609 16.247 28.9697C16.5264 29.2464 16.8031 29.523 17.0825 29.8025C17.2502 30.0819 17.4179 30.3641 17.5827 30.6436C17.946 32.3706 18.8542 33.7594 20.2905 34.7626C22.0902 36.0173 23.588 35.9894 25.1584 34.6704C26.4327 33.6029 27.4024 32.3007 27.7992 30.6408L27.8048 30.4648L28.6291 30.2915L29.1405 30.6408C28.8639 31.6384 28.5649 32.6276 28.3357 33.6364C28.305 33.7762 28.5844 34.1171 28.7605 34.1478C29.4032 34.2652 30.0655 34.2903 30.7194 34.3518L30.7166 34.349Z" fill="#F2C953"/>
<path d="M29.7885 19.1867C28.5617 19.6813 27.2986 19.5136 26.1166 19.1503C23.8419 18.4517 21.6092 18.4517 19.3401 19.0972C18.0519 19.4633 16.7357 19.6226 15.4055 19.2733C18.9992 15.6573 25.6639 15.4812 29.4895 18.9016L29.7214 19.1028C29.7605 19.1168 29.7829 19.1475 29.7885 19.1867Z" fill="#EA5925"/>
<path d="M15.747 30.1378C15.8309 30.2803 15.8812 30.4731 16.0069 30.5541C17.5131 31.549 17.351 33.3542 18.058 34.7346C18.072 34.7626 18.0133 34.8296 18.0105 34.838C17.1694 34.975 16.359 35.1091 15.5458 35.2432C14.1793 34.1674 13.2292 32.7897 12.6256 31.1689C12.9833 31.1577 13.3718 31.2304 13.6959 31.1158C14.2772 30.9118 15.1965 31.1773 15.244 30.1294C15.4117 30.1294 15.5794 30.1322 15.747 30.135V30.1378Z" fill="#F0BF37"/>
<path d="M33.4541 27.7935C33.3619 29.6099 32.898 31.3062 31.8193 32.804C31.3471 32.8012 30.872 32.8319 30.4053 32.7844C29.9331 32.7369 29.5586 32.5497 29.6452 31.9405C29.7291 31.3425 29.7626 30.7361 29.8185 30.1325C29.8716 29.9229 29.8548 29.6239 29.989 29.5233C30.8664 28.861 30.6792 28.0059 30.4864 27.1396C31.4197 27.6147 32.3754 27.9892 33.4569 27.7935H33.4541Z" fill="#EEAA24"/>
<path d="M17.3846 36.5653C17.6305 36.4843 17.8736 36.3445 18.1223 36.3306C19.4441 36.2551 20.7686 36.1601 22.0932 36.1685C23.9431 36.1797 25.7958 36.2691 27.6458 36.3389C27.7631 36.3445 27.8749 36.4647 27.9867 36.5318C24.4601 38.4823 20.9251 38.4879 17.3846 36.5681V36.5653Z" fill="#F2CE64"/>
<path d="M15.2403 30.1327C15.1928 31.1806 14.2734 30.9151 13.6921 31.1191C13.3708 31.2337 12.9823 31.161 12.6219 31.1722C12.3927 30.2668 12.1636 29.3614 11.9316 28.4588C12.2809 28.4588 12.633 28.4616 12.9823 28.456C13.5859 28.4448 14.1337 28.3331 14.4494 27.7183C14.5389 27.5422 14.7456 27.4277 14.8993 27.2852C14.9552 27.3997 15.0139 27.5143 15.0698 27.6289L15.2403 30.1355V30.1327Z" fill="#EEAA24"/>
<path d="M14.8993 27.2849C14.7456 27.4275 14.5389 27.542 14.4494 27.7181C14.1337 28.3328 13.5859 28.4446 12.9823 28.4558C12.633 28.4614 12.2809 28.4558 11.9316 28.4586C11.9316 27.6147 11.9344 26.7708 11.9372 25.9268C13.1891 26.1336 14.2566 25.9408 14.9357 24.6973C15.1005 24.3927 15.4638 24.1971 15.7349 23.9512C15.4554 25.0634 15.1788 26.1727 14.8993 27.2849Z" fill="#E88A28"/>
<path d="M15.7369 23.9512C15.4659 24.1971 15.1026 24.3927 14.9377 24.6973C14.2614 25.9408 13.1912 26.1336 11.9393 25.9268C12.1377 25.1416 12.3333 24.3564 12.5317 23.5711C13.3812 23.9931 14.3509 23.845 15.0215 23.2665C15.5106 22.8446 16.0583 22.4953 16.5808 22.1152C16.4691 22.3947 16.3601 22.6741 16.2483 22.9536C16.0778 23.2861 15.9074 23.6186 15.7369 23.954V23.9512Z" fill="#E67B27"/>
<path d="M29.8158 30.1323C29.7599 30.7359 29.7264 31.3395 29.6425 31.9403C29.5559 32.5495 29.9304 32.7339 30.4026 32.7842C30.8693 32.8317 31.3471 32.801 31.8166 32.8038C31.4505 33.318 31.0845 33.8322 30.7184 34.3463C30.0645 34.2849 29.405 34.2597 28.7595 34.1423C28.5834 34.1116 28.304 33.7707 28.3347 33.631C28.5667 32.625 28.8629 31.6329 29.1395 30.6353C29.3631 30.4677 29.5866 30.3 29.813 30.1323H29.8158Z" fill="#F0BF37"/>
<path d="M28.9758 22.6099C29.4201 22.92 30.0153 23.1352 30.2836 23.5572C31.0046 24.6889 31.9519 24.7811 33.0864 24.4346C33.1954 25.0494 33.3072 25.6642 33.4162 26.279C32.2202 26.4187 31.1471 26.2762 30.4485 25.1165C30.3199 24.9013 30.0321 24.7811 29.8197 24.6191C29.5375 24.063 29.2553 23.5069 28.973 22.9508L28.9786 22.6127L28.9758 22.6099Z" fill="#E67B27"/>
<path d="M29.8211 24.6162C30.0335 24.7811 30.3213 24.9013 30.4498 25.1136C31.1484 26.2733 32.2215 26.4158 33.4175 26.2761C33.4287 26.7819 33.4399 27.2877 33.4539 27.7935C32.3724 27.9891 31.4167 27.6147 30.4834 27.1396C30.3129 26.9132 30.1424 26.6869 29.972 26.4633C29.9161 26.019 29.8602 25.5719 29.8043 25.1276C29.8099 24.9571 29.8155 24.7867 29.8211 24.6162Z" fill="#E88A28"/>
<path d="M20.0802 15.5765C20.0215 14.8331 19.9628 14.0926 19.9013 13.3493C20.2478 13.2068 20.5943 13.0643 20.9436 12.9189C20.8822 13.7768 20.8207 14.6347 20.7592 15.4926C20.5328 15.5206 20.3065 15.5485 20.0802 15.5765Z" fill="#5BBBB3"/>
<path d="M29.7198 19.1026L29.4878 18.9014L29.7198 19.1026Z" fill="#E96E26"/>
<path d="M28.9787 22.6096C28.9787 22.7214 28.9759 22.8359 28.9731 22.9477C28.3052 22.428 27.6932 21.816 26.9639 21.4024C23.8537 19.6419 20.791 19.8459 17.8261 21.788C17.2812 22.1457 16.7698 22.5593 16.2444 22.9477C16.3562 22.6683 16.4652 22.3888 16.577 22.1094C17.5187 21.3521 18.3989 20.5473 19.5977 20.1281C21.5343 19.4519 23.4345 19.3792 25.3738 19.9996C26.8605 20.4746 28.0369 21.38 28.9759 22.6068L28.9787 22.6096Z" fill="#EC7B35"/>
<path d="M28.6281 30.286C28.3542 30.3447 28.0776 30.4034 27.8037 30.4592C27.9602 29.8501 28.1614 29.2493 28.2592 28.6317C28.3458 28.084 28.4185 27.486 27.7953 27.1339L27.6305 26.6225C27.2532 23.8225 24.9143 22.2799 22.4496 22.3163C20.1945 22.3498 18.3362 24.0041 17.7493 26.1223C17.6906 26.6812 17.6348 27.2401 17.5761 27.7989C17.3749 28.1091 17.0843 28.397 16.9976 28.7351C16.9138 29.0592 17.0423 29.4393 17.0787 29.7942C16.7992 29.5175 16.5226 29.2409 16.2431 28.9614C16.2375 28.1762 16.2347 27.3938 16.2292 26.6085L16.4024 25.9406C16.5729 25.7227 16.7601 25.5159 16.9054 25.2812C17.2827 24.6748 17.5397 23.9594 18.0204 23.4592C19.6523 21.7574 21.5917 20.9665 24.0089 21.5757C26.1857 22.1234 27.7674 23.2217 28.3514 25.5019C28.5498 26.276 28.8712 27.0193 29.1367 27.7766L28.6253 30.2832L28.6281 30.286Z" fill="#EFAD6D"/>
<path d="M27.7955 27.1367C28.4187 27.4888 28.346 28.0868 28.2594 28.6345C28.1616 29.2521 27.9604 29.8529 27.8039 30.4621C27.8039 30.5208 27.8011 30.5795 27.7983 30.6381C27.5245 30.8505 27.2171 31.0322 26.9852 31.2809C26.538 31.7671 26.1776 32.3372 25.7053 32.7955C23.6318 34.7963 20.7759 34.4414 19.0462 32.2477C18.599 31.6805 18.0709 31.1747 17.5819 30.6409C17.4142 30.3615 17.2465 30.0793 17.0817 29.7998C17.0453 29.4449 16.9168 29.0649 17.0006 28.7407C17.0872 28.3998 17.3779 28.1148 17.5791 27.8018C17.8473 29.2912 18.4342 30.5208 19.6022 31.6302C22.5196 34.405 25.9261 32.3372 27.1165 29.7272C27.4826 28.9252 27.5776 28.003 27.7983 27.1367H27.7955Z" fill="#F5D172"/>
<path d="M17.5829 30.641C18.0747 31.1747 18.6 31.6805 19.0471 32.2478C20.7769 34.4442 23.6328 34.7963 25.7063 32.7955C26.1785 32.34 26.539 31.7671 26.9861 31.2809C27.2181 31.0294 27.5255 30.8506 27.7993 30.6382C27.4025 32.2953 26.4328 33.6003 25.1586 34.6678C23.5881 35.9839 22.0875 36.0119 20.2907 34.76C18.8543 33.7596 17.9433 32.3679 17.5829 30.641Z" fill="#F2CE64"/>
<path d="M28.6298 30.286C28.8003 29.4505 28.9707 28.615 29.1412 27.7794C29.3089 27.609 29.5129 27.4609 29.633 27.2625C29.7811 27.0165 29.8622 26.7287 29.9711 26.4604C30.1416 26.6868 30.3121 26.9132 30.4825 27.1367C30.6753 28.003 30.8654 28.8581 29.9851 29.5204C29.851 29.621 29.8678 29.9228 29.8147 30.1295C29.5911 30.2972 29.3675 30.4649 29.1412 30.6326C28.9707 30.5152 28.8003 30.3978 28.6298 30.2832V30.286Z" fill="#EEAC46"/>
<path d="M16.2324 26.6143C16.238 27.3995 16.2408 28.1819 16.2464 28.9672C16.0787 29.3584 15.9111 29.7468 15.7434 30.138C15.5757 30.138 15.4081 30.1352 15.2404 30.1325C15.1845 29.2969 15.1286 28.4614 15.0699 27.6258C15.2376 27.4721 15.4053 27.3185 15.5757 27.1703C15.7909 26.9831 16.0117 26.7987 16.2324 26.6143Z" fill="#EEAC46"/>
<path d="M16.2313 26.6143C16.0133 26.7988 15.7926 26.9832 15.5746 27.1704C15.4041 27.3185 15.2365 27.475 15.0688 27.6259C15.0129 27.5113 14.9542 27.3968 14.8983 27.2822C15.1778 26.17 15.4544 25.0606 15.7339 23.9484C15.9043 23.6159 16.0748 23.2834 16.2453 22.948C16.7706 22.5596 17.2792 22.146 17.8269 21.7883C20.7918 19.8462 23.8545 19.6422 26.9647 21.4027C27.6913 21.8163 28.3061 22.4283 28.9739 22.948C29.2562 23.5041 29.5384 24.0602 29.8206 24.6163C29.8151 24.7868 29.8095 24.9572 29.8039 25.1277C29.6893 25.0271 29.5524 24.9433 29.4685 24.8231C28.6162 23.6159 27.6522 22.5736 26.3192 21.8191C24.8577 20.9919 23.3348 20.8047 21.7503 20.9556C18.8832 21.2295 16.7119 22.8726 16.4073 25.9493L16.2341 26.6171L16.2313 26.6143Z" fill="#EC8844"/>
<path d="M16.4046 25.9465C16.7092 22.8698 18.8804 21.2267 21.7475 20.9528C23.3348 20.8019 24.8577 20.9892 26.3164 21.8163C27.6494 22.5708 28.6107 23.6132 29.4658 24.8203C29.5524 24.9405 29.6893 25.0243 29.8011 25.1249C29.857 25.5693 29.9129 26.0164 29.9688 26.4607C29.8598 26.7289 29.7788 27.0168 29.6306 27.2627C29.5105 27.4611 29.3065 27.6092 29.1388 27.7797C28.8734 27.0224 28.552 26.279 28.3536 25.505C27.7696 23.2247 26.1879 22.1265 24.011 21.5788C21.5938 20.9724 19.6545 21.7632 18.0226 23.4623C17.5419 23.9653 17.2848 24.6778 16.9076 25.2842C16.7623 25.519 16.5722 25.7257 16.4046 25.9437V25.9465Z" fill="#EE975A"/>
<path d="M27.7983 27.1369C27.5775 28.0032 27.4825 28.9281 27.1165 29.7273C25.926 32.3374 22.5196 34.4052 19.6022 31.6304C18.4341 30.521 17.8473 29.2914 17.579 27.802C17.6377 27.2431 17.6936 26.6842 17.7523 26.1253C17.9758 26.0694 18.1994 26.0163 18.423 25.9604C18.3866 26.2595 18.3224 26.5585 18.3196 26.8603C18.314 27.4052 18.1519 28.0703 18.4006 28.4754C19.2278 29.8363 20.435 30.8675 22.0473 31.1106C24.2717 31.4459 27.3093 29.6687 27.1332 26.6227H27.6362L27.8011 27.1313L27.7983 27.1369Z" fill="#F3C886"/>
<path d="M27.6346 26.6253C27.4669 26.6253 27.2992 26.6254 27.1316 26.6281C27.0142 26.2956 26.9248 25.9491 26.7711 25.6333C25.9048 23.8281 24.2337 22.8389 22.2748 22.9535C20.668 23.0457 18.9495 24.387 18.4213 25.9631C18.1978 26.019 17.9742 26.0721 17.7506 26.1279C18.3375 24.0098 20.1958 22.3554 22.4509 22.3219C24.9156 22.2856 27.2545 23.8281 27.6318 26.6281L27.6346 26.6253Z" fill="#F1B584"/>
<path d="M18.42 25.963C18.9481 24.3869 20.6639 23.0456 22.2735 22.9534C24.2324 22.8416 25.9035 23.8308 26.7698 25.6332C26.9207 25.949 27.0101 26.2955 27.1303 26.6281C27.3091 29.674 24.2716 31.4513 22.0444 31.1159C20.432 30.8728 19.2248 29.8389 18.3976 28.4808C18.1517 28.0756 18.3138 27.4105 18.3166 26.8656C18.3166 26.5666 18.3837 26.2648 18.42 25.9658V25.963ZM22.6396 30.4704C24.1961 30.4704 26.0097 29.0564 25.9287 27.7961C25.8085 25.9211 24.4588 24.3087 22.743 24.2556C21.1921 24.2081 19.5462 25.5829 19.4372 27.9107C19.3813 29.1263 21.0747 30.4676 22.6368 30.4704H22.6396Z" fill="#F5CE9B"/>
<path d="M22.641 30.4704C21.0789 30.4704 19.3827 29.1263 19.4414 27.9107C19.5504 25.5801 21.1963 24.2081 22.7472 24.2556C24.463 24.3087 25.8127 25.9211 25.9329 27.7961C26.0139 29.0564 24.2003 30.4704 22.6438 30.4704H22.641ZM22.6746 29.1347C23.7364 29.1431 24.7592 28.1454 24.7844 27.0752C24.8067 26.1083 23.6079 24.9458 22.5963 24.9542C21.6937 24.9626 20.5899 26.1251 20.5983 27.0612C20.6067 28.1622 21.5735 29.1263 22.6774 29.1347H22.6746Z" fill="#F6D7B9"/>
<path d="M22.6744 29.1346C21.5706 29.1262 20.6066 28.1622 20.5954 27.0611C20.587 26.125 21.6908 24.9625 22.5934 24.9541C23.605 24.9458 24.8038 26.1082 24.7815 27.0751C24.7563 28.1426 23.7335 29.1402 22.6717 29.1346H22.6744ZM22.6046 25.9573C21.8193 25.9573 21.294 26.4995 21.2744 27.3294C21.2605 27.8995 22.0429 28.6177 22.68 28.6232C23.3088 28.6288 24.08 27.9246 24.1024 27.3238C24.1276 26.6839 23.3311 25.9546 22.6046 25.9546V25.9573Z" fill="#F9E7D2"/>
<path d="M22.6044 25.9604C23.331 25.9604 24.1274 26.687 24.1022 27.3297C24.0799 27.9305 23.3086 28.6347 22.6799 28.6291C22.0427 28.6235 21.2603 27.9026 21.2743 27.3353C21.2938 26.5054 21.8192 25.9632 22.6044 25.9632V25.9604Z" fill="#F9F7F5"/>
<path d="M89.2138 18.6847V30.0441H84.6617V11.0419C86.084 11.0419 87.4952 11.0168 88.9064 11.0671C89.1244 11.0755 89.3926 11.3912 89.5268 11.6288C91.5332 15.1302 93.52 18.64 95.5125 22.147C95.6019 22.3035 95.7053 22.4544 95.9149 22.7842V11.1062H100.408V30.0944C98.9887 30.0944 97.5999 30.1196 96.2167 30.0693C96.0015 30.0609 95.7304 29.7507 95.5963 29.516C93.5927 26.0145 91.6058 22.5019 89.6162 18.9949C89.5491 18.8775 89.4709 18.7658 89.3982 18.6512L89.2138 18.6847Z" fill="#6BC5AD"/>
<path d="M168.474 11.0727V19.3443C169.759 17.4608 170.925 15.7506 172.087 14.0404C172.652 13.2133 173.18 12.361 173.789 11.5674C173.987 11.3075 174.39 11.0672 174.705 11.056C176.323 11.0057 177.941 11.0336 179.763 11.0336C177.584 13.9091 175.485 16.6784 173.372 19.4644C175.485 22.9743 177.589 26.4673 179.772 30.0917C177.978 30.0917 176.318 30.1085 174.661 30.0693C174.465 30.0637 174.219 29.7871 174.096 29.5803C172.937 27.5851 171.799 25.5787 170.656 23.5751C170.564 23.413 170.463 23.2565 170.315 23.0134C169.709 23.6812 169.133 24.2765 168.611 24.9136C168.477 25.0785 168.465 25.3775 168.463 25.615C168.449 27.0625 168.457 28.51 168.457 30.0274H163.916V11.0783H168.471L168.474 11.0727Z" fill="#4766B0"/>
<path d="M138.627 30.0441V10.8994C141.435 11.0447 144.249 10.9274 146.962 11.3912C150.534 12.0032 153.08 15.1833 153.384 18.7993C153.583 21.1466 153.535 23.48 152.375 25.6233C150.945 28.2724 148.675 29.7926 145.694 30.0078C143.366 30.1755 141.016 30.0413 138.627 30.0413V30.0441ZM143.198 26.5734C143.741 26.5734 144.213 26.5846 144.682 26.5734C146.538 26.5231 147.739 25.7043 148.351 23.9634C148.916 22.3594 148.891 20.6911 148.748 19.0145C148.466 15.65 146.624 14.1689 143.198 14.6551V26.5762V26.5734Z" fill="#4766B0"/>
<path d="M123.675 11.0615H136.675V14.563H128.266V18.5506H135.319V22.0241H128.266V26.5623H136.624V30.0497H123.675V11.0615Z" fill="#4867B0"/>
<path d="M117.131 11.0586H122.2C120.076 17.4131 117.966 23.7202 115.848 30.0552H110.843C108.747 23.7621 106.646 17.4439 104.525 11.0726H109.577C110.798 15.566 112.022 20.0595 113.243 24.5529L113.428 24.5921C114.655 20.1014 115.884 15.6135 117.128 11.0614L117.131 11.0586Z" fill="#4766B0"/>
<path d="M66.5944 22.5408V30.0243H61.9919V11.0864H74.592V14.5515H66.6335V18.8857C66.9213 18.9025 67.2147 18.9332 67.5053 18.9332C69.3748 18.9388 71.2443 18.9639 73.111 18.922C73.7956 18.9053 73.9968 19.1456 73.9521 19.7883C73.9074 20.4534 73.913 21.124 73.9521 21.7919C73.9856 22.3843 73.7537 22.5604 73.1753 22.552C71.3058 22.5241 69.4391 22.5408 67.5696 22.5408C67.2706 22.5408 66.9744 22.5408 66.5944 22.5408Z" fill="#6BC5AD"/>
<path d="M76.9208 11.0615H81.4086V30.0413H76.9208V11.0615Z" fill="#6BC5AD"/>
<path d="M156.19 11.0615H160.636V30.033H156.19V11.0615Z" fill="#4867B0"/>
</svg>
