<svg width="27" height="27" viewBox="0 0 27 27" fill="none" xmlns="http://www.w3.org/2000/svg">
<path d="M19.8941 17.5836H18.6762L18.2446 17.1674C19.208 16.048 19.9122 14.7296 20.3066 13.3064C20.7011 11.8832 20.7761 10.3904 20.5262 8.93485C19.8016 4.64902 16.225 1.22652 11.9083 0.70235C10.3907 0.510359 8.84932 0.668081 7.40206 1.16345C5.9548 1.65881 4.64004 2.47869 3.55839 3.56034C2.47673 4.64199 1.65686 5.95675 1.16149 7.40401C0.666128 8.85127 0.508406 10.3927 0.700397 11.9103C1.22456 16.2269 4.64706 19.8036 8.9329 20.5282C10.3885 20.778 11.8813 20.703 13.3045 20.3086C14.7277 19.9141 16.0461 19.21 17.1654 18.2465L17.5816 18.6782V19.8961L24.1337 26.4482C24.7658 27.0803 25.7987 27.0803 26.4308 26.4482C27.0629 25.8161 27.0629 24.7832 26.4308 24.1511L19.8941 17.5836ZM10.6441 17.5836C6.8054 17.5836 3.70665 14.4848 3.70665 10.6461C3.70665 6.80735 6.8054 3.7086 10.6441 3.7086C14.4829 3.7086 17.5816 6.80735 17.5816 10.6461C17.5816 14.4848 14.4829 17.5836 10.6441 17.5836Z" fill="#353638"/>
</svg>
