<svg width="160" height="160" viewBox="0 0 160 160" fill="none" xmlns="http://www.w3.org/2000/svg">
<g filter="url(#filter0_d_1_7745)">
<path d="M92.5714 64H67.4286C66.5193 64 65.6472 64.3612 65.0042 65.0042C64.3612 65.6472 64 66.5193 64 67.4286V92.5714C64 93.4807 64.3612 94.3528 65.0042 94.9958C65.6472 95.6388 66.5193 96 67.4286 96H92.5714C93.4807 96 94.3528 95.6388 94.9958 94.9958C95.6388 94.3528 96 93.4807 96 92.5714V67.4286C96 66.5193 95.6388 65.6472 94.9958 65.0042C94.3528 64.3612 93.4807 64 92.5714 64ZM84.5714 93.7143V75.4286H66.2857V73.1429H84.5714V66.2857H86.8571V93.7143H84.5714Z" fill="#6E78E1"/>
</g>
<defs>
<filter id="filter0_d_1_7745" x="0" y="0" width="160" height="160" filterUnits="userSpaceOnUse" color-interpolation-filters="sRGB">
<feFlood flood-opacity="0" result="BackgroundImageFix"/>
<feColorMatrix in="SourceAlpha" type="matrix" values="0 0 0 0 0 0 0 0 0 0 0 0 0 0 0 0 0 0 127 0" result="hardAlpha"/>
<feOffset/>
<feGaussianBlur stdDeviation="32"/>
<feComposite in2="hardAlpha" operator="out"/>
<feColorMatrix type="matrix" values="0 0 0 0 0.431373 0 0 0 0 0.470588 0 0 0 0 0.882353 0 0 0 1 0"/>
<feBlend mode="normal" in2="BackgroundImageFix" result="effect1_dropShadow_1_7745"/>
<feBlend mode="normal" in="SourceGraphic" in2="effect1_dropShadow_1_7745" result="shape"/>
</filter>
</defs>
</svg>
