<svg width="160" height="160" viewBox="0 0 160 160" fill="none" xmlns="http://www.w3.org/2000/svg">
<g filter="url(#filter0_d_1_7432)">
<path d="M64.8714 90.6403C64.4555 91.0554 64.1721 91.5846 64.0573 92.1608C63.9424 92.7371 64.0012 93.3345 64.2262 93.8773C64.4511 94.4202 64.8322 94.884 65.321 95.2101C65.8099 95.5361 66.3845 95.7098 66.9721 95.7089C67.3623 95.7097 67.7487 95.6332 68.1092 95.4841C68.4698 95.3349 68.7972 95.1159 69.0728 94.8398L78.8241 85.0885L74.6226 80.889L64.8714 90.6403ZM89.2426 72.5673L93.4857 70.3715L95.7111 66.073L93.6381 64L89.3396 66.2255L87.1439 70.4685L81.9722 75.6401L84.071 77.7389L89.2426 72.5673ZM90.1712 83.8391C90.0366 83.8312 89.9079 83.7995 89.7713 83.7995C89.0466 83.7995 88.3596 83.948 87.718 84.1856L75.5255 71.9931C75.7631 71.3516 75.9116 70.6645 75.9116 69.9399C75.9116 69.8032 75.8799 69.6745 75.872 69.5399C75.6621 66.4492 73.1159 64 69.9717 64C69.057 64 68.1997 64.2237 67.4255 64.594L71.3716 68.54C71.5795 68.7479 71.722 68.9934 71.817 69.2528C72.0764 69.9557 71.9358 70.7734 71.3716 71.3397C70.9855 71.7258 70.4786 71.9198 69.9717 71.9198C69.7381 71.9198 69.5064 71.8683 69.2847 71.7852C69.0177 71.6899 68.7746 71.5379 68.5719 71.3397L64.6259 67.3936C64.2392 68.187 64.0362 69.0573 64.0319 69.9399C64.0319 73.084 66.4811 75.6302 69.5718 75.8401C69.7064 75.848 69.8351 75.8797 69.9717 75.8797C70.6964 75.8797 71.3834 75.7312 72.0249 75.4936L84.2175 87.6862C83.9675 88.3421 83.8367 89.0375 83.8314 89.7394C83.8314 89.876 83.8631 90.0047 83.871 90.1393C84.0809 93.23 86.6271 95.6793 89.7713 95.6793C90.686 95.6793 91.5433 95.4555 92.3175 95.0853L88.3714 91.1392C88.1726 90.9371 88.0205 90.6938 87.9259 90.4264C87.7927 90.0724 87.7638 89.6876 87.8428 89.3177C87.9217 88.9478 88.1052 88.6083 88.3714 88.3396C88.7575 87.9535 89.2644 87.7594 89.7713 87.7594C90.0049 87.7594 90.2365 87.8109 90.4583 87.8941C90.7177 87.9911 90.9632 88.1317 91.1711 88.3396L95.1171 92.2856C95.4874 91.5114 95.7111 90.6541 95.7111 89.7394C95.7111 86.5952 93.2619 84.049 90.1712 83.8391Z" fill="#69D8FA"/>
</g>
<defs>
<filter id="filter0_d_1_7432" x="0" y="0" width="159.711" height="159.709" filterUnits="userSpaceOnUse" color-interpolation-filters="sRGB">
<feFlood flood-opacity="0" result="BackgroundImageFix"/>
<feColorMatrix in="SourceAlpha" type="matrix" values="0 0 0 0 0 0 0 0 0 0 0 0 0 0 0 0 0 0 127 0" result="hardAlpha"/>
<feOffset/>
<feGaussianBlur stdDeviation="32"/>
<feComposite in2="hardAlpha" operator="out"/>
<feColorMatrix type="matrix" values="0 0 0 0 0.411765 0 0 0 0 0.847059 0 0 0 0 0.980392 0 0 0 1 0"/>
<feBlend mode="normal" in2="BackgroundImageFix" result="effect1_dropShadow_1_7432"/>
<feBlend mode="normal" in="SourceGraphic" in2="effect1_dropShadow_1_7432" result="shape"/>
</filter>
</defs>
</svg>
