<svg width="168" height="168" viewBox="0 0 168 168" fill="none" xmlns="http://www.w3.org/2000/svg">
<g filter="url(#filter0_d_1_7813)">
<path d="M83.9972 93.9996C83.6682 94.0015 83.3421 93.9384 83.0375 93.814C82.7329 93.6896 82.4558 93.5063 82.2222 93.2746L72.2222 83.2746C71.8127 82.7963 71.5987 82.1811 71.623 81.5519C71.6473 80.9228 71.9081 80.3259 72.3533 79.8807C72.7986 79.4354 73.3954 79.1746 74.0246 79.1503C74.6538 79.126 75.269 79.34 75.7472 79.7496L83.9972 87.9746L92.2222 79.7496C92.7005 79.34 93.3157 79.126 93.9449 79.1503C94.5741 79.1746 95.1709 79.4354 95.6161 79.8807C96.0614 80.3259 96.3222 80.9228 96.3465 81.5519C96.3708 82.1811 96.1568 82.7963 95.7472 83.2746L85.7472 93.2746C85.2816 93.7364 84.6531 93.9968 83.9972 93.9996Z" fill="#4464B2"/>
<path d="M84 94C83.337 94 82.7011 93.7366 82.2322 93.2678C81.7634 92.7989 81.5 92.163 81.5 91.5V66.5C81.5 65.837 81.7634 65.2011 82.2322 64.7322C82.7011 64.2634 83.337 64 84 64C84.663 64 85.2989 64.2634 85.7678 64.7322C86.2366 65.2011 86.5 65.837 86.5 66.5V91.5C86.5 92.163 86.2366 92.7989 85.7678 93.2678C85.2989 93.7366 84.663 94 84 94ZM101.5 104H66.5C65.837 104 65.2011 103.737 64.7322 103.268C64.2634 102.799 64 102.163 64 101.5C64 100.837 64.2634 100.201 64.7322 99.7322C65.2011 99.2634 65.837 99 66.5 99H101.5C102.163 99 102.799 99.2634 103.268 99.7322C103.737 100.201 104 100.837 104 101.5C104 102.163 103.737 102.799 103.268 103.268C102.799 103.737 102.163 104 101.5 104Z" fill="#4464B2"/>
</g>
<defs>
<filter id="filter0_d_1_7813" x="0" y="0" width="168" height="168" filterUnits="userSpaceOnUse" color-interpolation-filters="sRGB">
<feFlood flood-opacity="0" result="BackgroundImageFix"/>
<feColorMatrix in="SourceAlpha" type="matrix" values="0 0 0 0 0 0 0 0 0 0 0 0 0 0 0 0 0 0 127 0" result="hardAlpha"/>
<feOffset/>
<feGaussianBlur stdDeviation="32"/>
<feComposite in2="hardAlpha" operator="out"/>
<feColorMatrix type="matrix" values="0 0 0 0 0.266667 0 0 0 0 0.392157 0 0 0 0 0.698039 0 0 0 1 0"/>
<feBlend mode="normal" in2="BackgroundImageFix" result="effect1_dropShadow_1_7813"/>
<feBlend mode="normal" in="SourceGraphic" in2="effect1_dropShadow_1_7813" result="shape"/>
</filter>
</defs>
</svg>
