<svg width="48" height="48" viewBox="0 0 48 48" fill="none" xmlns="http://www.w3.org/2000/svg">
<path d="M24 0C10.7464 0 0 10.7464 0 24C0 37.2536 10.7464 48 24 48C37.2536 48 48 37.2536 48 24C48 10.7464 37.2536 0 24 0ZM31.7196 24.3696L20.0196 32.8821C19.9555 32.9282 19.8799 32.9558 19.8011 32.9617C19.7224 32.9676 19.6435 32.9517 19.5732 32.9157C19.5029 32.8797 19.4438 32.825 19.4026 32.7577C19.3613 32.6903 19.3394 32.6129 19.3393 32.5339V15.5196C19.339 15.4405 19.3607 15.3628 19.4019 15.2952C19.4431 15.2277 19.5021 15.1728 19.5726 15.1367C19.643 15.1007 19.7221 15.0848 19.801 15.091C19.8799 15.0971 19.9556 15.1249 20.0196 15.1714L31.7196 23.6786C31.7749 23.7177 31.82 23.7694 31.8511 23.8296C31.8822 23.8897 31.8985 23.9564 31.8985 24.0241C31.8985 24.0918 31.8822 24.1585 31.8511 24.2186C31.82 24.2788 31.7749 24.3306 31.7196 24.3696Z" fill="white"/>
<path d="M32.8006 24.3842L19.7584 33.9097C19.6869 33.9612 19.6026 33.992 19.5148 33.9986C19.427 34.0053 19.3391 33.9875 19.2607 33.9472C19.1824 33.9069 19.1165 33.8458 19.0706 33.7704C19.0246 33.695 19.0001 33.6084 19 33.52V14.4811C18.9997 14.3926 19.0239 14.3057 19.0698 14.23C19.1157 14.1544 19.1815 14.093 19.2601 14.0527C19.3386 14.0123 19.4267 13.9946 19.5147 14.0014C19.6027 14.0083 19.687 14.0395 19.7584 14.0915L32.8006 23.6109C32.8622 23.6547 32.9125 23.7126 32.9472 23.7799C32.9819 23.8472 33 23.9218 33 23.9976C33 24.0733 32.9819 24.148 32.9472 24.2153C32.9125 24.2825 32.8622 24.3405 32.8006 24.3842Z" fill="#4464B2"/>
</svg>
