<svg width="88" height="76" viewBox="0 0 88 76" fill="none" xmlns="http://www.w3.org/2000/svg">
<g filter="url(#filter0_d_50_39)">
<path d="M40.2878 43.8906H33.1784C32.9609 43.8906 32.7522 43.977 32.5984 44.1309C32.4445 44.2847 32.3581 44.4934 32.3581 44.7109C32.3581 44.9285 32.4445 45.1371 32.5984 45.291C32.7522 45.4448 32.9609 45.5312 33.1784 45.5312H40.2878C40.5054 45.5312 40.714 45.4448 40.8679 45.291C41.0217 45.1371 41.1081 44.9285 41.1081 44.7109C41.1081 44.4934 41.0217 44.2847 40.8679 44.1309C40.714 43.977 40.5054 43.8906 40.2878 43.8906ZM39.1941 49.5781H22.0714C21.8538 49.5781 21.6452 49.6646 21.4914 49.8184C21.3375 49.9722 21.2511 50.1809 21.2511 50.3984C21.2511 50.616 21.3375 50.8246 21.4914 50.9785C21.6452 51.1323 21.8538 51.2188 22.0714 51.2188H39.1963C39.4138 51.2188 39.6225 51.1323 39.7763 50.9785C39.9301 50.8246 40.0166 50.616 40.0166 50.3984C40.0166 50.1809 39.9301 49.9722 39.7763 49.8184C39.6225 49.6646 39.4138 49.5781 39.1963 49.5781H39.1941ZM29.2158 43.8906H22.1064C21.8888 43.8906 21.6802 43.977 21.5264 44.1309C21.3725 44.2847 21.2861 44.4934 21.2861 44.7109C21.2861 44.9285 21.3725 45.1371 21.5264 45.291C21.6802 45.4448 21.8888 45.5312 22.1064 45.5312H29.2158C29.4333 45.5312 29.642 45.4448 29.7958 45.291C29.9497 45.1371 30.0361 44.9285 30.0361 44.7109C30.0361 44.4934 29.9497 44.2847 29.7958 44.1309C29.642 43.977 29.4333 43.8906 29.2158 43.8906ZM23.1641 38.6406H28.6328C29.1403 38.64 29.6268 38.4382 29.9856 38.0794C30.3445 37.7205 30.5463 37.234 30.5469 36.7266V33.3359C30.5463 32.8285 30.3445 32.342 29.9856 31.9831C29.6268 31.6243 29.1403 31.4225 28.6328 31.4219H23.1641C22.6566 31.4225 22.1701 31.6243 21.8113 31.9831C21.4524 32.342 21.2506 32.8285 21.25 33.3359V36.7266C21.2506 37.234 21.4524 37.7205 21.8113 38.0794C22.1701 38.4382 22.6566 38.64 23.1641 38.6406ZM22.8906 33.3359C22.8906 33.2634 22.9194 33.1939 22.9707 33.1426C23.022 33.0913 23.0915 33.0625 23.1641 33.0625H28.6328C28.7053 33.0625 28.7749 33.0913 28.8262 33.1426C28.8774 33.1939 28.9062 33.2634 28.9062 33.3359V36.7266C28.9062 36.7991 28.8774 36.8686 28.8262 36.9199C28.7749 36.9712 28.7053 37 28.6328 37H23.1641C23.0915 37 23.022 36.9712 22.9707 36.9199C22.9194 36.8686 22.8906 36.7991 22.8906 36.7266V33.3359ZM31.4766 52.8594H22.1086C21.891 52.8594 21.6824 52.9458 21.5285 53.0996C21.3747 53.2535 21.2883 53.4621 21.2883 53.6797C21.2883 53.8972 21.3747 54.1059 21.5285 54.2597C21.6824 54.4136 21.891 54.5 22.1086 54.5H31.4766C31.6941 54.5 31.9028 54.4136 32.0566 54.2597C32.2104 54.1059 32.2969 53.8972 32.2969 53.6797C32.2969 53.4621 32.2104 53.2535 32.0566 53.0996C31.9028 52.9458 31.6941 52.8594 31.4766 52.8594ZM51.3587 43.8906H44.2494C44.0318 43.8906 43.8232 43.977 43.6693 44.1309C43.5155 44.2847 43.4291 44.4934 43.4291 44.7109C43.4291 44.9285 43.5155 45.1371 43.6693 45.291C43.8232 45.4448 44.0318 45.5312 44.2494 45.5312H51.3587C51.5763 45.5312 51.785 45.4448 51.9388 45.291C52.0926 45.1371 52.1791 44.9285 52.1791 44.7109C52.1791 44.4934 52.0926 44.2847 51.9388 44.1309C51.785 43.977 51.5763 43.8906 51.3587 43.8906ZM61.3359 31.4219H49.1953C48.6879 31.4225 48.2013 31.6243 47.8425 31.9831C47.4837 32.342 47.2818 32.8285 47.2812 33.3359V34.6484C47.2818 35.1559 47.4837 35.6424 47.8425 36.0012C48.2013 36.3601 48.6879 36.5619 49.1953 36.5625H61.3359C61.8434 36.5619 62.3299 36.3601 62.6887 36.0012C63.0476 35.6424 63.2494 35.1559 63.25 34.6484V33.3359C63.2494 32.8285 63.0476 32.342 62.6887 31.9831C62.3299 31.6243 61.8434 31.4225 61.3359 31.4219ZM61.6094 34.6484C61.6094 34.721 61.5806 34.7905 61.5293 34.8418C61.478 34.8931 61.4085 34.9219 61.3359 34.9219H49.1953C49.1228 34.9219 49.0532 34.8931 49.002 34.8418C48.9507 34.7905 48.9219 34.721 48.9219 34.6484V33.3359C48.9219 33.2634 48.9507 33.1939 49.002 33.1426C49.0532 33.0913 49.1228 33.0625 49.1953 33.0625H61.3359C61.4085 33.0625 61.478 33.0913 61.5293 33.1426C61.5806 33.1939 61.6094 33.2634 61.6094 33.3359V34.6484ZM67.8984 16H23.6016C22.5141 16.0012 21.4715 16.4337 20.7026 17.2026C19.9337 17.9715 19.5012 19.0141 19.5 20.1016V26.5448C18.5276 26.6902 17.6396 27.1795 16.9974 27.9239C16.3551 28.6683 16.0012 29.6184 16 30.6016V55.3203C16.0012 56.4078 16.4337 57.4503 17.2026 58.2193C17.9715 58.9882 19.0141 59.4207 20.1016 59.4219H64.3984C65.4859 59.4207 66.5285 58.9882 67.2974 58.2193C68.0663 57.4503 68.4988 56.4078 68.5 55.3203V48.877C69.4724 48.7317 70.3604 48.2424 71.0026 47.498C71.6449 46.7536 71.9988 45.8035 72 44.8203V20.1016C71.9988 19.0141 71.5663 17.9715 70.7974 17.2026C70.0285 16.4337 68.9859 16.0012 67.8984 16ZM66.8594 55.3203C66.8588 55.9728 66.5993 56.5984 66.1379 57.0598C65.6766 57.5212 65.0509 57.7807 64.3984 57.7812H20.1016C19.4491 57.7807 18.8234 57.5212 18.3621 57.0598C17.9007 56.5984 17.6412 55.9728 17.6406 55.3203V30.6016C17.6412 29.9491 17.9007 29.3234 18.3621 28.8621C18.8234 28.4007 19.4491 28.1412 20.1016 28.1406H64.3984C65.0509 28.1412 65.6766 28.4007 66.1379 28.8621C66.5993 29.3234 66.8588 29.9491 66.8594 30.6016V55.3203ZM70.3594 44.8203C70.3587 45.3682 70.1755 45.9002 69.8388 46.3323C69.5021 46.7645 69.031 47.0722 68.5 47.2069V30.6016C68.5 30.5097 68.5 30.4189 68.4902 30.3281H70.3594V44.8203ZM70.3594 28.6875H68.0242C67.6757 28.0278 67.154 27.4755 66.5152 27.0901C65.8763 26.7047 65.1445 26.5007 64.3984 26.5H21.1406V23.3281H70.3594V28.6875ZM70.3594 21.6875H21.1406V20.1016C21.1412 19.4491 21.4007 18.8234 21.8621 18.3621C22.3234 17.9007 22.9491 17.6412 23.6016 17.6406H67.8984C68.5509 17.6412 69.1766 17.9007 69.6379 18.3621C70.0993 18.8234 70.3588 19.4491 70.3594 20.1016V21.6875ZM62.4297 43.8906H55.3203C55.1028 43.8906 54.8941 43.977 54.7403 44.1309C54.5864 44.2847 54.5 44.4934 54.5 44.7109C54.5 44.9285 54.5864 45.1371 54.7403 45.291C54.8941 45.4448 55.1028 45.5312 55.3203 45.5312H62.4297C62.6472 45.5312 62.8559 45.4448 63.0097 45.291C63.1636 45.1371 63.25 44.9285 63.25 44.7109C63.25 44.4934 63.1636 44.2847 63.0097 44.1309C62.8559 43.977 62.6472 43.8906 62.4297 43.8906ZM59.9688 48.9219C59.3929 48.9209 58.827 49.0718 58.3281 49.3594C57.8293 49.0722 57.2636 48.9213 56.688 48.9219C56.1124 48.9224 55.547 49.0744 55.0487 49.3625C54.5504 49.6507 54.1366 50.0648 53.849 50.5634C53.5613 51.062 53.4099 51.6275 53.4099 52.2031C53.4099 52.7787 53.5613 53.3442 53.849 53.8428C54.1366 54.3414 54.5504 54.7556 55.0487 55.0437C55.547 55.3318 56.1124 55.4838 56.688 55.4844C57.2636 55.4849 57.8293 55.334 58.3281 55.0469C58.764 55.2978 59.2518 55.4452 59.7537 55.4776C60.2556 55.51 60.7583 55.4265 61.2229 55.2337C61.6874 55.0409 62.1014 54.7439 62.4329 54.3657C62.7644 53.9874 63.0045 53.5379 63.1346 53.0521C63.2648 52.5663 63.2815 52.057 63.1834 51.5637C63.0854 51.0703 62.8753 50.6062 62.5693 50.207C62.2633 49.8078 61.8697 49.4843 61.4188 49.2614C60.9678 49.0386 60.4717 48.9224 59.9688 48.9219ZM56.6875 53.8438C56.363 53.8438 56.0458 53.7475 55.776 53.5673C55.5062 53.387 55.2959 53.1308 55.1718 52.831C55.0476 52.5312 55.0151 52.2013 55.0784 51.8831C55.1417 51.5648 55.298 51.2725 55.5274 51.043C55.7568 50.8136 56.0492 50.6573 56.3674 50.594C56.6857 50.5307 57.0156 50.5632 57.3153 50.6874C57.6151 50.8116 57.8714 51.0218 58.0516 51.2916C58.2319 51.5614 58.3281 51.8786 58.3281 52.2031C58.3281 52.6382 58.1553 53.0555 57.8476 53.3632C57.5399 53.6709 57.1226 53.8438 56.6875 53.8438ZM59.9688 53.8438C59.8303 53.8437 59.6924 53.8256 59.5586 53.7902C59.8272 53.3047 59.9681 52.759 59.9681 52.2042C59.9681 51.6494 59.8272 51.1037 59.5586 50.6183C59.6923 50.5821 59.8302 50.5633 59.9688 50.5625C60.4039 50.5625 60.8212 50.7354 61.1288 51.043C61.4365 51.3507 61.6094 51.768 61.6094 52.2031C61.6094 52.6382 61.4365 53.0555 61.1288 53.3632C60.8212 53.6709 60.4039 53.8438 59.9688 53.8438Z" fill="#B50404"/>
</g>
<defs>
<filter id="filter0_d_50_39" x="0" y="0" width="88" height="75.4219" filterUnits="userSpaceOnUse" color-interpolation-filters="sRGB">
<feFlood flood-opacity="0" result="BackgroundImageFix"/>
<feColorMatrix in="SourceAlpha" type="matrix" values="0 0 0 0 0 0 0 0 0 0 0 0 0 0 0 0 0 0 127 0" result="hardAlpha"/>
<feOffset/>
<feGaussianBlur stdDeviation="8"/>
<feComposite in2="hardAlpha" operator="out"/>
<feColorMatrix type="matrix" values="0 0 0 0 0.709804 0 0 0 0 0.0156863 0 0 0 0 0.0156863 0 0 0 0.5 0"/>
<feBlend mode="normal" in2="BackgroundImageFix" result="effect1_dropShadow_50_39"/>
<feBlend mode="normal" in="SourceGraphic" in2="effect1_dropShadow_50_39" result="shape"/>
</filter>
</defs>
</svg>
