<svg width="97" height="97" viewBox="0 0 97 97" fill="none" xmlns="http://www.w3.org/2000/svg">
<g filter="url(#filter0_d_50_2085)">
<path d="M62.497 33.0261H58.6945H58.637H58.602L58.5495 33.0348L58.5095 33.0411C58.4945 33.0411 58.4807 33.0486 58.4657 33.0523L58.422 33.0636L58.3757 33.0798L58.3357 33.0948L58.282 33.1211L58.2545 33.1348L58.2082 33.1623L58.177 33.1823C58.1645 33.1898 58.1532 33.1998 58.1407 33.2086C58.1282 33.2173 58.1145 33.2273 58.1032 33.2373L58.0745 33.2636L58.0332 33.3011C58.0257 33.3086 58.0195 33.3173 58.0132 33.3248L57.977 33.3661L57.9445 33.4011C57.9357 33.4136 57.9257 33.4261 57.917 33.4398C57.9082 33.4536 57.9007 33.4661 57.8932 33.4786L57.8707 33.5186C57.8632 33.5323 57.857 33.5461 57.8507 33.5598L57.832 33.6023L57.8195 33.6511C57.8137 33.6654 57.8087 33.68 57.8045 33.6948L57.7932 33.7386C57.7932 33.7536 57.7857 33.7686 57.7832 33.7836C57.7807 33.7986 57.7832 33.8148 57.7757 33.8298C57.7682 33.8448 57.7757 33.8598 57.7757 33.8748C57.7757 33.8898 57.7757 33.9098 57.7757 33.9273C57.7757 33.9448 57.7757 33.9486 57.7757 33.9598V33.9673V34.0211C57.7745 34.0344 57.7745 34.0477 57.7757 34.0611C57.7757 34.0761 57.7757 34.0911 57.782 34.1061L57.7895 34.1523C57.7895 34.1636 57.7895 34.1748 57.7982 34.1861C57.807 34.1973 57.807 34.2223 57.8132 34.2411C57.8195 34.2598 57.8132 34.2586 57.822 34.2673L57.8432 34.3261L57.8632 34.3673C57.8707 34.3811 57.8757 34.3948 57.8832 34.4073C57.8907 34.4198 57.8995 34.4348 57.9082 34.4486L57.9307 34.4848C57.9384 34.4966 57.9467 34.5078 57.9557 34.5186L57.987 34.5598L58.012 34.5861C58.0245 34.6011 58.037 34.6148 58.0507 34.6286C58.0645 34.6423 58.0507 34.6286 58.0507 34.6286L66.2582 42.5711C66.4372 42.7424 66.6768 42.8358 66.9245 42.8311C67.1722 42.8263 67.4079 42.7237 67.5802 42.5456C67.7525 42.3676 67.8473 42.1286 67.8438 41.8808C67.8404 41.6331 67.7391 41.3968 67.562 41.2236L61.0195 34.9011H62.497C63.8006 34.8997 65.0619 34.4381 66.0585 33.5977C67.0551 32.7573 67.723 31.592 67.9445 30.3073H69.557C69.8056 30.3073 70.0441 30.2085 70.2199 30.0327C70.3957 29.8569 70.4945 29.6184 70.4945 29.3698C70.4945 29.1212 70.3957 28.8827 70.2199 28.7069C70.0441 28.5311 69.8056 28.4323 69.557 28.4323H67.9445C67.7715 27.4243 67.3209 26.4846 66.6432 25.7186H69.557C69.8056 25.7186 70.0441 25.6198 70.2199 25.444C70.3957 25.2681 70.4945 25.0297 70.4945 24.7811C70.4945 24.5324 70.3957 24.294 70.2199 24.1181C70.0441 23.9423 69.8056 23.8436 69.557 23.8436H58.702C58.4533 23.8436 58.2149 23.9423 58.0391 24.1181C57.8633 24.294 57.7645 24.5324 57.7645 24.7811C57.7645 25.0297 57.8633 25.2681 58.0391 25.444C58.2149 25.6198 58.4533 25.7186 58.702 25.7186H62.497C63.3019 25.7194 64.0839 25.9858 64.722 26.4765C65.36 26.9672 65.8183 27.6546 66.0257 28.4323H58.702C58.4533 28.4323 58.2149 28.5311 58.0391 28.7069C57.8633 28.8827 57.7645 29.1212 57.7645 29.3698C57.7645 29.6184 57.8633 29.8569 58.0391 30.0327C58.2149 30.2085 58.4533 30.3073 58.702 30.3073H66.0257C65.819 31.0858 65.3611 31.7743 64.723 32.2659C64.085 32.7575 63.3025 33.0247 62.497 33.0261ZM80.8195 60.2461C80.7859 59.6558 80.6187 59.0809 80.3305 58.5647C80.0422 58.0485 79.6405 57.6046 79.1556 57.2664C78.6706 56.9283 78.1152 56.7047 77.5312 56.6126C76.9472 56.5205 76.35 56.5623 75.7845 56.7348L61.3695 61.1198C61.2374 60.4811 60.9541 59.8833 60.5432 59.3768C60.1324 58.8702 59.606 58.4696 59.0082 58.2085L49.6157 54.126C46.4137 52.736 42.8232 52.5235 39.4795 53.5261L35.0545 54.8573L34.9957 54.5161C34.9261 54.1193 34.7791 53.7402 34.5629 53.4004C34.3467 53.0605 34.0657 52.7666 33.736 52.5354C33.4062 52.3041 33.0341 52.1401 32.6409 52.0527C32.2477 51.9654 31.8412 51.9563 31.4445 52.0261L23.9307 53.3236L17.597 54.4223C17.4753 54.4433 17.3589 54.4881 17.2545 54.5541C17.1501 54.6201 17.0597 54.706 16.9885 54.8069C16.9172 54.9078 16.8666 55.0218 16.8394 55.1423C16.8123 55.2628 16.8091 55.3875 16.8301 55.5092C16.8511 55.6309 16.8959 55.7473 16.9619 55.8517C17.0279 55.9561 17.1138 56.0465 17.2147 56.1177C17.3157 56.1889 17.4296 56.2396 17.5501 56.2667C17.6706 56.2939 17.7953 56.2971 17.917 56.2761L23.3257 55.3373L27.1045 77.1411L17.597 78.7898C17.3658 78.8298 17.158 78.9551 17.0147 79.1409C16.8714 79.3267 16.8029 79.5594 16.8229 79.7932C16.8428 80.027 16.9497 80.2448 17.1224 80.4036C17.2951 80.5625 17.5211 80.6507 17.7557 80.6511C17.8098 80.6508 17.8637 80.6462 17.917 80.6373L35.8682 77.5261C36.6697 77.3862 37.383 76.9342 37.8517 76.2692C38.3204 75.6041 38.5061 74.7804 38.3682 73.9785L38.1507 72.7285L38.4182 72.666C38.9937 72.5339 39.5913 72.5305 40.1682 72.6561L56.902 76.3448C57.4695 76.4678 58.0488 76.5286 58.6295 76.5261C60.3186 76.5269 61.9655 75.9979 63.3382 75.0135L79.1945 63.6511C79.7321 63.2681 80.1633 62.7545 80.4476 62.1588C80.7319 61.5631 80.8599 60.9049 80.8195 60.2461ZM35.5482 75.6773L28.952 76.821L25.1732 55.0111L31.7695 53.8673C32.0807 53.8144 32.4003 53.887 32.658 54.0693C32.9158 54.2516 33.0907 54.5287 33.1445 54.8398L36.5195 74.2973C36.5732 74.609 36.5011 74.9294 36.3191 75.188C36.137 75.4467 35.8598 75.6227 35.5482 75.6773ZM78.097 62.1236L62.2457 73.4986C61.5382 74.005 60.7322 74.3571 59.8799 74.5322C59.0276 74.7072 58.1481 74.7013 57.2982 74.5148L40.5695 70.8198C39.7214 70.6347 38.8429 70.6398 37.997 70.8348L37.8345 70.8736L35.377 56.7223L40.0195 55.3248C42.9381 54.4487 46.0726 54.6333 48.8682 55.8461L58.262 59.9286C58.7007 60.1202 59.0648 60.45 59.2988 60.8677C59.5328 61.2854 59.6239 61.7681 59.5582 62.2423C59.5479 62.3194 59.5329 62.3958 59.5132 62.4711C59.3765 63.0272 59.0265 63.5073 58.539 63.8078C58.0514 64.1083 57.4653 64.2051 56.907 64.0773L51.5695 62.8736C51.4493 62.8465 51.325 62.8433 51.2036 62.8643C51.0823 62.8852 50.9662 62.9299 50.8621 62.9957C50.758 63.0615 50.6678 63.1472 50.5968 63.2478C50.5258 63.3485 50.4753 63.4621 50.4482 63.5823C50.4212 63.7025 50.418 63.8268 50.439 63.9482C50.4599 64.0695 50.5046 64.1856 50.5704 64.2897C50.6362 64.3938 50.7219 64.484 50.8225 64.555C50.9232 64.626 51.0368 64.6765 51.157 64.7036L56.4932 65.9011C57.4979 66.1298 58.552 65.9677 59.4416 65.4477C60.3312 64.9277 60.9896 64.0887 61.2832 63.1011L76.3195 58.5261C76.6141 58.4345 76.9257 58.4113 77.2306 58.4585C77.5355 58.5056 77.8256 58.6217 78.0788 58.798C78.332 58.9743 78.5416 59.206 78.6916 59.4756C78.8417 59.7452 78.9281 60.0455 78.9445 60.3535C78.9651 60.6963 78.8981 61.0386 78.7498 61.3482C78.6015 61.6579 78.3769 61.9247 78.097 62.1236ZM64.1295 50.0261C67.4293 50.0249 70.6548 49.0456 73.3982 47.212C76.1417 45.3783 78.28 42.7725 79.543 39.7239C80.8059 36.6753 81.1368 33.3208 80.4939 30.0842C79.851 26.8476 78.263 23.8742 75.9307 21.5398C74.3854 19.9701 72.5446 18.7217 70.5145 17.8668C68.4844 17.0119 66.3052 16.5674 64.1024 16.5587C61.8997 16.5501 59.717 16.9776 57.6803 17.8166C55.6435 18.6555 53.793 19.8894 52.2354 21.447C50.6778 23.0046 49.444 24.8551 48.605 26.8918C47.766 28.9286 47.3385 31.1112 47.3472 33.314C47.3558 35.5167 47.8004 37.696 48.6553 39.7261C49.5102 41.7562 50.7585 43.597 52.3282 45.1423C53.8748 46.6961 55.7141 47.9277 57.7398 48.766C59.7654 49.6043 61.9372 50.0326 64.1295 50.0261ZM53.6545 22.8648C56.4381 20.112 60.1982 18.5729 64.1131 18.5837C68.0279 18.5946 71.7794 20.1546 74.5476 22.9229C77.3159 25.6912 78.8759 29.4426 78.8868 33.3575C78.8977 37.2724 77.3586 41.0324 74.6057 43.8161C73.2328 45.2043 71.5991 46.3075 69.7984 47.0622C67.9976 47.8169 66.0655 48.2082 64.1131 48.2136C62.1606 48.2191 60.2263 47.8385 58.4214 47.0938C56.6166 46.3492 54.9767 45.2551 53.5961 43.8745C52.2155 42.4939 51.1214 40.854 50.3767 39.0491C49.632 37.2442 49.2515 35.3099 49.2569 33.3575C49.2623 31.405 49.6537 29.4729 50.4083 27.6722C51.163 25.8715 52.2662 24.2377 53.6545 22.8648Z" fill="#69D8FA"/>
</g>
<defs>
<filter id="filter0_d_50_2085" x="0.816406" y="0.558594" width="96.0104" height="96.0925" filterUnits="userSpaceOnUse" color-interpolation-filters="sRGB">
<feFlood flood-opacity="0" result="BackgroundImageFix"/>
<feColorMatrix in="SourceAlpha" type="matrix" values="0 0 0 0 0 0 0 0 0 0 0 0 0 0 0 0 0 0 127 0" result="hardAlpha"/>
<feOffset/>
<feGaussianBlur stdDeviation="8"/>
<feComposite in2="hardAlpha" operator="out"/>
<feColorMatrix type="matrix" values="0 0 0 0 0.411765 0 0 0 0 0.847059 0 0 0 0 0.980392 0 0 0 0.5 0"/>
<feBlend mode="normal" in2="BackgroundImageFix" result="effect1_dropShadow_50_2085"/>
<feBlend mode="normal" in="SourceGraphic" in2="effect1_dropShadow_50_2085" result="shape"/>
</filter>
</defs>
</svg>
