<svg width="74" height="91" viewBox="0 0 74 91" fill="none" xmlns="http://www.w3.org/2000/svg">
<g filter="url(#filter0_d_50_736)">
<path d="M57.843 50.4505C57.4842 47.8667 56.1923 45.8571 53.9674 44.5652C52.9625 43.9911 51.7424 43.5604 50.5941 43.058C50.7376 42.9862 50.8094 42.8427 50.8812 42.8427C56.5511 39.9001 56.0487 31.1439 51.9577 28.1295C50.307 26.9093 48.4409 26.1198 46.4313 25.6892C44.9959 25.4021 43.6322 25.1868 42.125 24.8997C42.125 22.3877 42.1968 18.7991 42.1968 16H36.8139C36.8139 18.7273 36.7421 22.2442 36.7421 24.6844H32.5075C32.5075 22.1724 32.5075 18.7273 32.5793 16H27.2682C27.2682 18.8709 27.1964 22.3159 27.1964 24.8279C23.5361 24.8279 20.0192 24.7562 16.4306 24.7562C16.4306 26.694 16.4306 28.5601 16.3589 30.4262H18.512C19.158 30.4262 19.8757 30.4262 20.5216 30.4979C22.3877 30.6415 23.3207 31.6463 23.3207 33.5124L23.1054 56.4076C23.1054 58.0584 22.3877 58.7761 20.7369 58.7761H17.1483C16.7895 60.9292 16.4306 63.0106 16 65.1638C19.5886 65.2355 23.1772 65.2355 26.7658 65.3073C26.7658 68.0347 26.7658 71.5515 26.694 74.4224H32.0051C32.0051 71.5515 32.0769 68.1782 32.0769 65.4509C33.5841 65.5226 34.9478 65.5226 36.3115 65.5944C36.3115 68.3217 36.2397 71.6233 36.2397 74.4224H41.5508C41.5508 71.5515 41.6226 68.1782 41.6226 65.5226C41.8379 65.5226 41.9814 65.4509 42.0532 65.4509C44.5652 65.0202 47.2208 64.8049 49.661 64.2307C52.8908 63.4412 55.4746 61.5752 56.7665 58.3454C57.9866 55.7617 58.2019 53.1779 57.843 50.4505ZM32.5075 31.0003C35.8091 31.0003 39.0388 30.7132 42.125 32.0769C44.1346 32.9382 45.1394 34.5889 44.9959 36.5985C44.8523 38.6799 43.6322 40.1871 41.5508 40.9049C38.6082 41.8379 35.5937 41.8379 32.4358 41.6944C32.4358 38.1058 32.5075 34.6607 32.5075 31.0003ZM44.1346 57.6277C41.1919 58.9196 38.034 58.9196 34.9478 58.9914C34.0865 58.9914 33.2253 58.9196 32.2205 58.9196C32.2922 54.9722 32.2922 51.0965 32.364 47.149C36.3832 47.149 40.4025 46.8619 44.2064 48.5127C46.1442 49.3739 47.2926 50.8812 47.2926 53.1061C47.2926 55.331 46.1442 56.7665 44.1346 57.6277Z" fill="#F89738"/>
</g>
<defs>
<filter id="filter0_d_50_736" x="0" y="0" width="74" height="90.4224" filterUnits="userSpaceOnUse" color-interpolation-filters="sRGB">
<feFlood flood-opacity="0" result="BackgroundImageFix"/>
<feColorMatrix in="SourceAlpha" type="matrix" values="0 0 0 0 0 0 0 0 0 0 0 0 0 0 0 0 0 0 127 0" result="hardAlpha"/>
<feOffset/>
<feGaussianBlur stdDeviation="8"/>
<feComposite in2="hardAlpha" operator="out"/>
<feColorMatrix type="matrix" values="0 0 0 0 0.972549 0 0 0 0 0.592157 0 0 0 0 0.219608 0 0 0 0.5 0"/>
<feBlend mode="normal" in2="BackgroundImageFix" result="effect1_dropShadow_50_736"/>
<feBlend mode="normal" in="SourceGraphic" in2="effect1_dropShadow_50_736" result="shape"/>
</filter>
</defs>
</svg>
