<svg width="56" height="56" viewBox="0 0 56 56" fill="none" xmlns="http://www.w3.org/2000/svg">
<g filter="url(#filter0_d_50_84)">
<path d="M52.3808 45.5427L47.9424 44.1875C47.7233 44.1204 47.5253 43.9979 47.3676 43.8317C47.2099 43.6656 47.0978 43.4615 47.0422 43.2392C47.0163 43.1318 47.0034 43.0216 47.0039 42.9111C46.9963 42.4736 46.981 41.9486 46.9602 41.2234C47.8352 40.0039 48.3503 38.4891 48.3503 37.2597V36.6844C48.4028 36.6013 48.4399 36.5094 48.4597 36.4131C48.6559 35.5097 48.852 34.6055 49.0482 33.7006L49.1083 33.4195C49.2441 32.7978 49.2542 32.1552 49.1379 31.5295C49.0216 30.9038 48.7814 30.3077 48.4313 29.7762C48.1231 29.3023 47.7217 28.8959 47.2517 28.5817C46.7817 28.2676 46.2527 28.0522 45.6969 27.9486C45.1872 27.8567 44.6754 27.7539 44.1766 27.6445L43.8485 27.5713C43.1321 27.4105 42.5666 27.2836 41.7846 27.2727H41.7036C41.0952 27.2773 40.4956 27.4183 39.9489 27.6854C39.4022 27.9525 38.9225 28.3388 38.5449 28.8159C38.1045 29.3721 37.7935 30.0192 37.6344 30.7105C37.4753 31.4018 37.4721 32.1198 37.625 32.8125L38.3907 36.3387V37.263C38.3907 38.5273 38.9375 40.1067 39.8672 41.3427C39.8045 41.8443 39.7429 42.3456 39.6824 42.8466C39.678 42.8792 39.6758 42.9121 39.6758 42.945C39.6762 43.2285 39.5853 43.5045 39.4167 43.7324C39.2481 43.9603 39.0107 44.1279 38.7396 44.2105L36.4635 44.9039L36.4405 44.9105L34.3624 45.5459C33.7305 45.7395 33.1421 46.0537 32.6299 46.4713L31.733 46.1978C31.5474 46.1419 31.3847 46.0276 31.269 45.872C31.1534 45.7164 31.091 45.5276 31.091 45.3338V45.0111C31.5396 44.5917 31.8972 44.0846 32.1418 43.5213C32.3864 42.958 32.5127 42.3505 32.5129 41.7364V40.3397C32.6755 39.6441 32.8391 38.9481 33.0039 38.2517L33.0641 37.9947C33.1828 37.4896 33.1966 36.9655 33.1045 36.4548C33.0125 35.9442 32.8166 35.4579 32.529 35.026C32.2414 34.5942 31.8682 34.2259 31.4325 33.9441C30.9968 33.6624 30.508 33.473 29.9961 33.3878C29.6363 33.3277 29.2786 33.262 28.9253 33.1931V22.5695C31.4378 22.6388 33.9366 22.9654 36.3825 23.5441V24.8894C36.3825 25.1069 36.469 25.3156 36.6228 25.4694C36.7766 25.6233 36.9853 25.7097 37.2029 25.7097C37.4204 25.7097 37.6291 25.6233 37.7829 25.4694C37.9367 25.3156 38.0232 25.1069 38.0232 24.8894V23.4511C40.5004 22.4778 43.1883 22.1657 45.8227 22.5455C47.4974 22.7959 49.1177 23.3273 50.6155 24.1172V25.1103C50.6155 25.3279 50.7019 25.5365 50.8558 25.6904C51.0096 25.8442 51.2183 25.9306 51.4358 25.9306C51.6534 25.9306 51.862 25.8442 52.0159 25.6904C52.1697 25.5365 52.2561 25.3279 52.2561 25.1103V23.6578C52.2561 23.648 52.2561 23.6392 52.2561 23.6305C52.2561 17.7297 49.7241 12.1866 45.126 8.02156C40.7313 4.04687 34.9694 1.79156 28.8138 1.60781L28.8072 0.81375C28.8052 0.597418 28.7179 0.390616 28.5643 0.238256C28.4107 0.085895 28.2033 0.000278674 27.9869 0L27.9793 0C27.8716 0.000857844 27.7651 0.0229346 27.666 0.0649677C27.5669 0.107001 27.477 0.168165 27.4015 0.244963C27.326 0.321761 27.2664 0.412685 27.2261 0.512535C27.1858 0.612384 27.1656 0.719201 27.1666 0.826875L27.1732 1.60781C21.0219 1.79484 15.2644 4.05344 10.885 8.01937C6.28691 12.1844 3.75488 17.7275 3.75488 23.625C3.75488 23.6338 3.75488 23.6414 3.75488 23.6502V25.107C3.75488 25.3246 3.84131 25.5332 3.99514 25.6871C4.14898 25.8409 4.35763 25.9273 4.57519 25.9273C4.79275 25.9273 5.0014 25.8409 5.15524 25.6871C5.30908 25.5332 5.39551 25.3246 5.39551 25.107V24.1161C6.89878 23.336 8.51843 22.8045 10.1916 22.5422C12.8797 22.1338 15.6276 22.4169 18.176 23.3647V24.7866C18.176 25.0041 18.2624 25.2128 18.4162 25.3666C18.5701 25.5204 18.7787 25.6069 18.9963 25.6069C19.2138 25.6069 19.4225 25.5204 19.5763 25.3666C19.7302 25.2128 19.8166 25.0041 19.8166 24.7866V23.4555C22.2646 22.9038 24.7626 22.604 27.2716 22.5608V32.8902C27.0327 32.8621 26.7924 32.8468 26.5519 32.8442H26.4918C25.9263 32.8437 25.368 32.9713 24.859 33.2176C24.35 33.4639 23.9034 33.8224 23.5528 34.2661C23.1935 34.7152 22.9412 35.2402 22.8152 35.8014C22.6891 36.3626 22.6927 36.9451 22.8255 37.5047L23.4982 40.3594V41.7364C23.4978 42.3392 23.6189 42.936 23.8544 43.4909C24.0899 44.0459 24.4348 44.5476 24.8686 44.9662V45.3458C24.8696 45.5393 24.8081 45.7279 24.6932 45.8836C24.5783 46.0393 24.4162 46.1538 24.231 46.2098L23.3757 46.4702C22.8639 46.0545 22.2768 45.7414 21.6464 45.5481L17.208 44.1875C17.0027 44.1259 16.8156 44.0149 16.663 43.8643C16.5105 43.7137 16.3972 43.528 16.333 43.3234C17.0655 42.2467 17.5853 41.0397 17.8643 39.7677C17.9809 39.198 17.9909 38.6117 17.8938 38.0384C17.9529 37.8044 17.9974 37.567 18.0272 37.3275L18.2996 36.1659C18.5757 35.0172 18.4886 33.8111 18.0501 32.714C17.6117 31.6169 16.8436 30.6829 15.8518 30.0409C15.9026 29.8074 15.9283 29.569 15.9283 29.33C15.929 28.8662 15.832 28.4076 15.6435 27.9838C15.455 27.5601 15.1794 27.1809 14.8345 26.8708C14.4896 26.5608 14.0832 26.3269 13.6419 26.1845C13.2005 26.0421 12.7341 25.9943 12.2731 26.0443C11.812 26.0942 11.3667 26.2408 10.9661 26.4744C10.5655 26.708 10.2186 27.0235 9.9481 27.4002C9.6776 27.7769 9.48954 28.2064 9.39619 28.6606C9.30283 29.1149 9.30627 29.5837 9.40629 30.0366C8.41409 30.6784 7.64535 31.6121 7.20597 32.7091C6.7666 33.806 6.67822 35.0123 6.953 36.1616L7.22754 37.3231C7.27434 37.7263 7.3638 38.1234 7.49441 38.5077C7.47546 38.8499 7.49011 39.1931 7.53816 39.5325C7.70222 40.693 8.22722 42.0481 8.92066 43.1233C8.88628 43.3723 8.78111 43.6062 8.61766 43.7972C8.45421 43.9882 8.23935 44.1282 7.99863 44.2006L5.72472 44.8984L5.70285 44.905L3.62472 45.5416C2.57413 45.8556 1.65337 46.5012 1.00004 47.3818C0.346712 48.2624 -0.00409922 49.3308 3.61453e-05 50.4273V55.1797C3.61453e-05 55.3972 0.0864617 55.6059 0.2403 55.7597C0.394139 55.9136 0.602788 56 0.820349 56C1.03791 56 1.24656 55.9136 1.4004 55.7597C1.55424 55.6059 1.64066 55.3972 1.64066 55.1797V50.4273C1.63788 49.6835 1.87555 48.9587 2.31823 48.3609C2.76091 47.7631 3.38491 47.3243 4.09722 47.11L6.16113 46.4844L6.183 46.4778L6.75613 46.3039C7.72957 47.2544 9.73113 48.7845 12.6624 48.9781C12.8673 48.9912 13.0685 48.9978 13.2661 48.9978C16.3286 48.9978 18.5096 47.4513 19.4775 46.6014L21.1641 47.1155L21.2057 47.1297L20.7047 47.2828C19.8278 47.5455 19.0593 48.085 18.5143 48.8205C17.9692 49.556 17.6767 50.4481 17.6805 51.3636V55.1797C17.6805 55.3972 17.7669 55.6059 17.9208 55.7597C18.0746 55.9136 18.2833 56 18.5008 56C18.7184 56 18.927 55.9136 19.0809 55.7597C19.2347 55.6059 19.3211 55.3972 19.3211 55.1797V51.3592C19.318 50.7954 19.4974 50.2457 19.8326 49.7923C20.1677 49.3388 20.6406 49.006 21.1805 48.8436L23.1569 48.242C24.4513 49.4749 26.134 50.2195 27.9169 50.3486C28.0843 50.3595 28.245 50.365 28.4113 50.365C30.8788 50.365 32.6518 49.1411 33.4677 48.4367L34.8086 48.8447C35.3486 49.0071 35.8214 49.3399 36.1566 49.7934C36.4917 50.2468 36.6711 50.7965 36.668 51.3603V55.1797C36.668 55.3972 36.7544 55.6059 36.9083 55.7597C37.0621 55.9136 37.2708 56 37.4883 56C37.7059 56 37.9145 55.9136 38.0684 55.7597C38.2222 55.6059 38.3086 55.3972 38.3086 55.1797V51.3603C38.3123 50.445 38.0199 49.5531 37.4751 48.8176C36.9303 48.0822 36.1622 47.5426 35.2855 47.2795L34.7813 47.1253L34.825 47.11L36.3464 46.6463L38.6203 49.245C38.8892 49.5539 39.2675 49.7465 39.6755 49.7822C40.0835 49.8179 40.4894 49.6939 40.8078 49.4364L42.5469 48.043V55.0703C42.5469 55.2879 42.6333 55.4965 42.7872 55.6504C42.941 55.8042 43.1497 55.8906 43.3672 55.8906C43.5848 55.8906 43.7934 55.8042 43.9473 55.6504C44.1011 55.4965 44.1875 55.2879 44.1875 55.0703V48.102L45.8457 49.4375C46.1638 49.6953 46.5696 49.8196 46.9776 49.7843C47.3856 49.7491 47.764 49.5569 48.0332 49.2483L50.33 46.632L51.9061 47.1122C52.6177 47.327 53.2408 47.7659 53.6828 48.3634C54.1249 48.9609 54.3622 49.6852 54.3594 50.4284V55.1797C54.3594 55.3972 54.4458 55.6059 54.5997 55.7597C54.7535 55.9136 54.9622 56 55.1797 56C55.3973 56 55.6059 55.9136 55.7598 55.7597C55.9136 55.6059 56 55.3972 56 55.1797V50.4284C56.0045 49.3326 55.6545 48.2647 55.0022 47.3842C54.3499 46.5037 53.4304 45.8577 52.3808 45.5427ZM12.6328 27.6719C13.0723 27.6722 13.4937 27.8468 13.8046 28.1575C14.1155 28.4681 14.2904 28.8894 14.291 29.3289C13.8178 29.1941 13.3293 29.1205 12.8374 29.1102H12.6744C12.1001 29.0985 11.5273 29.1722 10.9747 29.3289C10.9753 28.8894 11.1502 28.4681 11.4611 28.1575C11.7719 27.8468 12.1934 27.6722 12.6328 27.6719ZM8.55207 35.7787C8.40983 35.1693 8.40899 34.5354 8.54961 33.9255C8.69022 33.3157 8.96857 32.7461 9.36331 32.2605C9.75805 31.7748 10.2587 31.386 10.827 31.1237C11.3952 30.8615 12.0159 30.7328 12.6416 30.7475H12.8024C13.4139 30.7596 14.015 30.9086 14.5614 31.1834C15.1079 31.4582 15.5859 31.8519 15.9602 32.3356C16.3346 32.8193 16.5959 33.3807 16.725 33.9786C16.854 34.5765 16.8475 35.1957 16.706 35.7908V35.7962C16.1886 35.408 15.5291 35.3248 15.0216 35.2603C14.9122 35.2472 14.8149 35.2341 14.7164 35.2188C14.0427 35.1094 13.4663 34.8808 13.0988 34.5625C12.9894 34.4695 12.5782 34.0528 12.4228 33.8734L12.3999 33.8308C12.2919 33.642 12.1135 33.5038 11.9037 33.4464C11.694 33.389 11.47 33.4171 11.281 33.5245C10.0924 34.2056 9.1828 34.957 8.55207 35.7787ZM16.2586 39.4494C15.9305 41.0681 14.4846 43.9644 12.7433 43.9698H12.7368C11.7032 43.9698 10.8938 43.1069 10.3972 42.3806C9.77298 41.455 9.35348 40.4068 9.16675 39.3061C8.948 37.7661 9.69722 36.4842 11.5118 35.3073C11.6922 35.4922 11.9405 35.7372 12.0247 35.8094C12.7903 36.4656 13.7747 36.7358 14.4627 36.843C14.5721 36.8605 14.6946 36.8747 14.8149 36.89C15.1627 36.9338 15.6385 36.9994 15.7588 37.1481C16.2521 37.7748 16.4293 38.5919 16.2586 39.4494ZM12.7728 47.3364C11.2529 47.2315 9.79931 46.6729 8.60019 45.733C9.0982 45.5588 9.54046 45.2544 9.88097 44.8514C9.96384 44.751 10.0402 44.6454 10.1096 44.5353C10.9069 45.243 11.7972 45.6105 12.7346 45.6105H12.7477C13.5986 45.6105 14.4189 45.2725 15.1703 44.6337C15.2207 44.7037 15.2732 44.7738 15.33 44.8405C15.6996 45.2757 16.1874 45.5944 16.7344 45.7581L17.5536 46.0086C16.5091 46.7031 14.8521 47.4742 12.7728 47.3364ZM50.5532 22.2633C49.124 21.6055 47.6086 21.1544 46.0524 20.9234C43.3137 20.5247 40.519 20.8045 37.9138 21.7383C37.3997 16.4139 36.143 11.4713 34.3394 7.71859C33.483 5.93578 32.5544 4.51609 31.5941 3.49344C41.8688 4.98203 49.8532 12.7378 50.5532 22.2633ZM18.2657 21.6562C15.5889 20.745 12.7319 20.4925 9.93675 20.9202C8.38389 21.1623 6.87143 21.6156 5.44144 22.2677C6.14254 12.7258 14.1543 4.95469 24.4585 3.48578C23.5003 4.51281 22.5794 5.94234 21.7318 7.73719C19.9708 11.4702 18.7535 16.38 18.2657 21.6562ZM19.9063 21.7536C20.3755 16.6808 21.5382 11.9853 23.2138 8.43281C24.7264 5.23578 26.5596 3.24297 28 3.23531H28.0154C29.155 3.24078 31.021 4.60578 32.8585 8.42953C34.5746 11.9995 35.7744 16.7256 36.2732 21.8389C30.8869 20.6344 25.3042 20.6068 19.9063 21.758V21.7536ZM24.5908 37.8317L24.4224 37.1186C24.3469 36.8006 24.345 36.4696 24.4169 36.1508C24.4887 35.832 24.6324 35.5338 24.8369 35.2789C25.0347 35.0283 25.2868 34.826 25.5743 34.6871C25.8617 34.5482 26.1769 34.4764 26.4961 34.4772H26.5421C27.0693 34.4837 27.4532 34.5625 28.0339 34.6828L28.3325 34.7441C28.7843 34.8348 29.248 34.9212 29.7128 34.9989C30.0031 35.0471 30.2804 35.1544 30.5276 35.3141C30.7747 35.4738 30.9865 35.6825 31.1497 35.9274C31.3129 36.1722 31.4241 36.4479 31.4765 36.7375C31.5289 37.0271 31.5212 37.3243 31.4541 37.6108L31.4071 37.8131C31.0709 37.6439 30.7025 37.5481 30.3264 37.532C29.983 37.4981 29.7796 37.4719 29.5608 37.3133C28.116 36.2425 26.9118 37.1525 26.4578 37.4948C26.3036 37.6108 26.1221 37.6173 25.7863 37.6184C25.4505 37.6195 25.0174 37.625 24.593 37.8438L24.5908 37.8317ZM25.1377 40.2084C25.1071 39.7709 25.1661 39.4428 25.2952 39.3225C25.3619 39.2634 25.4986 39.2569 25.7939 39.2558C26.2402 39.2558 26.8516 39.2558 27.4488 38.8008C27.7933 38.5405 28.0044 38.4431 28.1739 38.4431C28.3238 38.4431 28.4408 38.5208 28.5863 38.6291C29.1802 39.0666 29.7522 39.1234 30.17 39.165C30.4982 39.1978 30.5977 39.2164 30.6764 39.2941C30.8241 39.4406 30.8952 39.7677 30.8635 40.2161C30.8635 40.2325 30.8635 40.2489 30.8635 40.2653V41.7233C30.8635 42.4821 30.562 43.2099 30.0254 43.7465C29.4888 44.2831 28.7611 44.5845 28.0022 44.5845C27.2434 44.5845 26.5156 44.2831 25.979 43.7465C25.4424 43.2099 25.141 42.4821 25.141 41.7233V40.273C25.1388 40.25 25.1377 40.2347 25.1366 40.2161L25.1377 40.2084ZM28.0318 48.708C26.9522 48.6341 25.9135 48.2661 25.0283 47.6437C25.3762 47.4852 25.6836 47.2498 25.9272 46.9551C26.1709 46.6605 26.3445 46.3144 26.4349 45.943C27.4313 46.3139 28.5269 46.3193 29.5269 45.9583C29.6357 46.3797 29.8509 46.7661 30.152 47.0804C30.4531 47.3947 30.8299 47.6264 31.2463 47.7531L31.5066 47.833C30.4656 48.4761 29.2523 48.7842 28.0307 48.7156L28.0318 48.708ZM39.4068 33.2555L39.2318 32.4516C39.1318 31.9993 39.1337 31.5306 39.2374 31.0792C39.3411 30.6278 39.5439 30.2052 39.8311 29.8419C40.0542 29.5528 40.34 29.3183 40.6671 29.1561C40.9942 28.9939 41.3539 28.9082 41.7189 28.9056H41.7791C42.3883 28.9144 42.8313 29.015 43.5007 29.1648L43.8288 29.2392C44.3472 29.3486 44.8788 29.458 45.4082 29.5553C45.7465 29.6208 46.0681 29.7542 46.3534 29.9475C46.6388 30.1407 46.882 30.3898 47.0685 30.6797C47.2969 31.0278 47.4534 31.4181 47.5285 31.8276C47.6036 32.2371 47.596 32.6575 47.506 33.0641L47.4502 33.3255C46.9514 32.9416 46.4199 32.888 45.9846 32.8519C45.6225 32.818 45.3371 32.7928 45.0505 32.5927C43.6779 31.6378 42.5447 32.1934 41.7113 32.7852C41.5046 32.9317 41.2683 32.9394 40.868 32.9405C40.4677 32.9416 39.9121 32.9514 39.4024 33.2631L39.4068 33.2555ZM46.7141 36.237V37.2498C46.7141 39.1256 45.0308 41.7342 43.3727 41.7342C41.7146 41.7342 40.0313 39.1333 40.0313 37.2575V35.7098C40.0324 35.6898 40.0324 35.6697 40.0313 35.6497C39.9963 35.1663 40.0652 34.825 40.226 34.6894C40.3354 34.5997 40.5071 34.5898 40.8822 34.5887C41.3657 34.5887 42.0274 34.5887 42.6683 34.1305C43.0664 33.8494 43.3322 33.728 43.5641 33.728C43.7684 33.7403 43.9636 33.8169 44.1219 33.9467C44.7639 34.393 45.3874 34.4498 45.8435 34.4936C46.2285 34.5286 46.3739 34.5505 46.4943 34.662C46.7185 34.8709 46.7404 35.3183 46.7185 35.6584C46.7185 35.6759 46.7185 35.6923 46.7185 35.7098V36.2403C46.7185 36.2403 46.7097 36.2436 46.7097 36.2447L46.7141 36.237ZM39.8268 48.125L38.0768 46.1213L39.2164 45.7734C39.5051 45.6859 39.7785 45.5542 40.0269 45.383L41.8644 46.4877L39.8268 48.125ZM43.3268 45.4552L41.0736 44.1C41.2236 43.7498 41.305 43.374 41.3132 42.9931L41.3427 42.7536C41.9327 43.16 42.6314 43.3795 43.3478 43.3836C44.0643 43.3877 44.7654 43.1762 45.36 42.7766C45.36 42.8302 45.36 42.8859 45.36 42.933C45.3611 43.17 45.3901 43.406 45.4464 43.6362C45.485 43.7911 45.5362 43.9426 45.5996 44.0891L43.3268 45.4552ZM46.8268 48.1261L44.7902 46.4855L46.6496 45.3677C46.8969 45.5375 47.1687 45.6684 47.4557 45.7559L48.5964 46.1037L46.8268 48.1261Z" fill="#3FD1B2"/>
</g>
<defs>
<filter id="filter0_d_50_84" x="-16" y="-16" width="88.0001" height="88" filterUnits="userSpaceOnUse" color-interpolation-filters="sRGB">
<feFlood flood-opacity="0" result="BackgroundImageFix"/>
<feColorMatrix in="SourceAlpha" type="matrix" values="0 0 0 0 0 0 0 0 0 0 0 0 0 0 0 0 0 0 127 0" result="hardAlpha"/>
<feOffset/>
<feGaussianBlur stdDeviation="8"/>
<feComposite in2="hardAlpha" operator="out"/>
<feColorMatrix type="matrix" values="0 0 0 0 0.247059 0 0 0 0 0.819608 0 0 0 0 0.698039 0 0 0 0.5 0"/>
<feBlend mode="normal" in2="BackgroundImageFix" result="effect1_dropShadow_50_84"/>
<feBlend mode="normal" in="SourceGraphic" in2="effect1_dropShadow_50_84" result="shape"/>
</filter>
</defs>
</svg>
