<svg width="155" height="150" viewBox="0 0 155 150" fill="none" xmlns="http://www.w3.org/2000/svg">
<g filter="url(#filter0_d_1_8153)">
<path d="M88 64H66.6667C65.2 64 64.0133 65.2 64.0133 66.6667L64 82.6667C64 84.1333 65.2 85.3333 66.6667 85.3333H88C89.4667 85.3333 90.6667 84.1333 90.6667 82.6667V66.6667C90.6667 65.2 89.4667 64 88 64ZM87.4667 69.6667L78.04 75.56C77.6133 75.8267 77.0533 75.8267 76.6267 75.56L67.2 69.6667C66.8667 69.4533 66.6667 69.0933 66.6667 68.7067C66.6667 67.8133 67.64 67.28 68.4 67.7467L77.3333 73.3333L86.2667 67.7467C87.0267 67.28 88 67.8133 88 68.7067C88 69.0933 87.8 69.4533 87.4667 69.6667Z" fill="#4464B2"/>
</g>
<defs>
<filter id="filter0_d_1_8153" x="0" y="0" width="154.667" height="149.333" filterUnits="userSpaceOnUse" color-interpolation-filters="sRGB">
<feFlood flood-opacity="0" result="BackgroundImageFix"/>
<feColorMatrix in="SourceAlpha" type="matrix" values="0 0 0 0 0 0 0 0 0 0 0 0 0 0 0 0 0 0 127 0" result="hardAlpha"/>
<feOffset/>
<feGaussianBlur stdDeviation="32"/>
<feComposite in2="hardAlpha" operator="out"/>
<feColorMatrix type="matrix" values="0 0 0 0 0.266667 0 0 0 0 0.392157 0 0 0 0 0.698039 0 0 0 1 0"/>
<feBlend mode="normal" in2="BackgroundImageFix" result="effect1_dropShadow_1_8153"/>
<feBlend mode="normal" in="SourceGraphic" in2="effect1_dropShadow_1_8153" result="shape"/>
</filter>
</defs>
</svg>
