<svg width="196" height="58" viewBox="0 0 196 58" fill="none" xmlns="http://www.w3.org/2000/svg">
<g clip-path="url(#clip0_1_7768)">
<path d="M188.328 0H7.24337C3.24297 0 0 3.24297 0 7.24337V50.7036C0 54.704 3.24297 57.9469 7.24337 57.9469H188.328C192.328 57.9469 195.571 54.704 195.571 50.7036V7.24337C195.571 3.24297 192.328 0 188.328 0Z" fill="black"/>
<path d="M188.328 1.15894C191.688 1.15894 194.412 3.88303 194.412 7.24337V50.7036C194.412 54.0639 191.688 56.788 188.328 56.788H7.24337C3.88303 56.788 1.15894 54.0639 1.15894 50.7036V7.24337C1.15894 3.88303 3.88303 1.15894 7.24337 1.15894H188.328ZM188.328 0H7.24337C3.24297 0 0 3.24297 0 7.24337V50.7036C0 54.704 3.24297 57.9469 7.24337 57.9469H188.328C192.328 57.9469 195.571 54.704 195.571 50.7036V7.24337C195.571 3.24297 192.328 0 188.328 0Z" fill="#A6A6A6"/>
<path d="M68.6958 14.8341C68.7456 15.9079 68.3529 16.9551 67.6093 17.7315C66.7784 18.5946 65.6195 19.0634 64.4222 19.0208C62.5858 19.0064 60.9369 17.8926 60.238 16.1943C59.5391 14.496 59.9263 12.5442 61.2206 11.2414C62.0616 10.3828 63.2207 9.91082 64.4222 9.9376C65.0347 9.93556 65.641 10.0588 66.2041 10.2998C66.7283 10.5112 67.195 10.8438 67.5658 11.2704L66.798 12.0382C66.2118 11.3409 65.3318 10.9599 64.4222 11.0096C63.5079 11.0051 62.6312 11.3734 61.9943 12.0294C61.3574 12.6854 61.0153 13.5726 61.0468 14.4864C61.0274 15.8673 61.8406 17.1242 63.1082 17.6724C64.3757 18.2206 65.8486 17.9524 66.8415 16.9926C67.2873 16.5096 67.5444 15.8822 67.5658 15.2252H64.4222V14.1822H68.6379C68.6765 14.3974 68.6959 14.6155 68.6958 14.8341Z" fill="white" stroke="white" stroke-width="0.2"/>
<path d="M75.3321 11.2126H71.4207V13.9651H74.9844V15.0082H71.4207V17.7606H75.3321V18.8327H70.2617V10.1406H75.3321V11.2126Z" fill="white" stroke="white" stroke-width="0.2"/>
<path d="M80.0845 18.8327H78.969V11.2126H76.5352V10.1406H82.5762V11.2126H80.0845V18.8327Z" fill="white" stroke="white" stroke-width="0.2"/>
<path d="M86.832 18.8327V10.1406H87.9475V18.8327H86.832Z" fill="white" stroke="white" stroke-width="0.2"/>
<path d="M92.9048 18.8327H91.7893V11.2126H89.3555V10.1406H95.3241V11.2126H92.9048V18.8327Z" fill="white" stroke="white" stroke-width="0.2"/>
<path d="M106.636 17.7032C104.873 19.4565 102.025 19.4565 100.262 17.7032C98.5531 15.8942 98.5531 13.0657 100.262 11.2566C101.105 10.4073 102.252 9.92969 103.449 9.92969C104.646 9.92969 105.793 10.4073 106.636 11.2566C108.352 13.0628 108.352 15.8971 106.636 17.7032ZM101.087 16.9789C102.393 18.2792 104.504 18.2792 105.81 16.9789C107.093 15.5652 107.093 13.4091 105.81 11.9955C104.504 10.6952 102.393 10.6952 101.087 11.9955C99.8055 13.4091 99.8055 15.5652 101.087 16.9789Z" fill="white" stroke="white" stroke-width="0.2"/>
<path d="M109.492 18.8327V10.1406H110.853L115.084 16.9059V15.2255V10.1406H116.199V18.8327H115.04L110.622 11.7487V13.4291V18.8327H109.492Z" fill="white" stroke="white" stroke-width="0.2"/>
<path d="M98.712 31.5086C95.3155 31.5246 92.5735 34.2881 92.5841 37.6847C92.5948 41.0812 95.354 43.8275 98.7506 43.8222C102.147 43.8169 104.897 41.062 104.897 37.6654C104.921 36.0203 104.276 34.4359 103.11 33.2752C101.944 32.1146 100.356 31.477 98.712 31.5086ZM98.712 41.403C97.1811 41.5101 95.7403 40.6705 95.0787 39.2857C94.4172 37.9009 94.6694 36.2525 95.7146 35.1289C96.7599 34.0052 98.3858 33.6347 99.8147 34.1945C101.243 34.7544 102.185 36.1308 102.188 37.6654C102.235 38.6254 101.893 39.5638 101.238 40.2675C100.584 40.9713 99.6729 41.3807 98.712 41.403ZM85.2248 31.5086C81.8264 31.5166 79.0771 34.2766 79.0825 37.6751C79.0878 41.0735 81.8457 43.8249 85.2441 43.8223C88.6426 43.8196 91.3962 41.0639 91.3962 37.6654C91.42 36.0203 90.775 34.4359 89.6089 33.2752C88.4427 32.1146 86.8554 31.477 85.2103 31.5086H85.2248ZM85.2248 41.403C83.6931 41.5161 82.2481 40.6807 81.5819 39.2968C80.9157 37.9129 81.1639 36.2624 82.2077 35.1356C83.2515 34.0089 84.8782 33.6354 86.3089 34.194C87.7397 34.7526 88.683 36.1296 88.6872 37.6654C88.7343 38.6254 88.3917 39.5638 87.737 40.2675C87.0824 40.9713 86.1712 41.3807 85.2103 41.403H85.2248ZM69.159 33.4063V36.014H75.4173C75.3192 37.2422 74.8086 38.4011 73.9686 39.3024C72.7025 40.5921 70.9504 41.2866 69.1446 41.2147C65.3042 41.2147 62.1909 38.1015 62.1909 34.2611C62.1909 30.4207 65.3042 27.3074 69.1446 27.3074C70.9087 27.2787 72.6123 27.9507 73.8817 29.1762L75.7215 27.3364C73.9902 25.5833 71.6228 24.606 69.159 24.6274C65.6517 24.4909 62.3508 26.2842 60.5566 29.3009C58.7624 32.3176 58.7624 36.0742 60.5566 39.0909C62.3508 42.1076 65.6517 43.9009 69.159 43.7644C71.6678 43.8777 74.103 42.9005 75.8374 41.0843C77.3552 39.4168 78.1655 37.2247 78.0974 34.9709C78.102 34.4219 78.0535 33.8736 77.9525 33.3339L69.159 33.4063ZM134.798 35.4345C134.024 33.1589 131.927 31.597 129.525 31.5086C127.923 31.5055 126.391 32.1654 125.294 33.3318C124.196 34.4982 123.63 36.0669 123.73 37.6654C123.694 39.3014 124.326 40.8815 125.479 42.0427C126.632 43.2039 128.207 43.8463 129.843 43.8223C131.902 43.8334 133.828 42.8103 134.972 41.0988L132.871 39.6501C132.233 40.7134 131.083 41.3627 129.843 41.3596C128.559 41.4085 127.376 40.6674 126.859 39.4908L135.102 36.0864L134.798 35.4345ZM126.396 37.4916C126.336 36.5864 126.644 35.6955 127.249 35.0196C127.854 34.3437 128.705 33.9398 129.612 33.8989C130.567 33.836 131.468 34.349 131.901 35.2027L126.396 37.4916ZM119.703 43.4601H122.412V25.3517H119.703V43.4601ZM115.27 32.8848H115.168C114.343 31.9616 113.162 31.4345 111.923 31.4362C108.635 31.5956 106.051 34.3081 106.051 37.6003C106.051 40.8924 108.635 43.6049 111.923 43.7644C113.166 43.7853 114.354 43.2548 115.168 42.3157H115.255V43.1994C115.255 45.5607 113.995 46.8211 111.967 46.8211C110.585 46.7887 109.36 45.9244 108.867 44.6336L106.505 45.6187C107.415 47.8305 109.575 49.2691 111.967 49.2548C115.139 49.2548 117.762 47.386 117.762 42.8372V31.8708H115.27V32.8848ZM112.17 41.403C110.233 41.2323 108.747 39.61 108.747 37.6654C108.747 35.7209 110.233 34.0986 112.17 33.9279C113.106 33.9759 113.983 34.3998 114.602 35.1035C115.221 35.8071 115.53 36.7309 115.458 37.6654C115.538 38.6043 115.23 39.5349 114.606 40.2409C113.982 40.9469 113.097 41.3668 112.155 41.403H112.17ZM147.488 25.3517H141.013V43.4601H143.722V36.5934H147.503C149.607 36.7446 151.62 35.7076 152.718 33.9061C153.817 32.1046 153.817 29.8405 152.718 28.0391C151.62 26.2376 149.607 25.2005 147.503 25.3517H147.488ZM147.488 34.0438H143.707V27.8724H147.546C149.262 27.8724 150.654 29.2637 150.654 30.9798C150.654 32.696 149.262 34.0872 147.546 34.0872L147.488 34.0438ZM164.191 31.4362C162.176 31.3157 160.281 32.4025 159.367 34.2031L161.772 35.2027C162.257 34.3098 163.223 33.7871 164.235 33.8699C164.93 33.7888 165.628 33.9901 166.173 34.4287C166.717 34.8673 167.063 35.5063 167.132 36.2023V36.3906C166.262 35.9299 165.292 35.6911 164.307 35.6953C161.714 35.6953 159.092 37.1439 159.092 39.766C159.144 40.8956 159.65 41.9562 160.496 42.7065C161.342 43.4569 162.455 43.8332 163.583 43.7499C164.973 43.8497 166.306 43.183 167.06 42.0115H167.147V43.4601H169.754V36.492C169.754 33.3194 167.35 31.4796 164.264 31.4796L164.191 31.4362ZM163.858 41.3596C162.975 41.3596 161.743 40.9105 161.743 39.824C161.743 38.3753 163.279 37.8972 164.641 37.8972C165.501 37.876 166.352 38.0861 167.103 38.5057C166.916 40.1273 165.563 41.3632 163.931 41.403L163.858 41.3596ZM179.258 31.8708L176.158 39.7226H176.071L172.855 31.8708H169.957L174.781 42.8517L172.029 48.9506H174.854L182.271 31.8708H179.258ZM154.906 43.4601H157.615V25.3517H154.906V43.4601Z" fill="white"/>
<path d="M15.1247 10.9237C14.6525 11.4903 14.4142 12.2156 14.4583 12.9518V44.9965C14.4142 45.7327 14.6525 46.458 15.1247 47.0246L15.2261 47.126L33.1752 29.1914V28.7713L15.2261 10.8223L15.1247 10.9237Z" fill="url(#paint0_linear_1_7768)"/>
<path d="M39.1154 35.1741L33.1758 29.1911V28.7709L39.1154 22.7734L39.2457 22.8459L46.3587 26.8877C48.3869 28.0321 48.3869 29.9154 46.3587 31.0743L39.2747 35.1016L39.1154 35.1741Z" fill="url(#paint1_linear_1_7768)"/>
<path d="M39.2888 35.0861L33.1754 28.9727L15.125 47.0232C15.9778 47.7729 17.2436 47.8094 18.1382 47.1101L39.3033 35.0861" fill="url(#paint2_linear_1_7768)"/>
<path d="M39.288 22.8599L18.1229 10.8359C17.2282 10.1366 15.9625 10.1731 15.1096 10.9228L33.1746 28.9733L39.288 22.8599Z" fill="url(#paint3_linear_1_7768)"/>
<path opacity="0.2" d="M39.115 34.9561L18.1237 46.9077C17.2647 47.55 16.0854 47.55 15.2264 46.9077L15.125 47.0091L15.2264 47.1105C16.0838 47.7576 17.2663 47.7576 18.1237 47.1105L39.2888 35.0865L39.115 34.9561Z" fill="black"/>
<path opacity="0.12" d="M15.1247 46.8211C14.6525 46.2545 14.4142 45.5292 14.4583 44.793V45.0103C14.4142 45.7465 14.6525 46.4718 15.1247 47.0384L15.2261 46.937L15.1247 46.8211Z" fill="black"/>
<path opacity="0.12" d="M46.3566 30.856L39.1133 34.9558L39.2436 35.0861L46.3566 31.0588C47.1781 30.6729 47.7306 29.8773 47.8053 28.9727C47.6402 29.791 47.1052 30.4865 46.3566 30.856Z" fill="black"/>
<path opacity="0.25" d="M18.121 11.0381L46.3557 27.0894C47.1042 27.4589 47.6393 28.1544 47.8044 28.9727C47.7297 28.0682 47.1772 27.2725 46.3557 26.8866L18.121 10.8353C16.0929 9.69089 14.4414 10.647 14.4414 12.9649V13.1822C14.4849 10.8498 16.1074 9.8937 18.121 11.0381Z" fill="white"/>
</g>
<defs>
<linearGradient id="paint0_linear_1_7768" x1="31.5816" y1="12.6186" x2="2.84081" y2="20.2623" gradientUnits="userSpaceOnUse">
<stop stop-color="#00A0FF"/>
<stop offset="0.01" stop-color="#00A1FF"/>
<stop offset="0.26" stop-color="#00BEFF"/>
<stop offset="0.51" stop-color="#00D2FF"/>
<stop offset="0.76" stop-color="#00DFFF"/>
<stop offset="1" stop-color="#00E3FF"/>
</linearGradient>
<linearGradient id="paint1_linear_1_7768" x1="49.0098" y1="28.9738" x2="13.9664" y2="28.9738" gradientUnits="userSpaceOnUse">
<stop stop-color="#FFE000"/>
<stop offset="0.41" stop-color="#FFBD00"/>
<stop offset="0.78" stop-color="#FFA500"/>
<stop offset="1" stop-color="#FF9C00"/>
</linearGradient>
<linearGradient id="paint2_linear_1_7768" x1="35.9714" y1="32.3047" x2="12.8847" y2="71.1387" gradientUnits="userSpaceOnUse">
<stop stop-color="#FF3A44"/>
<stop offset="1" stop-color="#C31162"/>
</linearGradient>
<linearGradient id="paint3_linear_1_7768" x1="10.5753" y1="0.260528" x2="20.8801" y2="17.6019" gradientUnits="userSpaceOnUse">
<stop stop-color="#32A071"/>
<stop offset="0.07" stop-color="#2DA771"/>
<stop offset="0.48" stop-color="#15CF74"/>
<stop offset="0.8" stop-color="#06E775"/>
<stop offset="1" stop-color="#00F076"/>
</linearGradient>
<clipPath id="clip0_1_7768">
<rect width="196" height="58" fill="white"/>
</clipPath>
</defs>
</svg>
