<svg width="174" height="58" viewBox="0 0 174 58" fill="none" xmlns="http://www.w3.org/2000/svg">
<g clip-path="url(#clip0_1_7787)">
<path d="M159.554 0.000188328H13.8165C13.2853 0.000188328 12.7604 0.000188328 12.2306 0.00308567C11.7871 0.00598302 11.3471 0.0143998 10.8994 0.0214838C9.92661 0.032931 8.95614 0.118511 7.99638 0.277479C7.03797 0.439908 6.10959 0.746133 5.24263 1.1858C4.37672 1.62918 3.58552 2.20531 2.89773 2.89329C2.20633 3.57933 1.62999 4.37231 1.19088 5.24172C0.750553 6.1094 0.445231 7.0392 0.285456 7.99901C0.124162 8.9576 0.0373682 9.92725 0.0258536 10.8993C0.0124099 11.3434 0.0109902 11.7891 0.00390625 12.2333V45.7183C0.0109902 46.1681 0.0124099 46.6039 0.0258536 47.0538C0.0373718 48.0258 0.124166 48.9954 0.285456 49.9539C0.44479 50.9143 0.75013 51.8446 1.19088 52.7126C1.62979 53.5792 2.20621 54.369 2.89773 55.0512C3.58292 55.7423 4.37463 56.3188 5.24263 56.7588C6.10958 57.1996 7.03787 57.5077 7.99638 57.6726C8.9563 57.8303 9.92668 57.9159 10.8994 57.9287C11.3471 57.9386 11.7871 57.9442 12.2306 57.9442C12.7604 57.9471 13.2853 57.9471 13.8165 57.9471H159.554C160.074 57.9471 160.603 57.9471 161.124 57.9442C161.564 57.9442 162.018 57.9386 162.46 57.9287C163.43 57.9166 164.399 57.831 165.357 57.6726C166.319 57.5065 167.25 57.1985 168.121 56.7588C168.989 56.3185 169.779 55.742 170.464 55.0512C171.154 54.3663 171.73 53.5771 172.176 52.7126C172.613 51.844 172.916 50.9137 173.073 49.9539C173.234 48.9952 173.324 48.0259 173.342 47.0538C173.347 46.6039 173.347 46.1681 173.347 45.7183C173.359 45.192 173.359 44.6686 173.359 44.1337V13.8149C173.359 13.2844 173.359 12.7581 173.347 12.2333C173.347 11.7891 173.347 11.3434 173.342 10.8992C173.324 9.92711 173.234 8.95768 173.073 7.99895C172.915 7.0397 172.613 6.10997 172.176 5.24166C171.282 3.49902 169.864 2.08052 168.121 1.18567C167.25 0.747077 166.318 0.440933 165.357 0.277349C164.399 0.11768 163.431 0.0320704 162.46 0.021281C162.018 0.0142115 161.564 0.00572226 161.124 0.00289735C160.603 0 160.074 0 159.554 0V0.000188328Z" fill="#A6A6A6"/>
<path d="M12.2386 56.6793C11.7973 56.6793 11.3665 56.6737 10.9286 56.6638C10.0214 56.652 9.11635 56.573 8.22083 56.4276C7.3858 56.2837 6.57688 56.0162 5.82076 55.6338C5.07156 55.2546 4.38824 54.7573 3.79696 54.1611C3.19712 53.5719 2.69773 52.8885 2.31858 52.138C1.93524 51.3827 1.66995 50.573 1.53195 49.7373C1.38291 48.8393 1.30228 47.9313 1.29074 47.021C1.28156 46.7155 1.26953 45.6982 1.26953 45.6982V12.2331C1.26953 12.2331 1.28234 11.2315 1.29081 10.9372C1.30186 10.0284 1.38203 9.12178 1.53061 8.22517C1.66887 7.38714 1.93437 6.57515 2.31791 5.81732C2.69567 5.06737 3.19229 4.38347 3.78852 3.79215C4.38407 3.19521 5.06958 2.6954 5.82005 2.31093C6.57444 1.92976 7.38183 1.66413 8.21517 1.52294C9.11363 1.37599 10.0218 1.29655 10.9322 1.28527L12.2393 1.26758H161.117L162.44 1.28598C163.342 1.2967 164.242 1.37543 165.132 1.52152C165.974 1.66448 166.789 1.93196 167.553 2.31517C169.056 3.08999 170.279 4.31582 171.051 5.82086C171.428 6.57346 171.69 7.37882 171.826 8.20961C171.977 9.11358 172.061 10.0273 172.078 10.9436C172.082 11.3538 172.082 11.7945 172.082 12.2331C172.094 12.7763 172.094 13.2934 172.094 13.8147V44.1335C172.094 44.6598 172.094 45.1734 172.082 45.6911C172.082 46.1623 172.082 46.5938 172.077 47.038C172.06 47.9379 171.977 48.8353 171.829 49.7231C171.694 50.5649 171.43 51.3808 171.047 52.1424C170.665 52.8847 170.168 53.5622 169.576 54.1498C168.984 54.7492 168.299 55.2494 167.548 55.6311C166.787 56.0164 165.973 56.2849 165.132 56.4276C164.236 56.5738 163.331 56.6528 162.424 56.6638C162 56.6737 161.555 56.6793 161.124 56.6793L159.554 56.6822L12.2386 56.6793Z" fill="black"/>
<path d="M35.8857 29.4089C35.9174 26.9513 37.2058 24.6812 39.2996 23.3939C37.9727 21.4989 35.83 20.3405 33.5177 20.2682C31.0851 20.0128 28.7267 21.7238 27.487 21.7238C26.2234 21.7238 24.3148 20.2935 22.2595 20.3358C19.5553 20.4232 17.0954 21.9234 15.7797 24.2876C12.978 29.1384 15.0678 36.2674 17.7516 40.1884C19.0944 42.1084 20.6637 44.253 22.7172 44.177C24.7265 44.0936 25.477 42.8957 27.9025 42.8957C30.3055 42.8957 31.0096 44.177 33.1047 44.1286C35.2609 44.0936 36.6194 42.2001 37.9151 40.2619C38.8798 38.8938 39.6222 37.3818 40.1147 35.7819C37.5539 34.6988 35.8887 32.1894 35.8857 29.4089Z" fill="white"/>
<path d="M31.9298 17.6896C33.1054 16.2783 33.6846 14.4643 33.5444 12.6328C31.7482 12.8215 30.0891 13.6799 28.8976 15.037C27.7211 16.3761 27.125 18.1279 27.2408 19.9066C29.061 19.9253 30.7892 19.1082 31.9298 17.6896Z" fill="white"/>
<path d="M61.2872 39.3177H54.43L52.7833 44.1801H49.8789L56.3739 26.1904H59.3914L65.8864 44.1801H62.9325L61.2872 39.3177ZM55.1402 37.0739H60.5756L57.8962 29.1826H57.8212L55.1402 37.0739Z" fill="white"/>
<path d="M79.9134 37.6222C79.9134 41.698 77.7319 44.3167 74.4398 44.3167C72.7382 44.4057 71.1353 43.5144 70.3131 42.022H70.2508V48.5184H67.5586V31.0636H70.1645V33.2451H70.214C71.0728 31.762 72.6774 30.8711 74.3903 30.9263C77.7191 30.9264 79.9134 33.5577 79.9134 37.6222ZM77.1462 37.6222C77.1462 34.9668 75.7739 33.221 73.6801 33.221C71.6231 33.221 70.2395 35.0036 70.2395 37.6222C70.2395 40.2649 71.6231 42.0347 73.6801 42.0347C75.7739 42.0347 77.1462 40.3017 77.1462 37.6222Z" fill="white"/>
<path d="M94.3469 37.6222C94.3469 41.698 92.1654 44.3167 88.8734 44.3167C87.1718 44.4057 85.5689 43.5144 84.7467 42.022H84.6844V48.5184H81.9922V31.0636H84.5981V33.2451H84.6476C85.5064 31.762 87.1109 30.8711 88.8238 30.9263C92.1527 30.9263 94.3469 33.5577 94.3469 37.6222ZM91.5797 37.6222C91.5797 34.9668 90.2075 33.221 88.1137 33.221C86.0567 33.221 84.6731 35.0036 84.6731 37.6222C84.6731 40.2649 86.0567 42.0347 88.1137 42.0347C90.2075 42.0347 91.5798 40.3017 91.5798 37.6222H91.5797Z" fill="white"/>
<path d="M103.888 39.1669C104.088 40.9508 105.821 42.1222 108.189 42.1222C110.458 42.1222 112.091 40.9508 112.091 39.3422C112.091 37.9459 111.106 37.1098 108.775 36.5368L106.443 35.9752C103.14 35.1773 101.607 33.6324 101.607 31.1255C101.607 28.0216 104.311 25.8896 108.152 25.8896C111.954 25.8896 114.56 28.0216 114.647 31.1255H111.93C111.767 29.3302 110.283 28.2466 108.114 28.2466C105.945 28.2466 104.461 29.343 104.461 30.9388C104.461 32.2106 105.409 32.959 107.728 33.5319L109.71 34.0186C113.401 34.8915 114.935 36.3741 114.935 39.0055C114.935 42.3711 112.254 44.479 107.99 44.479C104 44.479 101.307 42.4206 101.133 39.1667L103.888 39.1669Z" fill="white"/>
<path d="M120.745 27.96V31.0639H123.239V33.1958H120.745V40.4265C120.745 41.5498 121.244 42.0732 122.341 42.0732C122.637 42.0681 122.932 42.0473 123.226 42.0109V44.1302C122.733 44.2223 122.232 44.264 121.731 44.2547C119.075 44.2547 118.04 43.2573 118.04 40.7136V33.1958H116.133V31.0639H118.04V27.96H120.745Z" fill="white"/>
<path d="M124.684 37.6223C124.684 33.4955 127.115 30.9023 130.905 30.9023C134.708 30.9023 137.127 33.4955 137.127 37.6223C137.127 41.7603 134.72 44.3422 130.905 44.3422C127.091 44.3422 124.684 41.7603 124.684 37.6223ZM134.384 37.6223C134.384 34.7914 133.086 33.1206 130.905 33.1206C128.723 33.1206 127.427 34.8041 127.427 37.6223C127.427 40.4644 128.723 42.1225 130.905 42.1225C133.086 42.1225 134.384 40.4644 134.384 37.6223Z" fill="white"/>
<path d="M139.348 31.0634H141.916V33.2958H141.978C142.337 31.8587 143.653 30.8696 145.133 30.9261C145.444 30.925 145.753 30.9587 146.056 31.0266V33.5448C145.664 33.4251 145.255 33.3701 144.846 33.3821C144.055 33.35 143.289 33.6654 142.749 34.2456C142.21 34.8257 141.951 35.6126 142.041 36.3997V44.1792H139.348V31.0634Z" fill="white"/>
<path d="M158.468 40.3272C158.106 42.7082 155.787 44.3422 152.821 44.3422C149.005 44.3422 146.637 41.7858 146.637 37.6845C146.637 33.5705 149.018 30.9023 152.708 30.9023C156.336 30.9023 158.618 33.3951 158.618 37.3718V38.2942H149.355V38.4569C149.268 39.4334 149.605 40.3999 150.28 41.1107C150.956 41.8215 151.903 42.208 152.883 42.172C154.189 42.2944 155.421 41.5442 155.912 40.3272H158.468ZM149.367 36.4127H155.925C155.974 35.5353 155.654 34.6772 155.043 34.0453C154.433 33.4134 153.586 33.065 152.708 33.0838C151.822 33.0785 150.971 33.4272 150.344 34.0523C149.717 34.6774 149.365 35.5272 149.367 36.4127Z" fill="white"/>
<path d="M54.802 12.6475C55.9449 12.5655 57.0644 13.0003 57.8523 13.8323C58.6402 14.6643 59.0134 15.8058 58.8693 16.9426C58.8693 19.7041 57.3768 21.2915 54.802 21.2915H51.6797V12.6475H54.802ZM53.0223 20.0691H54.652C55.4688 20.1179 56.2642 19.7961 56.8172 19.193C57.3702 18.5899 57.622 17.7697 57.5027 16.9602C57.6133 16.1541 57.3579 15.3407 56.8062 14.7425C56.2546 14.1443 55.4645 13.824 54.652 13.869H53.0223V20.0691Z" fill="white"/>
<path d="M60.3857 18.0272C60.2738 16.858 60.8345 15.7264 61.8325 15.1071C62.8306 14.4877 64.0934 14.4877 65.0915 15.1071C66.0895 15.7264 66.6502 16.858 66.5383 18.0272C66.6523 19.1977 66.0921 20.3315 65.0932 20.9522C64.0943 21.5728 62.8297 21.5728 61.8308 20.9522C60.8318 20.3315 60.2717 19.1977 60.3857 18.0272ZM65.2141 18.0272C65.2141 16.6132 64.5789 15.7863 63.4641 15.7863C62.3451 15.7863 61.7156 16.6132 61.7156 18.0272C61.7156 19.4526 62.3451 20.2731 63.4641 20.2731C64.5789 20.2731 65.2141 19.4469 65.2141 18.0272Z" fill="white"/>
<path d="M74.7178 21.2918H73.3822L72.034 16.4874H71.9322L70.5896 21.2918H69.2669L67.4688 14.7686H68.7746L69.943 19.7462H70.0393L71.3804 14.7686H72.6154L73.9566 19.7462H74.0584L75.2214 14.7686H76.5088L74.7178 21.2918Z" fill="white"/>
<path d="M78.0195 14.7691H79.2588V15.8054H79.355C79.6896 15.0424 80.4713 14.5757 81.3017 14.6432C81.9446 14.5948 82.5747 14.8415 83.0139 15.3135C83.4531 15.7855 83.6539 16.4316 83.5596 17.0694V21.2923H82.2722V17.3927C82.2722 16.3444 81.8166 15.8231 80.8645 15.8231C80.4284 15.8028 80.0052 15.9739 79.7058 16.2917C79.4064 16.6094 79.2607 17.042 79.3069 17.4762V21.2924H78.0195V14.7691Z" fill="white"/>
<path d="M85.6133 12.2227H86.9007V21.2924H85.6133V12.2227Z" fill="white"/>
<path d="M88.6904 18.0273C88.5786 16.858 89.1394 15.7264 90.1375 15.1071C91.1356 14.4877 92.3985 14.4877 93.3966 15.1071C94.3947 15.7264 94.9555 16.858 94.8437 18.0273C94.9575 19.1979 94.3973 20.3316 93.3983 20.9523C92.3994 21.5729 91.1347 21.5729 90.1358 20.9523C89.1368 20.3316 88.5765 19.1979 88.6904 18.0273ZM93.5188 18.0273C93.5188 16.6133 92.8836 15.7864 91.7688 15.7864C90.6498 15.7864 90.0203 16.6133 90.0203 18.0274C90.0203 19.4527 90.6498 20.2732 91.7688 20.2732C92.8836 20.2732 93.5188 19.447 93.5188 18.0273Z" fill="white"/>
<path d="M96.1992 19.447C96.1992 18.2727 97.0735 17.5958 98.6254 17.4996L100.393 17.3977V16.8347C100.393 16.1457 99.9369 15.7567 99.057 15.7567C98.3383 15.7567 97.8403 16.0205 97.6974 16.4817H96.451C96.5826 15.3613 97.6366 14.6426 99.1164 14.6426C100.752 14.6426 101.674 15.4567 101.674 16.8347V21.2918H100.435V20.375H100.333C99.9121 21.0445 99.1636 21.4358 98.3736 21.3992C97.8199 21.4568 97.2676 21.2775 96.8533 20.9055C96.439 20.5336 96.2014 20.0037 96.1992 19.447ZM100.393 18.8896V18.3442L98.7995 18.446C97.9011 18.5062 97.4937 18.8117 97.4937 19.3868C97.4937 19.9739 98.003 20.3156 98.7033 20.3156C99.1179 20.3576 99.5318 20.2295 99.8502 19.9607C100.169 19.6918 100.365 19.3053 100.393 18.8896Z" fill="white"/>
<path d="M103.363 18.028C103.363 15.9668 104.422 14.661 106.07 14.661C106.903 14.6226 107.682 15.0685 108.071 15.8054H108.167V12.2227H109.454V21.2924H108.221V20.2618H108.119C107.701 20.9926 106.912 21.431 106.07 21.3999C104.411 21.4 103.363 20.0942 103.363 18.028ZM104.692 18.028C104.692 19.4116 105.345 20.2442 106.435 20.2442C107.52 20.2442 108.191 19.3996 108.191 18.0337C108.191 16.6741 107.513 15.8175 106.435 15.8175C105.352 15.8175 104.692 16.6557 104.692 18.028Z" fill="white"/>
<path d="M114.784 18.0272C114.672 16.858 115.232 15.7264 116.231 15.1071C117.229 14.4877 118.491 14.4877 119.489 15.1071C120.487 15.7264 121.048 16.858 120.936 18.0272C121.05 19.1977 120.49 20.3315 119.491 20.9522C118.492 21.5728 117.228 21.5728 116.229 20.9522C115.23 20.3315 114.67 19.1977 114.784 18.0272ZM119.612 18.0272C119.612 16.6132 118.977 15.7863 117.862 15.7863C116.743 15.7863 116.114 16.6132 116.114 18.0272C116.114 19.4526 116.743 20.2731 117.862 20.2731C118.977 20.2731 119.612 19.4469 119.612 18.0272Z" fill="white"/>
<path d="M122.664 14.7691H123.903V15.8054H123.999C124.334 15.0424 125.116 14.5757 125.946 14.6432C126.589 14.5948 127.219 14.8415 127.658 15.3135C128.097 15.7855 128.298 16.4316 128.204 17.0694V21.2923H126.916V17.3927C126.916 16.3444 126.461 15.8231 125.509 15.8231C125.073 15.8028 124.65 15.9739 124.35 16.2917C124.051 16.6094 123.905 17.042 123.951 17.4762V21.2924H122.664V14.7691Z" fill="white"/>
<path d="M135.476 13.1445V14.7983H136.89V15.8827H135.476V19.237C135.476 19.9203 135.758 20.2195 136.399 20.2195C136.563 20.219 136.727 20.2091 136.89 20.1898V21.2622C136.658 21.3035 136.424 21.3256 136.189 21.328C134.758 21.328 134.187 20.8243 134.187 19.5666V15.8827H133.152V14.7983H134.187V13.1445H135.476Z" fill="white"/>
<path d="M138.648 12.2227H139.924V15.8175H140.026C140.377 15.0478 141.172 14.5805 142.015 14.6489C142.654 14.6141 143.276 14.8662 143.71 15.3365C144.145 15.8068 144.347 16.4463 144.262 17.0808V21.2925H142.973V17.3984C142.973 16.3565 142.488 15.8288 141.578 15.8288C141.13 15.792 140.689 15.9549 140.372 16.2737C140.056 16.5926 139.896 17.035 139.936 17.4826V21.2924H138.648V12.2227Z" fill="white"/>
<path d="M151.77 19.5305C151.409 20.761 150.218 21.556 148.944 21.4178C148.074 21.4407 147.238 21.0802 146.657 20.4318C146.077 19.7834 145.811 18.9127 145.93 18.0507C145.814 17.1864 146.079 16.3143 146.656 15.6604C147.233 15.0066 148.066 14.6353 148.938 14.6427C150.753 14.6427 151.848 15.8828 151.848 17.9312V18.3804H147.242V18.4525C147.201 18.9366 147.366 19.4154 147.697 19.7712C148.028 20.127 148.493 20.3267 148.979 20.3213C149.609 20.3969 150.222 20.0845 150.531 19.5305H151.77ZM147.242 17.4283H150.536C150.569 16.9856 150.414 16.5496 150.108 16.2278C149.802 15.9059 149.375 15.7282 148.931 15.7384C148.481 15.7327 148.048 15.909 147.73 16.2272C147.412 16.5453 147.236 16.9784 147.242 17.4283Z" fill="white"/>
</g>
<defs>
<clipPath id="clip0_1_7787">
<rect width="174" height="58" fill="white"/>
</clipPath>
</defs>
</svg>
