<svg width="215" height="129" viewBox="0 0 215 129" fill="none" xmlns="http://www.w3.org/2000/svg">
<path d="M10.0204 129C10.0204 129 -5.56507 109.951 2.13872 73.1584C6.98438 50.0149 27.3376 38.551 54.6216 39.6456C64.0004 40.0217 79.2592 28.8088 101.185 15.0353C148.084 -14.4281 215.924 -1.91498 199.688 64.3576C191.83 96.4278 224.404 96.9423 208.214 129H10.0204Z" fill="#EBF3FA"/>
<path d="M183.505 28.4155C183.433 23.7383 175.649 23.2254 175.649 23.2254C175.649 23.2254 168.638 29.6063 167.123 29.4171C165.608 29.2279 172.044 22.7993 172.044 22.7993C169.27 21.8063 161.131 23.4365 161.131 23.4365C161.131 23.4365 159.3 32.4867 157.878 31.9324C156.456 31.378 159.911 24.001 159.911 24.001C156.948 24.1246 153.56 26.6657 153.56 26.6657C149.016 31.0497 154.918 36.619 154.918 36.619C154.918 36.619 154.215 39.7418 151.375 42.8099C150.884 43.2843 150.438 43.8033 150.044 44.3603L150.795 44.5503C150.908 44.3658 151.024 44.1899 151.147 44.0233L151.153 44.0163C151.231 43.9139 151.349 43.7684 151.493 43.5917C151.837 43.2008 152.076 42.9138 152.235 42.7012C153.28 41.4752 154.738 39.9021 155.496 39.6863C155.455 39.5625 155.431 39.4339 155.424 39.3039C155.447 39.4259 155.471 39.5526 155.496 39.6863C156.08 42.7457 162.388 44.8271 166.154 45.003C169.921 45.1789 168.617 43.7817 167.107 41.666C165.598 39.5502 161.449 38.9591 160.417 38.0193C159.385 37.0795 161.295 36.8817 163.634 37.6682C165.974 38.4548 166.559 41.1257 170.32 42.4658C174.081 43.806 178.87 37.3399 178.87 37.3399C175.997 37.4868 171.599 34.8214 171.649 33.8636C171.7 32.9058 178.743 34.7839 179.914 34.7886C181.085 34.7933 183.576 33.0935 183.505 28.4155Z" fill="#BCCFEC"/>
<path d="M190.24 74.1912C193.904 68.0371 184.168 61.1996 184.168 61.1996C184.168 61.1996 169.903 63.9619 168.08 62.5147C166.257 61.0674 179.809 57.7874 179.809 57.7874C176.989 54.294 165.07 49.9687 165.07 49.9687C165.07 49.9687 155.414 60.3145 154.005 58.4661C152.597 56.6178 163.026 49.738 163.026 49.738C159.063 47.5488 152.606 48.179 152.606 48.179C143.16 50.29 146.381 62.2309 146.381 62.2309C146.381 62.2309 142.957 65.7446 136.792 67.4944C136.792 67.4944 135.567 67.729 133.811 68.4601L134.637 69.3021C134.932 69.1512 135.226 69.0144 135.519 68.894C135.52 68.8936 135.521 68.8934 135.522 68.8934C135.523 68.8934 135.524 68.8936 135.525 68.894L135.537 68.8885C135.726 68.8197 135.993 68.722 136.325 68.6055C137.084 68.3709 137.629 68.1833 138.008 68.0316C140.356 67.2622 143.518 66.3662 144.681 66.686C144.727 66.492 144.799 66.3048 144.894 66.1293L144.681 66.686C142.985 71.1372 149.536 78.8481 154.305 82.0624C159.073 85.2766 158.496 82.422 158.227 78.4657C157.958 74.5094 153.025 70.4523 152.437 68.4116C151.85 66.3709 154.495 67.625 156.914 70.5031C159.333 73.3812 157.95 77.3289 161.777 82.0561C165.604 86.7833 177.027 82.1531 177.027 82.1531C173.165 80.0694 169.572 73.1083 170.406 71.8995C171.241 70.6908 178.915 78.7206 180.438 79.6557C181.961 80.5909 186.577 80.3454 190.24 74.1912Z" fill="#CDE0FB"/>
<path d="M58.5153 51.301C60.6879 46.8693 68.3468 49.8358 68.3468 49.8358C68.3468 49.8358 72.1652 59.0361 73.6994 59.531C75.2335 60.026 71.9755 51.0289 71.9755 51.0289C75.0698 51.3127 82.1021 56.4809 82.1021 56.4809C82.1021 56.4809 79.7777 65.9299 81.3835 66.0323C82.9893 66.1348 83.0113 57.5623 83.0113 57.5623C85.7836 58.9962 87.8727 62.9244 87.8727 62.9244C90.2341 69.1239 82.0998 71.819 82.0998 71.819C82.0998 71.819 81.3654 75.1107 82.6941 79.2976C82.6941 79.2976 83.0239 80.0865 83.2663 81.368L82.465 81.2117C82.4406 80.9857 82.4083 80.766 82.3666 80.5526C82.367 80.5494 82.367 80.5463 82.3666 80.5432C82.3351 80.4095 82.2879 80.2195 82.2328 79.988C82.0754 79.4657 81.9817 79.0826 81.9258 78.8082C81.4795 77.1741 80.7963 75.0255 80.1697 74.4836C80.2646 74.3836 80.3459 74.2716 80.4114 74.1506L80.1697 74.4836C78.2365 77.142 71.2813 76.3296 67.6084 74.8253C63.9356 73.321 65.8082 72.5665 68.2004 71.2193C70.5925 69.8721 74.8171 71.1474 76.2229 70.7072C77.6288 70.267 75.8963 69.2333 73.3105 68.944C70.7247 68.6547 68.9639 70.9456 64.7724 70.5539C60.5808 70.1622 58.9231 61.8751 58.9231 61.8751C61.5994 63.2903 66.9929 62.6992 67.3762 61.7625C67.7596 60.8258 60.1935 59.4951 59.0734 58.9775C57.9533 58.4599 56.3389 55.7327 58.5153 51.301Z" fill="#CDE0FB"/>
<path d="M151.649 11.5458H84.3022C78.7793 11.5458 74.3022 16.0229 74.3022 21.5458V118.109C74.3022 123.632 78.7793 128.109 84.3022 128.109H151.648C157.171 128.109 161.648 123.632 161.648 118.109V21.5458C161.648 16.0229 157.171 11.5458 151.649 11.5458Z" fill="#ABDDDA"/>
<path d="M157.486 15.3239H79.4247V122.88H157.486V15.3239Z" fill="white"/>
<path d="M102.536 11.5458V15.4943C102.535 16.0126 102.638 16.5258 102.837 17.0048C103.037 17.4837 103.329 17.9189 103.698 18.2856C104.067 18.6522 104.505 18.9431 104.987 19.1417C105.469 19.3402 105.986 19.4425 106.507 19.4427H127.839C128.361 19.4425 128.878 19.3402 129.36 19.1417C129.842 18.9431 130.279 18.6522 130.648 18.2856C131.017 17.9189 131.31 17.4837 131.509 17.0048C131.709 16.5258 131.811 16.0126 131.811 15.4943V11.5458H102.536Z" fill="#39AFA8"/>
<path d="M121.494 117.991C120.256 118.39 119.047 118.598 118.097 118.519C116.65 118.399 115.834 117.646 115.802 116.397C115.776 115.406 116.19 114.539 117.002 113.836C116.994 113.768 116.987 113.7 116.982 113.632C116.929 112.934 117.079 112.47 117.429 112.253C117.994 111.904 118.834 112.382 118.869 112.402L118.681 112.721C118.493 112.613 117.934 112.373 117.625 112.565C117.358 112.732 117.327 113.19 117.349 113.56C118.01 113.085 118.873 112.699 119.924 112.416C120.719 112.207 121.53 112.069 122.349 112.004C122.352 111.927 122.359 111.851 122.371 111.775C122.396 111.604 122.456 111.403 122.626 111.363C122.689 111.349 122.815 111.351 122.926 111.52C123.003 111.657 123.042 111.811 123.04 111.968C123.309 111.962 123.559 111.968 123.781 111.983L123.788 111.969C123.74 111.54 123.759 111.106 123.844 110.682C123.939 110.255 124.093 110.039 124.309 110.018C124.372 110.011 124.435 110.026 124.488 110.059C124.541 110.091 124.582 110.141 124.605 110.199C124.726 110.489 124.498 111.272 124.169 112.024C124.478 112.076 124.687 112.16 124.753 112.279C124.784 112.336 124.792 112.403 124.778 112.466C124.763 112.53 124.727 112.586 124.675 112.625C124.426 112.853 124.228 112.796 124.131 112.741C124.044 112.686 123.975 112.608 123.932 112.515C123.683 113.004 123.412 113.422 123.199 113.599C123.143 113.654 123.071 113.69 122.993 113.701C122.915 113.712 122.835 113.698 122.766 113.661C122.731 113.64 122.699 113.614 122.672 113.583C122.59 113.783 122.495 113.977 122.389 114.165C122 114.843 121.561 115.193 121.121 115.172C120.943 115.163 120.775 115.088 120.649 114.963C120.422 115.46 120.135 115.927 119.796 116.356C119.487 116.735 119.092 116.874 118.685 116.747C117.963 116.524 117.311 115.487 117.067 114.259C116.451 114.857 116.151 115.567 116.171 116.38C116.199 117.445 116.857 118.038 118.126 118.144C121.329 118.408 126.946 115.45 127.372 113.273C127.028 115.051 124.363 117.068 121.494 117.991ZM117.394 113.983C117.59 115.279 118.242 116.23 118.796 116.402C119.057 116.481 119.296 116.391 119.505 116.132C119.873 115.669 120.174 115.157 120.4 114.611C120.329 114.457 120.276 114.295 120.242 114.13C120.152 113.702 120.138 113.113 120.242 112.714C119.639 112.858 119.051 113.061 118.488 113.32C118.1 113.5 117.733 113.723 117.394 113.983ZM120.814 114.589C120.846 114.65 120.893 114.701 120.95 114.74C121.007 114.778 121.073 114.803 121.141 114.811C121.423 114.822 121.761 114.524 122.068 113.99C122.224 113.717 122.352 113.429 122.452 113.13C122.391 112.884 122.356 112.632 122.348 112.379C121.935 112.412 121.482 112.467 121.023 112.551C121.266 113.016 121.126 113.804 120.815 114.589H120.814ZM122.841 113.135C122.9 113.309 122.952 113.342 122.952 113.343C123.159 113.165 123.397 112.782 123.613 112.344C123.436 112.337 123.237 112.336 123.021 112.344C122.985 112.612 122.925 112.877 122.841 113.135ZM120.659 112.66C120.564 112.857 120.496 113.484 120.611 114.042C120.798 113.431 120.837 112.9 120.659 112.661V112.66ZM124.265 110.53C124.224 110.657 124.195 110.788 124.177 110.921C124.215 110.792 124.245 110.662 124.265 110.53Z" fill="#F99746"/>
<path d="M102.868 63.3794H88.75V49.3557H102.868V63.3794ZM89.4151 62.7188H102.202V50.0164H89.4151V62.7188Z" fill="#ABDDDA"/>
<path d="M96.1591 60.5608C96.0123 60.5607 95.8673 60.5284 95.7345 60.4663C95.6017 60.4041 95.4844 60.3136 95.3908 60.2012L91.034 54.9626C90.9505 54.8623 90.8878 54.7467 90.8493 54.6223C90.8108 54.498 90.7973 54.3673 90.8097 54.2378C90.822 54.1083 90.8599 53.9824 90.9213 53.8674C90.9826 53.7525 91.0661 53.6506 91.167 53.5677C91.268 53.4848 91.3844 53.4225 91.5096 53.3842C91.6348 53.346 91.7663 53.3326 91.8967 53.3449C92.0271 53.3572 92.1538 53.3948 92.2695 53.4557C92.3853 53.5166 92.4878 53.5996 92.5713 53.6999L96.0269 57.8516L102.281 47.4347C102.416 47.2089 102.637 47.0458 102.894 46.9815C103.15 46.9171 103.422 46.9567 103.65 47.0914C103.877 47.2262 104.041 47.4452 104.106 47.7002C104.171 47.9552 104.131 48.2253 103.995 48.4511L97.0163 60.0768C96.9345 60.2131 96.8209 60.3279 96.6852 60.4116C96.5495 60.4952 96.3955 60.5453 96.2362 60.5577C96.2103 60.56 96.1851 60.5608 96.1591 60.5608Z" fill="#F99746"/>
<path d="M102.868 85.3064H88.75V71.2827H102.868V85.3064ZM89.4151 84.6458H102.202V71.9434H89.4151V84.6458Z" fill="#ABDDDA"/>
<path d="M96.1594 82.3673C96.0126 82.3672 95.8676 82.3349 95.7348 82.2727C95.602 82.2106 95.4846 82.12 95.3911 82.0076L91.0343 76.7691C90.9482 76.6691 90.8829 76.5532 90.8424 76.4279C90.8019 76.3027 90.7869 76.1707 90.7982 76.0396C90.8096 75.9086 90.8472 75.7811 90.9087 75.6646C90.9702 75.5481 91.0545 75.445 91.1565 75.3612C91.2586 75.2774 91.3765 75.2146 91.5033 75.1765C91.63 75.1384 91.7632 75.1258 91.8949 75.1394C92.0266 75.153 92.1543 75.1925 92.2705 75.2556C92.3866 75.3188 92.489 75.4043 92.5716 75.5071L96.0272 79.6581L102.277 69.238C102.413 69.0122 102.633 68.8492 102.89 68.7848C103.147 68.7204 103.419 68.76 103.646 68.8948C103.873 69.0296 104.037 69.2485 104.102 69.5035C104.167 69.7585 104.127 70.0286 103.991 70.2545L97.0166 81.8825C96.9348 82.0188 96.8212 82.1336 96.6855 82.2172C96.5497 82.3009 96.3958 82.351 96.2365 82.3634C96.2106 82.3657 96.1854 82.3673 96.1594 82.3673Z" fill="#F99746"/>
<path d="M102.868 106.78H88.75V92.7561H102.868V106.78ZM89.4151 106.119H102.202V93.416H89.4151V106.119Z" fill="#ABDDDA"/>
<path d="M96.1591 103.634C96.0122 103.634 95.8672 103.602 95.7344 103.539C95.6015 103.477 95.4842 103.387 95.3908 103.274L91.034 98.0354C90.9505 97.9351 90.8878 97.8195 90.8493 97.6952C90.8108 97.5708 90.7973 97.4401 90.8097 97.3106C90.822 97.1811 90.8599 97.0552 90.9213 96.9403C90.9826 96.8253 91.0661 96.7235 91.167 96.6405C91.268 96.5576 91.3844 96.4953 91.5096 96.457C91.6348 96.4188 91.7663 96.4055 91.8967 96.4177C92.0271 96.43 92.1538 96.4677 92.2695 96.5286C92.3853 96.5895 92.4878 96.6724 92.5713 96.7727L96.0269 100.924L102.277 90.5044C102.412 90.2786 102.633 90.1155 102.89 90.0512C103.146 89.9868 103.418 90.0264 103.646 90.1611C103.873 90.2959 104.037 90.5149 104.102 90.7699C104.167 91.0249 104.127 91.295 103.991 91.5208L97.0163 103.148C96.9346 103.284 96.8211 103.399 96.6853 103.483C96.5496 103.567 96.3955 103.617 96.2362 103.629C96.2103 103.633 96.1851 103.634 96.1591 103.634Z" fill="#F99746"/>
<g opacity="0.5">
<path opacity="0.5" d="M130.792 52.6279H112.382V53.9962H130.792V52.6279Z" fill="#ABDDDA"/>
<path opacity="0.5" d="M146.435 52.6279H142.251V53.9962H146.435V52.6279Z" fill="#ABDDDA"/>
<path opacity="0.5" d="M130.792 58.739H112.382V60.1073H130.792V58.739Z" fill="#ABDDDA"/>
<path opacity="0.5" d="M146.434 58.739H140.196V60.1073H146.434V58.739Z" fill="#ABDDDA"/>
<path opacity="0.5" d="M146.434 55.6835H141.307V57.0518H146.434V55.6835Z" fill="#ABDDDA"/>
<path opacity="0.5" d="M131.11 55.6835H125.983V57.0518H131.11V55.6835Z" fill="#ABDDDA"/>
<path opacity="0.5" d="M123.775 55.6835H112.382V57.0518H123.775V55.6835Z" fill="#ABDDDA"/>
</g>
<g opacity="0.5">
<path opacity="0.5" d="M130.089 73.6877H112.382V75.056H130.089V73.6877Z" fill="#ABDDDA"/>
<path opacity="0.5" d="M130.792 79.799H112.382V81.1672H130.792V79.799Z" fill="#ABDDDA"/>
<path opacity="0.5" d="M129.86 76.7433H125.095V78.1116H129.86V76.7433Z" fill="#ABDDDA"/>
<path opacity="0.5" d="M123.775 76.7433H112.382V78.1116H123.775V76.7433Z" fill="#ABDDDA"/>
</g>
<g opacity="0.5">
<path opacity="0.5" d="M130.792 95.3441H112.382V96.7124H130.792V95.3441Z" fill="#ABDDDA"/>
<path opacity="0.5" d="M130.792 101.455H112.382V102.824H130.792V101.455Z" fill="#ABDDDA"/>
<path opacity="0.5" d="M133.101 98.3997H125.095V99.7679H133.101V98.3997Z" fill="#ABDDDA"/>
<path opacity="0.5" d="M123.775 98.3997H112.382V99.7679H123.775V98.3997Z" fill="#ABDDDA"/>
</g>
<path d="M98.4083 114.276H88.75V115.248H98.4083V114.276Z" fill="#ABDDDA"/>
<path d="M110.303 114.276H100.645V115.248H110.303V114.276Z" fill="#ABDDDA"/>
<path d="M102.144 116.431H88.75V117.402H102.144V116.431Z" fill="#ABDDDA"/>
<path d="M152.605 82.8161C152.605 82.8161 153.32 85.0054 153.259 85.5073C153.198 86.0093 152.748 87.7201 152.427 88.1579C152.106 88.5958 151.948 86.3737 151.693 86.0398C151.439 85.7059 151.641 86.8764 151.462 86.9843C151.282 87.0922 150.911 86.1242 150.749 85.781C150.587 85.4378 151.142 84.1774 151.142 83.2978C151.142 82.4182 152.605 82.8161 152.605 82.8161Z" fill="#FFB27D"/>
<path d="M135.767 65.4194C135.568 62.9081 138.315 61.1864 140.483 62.4921L140.615 62.5742C143.862 64.6501 150.868 74.336 151.35 75.3063C151.831 76.2766 153.255 83.996 153.255 83.996C153.255 83.996 151.496 84.6348 150.673 83.9718C150.673 83.9718 147.822 76.6511 147.401 76.2852C146.979 75.9193 135.993 69.7956 135.9 67.5008C135.874 66.8941 135.826 66.1646 135.767 65.4194Z" fill="#3764AE"/>
<path d="M107.479 66.1375L108.434 68.8622L122.232 64.0895L121.276 61.3649L107.479 66.1375Z" fill="#F99746"/>
<path d="M104.759 68.6118L108.445 68.8644L107.489 66.1395L104.759 68.6118Z" fill="#F9DDBF"/>
<path d="M123.208 61.7172L123.51 62.5773C123.599 62.8318 123.583 63.1109 123.465 63.3533C123.347 63.5958 123.136 63.7818 122.88 63.8705L122.242 64.091L121.287 61.3662L121.982 61.1261C122.101 61.0849 122.228 61.0675 122.354 61.0749C122.48 61.0823 122.604 61.1144 122.718 61.1693C122.832 61.2242 122.934 61.3008 123.018 61.3948C123.102 61.4889 123.166 61.5984 123.208 61.7172Z" fill="#F9DDBF"/>
<path d="M155.37 122.112C155.37 122.112 156.679 123.298 156.424 124.145C156.168 124.992 154.987 125.553 154.827 126.581C154.667 127.609 154.029 128.173 153.454 128.173H150.714C150.714 128.173 150.292 127.448 151.313 127.23C152.335 127.012 152.72 125.8 152.656 124.676C152.592 123.553 152.752 122.053 152.752 122.053L154.923 121.553L155.37 122.112Z" fill="#233862"/>
<path d="M139.311 125.181C139.311 125.181 139.547 127.882 138.971 128.163L131.617 128.148C131.617 128.148 131.617 127.305 132.797 127.117C133.978 126.93 136.055 126.243 136.406 124.713C136.757 123.183 139.311 125.181 139.311 125.181Z" fill="#233862"/>
<path d="M133.102 87.0344C133.102 87.0344 133.49 91.7679 133.946 97.4584C134.566 105.188 135.311 114.682 135.385 116.481C135.512 119.608 136.024 124.6 136.024 124.6C136.024 124.6 137.236 125.787 139.664 125.287C139.664 125.287 141.826 118.155 142.444 110.61L142.472 110.237C143.048 102.555 143.941 86.3784 143.941 86.3784L133.102 87.0344Z" fill="#2B478B"/>
<path d="M133.102 87.0344C133.102 87.0344 133.49 91.7679 133.946 97.4584L142.447 110.61L142.475 110.237C143.051 102.555 143.944 86.3784 143.944 86.3784L133.102 87.0344Z" fill="#233862"/>
<path d="M134.873 87.5965C134.873 87.5965 141.865 104.74 146.462 112.796C151.059 120.853 152.496 123.102 152.496 123.102C152.496 123.102 155.131 122.071 155.37 121.368C155.37 121.368 153.612 105.815 150.533 102.024C148.794 99.8806 146.749 93.4512 146.654 91.2033C146.559 88.9554 146.032 84.505 146.032 84.505L134.873 87.5965Z" fill="#2B478B"/>
<path d="M140.902 61.8806C140.902 61.8806 136.218 64.2403 133.474 63.4529C133.981 62.8448 134.597 62.3353 135.291 61.9502C135.185 61.4083 135.102 60.9337 135.054 60.5381C134.979 60.06 134.931 59.5782 134.91 59.0948L136.707 57.6327L138.411 56.2339C138.348 60.0737 140.902 61.8806 140.902 61.8806Z" fill="#FFB27D"/>
<path d="M145.556 85.8616C143.667 86.9992 141.873 87.8538 139.778 88.3339C137.306 88.9164 134.268 88.7444 133.252 88.8984C133.147 88.9101 133.041 88.8822 132.955 88.8202C132.876 88.7796 132.427 85.7842 131.977 82.0046C131.958 81.8482 131.937 81.6989 131.928 81.5449L131.922 81.494C131.747 80.0163 131.594 78.4643 131.461 76.9076C131.353 75.6972 131.264 74.5002 131.201 73.375C131.123 71.9677 131.091 70.6752 131.123 69.6119C131.137 69.1263 131.166 68.6893 131.209 68.31C131.477 66.102 132.537 64.5242 133.536 63.349L134.364 62.4108C135.324 62.471 136.305 62.2912 137.23 61.6844C138.242 61.023 139.333 60.3115 139.54 60.4334C141.089 61.2763 142.352 63.4593 143.254 66.3428C143.802 68.1522 144.193 70.005 144.421 71.8809C144.5 72.5001 144.573 73.1319 144.625 73.7675C144.636 73.8848 144.644 74.0021 144.654 74.1163C144.776 75.845 144.974 77.465 145.194 78.9115C145.491 80.8662 145.824 82.498 146.067 83.6489C146.186 84.2345 146.278 84.688 146.332 85.0125C146.381 85.3002 145.81 85.7045 145.556 85.8616Z" fill="#5C87DD"/>
<path d="M138.468 57.7C138.468 57.7 137.316 59.8892 135.052 60.5374C134.977 60.0593 134.929 59.5775 134.908 59.0941L136.704 57.632L138.468 57.7Z" fill="#ED985F"/>
<path d="M134.075 59.0487C134.075 59.0487 138.601 59.6929 138.97 56.929C139.34 54.1651 140.171 52.3871 137.296 51.8585C134.422 51.33 133.719 52.3136 133.366 53.2073C133.013 54.101 132.907 58.8094 134.075 59.0487Z" fill="#FFB27D"/>
<path d="M140.501 51.4652C140.542 51.4183 140.635 51.3784 140.845 51.3628C140.724 51.2979 140.589 51.263 140.452 51.2612C140.402 50.9711 140.236 50.4605 139.731 50.3456C139.814 50.3915 139.885 50.4554 139.94 50.5326C139.994 50.6098 140.03 50.6982 140.046 50.7912C139.451 50.208 138.194 49.7998 134.741 50.1392C130.191 50.5864 131.75 53.4551 132.347 53.789C132.945 54.1228 134.411 53.1463 135.512 53.2119C136.613 53.2776 136.85 54.85 137.23 55.0595C137.61 55.2691 137.454 54.8883 137.953 54.6522C138.453 54.416 138.518 55.2456 138.383 55.7882C138.249 56.3308 138.956 57.0298 138.956 57.0298L139.641 56.2659C140.327 55.5028 140.923 52.3151 140.592 51.6451C140.56 51.5856 140.531 51.5231 140.501 51.4652Z" fill="#2C3A64"/>
<path d="M139.064 69.862C139.064 69.862 135.247 72.7464 131.201 73.3805C131.123 71.9731 131.091 70.6807 131.123 69.6173L139.064 69.862Z" fill="#1E3D70"/>
<path d="M115.624 66.1395C115.564 66.0754 114.786 63.4913 113.44 63.6797C112.561 63.8025 111.126 64.3052 111.507 65.457C111.658 65.9089 114.333 67.4648 114.333 67.4648L115.624 66.1395Z" fill="#FFB27D"/>
<path d="M139.537 64.288C141.713 65.5812 141.537 68.8025 139.208 69.8025C139.161 69.8237 139.113 69.8432 139.065 69.8628C135.481 71.2905 123.475 71.3569 122.4 71.1849C121.324 71.0129 114.164 67.6977 114.164 67.6977C114.164 67.6977 114.657 65.9033 115.677 65.6211C115.677 65.6211 123.338 67.55 123.882 67.4194C124.426 67.2888 135.813 61.9369 137.751 63.1894C138.264 63.5217 138.891 63.9049 139.537 64.288Z" fill="#5C87DD"/>
<path d="M214.695 128.109H0.652595C0.48392 128.109 0.347183 128.245 0.347183 128.413V128.697C0.347183 128.864 0.48392 129 0.652595 129H214.695C214.863 129 215 128.864 215 128.697V128.413C215 128.245 214.863 128.109 214.695 128.109Z" fill="#2E3552"/>
<path d="M47.5 101.746C58.4202 101.746 67.2727 92.7985 67.2727 81.7606C67.2727 70.7227 58.4202 61.7747 47.5 61.7747C36.5798 61.7747 27.7273 70.7227 27.7273 81.7606C27.7273 92.7985 36.5798 101.746 47.5 101.746Z" fill="#FFCC00"/>
<path d="M177.045 124.458C184.451 124.458 190.455 118.459 190.455 111.058C190.455 103.658 184.451 97.6584 177.045 97.6584C169.64 97.6584 163.636 103.658 163.636 111.058C163.636 118.459 169.64 124.458 177.045 124.458Z" fill="#FFCC00"/>
<path d="M47.7273 96.75C56.2626 96.75 63.1818 90.039 63.1818 81.7606C63.1818 73.4821 56.2626 66.7711 47.7273 66.7711C39.192 66.7711 32.2727 73.4821 32.2727 81.7606C32.2727 90.039 39.192 96.75 47.7273 96.75Z" fill="#D68900"/>
<path d="M177.273 121.278C183.047 121.278 187.727 116.702 187.727 111.058C187.727 105.414 183.047 100.838 177.273 100.838C171.499 100.838 166.818 105.414 166.818 111.058C166.818 116.702 171.499 121.278 177.273 121.278Z" fill="#D68900"/>
<path d="M47.5 96.2958C55.6587 96.2958 62.2727 89.6865 62.2727 81.5334C62.2727 73.3804 55.6587 66.7711 47.5 66.7711C39.3412 66.7711 32.7273 73.3804 32.7273 81.5334C32.7273 89.6865 39.3412 96.2958 47.5 96.2958Z" fill="#F3A100"/>
<path d="M177.045 120.824C182.443 120.824 186.818 116.452 186.818 111.058C186.818 105.665 182.443 101.292 177.045 101.292C171.648 101.292 167.273 105.665 167.273 111.058C167.273 116.452 171.648 120.824 177.045 120.824Z" fill="#F3A100"/>
<path d="M54.651 75.6823H52.8897C52.6924 75.172 52.4274 74.6923 52.1023 74.2568H53.9182L55.4545 71.9417L54.651 71.3134H42.2769L40.7406 73.6285L41.5409 74.2568H47.5383C48.0325 74.1662 48.542 74.2599 48.975 74.5212C49.408 74.7825 49.7363 75.1942 49.9007 75.6823H41.9876L40.4545 77.9974L41.2548 78.6258H49.9681C49.7029 79.2863 49.2532 79.851 48.6759 80.2484C48.0986 80.6458 47.4197 80.858 46.7252 80.8582H40.882V83.504L45.5938 92.0336L46.3973 92.6619H49.6307L44.8353 83.805H47.5897C48.9819 83.7912 50.3222 83.2595 51.3631 82.3081C52.404 81.3568 53.0753 80.05 53.2529 78.6291H53.9182L55.4545 76.314L54.651 75.6823Z" fill="#D68900"/>
<path d="M181.737 106.899H180.563C180.431 106.563 180.255 106.246 180.038 105.959H181.249L182.273 104.432L181.737 104.018H173.488L172.463 105.545L172.997 105.959H176.995C177.325 105.899 177.664 105.961 177.953 106.133C178.242 106.306 178.461 106.577 178.57 106.899H173.295L172.273 108.426L172.806 108.841H178.615C178.438 109.276 178.139 109.649 177.754 109.911C177.369 110.173 176.916 110.313 176.453 110.313H172.558V112.058L175.699 117.684L176.235 118.099H178.39L175.193 112.257H177.03C177.958 112.248 178.851 111.897 179.545 111.269C180.239 110.642 180.687 109.78 180.805 108.843H181.249L182.273 107.316L181.737 106.899Z" fill="#D68900"/>
<path d="M51.2228 73.6479H53.0244L54.5455 71.3134H42.2625L40.7383 73.6479H46.6885C47.345 73.6483 47.9881 73.843 48.5433 74.2094C49.0986 74.5759 49.5433 75.0993 49.8262 75.719H41.9756L40.4545 78.0536H50.0844C49.9174 78.8697 49.4879 79.6012 48.8676 80.1262C48.2473 80.6512 47.4737 80.9378 46.6757 80.9384H40.8786V83.6065L45.5533 92.2077H48.7611L44.01 83.2663H46.7427C48.1193 83.253 49.445 82.7204 50.4761 81.7664C51.5072 80.8123 52.1743 79.501 52.3548 78.0736H53.0181L54.5391 75.739H52.2017C52.0083 74.9821 51.6758 74.2719 51.2228 73.6479Z" fill="#FFCC00"/>
<path d="M179.567 105.591H180.788L181.818 104.018H173.498L172.465 105.591H176.496C176.94 105.591 177.376 105.722 177.752 105.969C178.128 106.216 178.43 106.569 178.621 106.987H173.303L172.273 108.56H178.796C178.683 109.11 178.392 109.603 177.972 109.957C177.552 110.31 177.028 110.504 176.487 110.504H172.56V112.302L175.727 118.099H177.9L174.681 112.073H176.532C177.465 112.064 178.363 111.705 179.062 111.062C179.76 110.419 180.212 109.535 180.334 108.573H180.784L181.814 107H180.231C180.099 106.49 179.874 106.011 179.567 105.591Z" fill="#FFCC00"/>
<path d="M72.0293 121.415H29.2383V127.955H72.0293V121.415Z" fill="#FFCC00"/>
<g style="mix-blend-mode:screen" opacity="0.5">
<path d="M29.2921 121.869H14.6928V128.409H29.2921V121.869Z" fill="#FFCC00"/>
</g>
<g style="mix-blend-mode:multiply" opacity="0.5">
<path d="M72.0291 121.415H57.9332V127.955H72.0291V121.415Z" fill="#FFCC00"/>
</g>
<path d="M70.5183 114.372H27.7273V121.415H70.5183V114.372Z" fill="#FFCC00"/>
<g style="mix-blend-mode:screen" opacity="0.5">
<path d="M38.8026 114.372H27.7273V121.415H38.8026V114.372Z" fill="#FFCC00"/>
</g>
<g style="mix-blend-mode:multiply" opacity="0.5">
<path d="M70.5185 114.372H52.3952V121.415H70.5185V114.372Z" fill="#FFCC00"/>
</g>
<path d="M75.0495 107.832H32.2585V114.372H75.0495V107.832Z" fill="#FFCC00"/>
<g style="mix-blend-mode:screen" opacity="0.5">
<path d="M48.8715 107.832H32.2585V114.372H48.8715V107.832Z" fill="#FFCC00"/>
</g>
<path d="M72.5318 101.292H29.7408V107.832H72.5318V101.292Z" fill="#FFCC00"/>
<g style="mix-blend-mode:screen" opacity="0.5">
<path d="M42.3264 101.292H29.7408V107.832H42.3264V101.292Z" fill="#FFCC00"/>
</g>
<g style="mix-blend-mode:multiply" opacity="0.5">
<path d="M72.5328 101.292H54.913V107.832H72.5328V101.292Z" fill="#FFCC00"/>
</g>
<g style="mix-blend-mode:multiply" opacity="0.5">
<path d="M70.519 121.415H29.2383V122.421H70.519V121.415Z" fill="#FFCC00"/>
</g>
<g style="mix-blend-mode:multiply" opacity="0.5">
<path d="M72.5324 107.832H32.2585V108.838H72.5324V107.832Z" fill="#FFCC00"/>
</g>
<path d="M108.36 37.3998L105.424 32.8167H103.328V37.3998H101.233V24.2121H104.904C106.361 24.2121 107.525 24.5864 108.396 25.3352C109.28 26.084 109.721 27.1225 109.721 28.451C109.721 29.2601 109.548 30.0149 109.202 30.7154C108.868 31.4037 108.336 31.9351 107.608 32.3095L110.778 37.3998H108.36ZM103.328 30.7878H105.191C106.026 30.7878 106.629 30.5584 106.999 30.0995C107.381 29.6285 107.572 29.1031 107.572 28.5234C107.572 28.1853 107.501 27.8472 107.358 27.509C107.214 27.1588 106.97 26.8629 106.623 26.6214C106.277 26.3678 105.823 26.2409 105.262 26.2409H103.328V30.7878Z" fill="#39AFA8"/>
<path d="M112.97 30.8241C112.97 29.6164 113.268 28.4993 113.865 27.4728C114.462 26.4342 115.268 25.6069 116.282 24.991C117.309 24.3751 118.425 24.0671 119.631 24.0671C120.825 24.0671 121.929 24.3751 122.944 24.991C123.971 25.6069 124.788 26.4342 125.397 27.4728C126.006 28.5114 126.311 29.6285 126.311 30.8241C126.311 32.0438 126.006 33.1669 125.397 34.1935C124.8 35.22 123.989 36.0352 122.962 36.639C121.935 37.2428 120.825 37.5448 119.631 37.5448C118.425 37.5448 117.309 37.2489 116.282 36.6571C115.268 36.0533 114.462 35.2381 113.865 34.2116C113.268 33.1851 112.97 32.0559 112.97 30.8241ZM115.118 30.8241C115.118 31.6815 115.321 32.4665 115.727 33.179C116.133 33.8915 116.682 34.4592 117.375 34.8818C118.079 35.3045 118.849 35.5159 119.685 35.5159C120.509 35.5159 121.261 35.3106 121.941 34.9C122.622 34.4773 123.159 33.9097 123.553 33.1971C123.959 32.4725 124.162 31.6815 124.162 30.8241C124.162 29.9666 123.959 29.1756 123.553 28.451C123.147 27.7264 122.598 27.1527 121.905 26.7301C121.213 26.3074 120.455 26.096 119.631 26.096C118.795 26.096 118.031 26.3074 117.339 26.7301C116.658 27.1527 116.115 27.7264 115.709 28.451C115.315 29.1756 115.118 29.9666 115.118 30.8241Z" fill="#39AFA8"/>
<path d="M132.085 24.2121V37.3998H129.99V24.2121H132.085Z" fill="#39AFA8"/>
</svg>
