<svg width="149" height="139" viewBox="0 0 149 139" fill="none" xmlns="http://www.w3.org/2000/svg">
<path d="M63.6814 139C61.359 139 59.0717 138.913 56.8271 138.739C50.7866 138.272 40.3773 137.467 30.0821 132.763C30.4814 132.065 30.7368 131.404 30.8871 130.797H37.5628V124.567H67.8166C68.8013 124.567 69.5994 123.818 69.5994 122.893V95.9488C69.5994 95.0246 68.8013 94.275 67.8166 94.275H62.3981C61.2859 89.4424 59.671 83.011 57.4866 75.6617H92.0295C92.4585 83.4607 97.2834 87.8526 102.774 90.3222C104.982 91.3151 107.293 91.9691 109.63 92.2956V127.69C95.2596 135.308 78.7868 139 63.6814 139ZM27.5414 131.518C27.2122 131.346 26.8845 131.169 26.5565 130.988C26.6054 130.925 26.6556 130.861 26.7072 130.797H28.1129C27.9244 131.043 27.7322 131.285 27.5414 131.518ZM8.66301 113.55C-2.32588 94.8844 -1.55445 68.6595 8.55821 46.7683C9.32634 57.5865 12.7115 68.8563 20.8947 78.8088H14.7943V78.1659L9.43061 75.0924V75.0974L8.65718 74.5896L8.66301 113.55ZM40.0712 94.275H37.5628V92.8439C38.3763 93.3276 39.2155 93.8067 40.0712 94.275ZM147.926 74.3428C147.268 71.1031 146.445 67.8464 145.872 64.7062C145.172 60.8785 144.849 57.0789 145.503 53.2225C145.733 51.8702 146.12 50.4781 146.447 49.0759C148.509 57.2375 148.984 65.881 147.926 74.3428ZM128.395 44.3439C127.762 43.3367 127.168 42.3175 126.636 41.2783C125.361 38.7842 124.449 36.1744 124.237 33.3312C123.86 28.285 125.949 23.5211 128.354 18.9906C131.196 21.6114 134.725 25.3312 138.028 30.1599C139.593 32.4476 140.979 34.848 142.189 37.3392C141.497 37.0988 140.769 36.9881 140.019 36.9881C136.391 36.9881 132.274 39.6059 129.414 43.0206C129.059 43.4454 128.719 43.8872 128.395 44.3439ZM108.595 35.6189L73.5053 10.5139L41.1525 33.7221C38.3315 28.1534 35.2169 22.6854 31.7913 17.5116C41.7933 9.70807 58.0715 0.435547 79.0709 0.435547C79.2954 0.435547 79.5193 0.436539 79.7453 0.438538C92.9182 0.563187 104.01 4.3119 111.836 8.04764C109.761 10.467 108.309 13.2274 107.925 16.0297C107.097 22.0572 108.832 29.1058 108.595 35.6189Z" fill="#EBF3FA"/>
<path d="M64.3438 103.586C64.3438 103.586 53.4525 41.1624 22.8764 5.65933C20.8209 3.2724 16.6282 3.89951 15.4912 6.77245C7.88792 25.9845 -8.56177 84.6466 64.3438 103.586Z" fill="#95AFE4"/>
<path d="M53.3694 94.2751H51.9982C48.0406 90.1701 42.9302 83.9921 37.9271 75.6617H40.4612C44.1566 82.1319 48.4394 88.4896 53.3694 94.2751ZM33.8458 68.2915C28.0181 56.8473 22.8465 42.2618 20.5208 24.3997C20.51 24.3154 20.584 24.2661 20.6558 24.2661C20.7096 24.2661 20.7621 24.2942 20.7763 24.3563C22.1735 30.4567 26.1543 45.9545 33.8458 62.7323V68.2915Z" fill="#C8D9FD"/>
<path d="M126.637 41.2776C125.363 38.784 124.452 36.1739 124.239 33.3309C123.703 26.1695 128.135 19.5736 131.392 13.4075C134.385 7.74045 136.61 -0.704346 126.511 0.0468369C118.465 0.64537 109.005 8.17628 107.926 16.0296C106.649 25.324 111.466 37.0436 105.754 45.4864C97.7647 57.2974 92.0002 54.59 92.0002 74.521C92.0002 83.037 97.0227 87.7349 102.775 90.3222C111.856 94.4062 122.683 92.7558 129.918 86.1801C136.309 80.3711 140.109 72.0199 138.824 63.6361C137.526 55.1684 130.455 48.7462 126.637 41.2776Z" fill="#95AFE4"/>
<path d="M119.883 105.357C119.758 105.357 119.643 105.277 119.61 105.157C114.605 86.3921 111.88 69.3822 111.512 54.5993C111.218 42.7612 112.424 32.3156 115.1 23.55C119.669 8.57867 126.835 3.77024 127.137 3.57355C127.266 3.49038 127.442 3.51974 127.53 3.64009C127.618 3.75948 127.587 3.92485 127.459 4.00802C127.386 4.05597 120.126 8.94366 115.62 23.7663C111.455 37.4655 108.862 62.6848 120.157 105.028C120.194 105.17 120.103 105.313 119.952 105.349C119.929 105.354 119.906 105.357 119.883 105.357Z" fill="#7D97F4"/>
<path d="M134.649 20.2667C134.259 20.1673 133.832 20.1367 133.378 20.1859C130.86 20.4579 129.826 22.9508 129.086 24.8996C128.454 26.5689 127.707 28.5948 128.081 30.4034C128.486 32.3587 130.697 33.9537 132.301 31.9687C134.124 29.7117 136.86 26.2477 136.876 23.2572C136.885 21.7717 135.996 20.6102 134.649 20.2667Z" fill="#91B3FA"/>
<path d="M148.736 86.6526C149.843 79.8061 147.193 71.9462 145.871 64.7061C145.171 60.8782 144.848 57.0787 145.502 53.222C146.154 49.3874 148.072 45.2409 146.303 41.4203C142.738 33.7241 134.266 37.2267 129.413 43.0202C123.781 49.7445 122.242 60.7307 120.103 69.1911C118.813 74.2915 116.87 79.5228 116.19 84.7199C115.063 93.33 117.136 99.3072 121.521 103.344C125.728 107.216 132.133 108.019 137.279 105.328C141.927 102.896 146.951 97.6973 148.736 86.6526Z" fill="#C8D9FF"/>
<path d="M129.35 118.408C129.222 118.408 129.108 118.321 129.085 118.198C129.068 118.094 127.225 107.655 127.177 93.2481C127.133 79.9472 128.651 60.4428 136.137 43.0585C136.193 42.9297 136.348 42.8675 136.485 42.9204C136.622 42.9723 136.689 43.1179 136.633 43.2477C129.181 60.5531 127.67 79.9837 127.713 93.2366C127.759 107.605 129.596 118.011 129.615 118.115C129.638 118.252 129.541 118.381 129.394 118.404C129.38 118.406 129.365 118.408 129.35 118.408Z" fill="#7D97F4"/>
<path d="M138.335 130.978H109.633V78.9892H138.335V130.978Z" fill="#D7E3FF"/>
<path d="M132.205 116.857H115.923C115.89 116.857 115.864 116.832 115.864 116.801V93.1652C115.864 93.1341 115.89 93.1091 115.923 93.1091H132.205C132.238 93.1091 132.265 93.1341 132.265 93.1652V116.801C132.265 116.832 132.238 116.857 132.205 116.857ZM124.734 94.3925C124.716 94.3925 124.701 94.4065 124.701 94.4241V115.542C124.701 115.559 124.716 115.573 124.734 115.573H131.036C131.054 115.573 131.069 115.559 131.069 115.542V94.4241C131.069 94.4065 131.054 94.3925 131.036 94.3925H124.734ZM117.093 94.3925C117.074 94.3925 117.059 94.4065 117.059 94.4241V115.542C117.059 115.559 117.074 115.573 117.093 115.573H123.394C123.412 115.573 123.428 115.559 123.428 115.542V94.4241C123.428 94.4065 123.412 94.3925 123.394 94.3925H117.093Z" fill="url(#paint0_linear_80_9198)"/>
<path d="M131.034 115.573H124.732C124.714 115.573 124.699 115.559 124.699 115.542V94.4243C124.699 94.4068 124.714 94.3928 124.732 94.3928H131.034C131.052 94.3928 131.067 94.4068 131.067 94.4243V115.542C131.067 115.559 131.052 115.573 131.034 115.573Z" fill="#ABBEFF"/>
<path d="M123.398 115.573H117.096C117.077 115.573 117.063 115.559 117.063 115.542V94.4243C117.063 94.4068 117.077 94.3927 117.096 94.3927H123.398C123.416 94.3927 123.431 94.4068 123.431 94.4243V115.542C123.431 115.559 123.416 115.573 123.398 115.573Z" fill="#ABBEFF"/>
<path d="M143.738 83.0938H108.268L106.821 59.1149L136.144 58.5923L145.135 81.0389C145.609 81.9977 144.863 83.0938 143.738 83.0938Z" fill="#4E74CD" fill-opacity="0.94"/>
<path d="M136.256 59.6962L108.071 59.4001L108.248 56.7197L134.592 56.9085C135.609 56.9677 136.385 57.743 136.326 58.6405L136.256 59.6962Z" fill="#4766B0"/>
<path d="M8.85962 130.798H37.5621V78.8096H8.85962V130.798Z" fill="#D7E3FF"/>
<path d="M14.926 115.431V92.9853C14.926 92.9537 14.9528 92.9287 14.9859 92.9287H31.2674C31.3004 92.9287 31.3276 92.9537 31.3276 92.9853V94.2747H30.1318V94.2436C30.1318 94.2266 30.1168 94.2126 30.0982 94.2126H23.7968C23.7785 94.2126 23.7635 94.2266 23.7635 94.2436V94.2747H22.4899V94.2436C22.4899 94.2266 22.4751 94.2126 22.4566 94.2126H16.1552C16.1368 94.2126 16.1219 94.2266 16.1219 94.2436V113.411C15.8427 113.931 15.3977 114.638 14.926 115.431Z" fill="url(#paint1_linear_80_9198)"/>
<path d="M16.1213 113.411V94.244C16.1213 94.227 16.1362 94.213 16.1546 94.213H22.456C22.4745 94.213 22.4893 94.227 22.4893 94.244V94.275H18.1781C17.1937 94.275 16.3956 95.0246 16.3956 95.949V113.125C16.2882 113.176 16.2065 113.249 16.1553 113.347C16.1443 113.368 16.133 113.389 16.1213 113.411Z" fill="#7D97F4"/>
<path d="M30.1305 94.2747H23.762V94.2436C23.762 94.2266 23.7769 94.2126 23.7952 94.2126H30.0969C30.1156 94.2126 30.1305 94.2266 30.1305 94.2436V94.2747Z" fill="#7D97F4"/>
<path d="M3.4602 82.9131H38.9296L40.3766 58.9341L11.0545 58.4112L2.06295 80.8575C1.58962 81.8167 2.33497 82.9131 3.4602 82.9131Z" fill="#4E74CD" fill-opacity="0.94"/>
<path d="M10.9286 59.5146L39.1137 59.2187L38.9372 56.5385L12.5934 56.7273C11.5762 56.7867 10.7996 57.5619 10.8589 58.4592L10.9286 59.5146Z" fill="#4766B0"/>
<path d="M84.8155 133.155H60.969V129.514C60.969 129.427 61.0446 129.356 61.1383 129.356H84.6462C84.7399 129.356 84.8155 129.427 84.8155 129.514V133.155Z" fill="url(#paint2_linear_80_9198)"/>
<path d="M33.594 75.6611V133.091H111.908C112.702 133.091 113.347 132.486 113.347 131.739V75.6611H33.594Z" fill="#BDD0FB"/>
<path d="M81.0304 129.355H64.7542V100.131C64.7542 99.8015 65.039 99.5346 65.3897 99.5346H80.3949C80.7456 99.5346 81.0304 99.8021 81.0304 100.131V129.355Z" fill="#7D97F4"/>
<path d="M80.4195 128.231H65.3713V100.837C65.3713 100.738 65.4561 100.658 65.5607 100.658H80.2294C80.3347 100.658 80.4195 100.738 80.4195 100.837V128.231Z" fill="#93B3FE"/>
<path d="M79.8808 97.5283H65.9031C65.2689 97.5283 64.7542 97.0449 64.7542 96.4493V95.5061C64.7542 94.9395 65.2211 94.4688 65.8237 94.4294L79.8014 93.5178C80.4659 93.4741 81.0304 93.969 81.0304 94.5944V96.4493C81.0304 97.0449 80.5157 97.5283 79.8808 97.5283Z" fill="url(#paint3_linear_80_9198)"/>
<path d="M80.9232 131.203H65.0585C64.3381 131.203 63.7542 130.654 63.7542 129.978V128.908C63.7542 128.264 64.276 126.484 64.9599 126.439L80.833 126.65C81.5875 126.601 82.2276 127.163 82.2276 127.873V129.978C82.2276 130.654 81.6436 131.203 80.9232 131.203Z" fill="#7D97F4"/>
<path d="M80.9658 133.533H65.1014C64.3806 133.533 63.7971 132.984 63.7971 132.308V131.238C63.7971 130.594 63.9468 129.4 64.6309 129.355L80.8763 128.98C81.6297 128.931 82.2707 129.493 82.2707 130.203V132.308C82.2707 132.984 81.6872 133.533 80.9658 133.533Z" fill="#7D97F4"/>
<path d="M109.113 126.618H86.2268C86.1342 126.618 86.0588 126.548 86.0588 126.461V91.8732C86.0588 91.786 86.1342 91.7155 86.2268 91.7155H109.113C109.206 91.7155 109.28 91.786 109.28 91.8732V126.461C109.28 126.548 109.206 126.618 109.113 126.618Z" fill="url(#paint4_linear_80_9198)"/>
<path d="M107.424 125.33H87.871C87.5823 125.33 87.3479 125.109 87.3479 124.838V93.672C87.3479 93.4001 87.5823 93.1799 87.871 93.1799H107.424C107.714 93.1799 107.948 93.4001 107.948 93.672V124.838C107.948 125.109 107.714 125.33 107.424 125.33Z" fill="#ABBEFF"/>
<path d="M97.8139 126.618H96.6331V92.7378H97.8139V126.618Z" fill="url(#paint5_linear_80_9198)"/>
<path d="M60.6169 126.618H37.7302C37.6379 126.618 37.5627 126.548 37.5627 126.461V91.8726C37.5627 91.7855 37.6379 91.7149 37.7302 91.7149H60.6169C60.7091 91.7149 60.7843 91.7855 60.7843 91.8726V126.461C60.7843 126.548 60.7091 126.618 60.6169 126.618Z" fill="url(#paint6_linear_80_9198)"/>
<path d="M58.9249 125.329H39.372C39.0825 125.329 38.8479 125.109 38.8479 124.837V93.6715C38.8479 93.3996 39.0825 93.1793 39.372 93.1793H58.9249C59.2139 93.1793 59.4485 93.3996 59.4485 93.6715V124.837C59.4485 125.109 59.2139 125.329 58.9249 125.329Z" fill="#ABBEFF"/>
<path d="M49.314 126.618H48.1331V92.7379H49.314V126.618Z" fill="url(#paint7_linear_80_9198)"/>
<path d="M114.278 43.5393L113.601 43.0586V42.3893H112.659L73.4702 14.5715L33.8479 42.3893V75.6619H113.601V46.9702L114.278 43.5393Z" fill="#BDD0FB"/>
<path d="M97.5661 27.8949H90.969V17.8065H97.5661V27.8949Z" fill="#4766B0"/>
<path d="M99.7376 19.4417H89.0745V16.649C89.0745 16.4808 89.2201 16.344 89.3992 16.344H99.2433C99.5163 16.344 99.7376 16.5519 99.7376 16.8083V19.4417Z" fill="#4766B0"/>
<path d="M31.1804 47.6876L29.541 43.9355C29.1705 43.089 29.4515 42.1133 30.2267 41.5577L41.1494 33.7215L73.5024 10.5134L108.593 35.6186L112.163 38.1733L112.709 38.5643L118.21 42.4996L117.647 45.0889C117.395 46.2479 116.318 46.9635 115.195 46.9635C114.68 46.9635 114.156 46.8129 113.696 46.4855C113.689 46.4809 113.682 46.4752 113.676 46.4696L73.5024 17.2045L33.8473 45.7662L31.1804 47.6876Z" fill="#4766B0"/>
<path d="M64.988 70.7344V70.7294H64.9774V70.7244H64.9668V70.7194H64.9615V70.7144H64.9562V70.7095H64.9509V70.6988H64.9456V47.0143H64.9509V47.0093H64.9562V46.9993H64.9615V46.9943H64.9721V46.9894H64.9774V46.9844H64.9933V46.9794H81.3027V46.9844H81.3186V46.9894H81.3239V46.9943H81.3292V46.9993H81.3345V47.0043H81.3398V47.0093H81.3451V47.0242H81.3504V70.6888H81.3451V70.7045H81.3398V70.7095H81.3345V70.7194H81.3239V70.7244H81.3186V70.7294H81.308V70.7344H64.988ZM66.1717 69.4426V69.4476H72.4788V69.4426H72.4895V69.4376H72.5001V69.4269H72.5054V48.2861H72.5001V48.2811H72.4948V48.2761H72.4895V48.2712H66.1611V48.2761H66.1558V48.2811H66.1505V48.2861H66.1452V69.4269H66.1505V69.4319H66.1558V69.4376H66.1611V69.4426H66.1717ZM73.8118 69.4426V69.4476H80.119V69.4426H80.1349V69.4376H80.1402V69.4319H80.1455V69.417H80.1508V48.2961H80.1455V48.2861H80.1402V48.2761H80.1296V48.2712H73.8065V48.2761H73.7959V48.2811H73.7906V48.2911H73.7853V69.422H73.7906V69.4319H73.7959V69.4376H73.8012V69.4426" fill="url(#paint8_linear_80_9198)"/>
<path d="M72.4911 69.4471H66.1895C66.1715 69.4471 66.1565 69.4331 66.1565 69.4162V48.2975C66.1565 48.2806 66.1715 48.2665 66.1895 48.2665H72.4911C72.5098 48.2665 72.5248 48.2806 72.5248 48.2975V69.4162C72.5248 69.4331 72.5098 69.4471 72.4911 69.4471Z" fill="#ABBEFF"/>
<path d="M80.1278 69.4471H73.8262C73.8082 69.4471 73.7932 69.4331 73.7932 69.4162V48.2975C73.7932 48.2806 73.8082 48.2665 73.8262 48.2665H80.1278C80.1465 48.2665 80.1615 48.2806 80.1615 48.2975V69.4162C80.1615 69.4331 80.1465 69.4471 80.1278 69.4471Z" fill="#ABBEFF"/>
<path d="M58.2869 70.8995H42.0053C41.9722 70.8995 41.9456 70.8739 41.9456 70.8433V47.2075C41.9456 47.1762 41.9722 47.1513 42.0053 47.1513H58.2869C58.3202 47.1513 58.3467 47.1762 58.3467 47.2075V70.8433C58.3467 70.8739 58.3202 70.8995 58.2869 70.8995ZM50.8161 48.4355C50.798 48.4355 50.7831 48.449 50.7831 48.466V69.584C50.7831 69.6018 50.798 69.616 50.8161 69.616H57.1179C57.136 69.616 57.1512 69.6018 57.1512 69.584V48.466C57.1512 48.449 57.136 48.4355 57.1179 48.4355H50.8161ZM43.1744 48.4355C43.1563 48.4355 43.1414 48.449 43.1414 48.466V69.584C43.1414 69.6018 43.1563 69.616 43.1744 69.616H49.4758C49.4944 69.616 49.5094 69.6018 49.5094 69.584V48.466C49.5094 48.449 49.4944 48.4355 49.4758 48.4355H43.1744Z" fill="url(#paint9_linear_80_9198)"/>
<path d="M49.4753 69.6159H43.1739C43.1558 69.6159 43.1409 69.6019 43.1409 69.5843V48.4663C43.1409 48.4495 43.1558 48.4354 43.1739 48.4354H49.4753C49.494 48.4354 49.5089 48.4495 49.5089 48.4663V69.5843C49.5089 69.6019 49.494 69.6159 49.4753 69.6159Z" fill="#ABBEFF"/>
<path d="M57.1165 69.6159H50.8144C50.7965 69.6159 50.7815 69.6019 50.7815 69.5843V48.4663C50.7815 48.4495 50.7965 48.4354 50.8144 48.4354H57.1165C57.1345 48.4354 57.1494 48.4495 57.1494 48.4663V69.5843C57.1494 69.6019 57.1345 69.6159 57.1165 69.6159Z" fill="#ABBEFF"/>
<path d="M103.326 71.1127H87.0449C87.0112 71.1127 86.9846 71.0877 86.9846 71.0568V47.4212C86.9846 47.3904 87.0112 47.3654 87.0449 47.3654H103.327C103.36 47.3654 103.386 47.3904 103.386 47.4212V71.0568C103.386 71.0877 103.36 71.1127 103.326 71.1127ZM95.8553 48.6485C95.8373 48.6485 95.8224 48.6625 95.8224 48.6801V69.798C95.8224 69.8149 95.8373 69.8289 95.8553 69.8289H102.157C102.176 69.8289 102.191 69.8149 102.191 69.798V48.6801C102.191 48.6625 102.176 48.6485 102.157 48.6485H95.8553ZM88.2138 48.6485C88.1958 48.6485 88.181 48.6625 88.181 48.6801V69.798C88.181 69.8149 88.1958 69.8289 88.2138 69.8289H94.5157C94.5337 69.8289 94.5486 69.8149 94.5486 69.798V48.6801C94.5486 48.6625 94.5337 48.6485 94.5157 48.6485H88.2138Z" fill="url(#paint10_linear_80_9198)"/>
<path d="M94.5143 69.8305H88.2128C88.1949 69.8305 88.1799 69.8165 88.1799 69.7989V48.6813C88.1799 48.6637 88.1949 48.6497 88.2128 48.6497H94.5143C94.5329 48.6497 94.5479 48.6637 94.5479 48.6813V69.7989C94.5479 69.8165 94.5329 69.8305 94.5143 69.8305Z" fill="#ABBEFF"/>
<path d="M102.147 69.8296H95.8453C95.8275 69.8296 95.8127 69.8158 95.8127 69.7983V48.6802C95.8127 48.6627 95.8275 48.6488 95.8453 48.6488H102.147C102.166 48.6488 102.18 48.6627 102.18 48.6802V69.7983C102.18 69.8158 102.166 69.8296 102.147 69.8296Z" fill="#ABBEFF"/>
<path d="M114.064 79.2678H32.8759C32.0192 79.2678 31.3245 78.6159 31.3245 77.8109V76.4353C31.3245 75.6311 32.0192 74.9784 32.8759 74.9784H114.064C114.921 74.9784 115.616 75.6311 115.616 76.4353V77.8109C115.616 78.6159 114.921 79.2678 114.064 79.2678Z" fill="#4766B0"/>
<path d="M67.8081 124.567H37.5542H29.6161C29.6256 124.277 29.6134 123.989 29.5771 123.706H66.6286C67.6136 123.706 68.4115 122.957 68.4115 122.033V97.2861C68.4115 96.3615 67.6136 95.6122 66.6286 95.6122H19.4631C18.4787 95.6122 17.6805 96.3615 17.6805 97.2861V113.147C17.3809 113.073 17.1101 113.034 16.8801 113.034C16.6834 113.034 16.5163 113.063 16.387 113.124V95.9485C16.387 95.0239 17.185 94.2745 18.1695 94.2745H22.4807H23.7543H30.1226H31.3184H37.5542H40.0625H51.9941H53.3654H62.3898H67.8081C68.7931 94.2745 69.591 95.0239 69.591 95.9485V122.893C69.591 123.817 68.7931 124.567 67.8081 124.567ZM25.4576 124.567H22.9503C23.0001 124.284 23.0589 123.996 23.1233 123.706H25.6159C25.5692 123.984 25.5164 124.273 25.4576 124.567Z" fill="#FB8D4D"/>
<path d="M66.6322 123.707H19.4664C18.4819 123.707 17.6838 122.958 17.6838 122.033V97.2873C17.6838 96.3621 18.4819 95.613 19.4664 95.613H66.6322C67.6168 95.613 68.4143 96.3621 68.4143 97.2873V122.033C68.4143 122.958 67.6168 123.707 66.6322 123.707Z" fill="white"/>
<path d="M28.6604 115.079V104.635H30.675V109.056H35.8283V104.635H37.8484V115.079H35.8283V110.642H30.675V115.079H28.6604Z" fill="#FA9746"/>
<path d="M40.804 115.079V104.635H44.9744C45.8288 104.635 46.5456 104.774 47.1248 105.053C47.7077 105.332 48.1475 105.723 48.4444 106.226C48.7448 106.726 48.8951 107.309 48.8951 107.975C48.8951 108.645 48.743 109.226 48.4389 109.719C48.1385 110.209 47.695 110.588 47.1085 110.857C46.5221 111.122 45.8017 111.254 44.9473 111.254H41.977V109.684H44.6758C45.1754 109.684 45.5844 109.619 45.903 109.49C46.2216 109.357 46.4569 109.165 46.609 108.913C46.7646 108.658 46.8424 108.346 46.8424 107.975C46.8424 107.604 46.7646 107.288 46.609 107.026C46.4533 106.761 46.2162 106.561 45.8976 106.425C45.579 106.285 45.1681 106.216 44.6649 106.216H42.8186V115.079H40.804ZM46.5492 110.347L49.3023 115.079H47.0542L44.35 110.347H46.5492Z" fill="#FA9746"/>
<path d="M52.9422 115.079H50.7919L54.7071 104.635H57.1941L61.1147 115.079H58.9644L55.994 106.777H55.9071L52.9422 115.079ZM53.0128 110.984H58.8775V112.504H53.0128V110.984Z" fill="#FA9746"/>
<path d="M62.7174 95.6912H61.2789C61.1832 95.6912 61.1057 95.6222 61.1057 95.539V85.805C61.1057 85.7214 61.1832 85.6528 61.2789 85.6528H62.7174C62.8126 85.6528 62.8906 85.7214 62.8906 85.805V95.539C62.8906 95.6222 62.8126 95.6912 62.7174 95.6912Z" fill="#FB8C4D"/>
<path d="M24.8738 95.6926H23.4352C23.3399 95.6926 23.262 95.6231 23.262 95.5378V85.6415C23.262 85.5562 23.3399 85.4867 23.4352 85.4867H24.8738C24.969 85.4867 25.0471 85.5562 25.0471 85.6415V95.5378C25.0471 95.6231 24.969 95.6926 24.8738 95.6926Z" fill="#FA9746"/>
<path d="M82.7962 81.6867L80.4757 85.0478V82.7455L5.92166 82.6942L3.89961 81.7985L3.84009 82.6924L5.98211 86.7441L80.4757 86.9955L82.9751 82.5812L82.7962 81.6867Z" fill="#FB8F4B"/>
<path d="M80.1103 86.3237L6.33039 86.0998L3.89087 81.7971L82.7881 81.6854L80.1103 86.3237Z" fill="url(#paint11_linear_80_9198)"/>
<path d="M9.43858 131.248C9.19461 131.18 8.93667 131.103 8.6651 131.016L8.66481 129.088C8.92847 129.159 9.18722 129.234 9.43829 129.317L9.43858 131.248ZM9.43702 121.146C9.35087 120.972 9.26073 120.806 9.16574 120.65C9.04436 120.451 8.87373 120.27 8.66342 120.108L8.66238 113.549L8.65649 74.5893L9.42998 75.097L9.43702 121.146Z" fill="#FB914A"/>
<path d="M10.8619 131.573C10.4561 131.507 9.97825 131.401 9.43067 131.248L9.43045 129.317C9.88018 129.463 10.3062 129.629 10.6945 129.82C10.5778 130.113 10.6234 130.673 10.8619 131.573ZM12.6945 128.314C10.9879 126.961 10.5343 123.378 9.42912 121.146L9.42212 75.097V75.0921L14.7859 78.1658V78.8086V115.652C13.9784 117.023 13.1306 118.613 12.9217 119.926C12.8811 120.181 12.9228 120.445 13.0312 120.716C12.9144 120.698 12.8088 120.688 12.7134 120.688C11.8142 120.688 11.8373 121.507 12.2629 122.688C11.9443 122.93 11.6387 123.53 11.2623 124.559C10.8969 125.558 11.5427 126.891 12.6945 128.314Z" fill="#FA9746"/>
<path d="M12.7039 83.5576C12.7039 84.0979 12.2378 84.5361 11.6627 84.5361C11.0876 84.5361 10.6213 84.0979 10.6213 83.5576C10.6213 83.0178 11.0876 82.5801 11.6627 82.5801C12.2378 82.5801 12.7039 83.0178 12.7039 83.5576Z" fill="#D37437"/>
<path d="M12.3775 83.7257C12.3775 84.0962 12.0578 84.3967 11.6635 84.3967C11.2691 84.3967 10.9495 84.0962 10.9495 83.7257C10.9495 83.3556 11.2691 83.0551 11.6635 83.0551C12.0578 83.0551 12.3775 83.3556 12.3775 83.7257Z" fill="#FF883C"/>
<path d="M18.8078 136.106C18.8078 136.106 9.93886 141.295 5.19362 136.835C1.37991 133.25 7.63158 135.589 13.4334 135.925C13.8887 135.952 13.9586 135.32 13.5072 135.258C9.07248 134.65 2.41972 133.344 1.92053 130.948C1.16686 127.332 2.51494 128.799 7.58077 130.645C12.6465 132.491 14.0145 131.552 10.8451 129.894C7.67577 128.235 1.76885 128.454 0.977963 126.573C0.187082 124.691 0.427802 121.438 0.325489 119.985C0.223177 118.531 7.80203 118.414 9.16461 120.65C10.5271 122.887 10.889 127.163 12.9147 128.466C14.9403 129.77 13.5668 125.706 12.616 123.544C11.6653 121.383 11.4737 119.913 14.3133 121.126C17.153 122.34 17.6921 126.159 17.2365 128.781C16.7809 131.404 17.3962 133.103 17.729 131.834C18.0618 130.566 18.7423 126.584 18.1445 125.173C17.5467 123.762 23.8888 126.982 18.8078 136.106Z" fill="#BDD0FB"/>
<path d="M4.99243 132.715H15.7737V123.403H4.99243V132.715Z" fill="#769EFA"/>
<path d="M24.2667 138.138C24.2667 138.138 12.8334 138.492 10.9383 131.822C9.41522 126.462 13.9754 131.897 19.2783 135.201C19.6945 135.46 20.1292 134.897 19.7376 134.606C15.8896 131.747 10.3461 127.086 11.2703 124.559C12.6656 120.744 13.0872 122.828 16.8118 127.185C20.5363 131.54 22.3807 131.355 20.3444 128.152C18.3081 124.949 12.5814 122.117 12.9297 119.926C13.2781 117.736 15.4037 114.777 16.1548 113.347C16.9059 111.916 24.1573 115.706 24.1441 118.526C24.1308 121.347 21.9791 125.586 23.1382 127.864C24.2974 130.142 25.3665 125.584 25.7268 123.046C26.0871 120.507 26.7627 119.016 28.7463 121.627C30.7299 124.238 29.0123 128.136 27.0506 130.387C25.089 132.638 24.681 134.565 25.7366 133.533C26.7922 132.502 29.7601 129.079 30.0165 127.434C30.273 125.789 34.4055 132.105 24.2667 138.138Z" fill="#91B3FA"/>
<path d="M23.8174 137.778C23.8022 137.778 23.7878 137.774 23.7748 137.769C23.7421 137.754 23.7186 137.724 23.7167 137.688C23.2706 129.466 18.5834 119.262 18.536 119.16C18.5137 119.112 18.5372 119.056 18.5884 119.035C18.6015 119.03 18.6151 119.027 18.6285 119.027C18.6674 119.027 18.7048 119.049 18.7213 119.084C18.7687 119.187 23.4705 129.422 23.9185 137.678C23.9213 137.73 23.8785 137.775 23.8227 137.778C23.821 137.778 23.8192 137.778 23.8174 137.778Z" fill="#CBDBFD"/>
<defs>
<linearGradient id="paint0_linear_80_9198" x1="228.071" y1="58.527" x2="257.608" y2="58.527" gradientUnits="userSpaceOnUse">
<stop stop-color="#D0DBFD"/>
<stop offset="1" stop-color="#DDE5FC"/>
</linearGradient>
<linearGradient id="paint1_linear_80_9198" x1="14.926" y1="104.803" x2="31.3275" y2="104.803" gradientUnits="userSpaceOnUse">
<stop stop-color="#D0DBFD"/>
<stop offset="1" stop-color="#DDE5FC"/>
</linearGradient>
<linearGradient id="paint2_linear_80_9198" x1="82.6886" y1="123.167" x2="112.613" y2="123.167" gradientUnits="userSpaceOnUse">
<stop stop-color="#DAE3FE"/>
<stop offset="1" stop-color="#E9EFFD"/>
</linearGradient>
<linearGradient id="paint3_linear_80_9198" x1="83.5627" y1="81.2629" x2="103.278" y2="81.2629" gradientUnits="userSpaceOnUse">
<stop stop-color="#DAE3FE"/>
<stop offset="1" stop-color="#E9EFFD"/>
</linearGradient>
<linearGradient id="paint4_linear_80_9198" x1="145.219" y1="80.2981" x2="180.896" y2="80.2981" gradientUnits="userSpaceOnUse">
<stop stop-color="#DAE3FE"/>
<stop offset="1" stop-color="#E9EFFD"/>
</linearGradient>
<linearGradient id="paint5_linear_80_9198" x1="145.515" y1="88.1184" x2="147.173" y2="88.1184" gradientUnits="userSpaceOnUse">
<stop stop-color="#DAE3FE"/>
<stop offset="1" stop-color="#E9EFFD"/>
</linearGradient>
<linearGradient id="paint6_linear_80_9198" x1="37.5627" y1="109.166" x2="60.7842" y2="109.166" gradientUnits="userSpaceOnUse">
<stop stop-color="#DAE3FE"/>
<stop offset="1" stop-color="#E9EFFD"/>
</linearGradient>
<linearGradient id="paint7_linear_80_9198" x1="48.1331" y1="109.678" x2="49.3142" y2="109.678" gradientUnits="userSpaceOnUse">
<stop stop-color="#DAE3FE"/>
<stop offset="1" stop-color="#E9EFFD"/>
</linearGradient>
<linearGradient id="paint8_linear_80_9198" x1="102.529" y1="14.9813" x2="125.842" y2="14.9813" gradientUnits="userSpaceOnUse">
<stop stop-color="#D7E1FE"/>
<stop offset="1" stop-color="#E4ECFD"/>
</linearGradient>
<linearGradient id="paint9_linear_80_9198" x1="69.6908" y1="15.4395" x2="92.9684" y2="15.4395" gradientUnits="userSpaceOnUse">
<stop stop-color="#D7E1FE"/>
<stop offset="1" stop-color="#E4ECFD"/>
</linearGradient>
<linearGradient id="paint10_linear_80_9198" x1="139.09" y1="10.6328" x2="163.175" y2="10.6328" gradientUnits="userSpaceOnUse">
<stop stop-color="#D7E1FE"/>
<stop offset="1" stop-color="#E4ECFD"/>
</linearGradient>
<linearGradient id="paint11_linear_80_9198" x1="52.4792" y1="99.214" x2="60.3471" y2="49.5082" gradientUnits="userSpaceOnUse">
<stop stop-color="#FA9746"/>
<stop offset="1" stop-color="#FE7062"/>
</linearGradient>
</defs>
</svg>
