<svg width="223" height="136" viewBox="0 0 223 136" fill="none" xmlns="http://www.w3.org/2000/svg">
<path d="M209.367 135.661L20.3688 135.596C20.3688 135.596 -11.5705 91.5959 5.46351 62.161C22.4974 32.7249 47.3773 53.5036 49.4515 32.2381C49.5223 31.5183 49.4657 30.8061 49.4657 30.1103C49.4647 29.9448 49.4678 29.7814 49.4766 29.6181C50.1139 17.4053 58.086 9.51237 68.6069 4.97134C68.9464 4.82425 69.2885 4.68164 69.6329 4.5423C86.4092 -2.25404 109.094 -0.855835 119.137 4.98761C136.223 14.93 136.116 26.8968 171.399 22.9491C206.682 19.0028 213.411 52.0107 204.226 68.8278C191.193 92.6909 240.363 88.7711 209.367 135.661Z" fill="#EBF3FA"/>
<path d="M135.899 62.501L131.305 57.9811L126.798 53.546C126.58 53.2856 126.534 53.022 126.608 52.7589C126.84 51.9325 128.242 51.1103 129.062 50.4212L129.144 50.3508C130.222 49.4417 131.85 49.5797 132.758 50.6577L138.269 57.1872L138.27 57.1874L139.904 59.1239C140.814 60.2021 140.676 61.8285 139.597 62.7376L139.514 62.8077C138.436 63.7173 136.808 63.5791 135.899 62.501Z" fill="#FFB27D"/>
<path d="M137.232 33.4142C137.179 33.9898 136.53 34.9173 135.36 35.056C129.454 35.7589 125.776 33.8964 125.605 33.8983C121.115 33.92 117.935 32.2848 116.973 33.1312C116.937 33.1623 116.947 33.2293 116.998 33.3237C117.878 35.0315 131.503 46.3879 131.702 47.6475C131.911 48.9779 106.356 55.2375 106.356 55.2375C106.356 55.2375 102.581 52.885 98.3526 49.7968C96.209 48.2325 93.9502 46.4803 92.0076 44.748C90.049 43.0053 88.4104 41.2805 87.5354 39.7954L87.5307 39.7859C87.3995 39.5633 87.2853 39.3463 87.1909 39.134C87.1767 39.1009 87.1626 39.0707 87.1512 39.0424C86.4669 37.4375 85.3021 36.0241 83.9778 34.8201C80.5458 31.7027 76.0447 29.9892 76.0447 29.9892L94.8101 19.9802C94.8101 19.9802 112.04 22.0041 114.796 23.676C118.813 26.1141 127.227 27.9021 128.844 28.8475C130.046 29.5476 136.377 31.8197 136.839 32.0235C137.039 32.1122 137.302 32.6953 137.232 33.4142Z" fill="#FFB27D"/>
<path d="M88.8763 17.1105C88.8763 17.1105 88.8719 17.1484 88.8613 17.2199V17.2217C88.7845 17.7857 88.3969 20.4336 87.5262 23.4549V23.4558C87.4927 23.567 87.46 23.68 87.4265 23.792V23.7929C87.4114 23.8432 87.3956 23.8944 87.3805 23.9447V23.9456C86.2971 27.5309 84.5338 31.5037 81.8142 33.1048H81.8124C81.657 33.1966 81.4981 33.2804 81.3356 33.3563C80.9586 33.532 80.5648 33.6626 80.1524 33.7412C79.8487 33.8012 79.5361 33.8312 79.212 33.8312C79.212 33.8312 76.8262 33.5452 73.2563 33.111C73.0611 33.0863 72.8625 33.0615 72.6594 33.0368C66.2058 32.2495 56.3426 31.0297 49.4641 30.1109C49.4629 29.9449 49.4662 29.7817 49.4749 29.6184C50.1123 17.4053 58.0844 9.51269 68.6052 4.9715C74.1922 8.31142 79.4275 11.4466 83.1784 13.6938L83.1811 13.6955L83.1899 13.7008C83.4292 13.8447 83.6641 13.985 83.8901 14.1201L83.9051 14.1289C86.9744 15.9692 88.8763 17.1105 88.8763 17.1105Z" fill="#F99746"/>
<path d="M90.3397 31.2815C90.3476 31.2981 90.3586 31.3131 90.3618 31.3305C92.1254 42.4751 98.5988 40.6364 98.5988 40.6364L98.3555 49.797C96.2112 48.233 93.9523 46.4803 92.0101 44.7481C90.0514 43.0057 88.4133 41.2814 87.5382 39.7955L87.5335 39.7861C87.381 39.5097 87.2665 39.2887 87.1939 39.1339C87.1788 39.1008 87.1646 39.0708 87.1536 39.0424C86.4696 37.4373 85.3046 36.0241 83.9801 34.8209C84.6688 33.6437 85.4736 32.3063 86.269 30.9973C87.2381 29.4049 89.6154 29.5636 90.3397 31.2815Z" fill="#EFA26F"/>
<path d="M83.189 13.6837C83.189 13.6837 77.1344 18.9184 74.6409 22.5967L76.4484 25.7294L73.3742 25.44C73.3742 25.44 71.8089 31.1191 72.6591 33.037L81.0414 33.8256L90.7036 18.3703L83.189 13.6837Z" fill="#ED7D2B"/>
<path d="M73.2114 34.3247C72.963 32.0478 75.1735 27.3973 75.1735 27.3973L82.6053 28.8798L76.8831 22.8511C78.1743 20.1787 81.2728 16.1003 83.1895 13.6846C84.1449 12.4814 84.8056 11.6905 84.8056 11.6905C90.3099 15.8723 95.4344 20.0399 95.4344 20.0399C93.187 20.9099 91.0851 23.2726 89.3351 25.8835C86.4277 30.2219 84.495 35.246 84.495 35.246C80.0337 34.8245 73.2114 34.3247 73.2114 34.3247Z" fill="#DCEAFF"/>
<path d="M73.2113 34.3252C72.9633 32.0474 75.1731 27.3965 75.1731 27.3965L82.6056 28.8799L76.8836 22.8509C78.1743 20.1784 81.2734 16.1004 83.1896 13.6841C83.2875 20.3467 89.3355 25.8832 89.3355 25.8832C86.4272 30.2215 84.4944 35.2456 84.4944 35.2456C80.0341 34.8244 73.2113 34.3252 73.2113 34.3252Z" fill="#CBE1FD"/>
<path d="M81.4732 19.6314C81.9737 19.6838 82.3371 20.1303 82.2855 20.6306C82.2332 21.1302 81.7865 21.4934 81.2867 21.4419C80.7861 21.3896 80.4228 20.9431 80.4744 20.4427C80.5267 19.9431 80.9734 19.5799 81.4732 19.6314Z" fill="#F99746"/>
<path d="M92.2371 40.7544L99.2448 65.3103L152.722 50.062L145.714 25.506L92.2371 40.7544Z" fill="#82B378"/>
<path d="M154.461 54.2568L99.7737 64.3383L95.1406 39.2259L149.828 29.1443L154.461 54.2568Z" fill="#A8D29F"/>
<path d="M148.499 52.3785L137.453 54.4148H137.451L136.131 54.6577H136.13L129.22 55.9318L128.578 56.0505L123.703 56.9489L122.16 57.233L121.171 57.4161L120.463 57.5468L118.156 57.9715L117.202 58.1468L116.622 58.2546L116.072 58.3558L115.631 58.4364L113.679 58.7969L113.125 58.8992L104.668 60.4576C103.347 60.7015 102.078 59.8282 101.834 58.5072L100.513 51.3417L99.1465 43.938C98.9026 42.6173 99.7772 41.3483 101.098 41.1044L121.057 37.4254L130.402 35.7027L133.062 35.2119H133.065L136.412 34.5959L136.52 34.5742H136.522L144.929 33.0252C146.25 32.7813 147.519 33.6545 147.763 34.9752L150.451 49.545C150.526 49.9544 150.494 50.3595 150.375 50.7297C150.11 51.5541 149.412 52.2097 148.499 52.3785ZM151.537 50.3988L149.205 37.751L149.203 37.7468L148.054 31.5195L147.458 31.629L137.217 33.5171H137.215L137.099 33.5388L129.427 34.9525L128.446 35.1333H128.444L120.219 36.6504L98.5955 40.6362L98.5914 40.6373L98.5779 40.6404L98.2099 40.7075L98.1996 40.7086L98.1903 40.7106L97.6403 40.8119L98.4715 45.3176L99.4432 50.5849L101.543 61.9636L113.359 59.7857L113.886 59.6887L115.845 59.3273L116.281 59.2466L116.856 59.141L117.381 59.044L118.384 58.859L120.829 58.408L121.522 58.2807L122.484 58.1032L123.324 57.9486L128.232 57.0436H128.233L129.231 56.8597L130.015 56.7148L136.81 55.4625L142.915 54.3375L145.146 53.9258L151.957 52.6703L151.537 50.3988Z" fill="#82B378"/>
<path d="M125.829 52.9642C122.339 53.5414 119.043 51.1816 118.464 47.6936C117.887 44.2065 120.248 40.9103 123.736 40.3331C127.226 39.7558 130.522 42.1148 131.1 45.6028C131.678 49.0908 129.318 52.387 125.829 52.9642Z" fill="#82B378"/>
<path d="M112.482 51.4857C111.194 51.6989 109.977 50.8284 109.764 49.5402C109.551 48.2529 110.421 47.0364 111.71 46.8231C112.998 46.6099 114.215 47.4805 114.428 48.7686C114.642 50.056 113.771 51.2725 112.482 51.4857Z" fill="#82B378"/>
<path d="M137.913 46.7986C136.625 47.0118 135.408 46.1416 135.195 44.8535C134.982 43.5655 135.852 42.3495 137.141 42.1362C138.429 41.923 139.646 42.7942 139.859 44.0813C140.072 45.3693 139.201 46.5863 137.913 46.7986Z" fill="#82B378"/>
<path d="M118.917 63.1662L118.715 62.6231L117.359 58.9719C117.328 58.8865 117.302 58.7993 117.28 58.713C116.976 57.5056 117.629 56.2274 118.822 55.7846L118.962 55.7329C120.241 55.2582 121.676 55.9158 122.151 57.1949L123.415 60.5988L123.507 60.8456L123.708 61.3885C124.183 62.6674 123.525 64.1013 122.246 64.5757L122.106 64.628C120.827 65.1025 119.392 64.4448 118.917 63.1662Z" fill="#FFB27D"/>
<path d="M118.854 60.2097C118.628 59.6007 118.228 58.4973 118.147 57.9087C118.125 57.7414 118.218 57.4356 118.534 57.1519C118.723 56.982 118.992 56.8198 119.364 56.7009C119.538 56.6448 119.713 56.5989 119.893 56.5802C120.102 56.559 120.312 56.5667 120.519 56.6049C120.706 56.6397 120.875 56.7688 120.963 56.9557L120.965 56.9591C121.259 57.5868 121.617 58.4327 121.814 59.1734C121.951 59.6856 121.721 60.2012 121.273 60.3592L121.063 60.4339L119.99 60.8161C119.543 60.9741 119.037 60.7074 118.854 60.2097Z" fill="#FFD3B6"/>
<path d="M118.854 60.2104C118.628 59.6008 118.228 58.4976 118.147 57.9084C118.125 57.7418 118.218 57.4358 118.533 57.1526C118.605 57.1221 118.68 57.0951 118.761 57.0689C118.936 57.0131 119.11 56.9674 119.289 56.9488C119.5 56.9277 119.709 56.9353 119.917 56.9734C120.104 57.008 120.273 57.1374 120.361 57.3242L120.362 57.3267C120.657 57.9548 121.014 58.8011 121.211 59.5417C121.299 59.8697 121.237 60.1985 121.063 60.4344L119.989 60.8165C119.543 60.9746 119.036 60.7083 118.854 60.2104Z" fill="#FFC197"/>
<path d="M113.806 61.4745L113.064 58.6613C112.837 57.8066 113.353 56.9223 114.208 56.6971L114.526 56.6124C115.382 56.3872 116.267 56.9017 116.491 57.7564L117.235 60.5705C117.461 61.4252 116.945 62.3095 116.09 62.5347L115.771 62.6186C114.917 62.8446 114.032 62.3293 113.806 61.4745Z" fill="#FFB27D"/>
<path d="M113.955 59.9583C113.821 59.4415 113.586 58.5073 113.564 58.0182C113.555 57.8405 113.708 57.4859 114.177 57.2569C114.291 57.2006 114.422 57.1534 114.574 57.1167C114.713 57.0832 114.85 57.0588 114.987 57.0572C115.151 57.0547 115.31 57.0767 115.468 57.1232C115.609 57.1648 115.73 57.2838 115.786 57.4435L115.787 57.446C115.973 57.9824 116.192 58.703 116.296 59.3249C116.368 59.7553 116.158 60.1605 115.804 60.2583L115.55 60.3292L114.788 60.5395C114.436 60.6365 114.064 60.3797 113.955 59.9583Z" fill="#FFD3B6"/>
<path d="M113.955 59.9576C113.822 59.4408 113.586 58.5073 113.564 58.0182C113.555 57.8402 113.708 57.486 114.177 57.2569C114.306 57.2268 114.435 57.2049 114.565 57.2033C114.728 57.2016 114.888 57.2236 115.045 57.2699C115.186 57.3113 115.308 57.4299 115.363 57.59L115.365 57.5924C115.55 58.1287 115.77 58.8494 115.873 59.4717C115.933 59.8276 115.799 60.1672 115.55 60.3289L114.788 60.5393C114.437 60.6368 114.064 60.3801 113.955 59.9576Z" fill="#FFC197"/>
<path d="M124.303 63.1201C124.294 63.1001 124.288 63.0801 124.282 63.0594L123.365 59.3714C122.962 57.7494 123.85 56.0829 125.34 55.6672L126.103 55.454C127.535 55.0545 129.02 55.9492 129.492 57.4566L129.796 58.6741L130.409 61.1445C130.813 62.7661 129.923 64.4329 128.434 64.8486L127.67 65.0615C126.26 65.4552 124.795 64.5906 124.303 63.1201Z" fill="#FFB27D"/>
<path d="M125.339 61.4419L124.547 59.6475L124.544 59.6362C124.526 59.5642 124.512 59.4916 124.502 59.4196C124.497 59.3892 124.494 59.3589 124.492 59.3294C124.49 59.316 124.49 59.3034 124.491 59.2909C124.499 59.0943 124.709 58.9612 124.895 59.0469C125.262 59.2194 125.687 59.2686 126.106 59.1578L126.263 59.1167L126.267 59.1149L126.776 58.9808C127.182 58.8745 127.523 58.643 127.769 58.34C127.801 58.3043 127.828 58.2658 127.855 58.2274C128.103 57.8762 128.657 57.9709 128.769 58.3856L128.773 58.3963L129.054 60.3613C129.182 60.8475 128.805 61.3117 128.318 61.4403L127.739 61.5936L126.503 61.9195C126.016 62.0475 125.467 61.928 125.339 61.4419Z" fill="#FFD3B6"/>
<path d="M125.339 61.441L124.547 59.6468L124.544 59.6353C124.536 59.5935 124.515 59.462 124.49 59.2904C124.498 59.0932 124.708 58.9598 124.895 59.046C125.261 59.2185 125.687 59.2673 126.107 59.1571L126.263 59.1154L126.267 59.1145L126.776 58.9803C127.182 58.8736 127.523 58.6426 127.77 58.3395C127.862 58.4035 127.934 58.4986 127.968 58.6221L127.971 58.6337L128.253 60.5985C128.361 61.0079 128.11 61.4013 127.739 61.5928L126.503 61.9186C126.016 62.0466 125.467 61.9271 125.339 61.441Z" fill="#FFC197"/>
<path d="M112.945 29.0593C112.945 29.0593 112.04 22.0037 114.796 23.677C118.814 26.116 127.226 27.9026 128.845 28.8468C130.047 29.5475 136.379 31.8203 136.84 32.0243C137.039 32.1131 137.422 32.8902 137.052 33.6484C136.798 34.1687 136.167 35.1262 135.069 35.553C131.136 37.0818 125.777 33.8977 125.605 33.8987C121.114 33.9204 116.751 33.418 115.482 33.5993C115.041 33.6626 112.945 29.0593 112.945 29.0593Z" fill="#FFB27D"/>
<path d="M137.31 32.1405L132.865 30.5242C132.865 30.5242 132.432 31.4074 132.645 31.9631C132.858 32.5189 136.974 33.4974 137.31 32.1405Z" fill="#FFC197"/>
<path d="M56.5818 87.049L57.4665 87.7667C57.4665 87.7667 59.8866 86.899 60.4326 89.7736C60.4326 89.7736 60.578 90.9989 59.8017 91.0013C59.0254 91.0036 59.3457 90.867 58.2464 90.8994C57.1469 90.9318 56.2358 90.3523 56.0748 89.4609L55.5488 88.7054L56.5818 87.049Z" fill="#EA8E50"/>
<path d="M56.4813 88.59C57.1871 87.8534 57.1303 87.3086 57.1303 87.3086C57.1303 87.3086 48.9575 80.62 48.1287 80.0752C47.5639 79.7041 41.5451 74.3703 38.7316 71.1183C37.336 69.5053 35.6074 70.1314 33.6296 70.6983L32.0008 71.1657C30.0342 71.7294 29.5227 74.4792 31.1364 75.815C35.681 79.5778 43.2413 83.8103 44.6559 84.7001C48.1676 86.9084 55.0413 89.5319 55.0413 89.5319C55.0413 89.5319 55.8752 89.2224 56.4813 88.59Z" fill="#1E3D70"/>
<path d="M65.8076 129.683C65.8076 129.683 67.7908 131.169 70.83 130.384C70.83 130.384 73.28 129.826 73.8179 131.047C73.8179 131.047 70.06 132.955 69.109 133.477C68.3919 133.87 67.6439 134.492 67.1155 134.972C66.6969 135.351 66.0453 135.3 65.6883 134.861C65.5233 134.658 65.3337 134.417 65.1268 134.136C64.5471 133.351 63.1973 130.815 63.1973 130.815L65.8076 129.683Z" fill="#204272"/>
<path d="M43.1794 75.415C43.1794 67.7592 49.3881 61.5537 57.0467 61.5537C64.7054 61.5537 70.9141 67.7592 70.9141 75.415C70.9141 83.0708 64.7054 89.2771 57.0467 89.2771C49.3881 89.2771 43.1794 83.0708 43.1794 75.415Z" fill="#E2810E"/>
<path d="M41.97 75.415C41.97 67.7592 48.1785 61.5537 55.8373 61.5537C63.4957 61.5537 69.7044 67.7592 69.7044 75.415C69.7044 83.0708 63.4957 89.2771 55.8373 89.2771C48.1785 89.2771 41.97 83.0708 41.97 75.415Z" fill="#FFC76C"/>
<path d="M55.8365 63.7023C49.2854 63.7023 43.9557 69.0299 43.9557 75.5788C43.9557 82.1269 49.2854 87.4545 55.8365 87.4545C62.3877 87.4545 67.7173 82.1269 67.7173 75.5788C67.7173 69.0299 62.3877 63.7023 55.8365 63.7023ZM55.8365 88.2085C52.4618 88.2085 49.2889 86.8947 46.9025 84.5089C44.5162 82.1238 43.2019 78.9523 43.2019 75.5788C43.2019 72.2052 44.5162 69.0338 46.9025 66.6479C49.2889 64.2628 52.4618 62.9491 55.8365 62.9491C59.2114 62.9491 62.3842 64.2628 64.7705 66.6479C67.1565 69.0338 68.4708 72.2052 68.4708 75.5788C68.4708 78.9523 67.1565 82.1238 64.7705 84.5089C62.3842 86.8947 59.2114 88.2085 55.8365 88.2085Z" fill="#FFA412"/>
<path d="M66.9724 128.928C66.9724 128.928 65.7648 131.712 62.9768 131.2C62.9768 131.2 57.2882 126.504 53.3862 121.626C52.1188 120.042 51.0397 118.438 50.4057 116.97C47.8181 110.981 40.834 102.05 36.3936 97.5226L47.5032 93.5048C47.5032 93.5048 51.0618 100.661 55.7966 109.45C59.2087 115.783 63.2311 122.964 66.9724 128.928Z" fill="#2B478B"/>
<path d="M55.7966 109.45L53.3862 121.626C52.1188 120.042 51.0397 118.438 50.4057 116.971C47.8181 110.981 40.834 102.05 36.3936 97.5228L47.5032 93.505C47.5032 93.505 51.0618 100.661 55.7966 109.45Z" fill="#233862"/>
<path d="M46.7163 131.298C46.7163 131.298 46.5953 133.52 49.289 133.816C49.289 133.816 50.9562 133.859 50.9605 135.273L42.8482 135.27C42.8482 135.27 42.7762 134.692 42.7211 133.471C42.6787 132.533 43.6305 130.081 43.6305 130.081L46.7163 131.298Z" fill="#204272"/>
<path d="M43.8593 93.505C43.8593 93.505 48.8086 98.9415 51.9504 108.735C53.6597 114.064 48.8173 127.461 47.8733 132.116C47.8733 132.116 44.6249 132.392 42.4038 131.534C42.4038 131.534 42.2349 121.919 43.534 114.509C44.2609 110.362 37.0175 105.64 33.8523 98.1464C31.699 93.0486 34.3185 93.1347 37.5377 93.0123L43.8593 93.505Z" fill="#2B478B"/>
<path d="M38.1459 69.2522C35.3922 70.8059 29.7549 69.373 29.7549 69.373C29.7549 69.373 32.0442 66.7566 31.004 62.543L33.166 63.6404L35.4884 64.8199C35.4884 64.8199 35.6385 65.5636 35.7429 66.9002C35.7695 67.2445 35.7932 67.629 35.8098 68.049C37.2237 68.4777 38.1459 69.2522 38.1459 69.2522Z" fill="#FFB07B"/>
<path d="M48.2418 93.2248C48.2418 93.7087 47.6842 93.9401 47.5658 93.9637C46.4551 94.1666 43.354 95.3722 40.5604 95.6485C38.2081 95.8949 36.0243 95.6612 33.6249 95.1796C33.3072 95.1156 32.5614 94.9151 32.5084 94.6103C32.4422 94.278 23.2537 75.8865 30.3966 67.9859C30.5643 67.8004 31.9744 68.1344 33.2638 68.4407C34.4546 68.7225 35.547 68.5654 36.5223 68.1746L37.7315 68.8102C39.2166 69.6376 42.0263 72.5761 42.3552 74.8822C42.5221 76.0547 43.193 76.9231 43.3871 77.955C43.4592 78.3363 43.5328 78.709 43.6078 79.0721C43.7541 79.7851 43.905 80.4624 44.0601 81.1075C44.4801 82.8515 44.9237 84.3531 45.3591 85.6503C45.8225 87.0272 46.2771 88.1727 46.6831 89.1304C47.2098 90.3731 47.6548 91.3015 47.9328 92.0129C48.1292 92.5134 48.2418 92.9058 48.2418 93.2248Z" fill="#AEC3FF"/>
<path d="M47.9333 92.0125C34.9627 85.9041 30.4707 74.1744 30.4707 74.1744C30.4707 74.1744 41.0089 78.0604 43.6083 79.0717C43.7547 79.7846 43.9055 80.462 44.0606 81.107C44.4806 82.8511 44.9242 84.3527 45.3596 85.6498C45.823 87.0267 46.2776 88.1723 46.6836 89.13C47.2103 90.3727 47.6553 91.3011 47.9333 92.0125Z" fill="#91B0F2"/>
<path d="M55.5232 88.4723L56.6441 88.8836C56.6441 88.8836 58.8886 87.2967 60.2861 89.8768C60.2861 89.8768 60.7916 91.0043 59.9914 91.249C59.1913 91.4937 59.4823 91.2632 58.3576 91.6374C57.233 92.0124 56.1251 91.7424 55.7002 90.9395L54.9385 90.3805L55.5232 88.4723Z" fill="#FFB07B"/>
<path d="M56.4443 90.0572C56.8586 88.9764 57.0479 88.4869 57.0479 88.4869C57.0479 88.4869 48.5786 81.5866 47.7157 80.9945C47.1277 80.5911 41.2734 76.2172 38.4193 72.8081C37.0034 71.117 34.7711 70.3441 32.6121 70.7965L30.8341 71.1691C28.6874 71.6191 27.9899 74.335 29.6553 75.7625C34.3453 79.7818 42.2559 84.443 43.7308 85.4126C47.3923 87.8197 55.491 91.1925 55.491 91.1925C55.491 91.1925 56.1188 90.9059 56.4443 90.0572Z" fill="#AEC3FF"/>
<path d="M35.7423 66.9002C33.0344 67.0518 31.2734 64.8175 31.2734 64.8175C31.2734 64.8175 32.4978 64.1394 33.1654 63.6404L35.4877 64.8199C35.4877 64.8199 35.6379 65.5636 35.7423 66.9002Z" fill="#EA8E50"/>
<path d="M36.8956 64.1213C36.8956 64.1213 32.7926 67.0645 30.9984 64.4821C29.2041 61.8996 27.4661 60.5409 30.0099 58.5521C32.5536 56.5642 33.7527 57.1918 34.5614 57.9087C35.37 58.6248 37.9166 63.2891 36.8956 64.1213Z" fill="#FFB07B"/>
<path d="M34.997 55.5763C34.8499 54.5839 34.5189 53.8852 34.5189 53.8852C34.5189 53.8852 34.2615 54.9511 32.3123 54.8042C30.363 54.6574 27.2737 54.9961 26.244 57.2161C26.1784 57.3575 26.12 57.5027 26.0681 57.6519C25.8817 57.1593 25.8368 56.4219 25.8368 56.4219C25.4664 57.3772 25.8368 58.5733 25.8368 58.5733H25.837C25.8314 58.608 25.8268 58.6428 25.8217 58.6775C25.3916 59.0415 25.0303 60.1712 25.0303 60.1712C25.1601 59.8562 25.4768 59.651 25.759 59.5239C25.7502 61.2513 26.4511 62.9408 27.6814 63.4437C29.4804 64.1788 29.4659 63.6174 31.2752 64.8175C31.2752 64.8175 31.7606 64.2159 31.4296 63.8109C31.0986 63.4066 29.8481 62.8185 30.5469 62.2303C31.2457 61.6421 31.5031 62.3037 31.7606 61.8995C32.018 61.4952 30.7308 60.3189 32.3858 59.216C34.0408 58.113 35.1441 56.5687 34.997 55.5763Z" fill="#233862"/>
<path d="M186.996 84.6925C186.996 84.6925 187.279 84.8883 187.386 85.3138C187.468 85.6399 187.383 86.1435 187.358 86.5438C187.304 87.3965 188.485 88.6487 189.246 89.0845C190.009 89.5202 189.246 87.2693 189.246 86.7254C189.246 86.1806 189.464 85.7811 188.847 84.5472C188.23 83.3132 186.996 84.6925 186.996 84.6925Z" fill="#FFB27D"/>
<path d="M169.789 63.8535C169.564 60.989 172.676 59.0253 175.134 60.515C175.185 60.5456 175.235 60.5767 175.283 60.6086C178.964 62.976 186.03 72.604 187.076 74.5201C188.166 76.5159 189.608 85.0402 189.608 85.0402C189.608 85.0402 187.616 85.7689 186.684 85.0134C186.684 85.0134 183.565 77.6213 182.42 76.3533C181.213 75.0167 170.044 68.8457 169.939 66.2276C169.91 65.5354 169.855 64.7031 169.789 63.8535Z" fill="#1E3D70"/>
<path d="M192.007 128.514C192.007 128.514 193.49 129.867 193.202 130.829C192.912 131.79 191.573 132.431 191.391 133.607C191.211 134.782 190.488 135.423 189.836 135.423C189.184 135.423 186.73 135.423 186.73 135.423C186.73 135.423 186.251 134.596 187.409 134.347C188.566 134.097 189.003 132.716 188.931 131.434C188.859 130.152 189.039 128.443 189.039 128.443L191.499 127.873L192.007 128.514Z" fill="#224275"/>
<path d="M173.807 132.013C173.807 132.013 174.073 135.094 173.423 135.415L165.087 135.397C165.087 135.397 165.087 134.436 166.426 134.222C167.764 134.008 170.116 133.225 170.515 131.48C170.912 129.734 173.807 132.013 173.807 132.013Z" fill="#224275"/>
<path d="M166.772 88.5053C166.772 88.5053 167.211 93.9048 167.729 100.394C168.431 109.21 169.274 120.039 169.358 122.091C169.503 125.653 170.083 131.351 170.083 131.351C170.083 131.351 171.457 132.705 174.208 132.134C174.208 132.134 176.658 124 177.359 115.393C177.37 115.252 177.38 115.11 177.391 114.968C178.043 106.207 179.056 87.7576 179.056 87.7576L166.772 88.5053Z" fill="#2B478B"/>
<path d="M166.772 88.5059C166.772 88.5059 167.211 93.9054 167.729 100.395L177.359 115.394C177.37 115.253 177.38 115.111 177.391 114.968C178.043 106.207 179.056 87.7583 179.056 87.7583L166.772 88.5059Z" fill="#233862"/>
<path d="M168.777 89.1471C168.777 89.1471 176.701 108.7 181.912 117.889C187.123 127.078 188.75 129.642 188.75 129.642C188.75 129.642 191.736 128.467 192.008 127.665C192.008 127.665 190.015 109.926 186.525 105.602C184.553 103.158 182.237 95.8255 182.129 93.2612C182.021 90.6969 181.424 85.6211 181.424 85.6211L168.777 89.1471Z" fill="#2B478B"/>
<path d="M175.609 59.8167C175.609 59.8167 170.3 62.5085 167.19 61.6105C167.19 61.6105 167.617 61.0505 168.398 60.457C168.897 60.0759 169.158 59.4542 169.058 58.8328C169.027 58.6392 169.001 58.4569 168.979 58.2861C168.828 57.2358 168.85 56.4825 168.85 56.4825L170.852 54.9721L172.782 53.3771C172.715 57.7556 175.609 59.8167 175.609 59.8167Z" fill="#FFB27D"/>
<path d="M180.883 87.1681C178.739 88.4651 176.709 89.4402 174.335 89.9881C171.533 90.6521 168.09 90.4563 166.938 90.6315C166.82 90.6473 166.708 90.6166 166.602 90.5462C166.512 90.4998 166.003 87.0844 165.494 82.7729C165.471 82.5991 165.448 82.4238 165.438 82.2487L165.431 82.191C165.233 80.5054 165.059 78.7345 164.908 76.9605C164.786 75.5797 164.685 74.2139 164.615 72.9309C164.527 71.3258 164.489 69.8517 164.527 68.6389C164.543 68.0846 164.574 67.5862 164.624 67.1536C164.929 64.6353 165.981 62.8276 167.113 61.4877L168.42 60.4385C169.509 60.5073 170.399 60.2917 171.448 59.5997C172.594 58.8453 173.832 58.0338 174.066 58.1694C175.823 59.1304 177.253 61.6208 178.275 64.9097C178.861 66.8028 179.31 68.9509 179.598 71.2263C179.691 71.9321 179.77 72.6561 179.83 73.3777C179.842 73.5112 179.851 73.6446 179.861 73.7757C180 75.747 180.225 77.5953 180.475 79.2453C180.81 81.4709 181.193 83.335 181.463 84.6479C181.599 85.3158 181.703 85.8322 181.763 86.2025C181.818 86.5254 181.171 86.988 180.883 87.1681Z" fill="#2B478B"/>
<path d="M172.851 55.0494C172.851 55.0494 171.545 57.5448 168.979 58.2863C168.748 56.9621 168.815 54.8818 168.815 54.8818L170.852 54.9722L172.851 55.0494Z" fill="#ED985F"/>
<path d="M167.314 55.487C167.314 55.487 172.111 57.4483 173.284 54.4927C174.456 51.5371 175.866 49.7996 172.853 48.4223C169.839 47.0451 168.793 47.9387 168.158 48.8298C167.522 49.7209 166.096 54.9006 167.314 55.487Z" fill="#FFB27D"/>
<path d="M176.485 48.8713C176.543 48.8299 176.657 48.812 176.892 48.8528C176.892 48.8528 176.733 48.6941 176.486 48.6308C176.512 48.2968 176.472 47.6858 175.947 47.4191C175.947 47.4191 176.209 47.6469 176.17 47.9992C175.678 47.1902 174.409 46.3919 170.52 45.8148C165.393 45.0544 166.31 48.6581 166.874 49.1922C167.438 49.7261 169.32 49.0503 170.513 49.4259C171.705 49.8015 171.532 51.6088 171.889 51.9442C172.245 52.2795 172.181 51.8166 172.797 51.693C173.412 51.5694 173.253 52.5048 172.954 53.0682C172.655 53.6314 173.238 54.5993 173.238 54.5993C173.238 54.5993 173.238 54.5993 174.204 53.9441C175.17 53.2888 176.711 49.9275 176.532 49.0943C176.517 49.0207 176.501 48.9463 176.485 48.8713Z" fill="#2C3A64"/>
<path d="M173.526 68.9198C173.526 68.9198 169.199 72.2102 164.614 72.931C164.527 71.3259 164.489 69.8519 164.527 68.639L173.526 68.9198Z" fill="#1E3D70"/>
<path d="M147.927 57.5611C147.884 57.4709 147.914 54.3945 146.394 54.1485C145.402 53.9881 142.831 53.302 142.855 54.6818C142.865 55.2245 146.083 58.572 146.083 58.572L147.927 57.5611Z" fill="#FFB27D"/>
<path d="M174.44 63.5634C176.359 65.7022 175.08 69.1521 172.222 69.4611C172.164 69.4675 172.106 69.4731 172.047 69.4778C167.684 69.8317 155.275 66.2794 153.558 65.33C150.708 63.7536 145.82 58.7685 145.82 58.7685C145.82 58.7685 146.961 56.9793 148.16 57.0141C148.16 57.0141 154.702 61.1796 157.045 61.678C158.626 62.0142 171.203 59.7535 172.877 61.7687C173.32 62.3016 173.87 62.9288 174.44 63.5634Z" fill="#2B478B"/>
<path d="M189.214 85.4772C189.214 85.4772 189.447 85.9903 189.612 86.389C189.776 86.7885 189.868 87.5331 189.741 87.4604C189.613 87.3877 189.16 86.8572 189.014 86.5872C188.87 86.3163 189.214 85.4772 189.214 85.4772Z" fill="#FFB27D"/>
<path d="M82.338 96.8735H92.8188V76.2146H82.338V96.8735Z" fill="#DCE9FA"/>
<path d="M93.6124 100.489C87.181 92.363 74.8899 83.0161 74.0116 80.2394C73.6823 79.198 73.8142 78.5309 74.108 78.1046C74.3883 77.6956 74.848 77.4817 75.3172 77.4817C75.6007 77.4817 75.8874 77.5598 76.1402 77.7201C87.1604 84.7025 93.6124 100.489 93.6124 100.489Z" fill="#DCE9FA"/>
<path d="M103.333 131.796C103.196 131.524 103.052 131.262 102.9 131.014L102.897 131.009L102.89 130.998C102.788 130.845 102.643 130.628 102.462 130.363L102.461 130.362L102.461 130.36C102.024 129.775 101.722 129.339 101.524 129.021L101.522 129.018C100.199 127.172 98.3385 124.791 97.3015 124.401C96.1784 128.485 87.7384 130.691 82.389 130.691C82.1797 130.691 81.976 130.688 81.7769 130.681C76.486 130.502 78.4692 128.682 80.8244 125.874C83.1796 123.066 89.0535 122.702 90.6015 121.495C91.6196 120.701 90.8234 120.216 89.2027 120.216C88.3584 120.216 87.2906 120.347 86.1391 120.635C82.7745 121.477 81.6498 125.174 76.2324 126.635C75.851 126.737 75.4663 126.785 75.0825 126.785C70.0055 126.785 64.8583 118.455 64.8583 118.455C65.1569 118.494 65.4688 118.513 65.7903 118.513C69.7883 118.513 75.3249 115.63 75.3613 114.377C75.3715 114.01 74.6402 113.877 73.536 113.877C72.1167 113.877 70.0822 114.095 68.2119 114.313C66.3424 114.531 64.6372 114.749 63.8782 114.749C63.8055 114.749 63.7415 114.747 63.687 114.743C62.047 114.617 58.7586 111.94 59.3929 105.359C59.9976 99.0857 69.9834 98.9388 70.9122 98.9388C70.9581 98.9388 70.981 98.9396 70.981 98.9396C70.981 98.9396 79.9777 108.628 82.1758 108.628C82.1868 108.628 82.1971 108.628 82.2074 108.628C84.3501 108.534 76.0753 98.7478 76.0753 98.7478C76.651 98.5914 77.3769 98.5251 78.1967 98.5251C83.0691 98.5251 91.2776 100.883 91.2776 100.883C91.2776 100.883 92.7364 113.241 94.7172 113.241C94.7646 113.241 94.812 113.234 94.8594 113.219C96.9129 112.601 92.9204 101.817 92.9204 101.817C97.0543 102.329 101.506 106.291 101.506 106.291C107.365 112.982 98.468 120.158 98.468 120.158C98.468 120.158 99.0952 124.636 102.718 129.279C102.718 129.279 103.5 130.117 104.404 131.614L103.333 131.796ZM97.4476 123.871C97.401 124.04 97.3528 124.216 97.3015 124.401C97.3015 124.401 97.3915 124.215 97.4476 123.871Z" fill="#CDE0FB"/>
<path d="M147.806 120.631C147.533 120.631 147.221 120.616 146.866 120.586C142.984 120.26 136.55 117.858 136.064 114.657C135.273 114.852 133.708 116.431 132.581 117.665L132.579 117.668C132.407 117.882 132.149 118.175 131.779 118.565L131.778 118.566V118.567C131.623 118.745 131.498 118.891 131.411 118.994L131.405 119.001L131.403 119.004C131.269 119.173 131.142 119.352 131.019 119.539L130.25 119.313C131.041 118.298 131.684 117.753 131.684 117.753C134.734 114.673 135.579 111.455 135.579 111.455C135.579 111.455 129.698 105.443 134.558 101.06C134.558 101.06 138.154 98.5491 141.218 98.5334C141.218 98.5334 137.369 106.068 138.815 106.697C138.863 106.717 138.91 106.728 138.959 106.728C140.406 106.727 142.5 97.9917 142.5 97.9917C142.5 97.9917 146.754 97.2961 150.238 97.2961C151.669 97.2961 152.97 97.4138 153.793 97.7454C153.793 97.7454 146.9 104.181 148.458 104.435C148.489 104.44 148.521 104.442 148.556 104.442C150.305 104.442 157.499 98.3249 157.499 98.3249C157.499 98.3249 165.517 99.1539 165.411 104.017C165.307 108.811 162.747 110.505 161.515 110.504C161.497 110.504 161.479 110.504 161.462 110.503C160.474 110.462 155.481 108.971 153.643 108.971C153.232 108.971 152.98 109.046 152.964 109.227C152.875 110.213 157.249 113.115 160.219 113.115C160.242 113.115 160.263 113.114 160.285 113.114C160.285 113.114 156.133 118.342 152.514 118.342C152.087 118.342 151.67 118.27 151.268 118.108C147.435 116.573 146.933 113.775 144.547 112.869C143.47 112.46 142.477 112.263 141.804 112.263C140.989 112.263 140.648 112.554 141.211 113.111C142.239 114.128 146.499 114.901 147.978 117.156C149.321 119.204 150.509 120.631 147.806 120.631ZM136.004 114.256C136.014 114.512 136.064 114.657 136.064 114.657C136.044 114.517 136.023 114.384 136.004 114.256Z" fill="#CDE0FB"/>
<path d="M86.4043 103.253V109.408C86.4043 110.586 85.3957 111.55 84.1636 111.55H79.5519C78.3197 111.55 77.3112 110.586 77.3112 109.408V103.253C77.3112 102.075 78.3197 101.111 79.5519 101.111H84.1636C85.3957 101.111 86.4043 102.075 86.4043 103.253Z" fill="#ED7D2B"/>
<path d="M86.4043 103.253V106.681C86.4043 107.859 85.3957 108.824 84.1636 108.824H79.5519C78.3197 108.824 77.3112 107.859 77.3112 106.681V103.253C77.3112 102.075 78.3197 101.111 79.5519 101.111H84.1636C85.3957 101.111 86.4043 102.075 86.4043 103.253Z" fill="#F99746"/>
<path d="M137.509 106.33C137.509 109.479 136.835 112.486 135.619 115.222C131.969 123.436 123.436 129.233 113.555 129.233H106.707C106.297 129.233 105.888 129.224 105.483 129.204C100.464 128.959 95.8422 127.22 92.0936 124.445C89.6929 122.669 87.6504 120.466 86.0946 117.961C83.9746 114.546 82.7544 110.568 82.7544 106.33C82.7544 103.18 83.4274 100.176 84.6447 97.4373C88.2921 89.2249 96.8261 83.4276 106.707 83.4276H113.555C122.54 83.4276 130.412 88.2222 134.508 95.267C136.418 98.5513 137.509 102.326 137.509 106.33Z" fill="#ED7D2B"/>
<path d="M117.611 119.509L115.377 133.381C115.08 134.455 115.928 135.508 117.09 135.508H122.961C124.221 135.508 125.373 134.835 125.95 133.765L135.077 116.361L117.611 119.509Z" fill="#ED7D2B"/>
<path d="M104.317 135.508H98.4456C97.1867 135.508 96.0336 134.836 95.457 133.766L89.813 124.238L86.0938 117.961L104.239 119.748L104.894 124.734L105.482 129.204L106.031 133.381C106.327 134.456 105.48 135.508 104.317 135.508Z" fill="#ED7D2B"/>
<path d="M133.902 103.683C129.067 116.977 124.492 124.085 105.96 124.703C105.601 124.716 105.246 124.726 104.895 124.735C99.6048 124.873 95.3062 124.697 92.094 124.445C91.2605 124.38 90.4996 124.309 89.8131 124.238L86.094 117.961C83.9739 114.546 82.7544 110.569 82.7544 106.331C82.7544 103.18 83.427 100.176 84.6437 97.4375C88.2921 89.2253 96.8262 83.4279 106.706 83.4279H113.555C122.54 83.4279 130.412 88.2226 134.508 95.2672C135.076 97.9089 134.628 101.684 133.902 103.683Z" fill="#F99746"/>
<path d="M103.886 89.1655H94.464C93.5138 89.1655 92.7438 88.6136 92.7438 87.9338V75.6342C92.7438 75.425 92.8133 75.2331 92.9325 75.0681C93.393 74.4286 94.6038 74.1649 95.505 74.6528C99.082 76.5918 104.942 80.8046 105.602 87.8494C105.668 88.5615 104.881 89.1655 103.886 89.1655Z" fill="#F99746"/>
<path d="M94.8471 89.1655H94.464C93.5138 89.1655 92.7438 88.6136 92.7438 87.9338V75.6342C92.7438 75.425 92.8133 75.2331 92.9325 75.0681C92.9728 75.1013 93.0115 75.1368 93.0486 75.1763C95.0951 77.3545 98.045 81.6344 97.2133 87.6291C97.0925 88.5007 96.0705 89.1655 94.8471 89.1655Z" fill="#ED7D2B"/>
<path d="M89.8804 97.3877C89.8804 96.6463 90.5091 96.0455 91.2839 96.0455C92.0595 96.0455 92.6882 96.6463 92.6882 97.3877C92.6882 98.129 92.0595 98.7298 91.2839 98.7298C90.5091 98.7298 89.8804 98.129 89.8804 97.3877Z" fill="#2B478B"/>
<path d="M118.17 133.312V134.746C118.17 134.861 118.211 134.966 118.283 135.055C118.357 135.148 118.466 135.221 118.592 135.262C118.631 135.275 118.671 135.285 118.712 135.29C118.75 135.296 118.789 135.3 118.828 135.3H146.046C146.397 135.3 146.687 135.066 146.704 134.775C146.705 134.766 146.705 134.756 146.705 134.746V133.312C146.705 133.303 146.705 133.293 146.704 133.284C146.687 132.993 146.397 132.759 146.046 132.759H118.828C118.789 132.759 118.75 132.762 118.712 132.768C118.671 132.774 118.631 132.783 118.592 132.797C118.466 132.838 118.357 132.911 118.283 133.004C118.211 133.092 118.17 133.198 118.17 133.312Z" fill="#FFC76C"/>
<path d="M131.535 135.3H146.116C146.429 135.3 146.686 135.066 146.702 134.775C146.703 134.766 146.703 134.756 146.703 134.747V133.313C146.703 133.303 146.703 133.294 146.702 133.284C146.686 132.993 146.429 132.759 146.116 132.759H133.324C133.12 133.508 132.644 134.541 131.535 135.3Z" fill="#FFAE39"/>
<path d="M121.485 135.3H121.795V132.76H121.485V135.3Z" fill="#FFA412"/>
<path d="M122.529 135.3H122.838V132.76H122.529V135.3Z" fill="#FFA412"/>
<path d="M123.784 135.3H124.093V132.76H123.784V135.3Z" fill="#FFA412"/>
<path d="M125.709 135.3H126.018V132.76H125.709V135.3Z" fill="#FFA412"/>
<path d="M127.743 135.3H128.053V132.76H127.743V135.3Z" fill="#FFA412"/>
<path d="M130.865 135.3H131.175V132.76H130.865V135.3Z" fill="#FFA412"/>
<path d="M133.784 135.3H134.093V132.76H133.784V135.3Z" fill="#FFA412"/>
<path d="M136.392 135.3H136.702V132.76H136.392V135.3Z" fill="#FFA412"/>
<path d="M120.48 135.3H120.79V132.76H120.48V135.3Z" fill="#FFA412"/>
<path d="M119.822 135.3H120.131V132.76H119.822V135.3Z" fill="#FFA412"/>
<path d="M119.189 135.3H119.498V132.76H119.189V135.3Z" fill="#FFA412"/>
<path d="M118.708 132.769V135.291C118.746 135.297 118.785 135.3 118.824 135.3H119.018V132.759H118.824C118.785 132.759 118.746 132.763 118.708 132.769Z" fill="#FFA412"/>
<path d="M118.283 133.004V135.055C118.357 135.148 118.465 135.222 118.591 135.262V132.797C118.465 132.838 118.357 132.911 118.283 133.004Z" fill="#FFA412"/>
<path d="M121.081 130.772V132.206C121.081 132.32 121.123 132.426 121.193 132.515C121.268 132.608 121.375 132.68 121.502 132.721C121.541 132.735 121.581 132.744 121.623 132.75C121.661 132.756 121.7 132.759 121.739 132.759H148.957C149.308 132.759 149.596 132.526 149.615 132.234C149.615 132.225 149.616 132.215 149.616 132.206V130.772C149.616 130.762 149.615 130.752 149.615 130.744C149.596 130.452 149.308 130.219 148.957 130.219H121.739C121.722 130.219 121.705 130.22 121.687 130.221C121.68 130.221 121.672 130.222 121.665 130.223C121.657 130.223 121.649 130.224 121.64 130.226L121.623 130.228C121.581 130.234 121.541 130.243 121.502 130.257L121.486 130.262L121.468 130.268C121.458 130.272 121.446 130.277 121.435 130.282L121.416 130.291L121.4 130.298C121.39 130.304 121.378 130.31 121.368 130.315C121.357 130.322 121.346 130.329 121.335 130.336C121.326 130.342 121.318 130.347 121.309 130.354L121.308 130.355L121.291 130.367C121.274 130.381 121.258 130.394 121.244 130.409L121.231 130.422L121.217 130.435C121.209 130.445 121.201 130.454 121.193 130.463C121.123 130.551 121.081 130.658 121.081 130.772Z" fill="#FFC76C"/>
<path d="M134.446 132.758H149.028C149.341 132.758 149.599 132.525 149.615 132.234C149.615 132.225 149.616 132.215 149.616 132.206V130.772C149.616 130.762 149.615 130.752 149.615 130.744C149.599 130.452 149.341 130.219 149.028 130.219H136.237C136.232 130.24 136.226 130.26 136.219 130.282C136.006 131.023 135.526 132.022 134.446 132.758Z" fill="#FFAE39"/>
<path d="M124.392 132.758H124.701V130.219H124.392V132.758Z" fill="#FFA412"/>
<path d="M125.436 132.759H125.746V130.219H125.436V132.759Z" fill="#FFA412"/>
<path d="M126.692 132.758H127.002V130.219H126.692V132.758Z" fill="#FFA412"/>
<path d="M128.62 132.759H128.93V130.219H128.62V132.759Z" fill="#FFA412"/>
<path d="M130.654 132.758H130.964V130.219H130.654V132.758Z" fill="#FFA412"/>
<path d="M133.772 132.759H134.081V130.219H133.772V132.759Z" fill="#FFA412"/>
<path d="M136.694 132.759H137.003V130.219H136.694V132.759Z" fill="#FFA412"/>
<path d="M139.307 132.758H139.617V130.219H139.307V132.758Z" fill="#FFA412"/>
<path d="M123.395 132.758H123.705V130.219H123.395V132.758Z" fill="#FFA412"/>
<path d="M122.737 132.758H123.046V130.219H122.737V132.758Z" fill="#FFA412"/>
<path d="M122.103 132.758H122.412V130.219H122.103V132.758Z" fill="#FFA412"/>
<path d="M121.623 130.227V132.75C121.66 132.755 121.699 132.758 121.738 132.758H121.932V130.219H121.738C121.699 130.219 121.66 130.222 121.623 130.227Z" fill="#FFA412"/>
<path d="M121.19 130.463V132.515C121.266 132.608 121.373 132.681 121.499 132.722V130.256C121.373 130.297 121.266 130.371 121.19 130.463Z" fill="#FFA412"/>
<path d="M119.673 128.295V129.73C119.673 129.843 119.714 129.95 119.786 130.037C119.861 130.131 119.969 130.204 120.095 130.244C120.134 130.258 120.174 130.267 120.215 130.273C120.253 130.279 120.291 130.282 120.331 130.282H147.548C147.659 130.282 147.762 130.259 147.853 130.219C148.046 130.135 148.183 129.972 148.204 129.783C148.205 129.774 148.206 129.766 148.206 129.758C148.207 129.749 148.207 129.739 148.207 129.73V128.295C148.207 128.286 148.207 128.276 148.206 128.267C148.189 127.975 147.9 127.742 147.548 127.742H120.331C120.291 127.742 120.253 127.745 120.215 127.751C120.174 127.757 120.134 127.766 120.095 127.78C119.969 127.821 119.861 127.893 119.786 127.986C119.714 128.075 119.673 128.181 119.673 128.295Z" fill="#FFC76C"/>
<path d="M133.041 130.282H147.623C147.72 130.282 147.812 130.259 147.894 130.219C148.066 130.135 148.188 129.972 148.207 129.783C148.208 129.774 148.209 129.766 148.209 129.758C148.21 129.749 148.21 129.739 148.21 129.73V128.295C148.21 128.286 148.21 128.276 148.209 128.267C148.194 127.975 147.935 127.742 147.623 127.742H134.832C134.632 128.47 134.177 129.468 133.13 130.219C133.101 130.24 133.072 130.261 133.041 130.282Z" fill="#FFAE39"/>
<path d="M122.987 130.282H123.297V127.742H122.987V130.282Z" fill="#FFA412"/>
<path d="M124.032 130.282H124.34V127.742H124.032V130.282Z" fill="#FFA412"/>
<path d="M125.291 130.282H125.6V127.743H125.291V130.282Z" fill="#FFA412"/>
<path d="M127.212 130.282H127.522V127.742H127.212V130.282Z" fill="#FFA412"/>
<path d="M129.246 130.282H129.555V127.743H129.246V130.282Z" fill="#FFA412"/>
<path d="M132.368 130.282H132.677V127.742H132.368V130.282Z" fill="#FFA412"/>
<path d="M135.286 130.282H135.596V127.742H135.286V130.282Z" fill="#FFA412"/>
<path d="M137.895 130.282H138.205V127.742H137.895V130.282Z" fill="#FFA412"/>
<path d="M121.987 130.282H122.296V127.743H121.987V130.282Z" fill="#FFA412"/>
<path d="M121.325 130.282H121.634V127.743H121.325V130.282Z" fill="#FFA412"/>
<path d="M120.691 130.282H121.001V127.743H120.691V130.282Z" fill="#FFA412"/>
<path d="M120.215 127.751V130.273C120.253 130.279 120.291 130.282 120.331 130.282H120.524V127.743H120.331C120.291 127.743 120.253 127.745 120.215 127.751Z" fill="#FFA412"/>
<path d="M119.786 127.986V130.037C119.859 130.13 119.967 130.204 120.094 130.244V127.779C119.967 127.82 119.859 127.893 119.786 127.986Z" fill="#FFA412"/>
<path d="M119.021 125.755V127.189C119.021 127.304 119.063 127.409 119.134 127.498C119.209 127.591 119.316 127.664 119.442 127.705C119.482 127.718 119.522 127.728 119.563 127.733C119.601 127.739 119.641 127.743 119.68 127.743H146.898C147.248 127.743 147.537 127.509 147.555 127.217C147.555 127.208 147.556 127.199 147.556 127.189V125.755C147.556 125.746 147.555 125.736 147.555 125.727C147.539 125.458 147.29 125.237 146.975 125.206C146.95 125.203 146.924 125.202 146.898 125.202H119.68C119.641 125.202 119.601 125.205 119.563 125.211C119.522 125.217 119.482 125.226 119.442 125.24C119.316 125.28 119.209 125.353 119.134 125.447C119.063 125.535 119.021 125.641 119.021 125.755Z" fill="#FFC76C"/>
<path d="M132.383 127.743H146.965C147.278 127.743 147.536 127.509 147.552 127.217C147.552 127.208 147.553 127.199 147.553 127.189V125.755C147.553 125.746 147.552 125.736 147.552 125.727C147.537 125.458 147.315 125.237 147.035 125.206C147.012 125.203 146.988 125.202 146.965 125.202H134.175L134.173 125.206C133.968 125.953 133.492 126.985 132.383 127.743Z" fill="#FFAE39"/>
<path d="M122.333 127.743H122.643V125.202H122.333V127.743Z" fill="#FFA412"/>
<path d="M123.381 127.743H123.69V125.202H123.381V127.743Z" fill="#FFA412"/>
<path d="M124.636 127.743H124.946V125.202H124.636V127.743Z" fill="#FFA412"/>
<path d="M126.561 127.743H126.871V125.202H126.561V127.743Z" fill="#FFA412"/>
<path d="M128.595 127.743H128.905V125.202H128.595V127.743Z" fill="#FFA412"/>
<path d="M131.717 127.743H132.026V125.202H131.717V127.743Z" fill="#FFA412"/>
<path d="M134.639 127.743H134.947V125.202H134.639V127.743Z" fill="#FFA412"/>
<path d="M137.244 127.743H137.553V125.202H137.244V127.743Z" fill="#FFA412"/>
<path d="M121.332 127.743H121.641V125.202H121.332V127.743Z" fill="#FFA412"/>
<path d="M120.673 127.743H120.982V125.202H120.673V127.743Z" fill="#FFA412"/>
<path d="M120.04 127.743H120.349V125.202H120.04V127.743Z" fill="#FFA412"/>
<path d="M119.564 125.211V127.733C119.601 127.739 119.641 127.742 119.68 127.742H119.873V125.202H119.68C119.641 125.202 119.601 125.205 119.564 125.211Z" fill="#FFA412"/>
<path d="M119.138 125.446V127.497C119.213 127.591 119.321 127.663 119.447 127.704V125.239C119.321 125.28 119.213 125.353 119.138 125.446Z" fill="#FFA412"/>
<path d="M121.022 123.219V124.653C121.022 124.768 121.063 124.873 121.136 124.962C121.21 125.055 121.318 125.128 121.444 125.169C121.482 125.181 121.523 125.191 121.564 125.197C121.578 125.2 121.59 125.201 121.602 125.202C121.609 125.203 121.617 125.204 121.624 125.204C121.631 125.205 121.638 125.205 121.645 125.205C121.657 125.206 121.669 125.206 121.681 125.206H148.898C149.25 125.206 149.538 124.973 149.555 124.682C149.556 124.672 149.556 124.663 149.556 124.653V123.219C149.556 123.209 149.556 123.2 149.555 123.19C149.555 123.182 149.554 123.175 149.554 123.167C149.528 122.934 149.326 122.74 149.06 122.683L149.041 122.679C148.995 122.671 148.947 122.666 148.898 122.666H121.681C121.66 122.666 121.641 122.667 121.622 122.668C121.613 122.669 121.604 122.67 121.595 122.671C121.584 122.672 121.574 122.674 121.564 122.676C121.523 122.681 121.482 122.69 121.444 122.703C121.318 122.744 121.21 122.818 121.136 122.911C121.063 122.998 121.022 123.105 121.022 123.219Z" fill="#FFC76C"/>
<path d="M134.387 125.206H148.968C149.281 125.206 149.54 124.973 149.555 124.682C149.556 124.672 149.556 124.663 149.556 124.653V123.219C149.556 123.209 149.556 123.2 149.555 123.19C149.555 123.182 149.554 123.175 149.554 123.167C149.53 122.928 149.342 122.732 149.099 122.68C149.09 122.678 149.08 122.676 149.073 122.676C149.039 122.669 149.004 122.666 148.968 122.666H136.178L136.173 122.684C135.966 123.43 135.49 124.45 134.393 125.202L134.387 125.206Z" fill="#FFAE39"/>
<path d="M124.334 125.206H124.643V122.666H124.334V125.206Z" fill="#FFA412"/>
<path d="M125.378 125.206H125.687V122.666H125.378V125.206Z" fill="#FFA412"/>
<path d="M126.633 125.206H126.942V122.666H126.633V125.206Z" fill="#FFA412"/>
<path d="M128.562 125.206H128.871V122.666H128.562V125.206Z" fill="#FFA412"/>
<path d="M130.6 125.206H130.908V122.666H130.6V125.206Z" fill="#FFA412"/>
<path d="M133.714 125.206H134.024V122.666H133.714V125.206Z" fill="#FFA412"/>
<path d="M136.636 125.206H136.946V122.666H136.636V125.206Z" fill="#FFA412"/>
<path d="M139.249 125.205H139.558V122.665H139.249V125.205Z" fill="#FFA412"/>
<path d="M123.337 125.206H123.646V122.666H123.337V125.206Z" fill="#FFA412"/>
<path d="M122.678 125.206H122.988V122.666H122.678V125.206Z" fill="#FFA412"/>
<path d="M122.042 125.206H122.351V122.666H122.042V125.206Z" fill="#FFA412"/>
<path d="M121.565 122.675V125.197C121.603 125.203 121.642 125.206 121.682 125.206H121.875V122.666H121.682C121.642 122.666 121.603 122.669 121.565 122.675Z" fill="#FFA412"/>
<path d="M121.135 122.91V124.962C121.211 125.055 121.318 125.128 121.445 125.169V122.703C121.318 122.744 121.211 122.818 121.135 122.91Z" fill="#FFA412"/>
<path d="M121.081 120.696V122.131C121.081 122.245 121.123 122.351 121.193 122.44C121.268 122.533 121.375 122.605 121.502 122.646C121.533 122.657 121.565 122.665 121.597 122.67C121.606 122.672 121.614 122.673 121.623 122.675C121.661 122.68 121.7 122.684 121.739 122.684H148.957C148.986 122.684 149.014 122.682 149.043 122.679C149.053 122.678 149.063 122.676 149.074 122.675C149.37 122.63 149.599 122.417 149.615 122.159C149.615 122.15 149.616 122.14 149.616 122.131V120.696C149.616 120.687 149.615 120.677 149.615 120.668C149.596 120.377 149.308 120.144 148.957 120.144H121.739C121.722 120.144 121.705 120.145 121.687 120.145C121.68 120.146 121.672 120.147 121.665 120.148C121.657 120.148 121.649 120.149 121.64 120.15L121.623 120.152C121.581 120.159 121.541 120.168 121.502 120.181L121.486 120.187L121.468 120.193C121.457 120.197 121.446 120.202 121.435 120.206C121.423 120.212 121.411 120.217 121.4 120.223C121.39 120.229 121.378 120.235 121.368 120.24C121.357 120.246 121.346 120.253 121.335 120.261C121.326 120.267 121.318 120.272 121.309 120.279L121.308 120.28L121.291 120.292C121.274 120.305 121.258 120.319 121.244 120.333L121.231 120.347L121.217 120.36C121.209 120.369 121.201 120.378 121.193 120.388C121.123 120.476 121.081 120.582 121.081 120.696Z" fill="#FFC76C"/>
<path d="M134.446 122.684H149.028C149.039 122.684 149.051 122.684 149.062 122.683C149.075 122.682 149.088 122.681 149.1 122.68C149.379 122.647 149.6 122.428 149.615 122.16C149.615 122.15 149.616 122.141 149.616 122.131V120.697C149.616 120.687 149.615 120.678 149.615 120.668C149.599 120.378 149.341 120.144 149.028 120.144H136.237C136.232 120.164 136.226 120.186 136.219 120.206C136.008 120.942 135.534 121.931 134.472 122.666C134.463 122.672 134.455 122.678 134.446 122.684Z" fill="#FFAE39"/>
<path d="M124.392 122.684H124.701V120.144H124.392V122.684Z" fill="#FFA412"/>
<path d="M125.436 122.684H125.746V120.144H125.436V122.684Z" fill="#FFA412"/>
<path d="M126.692 122.684H127.002V120.144H126.692V122.684Z" fill="#FFA412"/>
<path d="M128.62 122.684H128.93V120.144H128.62V122.684Z" fill="#FFA412"/>
<path d="M130.654 122.684H130.964V120.144H130.654V122.684Z" fill="#FFA412"/>
<path d="M133.772 122.684H134.081V120.144H133.772V122.684Z" fill="#FFA412"/>
<path d="M136.694 122.684H137.003V120.144H136.694V122.684Z" fill="#FFA412"/>
<path d="M139.307 122.684H139.617V120.144H139.307V122.684Z" fill="#FFA412"/>
<path d="M123.395 122.684H123.705V120.144H123.395V122.684Z" fill="#FFA412"/>
<path d="M122.737 122.684H123.046V120.144H122.737V122.684Z" fill="#FFA412"/>
<path d="M122.103 122.684H122.412V120.144H122.103V122.684Z" fill="#FFA412"/>
<path d="M121.623 120.153V122.675C121.66 122.681 121.699 122.684 121.738 122.684H121.932V120.144H121.738C121.699 120.144 121.66 120.147 121.623 120.153Z" fill="#FFA412"/>
<path d="M121.19 120.388V122.44C121.266 122.533 121.373 122.606 121.499 122.647V120.181C121.373 120.222 121.266 120.296 121.19 120.388Z" fill="#FFA412"/>
<path d="M119.673 118.22V119.654C119.673 119.769 119.714 119.874 119.786 119.963C119.861 120.056 119.969 120.129 120.095 120.17C120.134 120.182 120.174 120.192 120.215 120.198C120.253 120.204 120.291 120.207 120.331 120.207H147.548C147.659 120.207 147.762 120.185 147.853 120.144C148.046 120.06 148.183 119.897 148.204 119.707C148.205 119.699 148.206 119.691 148.206 119.683C148.207 119.673 148.207 119.664 148.207 119.654V118.22C148.207 118.21 148.207 118.201 148.206 118.191C148.189 117.901 147.9 117.667 147.548 117.667H120.331C120.291 117.667 120.253 117.67 120.215 117.676C120.174 117.682 120.134 117.691 120.095 117.704C119.969 117.745 119.861 117.819 119.786 117.911C119.714 117.999 119.673 118.106 119.673 118.22Z" fill="#FFC76C"/>
<path d="M133.041 120.206H147.623C147.72 120.206 147.812 120.184 147.894 120.144C148.066 120.059 148.188 119.897 148.207 119.707C148.208 119.699 148.209 119.691 148.209 119.682C148.21 119.673 148.21 119.663 148.21 119.654V118.219C148.21 118.21 148.21 118.2 148.209 118.191C148.194 117.9 147.935 117.667 147.623 117.667H134.832C134.632 118.394 134.177 119.392 133.13 120.144C133.101 120.165 133.072 120.186 133.041 120.206Z" fill="#FFAE39"/>
<path d="M122.987 120.206H123.297V117.666H122.987V120.206Z" fill="#FFA412"/>
<path d="M124.032 120.206H124.34V117.666H124.032V120.206Z" fill="#FFA412"/>
<path d="M125.291 120.206H125.6V117.666H125.291V120.206Z" fill="#FFA412"/>
<path d="M127.212 120.207H127.522V117.667H127.212V120.207Z" fill="#FFA412"/>
<path d="M129.246 120.206H129.555V117.667H129.246V120.206Z" fill="#FFA412"/>
<path d="M132.368 120.206H132.677V117.666H132.368V120.206Z" fill="#FFA412"/>
<path d="M135.286 120.206H135.596V117.666H135.286V120.206Z" fill="#FFA412"/>
<path d="M137.895 120.206H138.205V117.666H137.895V120.206Z" fill="#FFA412"/>
<path d="M121.987 120.207H122.296V117.667H121.987V120.207Z" fill="#FFA412"/>
<path d="M121.325 120.206H121.634V117.667H121.325V120.206Z" fill="#FFA412"/>
<path d="M120.691 120.206H121.001V117.666H120.691V120.206Z" fill="#FFA412"/>
<path d="M120.215 117.676V120.198C120.253 120.204 120.291 120.206 120.331 120.206H120.524V117.666H120.331C120.291 117.666 120.253 117.67 120.215 117.676Z" fill="#FFA412"/>
<path d="M119.786 117.911V119.963C119.859 120.056 119.967 120.128 120.094 120.169V117.704C119.967 117.745 119.859 117.818 119.786 117.911Z" fill="#FFA412"/>
<path d="M117.449 115.68V117.114C117.449 117.229 117.49 117.335 117.562 117.423C117.637 117.516 117.745 117.589 117.871 117.63C117.91 117.642 117.95 117.652 117.991 117.658C118.03 117.664 118.068 117.667 118.108 117.667H145.325C145.677 117.667 145.966 117.433 145.983 117.143C145.984 117.133 145.984 117.124 145.984 117.114V115.68C145.984 115.67 145.984 115.661 145.983 115.651C145.967 115.383 145.719 115.163 145.404 115.131C145.378 115.129 145.352 115.127 145.325 115.127H118.108C118.068 115.127 118.03 115.13 117.991 115.136C117.95 115.142 117.91 115.152 117.871 115.164C117.745 115.205 117.637 115.279 117.562 115.371C117.49 115.459 117.449 115.565 117.449 115.68Z" fill="#FFC76C"/>
<path d="M130.818 117.667H145.4C145.712 117.667 145.97 117.433 145.986 117.142C145.987 117.133 145.987 117.123 145.987 117.114V115.679C145.987 115.67 145.987 115.66 145.986 115.651C145.972 115.382 145.75 115.162 145.468 115.131C145.445 115.128 145.422 115.127 145.4 115.127H132.608L132.607 115.131C132.402 115.878 131.926 116.909 130.818 117.667Z" fill="#FFAE39"/>
<path d="M120.761 117.667H121.07V115.127H120.761V117.667Z" fill="#FFA412"/>
<path d="M121.809 117.667H122.118V115.127H121.809V117.667Z" fill="#FFA412"/>
<path d="M123.064 117.667H123.374V115.127H123.064V117.667Z" fill="#FFA412"/>
<path d="M124.989 117.667H125.299V115.127H124.989V117.667Z" fill="#FFA412"/>
<path d="M127.019 117.667H127.329V115.127H127.019V117.667Z" fill="#FFA412"/>
<path d="M130.145 117.667H130.453V115.127H130.145V117.667Z" fill="#FFA412"/>
<path d="M133.063 117.667H133.372V115.127H133.063V117.667Z" fill="#FFA412"/>
<path d="M135.668 117.667H135.977V115.127H135.668V117.667Z" fill="#FFA412"/>
<path d="M119.764 117.667H120.072V115.127H119.764V117.667Z" fill="#FFA412"/>
<path d="M119.101 117.667H119.411V115.127H119.101V117.667Z" fill="#FFA412"/>
<path d="M118.468 117.667H118.778V115.127H118.468V117.667Z" fill="#FFA412"/>
<path d="M117.988 115.136V117.658C118.026 117.664 118.064 117.667 118.104 117.667H118.297V115.127H118.104C118.064 115.127 118.026 115.13 117.988 115.136Z" fill="#FFA412"/>
<path d="M117.562 115.37V117.422C117.637 117.516 117.745 117.588 117.872 117.629V115.164C117.745 115.205 117.637 115.278 117.562 115.37Z" fill="#FFA412"/>
<path d="M121.022 113.144V114.578C121.022 114.693 121.063 114.798 121.136 114.887C121.21 114.979 121.318 115.053 121.444 115.094C121.482 115.106 121.523 115.116 121.564 115.122C121.578 115.124 121.59 115.126 121.602 115.127C121.613 115.128 121.623 115.128 121.634 115.129L121.648 115.13C121.658 115.131 121.67 115.131 121.681 115.131H148.898C149.25 115.131 149.538 114.897 149.555 114.607C149.556 114.597 149.556 114.588 149.556 114.578V113.144C149.556 113.134 149.556 113.125 149.555 113.115C149.538 112.825 149.25 112.591 148.898 112.591H121.681C121.669 112.591 121.657 112.591 121.645 112.592C121.618 112.593 121.591 112.596 121.564 112.6C121.523 112.606 121.482 112.615 121.444 112.628C121.424 112.634 121.406 112.642 121.387 112.649C121.375 112.654 121.364 112.66 121.353 112.665L121.35 112.667C121.338 112.672 121.327 112.678 121.316 112.684L121.311 112.687C121.3 112.693 121.29 112.699 121.281 112.705C121.258 112.72 121.236 112.735 121.216 112.753L121.197 112.769L121.194 112.773L121.182 112.783L121.18 112.785L121.161 112.805C121.152 112.815 121.143 112.825 121.136 112.835C121.063 112.923 121.022 113.029 121.022 113.144Z" fill="#FFC76C"/>
<path d="M134.387 115.131H148.968C149.281 115.131 149.54 114.897 149.555 114.607C149.556 114.597 149.556 114.588 149.556 114.578V113.144C149.556 113.134 149.556 113.125 149.555 113.115C149.54 112.825 149.281 112.591 148.968 112.591H136.178C136.173 112.61 136.168 112.63 136.161 112.649C135.949 113.391 135.471 114.389 134.393 115.127L134.387 115.131Z" fill="#FFAE39"/>
<path d="M124.334 115.131H124.643V112.591H124.334V115.131Z" fill="#FFA412"/>
<path d="M125.378 115.131H125.687V112.591H125.378V115.131Z" fill="#FFA412"/>
<path d="M126.633 115.131H126.942V112.591H126.633V115.131Z" fill="#FFA412"/>
<path d="M128.562 115.131H128.871V112.591H128.562V115.131Z" fill="#FFA412"/>
<path d="M130.6 115.131H130.908V112.591H130.6V115.131Z" fill="#FFA412"/>
<path d="M133.714 115.131H134.024V112.591H133.714V115.131Z" fill="#FFA412"/>
<path d="M136.636 115.131H136.946V112.591H136.636V115.131Z" fill="#FFA412"/>
<path d="M139.249 115.13H139.558V112.59H139.249V115.13Z" fill="#FFA412"/>
<path d="M123.337 115.131H123.646V112.591H123.337V115.131Z" fill="#FFA412"/>
<path d="M122.678 115.13H122.988V112.59H122.678V115.13Z" fill="#FFA412"/>
<path d="M122.042 115.131H122.351V112.591H122.042V115.131Z" fill="#FFA412"/>
<path d="M121.565 112.6V115.122C121.603 115.128 121.642 115.131 121.682 115.131H121.875V112.591H121.682C121.642 112.591 121.603 112.594 121.565 112.6Z" fill="#FFA412"/>
<path d="M121.135 112.835V114.887C121.211 114.98 121.318 115.053 121.444 115.094V112.629C121.318 112.67 121.211 112.742 121.135 112.835Z" fill="#FFA412"/>
<path d="M119.021 110.662V112.097C119.021 112.211 119.063 112.317 119.134 112.405C119.209 112.498 119.316 112.571 119.442 112.612C119.482 112.625 119.522 112.634 119.563 112.64C119.601 112.646 119.641 112.649 119.68 112.649H146.898C147.003 112.649 147.103 112.629 147.192 112.591C147.39 112.507 147.532 112.341 147.553 112.148C147.554 112.14 147.554 112.133 147.555 112.125C147.555 112.116 147.556 112.106 147.556 112.097V110.662C147.556 110.652 147.555 110.643 147.555 110.634C147.539 110.364 147.29 110.145 146.975 110.113C146.95 110.111 146.924 110.109 146.898 110.109H119.68C119.641 110.109 119.601 110.112 119.563 110.118C119.522 110.124 119.482 110.134 119.442 110.146C119.316 110.188 119.209 110.261 119.134 110.353C119.063 110.442 119.021 110.548 119.021 110.662Z" fill="#FFC76C"/>
<path d="M132.383 112.649H146.965C147.06 112.649 147.148 112.629 147.228 112.591C147.405 112.507 147.531 112.341 147.55 112.148C147.551 112.14 147.551 112.133 147.552 112.125C147.552 112.116 147.553 112.106 147.553 112.097V110.662C147.553 110.652 147.552 110.643 147.552 110.634C147.537 110.365 147.315 110.145 147.035 110.113C147.012 110.111 146.988 110.109 146.965 110.109H134.175L134.173 110.113C133.973 110.841 133.515 111.84 132.467 112.591C132.44 112.61 132.412 112.63 132.383 112.649Z" fill="#FFAE39"/>
<path d="M122.333 112.65H122.643V110.11H122.333V112.65Z" fill="#FFA412"/>
<path d="M123.381 112.65H123.69V110.11H123.381V112.65Z" fill="#FFA412"/>
<path d="M124.636 112.65H124.946V110.11H124.636V112.65Z" fill="#FFA412"/>
<path d="M126.561 112.649H126.871V110.109H126.561V112.649Z" fill="#FFA412"/>
<path d="M128.595 112.649H128.905V110.109H128.595V112.649Z" fill="#FFA412"/>
<path d="M131.717 112.65H132.026V110.11H131.717V112.65Z" fill="#FFA412"/>
<path d="M134.639 112.65H134.947V110.11H134.639V112.65Z" fill="#FFA412"/>
<path d="M137.244 112.649H137.553V110.109H137.244V112.649Z" fill="#FFA412"/>
<path d="M121.332 112.65H121.641V110.11H121.332V112.65Z" fill="#FFA412"/>
<path d="M120.673 112.65H120.982V110.11H120.673V112.65Z" fill="#FFA412"/>
<path d="M120.04 112.65H120.349V110.11H120.04V112.65Z" fill="#FFA412"/>
<path d="M119.564 110.118V112.641C119.601 112.646 119.641 112.65 119.68 112.65H119.873V110.11H119.68C119.641 110.11 119.601 110.113 119.564 110.118Z" fill="#FFA412"/>
<path d="M119.138 110.353V112.405C119.213 112.498 119.321 112.571 119.447 112.612V110.146C119.321 110.187 119.213 110.261 119.138 110.353Z" fill="#FFA412"/>
<path d="M118.17 108.126V109.561C118.17 109.675 118.211 109.781 118.283 109.87C118.357 109.963 118.466 110.035 118.592 110.076C118.631 110.089 118.671 110.099 118.712 110.105C118.726 110.106 118.738 110.109 118.751 110.11C118.757 110.11 118.765 110.111 118.772 110.111C118.779 110.112 118.786 110.113 118.794 110.113C118.805 110.113 118.817 110.113 118.828 110.113H146.046C146.397 110.113 146.687 109.88 146.704 109.589C146.705 109.58 146.705 109.57 146.705 109.561V108.126C146.705 108.117 146.705 108.107 146.704 108.098C146.687 107.807 146.397 107.574 146.046 107.574H118.828C118.789 107.574 118.75 107.577 118.712 107.582C118.671 107.589 118.631 107.598 118.592 107.611C118.466 107.652 118.357 107.725 118.283 107.818C118.211 107.906 118.17 108.012 118.17 108.126Z" fill="#FFC76C"/>
<path d="M131.535 110.113H146.116C146.429 110.113 146.686 109.88 146.702 109.589C146.703 109.58 146.703 109.57 146.703 109.561V108.126C146.703 108.117 146.703 108.107 146.702 108.098C146.686 107.807 146.429 107.574 146.116 107.574H133.324C133.121 108.321 132.646 109.352 131.54 110.11L131.535 110.113Z" fill="#FFAE39"/>
<path d="M121.485 110.113H121.795V107.574H121.485V110.113Z" fill="#FFA412"/>
<path d="M122.529 110.113H122.838V107.574H122.529V110.113Z" fill="#FFA412"/>
<path d="M123.784 110.113H124.093V107.574H123.784V110.113Z" fill="#FFA412"/>
<path d="M125.709 110.113H126.019V107.574H125.709V110.113Z" fill="#FFA412"/>
<path d="M127.743 110.113H128.053V107.574H127.743V110.113Z" fill="#FFA412"/>
<path d="M130.865 110.113H131.175V107.574H130.865V110.113Z" fill="#FFA412"/>
<path d="M133.784 110.113H134.093V107.574H133.784V110.113Z" fill="#FFA412"/>
<path d="M136.392 107.574V110.113H136.702V107.574H136.392Z" fill="#FFA412"/>
<path d="M120.48 110.113H120.79V107.574H120.48V110.113Z" fill="#FFA412"/>
<path d="M119.822 110.113H120.131V107.574H119.822V110.113Z" fill="#FFA412"/>
<path d="M119.189 110.113H119.498V107.574H119.189V110.113Z" fill="#FFA412"/>
<path d="M118.708 107.582V110.105C118.746 110.11 118.785 110.113 118.824 110.113H119.018V107.574H118.824C118.785 107.574 118.746 107.577 118.708 107.582Z" fill="#FFA412"/>
<path d="M118.283 107.817V109.869C118.357 109.962 118.465 110.035 118.591 110.076V107.611C118.465 107.652 118.357 107.725 118.283 107.817Z" fill="#FFA412"/>
<path d="M163.868 122.266C163.868 115.125 158.077 109.336 150.932 109.336C143.788 109.336 137.997 115.125 137.997 122.266C137.997 129.407 143.788 135.197 150.932 135.197C158.077 135.197 163.868 129.407 163.868 122.266Z" fill="#E2810E"/>
<path d="M164.996 122.266C164.996 115.125 159.205 109.336 152.061 109.336C144.917 109.336 139.125 115.125 139.125 122.266C139.125 129.407 144.917 135.197 152.061 135.197C159.205 135.197 164.996 129.407 164.996 122.266Z" fill="#FFC76C"/>
<path d="M140.978 122.419C140.978 128.528 145.95 133.497 152.061 133.497C158.171 133.497 163.144 128.528 163.144 122.419C163.144 116.31 158.171 111.341 152.061 111.341C145.95 111.341 140.978 116.31 140.978 122.419ZM143.727 130.75C141.501 128.524 140.275 125.566 140.275 122.419C140.275 119.272 141.501 116.314 143.727 114.089C145.953 111.863 148.913 110.638 152.061 110.638C155.209 110.638 158.169 111.863 160.394 114.089C162.62 116.314 163.846 119.272 163.846 122.419C163.846 125.566 162.62 128.524 160.394 130.75C158.169 132.974 155.209 134.2 152.061 134.2C148.913 134.2 145.953 132.974 143.727 130.75Z" fill="#FFA412"/>
<path d="M95.7366 118.694C95.7366 118.694 94.104 120.991 92.6073 121.023C91.1114 121.054 88.8344 119.958 88.8344 119.958C88.8344 119.958 87.4601 116.897 88.3921 115.698C88.3921 115.698 89.3265 115.289 90.3042 116.013C90.4717 116.138 90.6423 116.295 90.8097 116.497C91.0475 116.782 91.3136 116.944 91.5956 117.03C92.6634 117.355 93.9311 116.591 94.405 117.328C94.6822 117.757 94.9831 118.079 95.2311 118.305C95.5241 118.566 95.7366 118.694 95.7366 118.694Z" fill="#FFEDDC"/>
<path d="M74.4552 135.265C74.4552 135.265 80.2256 121.289 90.6116 121.023C90.6116 121.023 100.198 122.088 100.731 135.265H74.4552Z" fill="#FFEDDC"/>
<path d="M87.7681 121.45C87.7681 121.45 91.9312 122.375 93.2155 121.831C93.2155 121.831 93.4098 120.091 91.6564 120.335C90.4566 120.502 89.6747 119.925 89.2151 119.692C88.565 119.361 87.5952 120.722 87.7681 121.45Z" fill="#2B478B"/>
<path d="M91.3897 118.826C91.1235 119.026 90.306 116.013 90.306 116.013C90.4735 116.138 90.6441 116.295 90.8115 116.497C91.0492 116.782 91.3154 116.944 91.5974 117.029C91.6005 117.118 91.6479 118.632 91.3897 118.826Z" fill="#E5C1A1"/>
<path d="M95.2324 118.304C95.1732 118.339 93.2484 119.492 92.987 119.492C92.7208 119.492 94.4063 117.328 94.4063 117.328C94.6835 117.757 94.9844 118.079 95.2324 118.304Z" fill="#E5C1A1"/>
<path d="M80.0938 131.361C79.9872 131.269 84.1771 125.193 85.331 125.149C86.485 125.105 89.0779 126.48 90.9553 126.657C92.8319 126.835 94.6516 126.302 95.007 127.411C95.3625 128.521 96.3387 132.453 95.7392 133.082C95.1405 133.712 82.3977 133.328 80.0938 131.361Z" fill="#F9DDBF"/>
<path d="M130.547 123.782C130.747 124.011 130.773 124.267 130.674 124.541L130.672 124.544C130.489 125.051 129.884 125.615 129.181 126.18C129.091 126.252 129.011 126.318 128.941 126.378C128.923 126.394 128.905 126.411 128.888 126.427C128.874 126.439 128.86 126.452 128.846 126.464C128.191 127.068 128.438 127.207 127.26 128.432C125.917 129.828 124.993 129.853 124.73 129.726C124.509 129.618 124.96 128.877 125.461 128.044C125.486 128.005 125.509 127.964 125.534 127.923C125.601 127.813 125.668 127.7 125.733 127.589C126.319 126.588 126.169 126.117 126.03 124.627C125.917 123.415 124.145 117.858 124.145 117.858L126.718 117.415C126.718 117.415 127.492 121.84 128.347 122.522C128.802 122.885 129.313 122.889 129.752 123.159C129.783 123.177 129.814 123.197 129.842 123.217C130.093 123.382 130.347 123.552 130.547 123.782Z" fill="#FFB27D"/>
<path d="M130.547 123.782C130.747 124.011 130.772 124.267 130.674 124.541L130.672 124.544C130.448 125.05 129.858 125.612 129.179 126.174C129.089 126.247 129.011 126.315 128.941 126.378C128.923 126.394 128.905 126.411 128.888 126.427C128.873 126.439 128.86 126.452 128.846 126.464C128.191 127.068 128.438 127.207 127.26 128.432C125.917 129.828 124.993 129.853 124.73 129.726C124.509 129.618 124.96 128.877 125.46 128.044C125.723 127.949 126.936 127.456 127.854 126.282C128.662 125.251 129.201 123.926 129.752 123.159C129.783 123.177 129.813 123.197 129.842 123.217C130.093 123.382 130.347 123.552 130.547 123.782Z" fill="#233862"/>
<path d="M109.802 122.175C109.643 122.969 108.51 122.836 107.246 122.528C105.981 122.219 106.282 122.586 104.482 122.386C102.682 122.187 102.137 121.516 102.082 121.249C102.032 121.012 102.923 120.928 103.876 120.818C103.996 120.805 104.117 120.79 104.237 120.775C105.314 120.64 106.103 119.945 107.081 119.374C108.008 118.834 109.391 116.632 109.391 116.632L111.859 116.827C111.859 116.827 110.564 118.794 110.063 119.649C109.769 120.152 109.784 120.817 109.821 121.331C109.84 121.61 109.858 121.895 109.802 122.175Z" fill="#FFB27D"/>
<path d="M107.246 122.528C105.981 122.219 106.282 122.586 104.482 122.386C102.682 122.187 102.137 121.516 102.082 121.249C102.032 121.012 102.923 120.928 103.876 120.818L103.885 120.836C103.885 120.836 104.964 121.601 106.462 121.637C107.684 121.667 108.977 121.317 109.821 121.331C109.84 121.61 109.858 121.895 109.802 122.175C109.643 122.969 108.51 122.836 107.246 122.528Z" fill="#233862"/>
<path d="M119.265 106.397L121.573 112.604L124.585 120.709C124.585 120.709 125.403 120.788 126.186 120.563C126.907 120.354 127.734 119.809 127.734 119.809C127.734 119.809 126.897 111.108 125.337 106.112C124.937 104.83 124.489 103.793 123.994 103.209C121.575 100.351 119.265 106.397 119.265 106.397Z" fill="#233862"/>
<path d="M121.609 96.5398C123.121 96.0526 127.432 96.6787 131.764 97.5258L132.671 96.0306L142.026 95.3003C142.026 95.3003 145.113 102.144 143.423 106.504C143.175 107.145 142.681 107.556 141.839 107.57H141.702C141.702 107.57 136.134 107.567 134.327 107.567C129.674 107.567 124.48 104.369 123.809 104.235C122.709 104.016 122.269 106.214 121.17 108.523C120.069 110.831 110.831 118.746 110.831 118.746C110.831 118.746 109.412 118.76 108.825 118.541C108.195 118.304 107.964 117.997 107.964 117.997C107.964 117.997 118.199 97.6395 121.609 96.5398Z" fill="#2B478B"/>
<path d="M130.066 83.029C133.016 85.4276 140.125 89.5842 140.164 89.5661C140.164 89.5661 142.442 90.9295 143.995 90.2609C146.585 89.1453 148.574 85.2412 144.992 80.9211C143.206 78.7665 141.724 78.0568 142.072 75.1924C142.449 72.0897 141.047 68.1878 137.473 68.024C137.174 68.0103 135.365 67.7687 134.073 68.1739C130.783 69.2066 125.279 81.4398 130.066 83.029Z" fill="#233862"/>
<path d="M142.663 96.3158C142.471 96.8471 137.412 97.3208 134.535 97.1298C133.62 97.0706 132.925 96.9419 132.677 96.7287C131.651 95.8374 131.753 97.7977 131.612 88.4176C131.544 83.8432 135.496 79.7686 135.496 79.7686C135.496 79.7686 135.811 81.7227 139.731 79.3968C139.87 79.3155 141.414 81.5995 142.899 84.4125C144.536 87.5208 142.861 95.7686 142.663 96.3158Z" fill="#AEC3FF"/>
<path d="M121.572 112.604L124.584 120.709C124.584 120.709 125.402 120.788 126.186 120.563C126.906 120.354 127.733 119.809 127.733 119.809C127.733 119.809 126.897 111.108 125.336 106.112L121.572 112.604Z" fill="#2B478B"/>
<path d="M135.501 79.7677C135.501 79.7677 131.923 80.6449 130.995 82.1867C129.865 84.0634 124.228 92.5284 124.228 92.5284C124.228 92.5284 129.785 94.4927 130.732 93.5461C131.679 92.5995 134.027 84.7636 134.027 84.7636L135.501 79.7677Z" fill="#AEC3FF"/>
<path d="M139.744 79.4021C139.76 79.4044 138.301 80.7474 137.232 81.1358C136.813 81.2882 136.117 81.4556 136.117 81.4556C136.117 81.4556 135.559 80.8911 135.552 80.8832C135.056 80.4205 135.554 80.2871 135.479 79.4116C135.475 79.3697 135.472 79.3271 135.467 79.2853C135.367 78.3055 135.084 77.2333 135.065 77.1631L135.064 77.1599L138.526 76.1706L138.415 76.3617C138.629 78.1579 139.273 79.35 139.744 79.4021Z" fill="#FFB27D"/>
<path d="M138.527 76.1707C138.191 77.1765 137.275 78.5266 135.407 78.8171C135.227 77.7379 135.083 77.2334 135.065 77.1631L135.064 77.16L138.527 76.1707Z" fill="#ED975D"/>
<path d="M134.488 78.2021C134.488 78.2021 139.155 77.8919 138.917 74.9897C138.679 72.0875 139.121 70.0923 136.132 70.1674C133.142 70.2432 132.655 71.3982 132.498 72.3859C132.341 73.3744 133.268 78.2077 134.488 78.2021Z" fill="#FFB27D"/>
<path d="M133.645 70.1166C133.645 70.1166 134.804 73.5178 137.558 73.9125C139.566 74.2015 140.364 73.6583 140.364 73.6583C140.364 73.6583 139.242 72.5933 138.635 70.9559C138.456 70.4726 138.033 70.1213 137.524 70.0431C136.094 69.8224 134.248 68.8763 133.645 70.1166Z" fill="#233862"/>
<path d="M134.635 70.7191C134.635 70.7191 133.802 71.0554 133.22 72.2989C132.903 72.9786 132.673 74.5964 132.87 75.2635C132.87 75.2635 131.528 72.1608 132.499 70.7617C133.529 69.2783 134.635 70.7191 134.635 70.7191Z" fill="#233862"/>
<path d="M135.476 79.4116C135.476 79.4116 135.761 81.1334 136.115 81.4556C136.115 81.4556 135.22 81.1247 134.795 79.9682C134.795 79.9682 135.108 79.451 135.476 79.4116Z" fill="#91B0F2"/>
<path d="M132.148 85.2687C132.148 85.2687 129.543 88.3943 129.863 89.5265C130.185 90.6579 131.989 90.6579 131.989 90.6579C131.989 90.6579 131.652 88.2467 131.989 86.9913C132.326 85.7368 132.537 85.1945 132.148 85.2687Z" fill="#91B0F2"/>
<path d="M137.998 94.2743C137.998 94.2743 141.753 91.9871 141.703 90.6584C141.653 89.3296 141.704 86.8917 142.057 87.2328C142.409 87.5746 143.522 90.3134 143.415 91.0887C143.308 91.8648 139.517 97.28 139.048 97.2665C135.701 97.1734 137.998 94.2743 137.998 94.2743Z" fill="#91B0F2"/>
<path d="M139.018 78.6035C139.018 78.6035 136.968 81.1812 136.12 81.4551C136.12 81.4551 138.528 81.4551 140.23 79.445C140.23 79.445 139.661 78.6121 139.018 78.6035Z" fill="#91B0F2"/>
<path d="M120.018 91.4872C120.018 86.2346 124.278 81.976 129.533 81.976C134.787 81.976 139.047 86.2346 139.047 91.4872C139.047 96.7397 134.787 100.998 129.533 100.998C124.278 100.998 120.018 96.7397 120.018 91.4872Z" fill="#E2810E"/>
<path d="M119.189 91.4878C119.189 86.2353 123.448 81.9767 128.703 81.9767C133.957 81.9767 138.218 86.2353 138.218 91.4878C138.218 96.7404 133.957 100.998 128.703 100.998C123.448 100.998 119.189 96.7404 119.189 91.4878Z" fill="#FFC76C"/>
<path d="M128.704 83.4517C124.209 83.4517 120.554 87.1071 120.554 91.6001C120.554 96.0932 124.209 99.7486 128.704 99.7486C133.199 99.7486 136.856 96.0932 136.856 91.6001C136.856 87.1071 133.199 83.4517 128.704 83.4517ZM128.704 100.265C126.389 100.265 124.212 99.3641 122.575 97.7275C120.937 96.0909 120.036 93.9149 120.036 91.6001C120.036 89.2853 120.937 87.1095 122.575 85.4728C124.212 83.8362 126.389 82.9346 128.704 82.9346C131.02 82.9346 133.197 83.8362 134.834 85.4728C136.472 87.1095 137.373 89.2853 137.373 91.6001C137.373 93.9149 136.472 96.0909 134.834 97.7275C133.197 99.3641 131.02 100.265 128.704 100.265Z" fill="#FFA412"/>
<path d="M118.53 93.1088C118.53 93.1088 118.424 91.5465 119.015 91.608C119.739 91.683 120.51 93.4017 120.156 93.7342C119.802 94.0665 118.539 93.4941 118.53 93.1088Z" fill="#FFB27D"/>
<path d="M138.763 96.7254L137.881 96.1972C137.881 96.1972 137.334 95.9793 137.012 96.0251C136.69 96.0709 135.926 95.9359 135.902 96.0606C135.877 96.1862 136.637 96.7436 136.637 96.7436C136.179 97.4438 134.526 97.5725 134.4 97.8362C134.248 98.156 134.995 98.456 135.4 98.6296C135.806 98.8034 136.842 98.962 137.44 98.5081C137.878 98.1757 138.597 97.7383 138.597 97.7383L138.763 96.7254Z" fill="#FFB27D"/>
<path d="M139.73 79.3973C139.73 79.3973 143.433 79.6388 144.358 81.0828C145.284 82.526 148.257 90.7495 147.775 93.2664C147.294 95.7834 138.488 98.804 138.488 98.804C138.488 98.804 138.099 98.4661 138.099 97.5644C138.099 97.0229 138.381 96.5002 138.381 96.5002C138.381 96.5002 143.784 91.9874 143.411 91.0882C142.038 87.7691 139.73 79.3973 139.73 79.3973Z" fill="#AEC3FF"/>
<path d="M222.725 136L5.88512 135.925C5.73405 135.925 5.61045 135.801 5.6106 135.651V135.482C5.61074 135.332 5.73434 135.209 5.88527 135.209L222.725 135.283C222.877 135.283 223 135.407 223 135.557V135.725C223 135.876 222.877 136 222.725 136Z" fill="#2E3552"/>
</svg>
