<svg width="223" height="136" viewBox="0 0 223 136" fill="none" xmlns="http://www.w3.org/2000/svg">
<path d="M10.3932 135.572C10.3932 135.572 -5.77214 115.552 2.2183 76.8853C7.24426 52.5628 28.3548 40.5149 56.654 41.6653C66.3818 42.0606 82.2084 30.2765 104.95 15.8013C153.594 -15.1631 223.958 -2.01253 207.118 67.6362C198.968 101.34 232.754 101.881 215.962 135.572H10.3932Z" fill="#EBF3FA"/>
<path d="M190.332 29.8631C190.258 24.9477 182.183 24.4086 182.183 24.4086C182.183 24.4086 174.912 31.1146 173.341 30.9157C171.769 30.7169 178.445 23.9608 178.445 23.9608C175.567 22.9172 167.126 24.6305 167.126 24.6305C167.126 24.6305 165.226 34.1417 163.752 33.5591C162.277 32.9766 165.86 25.2237 165.86 25.2237C162.787 25.3536 159.273 28.0241 159.273 28.0241C154.559 32.6314 160.681 38.4845 160.681 38.4845C160.681 38.4845 159.952 41.7664 157.007 44.9907C156.497 45.4893 156.035 46.0348 155.626 46.6202L156.404 46.8199C156.522 46.6259 156.643 46.4411 156.77 46.266L156.776 46.2586C156.858 46.151 156.98 45.9981 157.129 45.8124C157.485 45.4016 157.734 45.1 157.899 44.8765C158.983 43.5881 160.495 41.9348 161.281 41.708C161.239 41.5779 161.214 41.4428 161.206 41.3062C161.23 41.4344 161.255 41.5675 161.281 41.708C161.887 44.9234 168.429 47.1107 172.336 47.2956C176.242 47.4805 174.89 46.0121 173.324 43.7886C171.758 41.565 167.455 40.9438 166.385 39.9561C165.314 38.9684 167.296 38.7606 169.722 39.5872C172.149 40.4138 172.756 43.2208 176.657 44.6292C180.558 46.0376 185.524 39.2421 185.524 39.2421C182.545 39.3966 177.983 36.5954 178.035 35.5888C178.087 34.5822 185.393 36.5559 186.608 36.5608C187.822 36.5658 190.406 34.7794 190.332 29.8631Z" fill="#BCCFEC"/>
<path d="M197.32 77.9708C201.12 71.5032 191.022 64.3173 191.022 64.3173C191.022 64.3173 176.226 67.2204 174.336 65.6995C172.445 64.1785 186.5 60.7314 186.5 60.7314C183.575 57.06 171.213 52.5143 171.213 52.5143C171.213 52.5143 161.197 63.3872 159.737 61.4447C158.276 59.5021 169.093 52.2719 169.093 52.2719C164.982 49.9712 158.285 50.6335 158.285 50.6335C148.488 52.8521 151.829 65.4012 151.829 65.4012C151.829 65.4012 148.277 69.0939 141.883 70.9329C141.883 70.9329 140.612 71.1794 138.791 71.9477L139.648 72.8327C139.954 72.6741 140.258 72.5303 140.563 72.4038C140.564 72.4033 140.565 72.4031 140.566 72.4031C140.567 72.4031 140.568 72.4033 140.569 72.4038L140.582 72.398C140.777 72.3257 141.054 72.223 141.398 72.1006C142.186 71.854 142.751 71.6568 143.144 71.4974C145.579 70.6889 148.859 69.7472 150.065 70.0833C150.113 69.8794 150.187 69.6827 150.286 69.4982L150.065 70.0833C148.306 74.7612 155.101 82.8649 160.047 86.243C164.993 89.621 164.395 86.6209 164.115 82.4631C163.836 78.3053 158.72 74.0414 158.111 71.8968C157.501 69.7521 160.245 71.0701 162.754 74.0948C165.263 77.1195 163.828 81.2683 167.798 86.2364C171.767 91.2044 183.615 86.3383 183.615 86.3383C179.609 84.1484 175.883 76.8328 176.748 75.5624C177.614 74.292 185.573 82.731 187.153 83.7137C188.733 84.6965 193.52 84.4385 197.32 77.9708Z" fill="#CDE0FB"/>
<path d="M60.6941 53.9145C62.9474 49.2571 70.8913 52.3747 70.8913 52.3747C70.8913 52.3747 74.8518 62.0437 76.4431 62.5638C78.0343 63.084 74.6551 53.6286 74.6551 53.6286C77.8645 53.9269 85.1585 59.3584 85.1585 59.3584C85.1585 59.3584 82.7476 69.2887 84.4131 69.3963C86.0786 69.504 86.1015 60.4948 86.1015 60.4948C88.977 62.0018 91.1438 66.13 91.1438 66.13C93.5931 72.6454 85.156 75.4778 85.156 75.4778C85.156 75.4778 84.3943 78.9372 85.7725 83.3374C85.7725 83.3374 86.1145 84.1665 86.366 85.5133L85.5349 85.349C85.5096 85.1115 85.4761 84.8806 85.4328 84.6563C85.4332 84.653 85.4332 84.6497 85.4328 84.6464C85.4002 84.5059 85.3512 84.3062 85.294 84.063C85.1307 83.5141 85.0336 83.1114 84.9756 82.823C84.5127 81.1057 83.804 78.8476 83.1542 78.2782C83.2526 78.1731 83.3369 78.0554 83.4048 77.9281L83.1542 78.2782C81.149 81.072 73.935 80.2182 70.1255 78.6373C66.316 77.0563 68.2583 76.2633 70.7395 74.8475C73.2206 73.4317 77.6024 74.7719 79.0606 74.3093C80.5187 73.8467 78.7217 72.7604 76.0397 72.4564C73.3578 72.1523 71.5314 74.5599 67.1839 74.1483C62.8364 73.7366 61.117 65.0273 61.117 65.0273C63.8928 66.5146 69.487 65.8934 69.8847 64.909C70.2823 63.9246 62.4347 62.526 61.2729 61.9821C60.1111 61.4381 58.4366 58.572 60.6941 53.9145Z" fill="#CDE0FB"/>
<path d="M157.662 12.134H87.0655C81.5426 12.134 77.0655 16.6112 77.0655 22.134V124.636C77.0655 130.159 81.5426 134.636 87.0655 134.636H157.662C163.185 134.636 167.662 130.159 167.662 124.636V22.134C167.662 16.6112 163.185 12.134 157.662 12.134Z" fill="#233862"/>
<path d="M163.345 16.1045H82.3793V129.14H163.345V16.1045Z" fill="white"/>
<path d="M90.1244 30.225V28.9834H95.9609V30.225H93.7852V36.1064H92.3V30.225H90.1244Z" fill="#3C64B1"/>
<path d="M96.8439 36.1064V28.9834H101.632V30.225H98.3464V31.9223H101.386V33.164H98.3464V34.8647H101.646V36.1064H96.8439Z" fill="#3C64B1"/>
<path d="M102.749 36.1064V28.9834H105.553C106.089 28.9834 106.547 29.0796 106.927 29.272C107.308 29.4622 107.599 29.7323 107.798 30.0824C107.999 30.4302 108.1 30.8395 108.1 31.3102C108.1 31.7832 107.998 32.1901 107.794 32.531C107.591 32.8695 107.296 33.1292 106.909 33.31C106.525 33.4909 106.06 33.5813 105.514 33.5813H103.637V32.371H105.271C105.558 32.371 105.797 32.3316 105.986 32.2527C106.176 32.1739 106.317 32.0556 106.41 31.898C106.504 31.7403 106.552 31.5444 106.552 31.3102C106.552 31.0737 106.504 30.8743 106.41 30.712C106.317 30.5496 106.175 30.4268 105.983 30.3433C105.793 30.2575 105.554 30.2146 105.265 30.2146H104.251V36.1064H102.749ZM106.587 32.8649L108.353 36.1064H106.694L104.966 32.8649H106.587Z" fill="#3C64B1"/>
<path d="M109.083 28.9834H110.936L112.893 33.7691H112.976L114.934 28.9834H116.787V36.1064H115.329V31.4702H115.27L113.431 36.0716H112.439L110.6 31.4528H110.541V36.1064H109.083V28.9834Z" fill="#3C64B1"/>
<path d="M120.13 36.1064V28.9834H122.933C123.472 28.9834 123.932 29.0866 124.311 29.2929C124.69 29.497 124.98 29.781 125.178 30.145C125.38 30.5068 125.48 30.9241 125.48 31.3971C125.48 31.8701 125.379 32.2875 125.175 32.6492C124.971 33.0109 124.676 33.2927 124.29 33.4944C123.906 33.6961 123.441 33.797 122.895 33.797H121.108V32.5901H122.652C122.942 32.5901 123.18 32.5402 123.367 32.4405C123.557 32.3385 123.698 32.1982 123.79 32.0197C123.885 31.8388 123.933 31.6313 123.933 31.3971C123.933 31.1606 123.885 30.9543 123.79 30.778C123.698 30.5995 123.557 30.4615 123.367 30.3642C123.177 30.2644 122.937 30.2146 122.645 30.2146H121.632V36.1064H120.13Z" fill="#3C64B1"/>
<path d="M132.909 32.5449C132.909 33.3216 132.762 33.9825 132.468 34.5274C132.176 35.0723 131.779 35.4885 131.274 35.776C130.772 36.0612 130.208 36.2038 129.581 36.2038C128.949 36.2038 128.383 36.06 127.881 35.7725C127.379 35.485 126.982 35.0688 126.69 34.5239C126.399 33.979 126.253 33.3193 126.253 32.5449C126.253 31.7681 126.399 31.1073 126.69 30.5624C126.982 30.0175 127.379 29.6025 127.881 29.3173C128.383 29.0297 128.949 28.886 129.581 28.886C130.208 28.886 130.772 29.0297 131.274 29.3173C131.779 29.6025 132.176 30.0175 132.468 30.5624C132.762 31.1073 132.909 31.7681 132.909 32.5449ZM131.385 32.5449C131.385 32.0417 131.31 31.6174 131.16 31.2719C131.012 30.9264 130.802 30.6644 130.532 30.4859C130.261 30.3073 129.944 30.2181 129.581 30.2181C129.218 30.2181 128.901 30.3073 128.63 30.4859C128.359 30.6644 128.149 30.9264 127.999 31.2719C127.851 31.6174 127.777 32.0417 127.777 32.5449C127.777 33.048 127.851 33.4724 127.999 33.8178C128.149 34.1633 128.359 34.4253 128.63 34.6039C128.901 34.7824 129.218 34.8717 129.581 34.8717C129.944 34.8717 130.261 34.7824 130.532 34.6039C130.802 34.4253 131.012 34.1633 131.16 33.8178C131.31 33.4724 131.385 33.048 131.385 32.5449Z" fill="#3C64B1"/>
<path d="M133.943 36.1064V28.9834H135.446V34.8647H138.493V36.1064H133.943Z" fill="#3C64B1"/>
<path d="M140.912 28.9834V36.1064H139.409V28.9834H140.912Z" fill="#3C64B1"/>
<path d="M148.34 31.4771H146.82C146.793 31.28 146.736 31.105 146.65 30.9519C146.565 30.7966 146.455 30.6644 146.321 30.5554C146.187 30.4465 146.032 30.363 145.856 30.305C145.682 30.2471 145.494 30.2181 145.29 30.2181C144.922 30.2181 144.602 30.3097 144.329 30.4928C144.056 30.6737 143.844 30.938 143.694 31.2858C143.544 31.6313 143.468 32.051 143.468 32.5449C143.468 33.0527 143.544 33.4793 143.694 33.8248C143.847 34.1703 144.059 34.4311 144.332 34.6074C144.605 34.7836 144.921 34.8717 145.28 34.8717C145.481 34.8717 145.667 34.845 145.838 34.7917C146.012 34.7384 146.166 34.6607 146.3 34.5587C146.434 34.4543 146.545 34.328 146.633 34.1796C146.723 34.0312 146.786 33.8619 146.82 33.6718L148.34 33.6787C148.301 34.0057 148.203 34.321 148.045 34.6247C147.89 34.9262 147.681 35.1963 147.417 35.4351C147.156 35.6716 146.843 35.8594 146.48 35.9986C146.119 36.1354 145.711 36.2038 145.255 36.2038C144.622 36.2038 144.055 36.06 143.555 35.7725C143.058 35.485 142.664 35.0688 142.375 34.5239C142.088 33.979 141.945 33.3193 141.945 32.5449C141.945 31.7681 142.091 31.1073 142.382 30.5624C142.674 30.0175 143.069 29.6025 143.569 29.3173C144.069 29.0297 144.631 28.886 145.255 28.886C145.667 28.886 146.049 28.944 146.4 29.0599C146.754 29.1758 147.068 29.3451 147.341 29.5677C147.614 29.788 147.836 30.0581 148.007 30.3781C148.181 30.698 148.292 31.0644 148.34 31.4771Z" fill="#3C64B1"/>
<path d="M148.923 28.9834H150.606L152.226 32.051H152.296L153.916 28.9834H155.599L153.007 33.5883V36.1064H151.515V33.5883L148.923 28.9834Z" fill="#3C64B1"/>
<path d="M106.352 12.134V16.2837C106.351 16.8284 106.458 17.3678 106.665 17.8711C106.872 18.3745 107.175 18.8319 107.558 19.2172C107.94 19.6025 108.394 19.9082 108.894 20.1169C109.394 20.3256 109.93 20.4331 110.471 20.4333H132.597C133.138 20.4331 133.674 20.3256 134.174 20.1169C134.674 19.9082 135.128 19.6025 135.511 19.2172C135.893 18.8319 136.196 18.3745 136.403 17.8711C136.61 17.3678 136.717 16.8284 136.716 16.2837V12.134H106.352Z" fill="#3C64B1"/>
<path d="M126.013 124.002C124.729 124.421 123.476 124.64 122.491 124.557C120.989 124.431 120.143 123.639 120.11 122.327C120.083 121.286 120.512 120.374 121.354 119.635C121.346 119.564 121.339 119.493 121.334 119.421C121.279 118.687 121.435 118.2 121.797 117.972C122.384 117.604 123.255 118.107 123.291 118.129L123.096 118.464C122.901 118.35 122.322 118.098 122.001 118.299C121.724 118.474 121.691 118.957 121.715 119.345C122.4 118.846 123.295 118.441 124.385 118.142C125.209 117.923 126.051 117.778 126.901 117.709C126.904 117.629 126.911 117.549 126.923 117.469C126.949 117.29 127.011 117.078 127.187 117.036C127.254 117.022 127.383 117.023 127.499 117.201C127.578 117.345 127.619 117.508 127.617 117.672C127.896 117.666 128.156 117.672 128.386 117.688L128.393 117.673C128.343 117.222 128.363 116.766 128.451 116.321C128.549 115.871 128.709 115.644 128.934 115.622C128.999 115.616 129.064 115.631 129.119 115.665C129.174 115.7 129.217 115.752 129.24 115.813C129.366 116.118 129.13 116.94 128.789 117.731C129.109 117.785 129.326 117.874 129.394 117.999C129.426 118.059 129.435 118.129 129.42 118.196C129.405 118.262 129.367 118.321 129.313 118.363C129.055 118.603 128.849 118.542 128.749 118.484C128.659 118.427 128.587 118.344 128.542 118.247C128.284 118.76 128.003 119.2 127.782 119.386C127.724 119.444 127.649 119.482 127.568 119.494C127.487 119.505 127.405 119.491 127.333 119.451C127.296 119.429 127.264 119.402 127.236 119.369C127.151 119.579 127.052 119.784 126.942 119.981C126.538 120.694 126.084 121.061 125.627 121.039C125.443 121.03 125.268 120.951 125.137 120.82C124.902 121.341 124.604 121.833 124.252 122.284C123.932 122.682 123.523 122.828 123.1 122.695C122.352 122.46 121.675 121.37 121.422 120.08C120.783 120.709 120.472 121.455 120.493 122.309C120.521 123.429 121.204 124.051 122.52 124.162C125.843 124.44 131.669 121.332 132.111 119.044C131.754 120.912 128.989 123.032 126.013 124.002ZM121.761 119.79C121.964 121.152 122.641 122.152 123.216 122.332C123.486 122.415 123.734 122.321 123.95 122.048C124.332 121.561 124.644 121.023 124.879 120.45C124.806 120.288 124.751 120.118 124.715 119.944C124.622 119.494 124.607 118.875 124.715 118.456C124.089 118.607 123.48 118.821 122.896 119.093C122.494 119.282 122.113 119.516 121.761 119.79ZM125.308 120.427C125.342 120.49 125.39 120.545 125.45 120.585C125.509 120.626 125.577 120.651 125.648 120.659C125.94 120.672 126.291 120.359 126.609 119.797C126.771 119.51 126.904 119.207 127.007 118.894C126.944 118.635 126.908 118.37 126.899 118.104C126.471 118.138 126.001 118.197 125.525 118.285C125.777 118.774 125.632 119.602 125.31 120.427H125.308ZM127.411 118.898C127.472 119.081 127.525 119.116 127.525 119.117C127.741 118.93 127.988 118.527 128.211 118.067C128.028 118.059 127.822 118.059 127.597 118.067C127.56 118.349 127.498 118.627 127.411 118.898ZM125.147 118.4C125.049 118.606 124.979 119.265 125.098 119.852C125.292 119.209 125.332 118.652 125.147 118.4V118.4ZM128.888 116.161C128.846 116.294 128.815 116.432 128.797 116.571C128.836 116.437 128.867 116.299 128.888 116.161Z" fill="#F99746"/>
<path d="M106.697 66.6083H92.0531V51.8701H106.697V66.6083ZM92.743 65.9139H106.006V52.5645H92.743V65.9139Z" fill="#ABDDDA"/>
<path d="M99.7365 63.646C99.5842 63.6459 99.4339 63.612 99.2961 63.5466C99.1584 63.4813 99.0367 63.3861 98.9397 63.268L94.4207 57.7625C94.3341 57.6572 94.269 57.5357 94.2291 57.405C94.1892 57.2743 94.1752 57.1369 94.1881 57.0008C94.2009 56.8647 94.2402 56.7324 94.3038 56.6116C94.3674 56.4908 94.454 56.3838 94.5587 56.2966C94.6634 56.2095 94.7841 56.144 94.914 56.1038C95.0438 56.0636 95.1803 56.0496 95.3155 56.0625C95.4508 56.0754 95.5822 56.1149 95.7022 56.1789C95.8223 56.2429 95.9286 56.3301 96.0152 56.4355L99.5994 60.7988L106.086 49.8512C106.227 49.6138 106.455 49.4425 106.722 49.3748C106.988 49.3072 107.27 49.3488 107.506 49.4904C107.742 49.6321 107.912 49.8622 107.979 50.1302C108.046 50.3982 108.005 50.682 107.864 50.9194L100.626 63.1373C100.541 63.2805 100.423 63.4012 100.282 63.4891C100.141 63.577 99.9817 63.6297 99.8165 63.6427C99.7896 63.6452 99.7635 63.646 99.7365 63.646Z" fill="#F99746"/>
<path d="M106.697 89.6522H92.0531V74.9141H106.697V89.6522ZM92.743 88.9579H106.006V75.6084H92.743V88.9579Z" fill="#ABDDDA"/>
<path d="M99.7389 86.5634C99.5866 86.5633 99.4362 86.5294 99.2985 86.4641C99.1607 86.3987 99.039 86.3036 98.942 86.1855L94.4231 80.68C94.3337 80.575 94.2661 80.4531 94.224 80.3215C94.182 80.1899 94.1664 80.0512 94.1782 79.9134C94.19 79.7757 94.229 79.6417 94.2928 79.5193C94.3566 79.3969 94.444 79.2885 94.5499 79.2004C94.6557 79.1123 94.778 79.0464 94.9095 79.0064C95.041 78.9663 95.179 78.9531 95.3157 78.9674C95.4523 78.9817 95.5847 79.0232 95.7052 79.0895C95.8257 79.1559 95.9319 79.2457 96.0176 79.3538L99.6017 83.7162L106.084 72.7653C106.225 72.528 106.454 72.3567 106.72 72.289C106.986 72.2214 107.268 72.263 107.504 72.4046C107.74 72.5463 107.91 72.7764 107.977 73.0444C108.044 73.3124 108.003 73.5962 107.862 73.8335L100.628 86.054C100.543 86.1972 100.425 86.3178 100.285 86.4057C100.144 86.4937 99.9841 86.5463 99.8189 86.5593C99.7919 86.5618 99.7658 86.5634 99.7389 86.5634Z" fill="#F99746"/>
<path d="M106.697 112.22H92.0531V97.4814H106.697V112.22ZM92.743 111.525H106.006V98.175H92.743V111.525Z" fill="#ABDDDA"/>
<g opacity="0.5">
<path opacity="0.5" d="M135.659 55.309H116.564V56.7469H135.659V55.309Z" fill="#ABDDDA"/>
<path opacity="0.5" d="M151.884 55.309H147.544V56.7469H151.884V55.309Z" fill="#ABDDDA"/>
<path opacity="0.5" d="M135.659 61.7314H116.564V63.1694H135.659V61.7314Z" fill="#ABDDDA"/>
<path opacity="0.5" d="M151.884 61.7314H145.414V63.1694H151.884V61.7314Z" fill="#ABDDDA"/>
<path opacity="0.5" d="M151.885 58.5201H146.566V59.9581H151.885V58.5201Z" fill="#ABDDDA"/>
<path opacity="0.5" d="M135.988 58.5201H130.67V59.9581H135.988V58.5201Z" fill="#ABDDDA"/>
<path opacity="0.5" d="M128.381 58.5201H116.564V59.9581H128.381V58.5201Z" fill="#ABDDDA"/>
</g>
<g opacity="0.5">
<path opacity="0.5" d="M134.93 77.4417H116.564V78.8796H134.93V77.4417Z" fill="#ABDDDA"/>
<path opacity="0.5" d="M135.659 83.8641H116.564V85.3021H135.659V83.8641Z" fill="#ABDDDA"/>
<path opacity="0.5" d="M134.691 80.6528H129.749V82.0908H134.691V80.6528Z" fill="#ABDDDA"/>
<path opacity="0.5" d="M128.381 80.6528H116.564V82.0908H128.381V80.6528Z" fill="#ABDDDA"/>
</g>
<g opacity="0.5">
<path opacity="0.5" d="M135.659 100.201H116.564V101.639H135.659V100.201Z" fill="#ABDDDA"/>
<path opacity="0.5" d="M135.659 106.624H116.564V108.062H135.659V106.624Z" fill="#ABDDDA"/>
<path opacity="0.5" d="M138.053 103.412H129.749V104.85H138.053V103.412Z" fill="#ABDDDA"/>
<path opacity="0.5" d="M128.381 103.412H116.564V104.85H128.381V103.412Z" fill="#ABDDDA"/>
</g>
<path d="M102.071 120.098H92.0531V121.119H102.071V120.098Z" fill="#ABDDDA"/>
<path d="M114.407 120.098H104.39V121.119H114.407V120.098Z" fill="#ABDDDA"/>
<path d="M105.946 122.363H92.0531V123.383H105.946V122.363Z" fill="#ABDDDA"/>
<path d="M158.283 87.0351C158.283 87.0351 159.026 89.3358 158.962 89.8634C158.898 90.3909 158.432 92.1888 158.099 92.649C157.766 93.1091 157.602 90.7738 157.338 90.423C157.074 90.0721 157.284 91.3022 157.098 91.4156C156.912 91.529 156.526 90.5117 156.358 90.151C156.19 89.7902 156.766 88.4656 156.766 87.5412C156.766 86.6168 158.283 87.0351 158.283 87.0351Z" fill="#FFB27D"/>
<path d="M140.818 68.752C140.612 66.1127 143.461 64.3033 145.71 65.6756L145.847 65.7618C149.215 67.9435 156.481 78.1228 156.981 79.1425C157.48 80.1623 158.957 88.275 158.957 88.275C158.957 88.275 157.133 88.9463 156.279 88.2495C156.279 88.2495 153.321 80.5559 152.885 80.1713C152.448 79.7867 141.053 73.3511 140.956 70.9394C140.93 70.3018 140.879 69.5351 140.818 68.752Z" fill="#3764AE"/>
<path d="M111.478 69.5069L112.469 72.3704L126.78 67.3546L125.789 64.4911L111.478 69.5069Z" fill="#F99746"/>
<path d="M108.657 72.107L112.479 72.3724L111.488 69.5088L108.657 72.107Z" fill="#F9DDBF"/>
<path d="M127.794 64.8613L128.107 65.7651C128.199 66.0325 128.183 66.3259 128.06 66.5807C127.938 66.8355 127.72 67.031 127.454 67.1242L126.792 67.356L125.802 64.4923L126.522 64.24C126.646 64.1967 126.777 64.1784 126.908 64.1862C127.039 64.194 127.167 64.2277 127.286 64.2854C127.404 64.343 127.509 64.4236 127.597 64.5224C127.684 64.6212 127.751 64.7364 127.794 64.8613Z" fill="#F9DDBF"/>
<path d="M161.15 128.333C161.15 128.333 162.508 129.58 162.243 130.47C161.977 131.36 160.753 131.949 160.587 133.029C160.421 134.11 159.759 134.703 159.163 134.703H156.321C156.321 134.703 155.883 133.941 156.942 133.711C158.002 133.482 158.401 132.208 158.335 131.028C158.269 129.847 158.435 128.271 158.435 128.271L160.687 127.746L161.15 128.333Z" fill="#233862"/>
<path d="M144.494 131.558C144.494 131.558 144.739 134.397 144.141 134.692L136.513 134.676C136.513 134.676 136.513 133.79 137.738 133.593C138.963 133.396 141.117 132.674 141.481 131.066C141.845 129.458 144.494 131.558 144.494 131.558Z" fill="#233862"/>
<path d="M138.054 91.4682C138.054 91.4682 138.457 96.4428 138.929 102.423C139.573 110.547 140.345 120.525 140.422 122.415C140.554 125.701 141.085 130.948 141.085 130.948C141.085 130.948 142.342 132.195 144.86 131.669C144.86 131.669 147.103 124.175 147.743 116.244L147.773 115.852C148.37 107.779 149.296 90.7788 149.296 90.7788L138.054 91.4682Z" fill="#2B478B"/>
<path d="M138.054 91.4682C138.054 91.4682 138.457 96.4428 138.929 102.423L147.747 116.244L147.776 115.852C148.373 107.779 149.3 90.7788 149.3 90.7788L138.054 91.4682Z" fill="#233862"/>
<path d="M139.893 92.059C139.893 92.059 147.145 110.076 151.913 118.543C156.681 127.009 158.172 129.373 158.172 129.373C158.172 129.373 160.904 128.29 161.152 127.551C161.152 127.551 159.329 111.206 156.135 107.221C154.331 104.969 152.211 98.2119 152.112 95.8495C152.013 93.4871 151.466 88.8099 151.466 88.8099L139.893 92.059Z" fill="#2B478B"/>
<path d="M146.144 65.033C146.144 65.033 141.285 67.5129 138.439 66.6855C138.965 66.0464 139.604 65.5109 140.324 65.1061C140.214 64.5367 140.128 64.0379 140.079 63.6221C140.001 63.1197 139.951 62.6133 139.929 62.1053L141.792 60.5687L143.56 59.0986C143.495 63.134 146.144 65.033 146.144 65.033Z" fill="#FFB27D"/>
<path d="M150.973 90.2356C149.013 91.4312 147.153 92.3293 144.98 92.8338C142.416 93.446 139.265 93.2652 138.211 93.4271C138.102 93.4393 137.992 93.41 137.903 93.3449C137.821 93.3022 137.355 90.1542 136.889 86.1821C136.869 86.0178 136.847 85.8608 136.838 85.6989L136.831 85.6455C136.65 84.0925 136.491 82.4614 136.353 80.8254C136.241 79.5534 136.149 78.2953 136.084 77.1129C136.002 75.6338 135.97 74.2756 136.002 73.158C136.017 72.6478 136.047 72.1884 136.092 71.7899C136.37 69.4694 137.47 67.8112 138.506 66.5762L139.364 65.5901C140.361 65.6534 141.378 65.4644 142.337 64.8267C143.386 64.1316 144.519 63.3838 144.733 63.512C146.34 64.3978 147.65 66.692 148.585 69.7225C149.154 71.624 149.559 73.5712 149.796 75.5426C149.878 76.1934 149.953 76.8574 150.008 77.5254C150.019 77.6487 150.027 77.7719 150.037 77.8919C150.163 79.7087 150.369 81.4113 150.598 82.9314C150.906 84.9857 151.251 86.7006 151.502 87.9101C151.627 88.5256 151.721 89.0022 151.778 89.3432C151.828 89.6456 151.236 90.0704 150.973 90.2356Z" fill="#5C87DD"/>
<path d="M143.621 60.6394C143.621 60.6394 142.426 62.9401 140.078 63.6213C140 63.1189 139.95 62.6125 139.929 62.1045L141.792 60.5679L143.621 60.6394Z" fill="#ED985F"/>
<path d="M139.065 62.0568C139.065 62.0568 143.759 62.7339 144.142 59.8292C144.525 56.9244 145.387 55.0559 142.406 54.5004C139.424 53.9449 138.695 54.9786 138.329 55.9178C137.963 56.857 137.853 61.8054 139.065 62.0568Z" fill="#FFB27D"/>
<path d="M145.73 54.087C145.772 54.0377 145.869 53.9958 146.087 53.9794C145.962 53.9111 145.822 53.8745 145.679 53.8726C145.628 53.5677 145.455 53.0311 144.931 52.9103C145.017 52.9586 145.091 53.0258 145.148 53.1069C145.204 53.188 145.242 53.2809 145.258 53.3787C144.641 52.7657 143.337 52.3368 139.756 52.6934C135.036 53.1634 136.653 56.1783 137.273 56.5291C137.893 56.88 139.413 55.8537 140.555 55.9227C141.697 55.9918 141.943 57.6442 142.337 57.8644C142.732 58.0846 142.569 57.6845 143.088 57.4363C143.606 57.1882 143.673 58.06 143.533 58.6303C143.394 59.2005 144.127 59.9351 144.127 59.9351L144.838 59.1323C145.549 58.3303 146.168 54.9802 145.824 54.276C145.792 54.2136 145.762 54.1478 145.73 54.087Z" fill="#2C3A64"/>
<path d="M144.239 73.421C144.239 73.421 140.281 76.4523 136.084 77.1187C136.002 75.6396 135.97 74.2813 136.002 73.1638L144.239 73.421Z" fill="#1E3D70"/>
<path d="M119.927 69.5089C119.865 69.4415 119.058 66.7257 117.662 66.9238C116.751 67.0528 115.262 67.5811 115.658 68.7915C115.813 69.2665 118.589 70.9017 118.589 70.9017L119.927 69.5089Z" fill="#FFB27D"/>
<path d="M144.729 67.5631C146.986 68.9222 146.803 72.3076 144.388 73.3586C144.339 73.3808 144.289 73.4013 144.239 73.4219C140.522 74.9223 128.069 74.9921 126.954 74.8114C125.839 74.6306 118.412 71.1465 118.412 71.1465C118.412 71.1465 118.923 69.2607 119.982 68.9641C119.982 68.9641 127.927 70.9912 128.491 70.854C129.055 70.7168 140.866 65.0922 142.877 66.4086C143.408 66.7578 144.059 67.1604 144.729 67.5631Z" fill="#5C87DD"/>
<path d="M222.684 134.636H0.677844C0.502893 134.636 0.361069 134.778 0.361069 134.955V135.253C0.361069 135.429 0.502893 135.572 0.677844 135.572H222.684C222.859 135.572 223.001 135.429 223.001 135.253V134.955C223.001 134.778 222.859 134.636 222.684 134.636Z" fill="#2E3552"/>
<path d="M49.2681 106.93C60.5946 106.93 69.7765 97.5259 69.7765 85.9257C69.7765 74.3255 60.5946 64.9216 49.2681 64.9216C37.9416 64.9216 28.7596 74.3255 28.7596 85.9257C28.7596 97.5259 37.9416 106.93 49.2681 106.93Z" fill="#FFCC00"/>
<path d="M183.634 130.798C191.316 130.798 197.542 124.493 197.542 116.716C197.542 108.938 191.316 102.634 183.634 102.634C175.953 102.634 169.726 108.938 169.726 116.716C169.726 124.493 175.953 130.798 183.634 130.798Z" fill="#FFCC00"/>
<path d="M49.5043 101.679C58.3572 101.679 65.5339 94.6258 65.5339 85.9257C65.5339 77.2255 58.3572 70.1726 49.5043 70.1726C40.6514 70.1726 33.4747 77.2255 33.4747 85.9257C33.4747 94.6258 40.6514 101.679 49.5043 101.679Z" fill="#D68900"/>
<path d="M183.868 127.456C189.856 127.456 194.711 122.648 194.711 116.716C194.711 110.784 189.856 105.975 183.868 105.975C177.879 105.975 173.024 110.784 173.024 116.716C173.024 122.648 177.879 127.456 183.868 127.456Z" fill="#D68900"/>
<path d="M49.2665 101.201C57.7288 101.201 64.5889 94.2553 64.5889 85.687C64.5889 77.1186 57.7288 70.1726 49.2665 70.1726C40.8041 70.1726 33.9441 77.1186 33.9441 85.687C33.9441 94.2553 40.8041 101.201 49.2665 101.201Z" fill="#F3A100"/>
<path d="M183.633 126.979C189.231 126.979 193.769 122.384 193.769 116.716C193.769 111.047 189.231 106.452 183.633 106.452C178.035 106.452 173.497 111.047 173.497 116.716C173.497 122.384 178.035 126.979 183.633 126.979Z" fill="#F3A100"/>
<path d="M56.6847 79.5378H54.8578C54.6532 79.0016 54.3783 78.4974 54.0411 78.0397H55.9246L57.5181 75.6067L56.6847 74.9463H43.8501L42.2566 77.3793L43.0867 78.0397H49.3073C49.8199 77.9444 50.3483 78.0429 50.7974 78.3175C51.2466 78.5922 51.587 79.0248 51.7575 79.5378H43.5501L41.9599 81.9708L42.79 82.6312H51.8275C51.5524 83.3254 51.086 83.9189 50.4872 84.3365C49.8884 84.7542 49.1843 84.9772 48.4639 84.9774H42.4033V87.758L47.2905 96.722L48.1239 97.3824H51.4775L46.5037 88.0743H49.3606C50.8046 88.0598 52.1948 87.501 53.2744 86.5012C54.354 85.5013 55.0503 84.128 55.2345 82.6347H55.9246L57.5181 80.2017L56.6847 79.5378Z" fill="#D68900"/>
<path d="M188.501 112.345H187.283C187.146 111.991 186.963 111.659 186.738 111.357H187.994L189.056 109.752L188.501 109.317H179.944L178.882 110.921L179.435 111.357H183.582C183.924 111.294 184.276 111.359 184.576 111.54C184.875 111.721 185.102 112.007 185.216 112.345H179.744L178.684 113.95L179.237 114.385H185.262C185.079 114.843 184.768 115.235 184.369 115.51C183.97 115.786 183.5 115.933 183.02 115.933H178.98V117.767L182.238 123.679L182.793 124.115H185.029L181.713 117.976H183.618C184.58 117.966 185.507 117.597 186.227 116.938C186.947 116.278 187.411 115.373 187.534 114.388H187.994L189.056 112.783L188.501 112.345Z" fill="#D68900"/>
<path d="M53.1289 77.3998H54.9976L56.5752 74.9463H43.8352L42.2543 77.3998H48.4258C49.1068 77.4002 49.7738 77.6048 50.3497 77.9899C50.9256 78.3751 51.3869 78.9251 51.6803 79.5764H43.5376L41.9599 82.0299H51.9482C51.7749 82.8875 51.3295 83.6564 50.6861 84.2081C50.0427 84.7598 49.2402 85.0611 48.4126 85.0617H42.3998V87.8657L47.2484 96.9051H50.5756L45.6476 87.5082H48.4821C49.9099 87.4942 51.2849 86.9345 52.3544 85.9318C53.4239 84.9292 54.1158 83.5511 54.303 82.0509H54.9909L56.5685 79.5974H54.1443C53.9436 78.802 53.5987 78.0556 53.1289 77.3998Z" fill="#FFCC00"/>
<path d="M186.25 110.97H187.516L188.585 109.317H179.954L178.883 110.97H183.064C183.525 110.97 183.977 111.108 184.367 111.368C184.758 111.627 185.07 111.998 185.269 112.437H179.753L178.684 114.09H185.45C185.333 114.668 185.031 115.186 184.595 115.558C184.159 115.93 183.616 116.133 183.055 116.134H178.982V118.023L182.267 124.115H184.52L181.182 117.782H183.102C184.069 117.773 185.001 117.396 185.725 116.72C186.45 116.044 186.919 115.116 187.045 114.105H187.511L188.58 112.451H186.938C186.802 111.915 186.568 111.412 186.25 110.97Z" fill="#FFCC00"/>
<path d="M74.7105 127.6H30.3273V134.473H74.7105V127.6Z" fill="#FFCC00"/>
<g style="mix-blend-mode:screen" opacity="0.5">
<path d="M30.3829 128.078H15.2404V134.951H30.3829V128.078Z" fill="#FFCC00"/>
</g>
<g style="mix-blend-mode:multiply" opacity="0.5">
<path d="M74.7093 127.6H60.0889V134.473H74.7093V127.6Z" fill="#FFCC00"/>
</g>
<path d="M73.1428 120.198H28.7596V127.6H73.1428V120.198Z" fill="#FFCC00"/>
<g style="mix-blend-mode:screen" opacity="0.5">
<path d="M40.247 120.198H28.7596V127.6H40.247V120.198Z" fill="#FFCC00"/>
</g>
<g style="mix-blend-mode:multiply" opacity="0.5">
<path d="M73.1424 120.198H54.3448V127.6H73.1424V120.198Z" fill="#FFCC00"/>
</g>
<path d="M77.8428 113.325H33.4596V120.198H77.8428V113.325Z" fill="#FFCC00"/>
<g style="mix-blend-mode:screen" opacity="0.5">
<path d="M50.6908 113.325H33.4596V120.198H50.6908V113.325Z" fill="#FFCC00"/>
</g>
<path d="M75.2311 106.452H30.8479V113.325H75.2311V106.452Z" fill="#FFCC00"/>
<g style="mix-blend-mode:screen" opacity="0.5">
<path d="M43.9017 106.452H30.8479V113.325H43.9017V106.452Z" fill="#FFCC00"/>
</g>
<g style="mix-blend-mode:multiply" opacity="0.5">
<path d="M75.232 106.452H56.9566V113.325H75.232V106.452Z" fill="#FFCC00"/>
</g>
<g style="mix-blend-mode:multiply" opacity="0.5">
<path d="M73.144 127.6H30.3273V128.658H73.144V127.6Z" fill="#FFCC00"/>
</g>
<g style="mix-blend-mode:multiply" opacity="0.5">
<path d="M75.2321 113.325H33.4596V114.383H75.2321V113.325Z" fill="#FFCC00"/>
</g>
</svg>
