<svg width="223" height="137" viewBox="0 0 223 137" fill="none" xmlns="http://www.w3.org/2000/svg">
<path d="M10.3932 137C10.3932 137 -5.77214 116.77 2.2183 77.6954C7.24426 53.1166 28.3548 40.9418 56.654 42.1043C66.3818 42.5037 82.2084 30.5954 104.95 15.9677C153.594 -15.3229 223.958 -2.03373 207.118 68.3488C198.968 102.408 232.754 102.954 215.962 137H10.3932Z" fill="#EBF3FA"/>
<path d="M190.334 30.1777C190.259 25.2105 182.185 24.6658 182.185 24.6658C182.185 24.6658 174.914 31.4424 173.342 31.2414C171.771 31.0405 178.447 24.2132 178.447 24.2132C175.569 23.1587 167.127 24.89 167.127 24.89C167.127 24.89 165.228 34.5015 163.753 33.9127C162.279 33.324 165.862 25.4895 165.862 25.4895C162.788 25.6207 159.274 28.3194 159.274 28.3194C154.561 32.9752 160.683 38.8899 160.683 38.8899C160.683 38.8899 159.953 42.2064 157.009 45.4648C156.499 45.9686 156.037 46.5198 155.628 47.1114L156.406 47.3131C156.524 47.1172 156.644 46.9303 156.772 46.7535L156.778 46.746C156.859 46.6372 156.982 46.4828 157.13 46.2951C157.487 45.8799 157.735 45.5752 157.9 45.3493C158.984 44.0473 160.496 42.3766 161.283 42.1474C161.24 42.016 161.215 41.8795 161.207 41.7414C161.231 41.8709 161.256 42.0055 161.283 42.1474C161.888 45.3967 168.43 47.6071 172.337 47.7939C176.244 47.9808 174.892 46.4969 173.326 44.2499C171.76 42.003 167.456 41.3752 166.386 40.3771C165.316 39.379 167.297 39.1689 169.724 40.0043C172.15 40.8396 172.758 43.6761 176.659 45.0994C180.559 46.5226 185.526 39.6555 185.526 39.6555C182.547 39.8116 177.984 36.9809 178.037 35.9637C178.089 34.9465 185.394 36.9411 186.609 36.946C187.824 36.951 190.407 35.1458 190.334 30.1777Z" fill="#BCCFEC"/>
<path d="M197.318 78.7923C201.118 72.2565 191.02 64.9949 191.02 64.9949C191.02 64.9949 176.225 67.9286 174.334 66.3916C172.443 64.8546 186.499 61.3712 186.499 61.3712C183.573 57.6611 171.211 53.0676 171.211 53.0676C171.211 53.0676 161.196 64.0549 159.735 62.092C158.274 60.129 169.091 52.8226 169.091 52.8226C164.981 50.4976 158.283 51.1669 158.283 51.1669C148.486 53.4088 151.827 66.0902 151.827 66.0902C151.827 66.0902 148.276 69.8218 141.881 71.6802C141.881 71.6802 140.61 71.9293 138.789 72.7057L139.646 73.6C139.952 73.4397 140.257 73.2944 140.561 73.1665C140.562 73.1661 140.563 73.1659 140.564 73.1659C140.565 73.1659 140.566 73.1661 140.567 73.1665L140.58 73.1607C140.775 73.0876 141.053 72.9839 141.396 72.8601C142.184 72.611 142.749 72.4117 143.142 72.2506C145.577 71.4336 148.857 70.482 150.064 70.8216C150.111 70.6156 150.185 70.4168 150.284 70.2304L150.064 70.8216C148.304 75.5488 155.099 83.7379 160.045 87.1515C164.991 90.5652 164.393 87.5335 164.114 83.3319C163.834 79.1302 158.718 74.8214 158.109 72.6542C157.5 70.4869 160.243 71.8189 162.752 74.8754C165.261 77.932 163.826 82.1245 167.796 87.1449C171.765 92.1653 183.613 87.2479 183.613 87.2479C179.607 85.0349 175.881 77.6422 176.746 76.3585C177.612 75.0747 185.571 83.6026 187.151 84.5957C188.731 85.5888 193.518 85.3281 197.318 78.7923Z" fill="#CDE0FB"/>
<path d="M60.6924 54.4825C62.9458 49.776 70.8897 52.9264 70.8897 52.9264C70.8897 52.9264 74.8502 62.6973 76.4414 63.223C78.0327 63.7486 74.6534 54.1936 74.6534 54.1936C77.8628 54.495 85.1569 59.9837 85.1569 59.9837C85.1569 59.9837 82.7459 70.0187 84.4114 70.1274C86.077 70.2362 86.0998 61.1321 86.0998 61.1321C88.9753 62.655 91.1421 66.8267 91.1421 66.8267C93.5914 73.4107 85.1544 76.273 85.1544 76.273C85.1544 76.273 84.3927 79.7688 85.7708 84.2154C85.7708 84.2154 86.1129 85.0532 86.3644 86.4142L85.5332 86.2481C85.5079 86.0082 85.4744 85.7748 85.4312 85.5481C85.4316 85.5448 85.4316 85.5415 85.4312 85.5382C85.3985 85.3962 85.3495 85.1944 85.2924 84.9486C85.1291 84.3939 85.0319 83.9871 84.974 83.6956C84.5111 81.9601 83.8024 79.6783 83.1525 79.1029C83.251 78.9967 83.3353 78.8777 83.4032 78.7491L83.1525 79.1029C81.1473 81.9261 73.9333 81.0633 70.1239 79.4657C66.3144 77.8681 68.2567 77.0668 70.7378 75.6361C73.219 74.2054 77.6008 75.5597 79.0589 75.0922C80.5171 74.6247 78.7201 73.527 76.0381 73.2197C73.3561 72.9125 71.5298 75.3455 67.1822 74.9294C62.8347 74.5134 61.1153 65.7124 61.1153 65.7124C63.8912 67.2154 69.4854 66.5876 69.883 65.5928C70.2806 64.598 62.433 63.1848 61.2713 62.6351C60.1095 62.0854 58.435 59.189 60.6924 54.4825Z" fill="#CDE0FB"/>
<path d="M157.663 12.2618H87.0671C81.5442 12.2618 77.0671 16.739 77.0671 22.2618V126.054C77.0671 131.577 81.5442 136.054 87.0671 136.054H157.663C163.186 136.054 167.663 131.577 167.663 126.054V22.2618C167.663 16.739 163.186 12.2618 157.663 12.2618Z" fill="#6888C8"/>
<path d="M163.346 16.2742H82.3803V130.501H163.346V16.2742Z" fill="white"/>
<path d="M91.0685 32.7424L89.8041 30.8258H88.902V32.7424H88V27.2273H89.5805C90.2075 27.2273 90.7087 27.3838 91.0839 27.697C91.4642 28.0101 91.6544 28.4444 91.6544 29C91.6544 29.3384 91.5799 29.654 91.4308 29.947C91.2869 30.2348 91.0582 30.4571 90.7446 30.6136L92.1093 32.7424H91.0685ZM88.902 29.9773H89.7038C90.0636 29.9773 90.3232 29.8813 90.4825 29.6894C90.647 29.4924 90.7292 29.2727 90.7292 29.0303C90.7292 28.8889 90.6984 28.7475 90.6367 28.6061C90.575 28.4596 90.4697 28.3359 90.3206 28.2348C90.1716 28.1288 89.9763 28.0758 89.7347 28.0758H88.902V29.9773Z" fill="#3C64B1"/>
<path d="M94.4524 27.2273V32.7424H93.5504V27.2273H94.4524Z" fill="#3C64B1"/>
<path d="M99.3279 28.3485C98.8447 28.101 98.4156 27.9773 98.0404 27.9773C97.7628 27.9773 97.5418 28.0379 97.3773 28.1591C97.218 28.2803 97.1383 28.447 97.1383 28.6591C97.1383 28.8662 97.2386 29.0404 97.439 29.1818C97.6446 29.3182 97.9299 29.4545 98.2948 29.5909C98.5723 29.6869 98.8088 29.798 99.0041 29.9242C99.2045 30.0455 99.369 30.2121 99.4975 30.4242C99.626 30.6364 99.6902 30.904 99.6902 31.2273C99.6902 31.5202 99.6157 31.7854 99.4667 32.0227C99.3176 32.2601 99.1017 32.4495 98.819 32.5909C98.5364 32.7323 98.2023 32.803 97.8168 32.803C97.4776 32.803 97.1435 32.7525 96.8145 32.6515C96.4856 32.5455 96.1926 32.4015 95.9356 32.2197L96.3365 31.5303C96.5267 31.6717 96.7503 31.7904 97.0073 31.8864C97.2694 31.9773 97.511 32.0227 97.732 32.0227C98.0044 32.0227 98.2434 31.9596 98.449 31.8333C98.6546 31.702 98.7574 31.5025 98.7574 31.2348C98.7574 31.0227 98.67 30.846 98.4952 30.7045C98.3256 30.5631 98.0866 30.4343 97.7782 30.3182C97.4596 30.202 97.1949 30.0884 96.9841 29.9773C96.7734 29.8611 96.5909 29.702 96.4367 29.5C96.2877 29.2929 96.2132 29.0354 96.2132 28.7273C96.2132 28.2778 96.3674 27.9167 96.6757 27.6439C96.9893 27.3662 97.4005 27.2172 97.9093 27.197C98.2794 27.197 98.6032 27.2399 98.8807 27.3258C99.1634 27.4066 99.4255 27.5227 99.6671 27.6742L99.3279 28.3485Z" fill="#3C64B1"/>
<path d="M102.142 29.6212L102.266 29.447L104.378 27.2273H105.534L103.214 29.6364L105.619 32.7424H104.478L102.558 30.197L102.165 30.5758V32.7424H101.256V27.2273H102.165V29.3409L102.142 29.6212Z" fill="#3C64B1"/>
<path d="M112.471 29.8636C112.785 29.9899 113.029 30.1641 113.204 30.3864C113.384 30.6086 113.474 30.8662 113.474 31.1591C113.474 31.6944 113.289 32.0934 112.918 32.3561C112.554 32.6136 112.101 32.7424 111.562 32.7424H109.811V27.2273H111.346C111.932 27.2273 112.387 27.346 112.71 27.5833C113.034 27.8157 113.196 28.1591 113.196 28.6136C113.196 28.9015 113.132 29.1515 113.003 29.3636C112.88 29.5707 112.703 29.7374 112.471 29.8636ZM110.714 29.5758H111.492C111.749 29.5758 111.942 29.5025 112.07 29.3561C112.204 29.2096 112.271 29.0253 112.271 28.803C112.271 28.5606 112.191 28.3788 112.032 28.2576C111.878 28.1364 111.662 28.0758 111.384 28.0758H110.714V29.5758ZM111.523 31.9242C111.826 31.9242 112.073 31.8611 112.263 31.7348C112.453 31.6035 112.548 31.4141 112.548 31.1667C112.548 30.904 112.443 30.7146 112.232 30.5985C112.027 30.4823 111.77 30.4242 111.461 30.4242H110.714V31.9242H111.523Z" fill="#3C64B1"/>
<path d="M118.777 27.2273V28.0758H115.955V29.5455H118.469V30.3939H115.955V31.8939H118.885V32.7424H115.053V27.2273H118.777Z" fill="#3C64B1"/>
<path d="M125.077 32.7424H124.175V30.3939H121.415V32.7424H120.513V27.2273H121.415V29.553H124.175V27.2273H125.077V32.7424Z" fill="#3C64B1"/>
<path d="M129.888 31.447H127.845L127.305 32.7424H126.419L128.901 27H128.955L131.438 32.7424H130.405L129.888 31.447ZM129.587 30.6894L128.886 28.947L128.161 30.6894H129.587Z" fill="#3C64B1"/>
<path d="M136.539 27.2273L134.026 33L131.512 27.2273H132.584L134.064 30.8485L135.483 27.2273H136.539Z" fill="#3C64B1"/>
<path d="M138.879 27.2273V32.7424H137.977V27.2273H138.879Z" fill="#3C64B1"/>
<path d="M140.463 29.9924C140.463 29.4874 140.591 29.0202 140.848 28.5909C141.105 28.1566 141.452 27.8106 141.889 27.553C142.331 27.2955 142.812 27.1667 143.331 27.1667C143.845 27.1667 144.32 27.2955 144.757 27.553C145.199 27.8106 145.551 28.1566 145.813 28.5909C146.076 29.0253 146.207 29.4924 146.207 29.9924C146.207 30.5025 146.076 30.9722 145.813 31.4015C145.556 31.8308 145.207 32.1717 144.765 32.4242C144.323 32.6768 143.845 32.803 143.331 32.803C142.812 32.803 142.331 32.6793 141.889 32.4318C141.452 32.1793 141.105 31.8384 140.848 31.4091C140.591 30.9798 140.463 30.5076 140.463 29.9924ZM141.388 29.9924C141.388 30.351 141.475 30.6793 141.65 30.9773C141.825 31.2753 142.061 31.5126 142.36 31.6894C142.663 31.8662 142.994 31.9545 143.354 31.9545C143.709 31.9545 144.033 31.8687 144.325 31.697C144.618 31.5202 144.85 31.2828 145.019 30.9848C145.194 30.6818 145.281 30.351 145.281 29.9924C145.281 29.6338 145.194 29.303 145.019 29C144.845 28.697 144.608 28.4571 144.31 28.2803C144.012 28.1035 143.686 28.0152 143.331 28.0152C142.971 28.0152 142.642 28.1035 142.344 28.2803C142.051 28.4571 141.817 28.697 141.643 29C141.473 29.303 141.388 29.6338 141.388 29.9924Z" fill="#3C64B1"/>
<path d="M148.6 30.7576C148.6 30.9697 148.657 31.1667 148.77 31.3485C148.883 31.5303 149.037 31.6768 149.232 31.7879C149.428 31.8939 149.641 31.947 149.872 31.947C150.114 31.947 150.332 31.8939 150.528 31.7879C150.728 31.6818 150.885 31.5379 150.998 31.3561C151.111 31.1742 151.168 30.9747 151.168 30.7576V27.2273H152.054V30.7803C152.054 31.1742 151.957 31.5253 151.761 31.8333C151.571 32.1364 151.309 32.3737 150.975 32.5455C150.641 32.7172 150.273 32.803 149.872 32.803C149.471 32.803 149.104 32.7172 148.77 32.5455C148.441 32.3737 148.181 32.1364 147.991 31.8333C147.801 31.5253 147.706 31.1742 147.706 30.7803V27.2273H148.6V30.7576Z" fill="#3C64B1"/>
<path d="M156.959 32.7424L155.695 30.8258H154.793V32.7424H153.891V27.2273H155.471C156.098 27.2273 156.599 27.3838 156.975 27.697C157.355 28.0101 157.545 28.4444 157.545 29C157.545 29.3384 157.471 29.654 157.322 29.947C157.178 30.2348 156.949 30.4571 156.635 30.6136L158 32.7424H156.959ZM154.793 29.9773H155.595C155.954 29.9773 156.214 29.8813 156.373 29.6894C156.538 29.4924 156.62 29.2727 156.62 29.0303C156.62 28.8889 156.589 28.7475 156.527 28.6061C156.466 28.4596 156.36 28.3359 156.211 28.2348C156.062 28.1288 155.867 28.0758 155.625 28.0758H154.793V29.9773Z" fill="#3C64B1"/>
<path d="M106.351 12.2618V16.4552C106.35 17.0056 106.457 17.5508 106.664 18.0594C106.871 18.568 107.174 19.0302 107.556 19.4196C107.939 19.809 108.393 20.118 108.893 20.3288C109.393 20.5397 109.929 20.6483 110.47 20.6485H132.596C133.137 20.6483 133.673 20.5397 134.173 20.3288C134.673 20.118 135.127 19.809 135.509 19.4196C135.892 19.0302 136.195 18.568 136.402 18.0594C136.609 17.5508 136.716 17.0056 136.715 16.4552V12.2618H106.351Z" fill="#3C64B1"/>
<path d="M126.015 125.309C124.731 125.732 123.477 125.953 122.492 125.869C120.991 125.742 120.145 124.941 120.111 123.615C120.084 122.563 120.514 121.642 121.356 120.895C121.347 120.824 121.341 120.751 121.335 120.679C121.28 119.938 121.436 119.445 121.799 119.214C122.385 118.843 123.256 119.351 123.293 119.373L123.098 119.712C122.903 119.596 122.323 119.342 122.002 119.546C121.725 119.723 121.693 120.21 121.716 120.602C122.401 120.098 123.296 119.689 124.387 119.387C125.211 119.165 126.053 119.019 126.902 118.95C126.905 118.868 126.913 118.787 126.924 118.707C126.951 118.525 127.013 118.312 127.189 118.27C127.255 118.255 127.385 118.256 127.5 118.436C127.58 118.581 127.621 118.746 127.618 118.912C127.898 118.906 128.157 118.912 128.387 118.928L128.394 118.913C128.345 118.457 128.365 117.996 128.453 117.546C128.551 117.092 128.711 116.863 128.935 116.84C129 116.834 129.065 116.849 129.12 116.884C129.176 116.919 129.218 116.971 129.241 117.033C129.367 117.341 129.131 118.172 128.79 118.971C129.11 119.026 129.327 119.116 129.396 119.242C129.427 119.303 129.436 119.374 129.421 119.441C129.406 119.508 129.368 119.568 129.314 119.61C129.056 119.852 128.85 119.791 128.75 119.733C128.66 119.674 128.588 119.591 128.543 119.493C128.285 120.012 128.005 120.456 127.783 120.644C127.725 120.702 127.651 120.741 127.57 120.752C127.489 120.764 127.406 120.75 127.334 120.71C127.298 120.688 127.265 120.66 127.237 120.627C127.152 120.839 127.054 121.046 126.943 121.246C126.54 121.965 126.085 122.337 125.629 122.314C125.444 122.305 125.269 122.226 125.139 122.093C124.903 122.62 124.606 123.117 124.254 123.572C123.933 123.974 123.524 124.122 123.102 123.987C122.353 123.75 121.676 122.649 121.423 121.345C120.784 121.98 120.473 122.734 120.494 123.597C120.523 124.729 121.205 125.358 122.521 125.47C125.844 125.751 131.67 122.61 132.112 120.298C131.755 122.186 128.991 124.328 126.015 125.309ZM121.763 121.052C121.965 122.428 122.642 123.439 123.217 123.621C123.487 123.704 123.735 123.61 123.952 123.334C124.333 122.842 124.646 122.298 124.88 121.719C124.807 121.555 124.752 121.384 124.717 121.207C124.624 120.753 124.608 120.128 124.717 119.704C124.091 119.857 123.482 120.073 122.898 120.348C122.495 120.539 122.114 120.775 121.763 121.052ZM125.31 121.696C125.343 121.76 125.392 121.815 125.451 121.856C125.51 121.896 125.578 121.922 125.649 121.931C125.941 121.943 126.293 121.627 126.611 121.06C126.772 120.769 126.905 120.463 127.009 120.146C126.945 119.885 126.909 119.617 126.901 119.348C126.473 119.383 126.003 119.442 125.527 119.531C125.778 120.025 125.634 120.862 125.311 121.696H125.31ZM127.413 120.151C127.473 120.335 127.527 120.371 127.527 120.372C127.743 120.184 127.989 119.776 128.213 119.311C128.03 119.303 127.823 119.302 127.599 119.311C127.562 119.596 127.499 119.877 127.413 120.151ZM125.149 119.647C125.051 119.856 124.981 120.521 125.1 121.114C125.293 120.465 125.333 119.902 125.149 119.648V119.647ZM128.89 117.384C128.847 117.52 128.817 117.659 128.798 117.8C128.838 117.663 128.868 117.525 128.89 117.384Z" fill="#F99746"/>
<path d="M106.695 67.31H92.0519V52.4166H106.695V67.31ZM92.7418 66.6084H106.005V53.1183H92.7418V66.6084Z" fill="#ABDDDA"/>
<path d="M99.7367 64.3166C99.5844 64.3165 99.434 64.2822 99.2963 64.2162C99.1585 64.1501 99.0368 64.054 98.9398 63.9346L94.4209 58.3711C94.3343 58.2647 94.2692 58.1419 94.2293 58.0098C94.1893 57.8777 94.1754 57.739 94.1882 57.6014C94.201 57.4638 94.2403 57.3302 94.3039 57.2081C94.3675 57.086 94.4542 56.9778 94.5588 56.8898C94.6635 56.8017 94.7843 56.7355 94.9141 56.6949C95.044 56.6543 95.1804 56.6401 95.3157 56.6531C95.4509 56.6662 95.5823 56.7062 95.7024 56.7709C95.8224 56.8355 95.9288 56.9236 96.0154 57.0301L99.5995 61.4393L106.086 50.3764C106.227 50.1366 106.455 49.9634 106.722 49.8951C106.988 49.8267 107.27 49.8687 107.506 50.0119C107.742 50.155 107.912 50.3876 107.979 50.6584C108.046 50.9292 108.005 51.2161 107.864 51.4559L100.626 63.8026C100.541 63.9473 100.423 64.0692 100.282 64.158C100.142 64.2469 99.9819 64.3001 99.8167 64.3132C99.7897 64.3157 99.7636 64.3166 99.7367 64.3166Z" fill="#F99746"/>
<path d="M106.695 90.5967H92.0519V75.7032H106.695V90.5967ZM92.7418 89.895H106.005V76.4049H92.7418V89.895Z" fill="#ABDDDA"/>
<path d="M99.7368 87.4754C99.5845 87.4753 99.4342 87.441 99.2964 87.375C99.1587 87.309 99.037 87.2128 98.94 87.0934L94.421 81.53C94.3317 81.4239 94.264 81.3007 94.222 81.1677C94.18 81.0347 94.1644 80.8945 94.1762 80.7553C94.188 80.6162 94.2269 80.4808 94.2907 80.357C94.3545 80.2333 94.4419 80.1238 94.5478 80.0348C94.6537 79.9458 94.7759 79.8791 94.9074 79.8387C95.0389 79.7983 95.177 79.7849 95.3136 79.7993C95.4503 79.8137 95.5827 79.8557 95.7032 79.9227C95.8237 79.9898 95.9299 80.0806 96.0155 80.1898L99.5997 84.5982L106.082 73.5319C106.223 73.2921 106.452 73.119 106.718 73.0506C106.984 72.9822 107.266 73.0242 107.502 73.1674C107.738 73.3105 107.908 73.5431 107.975 73.8139C108.042 74.0847 108.001 74.3716 107.86 74.6114L100.626 86.9606C100.541 87.1053 100.423 87.2272 100.282 87.316C100.142 87.4049 99.982 87.4581 99.8168 87.4712C99.7899 87.4737 99.7638 87.4754 99.7368 87.4754Z" fill="#F99746"/>
<path d="M106.695 113.402H92.0519V98.5084H106.695V113.402ZM92.7418 112.7H106.005V99.2093H92.7418V112.7Z" fill="#ABDDDA"/>
<path d="M99.7367 110.06C99.5844 110.061 99.4339 110.026 99.2961 109.96C99.1584 109.894 99.0367 109.798 98.9398 109.679L94.4209 104.115C94.3343 104.009 94.2692 103.886 94.2293 103.754C94.1893 103.622 94.1754 103.483 94.1882 103.345C94.201 103.208 94.2403 103.074 94.3039 102.952C94.3675 102.83 94.4542 102.722 94.5588 102.634C94.6635 102.546 94.7843 102.479 94.9141 102.439C95.044 102.398 95.1804 102.384 95.3157 102.397C95.4509 102.41 95.5823 102.45 95.7024 102.515C95.8224 102.579 95.9288 102.668 96.0154 102.774L99.5995 107.183L106.082 96.117C106.223 95.8772 106.451 95.704 106.718 95.6357C106.984 95.5673 107.266 95.6093 107.502 95.7525C107.738 95.8956 107.908 96.1282 107.975 96.399C108.042 96.6698 108.001 96.9567 107.86 97.1965L100.626 109.545C100.541 109.69 100.423 109.812 100.282 109.901C100.142 109.989 99.9819 110.043 99.8167 110.056C99.7897 110.06 99.7636 110.06 99.7367 110.06Z" fill="#F99746"/>
<g opacity="0.5">
<path opacity="0.5" d="M135.658 55.8916H116.563V57.3447H135.658V55.8916Z" fill="#ABDDDA"/>
<path opacity="0.5" d="M151.884 55.8916H147.543V57.3447H151.884V55.8916Z" fill="#ABDDDA"/>
<path opacity="0.5" d="M135.658 62.3817H116.563V63.8349H135.658V62.3817Z" fill="#ABDDDA"/>
<path opacity="0.5" d="M151.882 62.3817H145.412V63.8349H151.882V62.3817Z" fill="#ABDDDA"/>
<path opacity="0.5" d="M151.883 59.1367H146.564V60.5899H151.883V59.1367Z" fill="#ABDDDA"/>
<path opacity="0.5" d="M135.988 59.1367H130.669V60.5899H135.988V59.1367Z" fill="#ABDDDA"/>
<path opacity="0.5" d="M128.38 59.1367H116.563V60.5899H128.38V59.1367Z" fill="#ABDDDA"/>
</g>
<g opacity="0.5">
<path opacity="0.5" d="M134.929 78.2576H116.563V79.7107H134.929V78.2576Z" fill="#ABDDDA"/>
<path opacity="0.5" d="M135.658 84.7477H116.563V86.2008H135.658V84.7477Z" fill="#ABDDDA"/>
<path opacity="0.5" d="M134.692 81.5027H129.75V82.9558H134.692V81.5027Z" fill="#ABDDDA"/>
<path opacity="0.5" d="M128.38 81.5027H116.563V82.9558H128.38V81.5027Z" fill="#ABDDDA"/>
</g>
<g opacity="0.5">
<path opacity="0.5" d="M135.658 101.257H116.563V102.71H135.658V101.257Z" fill="#ABDDDA"/>
<path opacity="0.5" d="M135.658 107.747H116.563V109.2H135.658V107.747Z" fill="#ABDDDA"/>
<path opacity="0.5" d="M138.054 104.502H129.75V105.955H138.054V104.502Z" fill="#ABDDDA"/>
<path opacity="0.5" d="M128.38 104.502H116.563V105.955H128.38V104.502Z" fill="#ABDDDA"/>
</g>
<path d="M102.07 121.363H92.0519V122.395H102.07V121.363Z" fill="#ABDDDA"/>
<path d="M114.406 121.363H104.389V122.395H114.406V121.363Z" fill="#ABDDDA"/>
<path d="M105.944 123.652H92.0519V124.683H105.944V123.652Z" fill="#ABDDDA"/>
<path d="M158.283 87.9521C158.283 87.9521 159.025 90.2771 158.962 90.8102C158.898 91.3433 158.432 93.1601 158.099 93.6251C157.766 94.0901 157.602 91.7302 157.338 91.3757C157.074 91.0211 157.284 92.2642 157.098 92.3787C156.912 92.4933 156.526 91.4653 156.358 91.1008C156.19 90.7363 156.766 89.3977 156.766 88.4636C156.766 87.5294 158.283 87.9521 158.283 87.9521Z" fill="#FFB27D"/>
<path d="M140.818 69.4764C140.612 66.8093 143.461 64.9808 145.71 66.3675L145.847 66.4547C149.215 68.6593 156.481 78.9459 156.981 79.9764C157.48 81.0069 158.957 89.205 158.957 89.205C158.957 89.205 157.133 89.8835 156.279 89.1793C156.279 89.1793 153.321 81.4046 152.885 81.016C152.448 80.6274 141.053 74.124 140.956 71.6868C140.93 71.0425 140.879 70.2678 140.818 69.4764Z" fill="#3764AE"/>
<path d="M111.479 70.2392L112.469 73.1328L126.78 68.0642L125.79 65.1706L111.479 70.2392Z" fill="#F99746"/>
<path d="M108.657 72.8668L112.48 73.135L111.489 70.2412L108.657 72.8668Z" fill="#F9DDBF"/>
<path d="M127.792 65.5447L128.106 66.4581C128.198 66.7283 128.181 67.0247 128.059 67.2822C127.936 67.5397 127.718 67.7373 127.453 67.8315L126.79 68.0656L125.8 65.1718L126.52 64.9169C126.644 64.8731 126.776 64.8546 126.907 64.8625C127.038 64.8703 127.166 64.9044 127.284 64.9627C127.402 65.021 127.508 65.1024 127.595 65.2022C127.682 65.3021 127.749 65.4185 127.792 65.5447Z" fill="#F9DDBF"/>
<path d="M161.151 129.685C161.151 129.685 162.509 130.945 162.244 131.844C161.978 132.743 160.754 133.339 160.588 134.431C160.422 135.523 159.76 136.122 159.164 136.122H156.322C156.322 136.122 155.884 135.352 156.943 135.12C158.003 134.888 158.402 133.601 158.336 132.408C158.27 131.215 158.436 129.622 158.436 129.622L160.688 129.092L161.151 129.685Z" fill="#233862"/>
<path d="M144.495 132.945C144.495 132.945 144.74 135.813 144.142 136.111L136.514 136.095C136.514 136.095 136.514 135.2 137.739 135.001C138.963 134.801 141.117 134.072 141.481 132.447C141.845 130.822 144.495 132.945 144.495 132.945Z" fill="#233862"/>
<path d="M138.055 92.4318C138.055 92.4318 138.457 97.4588 138.93 103.502C139.573 111.711 140.345 121.794 140.422 123.704C140.554 127.026 141.085 132.327 141.085 132.327C141.085 132.327 142.342 133.588 144.86 133.057C144.86 133.057 147.103 125.483 147.744 117.469L147.773 117.073C148.37 108.915 149.297 91.7351 149.297 91.7351L138.055 92.4318Z" fill="#2B478B"/>
<path d="M138.055 92.4318C138.055 92.4318 138.457 97.4588 138.93 103.502L147.747 117.469L147.777 117.073C148.373 108.915 149.3 91.7351 149.3 91.7351L138.055 92.4318Z" fill="#233862"/>
<path d="M139.892 93.0289C139.892 93.0289 147.144 111.235 151.912 119.792C156.68 128.348 158.171 130.736 158.171 130.736C158.171 130.736 160.903 129.641 161.152 128.895C161.152 128.895 159.328 112.377 156.135 108.351C154.33 106.075 152.21 99.2466 152.111 96.8593C152.012 94.472 151.465 89.7456 151.465 89.7456L139.892 93.0289Z" fill="#2B478B"/>
<path d="M146.145 65.7182C146.145 65.7182 141.287 68.2242 138.441 67.3881C138.966 66.7422 139.605 66.2011 140.325 65.7921C140.216 65.2167 140.13 64.7126 140.08 64.2925C140.002 63.7847 139.952 63.273 139.931 62.7596L141.794 61.2068L143.561 59.7213C143.496 63.7992 146.145 65.7182 146.145 65.7182Z" fill="#FFB27D"/>
<path d="M150.971 91.1864C149.011 92.3945 147.152 93.3021 144.978 93.812C142.414 94.4306 139.263 94.2479 138.209 94.4115C138.1 94.4239 137.99 94.3942 137.901 94.3284C137.82 94.2853 137.354 91.1041 136.887 87.0902C136.867 86.9241 136.845 86.7655 136.836 86.6019L136.829 86.5479C136.648 84.9785 136.49 83.3303 136.352 81.677C136.239 80.3916 136.147 79.1203 136.082 77.9254C136.001 76.4308 135.968 75.0582 136.001 73.9289C136.015 73.4132 136.046 72.949 136.091 72.5463C136.368 70.2014 137.468 68.5257 138.504 67.2777L139.363 66.2812C140.359 66.3452 141.376 66.1542 142.336 65.5098C143.385 64.8073 144.517 64.0517 144.731 64.1812C146.338 65.0764 147.648 67.3947 148.584 70.4571C149.152 72.3787 149.557 74.3464 149.794 76.3386C149.876 76.9962 149.951 77.6672 150.006 78.3423C150.017 78.4668 150.025 78.5914 150.035 78.7126C150.162 80.5485 150.368 82.2691 150.596 83.8052C150.904 85.8812 151.249 87.6141 151.501 88.8364C151.625 89.4584 151.72 89.94 151.776 90.2846C151.827 90.5901 151.235 91.0194 150.971 91.1864Z" fill="#5C87DD"/>
<path d="M143.62 61.2782C143.62 61.2782 142.424 63.6032 140.076 64.2916C139.999 63.7838 139.949 63.2721 139.927 62.7587L141.79 61.2059L143.62 61.2782Z" fill="#ED985F"/>
<path d="M139.064 62.7106C139.064 62.7106 143.759 63.3948 144.142 60.4595C144.525 57.5241 145.387 55.6359 142.405 55.0745C139.424 54.5132 138.695 55.5578 138.329 56.5069C137.963 57.456 137.853 62.4565 139.064 62.7106Z" fill="#FFB27D"/>
<path d="M145.729 54.6569C145.771 54.6071 145.868 54.5647 146.086 54.5481C145.961 54.4792 145.821 54.4421 145.678 54.4402C145.627 54.1321 145.454 53.5899 144.93 53.4678C145.016 53.5166 145.09 53.5845 145.147 53.6665C145.203 53.7484 145.241 53.8423 145.257 53.9411C144.639 53.3217 143.336 52.8882 139.755 53.2486C135.035 53.7236 136.652 56.7702 137.272 57.1248C137.892 57.4793 139.412 56.4422 140.554 56.5119C141.696 56.5817 141.942 58.2516 142.336 58.4741C142.731 58.6966 142.568 58.2923 143.087 58.0415C143.605 57.7907 143.672 58.6717 143.532 59.248C143.393 59.8243 144.126 60.5666 144.126 60.5666L144.837 59.7554C145.548 58.9449 146.167 55.5595 145.823 54.8479C145.791 54.7848 145.76 54.7184 145.729 54.6569Z" fill="#2C3A64"/>
<path d="M144.238 74.1946C144.238 74.1946 140.279 77.2578 136.082 77.9312C136.001 76.4366 135.968 75.064 136.001 73.9347L144.238 74.1946Z" fill="#1E3D70"/>
<path d="M119.927 70.2412C119.864 70.1731 119.057 67.4287 117.661 67.6288C116.75 67.7592 115.262 68.2931 115.657 69.5163C115.813 69.9962 118.588 71.6486 118.588 71.6486L119.927 70.2412Z" fill="#FFB27D"/>
<path d="M144.728 68.2749C146.986 69.6483 146.803 73.0694 144.388 74.1314C144.339 74.1538 144.289 74.1746 144.239 74.1954C140.522 75.7116 128.069 75.7822 126.953 75.5995C125.838 75.4168 118.411 71.8961 118.411 71.8961C118.411 71.8961 118.923 69.9904 119.981 69.6906C119.981 69.6906 127.927 71.7391 128.491 71.6005C129.055 71.4618 140.866 65.7779 142.876 67.1082C143.408 67.4611 144.059 67.868 144.728 68.2749Z" fill="#5C87DD"/>
<path d="M222.683 136.054H0.6767C0.501749 136.054 0.359924 136.198 0.359924 136.376V136.678C0.359924 136.856 0.501749 137 0.6767 137H222.683C222.858 137 223 136.856 223 136.678V136.376C223 136.198 222.858 136.054 222.683 136.054Z" fill="#2E3552"/>
<path d="M49.2678 108.056C60.5943 108.056 69.7762 98.5534 69.7762 86.8309C69.7762 75.1085 60.5943 65.6056 49.2678 65.6056C37.9413 65.6056 28.7593 75.1085 28.7593 86.8309C28.7593 98.5534 37.9413 108.056 49.2678 108.056Z" fill="#FFCC00"/>
<path d="M183.633 132.176C191.314 132.176 197.541 125.805 197.541 117.945C197.541 110.086 191.314 103.715 183.633 103.715C175.952 103.715 169.725 110.086 169.725 117.945C169.725 125.805 175.952 132.176 183.633 132.176Z" fill="#FFCC00"/>
<path d="M49.5035 102.75C58.3564 102.75 65.5331 95.6228 65.5331 86.831C65.5331 78.0392 58.3564 70.912 49.5035 70.912C40.6506 70.912 33.4739 78.0392 33.4739 86.831C33.4739 95.6228 40.6506 102.75 49.5035 102.75Z" fill="#D68900"/>
<path d="M183.87 128.799C189.858 128.799 194.713 123.94 194.713 117.945C194.713 111.951 189.858 107.092 183.87 107.092C177.881 107.092 173.026 111.951 173.026 117.945C173.026 123.94 177.881 128.799 183.87 128.799Z" fill="#D68900"/>
<path d="M49.2682 102.268C57.7305 102.268 64.5906 95.2484 64.5906 86.5898C64.5906 77.9312 57.7305 70.912 49.2682 70.912C40.8059 70.912 33.9458 77.9312 33.9458 86.5898C33.9458 95.2484 40.8059 102.268 49.2682 102.268Z" fill="#F3A100"/>
<path d="M183.632 128.317C189.231 128.317 193.769 123.673 193.769 117.945C193.769 112.217 189.231 107.574 183.632 107.574C178.034 107.574 173.496 112.217 173.496 117.945C173.496 123.673 178.034 128.317 183.632 128.317Z" fill="#F3A100"/>
<path d="M56.6842 80.3758H54.8574C54.6527 79.8339 54.3778 79.3245 54.0406 78.862H55.9241L57.5176 76.4033L56.6842 75.736H43.8496L42.2562 78.1946L43.0862 78.862H49.3068C49.8194 78.7657 50.3478 78.8652 50.797 79.1427C51.2461 79.4202 51.5866 79.8575 51.7571 80.3758H43.5496L41.9595 82.8345L42.7895 83.5019H51.8271C51.552 84.2034 51.0855 84.8031 50.4867 85.2252C49.888 85.6472 49.1838 85.8726 48.4634 85.8727H42.4028V88.6827L47.29 97.7411L48.1234 98.4085H51.477L46.5032 89.0023H49.3602C50.8041 88.9876 52.1943 88.4229 53.2739 87.4126C54.3536 86.4022 55.0498 85.0144 55.2341 83.5054H55.9241L57.5176 81.0467L56.6842 80.3758Z" fill="#D68900"/>
<path d="M188.499 113.529H187.281C187.145 113.171 186.961 112.835 186.737 112.53H187.992L189.055 110.908L188.499 110.468H179.943L178.88 112.09L179.434 112.53H183.581C183.922 112.467 184.275 112.532 184.574 112.715C184.874 112.898 185.101 113.187 185.214 113.529H179.743L178.682 115.15L179.236 115.59H185.261C185.077 116.053 184.767 116.449 184.367 116.727C183.968 117.005 183.499 117.154 183.018 117.154H178.978V119.008L182.236 124.982L182.792 125.422H185.028L181.712 119.218H183.616C184.579 119.209 185.506 118.836 186.225 118.17C186.945 117.503 187.409 116.588 187.532 115.593H187.992L189.055 113.971L188.499 113.529Z" fill="#D68900"/>
<path d="M53.1284 78.2153H54.9971L56.5747 75.736H43.8347L42.2538 78.2153H48.4254C49.1063 78.2157 49.7733 78.4224 50.3492 78.8117C50.9251 79.2009 51.3864 79.7567 51.6798 80.4148H43.5371L41.9595 82.8942H51.9477C51.7744 83.7609 51.329 84.5378 50.6856 85.0953C50.0422 85.6529 49.2398 85.9573 48.4121 85.9579H42.3993V88.7915L47.2479 97.9261H50.5751L45.6472 88.4302H48.4816C49.9094 88.4161 51.2845 87.8504 52.3539 86.8372C53.4234 85.824 54.1153 84.4314 54.3025 82.9154H54.9905L56.5681 80.4361H54.1438C53.9431 79.6323 53.5982 78.878 53.1284 78.2153Z" fill="#FFCC00"/>
<path d="M186.249 112.139H187.514L188.583 110.468H179.953L178.882 112.139H183.063C183.524 112.139 183.976 112.279 184.366 112.541C184.756 112.803 185.068 113.178 185.267 113.621H179.751L178.682 115.292H185.449C185.331 115.876 185.03 116.4 184.594 116.776C184.158 117.151 183.614 117.357 183.054 117.357H178.98V119.267L182.265 125.422H184.519L181.181 119.023H183.101C184.068 119.014 184.999 118.632 185.724 117.95C186.448 117.267 186.917 116.328 187.044 115.307H187.51L188.579 113.636H186.936C186.8 113.094 186.567 112.586 186.249 112.139Z" fill="#FFCC00"/>
<path d="M74.7091 128.945H30.3259V135.89H74.7091V128.945Z" fill="#FFCC00"/>
<g style="mix-blend-mode:screen" opacity="0.5">
<path d="M30.3829 129.427H15.2404V136.372H30.3829V129.427Z" fill="#FFCC00"/>
</g>
<g style="mix-blend-mode:multiply" opacity="0.5">
<path d="M74.709 128.945H60.0886V135.89H74.709V128.945Z" fill="#FFCC00"/>
</g>
<path d="M73.1425 121.465H28.7593V128.945H73.1425V121.465Z" fill="#FFCC00"/>
<g style="mix-blend-mode:screen" opacity="0.5">
<path d="M40.2468 121.465H28.7593V128.945H40.2468V121.465Z" fill="#FFCC00"/>
</g>
<g style="mix-blend-mode:multiply" opacity="0.5">
<path d="M73.1421 121.465H54.3445V128.945H73.1421V121.465Z" fill="#FFCC00"/>
</g>
<path d="M77.8423 114.519H33.459V121.465H77.8423V114.519Z" fill="#FFCC00"/>
<g style="mix-blend-mode:screen" opacity="0.5">
<path d="M50.6902 114.519H33.459V121.465H50.6902V114.519Z" fill="#FFCC00"/>
</g>
<path d="M75.2313 107.574H30.8481V114.519H75.2313V107.574Z" fill="#FFCC00"/>
<g style="mix-blend-mode:screen" opacity="0.5">
<path d="M43.902 107.574H30.8481V114.519H43.902V107.574Z" fill="#FFCC00"/>
</g>
<g style="mix-blend-mode:multiply" opacity="0.5">
<path d="M75.2309 107.574H56.9555V114.519H75.2309V107.574Z" fill="#FFCC00"/>
</g>
<g style="mix-blend-mode:multiply" opacity="0.5">
<path d="M73.1427 128.945H30.3259V130.013H73.1427V128.945Z" fill="#FFCC00"/>
</g>
<g style="mix-blend-mode:multiply" opacity="0.5">
<path d="M75.2315 114.519H33.459V115.588H75.2315V114.519Z" fill="#FFCC00"/>
</g>
</svg>
