<svg width="203" height="139" viewBox="0 0 203 139" fill="none" xmlns="http://www.w3.org/2000/svg">
<path d="M12.3219 137.75C12.3219 137.75 -10.8347 112.754 8.40226 85.691C25.4734 61.6796 45.3767 63.3209 59.9793 73.0648C66.1985 77.2151 84.1297 73.5764 99.3917 49.1439C120.207 15.8213 192.352 36.0301 179.199 87.2921C172.833 112.096 198.572 113.001 185.457 137.799L12.3219 137.75Z" fill="#F0FFFB"/>
<path d="M194.385 0.310547H117.101C112.608 0.310547 108.966 3.96697 108.966 8.47739V130.073C108.966 134.583 112.608 138.239 117.101 138.239H194.385C198.878 138.239 202.52 134.583 202.52 130.073V8.47739C202.52 3.96697 198.878 0.310547 194.385 0.310547Z" fill="#ABDDDA"/>
<path d="M193.48 119.633V9.38025L118.005 9.38025V119.633H193.48Z" fill="white"/>
<path d="M121.768 111.087L123.544 111.381C123.678 111.402 123.805 111.46 123.91 111.548C124.011 111.631 124.084 111.745 124.119 111.872C124.129 111.91 124.135 111.949 124.136 111.989C124.138 112.025 124.136 112.061 124.129 112.096L120.043 136.997C119.991 137.318 119.659 137.538 119.295 137.492L119.26 137.487L117.484 137.193L117.448 137.186C117.091 137.109 116.845 136.8 116.898 136.478L120.987 111.576C120.993 111.541 121.002 111.506 121.015 111.472C121.029 111.435 121.047 111.4 121.068 111.368C121.142 111.258 121.248 111.174 121.371 111.127C121.497 111.079 121.634 111.065 121.768 111.087Z" fill="#FFB93E"/>
<path d="M122.222 123.722L120.032 137.062C119.986 137.349 119.658 137.536 119.295 137.492L119.26 137.487L117.484 137.193L117.449 137.186C117.091 137.109 116.841 136.829 116.887 136.542L118.809 124.84C119.764 124.806 121.117 124.583 122.222 123.722Z" fill="#FFA412"/>
<path d="M120.577 113.994L120.53 114.277L123.675 114.799L123.721 114.516L120.577 113.994Z" fill="#FFA412"/>
<path d="M120.361 114.249L120.316 114.533L123.471 115.045L123.517 114.761L120.361 114.249Z" fill="#FFA412"/>
<path d="M120.233 116.104L120.187 116.386L123.331 116.908L123.378 116.625L120.233 116.104Z" fill="#FFA412"/>
<path d="M119.953 117.873L119.906 118.156L123.051 118.678L123.098 118.395L119.953 117.873Z" fill="#FFA412"/>
<path d="M119.644 119.732L119.598 120.014L122.742 120.536L122.789 120.253L119.644 119.732Z" fill="#FFA412"/>
<path d="M119.135 121.857L119.09 122.141L122.245 122.653L122.291 122.369L119.135 121.857Z" fill="#FFA412"/>
<path d="M118.729 125.25L118.683 125.533L121.828 126.055L121.874 125.772L118.729 125.25Z" fill="#FFA412"/>
<path d="M118.35 127.649L118.303 127.932L121.448 128.453L121.494 128.17L118.35 127.649Z" fill="#FFA412"/>
<path d="M120.66 112.38L120.614 112.664L123.769 113.177L123.815 112.893L120.66 112.38Z" fill="#FFA412"/>
<path d="M120.833 112.488L120.787 112.77L123.931 113.292L123.978 113.009L120.833 112.488Z" fill="#FFA412"/>
<path d="M120.849 111.198L120.803 111.482L123.958 111.995L124.004 111.711L120.849 111.198Z" fill="#FFA412"/>
<path d="M120.956 111.753L124.102 112.273L124.13 112.096C124.136 112.061 124.138 112.025 124.137 111.989L121.013 111.472C121 111.506 120.991 111.541 120.985 111.576L120.956 111.753Z" fill="#FFA412"/>
<path d="M121.063 111.368L124.116 111.872C124.082 111.745 124.009 111.631 123.907 111.548L121.366 111.127C121.243 111.174 121.137 111.258 121.063 111.368Z" fill="#FFA412"/>
<path d="M124.99 111.087L126.766 111.381C126.901 111.402 127.027 111.46 127.131 111.548C127.233 111.631 127.307 111.745 127.341 111.872C127.351 111.91 127.357 111.949 127.358 111.989C127.36 112.025 127.358 112.061 127.352 112.096L123.265 136.997C123.212 137.318 122.881 137.538 122.517 137.492L122.482 137.487L120.705 137.193L120.671 137.186C120.313 137.109 120.068 136.8 120.12 136.478L124.206 111.576C124.213 111.541 124.222 111.506 124.235 111.472C124.249 111.435 124.267 111.4 124.288 111.368C124.362 111.258 124.467 111.174 124.59 111.127C124.718 111.078 124.856 111.064 124.99 111.087Z" fill="#FFB93E"/>
<path d="M125.445 123.722L123.255 137.062C123.208 137.349 122.88 137.536 122.517 137.492L122.483 137.487L120.706 137.193L120.671 137.186C120.313 137.109 120.063 136.829 120.11 136.542L122.032 124.84C122.985 124.806 124.339 124.583 125.445 123.722Z" fill="#FFA412"/>
<path d="M123.799 113.994L123.752 114.277L126.897 114.799L126.943 114.516L123.799 113.994Z" fill="#FFA412"/>
<path d="M123.662 114.971L123.616 115.254L126.76 115.775L126.807 115.492L123.662 114.971Z" fill="#FFA412"/>
<path d="M123.456 116.104L123.409 116.386L126.554 116.908L126.601 116.625L123.456 116.104Z" fill="#FFA412"/>
<path d="M123.172 117.869L123.126 118.152L126.271 118.674L126.317 118.391L123.172 117.869Z" fill="#FFA412"/>
<path d="M122.867 119.731L122.82 120.014L125.965 120.536L126.011 120.253L122.867 119.731Z" fill="#FFA412"/>
<path d="M122.393 122.581L122.346 122.864L125.491 123.385L125.537 123.102L122.393 122.581Z" fill="#FFA412"/>
<path d="M121.959 125.258L121.912 125.541L125.057 126.062L125.103 125.78L121.959 125.258Z" fill="#FFA412"/>
<path d="M121.568 127.646L121.521 127.928L124.666 128.45L124.712 128.167L121.568 127.646Z" fill="#FFA412"/>
<path d="M123.951 113.085L123.905 113.368L127.05 113.89L127.096 113.607L123.951 113.085Z" fill="#FFA412"/>
<path d="M124.067 112.498L124.021 112.781L127.166 113.302L127.212 113.019L124.067 112.498Z" fill="#FFA412"/>
<path d="M124.157 111.912L124.11 112.195L127.255 112.716L127.301 112.433L124.157 111.912Z" fill="#FFA412"/>
<path d="M124.178 111.753L127.323 112.273L127.352 112.096C127.358 112.061 127.36 112.025 127.358 111.989L124.235 111.472C124.222 111.506 124.212 111.541 124.206 111.576L124.178 111.753Z" fill="#FFA412"/>
<path d="M124.292 111.368L127.345 111.872C127.31 111.745 127.237 111.631 127.135 111.548L124.594 111.127C124.471 111.174 124.365 111.258 124.292 111.368Z" fill="#FFA412"/>
<path d="M113.206 134.993V136.802C113.206 136.938 113.17 137.072 113.102 137.189C113.035 137.303 112.935 137.394 112.816 137.449C112.78 137.465 112.743 137.477 112.704 137.485C112.669 137.492 112.633 137.495 112.597 137.495L87.4956 137.435C87.172 137.435 86.9061 137.139 86.8907 136.772C86.8907 136.761 86.8907 136.748 86.8907 136.737V134.927C86.8907 134.915 86.8907 134.903 86.8907 134.891C86.9077 134.524 87.1751 134.23 87.4987 134.231L112.6 134.291C112.636 134.291 112.672 134.295 112.707 134.302C112.745 134.31 112.783 134.322 112.818 134.338C112.938 134.393 113.038 134.485 113.103 134.6C113.172 134.719 113.208 134.855 113.206 134.993Z" fill="#FFB93E"/>
<path d="M100.875 137.471L87.4254 137.438C87.1365 137.438 86.899 137.142 86.8875 136.775C86.8875 136.764 86.8875 136.751 86.8875 136.74V134.93C86.8875 134.918 86.8875 134.906 86.8875 134.894C86.9028 134.527 87.1411 134.233 87.4301 134.234L99.2266 134.262C99.4165 135.206 99.8515 136.514 100.875 137.471Z" fill="#FFA412"/>
<path d="M109.555 134.017V137.221H109.84V134.017H109.555Z" fill="#FFA412"/>
<path d="M108.591 134.015V137.22H108.877V134.015H108.591Z" fill="#FFA412"/>
<path d="M107.743 134.28L107.734 137.484L108.02 137.485L108.028 134.281L107.743 134.28Z" fill="#FFA412"/>
<path d="M105.961 134.269L105.954 137.474L106.239 137.474L106.246 134.27L105.961 134.269Z" fill="#FFA412"/>
<path d="M103.792 134.004V137.208H104.077V134.004H103.792Z" fill="#FFA412"/>
<path d="M100.922 133.997V137.201H101.207V133.997H100.922Z" fill="#FFA412"/>
<path d="M98.53 134.269L98.5222 137.473L98.8074 137.474L98.8151 134.27L98.53 134.269Z" fill="#FFA412"/>
<path d="M96.1155 134.255L96.1072 137.459L96.3923 137.46L96.4007 134.256L96.1155 134.255Z" fill="#FFA412"/>
<path d="M110.798 134.298L110.79 137.502L111.076 137.503L111.083 134.298L110.798 134.298Z" fill="#FFA412"/>
<path d="M111.394 134.29L111.387 137.495L111.672 137.495L111.679 134.291L111.394 134.29Z" fill="#FFA412"/>
<path d="M111.662 134.022V137.227H111.947V134.022H111.662Z" fill="#FFA412"/>
<path d="M112.422 134.293L112.416 137.498H112.594C112.63 137.498 112.666 137.494 112.701 137.487L112.707 134.304C112.672 134.297 112.636 134.293 112.6 134.293H112.422Z" fill="#FFA412"/>
<path d="M112.818 134.341L112.813 137.452C112.932 137.397 113.032 137.306 113.099 137.192L113.103 134.603C113.038 134.488 112.938 134.397 112.818 134.341Z" fill="#FFA412"/>
<path d="M110.528 131.781V133.591C110.528 133.727 110.491 133.86 110.423 133.977C110.357 134.092 110.257 134.183 110.138 134.238C110.102 134.254 110.065 134.266 110.026 134.273C109.991 134.28 109.955 134.284 109.919 134.284L84.8175 134.225C84.494 134.225 84.2281 133.929 84.2119 133.562C84.2119 133.549 84.2119 133.538 84.2119 133.525V131.716C84.2119 131.704 84.2119 131.692 84.2119 131.68C84.2288 131.313 84.4955 131.019 84.8191 131.019L109.921 131.08H109.969H109.989H110.012H110.028C110.067 131.087 110.104 131.099 110.139 131.115L110.155 131.123L110.171 131.131L110.201 131.148L110.218 131.159C110.224 131.162 110.229 131.165 110.234 131.169L110.262 131.19L110.294 131.217L110.317 131.239L110.332 131.255C110.347 131.271 110.362 131.289 110.376 131.307L110.388 131.323L110.4 131.34L110.422 131.376C110.494 131.498 110.531 131.639 110.528 131.781Z" fill="#FFB93E"/>
<path d="M98.1981 134.259L84.7483 134.228C84.4593 134.228 84.2219 133.932 84.2103 133.565C84.2103 133.552 84.2103 133.541 84.2103 133.528V131.719C84.2103 131.707 84.2103 131.695 84.2103 131.683C84.2257 131.316 84.464 131.022 84.7529 131.022L96.5487 131.051C96.5544 131.077 96.5597 131.103 96.5649 131.128C96.7639 132.066 97.2035 133.327 98.1981 134.259Z" fill="#FFA412"/>
<path d="M107.181 131.068L107.174 134.273L107.459 134.273L107.466 131.069L107.181 131.068Z" fill="#FFA412"/>
<path d="M106.215 131.065L106.208 134.27L106.493 134.27L106.5 131.066L106.215 131.065Z" fill="#FFA412"/>
<path d="M104.764 130.808V134.013H105.049V130.808H104.764Z" fill="#FFA412"/>
<path d="M102.994 130.804V134.009H103.279V130.804H102.994Z" fill="#FFA412"/>
<path d="M101.414 131.062L101.407 134.266L101.692 134.267L101.699 131.063L101.414 131.062Z" fill="#FFA412"/>
<path d="M98.5379 131.056L98.5295 134.26L98.8147 134.261L98.823 131.057L98.5379 131.056Z" fill="#FFA412"/>
<path d="M95.5615 130.787V133.991H95.8467V130.787H95.5615Z" fill="#FFA412"/>
<path d="M93.435 131.043L93.4283 134.248L93.7135 134.248L93.7202 131.044L93.435 131.043Z" fill="#FFA412"/>
<path d="M108.1 131.071L108.093 134.275L108.378 134.276L108.385 131.071L108.1 131.071Z" fill="#FFA412"/>
<path d="M108.727 131.088L108.719 134.293L109.004 134.294L109.012 131.089L108.727 131.088Z" fill="#FFA412"/>
<path d="M108.992 130.819V134.024H109.277V130.819H108.992Z" fill="#FFA412"/>
<path d="M109.744 131.082L109.739 134.287H109.92C109.956 134.287 109.992 134.283 110.027 134.276L110.032 131.094C109.997 131.086 109.961 131.083 109.925 131.083L109.744 131.082Z" fill="#FFA412"/>
<path d="M110.14 131.13L110.135 134.241C110.254 134.186 110.354 134.095 110.42 133.98L110.424 131.392C110.359 131.277 110.259 131.185 110.14 131.13Z" fill="#FFA412"/>
<path d="M111.831 128.659V130.468C111.832 130.604 111.795 130.738 111.727 130.855C111.661 130.969 111.561 131.06 111.442 131.115C111.406 131.131 111.369 131.143 111.33 131.151C111.295 131.158 111.259 131.161 111.223 131.161L86.1216 131.102C86.0231 131.102 85.9264 131.075 85.8418 131.025C85.7484 130.965 85.6704 130.884 85.6142 130.788C85.5579 130.692 85.5251 130.584 85.5182 130.473C85.5175 130.463 85.5175 130.452 85.5182 130.442C85.5182 130.43 85.5182 130.418 85.5182 130.406V128.596C85.5182 128.584 85.5182 128.572 85.5182 128.561C85.5359 128.193 85.8026 127.899 86.1262 127.9L111.228 127.96C111.264 127.96 111.3 127.964 111.335 127.972C111.373 127.979 111.411 127.991 111.446 128.007C111.566 128.063 111.665 128.155 111.731 128.269C111.798 128.388 111.833 128.522 111.831 128.659Z" fill="#FFB93E"/>
<path d="M99.5002 131.137L86.0505 131.105C85.9615 131.105 85.8745 131.078 85.8007 131.028C85.7148 130.963 85.6443 130.88 85.5944 130.785C85.5445 130.689 85.5166 130.584 85.5125 130.476C85.5118 130.466 85.5118 130.455 85.5125 130.445C85.5125 130.433 85.5125 130.421 85.5125 130.409V128.599C85.5125 128.588 85.5125 128.575 85.5125 128.564C85.5279 128.197 85.7669 127.902 86.0559 127.903L97.8517 127.932C98.0338 128.85 98.4519 130.11 99.4149 131.06C99.4449 131.084 99.4718 131.11 99.5002 131.137Z" fill="#FFA412"/>
<path d="M112.438 125.456V127.265C112.438 127.401 112.402 127.535 112.333 127.652C112.267 127.766 112.167 127.857 112.047 127.911C112.012 127.928 111.975 127.94 111.937 127.948C111.901 127.955 111.865 127.958 111.829 127.959L86.7281 127.898C86.4045 127.898 86.1378 127.602 86.1224 127.235C86.1224 127.224 86.1224 127.211 86.1224 127.2V125.39C86.1224 125.378 86.1224 125.366 86.1224 125.354C86.1386 125.015 86.3684 124.736 86.6604 124.698C86.6841 124.695 86.708 124.694 86.7319 124.694L111.834 124.753C111.87 124.754 111.905 124.757 111.941 124.765C111.979 124.773 112.016 124.785 112.052 124.801C112.171 124.857 112.271 124.948 112.336 125.063C112.405 125.182 112.44 125.318 112.438 125.456Z" fill="#FFB93E"/>
<path d="M100.108 127.937L86.658 127.904C86.369 127.904 86.1315 127.609 86.12 127.241C86.12 127.23 86.12 127.218 86.12 127.206V125.396C86.12 125.384 86.12 125.372 86.12 125.36C86.1338 125.021 86.3398 124.742 86.5988 124.705C86.6199 124.701 86.6412 124.7 86.6626 124.7L98.4592 124.728C98.4595 124.73 98.4595 124.731 98.4592 124.733C98.6498 125.673 99.0871 126.976 100.108 127.937Z" fill="#FFA412"/>
<path d="M110.599 122.251V124.061C110.598 124.197 110.562 124.33 110.493 124.447C110.427 124.562 110.328 124.653 110.208 124.708C110.173 124.724 110.135 124.736 110.097 124.743L110.062 124.749H110.042H110.022H109.99L84.8882 124.69C84.5647 124.69 84.2987 124.394 84.2826 124.027C84.2826 124.015 84.2826 124.003 84.2826 123.991L84.2864 122.181C84.2864 122.169 84.2864 122.157 84.2864 122.145C84.2864 122.134 84.2864 122.125 84.2864 122.116C84.2931 121.98 84.3402 121.849 84.4216 121.741C84.503 121.632 84.6149 121.55 84.743 121.506L84.7614 121.501C84.8044 121.49 84.8485 121.485 84.8928 121.485L109.994 121.545C110.012 121.545 110.031 121.545 110.048 121.545H110.072C110.082 121.546 110.091 121.548 110.1 121.55C110.138 121.558 110.176 121.57 110.211 121.586C110.331 121.642 110.43 121.733 110.496 121.848C110.567 121.97 110.602 122.11 110.599 122.251Z" fill="#FFB93E"/>
<path d="M98.2679 124.729L84.8181 124.697C84.5299 124.697 84.2924 124.402 84.2802 124.035C84.2802 124.022 84.2802 124.011 84.2802 123.998L84.284 122.189C84.284 122.177 84.284 122.165 84.284 122.153C84.284 122.142 84.284 122.133 84.284 122.124C84.3063 121.822 84.48 121.574 84.7059 121.506L84.729 121.499C84.7605 121.492 84.7927 121.489 84.8251 121.489L96.6239 121.523C96.6247 121.531 96.6263 121.539 96.6285 121.547C96.8168 122.487 97.2534 123.777 98.264 124.727L98.2679 124.729Z" fill="#FFA412"/>
<path d="M110.551 119.069V120.879C110.552 121.015 110.515 121.148 110.447 121.265C110.381 121.38 110.281 121.471 110.162 121.526C110.134 121.538 110.104 121.548 110.075 121.556L110.051 121.561C110.016 121.568 109.98 121.572 109.944 121.572L84.8424 121.513C84.8166 121.512 84.7909 121.51 84.7655 121.506C84.7554 121.505 84.7454 121.503 84.7355 121.5C84.4627 121.443 84.2521 121.174 84.2383 120.849C84.2383 120.837 84.2383 120.825 84.2383 120.813V119.004C84.2383 118.991 84.2383 118.98 84.2383 118.968C84.256 118.6 84.5226 118.307 84.8462 118.307L109.948 118.368H109.996H110.016H110.039H110.055C110.093 118.375 110.131 118.387 110.166 118.403L110.182 118.411L110.198 118.419L110.228 118.436L110.261 118.457C110.271 118.464 110.28 118.471 110.289 118.478C110.3 118.487 110.311 118.495 110.321 118.504L110.344 118.527L110.359 118.542C110.375 118.559 110.389 118.577 110.403 118.595L110.415 118.611L110.427 118.628C110.435 118.64 110.442 118.651 110.449 118.664C110.52 118.787 110.556 118.927 110.551 119.069Z" fill="#FFB93E"/>
<path d="M98.2209 121.547L84.7711 121.515H84.7396C84.728 121.514 84.7164 121.513 84.705 121.51C84.446 121.469 84.2439 121.192 84.2308 120.853C84.2308 120.841 84.2308 120.829 84.2308 120.817V119.007C84.2308 118.995 84.2308 118.983 84.2308 118.972C84.247 118.604 84.4852 118.31 84.7742 118.311L96.57 118.339L96.5862 118.416C96.7798 119.344 97.2148 120.592 98.1917 121.523L98.2209 121.547Z" fill="#FFA412"/>
<path d="M111.854 115.947L111.85 117.756C111.851 117.892 111.815 118.026 111.746 118.143C111.68 118.257 111.58 118.348 111.46 118.403C111.425 118.419 111.387 118.431 111.349 118.439C111.314 118.446 111.278 118.449 111.242 118.45L86.1407 118.389C86.0422 118.39 85.9454 118.363 85.8609 118.312C85.7676 118.252 85.6896 118.171 85.6332 118.075C85.5769 117.979 85.5438 117.871 85.5366 117.76C85.5366 117.749 85.5366 117.739 85.5366 117.729C85.5366 117.718 85.5366 117.705 85.5366 117.693V115.883C85.5366 115.871 85.5366 115.859 85.5366 115.847C85.5543 115.48 85.821 115.186 86.1446 115.187L111.246 115.247C111.282 115.247 111.318 115.251 111.353 115.258C111.392 115.266 111.429 115.279 111.465 115.295C111.584 115.35 111.683 115.442 111.749 115.556C111.818 115.675 111.855 115.81 111.854 115.947Z" fill="#FFB93E"/>
<path d="M99.5226 118.425L86.0728 118.392C85.9837 118.392 85.8966 118.366 85.823 118.315C85.7372 118.25 85.6667 118.167 85.6167 118.072C85.5668 117.976 85.5385 117.871 85.5341 117.763C85.5341 117.753 85.5341 117.742 85.5341 117.732C85.5341 117.721 85.5341 117.708 85.5341 117.696V115.886C85.5341 115.874 85.5341 115.862 85.5341 115.85C85.5494 115.483 85.7885 115.189 86.0767 115.19L97.8732 115.218C98.0554 116.136 98.4735 117.397 99.4365 118.348L99.5226 118.425Z" fill="#FFA412"/>
<path d="M113.911 112.747V114.557C113.911 114.692 113.875 114.826 113.807 114.943C113.74 115.057 113.64 115.148 113.521 115.203C113.485 115.219 113.448 115.231 113.409 115.239C113.374 115.246 113.338 115.25 113.302 115.25L88.2006 115.189C87.877 115.189 87.6111 114.894 87.595 114.526V114.492V112.682C87.595 112.67 87.595 112.658 87.595 112.646C87.6103 112.306 87.8401 112.028 88.133 111.99C88.1569 111.987 88.181 111.986 88.2052 111.986L113.306 112.046C113.342 112.046 113.378 112.05 113.414 112.057C113.452 112.065 113.489 112.077 113.525 112.093C113.644 112.149 113.744 112.24 113.81 112.355C113.878 112.474 113.913 112.61 113.911 112.747Z" fill="#FFB93E"/>
<path d="M101.58 115.225L88.1305 115.193C87.8423 115.193 87.6048 114.897 87.5925 114.53V114.492V112.682C87.5925 112.67 87.5925 112.658 87.5925 112.646C87.6064 112.306 87.8116 112.028 88.0713 111.99C88.0925 111.987 88.1138 111.986 88.1351 111.986L99.9317 112.014C99.9317 112.014 99.9317 112.014 99.9317 112.019C100.123 112.965 100.56 114.268 101.58 115.225Z" fill="#FFA412"/>
<path d="M110.622 109.539L110.618 111.349C110.618 111.485 110.582 111.618 110.513 111.735C110.447 111.85 110.348 111.941 110.228 111.996C110.192 112.012 110.155 112.024 110.117 112.031L110.081 112.038H110.053H110.01L84.908 111.977C84.5844 111.977 84.3185 111.681 84.3024 111.314C84.3024 111.303 84.3024 111.29 84.3024 111.279V109.469C84.3024 109.457 84.3024 109.445 84.3024 109.433C84.32 109.066 84.5867 108.772 84.9103 108.773L110.012 108.833H110.044C110.07 108.835 110.096 108.838 110.121 108.843C110.16 108.851 110.197 108.863 110.233 108.879C110.251 108.887 110.268 108.896 110.285 108.907C110.296 108.913 110.306 108.919 110.316 108.926C110.327 108.933 110.337 108.941 110.347 108.948C110.349 108.948 110.351 108.948 110.353 108.948L110.379 108.971C110.401 108.989 110.421 109.01 110.439 109.032C110.446 109.038 110.452 109.045 110.457 109.052L110.467 109.065C110.473 109.073 110.479 109.081 110.485 109.09C110.491 109.1 110.501 109.115 110.509 109.128C110.585 109.252 110.624 109.394 110.622 109.539Z" fill="#FFB93E"/>
<path d="M98.2909 112.019L84.8412 111.987C84.553 111.987 84.3148 111.691 84.3032 111.324C84.3032 111.312 84.3032 111.3 84.3032 111.288V109.478C84.3032 109.466 84.3032 109.454 84.3032 109.442C84.3194 109.075 84.5576 108.781 84.8466 108.782L96.6424 108.81C96.6478 108.835 96.6524 108.859 96.6578 108.887C96.8522 109.823 97.2911 111.083 98.2833 112.017L98.2909 112.019Z" fill="#FFA412"/>
<path d="M112.472 106.413V108.223C112.473 108.358 112.437 108.492 112.368 108.609C112.302 108.723 112.202 108.814 112.082 108.869C112.047 108.885 112.009 108.897 111.971 108.905C111.936 108.912 111.9 108.916 111.864 108.916L86.7627 108.856C86.6671 108.855 86.5736 108.828 86.4914 108.779C86.3952 108.719 86.3147 108.637 86.2568 108.54C86.1988 108.442 86.1651 108.332 86.1586 108.219C86.1586 108.209 86.1586 108.2 86.1586 108.19C86.1586 108.18 86.1586 108.167 86.1586 108.155V106.345C86.1586 106.333 86.1586 106.321 86.1586 106.309C86.1747 105.969 86.4045 105.691 86.6966 105.654C86.7202 105.65 86.7441 105.649 86.768 105.649L111.87 105.709C111.906 105.709 111.942 105.713 111.977 105.72C112.015 105.728 112.052 105.74 112.088 105.756C112.207 105.812 112.307 105.903 112.372 106.018C112.441 106.138 112.476 106.275 112.472 106.413Z" fill="#FFB93E"/>
<path d="M100.141 108.891L86.6916 108.859C86.6051 108.857 86.521 108.83 86.4495 108.781C86.3609 108.717 86.2881 108.633 86.2367 108.536C86.1853 108.439 86.1566 108.331 86.1528 108.221C86.1528 108.212 86.1528 108.203 86.1528 108.192C86.1528 108.182 86.1528 108.169 86.1528 108.157V106.347C86.1528 106.335 86.1528 106.323 86.1528 106.312C86.1667 105.972 86.3719 105.694 86.6316 105.656C86.6528 105.653 86.6741 105.651 86.6954 105.651L98.492 105.679C98.4924 105.681 98.4924 105.682 98.492 105.684C98.6749 106.604 99.0946 107.864 100.06 108.814L100.141 108.891Z" fill="#FFA412"/>
<path d="M110.633 103.21V105.02C110.634 105.156 110.598 105.289 110.529 105.406C110.463 105.521 110.363 105.612 110.244 105.666C110.208 105.683 110.171 105.695 110.132 105.702L110.097 105.708H110.077H110.057H110.025L84.9236 105.648C84.6001 105.648 84.3341 105.352 84.318 104.985C84.318 104.973 84.318 104.961 84.318 104.949V103.139C84.318 103.127 84.318 103.115 84.318 103.103C84.3357 102.736 84.6024 102.443 84.9259 102.443L110.028 102.503C110.064 102.503 110.099 102.507 110.135 102.515C110.173 102.522 110.21 102.535 110.246 102.551C110.365 102.606 110.465 102.697 110.53 102.812C110.6 102.933 110.636 103.07 110.633 103.21Z" fill="#FFB93E"/>
<path d="M98.3024 105.687L84.8527 105.655C84.5637 105.655 84.3262 105.359 84.3147 104.992C84.3147 104.98 84.3147 104.968 84.3147 104.956V103.146C84.3147 103.134 84.3147 103.122 84.3147 103.11C84.3308 102.743 84.5691 102.45 84.8581 102.45L96.6539 102.478C96.8406 103.42 97.2756 104.719 98.2947 105.682L98.3024 105.687Z" fill="#FFA412"/>
<path d="M108.502 127.961L108.495 131.166L108.78 131.167L108.787 127.962L108.502 127.961Z" fill="#FFA412"/>
<path d="M107.527 127.95L107.52 131.154L107.805 131.155L107.812 127.951L107.527 127.95Z" fill="#FFA412"/>
<path d="M106.364 127.945L106.357 131.149L106.642 131.15L106.649 127.945L106.364 127.945Z" fill="#FFA412"/>
<path d="M104.604 127.952L104.596 131.156L104.881 131.157L104.889 127.953L104.604 127.952Z" fill="#FFA412"/>
<path d="M102.726 127.947L102.719 131.152L103.004 131.153L103.012 127.948L102.726 127.947Z" fill="#FFA412"/>
<path d="M99.848 127.941L99.8402 131.146L100.125 131.146L100.133 127.942L99.848 127.941Z" fill="#FFA412"/>
<path d="M97.1442 127.926L97.1376 131.13L97.4227 131.131L97.4294 127.927L97.1442 127.926Z" fill="#FFA412"/>
<path d="M94.7484 127.929L94.7406 131.133L95.0257 131.134L95.0335 127.93L94.7484 127.929Z" fill="#FFA412"/>
<path d="M109.1 127.7V130.905H109.385V127.7H109.1Z" fill="#FFA412"/>
<path d="M110.019 127.957L110.012 131.161L110.297 131.162L110.304 127.958L110.019 127.957Z" fill="#FFA412"/>
<path d="M110.29 127.704V130.908H110.575V127.704H110.29Z" fill="#FFA412"/>
<path d="M111.046 127.959L111.041 131.165H111.219C111.255 131.164 111.291 131.161 111.326 131.154L111.332 127.972C111.296 127.964 111.261 127.96 111.225 127.96L111.046 127.959Z" fill="#FFA412"/>
<path d="M111.443 128.007L111.438 131.118C111.557 131.063 111.657 130.972 111.723 130.858L111.728 128.269C111.662 128.154 111.563 128.063 111.443 128.007Z" fill="#FFA412"/>
<path d="M100.155 124.482V127.687H100.44V124.482H100.155Z" fill="#FFA412"/>
<path d="M97.7429 124.715L97.7357 127.92L98.0208 127.92L98.0281 124.716L97.7429 124.715Z" fill="#FFA412"/>
<path d="M95.3548 124.726L95.347 127.93L95.6322 127.931L95.64 124.726L95.3548 124.726Z" fill="#FFA412"/>
<path d="M110.298 127.958L110.304 124.753H110.054L110.094 124.747L110.1 121.564C110.082 121.564 110.064 121.558 110.047 121.557L110.052 118.451H110.163L110.158 121.53C110.278 121.474 110.377 121.383 110.443 121.269L110.448 118.681C110.393 118.585 110.315 118.506 110.222 118.449H110.322L110.327 115.244H110.042L110.037 118.378C110.006 118.373 109.976 118.37 109.945 118.37H109.766L109.761 121.575H109.813L109.808 124.756H109.986H110.018L110.012 127.958H110.298Z" fill="#FFA412"/>
<path d="M110.636 124.762L110.629 127.966L110.914 127.967L110.921 124.762L110.636 124.762Z" fill="#FFA412"/>
<path d="M110.864 124.482V127.687H111.15V124.482H110.864Z" fill="#FFA412"/>
<path d="M111.654 124.756L111.647 127.961H111.826C111.862 127.961 111.898 127.957 111.933 127.949L111.939 124.767C111.904 124.759 111.868 124.756 111.832 124.756L111.654 124.756Z" fill="#FFA412"/>
<path d="M112.05 124.804L112.044 127.915C112.164 127.86 112.264 127.769 112.33 127.654L112.335 125.065C112.269 124.951 112.17 124.86 112.05 124.804Z" fill="#FFA412"/>
<path d="M107.54 124.752L107.545 121.547H107.493L107.498 118.365L107.213 118.364L107.207 121.569H107.26L107.255 124.746L106.976 124.745L106.97 127.95H107.255L107.261 124.751L107.54 124.752Z" fill="#FFA412"/>
<path d="M105.422 121.542L105.369 121.541L105.375 118.36L105.09 118.359L105.084 121.564H105.137L105.131 124.746H105.201L105.195 127.945L105.48 127.946L105.486 124.742L105.416 124.741L105.422 121.542Z" fill="#FFA412"/>
<path d="M110.211 121.601L110.205 124.712C110.325 124.656 110.424 124.565 110.49 124.451L110.495 121.863C110.43 121.748 110.33 121.656 110.211 121.601Z" fill="#FFA412"/>
<path d="M103.599 118.355L103.314 118.354L103.308 121.56H103.361L103.356 124.736H103.323L103.318 127.941L103.603 127.942L103.609 124.742H103.641L103.646 121.537H103.594L103.599 118.355Z" fill="#FFA412"/>
<path d="M101.722 118.351L101.437 118.35L101.431 121.555H101.484L101.478 124.737L101.763 124.738L101.769 121.533H101.716L101.722 118.351Z" fill="#FFA412"/>
<path d="M98.8446 118.344L98.5587 118.344L98.5533 121.548H98.6056L98.6002 124.73L98.8854 124.731L98.8915 121.526H98.8385L98.8446 118.344Z" fill="#FFA412"/>
<path d="M96.1503 118.338L95.8652 118.337L95.859 121.542H95.912L95.9059 124.724H96.1918L96.1972 121.52H96.1441L96.1503 118.338Z" fill="#FFA412"/>
<path d="M93.7444 118.332L93.4592 118.331L93.4539 121.536H93.5061L93.5007 124.718L93.7859 124.719L93.792 121.514H93.739L93.7444 118.332Z" fill="#FFA412"/>
<path d="M108.418 118.367L108.132 118.366L108.126 121.571H108.179L108.174 124.748H108.134L108.128 127.952L108.414 127.953L108.419 124.753H108.459L108.465 121.549H108.412L108.418 118.367Z" fill="#FFA412"/>
<path d="M109.024 118.368L108.795 118.368L108.801 115.242L108.515 115.241L108.509 118.446H108.739L108.734 121.572L108.786 121.573L108.781 124.754L109.066 124.755L109.071 121.55H109.019L109.024 118.368Z" fill="#FFA412"/>
<path d="M107.561 115.247L107.553 118.451L107.838 118.452L107.846 115.248L107.561 115.247Z" fill="#FFA412"/>
<path d="M106.386 118.362H106.247L106.241 121.567H106.294L106.288 124.749L106.573 124.749L106.579 121.544H106.526L106.532 118.442H106.671L106.677 115.237L106.392 115.237L106.386 118.362Z" fill="#FFA412"/>
<path d="M104.615 115.23L104.606 118.435L104.891 118.436L104.9 115.231L104.615 115.23Z" fill="#FFA412"/>
<path d="M102.749 115.235L102.742 118.439L103.027 118.44L103.035 115.235L102.749 115.235Z" fill="#FFA412"/>
<path d="M99.8532 115.214L99.8459 118.419L100.131 118.419L100.138 115.215L99.8532 115.214Z" fill="#FFA412"/>
<path d="M97.1639 115.211L97.1572 118.416L97.4424 118.416L97.449 115.212L97.1639 115.211Z" fill="#FFA412"/>
<path d="M94.7706 115.216L94.7628 118.42L95.0479 118.421L95.0557 115.217L94.7706 115.216Z" fill="#FFA412"/>
<path d="M109.429 118.369H109.326L109.319 121.574H109.372L109.367 124.751L109.1 124.75L109.094 127.955L109.379 127.955L109.385 124.756L109.652 124.756L109.658 121.552H109.605L109.611 118.449H109.714L109.72 115.244L109.435 115.244L109.429 118.369Z" fill="#FFA412"/>
<path d="M110.313 115.022V118.226H110.598V115.022H110.313Z" fill="#FFA412"/>
<path d="M111.349 118.442L111.355 115.26C111.32 115.252 111.284 115.248 111.248 115.248H111.073L111.067 118.453H111.246C111.28 118.452 111.315 118.449 111.349 118.442Z" fill="#FFA412"/>
<path d="M111.746 118.146L111.751 115.557C111.685 115.443 111.586 115.351 111.466 115.295L111.46 118.406C111.58 118.351 111.68 118.26 111.746 118.146Z" fill="#FFA412"/>
<path d="M110.584 112.049L110.576 115.253L110.861 115.254L110.869 112.049L110.584 112.049Z" fill="#FFA412"/>
<path d="M106.368 111.815V115.019H106.653V111.815H106.368Z" fill="#FFA412"/>
<path d="M104.807 112.035L104.799 115.24L105.084 115.241L105.092 112.036L104.807 112.035Z" fill="#FFA412"/>
<path d="M101.929 112.028L101.922 115.232L102.207 115.233L102.215 112.028L101.929 112.028Z" fill="#FFA412"/>
<path d="M99.235 112.021L99.2272 115.226L99.5123 115.227L99.5201 112.022L99.235 112.021Z" fill="#FFA412"/>
<path d="M96.8181 112.009L96.8114 115.213L97.0965 115.214L97.1032 112.009L96.8181 112.009Z" fill="#FFA412"/>
<path d="M111.502 112.051L111.495 115.255L111.78 115.256L111.788 112.052L111.502 112.051Z" fill="#FFA412"/>
<path d="M111.781 111.828V115.033H112.067V111.828H111.781Z" fill="#FFA412"/>
<path d="M112.676 112.04L112.669 115.244L112.954 115.245L112.961 112.04L112.676 112.04Z" fill="#FFA412"/>
<path d="M113.127 112.048L113.121 115.252H113.301C113.337 115.252 113.374 115.248 113.409 115.241L113.414 112.058C113.379 112.051 113.343 112.048 113.307 112.048H113.127Z" fill="#FFA412"/>
<path d="M113.523 112.096L113.518 115.207C113.637 115.152 113.737 115.061 113.804 114.947L113.808 112.358C113.743 112.243 113.643 112.152 113.523 112.096Z" fill="#FFA412"/>
<path d="M107.277 112.039L107.563 112.04L107.568 108.835L107.29 108.834L107.295 105.708L107.573 105.709L107.58 102.505L107.295 102.504L107.288 105.704L107.01 105.703L107.005 108.907L107.283 108.908L107.277 112.039Z" fill="#FFA412"/>
<path d="M106.315 108.829L106.307 112.034L106.592 112.035L106.601 108.83L106.315 108.829Z" fill="#FFA412"/>
<path d="M101.517 108.827L101.509 112.031L101.794 112.032L101.802 108.828L101.517 108.827Z" fill="#FFA412"/>
<path d="M98.6206 108.807L98.6134 112.011L98.8985 112.012L98.9058 108.808L98.6206 108.807Z" fill="#FFA412"/>
<path d="M95.6544 108.597V111.802H95.9396V108.597H95.6544Z" fill="#FFA412"/>
<path d="M93.521 108.795L93.5138 112L93.7989 112L93.8062 108.796L93.521 108.795Z" fill="#FFA412"/>
<path d="M108.197 112.041L108.449 112.041L108.444 115.241L108.729 115.242L108.734 112.038L108.482 112.037L108.488 108.837H108.448L108.454 105.711H108.493L108.499 102.507L108.214 102.506L108.208 105.706L108.169 105.705L108.163 108.91H108.203L108.197 112.041Z" fill="#FFA412"/>
<path d="M108.821 108.845L108.815 112.05L109.1 112.05L109.106 108.846L108.821 108.845Z" fill="#FFA412"/>
<path d="M110.283 108.915H110.333L110.339 105.711H110.088C110.102 105.709 110.115 105.707 110.128 105.704L110.133 102.522C110.098 102.515 110.063 102.511 110.027 102.511H109.848L109.843 105.715H110.02C110.031 105.716 110.043 105.716 110.054 105.715L110.047 108.845H110.015H109.837L109.831 112.045H109.678L109.683 108.845H109.416L109.422 105.719H109.689L109.695 102.514H109.409L109.404 105.714H109.137L109.13 108.919H109.398L109.393 112.05H109.609L109.603 115.25H109.889L109.894 112.05H110.012C110.048 112.05 110.084 112.046 110.119 112.039L110.124 108.92H110.236L110.23 112.004C110.35 111.948 110.449 111.857 110.515 111.743L110.52 109.155C110.464 109.055 110.382 108.972 110.283 108.915Z" fill="#FFA412"/>
<path d="M100.48 105.687L100.474 108.891L100.759 108.892L100.766 105.688L100.48 105.687Z" fill="#FFA412"/>
<path d="M97.5016 105.479V108.683H97.7867V105.479H97.5016Z" fill="#FFA412"/>
<path d="M95.3894 105.681L95.3816 108.886L95.6667 108.886L95.6745 105.682L95.3894 105.681Z" fill="#FFA412"/>
<path d="M110.652 105.705L110.645 108.91L110.93 108.91L110.937 105.706L110.652 105.705Z" fill="#FFA412"/>
<path d="M110.93 105.51V108.715H111.215V105.51H110.93Z" fill="#FFA412"/>
<path d="M111.687 105.714L111.681 108.919H111.859C111.896 108.919 111.932 108.915 111.967 108.908L111.972 105.725C111.937 105.718 111.901 105.714 111.866 105.714L111.687 105.714Z" fill="#FFA412"/>
<path d="M112.365 108.612L112.369 106.023C112.304 105.909 112.204 105.817 112.085 105.762L112.079 108.872C112.199 108.818 112.299 108.727 112.365 108.612Z" fill="#FFA412"/>
<path d="M106.339 102.508L106.331 105.712L106.616 105.713L106.624 102.508L106.339 102.508Z" fill="#FFA412"/>
<path d="M105.456 102.499L105.17 102.498L105.165 105.704H105.236L105.23 108.829H105.16L105.153 112.034L105.439 112.034L105.445 108.903H105.515L105.521 105.699H105.45L105.456 102.499Z" fill="#FFA412"/>
<path d="M103.389 105.694L103.358 105.694L103.352 108.899H103.384L103.378 112.03H103.663L103.669 108.825H103.637L103.643 105.7H103.675L103.68 102.495L103.395 102.495L103.389 105.694Z" fill="#FFA412"/>
<path d="M101.224 102.295V105.5H101.509V102.295H101.224Z" fill="#FFA412"/>
<path d="M98.3545 102.288V105.493H98.6396V102.288H98.3545Z" fill="#FFA412"/>
<path d="M95.9478 102.477L95.9395 105.682L96.2246 105.682L96.2329 102.478L95.9478 102.477Z" fill="#FFA412"/>
<path d="M93.5402 102.471L93.5336 105.676L93.8187 105.676L93.8254 102.472L93.5402 102.471Z" fill="#FFA412"/>
<path d="M108.819 102.506L108.811 105.71L109.096 105.711L109.104 102.507L108.819 102.506Z" fill="#FFA412"/>
<path d="M110.245 102.558L110.24 105.668C110.36 105.613 110.459 105.522 110.525 105.408L110.53 102.819C110.464 102.704 110.365 102.613 110.245 102.558Z" fill="#FFA412"/>
<path d="M118.608 111.102L120.381 111.418C120.515 111.441 120.64 111.5 120.744 111.589C120.845 111.674 120.917 111.789 120.949 111.917C120.959 111.955 120.964 111.994 120.965 112.033C120.967 112.069 120.964 112.105 120.957 112.141L116.554 136.988C116.497 137.308 116.162 137.52 115.8 137.472L115.765 137.467L113.993 137.15L113.957 137.143C113.601 137.066 113.359 136.747 113.419 136.427L117.822 111.581C117.825 111.565 117.828 111.549 117.833 111.534C117.834 111.527 117.836 111.52 117.838 111.514C117.838 111.507 117.843 111.499 117.846 111.492C117.849 111.485 117.85 111.482 117.851 111.477C117.866 111.44 117.885 111.405 117.907 111.373L117.916 111.358L117.927 111.344L117.948 111.317L117.963 111.302C117.967 111.297 117.971 111.293 117.975 111.289L118.001 111.264L118.032 111.238L118.058 111.218L118.077 111.206C118.095 111.194 118.115 111.182 118.135 111.172L118.153 111.163L118.172 111.154C118.184 111.148 118.197 111.143 118.21 111.138C118.337 111.09 118.475 111.078 118.608 111.102Z" fill="#FFB93E"/>
<path d="M118.902 123.741L116.542 137.055C116.492 137.341 116.158 137.525 115.8 137.475L115.765 137.47L113.992 137.153L113.957 137.146C113.6 137.069 113.354 136.781 113.404 136.495L115.473 124.818H115.55C116.505 124.782 117.816 124.564 118.902 123.741Z" fill="#FFA412"/>
<path d="M117.388 114L117.338 114.282L120.475 114.845L120.525 114.563L117.388 114Z" fill="#FFA412"/>
<path d="M117.215 114.955L117.165 115.237L120.303 115.798L120.353 115.516L117.215 114.955Z" fill="#FFA412"/>
<path d="M117.008 116.095L116.958 116.378L120.096 116.94L120.146 116.657L117.008 116.095Z" fill="#FFA412"/>
<path d="M116.697 117.852L116.647 118.134L119.785 118.696L119.835 118.414L116.697 117.852Z" fill="#FFA412"/>
<path d="M116.373 119.715L116.323 119.997L119.461 120.559L119.511 120.277L116.373 119.715Z" fill="#FFA412"/>
<path d="M115.881 122.577L115.831 122.859L118.969 123.422L119.019 123.14L115.881 122.577Z" fill="#FFA412"/>
<path d="M115.396 125.231L115.346 125.513L118.484 126.074L118.534 125.792L115.396 125.231Z" fill="#FFA412"/>
<path d="M114.98 127.619L114.93 127.901L118.068 128.464L118.118 128.182L114.98 127.619Z" fill="#FFA412"/>
<path d="M117.541 113.083L117.491 113.366L120.629 113.928L120.679 113.645L117.541 113.083Z" fill="#FFA412"/>
<path d="M117.667 112.5L117.617 112.782L120.755 113.345L120.805 113.063L117.667 112.5Z" fill="#FFA412"/>
<path d="M117.751 111.902L117.701 112.184L120.839 112.746L120.889 112.464L117.751 111.902Z" fill="#FFA412"/>
<path d="M117.787 111.757L120.925 112.318L120.957 112.141C120.963 112.105 120.966 112.069 120.965 112.033L117.848 111.477C117.835 111.51 117.825 111.545 117.819 111.581L117.787 111.757Z" fill="#FFA412"/>
<path d="M117.902 111.373L120.949 111.914C120.916 111.786 120.844 111.671 120.743 111.586L118.207 111.133C118.083 111.18 117.977 111.263 117.902 111.373Z" fill="#FFA412"/>
<path d="M178.434 137.469H167.647C167.069 136.976 168.048 135.856 169.069 135.781C169.513 135.748 170.074 135.841 170.716 135.977C170.864 133.995 171.715 125.082 174.906 125.442C178.498 125.843 174.906 129.366 173.891 131.452C173.138 132.997 172.345 135.213 171.983 136.258C172.275 136.322 172.577 136.384 172.885 136.441C173.361 134.973 175.132 130.028 177.386 130.315C180.03 130.653 178.967 132.633 177.092 133.812C175.717 134.677 174.028 135.907 173.225 136.501C173.922 136.623 174.628 136.68 175.335 136.671C177.183 136.627 178.085 137.174 178.434 137.469Z" fill="#82B378"/>
<path d="M37.785 137.109C37.3569 136.432 36.0673 134.676 34.3504 134.908C32.4789 135.162 36.4162 136.402 37.6221 137.114C37.397 137.126 37.1714 137.1 36.955 137.036C36.1488 136.747 34.7692 137.301 34.3273 137.495H41.9998C41.9121 137.199 41.716 136.947 41.451 136.79C41.3258 136.713 41.0721 136.702 40.7455 136.727C41.2013 136.186 41.5141 134.459 40.2483 134.904C39.3206 135.228 39.326 136.284 39.4144 136.908C39.2169 136.939 39.0163 136.971 38.8187 136.999C38.4345 135.042 37.0856 129.305 34.3473 129.152C31.5713 128.998 36.7014 135.102 38.4099 137.054C38.1908 137.08 37.9825 137.1 37.785 137.109Z" fill="#82B378"/>
<path d="M113.864 88.3866C118.179 84.0484 118.179 77.0148 113.864 72.6767C109.549 68.3385 102.553 68.3385 98.2384 72.6767C93.9236 77.0148 93.9236 84.0484 98.2384 88.3866C102.553 92.7247 109.549 92.7247 113.864 88.3866Z" fill="#E2810E"/>
<path d="M115.901 83.8287C117.451 77.8949 113.924 71.821 108.022 70.2621C102.12 68.7032 96.0788 72.2497 94.5283 78.1834C92.9778 84.1171 96.5052 90.1911 102.407 91.75C108.309 93.3089 114.35 89.7624 115.901 83.8287Z" fill="#FFB93E"/>
<path d="M109.183 77.4632H108.109C107.989 77.1511 107.827 76.8577 107.629 76.5913H108.736L109.673 75.1752L109.183 74.7908H101.638L100.702 76.2069L101.189 76.5913H104.846C105.148 76.5358 105.458 76.5932 105.722 76.753C105.986 76.9128 106.186 77.1647 106.287 77.4632H101.462L100.527 78.8794L101.015 79.2638H106.328C106.166 79.6678 105.892 80.0133 105.54 80.2563C105.188 80.4994 104.774 80.6292 104.35 80.6293H100.788V82.2478L103.661 87.4653L104.151 87.8497H106.122L103.198 82.4319H104.878C105.726 82.4234 106.544 82.0982 107.178 81.5162C107.813 80.9343 108.222 80.135 108.331 79.2658H108.736L109.673 77.8496L109.183 77.4632Z" fill="#D68900"/>
<path d="M105.287 91.2329C103.51 91.2365 101.764 90.7672 100.226 89.8728C98.6883 88.9784 97.413 87.6907 96.5301 86.1404C95.6472 84.5901 95.188 82.8326 95.1993 81.0462C95.2106 79.2598 95.6918 77.5082 96.5942 75.9693C97.4966 74.4304 98.788 73.1591 100.337 72.2843C101.886 71.4096 103.638 70.9627 105.415 70.9889C107.192 71.0151 108.93 71.5136 110.453 72.4337C111.976 73.3538 113.229 74.6627 114.087 76.2276C116.766 81.115 114.991 87.2828 110.13 89.9773C108.647 90.8012 106.981 91.2332 105.287 91.2329ZM105.257 71.592C102.854 71.5906 100.541 72.5048 98.7823 74.1503C97.0238 75.7958 95.9511 78.0503 95.7803 80.4594C95.6095 82.8686 96.3533 85.2533 97.8619 87.1329C99.3704 89.0125 101.532 90.2474 103.91 90.5886C106.288 90.9297 108.706 90.3519 110.678 88.9715C112.649 87.5911 114.026 85.5107 114.533 83.1497C115.039 80.7886 114.636 78.3225 113.405 76.2481C112.175 74.1738 110.208 72.6456 107.901 71.9714C107.042 71.7195 106.152 71.592 105.257 71.5928V71.592Z" fill="#FFA412"/>
<path d="M107.105 76.2153H108.206L109.135 74.7908H101.632L100.7 76.2153H104.335C104.736 76.2156 105.129 76.3343 105.468 76.558C105.808 76.7816 106.079 77.101 106.252 77.4791H101.456L100.527 78.9037H106.41C106.308 79.4017 106.045 79.848 105.666 80.1684C105.288 80.4887 104.815 80.6637 104.327 80.664H100.786V82.2921L103.642 87.5406H105.601L102.699 82.0845H104.368C105.209 82.0764 106.019 81.7514 106.649 81.1692C107.279 80.5871 107.686 79.7869 107.797 78.9159H108.202L109.131 77.4913H107.703C107.585 77.0295 107.382 76.5961 107.105 76.2153Z" fill="#FFCC00"/>
<path d="M116.202 74.5531C115.741 74.2247 114.691 73.503 114.638 73.6637C114.598 73.7796 114.654 73.9728 114.78 74.1807C114.146 73.9427 113.502 73.7866 111.979 74.0802C111.828 74.1079 111.683 74.1662 111.554 74.2514C111.426 74.3367 111.316 74.4472 111.231 74.5763C111.077 74.8189 111.018 75.1226 111.406 75.366C112.183 75.8513 111.958 75.5607 113.037 76.2678C114.117 76.9748 115.438 77.1556 116.228 76.6588L117.288 76.481L117.42 74.7285C117.42 74.7285 116.816 74.6559 116.202 74.5531Z" fill="#FFB27D"/>
<path d="M143.975 59.8522C143.975 59.8522 141.477 62.8326 138.295 61.5854C138.295 61.5854 137.61 59.921 137.603 58.6939C137.603 58.5432 137.603 58.3964 137.598 58.2573C137.581 56.8757 137.534 56.1007 137.534 56.1007C137.679 56.0396 142.399 54.0916 142.394 54.2539C142.314 57.9899 143.975 59.8522 143.975 59.8522Z" fill="#FFB27D"/>
<path d="M141.921 55.1471C141.466 55.9971 139.905 57.6546 137.595 58.2604C137.578 56.8788 137.531 56.1037 137.531 56.1037C137.664 56.0643 142.057 54.8936 141.921 55.1471Z" fill="#ED975D"/>
<path d="M136.544 55.9569C136.544 55.9569 141.851 57.211 142.578 53.876C143.304 50.5409 144.478 48.4569 141.117 47.515C137.757 46.5731 136.822 47.6997 136.31 48.7513C135.798 49.803 135.182 55.5443 136.544 55.9569Z" fill="#FFB27D"/>
<path d="M142.396 54.7847C142.468 54.8318 143.61 55.1842 145.773 50.8524C146.112 50.1724 146.344 48.7011 145.552 47.4014C144.76 46.1017 141.954 45.0833 139.623 44.6351C137.291 44.1869 136.732 45.509 136.183 46.835C135.606 48.2259 133.941 49.3718 133.941 49.3718C135.952 50.5015 138.374 48.8866 139.213 49.1516C140.052 49.4167 140.348 50.7465 140.411 51.173C140.474 51.5996 140.57 51.9527 141.625 51.5725C142.681 51.1924 142.103 53.0755 141.933 53.4355C141.934 53.4355 141.79 54.3953 142.396 54.7847Z" fill="#949494"/>
<path d="M156.068 137.957H159.281C159.955 137.957 160.704 137.279 160.891 136.037C161.077 134.796 162.463 134.117 162.763 133.101C163.063 132.085 161.527 130.654 161.527 130.654L161.27 130.322L161.004 129.976L158.457 130.578C158.457 130.578 158.395 131.188 158.356 131.964C158.323 132.555 158.319 133.149 158.345 133.741C158.422 135.096 157.968 136.556 156.771 136.819C155.573 137.083 156.068 137.957 156.068 137.957Z" fill="#2C3A64"/>
<path d="M133.695 137.957H142.214C142.276 137.947 142.337 137.929 142.395 137.904C142.964 137.618 142.785 135.432 142.717 134.752C142.704 134.627 142.695 134.554 142.695 134.554C142.695 134.554 139.697 132.144 139.287 133.989C139.274 134.047 139.259 134.103 139.243 134.159C138.723 135.885 136.4 136.669 135.055 136.887C134.029 137.055 133.763 137.657 133.695 137.957Z" fill="#2C3A64"/>
<path d="M135.412 88.5655C135.412 88.5655 135.867 94.272 136.402 101.132C137.129 110.45 138.002 121.897 138.089 124.065C138.238 127.83 138.839 133.854 138.839 133.854C138.839 133.854 140.26 135.284 143.107 134.681C143.107 134.681 145.643 126.083 146.368 116.986C146.379 116.837 146.39 116.687 146.402 116.536C147.076 107.276 148.124 87.775 148.124 87.775L135.412 88.5655Z" fill="#2B478B"/>
<path d="M135.412 88.5655C135.412 88.5655 135.867 94.272 136.402 101.132L146.368 116.986C146.379 116.837 146.39 116.687 146.402 116.536C147.076 107.276 148.124 87.775 148.124 87.775L135.412 88.5655Z" fill="#233862"/>
<path d="M137.49 89.2432C137.49 89.2432 145.69 109.91 151.082 119.623C156.473 129.336 158.158 132.046 158.158 132.046C158.158 132.046 161.247 130.804 161.529 129.96C161.529 129.96 159.466 111.209 155.856 106.639C153.815 104.055 151.419 96.305 151.307 93.5943C151.195 90.8837 150.577 85.5148 150.577 85.5148L137.49 89.2432Z" fill="#2B478B"/>
<path d="M156.187 85.4878L156.274 86.8169C156.274 86.8169 155.402 89.1783 157.845 90.3899C157.845 90.3899 158.891 90.8141 158.933 89.9951C158.975 89.176 158.842 89.4851 158.927 88.3322C159.012 87.1793 158.561 86.0913 157.803 85.7235L157.181 85.0018L156.187 85.4878Z" fill="#FFB27D"/>
<path d="M157.145 86.456C156.237 86.7489 156.092 86.6824 156.092 86.6824C156.092 86.6824 151.674 78.5959 151.227 77.8557C150.78 77.1154 141.85 68.7879 141.85 68.7879L144.145 60.1821C144.145 60.1821 154.304 73.4087 155.402 75.3065C157.215 78.4429 158.277 85.7266 158.277 85.7266C157.968 86.0632 157.578 86.3144 157.145 86.456Z" fill="#587DC7"/>
<path d="M133.681 72.1669C133.713 73.9341 133.815 75.9208 133.952 77.9383L133.978 78.2977C134.066 79.5479 134.161 80.8005 134.271 82.0221C134.315 82.512 134.362 82.9965 134.41 83.4725L134.418 83.5359C134.418 83.7144 134.443 83.9076 134.463 84.0838C134.911 88.6598 135.38 92.2745 135.468 92.3309C135.569 92.4031 135.694 92.435 135.817 92.4206C137.011 92.266 140.572 92.5419 143.488 91.9044C145.947 91.3828 148.067 90.393 150.312 89.0593C150.61 88.8823 151.289 88.4133 151.234 88.0625C151.18 87.6761 151.08 87.1205 150.952 86.4204C150.509 83.9864 149.746 79.799 149.486 74.8985C149.434 73.9856 149.361 73.0841 149.266 72.194C149.015 69.8851 148.614 67.6921 148.076 65.7441C147.077 62.1247 145.608 59.353 143.765 58.2689C143.524 58.1329 142.227 58.9643 141.038 59.7301C139.939 60.4379 138.782 60.6342 137.656 60.5352L136.665 61.6379C135.466 63.0396 134.189 64.9057 133.84 67.5585C133.814 67.7547 133.792 67.9626 133.773 68.1844C133.677 69.2669 133.653 70.6346 133.681 72.1669Z" fill="#648CDD"/>
<path d="M133.681 72.1669C133.713 73.9341 133.815 75.9208 133.952 77.9383L133.978 78.2976C140.796 74.0068 141.847 66.1544 141.847 66.1544C138.492 66.3028 135.828 67.0778 133.773 68.1867C133.677 69.2669 133.653 70.6346 133.681 72.1669Z" fill="#1E3D70"/>
<path d="M116.453 75.5468C116.383 74.5299 116.906 74.3607 116.906 74.3607C116.906 74.3607 127.186 72.4876 128.06 72.211C128.934 71.9344 136.408 64.1191 136.408 64.1191C136.408 64.1191 139.272 60.8737 141.617 61.5885C143.655 62.2121 144.452 63.8101 144.723 65.3331C144.877 66.2213 144.762 67.1358 144.392 67.9572C144.022 68.7785 143.414 69.4685 142.647 69.9369C139.139 72.1005 132.118 76.3636 130.461 76.8512C126.78 77.933 116.888 76.9377 116.888 76.9377C116.639 76.5138 116.49 76.0379 116.453 75.5468Z" fill="#648CDD"/>
<path opacity="0.2" d="M128.55 95.3994V133.819C128.547 134.899 128.119 135.933 127.359 136.697C126.6 137.46 125.571 137.891 124.497 137.894H85.2185C84.8846 137.894 84.5519 137.853 84.2279 137.772C83.6553 137.628 83.1195 137.364 82.6558 136.997C82.1922 136.63 81.8111 136.168 81.5379 135.642C81.5256 135.619 81.5141 135.596 81.5018 135.571C81.2608 135.086 81.1182 134.557 81.0822 134.015C81.0745 133.921 81.0714 133.825 81.0714 133.728V95.6459C81.0744 94.5862 81.3431 93.5444 81.8524 92.6167C82.3618 91.689 83.0955 90.9054 83.9858 90.3381H83.9904C84.9963 89.6919 85.7625 88.7306 86.1706 87.6028C86.5787 86.475 86.6061 85.2435 86.2484 84.0984H123.38C123.033 85.2057 123.046 86.3953 123.417 87.4946C123.789 88.594 124.499 89.5456 125.445 90.2114C125.539 90.2763 125.635 90.3397 125.731 90.3984C126.589 90.9183 127.299 91.6516 127.793 92.5275C128.286 93.4035 128.547 94.3926 128.55 95.3994Z" fill="#ED9F4A"/>
<path opacity="0.2" d="M128.55 95.3994V133.819C128.547 134.849 128.157 135.839 127.459 136.593C126.761 137.346 125.805 137.807 124.784 137.883C124.69 137.89 124.594 137.894 124.498 137.894H107.206C106.108 137.891 105.056 137.451 104.28 136.67C103.504 135.89 103.066 134.832 103.063 133.728V95.6459C103.066 94.5862 103.334 93.5443 103.844 92.6166C104.353 91.6889 105.087 90.9053 105.977 90.3381C106.983 89.6916 107.748 88.73 108.155 87.602C108.562 86.4741 108.588 85.2427 108.229 84.0984H123.377C123.013 85.2625 123.047 86.5156 123.475 87.6579C123.902 88.8001 124.697 89.7655 125.734 90.3999C126.591 90.92 127.3 91.6531 127.793 92.5288C128.286 93.4045 128.547 94.3931 128.55 95.3994Z" fill="#ED9F4A"/>
<path opacity="0.6" d="M125.445 90.2114C124.232 89.4812 118.977 86.8926 105.616 87.0023C90.3116 87.1283 84.1809 90.2384 83.9926 90.335C84.9974 89.6887 85.7627 88.7278 86.1704 87.6006C86.578 86.4735 86.6054 85.2428 86.2483 84.0984H123.38C123.033 85.2057 123.046 86.3953 123.417 87.4946C123.789 88.594 124.499 89.5456 125.445 90.2114Z" fill="#ED9F4A"/>
<path d="M124.22 83.8295V85.572C124.22 85.654 124.187 85.7326 124.13 85.7906C124.072 85.8485 123.994 85.8811 123.912 85.8811H85.715C85.6335 85.8811 85.5553 85.8485 85.4976 85.7906C85.44 85.7326 85.4076 85.654 85.4076 85.572V83.8295C85.4086 83.7479 85.4413 83.6698 85.4987 83.6121C85.5562 83.5543 85.6338 83.5214 85.715 83.5204H123.912C123.994 83.5204 124.072 83.553 124.13 83.611C124.187 83.6689 124.22 83.7476 124.22 83.8295Z" fill="#2B478B"/>
<path d="M124.22 83.8296V85.572C124.22 85.654 124.187 85.7326 124.13 85.7906C124.072 85.8486 123.994 85.8811 123.912 85.8811H109.453C109.371 85.8801 109.294 85.8472 109.236 85.7895C109.179 85.7317 109.146 85.6537 109.145 85.572V83.8296C109.146 83.748 109.179 83.67 109.237 83.6123C109.294 83.5546 109.372 83.5217 109.453 83.5205H123.908C123.948 83.5199 123.989 83.5274 124.027 83.5427C124.065 83.5579 124.099 83.5806 124.128 83.6094C124.157 83.6381 124.18 83.6724 124.196 83.7102C124.212 83.748 124.22 83.7886 124.22 83.8296Z" fill="#233862"/>
<path d="M98.7374 92.4577C98.7374 92.4577 97.7528 93.8486 96.8505 93.8702C95.9483 93.8919 94.5749 93.225 94.5749 93.225C94.5749 93.225 93.7463 91.3705 94.3082 90.641C94.5007 90.572 94.7074 90.5533 94.9091 90.5867C95.1108 90.6201 95.3007 90.7045 95.461 90.8319C95.5751 90.9167 95.6783 91.0154 95.7684 91.1255C95.8904 91.2789 96.0557 91.3915 96.2426 91.4485C96.8867 91.6456 97.6506 91.1819 97.9334 91.6294C98.0735 91.8475 98.2409 92.0467 98.4315 92.222C98.5266 92.3092 98.6289 92.388 98.7374 92.4577Z" fill="#F9DDBF"/>
<path d="M85.9031 102.508C85.9031 102.508 89.3831 94.0317 95.6461 93.8702C95.6461 93.8702 101.427 94.5162 101.748 102.508H85.9031Z" fill="#F9DDBF"/>
<path d="M93.9337 94.1291C93.9337 94.1291 96.4446 94.6908 97.2185 94.3609C97.2185 94.3609 97.3361 93.3054 96.2786 93.4537C95.5553 93.5549 95.0835 93.2049 94.8068 93.0674C94.4102 92.8626 93.8253 93.6879 93.9337 94.1291Z" fill="#F1A34F"/>
<path d="M96.1153 92.5388C95.9547 92.6594 95.4613 90.8319 95.4613 90.8319C95.5754 90.9167 95.6786 91.0154 95.7687 91.1255C95.8907 91.2789 96.056 91.3915 96.2429 91.4485C96.2399 91.5019 96.2706 92.4206 96.1153 92.5388Z" fill="#E5C1A1"/>
<path d="M98.432 92.222C98.3966 92.2428 97.2353 92.9422 97.0778 92.9422C96.9202 92.9422 97.934 91.6285 97.934 91.6285C98.074 91.847 98.2414 92.0464 98.432 92.222Z" fill="#E5C1A1"/>
<path d="M89.3029 100.141C89.2383 100.085 91.7622 96.4001 92.4608 96.3731C93.1595 96.346 94.7204 97.1806 95.8525 97.288C96.9846 97.3954 98.0813 97.0732 98.2957 97.7454C98.5102 98.4177 99.0989 100.804 98.7377 101.185C98.3764 101.566 90.6924 101.334 89.3029 100.141Z" fill="#E5C1A1"/>
<path opacity="0.5" d="M86.4884 134.991C86.2871 135.098 86.0849 135.198 85.8805 135.295C85.686 135.408 85.4885 135.519 85.2872 135.625C84.374 136.108 83.4168 136.502 82.4289 136.802C82.0679 136.47 81.7675 136.078 81.5412 135.642C81.3875 135.725 81.2338 135.805 81.0747 135.884V106.896C81.7893 106.992 82.4969 107.135 83.1929 107.325C87.0879 108.383 90.5564 110.875 92.6661 114.54C96.8539 121.82 94.091 130.977 86.4884 134.991Z" fill="#E2810E"/>
<path d="M89.1226 113.398C84.9324 105.754 75.3716 102.974 67.769 107.186C60.1665 111.399 57.4012 121.013 61.5921 128.656C65.7831 136.298 75.3431 139.08 82.9457 134.867C90.5483 130.653 93.3135 121.041 89.1226 113.398Z" fill="#E2810E"/>
<path d="M82.3358 135.187C82.1421 135.306 81.9451 135.421 81.7448 135.532C81.6772 135.57 81.6095 135.609 81.5419 135.642C81.3882 135.725 81.2345 135.805 81.0754 135.884C73.5904 139.579 64.4607 136.743 60.3912 129.322C56.51 122.243 58.5959 113.475 64.9649 108.871C65.4789 108.499 66.0145 108.159 66.5689 107.852C66.7702 107.74 66.9731 107.633 67.1776 107.532C67.382 107.431 67.5757 107.338 67.7763 107.248C69.2734 106.579 70.8653 106.149 72.4945 105.973C75.5724 105.646 78.6782 106.238 81.4225 107.677C84.1669 109.116 86.428 111.338 87.9225 114.063C92.0027 121.506 89.4888 130.813 82.3358 135.187Z" fill="#FFB93E"/>
<path d="M74.2661 136.261C70.7735 136.27 67.3978 134.997 64.7723 132.681C62.1469 130.365 60.4523 127.166 60.0065 123.683C59.5607 120.2 60.3944 116.673 62.3511 113.765C64.3078 110.856 67.2531 108.765 70.6341 107.885C74.0151 107.005 77.5995 107.395 80.7146 108.983C83.8297 110.571 86.2613 113.247 87.5531 116.51C88.845 119.772 88.9082 123.396 87.731 126.702C86.5538 130.008 84.2171 132.769 81.1593 134.466C79.0478 135.636 76.6773 136.253 74.2661 136.261ZM62.4526 128.392C63.9567 131.135 66.3603 133.269 69.2539 134.431C72.1475 135.592 75.3521 135.708 78.3216 134.76C81.291 133.812 83.8417 131.858 85.539 129.232C87.2363 126.605 87.9751 123.468 87.6297 120.354C87.2842 117.241 85.8758 114.345 83.6444 112.159C81.4131 109.973 78.4968 108.632 75.3925 108.365C72.2883 108.099 69.1881 108.922 66.6202 110.696C64.0523 112.47 62.1755 115.084 61.3098 118.093C60.8135 119.801 60.659 121.59 60.8552 123.358C61.0513 125.126 61.5943 126.837 62.4526 128.392Z" fill="#FFA412"/>
<path d="M62.4772 66.0556C62.5248 65.8624 58.2909 67.9804 58.0757 68.2192C56.0897 70.4345 56.6561 73.3245 57.7928 73.3523C58.5214 73.3701 58.38 74.5887 58.38 74.5887L66.496 71.1354C66.496 71.1354 65.5214 65.4034 62.4772 66.0556Z" fill="#8A8A8A"/>
<path d="M63.4772 66.506C63.4772 66.506 63.7669 63.3263 60.2331 63.3263C60.2331 63.3263 61.3045 63.6184 61.8578 64.2018C61.8578 64.2018 59.6044 62.8719 57.1512 64.9158C54.698 66.9596 56.2228 72.0873 55.4765 73.061C54.7303 74.0346 51.8259 74.2293 52.181 77.3766C52.536 80.5239 61.4036 84.4662 60.8303 87.0711C60.8303 87.0711 64.3042 81.9371 61.8202 79.5943C61.8202 79.5943 63.0307 80.7402 63.1544 82.1033C63.1544 82.1033 63.4826 79.4428 61.7987 78.5913C60.3084 77.8387 59.088 75.0839 59.2171 74.5917C59.3462 74.0995 63.4772 66.506 63.4772 66.506Z" fill="#8A8A8A"/>
<path d="M60.2711 81.4635C59.7262 78.8254 56.323 78.0071 54.7137 80.1615C54.4079 80.5653 54.2147 81.0438 54.1542 81.5477C53.786 84.5428 58.5488 96.7409 59.2313 97.8451C60.4725 99.8541 67.7845 106.749 67.7845 106.749L69.1318 105.928C69.1318 105.928 63.9456 97.1002 63.1424 96.2741C62.2117 95.3191 61.3033 86.473 60.2711 81.4635Z" fill="#ED985F"/>
<path d="M67.2698 105.932C67.2698 105.932 69.2365 104.633 69.9812 104.717C70.726 104.8 72.8802 105.424 72.9071 105.742C72.934 106.061 70.5054 106.26 70.3425 106.438C70.1795 106.615 68.5317 107.718 67.9346 107.371C67.3374 107.024 67.2698 105.932 67.2698 105.932Z" fill="#ED985F"/>
<path d="M53.5506 135.264L51.7936 135.004C51.7936 135.004 45.8858 130.284 45.0065 121.476C44.9143 120.571 44.9002 119.66 44.9643 118.753C44.9773 118.649 44.9557 118.543 44.9028 118.453C44.7137 118.161 44.2426 117.431 43.6054 116.393C42.9775 115.369 41.9031 113.435 40.7203 111.266C38.5906 107.357 36.1089 102.683 35.2597 101.194C32.549 96.4495 33.8555 93.259 33.8555 93.259C33.8555 93.259 41.4166 92.5079 43.4886 90.6851L44.2349 91.8441C44.2349 91.8441 45.8735 99.1362 45.7958 99.1702C45.8768 99.4175 45.9588 99.6699 46.0418 99.9275C47.3345 103.939 48.8216 108.954 49.6325 113.038C50.0882 115.336 50.3295 117.338 50.2004 118.702C50.1559 119.17 50.2097 119.89 50.3342 120.778C51.0643 126.005 53.5506 135.264 53.5506 135.264Z" fill="#2B478B"/>
<path d="M57.2367 137.499H49.9062C49.9062 137.499 49.7302 136.375 50.113 135.523C50.4804 134.705 51.003 134.68 50.1798 133.398C50.6456 133.88 52.1435 134.079 53.2033 133.939C53.3325 134.15 54.0403 135.571 54.4738 135.884C54.9526 136.227 57.0892 136.104 57.2367 137.499Z" fill="#233862"/>
<path d="M46.0402 99.9229C45.4 103.477 43.8882 109.382 40.7187 111.263C38.589 107.355 36.1074 102.681 35.2581 101.192C32.5474 96.4472 33.854 93.2567 33.854 93.2567C33.854 93.2567 41.415 92.5056 43.487 90.6827L44.2333 91.8418C44.2333 91.8418 45.8719 99.1339 45.7942 99.1679C45.8752 99.4137 45.9572 99.6653 46.0402 99.9229Z" fill="#233862"/>
<path d="M59.4838 79.8269C59.4838 79.8269 60.5206 80.9087 60.994 82.2084C60.994 82.2084 59.3409 86.9822 55.4766 87.5803C55.4766 87.5803 58.5339 79.8254 59.4838 79.8269Z" fill="#05F9DB"/>
<path d="M40.9032 93.8053L40.9278 92.4268C38.1925 92.773 31.506 89.1466 31.506 89.1466C31.506 89.1466 28.6478 91.0575 28.2573 96.5144C28.066 99.1788 26.8578 110.443 26.7202 113.807C26.6718 115.026 26.6557 115.893 26.6503 116.244C26.6437 116.349 26.6029 116.449 26.5342 116.528C25.9762 117.244 25.4809 118.007 25.054 118.809C20.8861 126.606 23.0657 137.199 23.0657 137.199L24.0341 136.952C24.0341 136.952 27.5579 125.969 29.8613 121.218C30.2525 120.412 30.6076 119.786 30.905 119.423C31.7712 118.365 32.6842 116.57 33.5842 114.407C35.2858 110.321 36.9374 104.929 38.1187 100.754C38.2032 100.772 40.9032 93.8053 40.9032 93.8053Z" fill="#2B478B"/>
<path d="M56.8837 84.6054C52.4184 83.5753 55.2697 77.2646 55.5303 77.3774C56.1451 77.2506 57.5078 76.158 58.7236 74.0253L58.8873 74.1683L61.6303 76.5861C61.6303 76.5861 60.9963 77.5265 60.4629 78.4476C60.0463 79.1685 59.6943 79.8786 59.7481 80.1228C59.9687 80.2975 58.075 84.8804 56.8837 84.6054Z" fill="#FFB27D"/>
<path d="M61.6302 76.5869C61.6302 76.5869 60.9954 77.5257 60.4628 78.4476C58.7574 77.3913 58.7558 75.2686 58.8873 74.1691L61.6302 76.5869Z" fill="#ED985F"/>
<path d="M61.7066 77.7978C61.7066 77.7978 57.5664 75.4796 59.0405 72.9111C60.5145 70.3426 60.9734 68.3111 63.6795 69.6812C66.3855 71.0512 66.3318 72.3277 66.0466 73.306C65.7615 74.2842 62.821 78.334 61.7066 77.7978Z" fill="#FFB27D"/>
<path d="M66.7464 71.8069C66.5574 70.6656 65.9779 70.5566 65.5782 70.6331C64.0496 68.0909 61.5517 69.0831 61.5517 69.0831C60.2175 70.766 58.2885 71.0535 58.2885 71.0535C58.2885 71.0535 58.7688 71.9522 60.7478 72.5085C61.3519 72.6785 62.0382 72.5757 62.7 72.354C61.8161 72.8357 60.8711 73.1939 59.8909 73.4188C62.4994 73.6591 64.981 71.2606 65.2385 71.0048C65.3592 71.3757 65.5705 72.1538 65.4437 72.7226C65.2723 73.4953 64.5898 74.8954 65.0064 75.077C65.0072 75.0747 67.0346 73.5184 66.7464 71.8069Z" fill="#8A8A8A"/>
<path d="M28.8999 137.498H21.5694C21.5694 137.498 21.3934 136.375 21.7769 135.523C22.1435 134.705 22.7184 134.333 22.5808 133.344C23.0465 133.827 23.8051 134.367 24.8649 134.223C24.9948 134.435 25.7034 135.567 26.1369 135.88C26.6157 136.227 28.7523 136.104 28.8999 137.498Z" fill="#233862"/>
<path d="M57.4097 89.6102C56.4666 89.9409 55.1424 90.1217 53.7882 90.2701C51.8607 90.4818 49.8686 90.6263 48.8287 91.0428C48.4444 91.1974 48.1939 91.3836 48.1147 91.6239C47.6667 92.9885 45.6684 95.0965 45.6684 95.0965C32.9104 94.5123 31.5062 89.1466 31.5062 89.1466C40.0933 79.1051 54.6344 76.199 54.6344 76.199C54.6344 76.199 55.6727 75.7562 58.2881 77.8456C60.0335 79.2411 59.8037 79.7774 59.8037 79.7774C59.8037 79.7774 60.1857 88.6335 57.4097 89.6102Z" fill="#00E3C8"/>
<path d="M53.788 90.267C51.8604 90.4787 49.8683 90.6232 48.8285 91.0397C48.4019 84.6393 51.4062 79.8253 51.4062 79.8253C51.4062 79.8253 53.366 87.8453 53.788 90.267Z" fill="#00786A"/>
<path d="M55.7721 78.5883C55.7721 78.5883 50.9417 79.0681 50.5544 82.22C50.167 85.3719 55.1857 98.2307 55.9043 99.3944C57.2108 101.513 64.9179 108.777 64.9179 108.777L66.3382 107.911C66.3382 107.911 60.873 98.6093 60.0268 97.7385C58.698 96.3762 57.4084 79.6816 55.7721 78.5883Z" fill="#FFB27D"/>
<path d="M50.6933 84.124C50.7064 84.1951 55.151 85.5836 58.0131 84.124C58.0131 84.124 58.6279 77.4871 55.2094 77.8472C51.7908 78.2073 49.7711 79.2891 49.685 80.9327C49.5989 82.5762 50.6933 84.124 50.6933 84.124Z" fill="#05F9DB"/>
<path d="M64.4792 107.858C64.4792 107.858 66.2123 106.258 66.9602 106.22C67.708 106.181 69.9352 106.452 70.0121 106.761C70.0889 107.07 67.7256 107.66 67.5927 107.858C67.4597 108.056 66.0102 109.415 65.3639 109.172C64.7175 108.928 64.4792 107.858 64.4792 107.858Z" fill="#FFB27D"/>
<path d="M198.775 137.469H0.225186C0.100819 137.469 0 137.57 0 137.696V137.774C0 137.899 0.100819 138 0.225186 138H198.775C198.899 138 199 137.899 199 137.774V137.696C199 137.57 198.899 137.469 198.775 137.469Z" fill="#2E3552"/>
<path d="M78.9784 118.649H77.9045C77.7842 118.337 77.6226 118.043 77.4244 117.777H78.5316L79.4683 116.361L78.9784 115.977H71.4336L70.4969 117.393L70.9849 117.777H74.6416C74.943 117.722 75.2536 117.779 75.5176 117.939C75.7817 118.099 75.9818 118.35 76.082 118.649H71.2573L70.3225 120.065L70.8105 120.449H76.1232C75.9614 120.854 75.6872 121.199 75.3352 121.442C74.9833 121.685 74.5693 121.815 74.1458 121.815H70.5831V123.434L73.456 128.651L73.946 129.035H75.9174L72.9935 123.618H74.673C75.5218 123.609 76.339 123.284 76.9737 122.702C77.6084 122.12 78.0176 121.321 78.1259 120.452H78.5316L79.4683 119.035L78.9784 118.649Z" fill="#D68900"/>
<path d="M76.9006 117.401H78.0012L78.9303 115.977H71.427L70.4959 117.401H74.1307C74.5318 117.401 74.9246 117.52 75.2638 117.744C75.603 117.967 75.8746 118.287 76.0474 118.665H71.2517L70.3225 120.089H76.2052C76.1032 120.587 75.8408 121.034 75.4619 121.354C75.0829 121.674 74.6103 121.849 74.1229 121.85H70.5816V123.478L73.4372 128.726H75.3968L72.4944 123.27H74.1638C75.0047 123.262 75.8146 122.937 76.4445 122.355C77.0743 121.773 77.4819 120.973 77.5921 120.102H77.9973L78.9264 118.677H77.4986C77.3804 118.215 77.1773 117.782 76.9006 117.401Z" fill="#FFCC00"/>
<path d="M125.795 19.6577V13.9048H128.07C128.506 13.9048 128.877 13.9825 129.185 14.1379C129.495 14.2915 129.73 14.5096 129.892 14.7924C130.055 15.0733 130.137 15.4039 130.137 15.784C130.137 16.166 130.054 16.4947 129.889 16.77C129.724 17.0434 129.484 17.2531 129.171 17.3992C128.859 17.5453 128.482 17.6183 128.039 17.6183H126.516V16.6408H127.842C128.075 16.6408 128.268 16.6089 128.422 16.5453C128.576 16.4816 128.69 16.3861 128.765 16.2587C128.842 16.1314 128.881 15.9732 128.881 15.784C128.881 15.593 128.842 15.4319 128.765 15.3009C128.69 15.1698 128.575 15.0705 128.419 15.0031C128.265 14.9338 128.071 14.8992 127.836 14.8992H127.014V19.6577H125.795ZM128.909 17.0397L130.342 19.6577H128.996L127.594 17.0397H128.909Z" fill="#5ABBA1"/>
<path d="M130.935 19.6577V13.9048H134.821V14.9076H132.154V16.2784H134.621V17.2812H132.154V18.6549H134.832V19.6577H130.935Z" fill="#5ABBA1"/>
<path d="M140.55 13.9048V19.6577H139.497L136.988 16.0368H136.946V19.6577H135.726V13.9048H136.796L139.285 17.5228H139.336V13.9048H140.55Z" fill="#5ABBA1"/>
<path d="M141.274 14.9076V13.9048H146.01V14.9076H144.245V19.6577H143.039V14.9076H141.274Z" fill="#5ABBA1"/>
<path d="M148.498 19.6577V13.9048H150.773C151.209 13.9048 151.58 13.9825 151.888 14.1379C152.198 14.2915 152.434 14.5096 152.595 14.7924C152.758 15.0733 152.84 15.4039 152.84 15.784C152.84 16.166 152.757 16.4947 152.592 16.77C152.427 17.0434 152.188 17.2531 151.874 17.3992C151.563 17.5453 151.185 17.6183 150.742 17.6183H149.219V16.6408H150.545C150.778 16.6408 150.971 16.6089 151.125 16.5453C151.279 16.4816 151.394 16.3861 151.469 16.2587C151.546 16.1314 151.584 15.9732 151.584 15.784C151.584 15.593 151.546 15.4319 151.469 15.3009C151.394 15.1698 151.278 15.0705 151.122 15.0031C150.969 14.9338 150.774 14.8992 150.54 14.8992H149.717V19.6577H148.498ZM151.612 17.0397L153.046 19.6577H151.7L150.297 17.0397H151.612Z" fill="#5ABBA1"/>
<path d="M153.638 19.6577V13.9048H157.524V14.9076H154.857V16.2784H157.324V17.2812H154.857V18.6549H157.535V19.6577H153.638Z" fill="#5ABBA1"/>
<path d="M163.518 15.9189H162.284C162.262 15.7597 162.216 15.6183 162.146 15.4947C162.077 15.3692 161.988 15.2625 161.879 15.1745C161.77 15.0864 161.644 15.019 161.502 14.9722C161.361 14.9254 161.208 14.902 161.043 14.902C160.744 14.902 160.484 14.9759 160.263 15.1239C160.041 15.27 159.869 15.4834 159.747 15.7644C159.625 16.0434 159.564 16.3823 159.564 16.7812C159.564 17.1913 159.625 17.5359 159.747 17.815C159.871 18.094 160.044 18.3047 160.266 18.447C160.487 18.5893 160.743 18.6605 161.034 18.6605C161.198 18.6605 161.349 18.6389 161.488 18.5959C161.628 18.5528 161.753 18.4901 161.862 18.4077C161.971 18.3234 162.061 18.2213 162.132 18.1015C162.206 17.9816 162.256 17.8449 162.284 17.6914L163.518 17.697C163.486 17.961 163.406 18.2157 163.278 18.461C163.153 18.7045 162.983 18.9227 162.769 19.1155C162.557 19.3066 162.303 19.4582 162.008 19.5706C161.716 19.6811 161.384 19.7363 161.015 19.7363C160.5 19.7363 160.04 19.6202 159.635 19.388C159.231 19.1558 158.912 18.8197 158.678 18.3796C158.445 17.9395 158.328 17.4067 158.328 16.7812C158.328 16.1539 158.447 15.6202 158.683 15.1801C158.92 14.74 159.241 14.4048 159.646 14.1744C160.052 13.9422 160.508 13.8261 161.015 13.8261C161.349 13.8261 161.658 13.8729 161.944 13.9666C162.231 14.0602 162.485 14.1969 162.707 14.3767C162.928 14.5546 163.108 14.7728 163.247 15.0312C163.388 15.2896 163.478 15.5855 163.518 15.9189Z" fill="#5ABBA1"/>
<path d="M164.329 19.6577V13.9048H168.214V14.9076H165.548V16.2784H168.014V17.2812H165.548V18.6549H168.225V19.6577H164.329Z" fill="#5ABBA1"/>
<path d="M170.339 13.9048V19.6577H169.12V13.9048H170.339Z" fill="#5ABBA1"/>
<path d="M171.279 19.6577V13.9048H173.554C173.991 13.9048 174.364 13.9881 174.672 14.1548C174.98 14.3196 175.214 14.549 175.376 14.843C175.539 15.1351 175.621 15.4722 175.621 15.8542C175.621 16.2363 175.538 16.5734 175.373 16.8655C175.208 17.1576 174.968 17.3852 174.655 17.5481C174.343 17.711 173.966 17.7925 173.523 17.7925H172.073V16.8177H173.326C173.561 16.8177 173.754 16.7775 173.906 16.697C174.06 16.6146 174.174 16.5013 174.249 16.3571C174.326 16.211 174.365 16.0434 174.365 15.8542C174.365 15.6632 174.326 15.4966 174.249 15.3542C174.174 15.21 174.06 15.0986 173.906 15.02C173.752 14.9394 173.557 14.8992 173.32 14.8992H172.498V19.6577H171.279Z" fill="#5ABBA1"/>
<path d="M176.13 14.9076V13.9048H180.866V14.9076H179.1V19.6577H177.895V14.9076H176.13Z" fill="#5ABBA1"/>
<path d="M184.71 15.5593C184.688 15.3327 184.591 15.1567 184.42 15.0312C184.25 14.9057 184.018 14.843 183.725 14.843C183.526 14.843 183.358 14.8711 183.221 14.9273C183.084 14.9816 182.979 15.0574 182.905 15.1548C182.834 15.2522 182.798 15.3627 182.798 15.4863C182.795 15.5893 182.816 15.6791 182.863 15.7559C182.912 15.8327 182.979 15.8992 183.063 15.9554C183.148 16.0097 183.245 16.0574 183.356 16.0986C183.467 16.138 183.585 16.1717 183.711 16.1998L184.229 16.3234C184.48 16.3795 184.711 16.4544 184.922 16.5481C185.132 16.6417 185.314 16.7569 185.468 16.8936C185.622 17.0303 185.741 17.1913 185.825 17.3767C185.912 17.5621 185.956 17.7747 185.958 18.0144C185.956 18.3665 185.866 18.6717 185.687 18.9301C185.511 19.1867 185.256 19.3862 184.922 19.5285C184.589 19.6689 184.189 19.7392 183.719 19.7392C183.254 19.7392 182.848 19.668 182.503 19.5257C182.159 19.3833 181.891 19.1727 181.698 18.8936C181.506 18.6127 181.406 18.2653 181.396 17.8515H182.576C182.589 18.0444 182.645 18.2054 182.742 18.3346C182.842 18.462 182.974 18.5584 183.139 18.624C183.306 18.6876 183.495 18.7195 183.705 18.7195C183.912 18.7195 184.091 18.6895 184.243 18.6296C184.397 18.5697 184.516 18.4863 184.601 18.3796C184.685 18.2728 184.727 18.1502 184.727 18.0116C184.727 17.8824 184.689 17.7738 184.612 17.6857C184.537 17.5977 184.426 17.5228 184.28 17.461C184.135 17.3992 183.958 17.343 183.747 17.2925L183.119 17.1352C182.633 17.0172 182.249 16.8327 181.968 16.5818C181.686 16.3308 181.546 15.9928 181.548 15.5677C181.546 15.2194 181.639 14.9151 181.827 14.6548C182.017 14.3945 182.277 14.1913 182.607 14.0452C182.937 13.8991 183.313 13.8261 183.733 13.8261C184.161 13.8261 184.535 13.8991 184.854 14.0452C185.175 14.1913 185.425 14.3945 185.603 14.6548C185.781 14.9151 185.873 15.2166 185.879 15.5593H184.71Z" fill="#5ABBA1"/>
</svg>
