<svg width="223" height="134" viewBox="0 0 223 134" fill="none" xmlns="http://www.w3.org/2000/svg">
<path d="M10.3932 134C10.3932 134 -5.77214 114.213 2.2183 75.994C7.24426 51.9534 28.3548 40.0452 56.654 41.1823C66.3818 41.573 82.2084 29.9255 104.95 15.6181C153.594 -14.9874 223.958 -1.9892 207.118 66.8521C198.968 100.165 232.754 100.7 215.961 134H10.3932Z" fill="#EBF3FA"/>
<path d="M190.333 29.5169C190.259 24.6585 182.184 24.1257 182.184 24.1257C182.184 24.1257 174.913 30.7539 173.342 30.5573C171.77 30.3608 178.446 23.683 178.446 23.683C175.568 22.6516 167.127 24.345 167.127 24.345C167.127 24.345 165.227 33.746 163.753 33.1701C162.278 32.5943 165.861 24.9313 165.861 24.9313C162.788 25.0597 159.274 27.6993 159.274 27.6993C154.56 32.2532 160.682 38.0383 160.682 38.0383C160.682 38.0383 159.953 41.2822 157.008 44.4692C156.498 44.962 156.036 45.5012 155.627 46.0797L156.406 46.2771C156.523 46.0854 156.644 45.9027 156.771 45.7297L156.777 45.7224C156.859 45.616 156.981 45.4649 157.13 45.2814C157.486 44.8753 157.735 44.5772 157.9 44.3563C158.984 43.0828 160.496 41.4487 161.282 41.2245C161.24 41.0959 161.215 40.9624 161.207 40.8274C161.231 40.9541 161.256 41.0856 161.282 41.2245C161.888 44.4026 168.43 46.5646 172.337 46.7473C176.243 46.9301 174.891 45.4787 173.325 43.281C171.759 41.0832 167.456 40.4692 166.386 39.4929C165.315 38.5167 167.297 38.3112 169.723 39.1283C172.15 39.9453 172.757 42.7197 176.658 44.1118C180.559 45.5039 185.525 38.7872 185.525 38.7872C182.546 38.9398 177.984 36.1711 178.036 35.1762C178.088 34.1813 185.394 36.1321 186.609 36.137C187.824 36.1419 190.407 34.3762 190.333 29.5169Z" fill="#BCCFEC"/>
<path d="M197.319 77.0669C201.119 70.6742 191.021 63.5717 191.021 63.5717C191.021 63.5717 176.225 66.4411 174.335 64.9378C172.444 63.4344 186.499 60.0273 186.499 60.0273C183.574 56.3985 171.212 51.9055 171.212 51.9055C171.212 51.9055 161.197 62.6523 159.736 60.7323C158.275 58.8123 169.092 51.6659 169.092 51.6659C164.981 49.3918 158.284 50.0464 158.284 50.0464C148.487 52.2393 151.828 64.643 151.828 64.643C151.828 64.643 148.276 68.2929 141.882 70.1106C141.882 70.1106 140.611 70.3542 138.79 71.1136L139.647 71.9883C139.953 71.8316 140.257 71.6894 140.562 71.5644C140.563 71.5639 140.564 71.5637 140.565 71.5637C140.566 71.5637 140.567 71.5639 140.568 71.5644L140.581 71.5587C140.776 71.4872 141.053 71.3857 141.397 71.2647C142.185 71.021 142.75 70.8261 143.143 70.6685C145.578 69.8693 148.858 68.9386 150.064 69.2708C150.112 69.0693 150.186 68.8749 150.285 68.6925L150.064 69.2708C148.305 73.8945 155.1 81.9042 160.046 85.2431C164.992 88.582 164.394 85.6167 164.114 81.5071C163.835 77.3974 158.719 73.183 158.11 71.0632C157.5 68.9435 160.244 70.2462 162.753 73.2358C165.262 76.2255 163.827 80.3262 167.797 85.2366C171.766 90.1471 183.614 85.3373 183.614 85.3373C179.608 83.1729 175.882 75.942 176.747 74.6864C177.613 73.4308 185.572 81.7719 187.152 82.7432C188.732 83.7146 193.519 83.4596 197.319 77.0669Z" fill="#CDE0FB"/>
<path d="M60.6927 53.2895C62.9461 48.686 70.89 51.7674 70.89 51.7674C70.89 51.7674 74.8505 61.3244 76.4417 61.8385C78.033 62.3526 74.6537 53.0068 74.6537 53.0068C77.8631 53.3016 85.1572 58.6702 85.1572 58.6702C85.1572 58.6702 82.7462 68.4854 84.4118 68.5918C86.0773 68.6982 86.1001 59.7934 86.1001 59.7934C88.9756 61.283 91.1424 65.3634 91.1424 65.3634C93.5917 71.8031 85.1547 74.6027 85.1547 74.6027C85.1547 74.6027 84.393 78.022 85.7711 82.3712C85.7711 82.3712 86.1132 83.1907 86.3647 84.5219L85.5335 84.3595C85.5082 84.1247 85.4748 83.8965 85.4315 83.6748C85.4319 83.6716 85.4319 83.6683 85.4315 83.6651C85.3988 83.5262 85.3498 83.3288 85.2927 83.0884C85.1294 82.5459 85.0322 82.1479 84.9743 81.8628C84.5114 80.1654 83.8027 77.9335 83.1528 77.3706C83.2513 77.2668 83.3356 77.1504 83.4035 77.0247L83.1528 77.3706C81.1477 80.1321 73.9336 79.2882 70.1242 77.7256C66.3147 76.1629 68.257 75.3792 70.7381 73.9798C73.2193 72.5804 77.6011 73.9051 79.0592 73.4478C80.5174 72.9905 78.7204 71.9169 76.0384 71.6163C73.3564 71.3158 71.5301 73.6955 67.1825 73.2886C62.835 72.8817 61.1156 64.2734 61.1156 64.2734C63.8915 65.7435 69.4857 65.1294 69.8833 64.1565C70.2809 63.1835 62.4334 61.8011 61.2716 61.2635C60.1098 60.7258 58.4353 57.8929 60.6927 53.2895Z" fill="#CDE0FB"/>
<path d="M157.663 11.9933H87.0669C81.544 11.9933 77.0669 16.4705 77.0669 21.9933V123.075C77.0669 128.598 81.544 133.075 87.0669 133.075H157.663C163.186 133.075 167.663 128.598 167.663 123.075V21.9933C167.663 16.4705 163.186 11.9933 157.663 11.9933Z" fill="#ABDDDA"/>
<path d="M163.346 15.9178H82.38V127.643H163.346V15.9178Z" fill="white"/>
<path d="M106.351 11.9933V16.0948C106.351 16.6332 106.457 17.1664 106.664 17.6639C106.871 18.1614 107.174 18.6135 107.557 18.9944C107.939 19.3752 108.394 19.6774 108.894 19.8836C109.393 20.0899 109.929 20.1961 110.471 20.1963H132.596C133.137 20.1961 133.673 20.0899 134.173 19.8836C134.673 19.6774 135.127 19.3752 135.51 18.9944C135.892 18.6135 136.196 18.1614 136.403 17.6639C136.609 17.1664 136.716 16.6332 136.716 16.0948V11.9933H106.351Z" fill="#39AFA8"/>
<path d="M126.014 122.564C124.73 122.979 123.477 123.195 122.492 123.113C120.99 122.988 120.144 122.205 120.111 120.908C120.084 119.879 120.513 118.979 121.355 118.248C121.347 118.178 121.34 118.107 121.335 118.037C121.28 117.311 121.436 116.83 121.798 116.604C122.385 116.241 123.256 116.738 123.292 116.759L123.097 117.09C122.902 116.977 122.323 116.729 122.002 116.928C121.725 117.101 121.692 117.578 121.716 117.961C122.401 117.468 123.296 117.068 124.386 116.773C125.21 116.556 126.052 116.413 126.902 116.345C126.905 116.265 126.912 116.186 126.924 116.108C126.95 115.93 127.012 115.721 127.188 115.68C127.255 115.665 127.384 115.667 127.5 115.842C127.579 115.984 127.62 116.145 127.618 116.308C127.897 116.302 128.157 116.308 128.387 116.324L128.394 116.309C128.344 115.863 128.364 115.412 128.452 114.972C128.55 114.528 128.71 114.304 128.935 114.282C129 114.275 129.065 114.29 129.12 114.325C129.175 114.359 129.218 114.41 129.241 114.47C129.367 114.772 129.131 115.585 128.79 116.366C129.11 116.42 129.327 116.507 129.395 116.631C129.427 116.691 129.436 116.76 129.421 116.825C129.406 116.891 129.368 116.95 129.314 116.99C129.056 117.228 128.85 117.168 128.749 117.111C128.66 117.054 128.588 116.972 128.543 116.876C128.285 117.384 128.004 117.818 127.783 118.002C127.725 118.059 127.65 118.097 127.569 118.108C127.488 118.12 127.406 118.105 127.334 118.067C127.297 118.045 127.265 118.017 127.237 117.985C127.151 118.193 127.053 118.395 126.943 118.59C126.539 119.295 126.085 119.658 125.628 119.636C125.444 119.626 125.269 119.549 125.138 119.419C124.903 119.935 124.605 120.421 124.253 120.866C123.933 121.259 123.524 121.404 123.101 121.272C122.353 121.04 121.676 119.963 121.423 118.688C120.784 119.309 120.472 120.047 120.494 120.891C120.522 121.998 121.205 122.613 122.521 122.723C125.844 122.997 131.67 119.925 132.112 117.664C131.755 119.51 128.99 121.605 126.014 122.564ZM121.762 118.401C121.965 119.747 122.642 120.735 123.217 120.914C123.487 120.995 123.735 120.903 123.951 120.633C124.333 120.152 124.645 119.62 124.88 119.053C124.807 118.893 124.752 118.725 124.716 118.553C124.623 118.109 124.608 117.497 124.716 117.083C124.09 117.232 123.481 117.443 122.897 117.713C122.495 117.9 122.114 118.131 121.762 118.401ZM125.309 119.031C125.343 119.093 125.391 119.147 125.45 119.187C125.51 119.227 125.578 119.252 125.649 119.261C125.941 119.273 126.292 118.963 126.61 118.409C126.772 118.124 126.905 117.825 127.008 117.515C126.945 117.259 126.909 116.998 126.9 116.735C126.472 116.769 126.002 116.826 125.526 116.913C125.778 117.397 125.633 118.215 125.311 119.031H125.309ZM127.412 117.52C127.473 117.7 127.526 117.735 127.526 117.736C127.742 117.552 127.989 117.153 128.212 116.698C128.029 116.691 127.823 116.69 127.598 116.698C127.561 116.977 127.499 117.252 127.412 117.52ZM125.148 117.027C125.05 117.231 124.98 117.882 125.099 118.462C125.293 117.827 125.333 117.276 125.148 117.028V117.027ZM128.889 114.814C128.847 114.946 128.816 115.082 128.798 115.22C128.837 115.087 128.868 114.951 128.889 114.814Z" fill="#F99746"/>
<path d="M106.696 65.8361H92.0524V51.2688H106.696V65.8361ZM92.7423 65.1498H106.005V51.9551H92.7423V65.1498Z" fill="#ABDDDA"/>
<path d="M99.7372 62.9081C99.5849 62.9081 99.4345 62.8745 99.2968 62.8099C99.159 62.7454 99.0373 62.6513 98.9403 62.5345L94.4214 57.0929C94.3348 56.9888 94.2697 56.8687 94.2298 56.7395C94.1898 56.6103 94.1759 56.4746 94.1887 56.34C94.2015 56.2055 94.2408 56.0748 94.3044 55.9553C94.368 55.8359 94.4546 55.7301 94.5593 55.644C94.664 55.5579 94.7848 55.4931 94.9146 55.4534C95.0445 55.4137 95.1809 55.3998 95.3162 55.4125C95.4514 55.4253 95.5828 55.4644 95.7029 55.5277C95.8229 55.5909 95.9293 55.6771 96.0159 55.7813L99.6 60.0939L106.087 49.2732C106.227 49.0387 106.456 48.8693 106.722 48.8025C106.988 48.7356 107.271 48.7767 107.506 48.9167C107.742 49.0567 107.912 49.2842 107.98 49.549C108.047 49.8139 108.006 50.0945 107.865 50.3291L100.626 62.4054C100.541 62.5469 100.424 62.6662 100.283 62.7531C100.142 62.84 99.9823 62.8921 99.8172 62.9049C99.7902 62.9073 99.7641 62.9081 99.7372 62.9081Z" fill="#F99746"/>
<path d="M106.696 88.6128H92.0524V74.0455H106.696V88.6128ZM92.7423 87.9265H106.005V74.7318H92.7423V87.9265Z" fill="#ABDDDA"/>
<path d="M99.7374 85.5599C99.5852 85.5598 99.4348 85.5262 99.297 85.4617C99.1593 85.3971 99.0376 85.303 98.9406 85.1863L94.4216 79.7446C94.3323 79.6408 94.2646 79.5204 94.2226 79.3903C94.1806 79.2602 94.165 79.1231 94.1768 78.987C94.1886 78.8508 94.2275 78.7184 94.2914 78.5974C94.3552 78.4764 94.4425 78.3692 94.5484 78.2822C94.6543 78.1951 94.7766 78.1299 94.908 78.0904C95.0395 78.0508 95.1776 78.0377 95.3142 78.0518C95.4509 78.066 95.5833 78.107 95.7038 78.1726C95.8243 78.2381 95.9305 78.3269 96.0161 78.4338L99.6003 82.7456L106.083 71.9217C106.223 71.6871 106.452 71.5178 106.718 71.4509C106.985 71.3841 107.267 71.4252 107.503 71.5652C107.738 71.7052 107.909 71.9326 107.976 72.1975C108.043 72.4624 108.002 72.743 107.861 72.9775L100.627 85.0563C100.542 85.1979 100.424 85.3171 100.283 85.404C100.142 85.4909 99.9826 85.543 99.8174 85.5558C99.7905 85.5582 99.7644 85.5599 99.7374 85.5599Z" fill="#F99746"/>
<path d="M106.696 110.919H92.0524V96.3513H106.696V110.919ZM92.7423 110.232H106.005V97.0368H92.7423V110.232Z" fill="#ABDDDA"/>
<path d="M99.7372 107.65C99.5848 107.651 99.4344 107.617 99.2966 107.553C99.1588 107.488 99.0372 107.394 98.9403 107.277L94.4214 101.835C94.3348 101.731 94.2697 101.611 94.2298 101.482C94.1898 101.353 94.1759 101.217 94.1887 101.082C94.2015 100.948 94.2408 100.817 94.3044 100.698C94.368 100.578 94.4546 100.472 94.5593 100.386C94.664 100.3 94.7848 100.235 94.9146 100.196C95.0445 100.156 95.1809 100.142 95.3162 100.155C95.4514 100.168 95.5828 100.207 95.7029 100.27C95.8229 100.333 95.9293 100.419 96.0159 100.524L99.6 104.836L106.082 94.0123C106.223 93.7777 106.452 93.6083 106.718 93.5415C106.984 93.4746 107.266 93.5157 107.502 93.6557C107.738 93.7957 107.908 94.0232 107.976 94.2881C108.043 94.5529 108.001 94.8335 107.861 95.0681L100.626 107.146C100.542 107.288 100.424 107.407 100.283 107.494C100.142 107.581 99.9824 107.633 99.8172 107.646C99.7902 107.65 99.7641 107.65 99.7372 107.65Z" fill="#F99746"/>
<g opacity="0.5">
<path opacity="0.5" d="M135.658 54.6677H116.564V56.0891H135.658V54.6677Z" fill="#ABDDDA"/>
<path opacity="0.5" d="M151.884 54.6677H147.544V56.0891H151.884V54.6677Z" fill="#ABDDDA"/>
<path opacity="0.5" d="M135.658 61.0157H116.564V62.4371H135.658V61.0157Z" fill="#ABDDDA"/>
<path opacity="0.5" d="M151.883 61.0157H145.413V62.4371H151.883V61.0157Z" fill="#ABDDDA"/>
<path opacity="0.5" d="M151.883 57.8418H146.565V59.2631H151.883V57.8418Z" fill="#ABDDDA"/>
<path opacity="0.5" d="M135.989 57.8418H130.671V59.2631H135.989V57.8418Z" fill="#ABDDDA"/>
<path opacity="0.5" d="M128.381 57.8418H116.564V59.2631H128.381V57.8418Z" fill="#ABDDDA"/>
</g>
<g opacity="0.5">
<path opacity="0.5" d="M134.929 76.5439H116.564V77.9652H134.929V76.5439Z" fill="#ABDDDA"/>
<path opacity="0.5" d="M135.658 82.8919H116.564V84.3132H135.658V82.8919Z" fill="#ABDDDA"/>
<path opacity="0.5" d="M134.692 79.7179H129.75V81.1392H134.692V79.7179Z" fill="#ABDDDA"/>
<path opacity="0.5" d="M128.381 79.7179H116.564V81.1392H128.381V79.7179Z" fill="#ABDDDA"/>
</g>
<g opacity="0.5">
<path opacity="0.5" d="M135.658 99.0396H116.564V100.461H135.658V99.0396Z" fill="#ABDDDA"/>
<path opacity="0.5" d="M135.658 105.388H116.564V106.809H135.658V105.388Z" fill="#ABDDDA"/>
<path opacity="0.5" d="M138.054 102.214H129.75V103.635H138.054V102.214Z" fill="#ABDDDA"/>
<path opacity="0.5" d="M128.381 102.214H116.564V103.635H128.381V102.214Z" fill="#ABDDDA"/>
</g>
<path d="M102.07 118.706H92.0524V119.715H102.07V118.706Z" fill="#ABDDDA"/>
<path d="M114.407 118.706H104.389V119.715H114.407V118.706Z" fill="#ABDDDA"/>
<path d="M105.945 120.944H92.0524V121.953H105.945V120.944Z" fill="#ABDDDA"/>
<path d="M158.283 86.0261C158.283 86.0261 159.025 88.3002 158.962 88.8216C158.898 89.343 158.432 91.1201 158.099 91.5749C157.766 92.0297 157.601 89.7215 157.338 89.3747C157.074 89.0279 157.284 90.2437 157.098 90.3558C156.912 90.4679 156.526 89.4624 156.358 89.1059C156.19 88.7493 156.766 87.4401 156.766 86.5264C156.766 85.6127 158.283 86.0261 158.283 86.0261Z" fill="#FFB27D"/>
<path d="M140.818 67.955C140.613 65.3463 143.461 63.5579 145.71 64.9142L145.848 64.9995C149.215 67.1558 156.482 77.2171 156.981 78.2251C157.481 79.233 158.957 87.2516 158.957 87.2516C158.957 87.2516 157.133 87.9152 156.28 87.2265C156.28 87.2265 153.322 79.622 152.885 79.2419C152.448 78.8618 141.053 72.5008 140.956 70.117C140.93 69.4868 140.88 68.729 140.818 67.955Z" fill="#3764AE"/>
<path d="M111.478 68.7011L112.469 71.5313L126.78 66.5737L125.789 63.7434L111.478 68.7011Z" fill="#F99746"/>
<path d="M108.657 71.2712L112.48 71.5335L111.489 68.703L108.657 71.2712Z" fill="#F9DDBF"/>
<path d="M127.792 64.1094L128.106 65.0028C128.198 65.2671 128.181 65.557 128.059 65.8089C127.936 66.0608 127.718 66.254 127.453 66.3461L126.791 66.5751L125.8 63.7447L126.52 63.4954C126.644 63.4525 126.776 63.4344 126.907 63.4421C127.038 63.4498 127.166 63.4831 127.284 63.5401C127.402 63.5972 127.508 63.6768 127.595 63.7744C127.682 63.8721 127.749 63.9859 127.792 64.1094Z" fill="#F9DDBF"/>
<path d="M161.152 126.845C161.152 126.845 162.509 128.078 162.244 128.957C161.979 129.837 160.754 130.419 160.588 131.487C160.422 132.555 159.76 133.142 159.164 133.142H156.322C156.322 133.142 155.884 132.388 156.944 132.161C158.003 131.935 158.403 130.676 158.336 129.509C158.27 128.342 158.436 126.784 158.436 126.784L160.688 126.265L161.152 126.845Z" fill="#233862"/>
<path d="M144.495 130.033C144.495 130.033 144.74 132.839 144.142 133.13L136.514 133.115C136.514 133.115 136.514 132.239 137.739 132.044C138.963 131.849 141.117 131.136 141.481 129.547C141.845 127.957 144.495 130.033 144.495 130.033Z" fill="#233862"/>
<path d="M138.055 90.4078C138.055 90.4078 138.457 95.3247 138.93 101.236C139.573 109.265 140.345 119.127 140.422 120.995C140.554 124.244 141.085 129.43 141.085 129.43C141.085 129.43 142.342 130.663 144.86 130.143C144.86 130.143 147.103 122.735 147.744 114.897L147.773 114.509C148.37 106.53 149.297 89.7264 149.297 89.7264L138.055 90.4078Z" fill="#2B478B"/>
<path d="M138.055 90.4078C138.055 90.4078 138.457 95.3247 138.93 101.236L147.747 114.897L147.777 114.509C148.373 106.53 149.3 89.7264 149.3 89.7264L138.055 90.4078Z" fill="#233862"/>
<path d="M139.892 90.9917C139.892 90.9917 147.144 108.8 151.912 117.168C156.68 125.537 158.171 127.873 158.171 127.873C158.171 127.873 160.903 126.802 161.152 126.072C161.152 126.072 159.328 109.916 156.135 105.978C154.33 103.752 152.21 97.0733 152.111 94.7383C152.012 92.4033 151.465 87.7804 151.465 87.7804L139.892 90.9917Z" fill="#2B478B"/>
<path d="M146.145 64.2791C146.145 64.2791 141.286 66.7303 138.44 65.9124C138.966 65.2807 139.605 64.7514 140.325 64.3514C140.215 63.7885 140.13 63.2955 140.08 62.8846C140.002 62.388 139.952 61.8874 139.93 61.3853L141.793 59.8665L143.561 58.4135C143.496 62.4021 146.145 64.2791 146.145 64.2791Z" fill="#FFB27D"/>
<path d="M150.972 89.1895C149.012 90.3713 147.153 91.259 144.979 91.7576C142.415 92.3627 139.264 92.184 138.21 92.344C138.101 92.3561 137.991 92.3272 137.902 92.2628C137.821 92.2206 137.354 89.1091 136.888 85.183C136.868 85.0206 136.846 84.8655 136.837 84.7055L136.83 84.6527C136.649 83.1177 136.491 81.5055 136.353 79.8884C136.24 78.6312 136.148 77.3877 136.083 76.219C136.002 74.7571 135.969 73.4145 136.002 72.31C136.016 71.8056 136.047 71.3516 136.091 70.9577C136.369 68.6641 137.469 67.0251 138.505 65.8044L139.364 64.8298C140.36 64.8923 141.377 64.7055 142.336 64.0753C143.385 63.3881 144.518 62.6491 144.732 62.7758C146.339 63.6513 147.649 65.9189 148.585 68.9142C149.153 70.7937 149.558 72.7183 149.795 74.6669C149.877 75.3102 149.952 75.9664 150.007 76.6267C150.018 76.7485 150.026 76.8704 150.036 76.9889C150.163 78.7847 150.368 80.4675 150.597 81.97C150.905 84.0005 151.25 85.6955 151.502 86.8911C151.626 87.4994 151.72 87.9704 151.777 88.3075C151.827 88.6064 151.235 89.0263 150.972 89.1895Z" fill="#5C87DD"/>
<path d="M143.62 59.9364C143.62 59.9364 142.425 62.2105 140.077 62.8838C139.999 62.3872 139.949 61.8866 139.927 61.3845L141.791 59.8657L143.62 59.9364Z" fill="#ED985F"/>
<path d="M139.064 61.3374C139.064 61.3374 143.759 62.0066 144.141 59.1355C144.524 56.2645 145.386 54.4176 142.405 53.8685C139.423 53.3195 138.694 54.3412 138.328 55.2696C137.963 56.1979 137.852 61.0888 139.064 61.3374Z" fill="#FFB27D"/>
<path d="M145.729 53.46C145.771 53.4113 145.868 53.3699 146.086 53.3536C145.961 53.2862 145.821 53.2499 145.678 53.2481C145.627 52.9467 145.454 52.4164 144.93 52.297C145.016 52.3447 145.09 52.4111 145.147 52.4913C145.203 52.5714 145.241 52.6633 145.257 52.7599C144.64 52.154 143.336 51.7301 139.755 52.0826C135.035 52.5471 136.652 55.527 137.272 55.8738C137.892 56.2206 139.412 55.2062 140.554 55.2744C141.696 55.3427 141.942 56.976 142.336 57.1936C142.731 57.4113 142.568 57.0158 143.087 56.7705C143.605 56.5252 143.672 57.3869 143.532 57.9506C143.393 58.5142 144.126 59.2403 144.126 59.2403L144.837 58.4468C145.548 57.6541 146.167 54.3429 145.823 53.6468C145.791 53.5851 145.761 53.5201 145.729 53.46Z" fill="#2C3A64"/>
<path d="M144.239 72.5699C144.239 72.5699 140.28 75.566 136.083 76.2247C136.002 74.7627 135.969 73.4202 136.002 72.3156L144.239 72.5699Z" fill="#1E3D70"/>
<path d="M119.926 68.7031C119.864 68.6365 119.057 65.9522 117.661 66.1479C116.75 66.2754 115.261 66.7977 115.657 67.994C115.812 68.4635 118.588 70.0797 118.588 70.0797L119.926 68.7031Z" fill="#FFB27D"/>
<path d="M144.729 66.7798C146.986 68.1231 146.803 71.4693 144.388 72.5081C144.339 72.53 144.289 72.5503 144.24 72.5706C140.522 74.0537 128.069 74.1227 126.954 73.944C125.839 73.7654 118.412 70.3217 118.412 70.3217C118.412 70.3217 118.924 68.4578 119.982 68.1646C119.982 68.1646 127.927 70.1682 128.491 70.0326C129.055 69.8969 140.866 64.3376 142.877 65.6387C143.408 65.9839 144.059 66.3818 144.729 66.7798Z" fill="#5C87DD"/>
<path d="M222.683 133.075H0.676883C0.501932 133.075 0.360107 133.216 0.360107 133.39V133.685C0.360107 133.859 0.501932 134 0.676883 134H222.683C222.858 134 223 133.859 223 133.685V133.39C223 133.216 222.858 133.075 222.683 133.075Z" fill="#2E3552"/>
<path d="M49.2675 105.69C60.594 105.69 69.7759 96.3953 69.7759 84.9296C69.7759 73.4638 60.594 64.169 49.2675 64.169C37.941 64.169 28.759 73.4638 28.759 84.9296C28.759 96.3953 37.941 105.69 49.2675 105.69Z" fill="#FFCC00"/>
<path d="M183.633 129.282C191.314 129.282 197.541 123.05 197.541 115.363C197.541 107.675 191.314 101.444 183.633 101.444C175.952 101.444 169.725 107.675 169.725 115.363C169.725 123.05 175.952 129.282 183.633 129.282Z" fill="#FFCC00"/>
<path d="M49.5032 100.5C58.3561 100.5 65.5328 93.5289 65.5328 84.9296C65.5328 76.3303 58.3561 69.3592 49.5032 69.3592C40.6503 69.3592 33.4736 76.3303 33.4736 84.9296C33.4736 93.5289 40.6503 100.5 49.5032 100.5Z" fill="#D68900"/>
<path d="M183.869 125.979C189.858 125.979 194.712 121.226 194.712 115.363C194.712 109.5 189.858 104.746 183.869 104.746C177.88 104.746 173.025 109.5 173.025 115.363C173.025 121.226 177.88 125.979 183.869 125.979Z" fill="#D68900"/>
<path d="M49.2675 100.028C57.7298 100.028 64.5899 93.1627 64.5899 84.6937C64.5899 76.2247 57.7298 69.3592 49.2675 69.3592C40.8051 69.3592 33.9451 76.2247 33.9451 84.6937C33.9451 93.1627 40.8051 100.028 49.2675 100.028Z" fill="#F3A100"/>
<path d="M183.633 125.507C189.231 125.507 193.77 120.965 193.77 115.363C193.77 109.76 189.231 105.218 183.633 105.218C178.035 105.218 173.497 109.76 173.497 115.363C173.497 120.965 178.035 125.507 183.633 125.507Z" fill="#F3A100"/>
<path d="M56.6844 78.6157H54.8576C54.6529 78.0857 54.3781 77.5874 54.0409 77.135H55.9244L57.5179 74.7302L56.6844 74.0775H43.8499L42.2564 76.4823L43.0865 77.135H49.3071C49.8197 77.0408 50.3481 77.1382 50.7972 77.4096C51.2464 77.6811 51.5868 78.1087 51.7573 78.6157H43.5499L41.9597 81.0206L42.7898 81.6733H51.8273C51.5522 82.3595 51.0858 82.9461 50.487 83.3589C49.8882 83.7717 49.1841 83.9921 48.4637 83.9923H42.4031V86.7407L47.2902 95.6008L48.1236 96.2535H51.4773L46.5035 87.0533H49.3604C50.8044 87.0389 52.1945 86.4866 53.2742 85.4984C54.3538 84.5102 55.05 83.1527 55.2343 81.6768H55.9244L57.5179 79.2719L56.6844 78.6157Z" fill="#D68900"/>
<path d="M188.499 111.043H187.281C187.145 110.693 186.962 110.364 186.737 110.066H187.993L189.055 108.48L188.499 108.049H179.943L178.881 109.635L179.434 110.066H183.581C183.923 110.004 184.275 110.068 184.575 110.247C184.874 110.426 185.101 110.708 185.215 111.043H179.743L178.683 112.629L179.236 113.059H185.261C185.078 113.512 184.767 113.899 184.368 114.171C183.969 114.443 183.499 114.589 183.019 114.589H178.978V116.402L182.237 122.246L182.792 122.676H185.028L181.712 116.608H183.617C184.579 116.598 185.506 116.234 186.226 115.582C186.946 114.93 187.41 114.035 187.533 113.062H187.993L189.055 111.475L188.499 111.043Z" fill="#D68900"/>
<path d="M53.1287 76.5025H54.9973L56.5749 74.0775H43.835L42.2541 76.5025H48.4256C49.1066 76.5029 49.7736 76.7051 50.3495 77.0858C50.9254 77.4665 51.3867 78.0102 51.68 78.6539H43.5373L41.9597 81.0789H51.9479C51.7747 81.9267 51.3292 82.6866 50.6858 83.2319C50.0424 83.7772 49.24 84.075 48.4124 84.0756H42.3996V86.8471L47.2482 95.7817H50.5754L45.6474 86.4937H48.4818C49.9097 86.4799 51.2847 85.9267 52.3542 84.9356C53.4236 83.9446 54.1156 82.5825 54.3028 81.0997H54.9907L56.5683 78.6747H54.144C53.9434 77.8885 53.5985 77.1507 53.1287 76.5025Z" fill="#FFCC00"/>
<path d="M186.249 109.684H187.515L188.583 108.049H179.953L178.882 109.684H183.063C183.524 109.684 183.976 109.82 184.366 110.077C184.756 110.333 185.069 110.7 185.268 111.133H179.752L178.683 112.768H185.449C185.332 113.339 185.03 113.851 184.594 114.219C184.158 114.586 183.615 114.787 183.054 114.787H178.981V116.655L182.265 122.676H184.519L181.181 116.417H183.101C184.068 116.407 185 116.035 185.724 115.367C186.449 114.699 186.917 113.781 187.044 112.782H187.51L188.579 111.147H186.937C186.801 110.618 186.567 110.12 186.249 109.684Z" fill="#FFCC00"/>
<path d="M74.7094 126.121H30.3262V132.914H74.7094V126.121Z" fill="#FFCC00"/>
<g style="mix-blend-mode:screen" opacity="0.5">
<path d="M30.382 126.593H15.2395V133.386H30.382V126.593Z" fill="#FFCC00"/>
</g>
<g style="mix-blend-mode:multiply" opacity="0.5">
<path d="M74.7092 126.121H60.0889V132.914H74.7092V126.121Z" fill="#FFCC00"/>
</g>
<path d="M73.1422 118.805H28.759V126.121H73.1422V118.805Z" fill="#FFCC00"/>
<g style="mix-blend-mode:screen" opacity="0.5">
<path d="M40.2465 118.805H28.759V126.121H40.2465V118.805Z" fill="#FFCC00"/>
</g>
<g style="mix-blend-mode:multiply" opacity="0.5">
<path d="M73.1423 118.805H54.3447V126.121H73.1423V118.805Z" fill="#FFCC00"/>
</g>
<path d="M77.842 112.012H33.4587V118.805H77.842V112.012Z" fill="#FFCC00"/>
<g style="mix-blend-mode:screen" opacity="0.5">
<path d="M50.6899 112.012H33.4587V118.805H50.6899V112.012Z" fill="#FFCC00"/>
</g>
<path d="M75.2306 105.218H30.8474V112.012H75.2306V105.218Z" fill="#FFCC00"/>
<g style="mix-blend-mode:screen" opacity="0.5">
<path d="M43.9013 105.218H30.8474V112.012H43.9013V105.218Z" fill="#FFCC00"/>
</g>
<g style="mix-blend-mode:multiply" opacity="0.5">
<path d="M75.2317 105.218H56.9563V112.012H75.2317V105.218Z" fill="#FFCC00"/>
</g>
<g style="mix-blend-mode:multiply" opacity="0.5">
<path d="M73.1429 126.121H30.3262V127.166H73.1429V126.121Z" fill="#FFCC00"/>
</g>
<g style="mix-blend-mode:multiply" opacity="0.5">
<path d="M75.2312 112.012H33.4587V113.057H75.2312V112.012Z" fill="#FFCC00"/>
</g>
<path d="M103.703 27.7988C103.655 27.6352 103.589 27.4906 103.504 27.3651C103.419 27.2373 103.314 27.1297 103.191 27.0423C103.069 26.9526 102.93 26.8843 102.773 26.8372C102.618 26.7901 102.446 26.7666 102.257 26.7666C101.905 26.7666 101.595 26.854 101.328 27.0289C101.063 27.2037 100.856 27.4581 100.708 27.7921C100.559 28.1238 100.485 28.5295 100.485 29.0092C100.485 29.4889 100.558 29.8968 100.704 30.233C100.85 30.5693 101.057 30.8259 101.324 31.003C101.591 31.1778 101.907 31.2652 102.271 31.2652C102.601 31.2652 102.883 31.207 103.116 31.0904C103.352 30.9716 103.532 30.8046 103.655 30.5894C103.781 30.3743 103.844 30.1199 103.844 29.8262L104.141 29.8699H102.362V28.7738H105.249V29.6413C105.249 30.2465 105.121 30.7665 104.865 31.2014C104.609 31.634 104.256 31.968 103.807 32.2033C103.358 32.4364 102.844 32.553 102.264 32.553C101.617 32.553 101.049 32.4106 100.559 32.126C100.07 31.8391 99.688 31.4322 99.414 30.9055C99.1422 30.3765 99.0063 29.7489 99.0063 29.0227C99.0063 28.4645 99.0872 27.9669 99.2489 27.5298C99.4129 27.0905 99.642 26.7184 99.9362 26.4136C100.23 26.1087 100.573 25.8767 100.964 25.7176C101.354 25.5584 101.778 25.4789 102.234 25.4789C102.625 25.4789 102.988 25.536 103.325 25.6503C103.662 25.7624 103.961 25.9216 104.221 26.1278C104.484 26.334 104.699 26.5794 104.865 26.8641C105.031 27.1465 105.138 27.4581 105.185 27.7988H103.703Z" fill="#3A9D97"/>
<path d="M106.269 32.4588V25.573H108.991C109.512 25.573 109.957 25.666 110.325 25.8521C110.696 26.0359 110.977 26.297 111.171 26.6355C111.366 26.9717 111.464 27.3673 111.464 27.8223C111.464 28.2796 111.365 28.673 111.167 29.0025C110.97 29.3297 110.683 29.5808 110.308 29.7556C109.935 29.9304 109.484 30.0179 108.954 30.0179H107.131V28.8478H108.718C108.997 28.8478 109.228 28.8097 109.412 28.7335C109.596 28.6573 109.733 28.543 109.823 28.3906C109.915 28.2381 109.961 28.0487 109.961 27.8223C109.961 27.5937 109.915 27.4009 109.823 27.244C109.733 27.0871 109.595 26.9683 109.409 26.8876C109.224 26.8047 108.992 26.7632 108.711 26.7632H107.728V32.4588H106.269ZM109.995 29.3252L111.71 32.4588H110.099L108.422 29.3252H109.995Z" fill="#3A9D97"/>
<path d="M113.608 32.4588H112.045L114.427 25.573H116.306L118.685 32.4588H117.122L115.393 27.1465H115.34L113.608 32.4588ZM113.51 29.7523H117.203V30.8887H113.51V29.7523Z" fill="#3A9D97"/>
<path d="M118.334 26.7733V25.573H124V26.7733H121.888V32.4588H120.446V26.7733H118.334Z" fill="#3A9D97"/>
<path d="M129.119 25.573H130.578V30.0448C130.578 30.5469 130.458 30.9862 130.217 31.3628C129.979 31.7393 129.646 32.033 129.217 32.2437C128.788 32.4521 128.288 32.5563 127.718 32.5563C127.145 32.5563 126.644 32.4521 126.215 32.2437C125.786 32.033 125.453 31.7393 125.214 31.3628C124.976 30.9862 124.857 30.5469 124.857 30.0448V25.573H126.316V29.9204C126.316 30.1826 126.373 30.4157 126.488 30.6197C126.605 30.8237 126.769 30.9839 126.98 31.1005C127.191 31.2171 127.437 31.2753 127.718 31.2753C128.001 31.2753 128.247 31.2171 128.455 31.1005C128.667 30.9839 128.829 30.8237 128.944 30.6197C129.061 30.4157 129.119 30.1826 129.119 29.9204V25.573Z" fill="#3A9D97"/>
<path d="M133.161 25.573V32.4588H131.702V25.573H133.161Z" fill="#3A9D97"/>
<path d="M134.022 26.7733V25.573H139.689V26.7733H137.577V32.4588H136.135V26.7733H134.022Z" fill="#3A9D97"/>
<path d="M140.142 25.573H141.776L143.349 28.5385H143.416L144.99 25.573H146.624L144.107 30.0246V32.4588H142.658V30.0246L140.142 25.573Z" fill="#3A9D97"/>
</svg>
