<svg width="203" height="138" viewBox="0 0 203 138" fill="none" xmlns="http://www.w3.org/2000/svg">
<path d="M12.322 137.223C12.322 137.223 -10.8346 112.323 8.40238 85.3658C25.4736 61.4478 45.3769 63.0826 59.9794 72.7887C66.1986 76.9228 84.1298 73.2983 99.3918 48.9607C120.207 15.7676 192.353 35.8979 179.199 86.9607C172.833 111.668 198.572 112.57 185.457 137.271L12.322 137.223Z" fill="#EBF3FA"/>
<path d="M194.385 0.317139H117.101C112.608 0.317139 108.966 3.95935 108.966 8.45224V129.575C108.966 134.068 112.608 137.71 117.101 137.71H194.385C198.878 137.71 202.52 134.068 202.52 129.575V8.45224C202.52 3.95935 198.878 0.317139 194.385 0.317139Z" fill="#AECBE4"/>
<path d="M193.481 119.175V9.35156L118.005 9.35156V119.175H193.481Z" fill="white"/>
<path d="M121.768 110.663L123.544 110.956C123.678 110.977 123.805 111.035 123.91 111.122C124.011 111.205 124.084 111.318 124.119 111.445C124.129 111.483 124.135 111.522 124.136 111.561C124.138 111.597 124.135 111.633 124.129 111.668L120.043 136.472C119.991 136.793 119.659 137.011 119.295 136.965L119.26 136.96L117.484 136.668L117.448 136.661C117.091 136.584 116.845 136.276 116.898 135.955L120.987 111.15C120.993 111.115 121.002 111.08 121.015 111.047C121.029 111.01 121.047 110.975 121.068 110.943C121.142 110.833 121.248 110.75 121.371 110.703C121.497 110.655 121.634 110.641 121.768 110.663Z" fill="#FFB93E"/>
<path d="M122.222 123.249L120.032 136.537C119.985 136.823 119.658 137.01 119.295 136.965L119.26 136.96L117.484 136.668L117.448 136.661C117.091 136.584 116.841 136.305 116.887 136.019L118.809 124.362C119.764 124.329 121.117 124.106 122.222 123.249Z" fill="#FFA412"/>
<path d="M120.577 113.559L120.53 113.84L123.675 114.361L123.721 114.079L120.577 113.559Z" fill="#FFA412"/>
<path d="M120.361 113.813L120.316 114.095L123.471 114.606L123.517 114.323L120.361 113.813Z" fill="#FFA412"/>
<path d="M120.233 115.66L120.187 115.942L123.331 116.462L123.378 116.18L120.233 115.66Z" fill="#FFA412"/>
<path d="M119.953 117.423L119.906 117.705L123.051 118.224L123.098 117.943L119.953 117.423Z" fill="#FFA412"/>
<path d="M119.644 119.274L119.598 119.556L122.742 120.075L122.789 119.794L119.644 119.274Z" fill="#FFA412"/>
<path d="M119.135 121.391L119.09 121.674L122.245 122.184L122.291 121.902L119.135 121.391Z" fill="#FFA412"/>
<path d="M118.729 124.771L118.683 125.053L121.828 125.573L121.874 125.291L118.729 124.771Z" fill="#FFA412"/>
<path d="M118.35 127.16L118.303 127.442L121.448 127.962L121.494 127.68L118.35 127.16Z" fill="#FFA412"/>
<path d="M120.66 111.951L120.614 112.234L123.769 112.745L123.815 112.462L120.66 111.951Z" fill="#FFA412"/>
<path d="M120.833 112.058L120.787 112.34L123.931 112.86L123.978 112.578L120.833 112.058Z" fill="#FFA412"/>
<path d="M120.849 110.774L120.803 111.056L123.958 111.567L124.004 111.284L120.849 110.774Z" fill="#FFA412"/>
<path d="M120.956 111.327L124.102 111.845L124.13 111.668C124.136 111.633 124.138 111.597 124.137 111.561L121.013 111.047C121 111.08 120.991 111.115 120.985 111.15L120.956 111.327Z" fill="#FFA412"/>
<path d="M121.063 110.943L124.116 111.445C124.082 111.318 124.009 111.205 123.907 111.122L121.366 110.703C121.243 110.75 121.137 110.833 121.063 110.943Z" fill="#FFA412"/>
<path d="M124.99 110.663L126.766 110.956C126.901 110.977 127.027 111.035 127.131 111.122C127.233 111.205 127.307 111.318 127.341 111.445C127.351 111.483 127.357 111.522 127.358 111.561C127.36 111.597 127.358 111.633 127.352 111.668L123.265 136.472C123.212 136.793 122.881 137.011 122.517 136.965L122.482 136.96L120.705 136.668L120.671 136.661C120.313 136.584 120.067 136.276 120.12 135.955L124.206 111.15C124.212 111.115 124.222 111.08 124.235 111.046C124.248 111.01 124.267 110.975 124.288 110.943C124.362 110.833 124.467 110.749 124.59 110.703C124.718 110.654 124.856 110.641 124.99 110.663Z" fill="#FFB93E"/>
<path d="M125.445 123.249L123.255 136.537C123.208 136.823 122.88 137.01 122.517 136.965L122.483 136.96L120.706 136.668L120.671 136.661C120.313 136.584 120.063 136.305 120.11 136.019L122.032 124.362C122.986 124.329 124.339 124.106 125.445 123.249Z" fill="#FFA412"/>
<path d="M123.799 113.559L123.752 113.84L126.897 114.361L126.943 114.079L123.799 113.559Z" fill="#FFA412"/>
<path d="M123.662 114.532L123.616 114.814L126.76 115.333L126.807 115.051L123.662 114.532Z" fill="#FFA412"/>
<path d="M123.456 115.66L123.409 115.942L126.554 116.462L126.601 116.18L123.456 115.66Z" fill="#FFA412"/>
<path d="M123.172 117.419L123.126 117.701L126.271 118.22L126.317 117.939L123.172 117.419Z" fill="#FFA412"/>
<path d="M122.867 119.274L122.82 119.556L125.965 120.075L126.011 119.794L122.867 119.274Z" fill="#FFA412"/>
<path d="M122.393 122.112L122.346 122.394L125.491 122.914L125.537 122.632L122.393 122.112Z" fill="#FFA412"/>
<path d="M121.959 124.779L121.912 125.061L125.057 125.58L125.103 125.298L121.959 124.779Z" fill="#FFA412"/>
<path d="M121.568 127.157L121.521 127.439L124.666 127.959L124.712 127.677L121.568 127.157Z" fill="#FFA412"/>
<path d="M123.951 112.653L123.905 112.935L127.05 113.455L127.096 113.173L123.951 112.653Z" fill="#FFA412"/>
<path d="M124.067 112.069L124.021 112.35L127.166 112.87L127.212 112.588L124.067 112.069Z" fill="#FFA412"/>
<path d="M124.157 111.485L124.11 111.766L127.255 112.285L127.302 112.004L124.157 111.485Z" fill="#FFA412"/>
<path d="M124.178 111.327L127.323 111.845L127.352 111.668C127.358 111.633 127.36 111.597 127.358 111.561L124.235 111.047C124.222 111.08 124.213 111.115 124.206 111.15L124.178 111.327Z" fill="#FFA412"/>
<path d="M124.292 110.943L127.345 111.445C127.31 111.318 127.237 111.205 127.135 111.122L124.594 110.703C124.471 110.749 124.365 110.833 124.292 110.943Z" fill="#FFA412"/>
<path d="M113.206 134.476V136.278C113.206 136.414 113.17 136.547 113.102 136.663C113.035 136.777 112.935 136.868 112.816 136.923C112.78 136.939 112.743 136.951 112.704 136.958C112.669 136.965 112.633 136.969 112.597 136.969L87.4956 136.909C87.172 136.909 86.9061 136.614 86.8907 136.248C86.8907 136.237 86.8907 136.225 86.8907 136.213V134.41C86.8907 134.398 86.8907 134.386 86.8907 134.374C86.9077 134.009 87.1751 133.716 87.4987 133.717L112.6 133.777C112.636 133.777 112.672 133.781 112.707 133.788C112.745 133.795 112.783 133.807 112.818 133.824C112.938 133.879 113.038 133.97 113.103 134.085C113.172 134.203 113.208 134.338 113.206 134.476Z" fill="#FFB93E"/>
<path d="M100.875 136.944L87.4254 136.912C87.1365 136.912 86.899 136.617 86.8875 136.251C86.8875 136.24 86.8875 136.228 86.8875 136.216V134.413C86.8875 134.401 86.8875 134.39 86.8875 134.377C86.9028 134.012 87.1411 133.719 87.4301 133.72L99.2266 133.748C99.4165 134.688 99.8515 135.991 100.875 136.944Z" fill="#FFA412"/>
<path d="M109.555 133.504V136.696H109.84V133.504H109.555Z" fill="#FFA412"/>
<path d="M108.591 133.502V136.694H108.877V133.502H108.591Z" fill="#FFA412"/>
<path d="M107.743 133.766L107.734 136.958L108.02 136.958L108.028 133.766L107.743 133.766Z" fill="#FFA412"/>
<path d="M105.961 133.755L105.954 136.947L106.239 136.948L106.246 133.756L105.961 133.755Z" fill="#FFA412"/>
<path d="M103.792 133.49V136.682H104.077V133.49H103.792Z" fill="#FFA412"/>
<path d="M100.922 133.484V136.676H101.207V133.484H100.922Z" fill="#FFA412"/>
<path d="M98.5299 133.755L98.5222 136.947L98.8073 136.948L98.8151 133.756L98.5299 133.755Z" fill="#FFA412"/>
<path d="M96.1155 133.741L96.1071 136.933L96.3922 136.934L96.4006 133.742L96.1155 133.741Z" fill="#FFA412"/>
<path d="M110.798 133.784L110.79 136.976L111.076 136.976L111.083 133.784L110.798 133.784Z" fill="#FFA412"/>
<path d="M111.394 133.776L111.387 136.968L111.672 136.969L111.679 133.777L111.394 133.776Z" fill="#FFA412"/>
<path d="M111.662 133.509V136.701H111.947V133.509H111.662Z" fill="#FFA412"/>
<path d="M112.422 133.779L112.416 136.971H112.594C112.63 136.971 112.666 136.968 112.701 136.96L112.707 133.79C112.672 133.783 112.636 133.779 112.6 133.779H112.422Z" fill="#FFA412"/>
<path d="M112.818 133.827L112.813 136.926C112.932 136.871 113.032 136.78 113.099 136.666L113.103 134.088C113.038 133.973 112.938 133.882 112.818 133.827Z" fill="#FFA412"/>
<path d="M110.528 131.277V133.079C110.528 133.215 110.491 133.348 110.423 133.464C110.357 133.578 110.257 133.669 110.138 133.724C110.102 133.74 110.065 133.751 110.026 133.759C109.991 133.766 109.955 133.77 109.919 133.77L84.8176 133.711C84.494 133.711 84.2281 133.416 84.212 133.05C84.212 133.038 84.212 133.026 84.212 133.014V131.211C84.212 131.2 84.212 131.187 84.212 131.176C84.2289 130.81 84.4956 130.517 84.8191 130.518L109.921 130.578H109.969H109.989H110.012H110.029C110.067 130.585 110.104 130.597 110.139 130.613L110.155 130.621L110.171 130.629L110.201 130.646L110.218 130.657C110.224 130.66 110.229 130.663 110.234 130.667L110.262 130.688L110.294 130.715L110.317 130.736L110.332 130.753C110.348 130.769 110.362 130.786 110.376 130.804L110.388 130.82L110.4 130.837L110.422 130.873C110.494 130.995 110.531 131.135 110.528 131.277Z" fill="#FFB93E"/>
<path d="M98.1981 133.745L84.7483 133.714C84.4593 133.714 84.2219 133.419 84.2103 133.053C84.2103 133.041 84.2103 133.029 84.2103 133.017V131.215C84.2103 131.203 84.2103 131.191 84.2103 131.179C84.2257 130.813 84.464 130.52 84.7529 130.521L96.5487 130.549C96.5544 130.575 96.5597 130.601 96.5649 130.626C96.7639 131.561 97.2035 132.816 98.1981 133.745Z" fill="#FFA412"/>
<path d="M107.181 130.567L107.174 133.759L107.459 133.759L107.466 130.567L107.181 130.567Z" fill="#FFA412"/>
<path d="M106.215 130.564L106.208 133.756L106.493 133.756L106.5 130.564L106.215 130.564Z" fill="#FFA412"/>
<path d="M104.764 130.308V133.5H105.049V130.308H104.764Z" fill="#FFA412"/>
<path d="M102.994 130.304V133.496H103.279V130.304H102.994Z" fill="#FFA412"/>
<path d="M101.414 130.56L101.407 133.752L101.692 133.753L101.699 130.561L101.414 130.56Z" fill="#FFA412"/>
<path d="M98.5379 130.554L98.5295 133.746L98.8147 133.747L98.823 130.555L98.5379 130.554Z" fill="#FFA412"/>
<path d="M95.5615 130.286V133.478H95.8467V130.286H95.5615Z" fill="#FFA412"/>
<path d="M93.435 130.542L93.4283 133.734L93.7135 133.734L93.7202 130.542L93.435 130.542Z" fill="#FFA412"/>
<path d="M108.1 130.569L108.093 133.761L108.378 133.762L108.385 130.57L108.1 130.569Z" fill="#FFA412"/>
<path d="M108.727 130.587L108.719 133.779L109.004 133.78L109.012 130.588L108.727 130.587Z" fill="#FFA412"/>
<path d="M108.992 130.319V133.51H109.277V130.319H108.992Z" fill="#FFA412"/>
<path d="M109.744 130.58L109.739 133.773H109.92C109.956 133.773 109.992 133.769 110.027 133.762L110.032 130.593C109.997 130.585 109.961 130.581 109.925 130.581L109.744 130.58Z" fill="#FFA412"/>
<path d="M110.14 130.628L110.135 133.727C110.254 133.672 110.354 133.581 110.42 133.467L110.424 130.889C110.359 130.775 110.259 130.683 110.14 130.628Z" fill="#FFA412"/>
<path d="M111.831 128.166V129.969C111.832 130.104 111.795 130.237 111.727 130.354C111.661 130.468 111.561 130.559 111.442 130.613C111.406 130.629 111.369 130.641 111.33 130.649C111.295 130.656 111.259 130.659 111.223 130.659L86.1216 130.6C86.0231 130.6 85.9264 130.574 85.8418 130.523C85.7484 130.464 85.6704 130.383 85.6142 130.287C85.5579 130.192 85.5251 130.084 85.5182 129.974C85.5175 129.963 85.5175 129.953 85.5182 129.943C85.5182 129.931 85.5182 129.919 85.5182 129.907V128.104C85.5182 128.092 85.5182 128.08 85.5182 128.069C85.5359 127.703 85.8026 127.41 86.1262 127.411L111.228 127.471C111.264 127.47 111.3 127.474 111.335 127.482C111.373 127.49 111.411 127.501 111.446 127.518C111.566 127.573 111.665 127.664 111.731 127.778C111.798 127.897 111.833 128.03 111.831 128.166Z" fill="#FFB93E"/>
<path d="M99.5002 130.635L86.0504 130.603C85.9614 130.603 85.8745 130.576 85.8007 130.526C85.7147 130.462 85.6442 130.379 85.5943 130.284C85.5445 130.189 85.5165 130.084 85.5125 129.977C85.5117 129.967 85.5117 129.956 85.5125 129.946C85.5125 129.934 85.5125 129.922 85.5125 129.91V128.107C85.5125 128.096 85.5125 128.083 85.5125 128.072C85.5278 127.706 85.7668 127.413 86.0558 127.414L97.8516 127.442C98.0338 128.357 98.4519 129.612 99.4149 130.559C99.4448 130.583 99.4717 130.609 99.5002 130.635Z" fill="#FFA412"/>
<path d="M112.438 124.976V126.779C112.438 126.914 112.402 127.047 112.333 127.164C112.267 127.277 112.167 127.368 112.047 127.422C112.012 127.438 111.975 127.451 111.937 127.458C111.901 127.465 111.865 127.469 111.829 127.469L86.7281 127.409C86.4045 127.409 86.1378 127.114 86.1224 126.749C86.1224 126.737 86.1224 126.725 86.1224 126.713V124.911C86.1224 124.898 86.1224 124.887 86.1224 124.874C86.1386 124.536 86.3684 124.259 86.6604 124.222C86.6841 124.219 86.708 124.217 86.7319 124.217L111.834 124.276C111.87 124.277 111.905 124.28 111.941 124.288C111.979 124.296 112.016 124.308 112.052 124.324C112.171 124.379 112.271 124.471 112.336 124.585C112.405 124.704 112.44 124.839 112.438 124.976Z" fill="#FFB93E"/>
<path d="M100.108 127.448L86.658 127.415C86.369 127.415 86.1315 127.12 86.12 126.755C86.12 126.743 86.12 126.731 86.12 126.719V124.917C86.12 124.904 86.12 124.893 86.12 124.881C86.1338 124.543 86.3398 124.265 86.5988 124.228C86.6199 124.224 86.6412 124.223 86.6626 124.223L98.4592 124.251C98.4595 124.253 98.4595 124.255 98.4592 124.256C98.6498 125.192 99.0871 126.49 100.108 127.448Z" fill="#FFA412"/>
<path d="M110.599 121.784V123.587C110.598 123.722 110.562 123.855 110.493 123.971C110.427 124.085 110.328 124.176 110.208 124.231C110.173 124.247 110.135 124.259 110.097 124.266L110.062 124.272H110.042H110.022H109.99L84.8883 124.213C84.5647 124.213 84.2988 123.918 84.2827 123.553C84.2827 123.54 84.2827 123.529 84.2827 123.517L84.2865 121.714C84.2865 121.702 84.2865 121.69 84.2865 121.678C84.2865 121.667 84.2865 121.658 84.2865 121.649C84.2932 121.514 84.3403 121.384 84.4217 121.275C84.5031 121.167 84.615 121.086 84.743 121.042L84.7615 121.037C84.8044 121.026 84.8486 121.02 84.8929 121.02L109.994 121.08C110.012 121.08 110.031 121.08 110.049 121.08H110.072C110.082 121.081 110.091 121.083 110.1 121.086C110.138 121.093 110.176 121.105 110.211 121.121C110.331 121.177 110.43 121.268 110.496 121.382C110.567 121.504 110.603 121.643 110.599 121.784Z" fill="#FFB93E"/>
<path d="M98.2679 124.252L84.8181 124.22C84.5299 124.22 84.2924 123.926 84.2802 123.56C84.2802 123.548 84.2802 123.537 84.2802 123.524L84.284 121.722C84.284 121.71 84.284 121.698 84.284 121.686C84.284 121.675 84.284 121.666 84.284 121.657C84.3063 121.356 84.48 121.11 84.7059 121.041L84.729 121.035C84.7605 121.028 84.7927 121.024 84.8251 121.024L96.6239 121.059C96.6247 121.067 96.6263 121.074 96.6285 121.082C96.8168 122.019 97.2534 123.303 98.264 124.25L98.2679 124.252Z" fill="#FFA412"/>
<path d="M110.551 118.614V120.417C110.552 120.552 110.515 120.685 110.447 120.802C110.381 120.916 110.281 121.006 110.162 121.061C110.134 121.073 110.104 121.083 110.075 121.091L110.051 121.097C110.016 121.104 109.98 121.107 109.944 121.107L84.8424 121.048C84.8166 121.048 84.7909 121.045 84.7655 121.041C84.7554 121.04 84.7454 121.038 84.7355 121.036C84.4627 120.979 84.2521 120.711 84.2383 120.387C84.2383 120.375 84.2383 120.363 84.2383 120.352V118.549C84.2383 118.537 84.2383 118.525 84.2383 118.513C84.256 118.147 84.5226 117.855 84.8462 117.855L109.948 117.915H109.996H110.016H110.039H110.055C110.093 117.923 110.131 117.935 110.166 117.951L110.182 117.958L110.198 117.966L110.228 117.983L110.261 118.005C110.271 118.011 110.28 118.018 110.289 118.025C110.3 118.034 110.311 118.042 110.321 118.052L110.344 118.074L110.359 118.089C110.375 118.106 110.389 118.124 110.403 118.142L110.415 118.158L110.427 118.175C110.435 118.186 110.442 118.198 110.449 118.21C110.52 118.333 110.556 118.473 110.551 118.614Z" fill="#FFB93E"/>
<path d="M98.2209 121.083L84.7711 121.05H84.7396C84.728 121.05 84.7164 121.048 84.705 121.046C84.446 121.004 84.2439 120.729 84.2308 120.391C84.2308 120.379 84.2308 120.367 84.2308 120.355V118.553C84.2308 118.54 84.2308 118.529 84.2308 118.517C84.247 118.151 84.4852 117.858 84.7742 117.859L96.57 117.887L96.5861 117.964C96.7798 118.888 97.2148 120.131 98.1917 121.058L98.2209 121.083Z" fill="#FFA412"/>
<path d="M111.854 115.504L111.85 117.306C111.851 117.442 111.815 117.575 111.746 117.691C111.68 117.805 111.58 117.896 111.46 117.951C111.425 117.967 111.387 117.979 111.349 117.986C111.314 117.993 111.278 117.997 111.242 117.997L86.1406 117.937C86.0421 117.937 85.9453 117.911 85.8609 117.86C85.7675 117.8 85.6895 117.719 85.6331 117.624C85.5768 117.528 85.5437 117.421 85.5366 117.31C85.5366 117.3 85.5366 117.29 85.5366 117.279C85.5366 117.268 85.5366 117.255 85.5366 117.243V115.441C85.5366 115.428 85.5366 115.417 85.5366 115.405C85.5542 115.039 85.8209 114.746 86.1445 114.747L111.246 114.807C111.282 114.807 111.318 114.811 111.353 114.818C111.391 114.826 111.429 114.838 111.465 114.854C111.584 114.91 111.683 115.001 111.749 115.115C111.818 115.233 111.854 115.367 111.854 115.504Z" fill="#FFB93E"/>
<path d="M99.5226 117.972L86.0729 117.94C85.9838 117.94 85.8967 117.913 85.8231 117.863C85.7372 117.799 85.6668 117.716 85.6168 117.621C85.5668 117.526 85.5386 117.421 85.5341 117.314C85.5341 117.303 85.5341 117.293 85.5341 117.282C85.5341 117.271 85.5341 117.258 85.5341 117.247V115.444C85.5341 115.432 85.5341 115.42 85.5341 115.408C85.5495 115.042 85.7885 114.75 86.0767 114.75L97.8733 114.778C98.0554 115.692 98.4735 116.949 99.4365 117.895L99.5226 117.972Z" fill="#FFA412"/>
<path d="M113.911 112.317V114.119C113.911 114.254 113.875 114.387 113.807 114.504C113.74 114.618 113.64 114.708 113.521 114.763C113.485 114.779 113.448 114.791 113.409 114.799C113.374 114.806 113.338 114.81 113.302 114.81L88.2006 114.75C87.877 114.75 87.6111 114.455 87.595 114.089V114.055V112.252C87.595 112.24 87.595 112.228 87.595 112.216C87.6103 111.878 87.8401 111.6 88.133 111.563C88.1569 111.56 88.181 111.558 88.2052 111.558L113.306 111.618C113.342 111.618 113.378 111.622 113.414 111.629C113.452 111.637 113.489 111.649 113.525 111.665C113.644 111.72 113.744 111.812 113.81 111.926C113.878 112.045 113.913 112.18 113.911 112.317Z" fill="#FFB93E"/>
<path d="M101.58 114.785L88.1305 114.753C87.8423 114.753 87.6048 114.458 87.5925 114.092V114.055V112.252C87.5925 112.24 87.5925 112.228 87.5925 112.216C87.6064 111.878 87.8116 111.6 88.0713 111.563C88.0925 111.56 88.1138 111.558 88.1351 111.558L99.9317 111.586C99.9317 111.586 99.9317 111.586 99.9317 111.591C100.123 112.534 100.56 113.831 101.58 114.785Z" fill="#FFA412"/>
<path d="M110.622 109.121L110.618 110.924C110.618 111.059 110.582 111.192 110.513 111.309C110.447 111.423 110.348 111.513 110.228 111.568C110.192 111.584 110.155 111.596 110.117 111.604L110.081 111.61H110.053H110.01L84.908 111.55C84.5844 111.55 84.3185 111.255 84.3024 110.889C84.3024 110.878 84.3024 110.866 84.3024 110.854V109.051C84.3024 109.039 84.3024 109.028 84.3024 109.015C84.32 108.65 84.5867 108.357 84.9103 108.358L110.012 108.418H110.044C110.07 108.42 110.096 108.423 110.121 108.428C110.16 108.436 110.197 108.448 110.233 108.464C110.251 108.472 110.268 108.481 110.285 108.491C110.296 108.497 110.306 108.503 110.316 108.51C110.327 108.517 110.337 108.525 110.347 108.533C110.349 108.532 110.351 108.532 110.353 108.533L110.379 108.555C110.401 108.573 110.421 108.594 110.439 108.616C110.446 108.622 110.452 108.629 110.457 108.636L110.467 108.649C110.473 108.657 110.479 108.665 110.485 108.674C110.491 108.683 110.501 108.699 110.509 108.712C110.585 108.835 110.624 108.977 110.622 109.121Z" fill="#FFB93E"/>
<path d="M98.2909 111.591L84.8412 111.559C84.5529 111.559 84.3147 111.264 84.3032 110.899C84.3032 110.887 84.3032 110.875 84.3032 110.863V109.061C84.3032 109.048 84.3032 109.037 84.3032 109.024C84.3193 108.659 84.5576 108.366 84.8465 108.367L96.6423 108.395C96.6477 108.419 96.6523 108.444 96.6577 108.472C96.8521 109.404 97.291 110.659 98.2832 111.589L98.2909 111.591Z" fill="#FFA412"/>
<path d="M112.472 106.007V107.81C112.473 107.945 112.437 108.078 112.368 108.195C112.302 108.309 112.202 108.399 112.082 108.454C112.047 108.47 112.009 108.482 111.971 108.489C111.936 108.497 111.9 108.5 111.864 108.5L86.7627 108.441C86.6671 108.439 86.5736 108.413 86.4914 108.364C86.3952 108.305 86.3148 108.223 86.2568 108.126C86.1989 108.029 86.1652 107.919 86.1586 107.806C86.1586 107.797 86.1586 107.787 86.1586 107.777C86.1586 107.767 86.1586 107.754 86.1586 107.742V105.939C86.1586 105.927 86.1586 105.916 86.1586 105.904C86.1748 105.565 86.4046 105.288 86.6966 105.251C86.7203 105.247 86.7442 105.246 86.7681 105.246L111.87 105.306C111.906 105.306 111.942 105.31 111.977 105.317C112.015 105.325 112.052 105.337 112.088 105.353C112.208 105.408 112.307 105.5 112.373 105.614C112.441 105.733 112.476 105.869 112.472 106.007Z" fill="#FFB93E"/>
<path d="M100.141 108.476L86.6916 108.443C86.6051 108.442 86.521 108.415 86.4495 108.366C86.3609 108.302 86.2881 108.218 86.2367 108.122C86.1853 108.025 86.1566 107.918 86.1528 107.808C86.1528 107.799 86.1528 107.79 86.1528 107.78C86.1528 107.77 86.1528 107.757 86.1528 107.744V105.942C86.1528 105.929 86.1528 105.918 86.1528 105.906C86.1667 105.568 86.3719 105.291 86.6316 105.253C86.6528 105.25 86.6741 105.248 86.6954 105.248L98.492 105.276C98.4924 105.278 98.4924 105.279 98.492 105.281C98.6749 106.197 99.0945 107.453 100.06 108.399L100.141 108.476Z" fill="#FFA412"/>
<path d="M110.633 102.817V104.619C110.634 104.755 110.598 104.888 110.529 105.004C110.463 105.118 110.363 105.209 110.244 105.264C110.208 105.28 110.171 105.292 110.132 105.299L110.097 105.305H110.077H110.057H110.025L84.9236 105.245C84.6001 105.245 84.3341 104.95 84.318 104.585C84.318 104.572 84.318 104.561 84.318 104.549V102.746C84.318 102.734 84.318 102.722 84.318 102.71C84.3357 102.345 84.6024 102.052 84.9259 102.053L110.028 102.112C110.064 102.112 110.099 102.116 110.135 102.124C110.173 102.132 110.21 102.144 110.246 102.16C110.365 102.215 110.465 102.306 110.53 102.42C110.6 102.54 110.636 102.678 110.633 102.817Z" fill="#FFB93E"/>
<path d="M98.3024 105.284L84.8527 105.252C84.5637 105.252 84.3262 104.957 84.3147 104.592C84.3147 104.579 84.3147 104.568 84.3147 104.555V102.753C84.3147 102.741 84.3147 102.729 84.3147 102.717C84.3308 102.352 84.5691 102.059 84.8581 102.059L96.6539 102.088C96.8406 103.026 97.2756 104.32 98.2947 105.279L98.3024 105.284Z" fill="#FFA412"/>
<path d="M108.502 127.472L108.495 130.664L108.78 130.665L108.787 127.473L108.502 127.472Z" fill="#FFA412"/>
<path d="M107.527 127.461L107.52 130.653L107.805 130.653L107.812 127.461L107.527 127.461Z" fill="#FFA412"/>
<path d="M106.364 127.455L106.357 130.647L106.642 130.648L106.649 127.456L106.364 127.455Z" fill="#FFA412"/>
<path d="M104.604 127.463L104.596 130.655L104.881 130.655L104.889 127.463L104.604 127.463Z" fill="#FFA412"/>
<path d="M102.726 127.458L102.719 130.65L103.004 130.651L103.012 127.459L102.726 127.458Z" fill="#FFA412"/>
<path d="M99.848 127.452L99.8402 130.644L100.125 130.644L100.133 127.453L99.848 127.452Z" fill="#FFA412"/>
<path d="M97.1442 127.437L97.1376 130.629L97.4227 130.629L97.4294 127.437L97.1442 127.437Z" fill="#FFA412"/>
<path d="M94.7484 127.439L94.7406 130.631L95.0257 130.632L95.0335 127.44L94.7484 127.439Z" fill="#FFA412"/>
<path d="M109.1 127.212V130.404H109.385V127.212H109.1Z" fill="#FFA412"/>
<path d="M110.019 127.467L110.012 130.659L110.297 130.66L110.304 127.468L110.019 127.467Z" fill="#FFA412"/>
<path d="M110.29 127.215V130.407H110.575V127.215H110.29Z" fill="#FFA412"/>
<path d="M111.046 127.47L111.041 130.663H111.219C111.255 130.662 111.291 130.659 111.326 130.652L111.332 127.482C111.296 127.474 111.261 127.471 111.225 127.471L111.046 127.47Z" fill="#FFA412"/>
<path d="M111.443 127.518L111.438 130.616C111.557 130.561 111.657 130.471 111.723 130.357L111.728 127.779C111.662 127.664 111.563 127.573 111.443 127.518Z" fill="#FFA412"/>
<path d="M100.155 124.006V127.198H100.44V124.006H100.155Z" fill="#FFA412"/>
<path d="M97.743 124.238L97.7358 127.43L98.0209 127.431L98.0281 124.239L97.743 124.238Z" fill="#FFA412"/>
<path d="M95.3548 124.249L95.347 127.441L95.6322 127.441L95.64 124.249L95.3548 124.249Z" fill="#FFA412"/>
<path d="M110.298 127.468L110.304 124.276H110.054L110.094 124.27L110.1 121.1C110.082 121.1 110.064 121.094 110.047 121.092L110.052 117.999H110.163L110.158 121.065C110.278 121.01 110.377 120.919 110.443 120.806L110.448 118.227C110.393 118.132 110.315 118.053 110.222 117.996H110.322L110.327 114.804H110.042L110.037 117.926C110.006 117.921 109.976 117.918 109.945 117.918H109.766L109.761 121.11H109.813L109.808 124.279H109.986H110.018L110.012 127.468H110.298Z" fill="#FFA412"/>
<path d="M110.636 124.284L110.629 127.476L110.914 127.477L110.921 124.285L110.636 124.284Z" fill="#FFA412"/>
<path d="M110.864 124.006V127.198H111.149V124.006H110.864Z" fill="#FFA412"/>
<path d="M111.654 124.279L111.647 127.471H111.826C111.862 127.471 111.898 127.468 111.933 127.46L111.939 124.29C111.904 124.282 111.868 124.278 111.832 124.279L111.654 124.279Z" fill="#FFA412"/>
<path d="M112.05 124.327L112.044 127.425C112.164 127.371 112.264 127.28 112.33 127.166L112.335 124.587C112.269 124.473 112.17 124.382 112.05 124.327Z" fill="#FFA412"/>
<path d="M107.54 124.275L107.545 121.082H107.493L107.498 117.912L107.213 117.911L107.207 121.104H107.26L107.255 124.269L106.976 124.268L106.97 127.461H107.255L107.261 124.274L107.54 124.275Z" fill="#FFA412"/>
<path d="M105.422 121.077L105.369 121.077L105.375 117.908L105.09 117.907L105.084 121.099H105.137L105.13 124.269H105.201L105.195 127.456L105.48 127.457L105.486 124.265L105.416 124.264L105.422 121.077Z" fill="#FFA412"/>
<path d="M110.211 121.136L110.205 124.235C110.325 124.18 110.424 124.089 110.49 123.975L110.495 121.397C110.43 121.282 110.33 121.191 110.211 121.136Z" fill="#FFA412"/>
<path d="M103.599 117.903L103.314 117.902L103.308 121.095H103.361L103.356 124.259H103.323L103.318 127.451L103.603 127.452L103.609 124.265H103.641L103.646 121.073H103.594L103.599 117.903Z" fill="#FFA412"/>
<path d="M101.722 117.898L101.437 117.898L101.431 121.09H101.484L101.478 124.26L101.763 124.261L101.769 121.068H101.716L101.722 117.898Z" fill="#FFA412"/>
<path d="M98.8447 117.892L98.5588 117.891L98.5534 121.083H98.6057L98.6003 124.253L98.8854 124.254L98.8916 121.061H98.8385L98.8447 117.892Z" fill="#FFA412"/>
<path d="M96.1503 117.885L95.8652 117.885L95.859 121.077H95.912L95.9059 124.247H96.1918L96.1972 121.055H96.1441L96.1503 117.885Z" fill="#FFA412"/>
<path d="M93.7443 117.88L93.4592 117.879L93.4538 121.071H93.5061L93.5007 124.241L93.7858 124.242L93.792 121.05H93.7389L93.7443 117.88Z" fill="#FFA412"/>
<path d="M108.418 117.915L108.133 117.914L108.126 121.107H108.179L108.174 124.271H108.134L108.128 127.463L108.414 127.464L108.419 124.276H108.459L108.465 121.084H108.412L108.418 117.915Z" fill="#FFA412"/>
<path d="M109.024 117.916L108.795 117.915L108.801 114.802L108.515 114.801L108.509 117.994H108.739L108.734 121.107L108.786 121.108L108.781 124.277L109.066 124.278L109.071 121.086H109.019L109.024 117.916Z" fill="#FFA412"/>
<path d="M107.561 114.807L107.553 117.999L107.838 117.999L107.846 114.807L107.561 114.807Z" fill="#FFA412"/>
<path d="M106.386 117.91H106.247L106.241 121.102H106.294L106.288 124.272L106.573 124.272L106.579 121.08H106.526L106.532 117.989H106.671L106.677 114.797L106.392 114.797L106.386 117.91Z" fill="#FFA412"/>
<path d="M104.614 114.79L104.606 117.982L104.891 117.983L104.9 114.791L104.614 114.79Z" fill="#FFA412"/>
<path d="M102.749 114.794L102.742 117.986L103.027 117.987L103.035 114.795L102.749 114.794Z" fill="#FFA412"/>
<path d="M99.8532 114.774L99.8459 117.966L100.131 117.967L100.138 114.775L99.8532 114.774Z" fill="#FFA412"/>
<path d="M97.164 114.771L97.1573 117.963L97.4424 117.964L97.4491 114.772L97.164 114.771Z" fill="#FFA412"/>
<path d="M94.7706 114.776L94.7628 117.968L95.0479 117.969L95.0557 114.777L94.7706 114.776Z" fill="#FFA412"/>
<path d="M109.429 117.917H109.326L109.319 121.109H109.372L109.367 124.274L109.1 124.273L109.094 127.465L109.379 127.466L109.385 124.279L109.652 124.279L109.658 121.087H109.605L109.611 117.996H109.714L109.72 114.804L109.435 114.803L109.429 117.917Z" fill="#FFA412"/>
<path d="M110.313 114.583V117.775H110.598V114.583H110.313Z" fill="#FFA412"/>
<path d="M111.349 117.989L111.355 114.82C111.32 114.812 111.284 114.808 111.248 114.808H111.073L111.066 118H111.246C111.28 118 111.315 117.996 111.349 117.989Z" fill="#FFA412"/>
<path d="M111.746 117.694L111.751 115.116C111.685 115.002 111.586 114.911 111.466 114.855L111.46 117.954C111.58 117.899 111.68 117.808 111.746 117.694Z" fill="#FFA412"/>
<path d="M110.584 111.621L110.576 114.813L110.861 114.814L110.869 111.622L110.584 111.621Z" fill="#FFA412"/>
<path d="M106.368 111.388V114.58H106.653V111.388H106.368Z" fill="#FFA412"/>
<path d="M104.807 111.608L104.799 114.8L105.084 114.801L105.092 111.609L104.807 111.608Z" fill="#FFA412"/>
<path d="M101.929 111.6L101.922 114.792L102.207 114.793L102.215 111.601L101.929 111.6Z" fill="#FFA412"/>
<path d="M99.235 111.594L99.2272 114.786L99.5123 114.787L99.5201 111.595L99.235 111.594Z" fill="#FFA412"/>
<path d="M96.818 111.581L96.8113 114.773L97.0965 114.774L97.1031 111.582L96.818 111.581Z" fill="#FFA412"/>
<path d="M111.502 111.623L111.495 114.815L111.78 114.816L111.788 111.624L111.502 111.623Z" fill="#FFA412"/>
<path d="M111.781 111.401V114.593H112.067V111.401H111.781Z" fill="#FFA412"/>
<path d="M112.676 111.612L112.669 114.804L112.954 114.805L112.961 111.613L112.676 111.612Z" fill="#FFA412"/>
<path d="M113.127 111.62L113.121 114.812H113.301C113.338 114.812 113.374 114.808 113.409 114.801L113.414 111.631C113.379 111.624 113.343 111.62 113.308 111.62H113.127Z" fill="#FFA412"/>
<path d="M113.523 111.668L113.518 114.767C113.637 114.712 113.737 114.622 113.804 114.508L113.808 111.929C113.743 111.815 113.643 111.723 113.523 111.668Z" fill="#FFA412"/>
<path d="M107.277 111.611L107.563 111.612L107.568 108.419L107.29 108.419L107.295 105.305L107.573 105.306L107.58 102.114L107.295 102.113L107.288 105.301L107.01 105.3L107.005 108.492L107.283 108.493L107.277 111.611Z" fill="#FFA412"/>
<path d="M106.315 108.414L106.307 111.606L106.592 111.607L106.601 108.415L106.315 108.414Z" fill="#FFA412"/>
<path d="M101.517 108.412L101.509 111.604L101.794 111.605L101.802 108.413L101.517 108.412Z" fill="#FFA412"/>
<path d="M98.6206 108.392L98.6133 111.584L98.8985 111.584L98.9057 108.392L98.6206 108.392Z" fill="#FFA412"/>
<path d="M95.6544 108.183V111.375H95.9395V108.183H95.6544Z" fill="#FFA412"/>
<path d="M93.521 108.38L93.5138 111.572L93.7989 111.573L93.8062 108.381L93.521 108.38Z" fill="#FFA412"/>
<path d="M108.197 111.613L108.449 111.614L108.444 114.801L108.729 114.802L108.734 111.61L108.482 111.609L108.488 108.422H108.448L108.454 105.308H108.493L108.499 102.116L108.214 102.115L108.208 105.303L108.169 105.302L108.163 108.495H108.203L108.197 111.613Z" fill="#FFA412"/>
<path d="M108.821 108.43L108.815 111.622L109.1 111.623L109.106 108.431L108.821 108.43Z" fill="#FFA412"/>
<path d="M110.283 108.499H110.333L110.339 105.308H110.088C110.102 105.306 110.115 105.304 110.128 105.301L110.133 102.132C110.098 102.124 110.063 102.12 110.027 102.12H109.848L109.843 105.312H110.02C110.031 105.313 110.043 105.313 110.054 105.312L110.047 108.429H110.015H109.837L109.831 111.617H109.678L109.683 108.429H109.416L109.422 105.316H109.689L109.695 102.123H109.409L109.404 105.311H109.137L109.13 108.503H109.398L109.393 111.622H109.609L109.603 114.81H109.889L109.894 111.622H110.012C110.048 111.622 110.084 111.619 110.119 111.611L110.124 108.504H110.236L110.23 111.576C110.35 111.521 110.449 111.43 110.515 111.317L110.52 108.738C110.464 108.639 110.382 108.556 110.283 108.499Z" fill="#FFA412"/>
<path d="M100.48 105.284L100.474 108.476L100.759 108.477L100.766 105.285L100.48 105.284Z" fill="#FFA412"/>
<path d="M97.5016 105.077V108.269H97.7867V105.077H97.5016Z" fill="#FFA412"/>
<path d="M95.3893 105.278L95.3815 108.47L95.6667 108.471L95.6744 105.279L95.3893 105.278Z" fill="#FFA412"/>
<path d="M110.652 105.302L110.645 108.494L110.93 108.495L110.937 105.303L110.652 105.302Z" fill="#FFA412"/>
<path d="M110.93 105.108V108.3H111.215V105.108H110.93Z" fill="#FFA412"/>
<path d="M111.687 105.311L111.681 108.503H111.859C111.896 108.503 111.932 108.5 111.967 108.493L111.972 105.322C111.937 105.315 111.901 105.311 111.866 105.311L111.687 105.311Z" fill="#FFA412"/>
<path d="M112.365 108.198L112.369 105.619C112.304 105.505 112.204 105.414 112.085 105.358L112.079 108.457C112.199 108.402 112.299 108.312 112.365 108.198Z" fill="#FFA412"/>
<path d="M106.339 102.117L106.331 105.309L106.616 105.31L106.624 102.118L106.339 102.117Z" fill="#FFA412"/>
<path d="M105.456 102.109L105.17 102.108L105.165 105.301H105.236L105.23 108.414H105.16L105.153 111.606L105.439 111.607L105.445 108.488H105.515L105.521 105.296H105.45L105.456 102.109Z" fill="#FFA412"/>
<path d="M103.389 105.291L103.358 105.291L103.352 108.483H103.384L103.378 111.602H103.663L103.669 108.41H103.637L103.643 105.297H103.675L103.68 102.105L103.395 102.104L103.389 105.291Z" fill="#FFA412"/>
<path d="M101.224 101.905V105.097H101.509V101.905H101.224Z" fill="#FFA412"/>
<path d="M98.3546 101.898V105.09H98.6397V101.898H98.3546Z" fill="#FFA412"/>
<path d="M95.9479 102.087L95.9395 105.279L96.2246 105.28L96.233 102.088L95.9479 102.087Z" fill="#FFA412"/>
<path d="M93.5402 102.081L93.5335 105.273L93.8186 105.273L93.8253 102.081L93.5402 102.081Z" fill="#FFA412"/>
<path d="M108.819 102.115L108.811 105.307L109.096 105.308L109.104 102.116L108.819 102.115Z" fill="#FFA412"/>
<path d="M110.245 102.167L110.24 105.265C110.36 105.211 110.459 105.12 110.525 105.006L110.53 102.427C110.464 102.313 110.365 102.222 110.245 102.167Z" fill="#FFA412"/>
<path d="M118.608 110.678L120.381 110.993C120.515 111.016 120.64 111.075 120.744 111.163C120.845 111.248 120.917 111.362 120.949 111.49C120.959 111.528 120.964 111.566 120.965 111.605C120.967 111.641 120.964 111.678 120.957 111.713L116.554 136.463C116.497 136.782 116.162 136.993 115.8 136.946L115.765 136.94L113.993 136.625L113.957 136.618C113.601 136.541 113.359 136.224 113.419 135.904L117.822 111.155C117.825 111.139 117.828 111.123 117.833 111.108C117.834 111.101 117.836 111.095 117.838 111.088C117.838 111.081 117.843 111.073 117.846 111.066C117.849 111.06 117.85 111.056 117.851 111.051C117.866 111.015 117.885 110.98 117.907 110.948L117.916 110.933L117.927 110.919L117.948 110.893L117.963 110.877C117.967 110.872 117.971 110.868 117.975 110.864L118.001 110.839L118.032 110.813L118.058 110.794L118.077 110.782C118.095 110.769 118.115 110.758 118.135 110.748L118.153 110.739L118.172 110.73C118.184 110.724 118.197 110.719 118.21 110.714C118.337 110.666 118.475 110.654 118.608 110.678Z" fill="#FFB93E"/>
<path d="M118.902 123.268L116.542 136.53C116.492 136.815 116.158 136.998 115.8 136.949L115.765 136.943L113.992 136.628L113.957 136.621C113.6 136.544 113.354 136.257 113.404 135.972L115.473 124.341H115.55C116.505 124.305 117.816 124.088 118.902 123.268Z" fill="#FFA412"/>
<path d="M117.388 113.565L117.338 113.846L120.475 114.407L120.526 114.125L117.388 113.565Z" fill="#FFA412"/>
<path d="M117.215 114.516L117.165 114.797L120.303 115.356L120.353 115.075L117.215 114.516Z" fill="#FFA412"/>
<path d="M117.008 115.652L116.958 115.933L120.096 116.493L120.146 116.212L117.008 115.652Z" fill="#FFA412"/>
<path d="M116.697 117.402L116.647 117.683L119.785 118.243L119.835 117.962L116.697 117.402Z" fill="#FFA412"/>
<path d="M116.373 119.258L116.323 119.539L119.461 120.098L119.511 119.817L116.373 119.258Z" fill="#FFA412"/>
<path d="M115.881 122.109L115.831 122.39L118.969 122.95L119.019 122.669L115.881 122.109Z" fill="#FFA412"/>
<path d="M115.396 124.752L115.346 125.033L118.484 125.592L118.534 125.311L115.396 124.752Z" fill="#FFA412"/>
<path d="M114.98 127.131L114.93 127.412L118.068 127.973L118.118 127.692L114.98 127.131Z" fill="#FFA412"/>
<path d="M117.541 112.652L117.491 112.933L120.629 113.493L120.679 113.212L117.541 112.652Z" fill="#FFA412"/>
<path d="M117.667 112.071L117.617 112.352L120.755 112.912L120.805 112.631L117.667 112.071Z" fill="#FFA412"/>
<path d="M117.751 111.475L117.701 111.756L120.839 112.316L120.889 112.035L117.751 111.475Z" fill="#FFA412"/>
<path d="M117.787 111.33L120.925 111.889L120.957 111.713C120.963 111.677 120.966 111.641 120.965 111.605L117.848 111.051C117.835 111.085 117.825 111.119 117.819 111.155L117.787 111.33Z" fill="#FFA412"/>
<path d="M117.902 110.948L120.949 111.487C120.916 111.359 120.844 111.245 120.743 111.16L118.207 110.709C118.083 110.755 117.977 110.839 117.902 110.948Z" fill="#FFA412"/>
<path d="M178.434 136.943H167.647C167.069 136.452 168.048 135.336 169.069 135.261C169.513 135.228 170.074 135.321 170.716 135.456C170.864 133.482 171.715 124.603 174.906 124.962C178.498 125.362 174.906 128.871 173.891 130.949C173.138 132.488 172.345 134.695 171.983 135.737C172.275 135.8 172.577 135.862 172.885 135.919C173.361 134.457 175.132 129.53 177.386 129.817C180.03 130.153 178.967 132.126 177.092 133.3C175.717 134.162 174.028 135.386 173.225 135.978C173.922 136.1 174.628 136.157 175.335 136.148C177.183 136.104 178.085 136.649 178.434 136.943Z" fill="#82B378"/>
<path d="M37.785 136.584C37.3569 135.91 36.0673 134.16 34.3504 134.392C32.4789 134.644 36.4162 135.88 37.6221 136.589C37.397 136.601 37.1714 136.575 36.955 136.512C36.1488 136.224 34.7692 136.776 34.3273 136.969H41.9998C41.9121 136.674 41.716 136.423 41.451 136.266C41.3258 136.189 41.0721 136.178 40.7455 136.204C41.2013 135.665 41.5141 133.945 40.2483 134.387C39.3206 134.711 39.326 135.762 39.4144 136.384C39.2169 136.415 39.0163 136.446 38.8187 136.475C38.4345 134.525 37.0856 128.811 34.3473 128.658C31.5713 128.504 36.7014 134.585 38.4099 136.529C38.1908 136.555 37.9825 136.575 37.785 136.584Z" fill="#82B378"/>
<path d="M113.864 88.0509C118.179 83.7295 118.179 76.7233 113.864 72.402C109.549 68.0807 102.553 68.0807 98.2384 72.402C93.9236 76.7233 93.9236 83.7295 98.2384 88.0509C102.553 92.3722 109.549 92.3722 113.864 88.0509Z" fill="#E2810E"/>
<path d="M115.901 83.5106C117.451 77.5999 113.924 71.5496 108.022 69.9967C102.12 68.4439 96.0788 71.9766 94.5283 77.8873C92.9778 83.7979 96.5052 89.8483 102.407 91.4011C108.309 92.954 114.35 89.4213 115.901 83.5106Z" fill="#FFB93E"/>
<path d="M109.183 77.1699H108.109C107.989 76.859 107.827 76.5667 107.629 76.3013H108.736L109.673 74.8907L109.183 74.5078H101.638L100.702 75.9185L101.19 76.3013H104.846C105.148 76.2461 105.458 76.3032 105.722 76.4624C105.986 76.6216 106.186 76.8725 106.287 77.1699H101.462L100.527 78.5805L101.015 78.9634H106.328C106.166 79.3659 105.892 79.71 105.54 79.9521C105.188 80.1943 104.774 80.3236 104.35 80.3237H100.788V81.9359L103.661 87.1331L104.151 87.516H106.122L103.198 82.1192H104.878C105.726 82.1108 106.544 81.7868 107.178 81.2071C107.813 80.6275 108.222 79.8312 108.331 78.9654H108.736L109.673 77.5548L109.183 77.1699Z" fill="#D68900"/>
<path d="M105.287 90.8862C103.511 90.8897 101.764 90.4223 100.226 89.5314C98.6883 88.6404 97.4131 87.3577 96.5301 85.8134C95.6472 84.2692 95.1881 82.5185 95.1994 80.739C95.2106 78.9596 95.6919 77.2148 96.5943 75.6819C97.4967 74.149 98.7881 72.8826 100.337 72.0112C101.887 71.1399 103.638 70.6947 105.415 70.7208C107.192 70.7469 108.93 71.2435 110.453 72.16C111.976 73.0765 113.229 74.3804 114.087 75.9391C116.766 80.8076 114.991 86.9514 110.13 89.6354C108.648 90.4561 106.981 90.8865 105.287 90.8862ZM105.257 71.3216C102.854 71.3202 100.541 72.2308 98.7824 73.8699C97.0239 75.509 95.9511 77.7548 95.7803 80.1545C95.6095 82.5543 96.3533 84.9298 97.8619 86.8021C99.3705 88.6744 101.532 89.9045 103.91 90.2443C106.288 90.5842 108.706 90.0086 110.678 88.6335C112.649 87.2585 114.026 85.1862 114.533 82.8343C115.039 80.4825 114.636 78.0259 113.405 75.9596C112.175 73.8934 110.208 72.3711 107.901 71.6995C107.042 71.4486 106.152 71.3216 105.257 71.3224V71.3216Z" fill="#FFA412"/>
<path d="M107.105 75.9268H108.206L109.135 74.5078H101.632L100.701 75.9268H104.335C104.736 75.9271 105.129 76.0454 105.468 76.2681C105.808 76.4909 106.079 76.809 106.252 77.1857H101.456L100.527 78.6047H106.41C106.308 79.1008 106.045 79.5454 105.667 79.8645C105.288 80.1836 104.815 80.3579 104.328 80.3582H100.786V81.98L103.642 87.2081H105.601L102.699 81.7732H104.368C105.209 81.7651 106.019 81.4414 106.649 80.8615C107.279 80.2816 107.687 79.4845 107.797 78.6169H108.202L109.131 77.1979H107.703C107.585 76.7378 107.382 76.3061 107.105 75.9268Z" fill="#FFCC00"/>
<path d="M116.202 74.2712C115.741 73.9441 114.691 73.2251 114.637 73.3852C114.598 73.5007 114.654 73.6931 114.78 73.9002C114.146 73.6631 113.502 73.5076 111.979 73.8001C111.827 73.8277 111.683 73.8857 111.554 73.9707C111.426 74.0556 111.316 74.1657 111.23 74.2943C111.077 74.536 111.018 74.8385 111.406 75.0809C112.183 75.5643 111.958 75.2749 113.037 75.9792C114.117 76.6835 115.438 76.8636 116.228 76.3687L117.288 76.1916L117.42 74.4459C117.42 74.4459 116.816 74.3736 116.202 74.2712Z" fill="#FFB27D"/>
<path d="M143.975 59.6274C143.975 59.6274 141.477 62.5962 138.295 61.3539C138.295 61.3539 137.61 59.6959 137.603 58.4736C137.603 58.3235 137.603 58.1772 137.598 58.0387C137.581 56.6625 137.534 55.8904 137.534 55.8904C137.679 55.8296 142.399 53.8892 142.394 54.0508C142.314 57.7724 143.975 59.6274 143.975 59.6274Z" fill="#FFB27D"/>
<path d="M141.921 54.9405C141.466 55.7872 139.905 57.4383 137.595 58.0417C137.578 56.6655 137.531 55.8934 137.531 55.8934C137.664 55.8542 142.057 54.6881 141.921 54.9405Z" fill="#ED975D"/>
<path d="M136.544 55.7473C136.544 55.7473 141.851 56.9965 142.578 53.6744C143.304 50.3523 144.478 48.2764 141.117 47.3381C137.757 46.3999 136.822 47.5221 136.31 48.5697C135.798 49.6173 135.182 55.3362 136.544 55.7473Z" fill="#FFB27D"/>
<path d="M142.396 54.5796C142.468 54.6266 143.61 54.9776 145.773 50.6626C146.112 49.9852 146.344 48.5197 145.552 47.225C144.76 45.9304 141.954 44.9159 139.623 44.4695C137.291 44.023 136.732 45.34 136.183 46.6608C135.606 48.0463 133.941 49.1878 133.941 49.1878C135.952 50.3131 138.374 48.7044 139.213 48.9684C140.052 49.2324 140.348 50.5571 140.411 50.982C140.474 51.4069 140.57 51.7586 141.625 51.3799C142.681 51.0012 142.103 52.877 141.933 53.2357C141.934 53.2357 141.79 54.1917 142.396 54.5796Z" fill="#949494"/>
<path d="M156.068 137.428H159.281C159.955 137.428 160.704 136.753 160.891 135.516C161.077 134.279 162.463 133.604 162.763 132.591C163.063 131.579 161.527 130.154 161.527 130.154L161.27 129.823L161.004 129.479L158.457 130.078C158.457 130.078 158.395 130.686 158.356 131.458C158.323 132.048 158.319 132.639 158.345 133.229C158.422 134.579 157.968 136.033 156.771 136.295C155.573 136.558 156.068 137.428 156.068 137.428Z" fill="#2C3A64"/>
<path d="M133.695 137.428H142.214C142.276 137.419 142.337 137.401 142.395 137.376C142.964 137.091 142.785 134.913 142.717 134.236C142.704 134.112 142.695 134.039 142.695 134.039C142.695 134.039 139.697 131.639 139.287 133.476C139.274 133.534 139.258 133.59 139.243 133.645C138.723 135.365 136.399 136.145 135.055 136.363C134.029 136.53 133.763 137.13 133.695 137.428Z" fill="#2C3A64"/>
<path d="M135.412 88.2291C135.412 88.2291 135.867 93.9134 136.402 100.747C137.128 110.029 138.002 121.431 138.089 123.59C138.238 127.341 138.839 133.341 138.839 133.341C138.839 133.341 140.26 134.766 143.107 134.166C143.107 134.166 145.643 125.601 146.368 116.539C146.379 116.39 146.39 116.241 146.402 116.091C147.076 106.867 148.123 87.4417 148.123 87.4417L135.412 88.2291Z" fill="#2B478B"/>
<path d="M135.412 88.2291C135.412 88.2291 135.867 93.9134 136.402 100.747L146.368 116.539C146.379 116.39 146.39 116.241 146.402 116.091C147.076 106.867 148.123 87.4417 148.123 87.4417L135.412 88.2291Z" fill="#233862"/>
<path d="M137.49 88.9042C137.49 88.9042 145.69 109.491 151.082 119.166C156.473 128.841 158.158 131.541 158.158 131.541C158.158 131.541 161.247 130.303 161.529 129.463C161.529 129.463 159.466 110.785 155.856 106.232C153.815 103.659 151.419 95.9386 151.307 93.2384C151.195 90.5383 150.577 85.1903 150.577 85.1903L137.49 88.9042Z" fill="#2B478B"/>
<path d="M156.187 85.1634L156.274 86.4873C156.274 86.4873 155.402 88.8395 157.845 90.0464C157.845 90.0464 158.891 90.469 158.933 89.6531C158.975 88.8372 158.842 89.1451 158.927 87.9967C159.012 86.8483 158.561 85.7645 157.803 85.3981L157.181 84.6792L156.187 85.1634Z" fill="#FFB27D"/>
<path d="M157.145 86.1278C156.237 86.4195 156.092 86.3533 156.092 86.3533C156.092 86.3533 151.674 78.2983 151.227 77.5609C150.78 76.8235 141.85 68.5283 141.85 68.5283L144.145 59.9561C144.145 59.9561 154.304 73.1312 155.402 75.0216C157.215 78.1459 158.277 85.4012 158.277 85.4012C157.968 85.7365 157.578 85.9867 157.145 86.1278Z" fill="#587DC7"/>
<path d="M133.681 71.8942C133.713 73.6546 133.815 75.6335 133.952 77.6432L133.978 78.0011C134.066 79.2465 134.161 80.4942 134.271 81.7111C134.315 82.1991 134.362 82.6818 134.41 83.1559L134.418 83.219C134.418 83.3968 134.443 83.5892 134.463 83.7647C134.911 88.323 135.38 91.9237 135.468 91.9799C135.569 92.0517 135.694 92.0835 135.817 92.0692C137.011 91.9152 140.572 92.19 143.488 91.555C145.947 91.0354 148.067 90.0494 150.312 88.7209C150.61 88.5447 151.289 88.0774 151.234 87.728C151.18 87.3431 151.08 86.7897 150.952 86.0924C150.509 83.6678 149.746 79.4967 149.486 74.6152C149.434 73.7059 149.361 72.8079 149.266 71.9212C149.015 69.6213 148.614 67.4368 148.076 65.4964C147.077 61.8911 145.608 59.1301 143.765 58.0502C143.524 57.9147 142.227 58.7429 141.038 59.5057C139.939 60.2108 138.782 60.4063 137.656 60.3078L136.665 61.4061C135.466 62.8024 134.189 64.6612 133.84 67.3037C133.814 67.4992 133.792 67.7062 133.773 67.9271C133.677 69.0055 133.653 70.3679 133.681 71.8942Z" fill="#648CDD"/>
<path d="M133.681 71.8943C133.713 73.6546 133.815 75.6335 133.952 77.6433L133.978 78.0012C140.796 73.727 141.847 65.9052 141.847 65.9052C138.492 66.0529 135.828 66.825 133.773 67.9295C133.677 69.0056 133.653 70.3679 133.681 71.8943Z" fill="#1E3D70"/>
<path d="M116.453 75.2609C116.383 74.248 116.906 74.0794 116.906 74.0794C116.906 74.0794 127.186 72.2136 128.06 71.9381C128.934 71.6625 136.408 63.8776 136.408 63.8776C136.408 63.8776 139.272 60.6448 141.617 61.3568C143.655 61.978 144.452 63.5698 144.723 65.0869C144.877 65.9716 144.762 66.8826 144.392 67.7008C144.022 68.5189 143.414 69.2062 142.647 69.6728C139.139 71.828 132.118 76.0745 130.461 76.5602C126.78 77.6378 116.888 76.6464 116.888 76.6464C116.639 76.2242 116.49 75.7501 116.453 75.2609Z" fill="#648CDD"/>
<path opacity="0.2" d="M128.55 95.0365V133.307C128.546 134.382 128.118 135.413 127.359 136.173C126.6 136.934 125.571 137.363 124.497 137.366H85.2185C84.8845 137.366 84.5518 137.325 84.2278 137.244C83.6552 137.101 83.1194 136.838 82.6558 136.473C82.1921 136.107 81.8111 135.647 81.5379 135.123C81.5256 135.1 81.514 135.077 81.5017 135.052C81.2608 134.568 81.1182 134.042 81.0821 133.502C81.0744 133.408 81.0714 133.313 81.0714 133.217V95.282C81.0744 94.2265 81.343 93.1887 81.8524 92.2646C82.3618 91.3405 83.0955 90.5599 83.9857 89.9948H83.9903C84.9962 89.3512 85.7624 88.3936 86.1706 87.2702C86.5787 86.1467 86.606 84.92 86.2483 83.7794H123.38C123.033 84.8823 123.046 86.0674 123.417 87.1624C123.789 88.2575 124.499 89.2054 125.445 89.8686C125.538 89.9333 125.635 89.9964 125.731 90.0549C126.589 90.5727 127.299 91.3032 127.792 92.1757C128.286 93.0483 128.547 94.0336 128.55 95.0365Z" fill="#ED9F4A"/>
<path opacity="0.2" d="M128.55 95.0365V133.307C128.547 134.332 128.157 135.319 127.459 136.07C126.761 136.82 125.805 137.279 124.784 137.355C124.69 137.362 124.594 137.366 124.498 137.366H107.206C106.108 137.363 105.056 136.924 104.28 136.147C103.504 135.369 103.066 134.316 103.063 133.217V95.282C103.066 94.2264 103.334 93.1886 103.844 92.2645C104.353 91.3404 105.087 90.5598 105.977 89.9948C106.983 89.3508 107.748 88.3929 108.155 87.2694C108.562 86.1458 108.588 84.9193 108.229 83.7794H123.377C123.013 84.9389 123.047 86.1872 123.475 87.325C123.902 88.4628 124.697 89.4244 125.734 90.0564C126.591 90.5744 127.3 91.3047 127.793 92.177C128.286 93.0493 128.547 94.0341 128.55 95.0365Z" fill="#ED9F4A"/>
<path opacity="0.6" d="M125.445 89.8686C124.232 89.1412 118.977 86.5627 105.616 86.672C90.3116 86.7975 84.1809 89.8956 83.9926 89.9918C84.9974 89.3479 85.7627 88.3907 86.1704 87.268C86.578 86.1452 86.6054 84.9193 86.2483 83.7794H123.38C123.033 84.8823 123.046 86.0674 123.417 87.1624C123.789 88.2575 124.499 89.2054 125.445 89.8686Z" fill="#ED9F4A"/>
<path d="M124.22 83.5115V85.2472C124.22 85.3289 124.187 85.4072 124.13 85.4649C124.072 85.5226 123.994 85.5551 123.912 85.5551H85.715C85.6335 85.5551 85.5553 85.5226 85.4976 85.4649C85.44 85.4072 85.4076 85.3289 85.4076 85.2472V83.5115C85.4086 83.4302 85.4413 83.3524 85.4987 83.2949C85.5562 83.2374 85.6338 83.2046 85.715 83.2036H123.912C123.994 83.2036 124.072 83.2361 124.13 83.2938C124.187 83.3515 124.22 83.4298 124.22 83.5115Z" fill="#2B478B"/>
<path d="M124.22 83.5115V85.2472C124.22 85.3289 124.187 85.4072 124.13 85.4649C124.072 85.5227 123.994 85.5551 123.912 85.5551H109.453C109.372 85.5541 109.294 85.5214 109.236 85.4638C109.179 85.4063 109.146 85.3286 109.145 85.2472V83.5115C109.147 83.4302 109.179 83.3526 109.237 83.2951C109.294 83.2377 109.372 83.2048 109.453 83.2036H123.908C123.949 83.203 123.989 83.2105 124.027 83.2257C124.065 83.2409 124.099 83.2635 124.128 83.2922C124.157 83.3208 124.18 83.355 124.196 83.3926C124.212 83.4303 124.22 83.4707 124.22 83.5115Z" fill="#233862"/>
<path d="M98.7374 92.1062C98.7374 92.1062 97.7528 93.4917 96.8505 93.5132C95.9483 93.5348 94.5749 92.8705 94.5749 92.8705C94.5749 92.8705 93.7463 91.0232 94.3082 90.2966C94.5007 90.2279 94.7074 90.2092 94.9091 90.2425C95.1108 90.2757 95.3007 90.3598 95.461 90.4867C95.5751 90.5712 95.6783 90.6694 95.7684 90.7792C95.8904 90.932 96.0557 91.0442 96.2426 91.1009C96.8867 91.2972 97.6506 90.8354 97.9334 91.2811C98.0735 91.4984 98.2409 91.6968 98.4315 91.8714C98.5266 91.9583 98.6289 92.0368 98.7374 92.1062Z" fill="#F9DDBF"/>
<path d="M85.9031 102.118C85.9031 102.118 89.3831 93.6741 95.6461 93.5132C95.6461 93.5132 101.427 94.1567 101.748 102.118H85.9031Z" fill="#F9DDBF"/>
<path d="M93.9337 93.7711C93.9337 93.7711 96.4446 94.3306 97.2185 94.002C97.2185 94.002 97.3361 92.9506 96.2786 93.0983C95.5553 93.1992 95.0835 92.8505 94.8068 92.7135C94.4102 92.5095 93.8253 93.3316 93.9337 93.7711Z" fill="#F1A34F"/>
<path d="M96.1153 92.187C95.9547 92.3071 95.4612 90.4867 95.4612 90.4867C95.5753 90.5712 95.6786 90.6694 95.7687 90.7792C95.8906 90.932 96.056 91.0441 96.2429 91.1009C96.2398 91.154 96.2705 92.0692 96.1153 92.187Z" fill="#E5C1A1"/>
<path d="M98.432 91.8714C98.3966 91.8922 97.2353 92.5888 97.0778 92.5888C96.9202 92.5888 97.934 91.2803 97.934 91.2803C98.074 91.4979 98.2414 91.6965 98.432 91.8714Z" fill="#E5C1A1"/>
<path d="M89.3029 99.7594C89.2384 99.704 91.7623 96.0332 92.4609 96.0063C93.1595 95.9793 94.7205 96.8106 95.8525 96.9176C96.9846 97.0246 98.0814 96.7036 98.2958 97.3733C98.5102 98.0429 99.0989 100.42 98.7377 100.799C98.3765 101.179 90.6925 100.948 89.3029 99.7594Z" fill="#E5C1A1"/>
<path opacity="0.5" d="M86.4884 134.474C86.287 134.58 86.0849 134.681 85.8804 134.778C85.686 134.89 85.4885 135 85.2871 135.105C84.3739 135.587 83.4168 135.979 82.4289 136.278C82.0679 135.948 81.7674 135.557 81.5412 135.123C81.3875 135.205 81.2337 135.286 81.0746 135.363V106.488C81.7893 106.584 82.4969 106.727 83.1928 106.915C87.0878 107.969 90.5563 110.452 92.666 114.102C96.8539 121.355 94.0909 130.476 86.4884 134.474Z" fill="#E2810E"/>
<path d="M89.1225 112.965C84.9324 105.351 75.3715 102.581 67.769 106.778C60.1664 110.974 57.4011 120.55 61.5921 128.163C65.783 135.777 75.3431 138.548 82.9456 134.35C90.5482 130.153 93.3135 120.579 89.1225 112.965Z" fill="#E2810E"/>
<path d="M82.3358 134.67C82.1421 134.788 81.9451 134.903 81.7448 135.013C81.6772 135.051 81.6095 135.09 81.5419 135.123C81.3882 135.205 81.2345 135.286 81.0754 135.363C73.5904 139.045 64.4607 136.219 60.3912 128.827C56.51 121.776 58.5959 113.042 64.9649 108.456C65.4789 108.086 66.0145 107.747 66.5689 107.44C66.7702 107.33 66.9731 107.223 67.1776 107.122C67.382 107.021 67.5757 106.929 67.7763 106.839C69.2734 106.172 70.8653 105.744 72.4945 105.569C75.5724 105.243 78.6782 105.833 81.4225 107.267C84.1669 108.7 86.428 110.913 87.9225 113.627C92.0027 121.041 89.4888 130.312 82.3358 134.67Z" fill="#FFB93E"/>
<path d="M74.2661 135.739C70.7735 135.748 67.3978 134.48 64.7723 132.173C62.1469 129.866 60.4523 126.679 60.0065 123.21C59.5607 119.741 60.3944 116.228 62.3511 113.331C64.3078 110.433 67.2531 108.351 70.6341 107.474C74.0151 106.597 77.5995 106.985 80.7146 108.567C83.8297 110.149 86.2613 112.815 87.5531 116.065C88.845 119.314 88.9082 122.925 87.731 126.218C86.5538 129.511 84.2171 132.261 81.1593 133.951C79.0478 135.117 76.6773 135.732 74.2661 135.739ZM62.4526 127.901C63.9567 130.633 66.3603 132.759 69.2539 133.916C72.1475 135.073 75.3521 135.189 78.3216 134.244C81.291 133.3 83.8417 131.354 85.539 128.737C87.2363 126.121 87.9751 122.995 87.6297 119.894C87.2842 116.793 85.8758 113.908 83.6444 111.731C81.4131 109.553 78.4968 108.218 75.3925 107.952C72.2883 107.686 69.1881 108.507 66.6202 110.274C64.0523 112.041 62.1755 114.645 61.3098 117.642C60.8135 119.343 60.659 121.125 60.8552 122.886C61.0513 124.647 61.5943 126.352 62.4526 127.901Z" fill="#FFA412"/>
<path d="M62.4772 65.8066C62.5248 65.6142 58.2909 67.724 58.0757 67.9618C56.0897 70.1686 56.6561 73.0473 57.7928 73.075C58.5214 73.0927 58.38 74.3066 58.38 74.3066L66.496 70.8667C66.496 70.8667 65.5214 65.157 62.4772 65.8066Z" fill="#8A8A8A"/>
<path d="M63.4773 66.2554C63.4773 66.2554 63.767 63.088 60.2332 63.088C60.2332 63.088 61.3045 63.379 61.8579 63.9601C61.8579 63.9601 59.6045 62.6354 57.1513 64.6713C54.698 66.7072 56.2229 71.815 55.4766 72.7849C54.7303 73.7547 51.8259 73.9487 52.181 77.0837C52.5361 80.2187 61.4037 84.1458 60.8303 86.7405C60.8303 86.7405 64.3042 81.6265 61.8203 79.2928C61.8203 79.2928 63.0307 80.4343 63.1545 81.792C63.1545 81.792 63.4826 79.1419 61.7987 78.2937C60.3085 77.544 59.088 74.8 59.2172 74.3097C59.3463 73.8193 63.4773 66.2554 63.4773 66.2554Z" fill="#8A8A8A"/>
<path d="M60.271 81.1546C59.7261 78.5268 56.323 77.7117 54.7136 79.8577C54.4078 80.2599 54.2147 80.7366 54.1541 81.2385C53.786 84.2219 58.5487 96.3726 59.2312 97.4725C60.4724 99.4738 67.7845 106.342 67.7845 106.342L69.1317 105.524C69.1317 105.524 63.9455 96.7305 63.1424 95.9077C62.2117 94.9564 61.3032 86.1447 60.271 81.1546Z" fill="#ED985F"/>
<path d="M67.2698 105.528C67.2698 105.528 69.2366 104.235 69.9813 104.318C70.726 104.401 72.8803 105.022 72.9072 105.339C72.9341 105.656 70.5055 105.855 70.3425 106.032C70.1796 106.209 68.5318 107.307 67.9346 106.962C67.3375 106.616 67.2698 105.528 67.2698 105.528Z" fill="#ED985F"/>
<path d="M53.5506 134.746L51.7937 134.487C51.7937 134.487 45.8858 129.785 45.0066 121.012C44.9144 120.111 44.9002 119.203 44.9643 118.299C44.9774 118.196 44.9558 118.09 44.9028 118C44.7138 117.71 44.2426 116.983 43.6055 115.948C42.9776 114.929 41.9032 113.002 40.7203 110.841C38.5907 106.948 36.109 102.292 35.2598 100.809C32.5491 96.0825 33.8556 92.9044 33.8556 92.9044C33.8556 92.9044 41.4167 92.1562 43.4887 90.3405L44.235 91.495C44.235 91.495 45.8735 98.7588 45.7959 98.7927C45.8768 99.039 45.9588 99.2904 46.0418 99.547C47.3345 103.543 48.8217 108.539 49.6325 112.607C50.0883 114.896 50.3296 116.89 50.2005 118.249C50.1559 118.715 50.2097 119.432 50.3342 120.316C51.0644 125.523 53.5506 134.746 53.5506 134.746Z" fill="#2B478B"/>
<path d="M57.2367 136.972H49.9062C49.9062 136.972 49.7302 135.853 50.113 135.004C50.4804 134.189 51.003 134.164 50.1798 132.887C50.6456 133.367 52.1435 133.566 53.2033 133.426C53.3325 133.637 54.0403 135.052 54.4738 135.363C54.9526 135.705 57.0892 135.583 57.2367 136.972Z" fill="#233862"/>
<path d="M46.0402 99.5424C45.4 103.083 43.8882 108.965 40.7187 110.839C38.589 106.945 36.1074 102.289 35.2581 100.806C32.5474 96.0802 33.854 92.902 33.854 92.902C33.854 92.902 41.415 92.1539 43.487 90.3381L44.2333 91.4927C44.2333 91.4927 45.8719 98.7565 45.7942 98.7903C45.8752 99.0351 45.9572 99.2858 46.0402 99.5424Z" fill="#233862"/>
<path d="M59.4838 79.5244C59.4838 79.5244 60.5206 80.602 60.994 81.8967C60.994 81.8967 59.3409 86.6519 55.4766 87.2477C55.4766 87.2477 58.5339 79.5229 59.4838 79.5244Z" fill="#05F9DB"/>
<path d="M40.9032 93.4486L40.9278 92.0754C38.1925 92.4202 31.5061 88.808 31.5061 88.808C31.5061 88.808 28.6478 90.7115 28.2574 96.1472C28.066 98.8012 26.8579 110.022 26.7203 113.373C26.6719 114.587 26.6557 115.451 26.6503 115.8C26.6438 115.905 26.603 116.004 26.5343 116.083C25.9762 116.796 25.4809 117.556 25.0541 118.355C20.8862 126.121 23.0658 136.674 23.0658 136.674L24.0342 136.428C24.0342 136.428 27.558 125.487 29.8614 120.755C30.2526 119.952 30.6076 119.328 30.9051 118.967C31.7712 117.913 32.6843 116.124 33.5843 113.971C35.2858 109.9 36.9375 104.529 38.1187 100.37C38.2033 100.388 40.9032 93.4486 40.9032 93.4486Z" fill="#2B478B"/>
<path d="M56.8838 84.2844C52.4185 83.2584 55.2698 76.9721 55.5303 77.0845C56.1452 76.9583 57.5078 75.8699 58.7237 73.7455L58.8874 73.8879L61.6304 76.2963C61.6304 76.2963 60.9963 77.233 60.4629 78.1505C60.0464 78.8687 59.6944 79.5761 59.7482 79.8193C59.9688 79.9932 58.075 84.5584 56.8838 84.2844Z" fill="#FFB27D"/>
<path d="M61.6302 76.297C61.6302 76.297 60.9954 77.2322 60.4628 78.1504C58.7574 77.0983 58.7558 74.9839 58.8873 73.8885L61.6302 76.297Z" fill="#ED985F"/>
<path d="M61.7066 77.5032C61.7066 77.5032 57.5664 75.1941 59.0405 72.6355C60.5145 70.077 60.9734 68.0534 63.6795 69.4181C66.3855 70.7829 66.3318 72.0544 66.0466 73.0289C65.7615 74.0033 62.821 78.0374 61.7066 77.5032Z" fill="#FFB27D"/>
<path d="M66.7464 71.5356C66.5574 70.3987 65.9779 70.2902 65.5782 70.3664C64.0496 67.8341 61.5517 68.8224 61.5517 68.8224C60.2175 70.4988 58.2885 70.7851 58.2885 70.7851C58.2885 70.7851 58.7688 71.6803 60.7478 72.2345C61.3519 72.4038 62.0382 72.3015 62.7 72.0806C61.8161 72.5604 60.8711 72.9173 59.8909 73.1412C62.4994 73.3806 64.981 70.9914 65.2385 70.7366C65.3592 71.1061 65.5705 71.8812 65.4437 72.4477C65.2723 73.2174 64.5898 74.6122 65.0064 74.793C65.0072 74.7907 67.0346 73.2405 66.7464 71.5356Z" fill="#8A8A8A"/>
<path d="M28.8998 136.972H21.5693C21.5693 136.972 21.3933 135.853 21.7768 135.004C22.1434 134.189 22.7183 133.819 22.5807 132.834C23.0465 133.314 23.805 133.852 24.8649 133.709C24.9948 133.92 25.7034 135.048 26.1368 135.36C26.6156 135.705 28.7522 135.583 28.8998 136.972Z" fill="#233862"/>
<path d="M57.4097 89.2698C56.4666 89.5992 55.1424 89.7793 53.7882 89.9271C51.8607 90.138 49.8686 90.282 48.8287 90.6968C48.4444 90.8508 48.1939 91.0363 48.1147 91.2757C47.6667 92.635 45.6684 94.7348 45.6684 94.7348C32.9104 94.1528 31.5062 88.808 31.5062 88.808C40.0933 78.8055 54.6344 75.9107 54.6344 75.9107C54.6344 75.9107 55.6727 75.4696 58.2881 77.5509C60.0335 78.941 59.8037 79.4752 59.8037 79.4752C59.8037 79.4752 60.1857 88.2969 57.4097 89.2698Z" fill="#00E3C8"/>
<path d="M53.7879 89.924C51.8604 90.1349 49.8683 90.2788 48.8284 90.6937C48.4019 84.3181 51.4061 79.5228 51.4061 79.5228C51.4061 79.5228 53.366 87.5117 53.7879 89.924Z" fill="#00786A"/>
<path d="M55.7721 78.2905C55.7721 78.2905 50.9417 78.7685 50.5544 81.9082C50.167 85.0478 55.1857 97.8566 55.9043 99.0158C57.2108 101.126 64.9179 108.362 64.9179 108.362L66.3382 107.5C66.3382 107.5 60.873 98.2338 60.0268 97.3663C58.698 96.0093 57.4084 79.3797 55.7721 78.2905Z" fill="#FFB27D"/>
<path d="M50.6933 83.8048C50.7064 83.8756 55.151 85.2588 58.0131 83.8048C58.0131 83.8048 58.6279 77.1937 55.2094 77.5524C51.7908 77.9111 49.7711 78.9887 49.685 80.6259C49.5989 82.2631 50.6933 83.8048 50.6933 83.8048Z" fill="#05F9DB"/>
<path d="M64.4792 107.447C64.4792 107.447 66.2123 105.853 66.9602 105.815C67.708 105.776 69.9352 106.046 70.0121 106.354C70.0889 106.661 67.7256 107.249 67.5927 107.447C67.4597 107.644 66.0102 108.997 65.3639 108.755C64.7175 108.513 64.4792 107.447 64.4792 107.447Z" fill="#FFB27D"/>
<path d="M198.775 136.943H0.225186C0.100819 136.943 0 137.044 0 137.168V137.246C0 137.37 0.100819 137.471 0.225186 137.471H198.775C198.899 137.471 199 137.37 199 137.246V137.168C199 137.044 198.899 136.943 198.775 136.943Z" fill="#2E3552"/>
<path d="M78.9784 118.196H77.9045C77.7842 117.885 77.6226 117.592 77.4244 117.327H78.5316L79.4683 115.916L78.9784 115.534H71.4336L70.4969 116.944L70.9849 117.327H74.6416C74.943 117.272 75.2536 117.329 75.5176 117.488C75.7817 117.647 75.9818 117.898 76.082 118.196H71.2573L70.3225 119.606L70.8105 119.989H76.1232C75.9614 120.392 75.6872 120.736 75.3352 120.978C74.9833 121.22 74.5693 121.349 74.1458 121.349H70.5831V122.962L73.456 128.159L73.946 128.542H75.9174L72.9935 123.145H74.673C75.5218 123.137 76.339 122.813 76.9737 122.233C77.6084 121.653 78.0176 120.857 78.1259 119.991H78.5316L79.4683 118.581L78.9784 118.196Z" fill="#D68900"/>
<path d="M76.9006 116.953H78.0012L78.9303 115.534H71.427L70.4959 116.953H74.1307C74.5318 116.953 74.9246 117.071 75.2638 117.294C75.603 117.517 75.8746 117.835 76.0474 118.211H71.2517L70.3225 119.63H76.2052C76.1032 120.127 75.8408 120.571 75.4619 120.89C75.0829 121.209 74.6103 121.384 74.1229 121.384H70.5816V123.006L73.4372 128.234H75.3968L72.4944 122.799H74.1638C75.0047 122.791 75.8146 122.467 76.4445 121.887C77.0743 121.307 77.4819 120.51 77.5921 119.643H77.9973L78.9264 118.224H77.4986C77.3804 117.764 77.1773 117.332 76.9006 116.953Z" fill="#FFCC00"/>
<path d="M129.246 16.365H128.574C128.555 16.2485 128.519 16.1454 128.468 16.0555C128.416 15.9644 128.352 15.8872 128.275 15.8239C128.199 15.7606 128.111 15.7132 128.013 15.6815C127.916 15.6486 127.811 15.6322 127.698 15.6322C127.498 15.6322 127.32 15.6853 127.166 15.7916C127.011 15.8967 126.89 16.0511 126.802 16.2549C126.715 16.4574 126.671 16.7048 126.671 16.9972C126.671 17.2946 126.715 17.5452 126.802 17.7489C126.891 17.9514 127.012 18.1046 127.166 18.2084C127.32 18.3109 127.497 18.3621 127.696 18.3621C127.806 18.3621 127.91 18.3469 128.005 18.3166C128.103 18.2849 128.19 18.2387 128.266 18.178C128.344 18.1172 128.41 18.0426 128.462 17.954C128.516 17.8654 128.553 17.7641 128.574 17.6502L129.246 17.654C129.221 17.8388 129.167 18.0122 129.083 18.1742C129 18.3362 128.892 18.4792 128.757 18.6032C128.623 18.726 128.466 18.8222 128.286 18.8918C128.106 18.9601 127.907 18.9943 127.687 18.9943C127.363 18.9943 127.074 18.9152 126.82 18.757C126.566 18.5988 126.366 18.3704 126.219 18.0717C126.073 17.773 126 17.4148 126 16.9972C126 16.5782 126.074 16.2201 126.221 15.9226C126.369 15.624 126.57 15.3955 126.824 15.2373C127.078 15.0791 127.366 15 127.687 15C127.892 15 128.083 15.0304 128.259 15.0911C128.435 15.1519 128.592 15.2411 128.73 15.3588C128.868 15.4752 128.981 15.6183 129.07 15.7879C129.16 15.9562 129.219 16.1486 129.246 16.365Z" fill="#105896"/>
<path d="M133.402 16.9972C133.402 17.4161 133.328 17.7749 133.179 18.0736C133.032 18.371 132.83 18.5988 132.575 18.757C132.321 18.9152 132.032 18.9943 131.71 18.9943C131.387 18.9943 131.098 18.9152 130.843 18.757C130.589 18.5975 130.387 18.3691 130.239 18.0717C130.091 17.773 130.017 17.4148 130.017 16.9972C130.017 16.5782 130.091 16.2201 130.239 15.9226C130.387 15.624 130.589 15.3955 130.843 15.2373C131.098 15.0791 131.387 15 131.71 15C132.032 15 132.321 15.0791 132.575 15.2373C132.83 15.3955 133.032 15.624 133.179 15.9226C133.328 16.2201 133.402 16.5782 133.402 16.9972ZM132.731 16.9972C132.731 16.7023 132.688 16.4536 132.6 16.2511C132.514 16.0473 132.394 15.8935 132.24 15.7897C132.087 15.6847 131.91 15.6322 131.71 15.6322C131.51 15.6322 131.333 15.6847 131.179 15.7897C131.026 15.8935 130.905 16.0473 130.818 16.2511C130.731 16.4536 130.688 16.7023 130.688 16.9972C130.688 17.292 130.731 17.5414 130.818 17.7451C130.905 17.9476 131.026 18.1014 131.179 18.2065C131.333 18.3102 131.51 18.3621 131.71 18.3621C131.91 18.3621 132.087 18.3102 132.24 18.2065C132.394 18.1014 132.514 17.9476 132.6 17.7451C132.688 17.5414 132.731 17.292 132.731 16.9972Z" fill="#105896"/>
<path d="M134.286 15.0532H135.103L136.197 17.8704H136.24L137.333 15.0532H138.15V18.9411H137.51V16.2701H137.475L136.457 18.9298H135.979L134.961 16.2644H134.927V18.9411H134.286V15.0532Z" fill="#105896"/>
<path d="M139.13 18.9411V15.0532H140.511C140.794 15.0532 141.031 15.1088 141.223 15.2202C141.416 15.3316 141.562 15.4847 141.66 15.6796C141.76 15.8733 141.81 16.0935 141.81 16.3403C141.81 16.5896 141.76 16.8111 141.66 17.0047C141.561 17.1984 141.414 17.3509 141.22 17.4623C141.025 17.5724 140.786 17.6274 140.502 17.6274H139.587V17.0484H140.412C140.578 17.0484 140.713 17.018 140.819 16.9573C140.924 16.8965 141.002 16.813 141.052 16.7067C141.104 16.6004 141.13 16.4782 141.13 16.3403C141.13 16.2023 141.104 16.0808 141.052 15.9758C141.002 15.8707 140.924 15.7891 140.817 15.7309C140.711 15.6714 140.575 15.6417 140.409 15.6417H139.797V18.9411H139.13Z" fill="#105896"/>
<path d="M145.934 16.9972C145.934 17.4161 145.86 17.7749 145.711 18.0736C145.563 18.371 145.362 18.5988 145.107 18.757C144.852 18.9152 144.564 18.9943 144.241 18.9943C143.919 18.9943 143.63 18.9152 143.375 18.757C143.12 18.5975 142.919 18.3691 142.77 18.0717C142.623 17.773 142.549 17.4148 142.549 16.9972C142.549 16.5782 142.623 16.2201 142.77 15.9226C142.919 15.624 143.12 15.3955 143.375 15.2373C143.63 15.0791 143.919 15 144.241 15C144.564 15 144.852 15.0791 145.107 15.2373C145.362 15.3955 145.563 15.624 145.711 15.9226C145.86 16.2201 145.934 16.5782 145.934 16.9972ZM145.263 16.9972C145.263 16.7023 145.219 16.4536 145.132 16.2511C145.045 16.0473 144.926 15.8935 144.772 15.7897C144.619 15.6847 144.442 15.6322 144.241 15.6322C144.041 15.6322 143.864 15.6847 143.711 15.7897C143.557 15.8935 143.437 16.0473 143.349 16.2511C143.263 16.4536 143.22 16.7023 143.22 16.9972C143.22 17.292 143.263 17.5414 143.349 17.7451C143.437 17.9476 143.557 18.1014 143.711 18.2065C143.864 18.3102 144.041 18.3621 144.241 18.3621C144.442 18.3621 144.619 18.3102 144.772 18.2065C144.926 18.1014 145.045 17.9476 145.132 17.7451C145.219 17.5414 145.263 17.292 145.263 16.9972Z" fill="#105896"/>
<path d="M149.14 15.0532H149.807V17.5933C149.807 17.8717 149.745 18.1166 149.62 18.328C149.497 18.5393 149.323 18.7045 149.099 18.8234C148.874 18.9411 148.612 19 148.313 19C148.012 19 147.749 18.9411 147.525 18.8234C147.301 18.7045 147.127 18.5393 147.003 18.328C146.88 18.1166 146.818 17.8717 146.818 17.5933V15.0532H147.485V17.5344C147.485 17.6964 147.519 17.8407 147.586 17.9673C147.654 18.0938 147.75 18.1932 147.874 18.2653C147.997 18.3362 148.144 18.3716 148.313 18.3716C148.482 18.3716 148.628 18.3362 148.752 18.2653C148.876 18.1932 148.972 18.0938 149.039 17.9673C149.106 17.8407 149.14 17.6964 149.14 17.5344V15.0532Z" fill="#105896"/>
<path d="M153.813 15.0532V18.9411H153.219L151.484 16.2928H151.453V18.9411H150.786V15.0532H151.383L153.117 17.7034H153.149V15.0532H153.813Z" fill="#105896"/>
<path d="M156.042 18.9411H154.793V15.0532H156.067C156.432 15.0532 156.747 15.131 157.009 15.2867C157.273 15.4411 157.476 15.6632 157.617 15.953C157.759 16.2428 157.829 16.5896 157.829 16.9934C157.829 17.3984 157.758 17.7464 157.615 18.0375C157.474 18.3286 157.269 18.552 157.002 18.7076C156.736 18.8633 156.416 18.9411 156.042 18.9411ZM155.461 18.3318H156.009C156.266 18.3318 156.48 18.2824 156.651 18.1837C156.823 18.0837 156.952 17.935 157.038 17.7375C157.124 17.5388 157.167 17.2908 157.167 16.9934C157.167 16.6959 157.124 16.4491 157.038 16.253C156.952 16.0555 156.824 15.9081 156.655 15.8106C156.487 15.7119 156.278 15.6626 156.029 15.6626H155.461V18.3318Z" fill="#105896"/>
<path d="M160.893 15.0532V18.9411H160.226V15.0532H160.893Z" fill="#105896"/>
<path d="M164.896 15.0532V18.9411H164.303L162.567 16.2928H162.537V18.9411H161.869V15.0532H162.466L164.2 17.7034H164.233V15.0532H164.896Z" fill="#105896"/>
<path d="M165.715 15.6436V15.0532H168.654V15.6436H167.515V18.9411H166.853V15.6436H165.715Z" fill="#105896"/>
<path d="M169.474 18.9411V15.0532H171.869V15.6436H170.141V16.6991H171.745V17.2895H170.141V18.3507H171.884V18.9411H169.474Z" fill="#105896"/>
<path d="M172.803 18.9411V15.0532H174.185C174.468 15.0532 174.705 15.105 174.897 15.2088C175.09 15.3126 175.236 15.4582 175.334 15.6455C175.433 15.8315 175.483 16.0486 175.483 16.2966C175.483 16.546 175.433 16.7624 175.332 16.9459C175.233 17.1281 175.086 17.2693 174.891 17.3692C174.697 17.468 174.459 17.5173 174.176 17.5173H173.192V16.9326H174.086C174.251 16.9326 174.387 16.9086 174.492 16.8605C174.598 16.8111 174.676 16.7396 174.726 16.6459C174.778 16.551 174.803 16.4346 174.803 16.2966C174.803 16.1587 174.778 16.041 174.726 15.9435C174.674 15.8448 174.596 15.7701 174.49 15.7195C174.385 15.6676 174.249 15.6417 174.082 15.6417H173.471V18.9411H172.803ZM174.706 17.1794L175.618 18.9411H174.874L173.978 17.1794H174.706Z" fill="#105896"/>
<path d="M176.351 18.9411V15.0532H178.746V15.6436H177.018V16.6991H178.622V17.2895H177.018V18.3507H178.761V18.9411H176.351Z" fill="#105896"/>
<path d="M181.682 16.122C181.666 15.9562 181.595 15.8271 181.47 15.7347C181.347 15.6423 181.186 15.5961 180.988 15.5961C180.849 15.5961 180.73 15.6183 180.63 15.6626C180.531 15.7069 180.454 15.767 180.402 15.8429C180.349 15.9188 180.322 16.0055 180.321 16.103C180.321 16.184 180.338 16.2542 180.373 16.3137C180.409 16.3732 180.457 16.4238 180.519 16.4656C180.58 16.5061 180.648 16.5403 180.722 16.5681C180.796 16.596 180.871 16.6194 180.947 16.6383L181.292 16.7295C181.431 16.7636 181.565 16.8098 181.693 16.8681C181.823 16.9263 181.938 16.9997 182.04 17.0883C182.143 17.1769 182.225 17.2838 182.285 17.4091C182.345 17.5344 182.375 17.6812 182.375 17.8495C182.375 18.0774 182.32 18.278 182.209 18.4514C182.099 18.6235 181.94 18.7583 181.731 18.8557C181.523 18.9519 181.272 19 180.977 19C180.691 19 180.442 18.9532 180.231 18.8595C180.021 18.7659 179.857 18.6292 179.738 18.4495C179.621 18.2697 179.557 18.0508 179.547 17.7926H180.204C180.213 17.928 180.253 18.0407 180.323 18.1305C180.392 18.2204 180.483 18.2875 180.594 18.3318C180.707 18.376 180.833 18.3982 180.972 18.3982C181.117 18.3982 181.244 18.3754 181.353 18.3299C181.464 18.283 181.55 18.2185 181.612 18.1362C181.675 18.0527 181.706 17.9552 181.708 17.8439C181.706 17.7426 181.678 17.6591 181.623 17.5933C181.568 17.5262 181.49 17.4705 181.391 17.4262C181.293 17.3806 181.178 17.3401 181.046 17.3047L180.627 17.1908C180.323 17.1085 180.083 16.9839 179.907 16.8168C179.732 16.6485 179.645 16.4251 179.645 16.1467C179.645 15.9176 179.703 15.717 179.821 15.5449C179.939 15.3727 180.101 15.2392 180.305 15.1443C180.508 15.0481 180.739 15 180.997 15C181.258 15 181.487 15.0481 181.684 15.1443C181.882 15.2392 182.037 15.3715 182.15 15.5411C182.263 15.7094 182.321 15.903 182.324 16.122H181.682Z" fill="#105896"/>
<path d="M183.061 15.6436V15.0532H186V15.6436H184.861V18.9411H184.2V15.6436H183.061Z" fill="#105896"/>
</svg>
