<svg width="223" height="137" viewBox="0 0 223 137" fill="none" xmlns="http://www.w3.org/2000/svg">
<path d="M10.3932 137C10.3932 137 -5.77214 116.77 2.2183 77.6954C7.24426 53.1166 28.3548 40.9418 56.654 42.1043C66.3818 42.5037 82.2084 30.5954 104.95 15.9677C153.594 -15.3229 223.958 -2.03373 207.118 68.3488C198.968 102.408 232.754 102.954 215.962 137H10.3932Z" fill="#F0FFFB"/>
<path d="M190.334 30.1777C190.26 25.2105 182.185 24.6658 182.185 24.6658C182.185 24.6658 174.914 31.4424 173.342 31.2414C171.771 31.0405 178.447 24.2132 178.447 24.2132C175.569 23.1587 167.128 24.89 167.128 24.89C167.128 24.89 165.228 34.5015 163.753 33.9127C162.279 33.324 165.862 25.4895 165.862 25.4895C162.788 25.6207 159.274 28.3194 159.274 28.3194C154.561 32.9752 160.683 38.8899 160.683 38.8899C160.683 38.8899 159.954 42.2064 157.009 45.4648C156.499 45.9686 156.037 46.5198 155.628 47.1114L156.406 47.3131C156.524 47.1172 156.645 46.9303 156.772 46.7535L156.778 46.746C156.859 46.6372 156.982 46.4828 157.13 46.2951C157.487 45.8799 157.735 45.5752 157.9 45.3493C158.984 44.0473 160.496 42.3766 161.283 42.1474C161.24 42.016 161.215 41.8795 161.208 41.7414C161.231 41.8709 161.257 42.0055 161.283 42.1474C161.888 45.3967 168.431 47.6071 172.337 47.7939C176.244 47.9808 174.892 46.4969 173.326 44.2499C171.76 42.003 167.457 41.3752 166.386 40.3771C165.316 39.379 167.297 39.1689 169.724 40.0043C172.15 40.8396 172.758 43.6761 176.659 45.0994C180.559 46.5226 185.526 39.6555 185.526 39.6555C182.547 39.8116 177.984 36.9809 178.037 35.9637C178.089 34.9465 185.394 36.9411 186.609 36.946C187.824 36.951 190.407 35.1458 190.334 30.1777Z" fill="#86E8CE"/>
<path d="M197.318 78.7923C201.118 72.2565 191.02 64.9949 191.02 64.9949C191.02 64.9949 176.225 67.9286 174.334 66.3916C172.443 64.8546 186.499 61.3712 186.499 61.3712C183.573 57.6611 171.211 53.0676 171.211 53.0676C171.211 53.0676 161.196 64.0549 159.735 62.092C158.274 60.129 169.091 52.8226 169.091 52.8226C164.981 50.4976 158.283 51.1669 158.283 51.1669C148.486 53.4088 151.827 66.0902 151.827 66.0902C151.827 66.0902 148.276 69.8218 141.881 71.6802C141.881 71.6802 140.61 71.9293 138.789 72.7057L139.646 73.6C139.952 73.4397 140.257 73.2944 140.561 73.1665C140.562 73.1661 140.563 73.1659 140.564 73.1659C140.565 73.1659 140.566 73.1661 140.567 73.1665L140.58 73.1607C140.775 73.0876 141.053 72.9839 141.396 72.8601C142.184 72.611 142.749 72.4117 143.142 72.2506C145.577 71.4336 148.857 70.482 150.064 70.8216C150.111 70.6156 150.185 70.4168 150.284 70.2304L150.064 70.8216C148.304 75.5488 155.099 83.7379 160.045 87.1515C164.991 90.5652 164.393 87.5335 164.114 83.3319C163.834 79.1302 158.718 74.8214 158.109 72.6542C157.5 70.4869 160.243 71.8189 162.752 74.8754C165.261 77.932 163.826 82.1245 167.796 87.1449C171.765 92.1653 183.613 87.2479 183.613 87.2479C179.607 85.0349 175.881 77.6422 176.746 76.3585C177.612 75.0747 185.571 83.6026 187.151 84.5957C188.731 85.5888 193.518 85.3281 197.318 78.7923Z" fill="#AAD7CB"/>
<path d="M60.6925 54.4825C62.9458 49.776 70.8897 52.9264 70.8897 52.9264C70.8897 52.9264 74.8503 62.6973 76.4415 63.223C78.0327 63.7486 74.6535 54.1936 74.6535 54.1936C77.8629 54.495 85.1569 59.9837 85.1569 59.9837C85.1569 59.9837 82.746 70.0187 84.4115 70.1274C86.077 70.2362 86.0999 61.1321 86.0999 61.1321C88.9754 62.655 91.1422 66.8267 91.1422 66.8267C93.5915 73.4107 85.1545 76.273 85.1545 76.273C85.1545 76.273 84.3927 79.7688 85.7709 84.2154C85.7709 84.2154 86.113 85.0532 86.3644 86.4142L85.5333 86.2481C85.508 86.0082 85.4745 85.7748 85.4312 85.5481C85.4316 85.5448 85.4316 85.5415 85.4312 85.5382C85.3986 85.3962 85.3496 85.1944 85.2924 84.9486C85.1292 84.3939 85.032 83.9871 84.974 83.6956C84.5111 81.9601 83.8024 79.6783 83.1526 79.1029C83.251 78.9967 83.3353 78.8777 83.4032 78.7491L83.1526 79.1029C81.1474 81.9261 73.9334 81.0633 70.1239 79.4657C66.3144 77.8681 68.2567 77.0668 70.7379 75.6361C73.219 74.2054 77.6008 75.5597 79.059 75.0922C80.5171 74.6247 78.7201 73.527 76.0382 73.2197C73.3562 72.9125 71.5298 75.3455 67.1823 74.9294C62.8348 74.5134 61.1154 65.7124 61.1154 65.7124C63.8913 67.2154 69.4855 66.5876 69.8831 65.5928C70.2807 64.598 62.4331 63.1848 61.2713 62.6351C60.1095 62.0854 58.435 59.189 60.6925 54.4825Z" fill="#AAD7CB"/>
<path d="M157.664 12.2618H87.0671C81.5443 12.2618 77.0671 16.7389 77.0671 22.2618V126.054C77.0671 131.577 81.5443 136.054 87.0671 136.054H157.664C163.186 136.054 167.664 131.577 167.664 126.054V22.2618C167.664 16.7389 163.186 12.2618 157.664 12.2618Z" fill="#233862"/>
<path d="M163.346 16.2741H82.3804V130.501H163.346V16.2741Z" fill="white"/>
<path d="M106.35 12.2618V16.4551C106.35 17.0056 106.457 17.5507 106.664 18.0593C106.87 18.568 107.174 19.0302 107.556 19.4196C107.939 19.809 108.393 20.1179 108.893 20.3288C109.393 20.5396 109.929 20.6482 110.47 20.6485H132.596C133.137 20.6482 133.673 20.5396 134.173 20.3288C134.673 20.1179 135.127 19.809 135.509 19.4196C135.892 19.0302 136.195 18.568 136.402 18.0593C136.609 17.5507 136.715 17.0056 136.715 16.4551V12.2618H106.35Z" fill="#3C64B1"/>
<path d="M126.015 125.308C124.731 125.732 123.477 125.953 122.492 125.869C120.991 125.742 120.145 124.941 120.111 123.615C120.084 122.563 120.514 121.642 121.356 120.895C121.347 120.824 121.341 120.751 121.335 120.679C121.28 119.938 121.436 119.445 121.799 119.214C122.385 118.843 123.256 119.351 123.293 119.373L123.098 119.712C122.903 119.596 122.323 119.342 122.002 119.546C121.725 119.723 121.693 120.21 121.716 120.602C122.401 120.098 123.296 119.689 124.387 119.387C125.211 119.165 126.053 119.019 126.902 118.95C126.905 118.868 126.913 118.787 126.924 118.707C126.951 118.525 127.013 118.312 127.189 118.269C127.255 118.255 127.385 118.256 127.5 118.436C127.58 118.581 127.621 118.745 127.618 118.912C127.898 118.906 128.157 118.912 128.387 118.928L128.394 118.913C128.345 118.457 128.365 117.996 128.453 117.546C128.551 117.092 128.711 116.863 128.935 116.84C129 116.834 129.065 116.849 129.12 116.884C129.176 116.919 129.218 116.971 129.241 117.033C129.367 117.341 129.131 118.172 128.79 118.971C129.11 119.026 129.327 119.116 129.396 119.242C129.427 119.303 129.436 119.374 129.421 119.441C129.406 119.508 129.368 119.568 129.314 119.61C129.056 119.852 128.85 119.791 128.75 119.733C128.66 119.674 128.588 119.591 128.543 119.493C128.285 120.012 128.005 120.456 127.783 120.643C127.725 120.702 127.651 120.74 127.57 120.752C127.489 120.764 127.406 120.749 127.334 120.71C127.298 120.688 127.265 120.66 127.237 120.627C127.152 120.839 127.054 121.046 126.943 121.245C126.54 121.965 126.085 122.337 125.629 122.314C125.444 122.305 125.269 122.226 125.139 122.092C124.903 122.62 124.606 123.117 124.254 123.572C123.933 123.974 123.524 124.122 123.102 123.987C122.353 123.75 121.676 122.649 121.423 121.345C120.784 121.98 120.473 122.734 120.494 123.597C120.523 124.729 121.205 125.358 122.521 125.47C125.844 125.751 131.67 122.61 132.112 120.298C131.755 122.185 128.991 124.328 126.015 125.308ZM121.763 121.052C121.965 122.428 122.642 123.438 123.217 123.621C123.487 123.704 123.735 123.61 123.952 123.334C124.333 122.842 124.646 122.298 124.88 121.719C124.807 121.555 124.752 121.383 124.717 121.207C124.624 120.753 124.608 120.128 124.717 119.704C124.091 119.857 123.482 120.072 122.898 120.348C122.495 120.539 122.114 120.775 121.763 121.052ZM125.31 121.696C125.343 121.76 125.392 121.815 125.451 121.855C125.51 121.896 125.578 121.922 125.649 121.931C125.941 121.943 126.293 121.627 126.611 121.059C126.772 120.769 126.905 120.463 127.009 120.146C126.945 119.885 126.909 119.617 126.901 119.348C126.473 119.383 126.003 119.442 125.527 119.531C125.778 120.025 125.634 120.862 125.311 121.696H125.31ZM127.413 120.151C127.473 120.335 127.527 120.371 127.527 120.372C127.743 120.183 127.989 119.776 128.213 119.311C128.03 119.303 127.823 119.302 127.599 119.311C127.562 119.596 127.499 119.877 127.413 120.151ZM125.149 119.647C125.051 119.855 124.981 120.521 125.1 121.114C125.293 120.465 125.333 119.902 125.149 119.648V119.647ZM128.89 117.384C128.847 117.52 128.817 117.659 128.798 117.799C128.838 117.663 128.868 117.525 128.89 117.384Z" fill="#F99746"/>
<path d="M106.696 67.31H92.052V52.4166H106.696V67.31ZM92.7419 66.6083H106.005V53.1182H92.7419V66.6083Z" fill="#ABDDDA"/>
<path d="M99.7367 64.3165C99.5844 64.3164 99.434 64.2821 99.2963 64.2161C99.1585 64.1501 99.0368 64.0539 98.9398 63.9345L94.4209 58.3711C94.3343 58.2646 94.2692 58.1418 94.2293 58.0097C94.1893 57.8777 94.1754 57.7389 94.1882 57.6013C94.201 57.4638 94.2403 57.3301 94.3039 57.208C94.3675 57.0859 94.4542 56.9778 94.5588 56.8897C94.6635 56.8017 94.7843 56.7354 94.9141 56.6948C95.044 56.6542 95.1804 56.6401 95.3157 56.6531C95.4509 56.6661 95.5823 56.7061 95.7024 56.7708C95.8224 56.8355 95.9288 56.9236 96.0154 57.0301L99.5995 61.4393L106.086 50.3763C106.227 50.1365 106.455 49.9634 106.722 49.895C106.988 49.8266 107.27 49.8687 107.506 50.0118C107.742 50.155 107.912 50.3875 107.979 50.6583C108.046 50.9291 108.005 51.216 107.864 51.4558L100.626 63.8025C100.541 63.9472 100.423 64.0691 100.282 64.158C100.142 64.2468 99.9819 64.3001 99.8167 64.3132C99.7897 64.3157 99.7636 64.3165 99.7367 64.3165Z" fill="#F99746"/>
<path d="M106.696 90.5967H92.052V75.7033H106.696V90.5967ZM92.7419 89.8951H106.005V76.405H92.7419V89.8951Z" fill="#ABDDDA"/>
<path d="M99.7368 87.4754C99.5845 87.4753 99.4342 87.441 99.2964 87.375C99.1587 87.309 99.037 87.2128 98.94 87.0934L94.421 81.53C94.3317 81.4239 94.264 81.3007 94.222 81.1677C94.18 81.0347 94.1644 80.8945 94.1762 80.7553C94.188 80.6162 94.2269 80.4808 94.2907 80.357C94.3545 80.2333 94.4419 80.1238 94.5478 80.0348C94.6537 79.9458 94.7759 79.8791 94.9074 79.8387C95.0389 79.7983 95.177 79.7849 95.3136 79.7993C95.4503 79.8137 95.5827 79.8557 95.7032 79.9227C95.8237 79.9898 95.9299 80.0806 96.0155 80.1898L99.5997 84.5982L106.082 73.5319C106.223 73.2921 106.452 73.119 106.718 73.0506C106.984 72.9822 107.266 73.0242 107.502 73.1674C107.738 73.3105 107.908 73.5431 107.975 73.8139C108.042 74.0847 108.001 74.3716 107.86 74.6114L100.626 86.9606C100.541 87.1053 100.423 87.2272 100.282 87.316C100.142 87.4049 99.982 87.4581 99.8168 87.4712C99.7899 87.4737 99.7638 87.4754 99.7368 87.4754Z" fill="#F99746"/>
<path d="M106.696 113.402H92.052V98.5084H106.696V113.402ZM92.7419 112.7H106.005V99.2093H92.7419V112.7Z" fill="#ABDDDA"/>
<g opacity="0.5">
<path opacity="0.5" d="M135.658 55.8917H116.563V57.3448H135.658V55.8917Z" fill="#ABDDDA"/>
<path opacity="0.5" d="M151.884 55.8917H147.543V57.3448H151.884V55.8917Z" fill="#ABDDDA"/>
<path opacity="0.5" d="M135.658 62.3818H116.563V63.8349H135.658V62.3818Z" fill="#ABDDDA"/>
<path opacity="0.5" d="M151.882 62.3818H145.412V63.8349H151.882V62.3818Z" fill="#ABDDDA"/>
<path opacity="0.5" d="M151.883 59.1367H146.564V60.5899H151.883V59.1367Z" fill="#ABDDDA"/>
<path opacity="0.5" d="M135.988 59.1367H130.669V60.5899H135.988V59.1367Z" fill="#ABDDDA"/>
<path opacity="0.5" d="M128.38 59.1367H116.563V60.5899H128.38V59.1367Z" fill="#ABDDDA"/>
</g>
<g opacity="0.5">
<path opacity="0.5" d="M134.929 78.2576H116.563V79.7107H134.929V78.2576Z" fill="#ABDDDA"/>
<path opacity="0.5" d="M135.658 84.7477H116.563V86.2008H135.658V84.7477Z" fill="#ABDDDA"/>
<path opacity="0.5" d="M134.692 81.5026H129.75V82.9558H134.692V81.5026Z" fill="#ABDDDA"/>
<path opacity="0.5" d="M128.38 81.5026H116.563V82.9558H128.38V81.5026Z" fill="#ABDDDA"/>
</g>
<g opacity="0.5">
<path opacity="0.5" d="M135.658 101.257H116.563V102.71H135.658V101.257Z" fill="#ABDDDA"/>
<path opacity="0.5" d="M135.658 107.747H116.563V109.2H135.658V107.747Z" fill="#ABDDDA"/>
<path opacity="0.5" d="M138.054 104.502H129.75V105.955H138.054V104.502Z" fill="#ABDDDA"/>
<path opacity="0.5" d="M128.38 104.502H116.563V105.955H128.38V104.502Z" fill="#ABDDDA"/>
</g>
<path d="M102.07 121.363H92.052V122.395H102.07V121.363Z" fill="#ABDDDA"/>
<path d="M114.406 121.363H104.389V122.395H114.406V121.363Z" fill="#ABDDDA"/>
<path d="M105.944 123.652H92.052V124.683H105.944V123.652Z" fill="#ABDDDA"/>
<path d="M158.283 87.9521C158.283 87.9521 159.025 90.2771 158.962 90.8102C158.898 91.3433 158.432 93.1601 158.099 93.6251C157.766 94.0901 157.602 91.7302 157.338 91.3757C157.074 91.0211 157.284 92.2642 157.098 92.3787C156.912 92.4933 156.526 91.4653 156.358 91.1008C156.19 90.7363 156.766 89.3977 156.766 88.4636C156.766 87.5294 158.283 87.9521 158.283 87.9521Z" fill="#FFB27D"/>
<path d="M140.818 69.4764C140.612 66.8093 143.461 64.9808 145.71 66.3675L145.847 66.4547C149.215 68.6593 156.481 78.9459 156.981 79.9764C157.48 81.0069 158.957 89.205 158.957 89.205C158.957 89.205 157.133 89.8835 156.279 89.1793C156.279 89.1793 153.321 81.4046 152.885 81.016C152.448 80.6274 141.053 74.124 140.956 71.6868C140.93 71.0425 140.879 70.2678 140.818 69.4764Z" fill="#265DCD"/>
<path d="M111.479 70.2391L112.469 73.1328L126.78 68.0641L125.79 65.1705L111.479 70.2391Z" fill="#F99746"/>
<path d="M108.657 72.8668L112.48 73.135L111.489 70.2411L108.657 72.8668Z" fill="#F9DDBF"/>
<path d="M127.792 65.5447L128.106 66.4581C128.198 66.7283 128.181 67.0247 128.059 67.2822C127.936 67.5397 127.718 67.7373 127.453 67.8315L126.79 68.0656L125.8 65.1718L126.52 64.9169C126.644 64.8731 126.776 64.8546 126.907 64.8625C127.038 64.8703 127.166 64.9044 127.284 64.9627C127.402 65.021 127.508 65.1024 127.595 65.2022C127.682 65.3021 127.749 65.4185 127.792 65.5447Z" fill="#F9DDBF"/>
<path d="M161.151 129.685C161.151 129.685 162.509 130.945 162.244 131.844C161.978 132.744 160.754 133.339 160.588 134.431C160.422 135.523 159.76 136.122 159.164 136.122H156.322C156.322 136.122 155.884 135.352 156.943 135.12C158.003 134.888 158.402 133.601 158.336 132.408C158.27 131.215 158.436 129.622 158.436 129.622L160.688 129.092L161.151 129.685Z" fill="#233862"/>
<path d="M144.495 132.944C144.495 132.944 144.74 135.813 144.142 136.111L136.514 136.095C136.514 136.095 136.514 135.2 137.739 135C138.963 134.801 141.117 134.072 141.481 132.447C141.845 130.822 144.495 132.944 144.495 132.944Z" fill="#233862"/>
<path d="M138.055 92.4318C138.055 92.4318 138.457 97.4589 138.93 103.502C139.573 111.711 140.345 121.794 140.422 123.704C140.554 127.026 141.085 132.328 141.085 132.328C141.085 132.328 142.342 133.588 144.86 133.057C144.86 133.057 147.103 125.483 147.744 117.469L147.773 117.073C148.37 108.915 149.297 91.7352 149.297 91.7352L138.055 92.4318Z" fill="#2B478B"/>
<path d="M138.055 92.4318C138.055 92.4318 138.457 97.4589 138.93 103.502L147.747 117.469L147.777 117.073C148.373 108.915 149.3 91.7352 149.3 91.7352L138.055 92.4318Z" fill="#233862"/>
<path d="M139.892 93.0289C139.892 93.0289 147.144 111.235 151.912 119.792C156.68 128.348 158.171 130.736 158.171 130.736C158.171 130.736 160.903 129.641 161.152 128.895C161.152 128.895 159.328 112.377 156.135 108.351C154.33 106.075 152.21 99.2466 152.111 96.8593C152.012 94.472 151.465 89.7456 151.465 89.7456L139.892 93.0289Z" fill="#2B478B"/>
<path d="M146.145 65.7182C146.145 65.7182 141.287 68.2242 138.441 67.3881C138.966 66.7422 139.605 66.2011 140.325 65.7921C140.216 65.2167 140.13 64.7126 140.08 64.2925C140.002 63.7847 139.952 63.273 139.931 62.7596L141.794 61.2068L143.561 59.7213C143.496 63.7992 146.145 65.7182 146.145 65.7182Z" fill="#FFB27D"/>
<path d="M150.971 91.1863C149.011 92.3945 147.152 93.3021 144.978 93.8119C142.414 94.4305 139.263 94.2478 138.209 94.4114C138.1 94.4238 137.99 94.3942 137.901 94.3284C137.82 94.2852 137.354 91.1041 136.887 87.0901C136.867 86.924 136.845 86.7654 136.836 86.6018L136.829 86.5479C136.648 84.9785 136.49 83.3302 136.352 81.677C136.239 80.3916 136.147 79.1203 136.082 77.9254C136.001 76.4307 135.968 75.0581 136.001 73.9288C136.015 73.4132 136.046 72.949 136.091 72.5463C136.368 70.2013 137.468 68.5256 138.504 67.2776L139.363 66.2812C140.359 66.3451 141.376 66.1541 142.336 65.5098C143.385 64.8073 144.517 64.0516 144.731 64.1812C146.338 65.0763 147.648 67.3947 148.584 70.4571C149.152 72.3786 149.557 74.3464 149.794 76.3385C149.876 76.9962 149.951 77.6671 150.006 78.3422C150.017 78.4668 150.025 78.5913 150.035 78.7125C150.162 80.5485 150.368 82.269 150.596 83.8052C150.904 85.8811 151.249 87.6141 151.501 88.8364C151.625 89.4583 151.72 89.9399 151.776 90.2845C151.827 90.5901 151.235 91.0194 150.971 91.1863Z" fill="#3C73E2"/>
<path d="M143.62 61.2782C143.62 61.2782 142.424 63.6033 140.076 64.2916C139.999 63.7839 139.949 63.2722 139.927 62.7588L141.79 61.206L143.62 61.2782Z" fill="#ED985F"/>
<path d="M139.064 62.7106C139.064 62.7106 143.759 63.3948 144.142 60.4595C144.525 57.5241 145.387 55.6359 142.405 55.0745C139.424 54.5132 138.695 55.5578 138.329 56.5069C137.963 57.456 137.853 62.4565 139.064 62.7106Z" fill="#FFB27D"/>
<path d="M145.729 54.6569C145.771 54.6071 145.868 54.5647 146.086 54.5481C145.961 54.4792 145.821 54.4421 145.678 54.4402C145.626 54.1321 145.454 53.5899 144.93 53.4678C145.016 53.5166 145.09 53.5845 145.147 53.6665C145.203 53.7484 145.241 53.8423 145.257 53.9411C144.639 53.3217 143.336 52.8882 139.755 53.2486C135.035 53.7236 136.652 56.7702 137.272 57.1248C137.892 57.4793 139.412 56.4422 140.554 56.5119C141.696 56.5817 141.942 58.2516 142.336 58.4741C142.731 58.6966 142.568 58.2923 143.087 58.0415C143.605 57.7907 143.672 58.6717 143.532 59.248C143.393 59.8243 144.126 60.5666 144.126 60.5666L144.837 59.7554C145.548 58.9449 146.167 55.5595 145.823 54.8479C145.791 54.7848 145.76 54.7184 145.729 54.6569Z" fill="#2C3A64"/>
<path d="M144.238 74.1945C144.238 74.1945 140.279 77.2578 136.082 77.9312C136.001 76.4365 135.968 75.0639 136.001 73.9346L144.238 74.1945Z" fill="#1E3D70"/>
<path d="M119.927 70.2412C119.864 70.1731 119.057 67.4287 117.661 67.6288C116.75 67.7592 115.262 68.2931 115.657 69.5163C115.813 69.9962 118.588 71.6486 118.588 71.6486L119.927 70.2412Z" fill="#FFB27D"/>
<path d="M144.728 68.2749C146.986 69.6483 146.803 73.0694 144.388 74.1314C144.339 74.1538 144.289 74.1746 144.239 74.1954C140.522 75.7116 128.069 75.7822 126.953 75.5995C125.838 75.4168 118.411 71.8961 118.411 71.8961C118.411 71.8961 118.923 69.9904 119.981 69.6906C119.981 69.6906 127.927 71.7391 128.491 71.6005C129.055 71.4618 140.866 65.7779 142.876 67.1082C143.408 67.4611 144.059 67.868 144.728 68.2749Z" fill="#3C73E2"/>
<path d="M222.683 136.054H0.676639C0.501688 136.054 0.359863 136.198 0.359863 136.376V136.678C0.359863 136.856 0.501688 137 0.676639 137H222.683C222.858 137 223 136.856 223 136.678V136.376C223 136.198 222.858 136.054 222.683 136.054Z" fill="#2E3552"/>
<path d="M49.2677 108.056C60.5942 108.056 69.7762 98.5534 69.7762 86.831C69.7762 75.1086 60.5942 65.6057 49.2677 65.6057C37.9412 65.6057 28.7593 75.1086 28.7593 86.831C28.7593 98.5534 37.9412 108.056 49.2677 108.056Z" fill="#FFCC00"/>
<path d="M183.633 132.176C191.314 132.176 197.541 125.805 197.541 117.945C197.541 110.086 191.314 103.715 183.633 103.715C175.952 103.715 169.725 110.086 169.725 117.945C169.725 125.805 175.952 132.176 183.633 132.176Z" fill="#FFCC00"/>
<path d="M49.5035 102.75C58.3564 102.75 65.5331 95.6228 65.5331 86.831C65.5331 78.0392 58.3564 70.912 49.5035 70.912C40.6506 70.912 33.4739 78.0392 33.4739 86.831C33.4739 95.6228 40.6506 102.75 49.5035 102.75Z" fill="#D68900"/>
<path d="M183.87 128.799C189.858 128.799 194.713 123.94 194.713 117.945C194.713 111.951 189.858 107.092 183.87 107.092C177.881 107.092 173.026 111.951 173.026 117.945C173.026 123.94 177.881 128.799 183.87 128.799Z" fill="#D68900"/>
<path d="M49.2682 102.268C57.7305 102.268 64.5906 95.2484 64.5906 86.5898C64.5906 77.9312 57.7305 70.912 49.2682 70.912C40.8059 70.912 33.9458 77.9312 33.9458 86.5898C33.9458 95.2484 40.8059 102.268 49.2682 102.268Z" fill="#F3A100"/>
<path d="M183.632 128.317C189.231 128.317 193.769 123.673 193.769 117.945C193.769 112.217 189.231 107.574 183.632 107.574C178.034 107.574 173.496 112.217 173.496 117.945C173.496 123.673 178.034 128.317 183.632 128.317Z" fill="#F3A100"/>
<path d="M56.6842 80.3758H54.8574C54.6527 79.8339 54.3778 79.3244 54.0406 78.8619H55.9241L57.5176 76.4033L56.6842 75.7359H43.8496L42.2562 78.1946L43.0862 78.8619H49.3068C49.8194 78.7656 50.3478 78.8652 50.797 79.1427C51.2461 79.4202 51.5866 79.8574 51.7571 80.3758H43.5496L41.9595 82.8345L42.7895 83.5018H51.8271C51.552 84.2033 51.0855 84.8031 50.4867 85.2251C49.888 85.6471 49.1838 85.8725 48.4634 85.8727H42.4028V88.6826L47.29 97.7411L48.1234 98.4084H51.477L46.5032 89.0022H49.3602C50.8041 88.9875 52.1943 88.4229 53.2739 87.4125C54.3536 86.4022 55.0498 85.0143 55.2341 83.5053H55.9241L57.5176 81.0466L56.6842 80.3758Z" fill="#D68900"/>
<path d="M188.499 113.529H187.281C187.145 113.171 186.961 112.835 186.737 112.53H187.992L189.055 110.908L188.499 110.468H179.943L178.88 112.09L179.434 112.53H183.581C183.922 112.467 184.275 112.532 184.574 112.715C184.874 112.898 185.101 113.187 185.214 113.529H179.743L178.682 115.15L179.236 115.591H185.261C185.077 116.053 184.767 116.449 184.367 116.727C183.968 117.006 183.499 117.154 183.018 117.154H178.978V119.008L182.236 124.982L182.792 125.423H185.028L181.712 119.218H183.616C184.579 119.209 185.506 118.836 186.225 118.17C186.945 117.504 187.409 116.588 187.532 115.593H187.992L189.055 113.971L188.499 113.529Z" fill="#D68900"/>
<path d="M53.1284 78.2152H54.9971L56.5747 75.7359H43.8347L42.2538 78.2152H48.4254C49.1063 78.2156 49.7733 78.4224 50.3492 78.8116C50.9251 79.2008 51.3864 79.7566 51.6798 80.4148H43.5371L41.9595 82.8941H51.9477C51.7744 83.7608 51.329 84.5377 50.6856 85.0953C50.0422 85.6528 49.2398 85.9573 48.4121 85.9579H42.3993V88.7914L47.2479 97.926H50.5751L45.6472 88.4301H48.4816C49.9094 88.416 51.2845 87.8504 52.3539 86.8372C53.4234 85.824 54.1153 84.4313 54.3025 82.9154H54.9905L56.5681 80.436H54.1438C53.9431 79.6322 53.5982 78.8779 53.1284 78.2152Z" fill="#FFCC00"/>
<path d="M186.249 112.139H187.514L188.583 110.468H179.953L178.882 112.139H183.063C183.524 112.139 183.976 112.279 184.366 112.541C184.756 112.803 185.068 113.178 185.267 113.621H179.751L178.682 115.292H185.449C185.331 115.876 185.03 116.4 184.594 116.776C184.158 117.151 183.614 117.357 183.054 117.357H178.98V119.267L182.265 125.423H184.519L181.181 119.023H183.101C184.068 119.014 184.999 118.632 185.724 117.95C186.448 117.267 186.917 116.328 187.044 115.307H187.51L188.579 113.636H186.936C186.8 113.094 186.567 112.586 186.249 112.139Z" fill="#FFCC00"/>
<path d="M74.7091 128.945H30.3259V135.89H74.7091V128.945Z" fill="#FFCC00"/>
<g style="mix-blend-mode:screen" opacity="0.5">
<path d="M30.3827 129.427H15.2402V136.372H30.3827V129.427Z" fill="#FFCC00"/>
</g>
<g style="mix-blend-mode:multiply" opacity="0.5">
<path d="M74.709 128.945H60.0886V135.89H74.709V128.945Z" fill="#FFCC00"/>
</g>
<path d="M73.1425 121.465H28.7593V128.945H73.1425V121.465Z" fill="#FFCC00"/>
<g style="mix-blend-mode:screen" opacity="0.5">
<path d="M40.2467 121.465H28.7593V128.945H40.2467V121.465Z" fill="#FFCC00"/>
</g>
<g style="mix-blend-mode:multiply" opacity="0.5">
<path d="M73.1421 121.465H54.3445V128.945H73.1421V121.465Z" fill="#FFCC00"/>
</g>
<path d="M77.8422 114.519H33.459V121.465H77.8422V114.519Z" fill="#FFCC00"/>
<g style="mix-blend-mode:screen" opacity="0.5">
<path d="M50.6901 114.519H33.459V121.465H50.6901V114.519Z" fill="#FFCC00"/>
</g>
<path d="M75.2314 107.574H30.8481V114.519H75.2314V107.574Z" fill="#FFCC00"/>
<g style="mix-blend-mode:screen" opacity="0.5">
<path d="M43.902 107.574H30.8481V114.519H43.902V107.574Z" fill="#FFCC00"/>
</g>
<g style="mix-blend-mode:multiply" opacity="0.5">
<path d="M75.2309 107.574H56.9554V114.519H75.2309V107.574Z" fill="#FFCC00"/>
</g>
<g style="mix-blend-mode:multiply" opacity="0.5">
<path d="M73.1427 128.945H30.3259V130.013H73.1427V128.945Z" fill="#FFCC00"/>
</g>
<g style="mix-blend-mode:multiply" opacity="0.5">
<path d="M75.2314 114.519H33.459V115.588H75.2314V114.519Z" fill="#FFCC00"/>
</g>
<path d="M93.7384 30.1277V37.1444H92.2701V30.1277H93.7384Z" fill="#3C64B1"/>
<path d="M100.678 30.1277V37.1444H99.4103L96.389 32.7281H96.3382V37.1444H94.87V30.1277H96.1585L99.1559 34.5405H99.217V30.1277H100.678Z" fill="#3C64B1"/>
<path d="M107.942 32.5842H106.457C106.43 32.3901 106.375 32.2176 106.291 32.0669C106.207 31.9139 106.1 31.7837 105.969 31.6763C105.838 31.569 105.686 31.4867 105.514 31.4296C105.345 31.3725 105.161 31.344 104.962 31.344C104.602 31.344 104.289 31.4342 104.023 31.6147C103.756 31.7928 103.549 32.0532 103.402 32.3958C103.255 32.7361 103.182 33.1495 103.182 33.6361C103.182 34.1363 103.255 34.5565 103.402 34.8969C103.551 35.2372 103.759 35.4941 104.026 35.6677C104.293 35.8413 104.601 35.9281 104.952 35.9281C105.148 35.9281 105.33 35.9018 105.498 35.8493C105.667 35.7968 105.817 35.7203 105.948 35.6198C106.08 35.517 106.188 35.3925 106.274 35.2463C106.362 35.1001 106.423 34.9334 106.457 34.7461L107.942 34.753C107.904 35.075 107.808 35.3856 107.654 35.6849C107.503 35.9818 107.298 36.2479 107.04 36.4831C106.785 36.7161 106.48 36.9011 106.125 37.0382C105.772 37.1729 105.373 37.2403 104.928 37.2403C104.308 37.2403 103.755 37.0987 103.266 36.8155C102.78 36.5322 102.396 36.1223 102.113 35.5855C101.833 35.0487 101.693 34.3989 101.693 33.6361C101.693 32.8709 101.835 32.2199 102.12 31.6832C102.405 31.1464 102.792 30.7376 103.28 30.4566C103.768 30.1734 104.318 30.0318 104.928 30.0318C105.33 30.0318 105.703 30.0889 106.047 30.2031C106.393 30.3173 106.699 30.484 106.966 30.7033C107.232 30.9203 107.449 31.1864 107.617 31.5016C107.786 31.8168 107.895 32.1777 107.942 32.5842Z" fill="#3C64B1"/>
<path d="M115.3 33.6361C115.3 34.4012 115.157 35.0522 114.87 35.5889C114.585 36.1257 114.196 36.5357 113.703 36.8189C113.213 37.0998 112.661 37.2403 112.048 37.2403C111.431 37.2403 110.878 37.0987 110.387 36.8155C109.896 36.5322 109.509 36.1223 109.224 35.5855C108.939 35.0487 108.797 34.3989 108.797 33.6361C108.797 32.8709 108.939 32.2199 109.224 31.6832C109.509 31.1464 109.896 30.7376 110.387 30.4566C110.878 30.1734 111.431 30.0318 112.048 30.0318C112.661 30.0318 113.213 30.1734 113.703 30.4566C114.196 30.7376 114.585 31.1464 114.87 31.6832C115.157 32.2199 115.3 32.8709 115.3 33.6361ZM113.812 33.6361C113.812 33.1404 113.738 32.7224 113.591 32.3821C113.447 32.0418 113.242 31.7837 112.978 31.6078C112.713 31.4319 112.403 31.344 112.048 31.344C111.694 31.344 111.384 31.4319 111.119 31.6078C110.855 31.7837 110.649 32.0418 110.502 32.3821C110.358 32.7224 110.285 33.1404 110.285 33.6361C110.285 34.1317 110.358 34.5497 110.502 34.89C110.649 35.2303 110.855 35.4884 111.119 35.6643C111.384 35.8402 111.694 35.9281 112.048 35.9281C112.403 35.9281 112.713 35.8402 112.978 35.6643C113.242 35.4884 113.447 35.2303 113.591 34.89C113.738 34.5497 113.812 34.1317 113.812 33.6361Z" fill="#3C64B1"/>
<path d="M116.311 30.1277H118.122L120.035 34.842H120.116L122.028 30.1277H123.839V37.1444H122.415V32.5774H122.357L120.56 37.1101H119.59L117.793 32.5603H117.736V37.1444H116.311V30.1277Z" fill="#3C64B1"/>
<path d="M124.972 37.1444V30.1277H129.652V31.3508H126.441V33.0228H129.411V34.2459H126.441V35.9213H129.665V37.1444H124.972Z" fill="#3C64B1"/>
<path d="M132.612 31.3508V30.1277H138.315V31.3508H136.189V37.1444H134.738V31.3508H132.612Z" fill="#3C64B1"/>
<path d="M139.526 37.1444H137.953L140.35 30.1277H142.242L144.636 37.1444H143.063L141.323 31.7311H141.269L139.526 37.1444ZM139.428 34.3864H143.144V35.5444H139.428V34.3864Z" fill="#3C64B1"/>
<path d="M146.772 30.1277L148.173 32.5191H148.227L149.634 30.1277H151.292L149.173 33.6361L151.34 37.1444H149.651L148.227 34.7495H148.173L146.749 37.1444H145.067L147.24 33.6361L145.107 30.1277H146.772Z" fill="#3C64B1"/>
</svg>
